# MagicaVoxel @ Ephtracy

# group
o 

# material
mtllib ShieldCoop-5.mtl
usemtl palette

# normals
vn -1 0 0
vn 1 0 0
vn 0 0 1
vn 0 0 -1
vn 0 -1 0
vn 0 1 0

# texcoords
vt 0.537109 0.5
vt 0.865234 0.5
vt 0.869141 0.5
vt 0.873047 0.5
vt 0.912109 0.5
vt 0.955078 0.5
vt 0.986328 0.5
vt 0.990234 0.5

# verts
v -0.8 -0.9 0
v -0.8 -0.9 -0.2
v -0.8 -0.8 0.1
v -0.8 -0.8 0
v -0.8 -0.6 0.2
v -0.8 -0.6 0.1
v -0.8 -0.6 0
v -0.8 -0.6 -0.2
v -0.8 -0.5 0.2
v -0.8 -0.5 0
v -0.6 -0.9 0.3
v -0.6 -0.9 0
v -0.6 -0.9 -0.2
v -0.6 -0.9 -0.4
v -0.6 -0.8 0.3
v -0.6 -0.8 0.1
v -0.6 -0.8 0
v -0.6 -0.8 -0.1
v -0.6 -0.8 -0.2
v -0.6 -0.8 -0.4
v -0.6 -0.7 0.3
v -0.6 -0.7 0.1
v -0.6 -0.7 0
v -0.6 -0.7 -0.1
v -0.6 -0.7 -0.2
v -0.6 -0.7 -0.4
v -0.6 -0.6 0.2
v -0.6 -0.6 0.1
v -0.6 -0.6 0
v -0.6 -0.6 -0.1
v -0.6 -0.6 -0.2
v -0.6 -0.5 0.2
v -0.6 -0.5 0.1
v -0.6 0.9 0.3
v -0.6 0.9 -0.4
v -0.5 -0.6 0.4
v -0.5 -0.6 0.3
v -0.5 0.8 0.4
v -0.5 0.8 0.3
v -0.7 -0.8 0
v -0.7 -0.8 -0.1
v -0.7 -0.6 0.1
v -0.7 -0.6 0
v -0.7 -0.6 -0.1
v -0.7 -0.5 0.1
v -0.7 -0.5 0
v 0.7 -0.6 0.4
v 0.7 -0.6 0.3
v 0.7 0.8 0.4
v 0.7 0.8 0.3
v 0.8 -0.9 0.3
v 0.8 -0.9 -0.4
v 0.8 -0.8 0.3
v 0.8 -0.8 -0.4
v 0.8 -0.7 0.3
v 0.8 -0.7 -0.4
v 0.8 0.9 0.3
v 0.8 0.9 -0.4
v -0.5 -0.6 0.4
v -0.5 0.8 0.4
v -0.4 -0.3 0.4
v -0.4 -0.1 0.4
v -0.4 0.4 0.4
v -0.4 0.5 0.4
v -0.3 -0.4 0.4
v -0.3 -0.3 0.4
v -0.3 -0.1 0.4
v -0.3 0.4 0.4
v -0.3 0.5 0.4
v -0.3 0.6 0.4
v -0.2 -0.4 0.4
v -0.2 -0.3 0.4
v -0.2 0.5 0.4
v -0.2 0.6 0.4
v -0.2 0.7 0.4
v -0.1 -0.1 0.4
v -0.1 0.2 0.4
v -0.1 0.6 0.4
v -0.1 0.7 0.4
v 0 -0.1 0.4
v 0 0.2 0.4
v 0.2 -0.4 0.4
v 0.2 -0.3 0.4
v 0.3 0.3 0.4
v 0.3 0.4 0.4
v 0.4 -0.4 0.4
v 0.4 -0.3 0.4
v 0.4 0.2 0.4
v 0.4 0.3 0.4
v 0.4 0.4 0.4
v 0.4 0.5 0.4
v 0.4 0.7 0.4
v 0.5 0.1 0.4
v 0.5 0.2 0.4
v 0.5 0.3 0.4
v 0.6 0.1 0.4
v 0.6 0.2 0.4
v 0.6 0.5 0.4
v 0.6 0.7 0.4
v 0.7 -0.6 0.4
v 0.7 0.8 0.4
v -0.6 -0.9 0.3
v -0.6 -0.8 0.3
v -0.6 -0.7 0.3
v -0.6 0.9 0.3
v -0.5 -0.6 0.3
v -0.5 0.8 0.3
v -0.1 -0.8 0.3
v -0.1 -0.7 0.3
v 0.2 -0.8 0.3
v 0.2 -0.7 0.3
v 0.7 -0.6 0.3
v 0.7 0.8 0.3
v 0.8 -0.9 0.3
v 0.8 -0.8 0.3
v 0.8 -0.7 0.3
v 0.8 0.9 0.3
v -0.8 -0.6 0.2
v -0.8 -0.5 0.2
v -0.6 -0.6 0.2
v -0.6 -0.5 0.2
v -0.8 -0.8 0.1
v -0.8 -0.6 0.1
v -0.6 -0.8 0.1
v -0.6 -0.7 0.1
v -0.6 -0.6 0.1
v -0.8 -0.9 0
v -0.8 -0.8 0
v -0.6 -0.9 0
v -0.6 -0.8 0
v -0.7 -0.8 -0.1
v -0.7 -0.6 -0.1
v -0.6 -0.8 -0.1
v -0.6 -0.7 -0.1
v -0.6 -0.6 -0.1
v -0.7 -0.6 0.1
v -0.7 -0.5 0.1
v -0.6 -0.6 0.1
v -0.6 -0.5 0.1
v -0.8 -0.6 0
v -0.8 -0.5 0
v -0.7 -0.8 0
v -0.7 -0.6 0
v -0.7 -0.5 0
v -0.6 -0.8 0
v -0.6 -0.7 0
v -0.6 -0.6 0
v -0.8 -0.9 -0.2
v -0.8 -0.6 -0.2
v -0.6 -0.9 -0.2
v -0.6 -0.8 -0.2
v -0.6 -0.7 -0.2
v -0.6 -0.6 -0.2
v -0.6 -0.9 -0.4
v -0.6 -0.8 -0.4
v -0.6 -0.7 -0.4
v -0.6 0.9 -0.4
v 0.8 -0.9 -0.4
v 0.8 -0.8 -0.4
v 0.8 -0.7 -0.4
v 0.8 0.9 -0.4
v -0.6 -0.9 0.3
v 0.8 -0.9 0.3
v -0.8 -0.9 0
v -0.6 -0.9 0
v -0.8 -0.9 -0.2
v -0.6 -0.9 -0.2
v -0.6 -0.9 -0.4
v 0.8 -0.9 -0.4
v -0.8 -0.8 0.1
v -0.6 -0.8 0.1
v -0.8 -0.8 0
v -0.6 -0.8 0
v -0.5 -0.6 0.4
v 0.7 -0.6 0.4
v -0.5 -0.6 0.3
v 0.7 -0.6 0.3
v -0.8 -0.6 0.2
v -0.6 -0.6 0.2
v -0.8 -0.6 0.1
v -0.6 -0.6 0.1
v -0.7 -0.8 0
v -0.6 -0.8 0
v -0.7 -0.8 -0.1
v -0.6 -0.8 -0.1
v -0.7 -0.6 0.1
v -0.6 -0.6 0.1
v -0.8 -0.6 0
v -0.7 -0.6 0
v -0.6 -0.6 0
v -0.7 -0.6 -0.1
v -0.6 -0.6 -0.1
v -0.8 -0.6 -0.2
v -0.6 -0.6 -0.2
v -0.8 -0.5 0.2
v -0.6 -0.5 0.2
v -0.7 -0.5 0.1
v -0.6 -0.5 0.1
v -0.8 -0.5 0
v -0.7 -0.5 0
v -0.5 0.8 0.4
v 0.7 0.8 0.4
v -0.5 0.8 0.3
v 0.7 0.8 0.3
v -0.6 0.9 0.3
v 0.8 0.9 0.3
v -0.6 0.9 -0.4
v 0.8 0.9 -0.4

# faces
f 4/1/1 2/1/1 1/1/1
f 6/1/1 4/1/1 3/1/1
f 7/1/1 2/1/1 4/1/1
f 7/1/1 4/1/1 6/1/1
f 8/1/1 2/1/1 7/1/1
f 9/1/1 6/1/1 5/1/1
f 9/1/1 7/1/1 6/1/1
f 10/1/1 7/1/1 9/1/1
f 15/4/1 12/4/1 11/4/1
f 16/4/1 12/4/1 15/4/1
f 17/4/1 12/4/1 16/4/1
f 19/4/1 14/4/1 13/4/1
f 20/4/1 14/4/1 19/4/1
f 21/1/1 16/1/1 15/1/1
f 22/1/1 16/1/1 21/1/1
f 23/1/1 18/1/1 17/1/1
f 24/1/1 18/1/1 23/1/1
f 25/1/1 20/1/1 19/1/1
f 26/1/1 20/1/1 25/1/1
f 27/4/1 22/4/1 21/4/1
f 28/4/1 22/4/1 27/4/1
f 29/4/1 24/4/1 23/4/1
f 30/4/1 24/4/1 29/4/1
f 31/4/1 26/4/1 25/4/1
f 32/4/1 27/4/1 21/4/1
f 33/4/1 31/4/1 30/4/1
f 33/4/1 30/4/1 29/4/1
f 33/4/1 29/4/1 28/4/1
f 34/4/1 32/4/1 21/4/1
f 34/4/1 33/4/1 32/4/1
f 35/4/1 31/4/1 33/4/1
f 35/4/1 33/4/1 34/4/1
f 35/4/1 26/4/1 31/4/1
f 38/2/1 37/2/1 36/2/1
f 39/2/1 37/2/1 38/2/1
f 40/1/2 41/1/2 43/1/2
f 43/1/2 41/1/2 44/1/2
f 42/1/2 43/1/2 45/1/2
f 45/1/2 43/1/2 46/1/2
f 47/2/2 48/2/2 49/2/2
f 49/2/2 48/2/2 50/2/2
f 51/4/2 52/4/2 53/4/2
f 53/4/2 52/4/2 54/4/2
f 53/1/2 54/1/2 55/1/2
f 55/1/2 54/1/2 56/1/2
f 55/4/2 56/4/2 57/4/2
f 57/4/2 56/4/2 58/4/2
f 61/2/3 60/2/3 59/2/3
f 62/2/3 60/2/3 61/2/3
f 63/2/3 60/2/3 62/2/3
f 64/2/3 60/2/3 63/2/3
f 65/2/3 61/2/3 59/2/3
f 66/3/3 62/3/3 61/3/3
f 66/2/3 61/2/3 65/2/3
f 67/2/3 63/2/3 62/2/3
f 67/3/3 62/3/3 66/3/3
f 68/3/3 64/3/3 63/3/3
f 68/2/3 63/2/3 67/2/3
f 69/2/3 60/2/3 64/2/3
f 69/3/3 64/3/3 68/3/3
f 70/2/3 60/2/3 69/2/3
f 71/2/3 65/2/3 59/2/3
f 71/3/3 66/3/3 65/3/3
f 72/2/3 68/2/3 67/2/3
f 72/3/3 66/3/3 71/3/3
f 72/2/3 67/2/3 66/2/3
f 72/2/3 69/2/3 68/2/3
f 73/3/3 70/3/3 69/3/3
f 73/2/3 69/2/3 72/2/3
f 74/2/3 60/2/3 70/2/3
f 74/3/3 70/3/3 73/3/3
f 75/2/3 60/2/3 74/2/3
f 76/2/3 73/2/3 72/2/3
f 76/2/3 72/2/3 71/2/3
f 76/2/3 74/2/3 73/2/3
f 77/2/3 74/2/3 76/2/3
f 78/3/3 75/3/3 74/3/3
f 78/2/3 74/2/3 77/2/3
f 79/2/3 60/2/3 75/2/3
f 79/3/3 75/3/3 78/3/3
f 80/3/3 77/3/3 76/3/3
f 80/2/3 76/2/3 71/2/3
f 81/2/3 78/2/3 77/2/3
f 81/3/3 77/3/3 80/3/3
f 81/2/3 79/2/3 78/2/3
f 82/2/3 71/2/3 59/2/3
f 82/2/3 80/2/3 71/2/3
f 82/2/3 81/2/3 80/2/3
f 83/2/3 81/2/3 82/2/3
f 84/2/3 79/2/3 81/2/3
f 84/2/3 81/2/3 83/2/3
f 85/2/3 79/2/3 84/2/3
f 86/3/3 83/3/3 82/3/3
f 86/2/3 82/2/3 59/2/3
f 87/2/3 84/2/3 83/2/3
f 87/3/3 83/3/3 86/3/3
f 88/2/3 84/2/3 87/2/3
f 89/3/3 85/3/3 84/3/3
f 89/2/3 84/2/3 88/2/3
f 90/2/3 79/2/3 85/2/3
f 90/3/3 85/3/3 89/3/3
f 91/2/3 79/2/3 90/2/3
f 92/2/3 60/2/3 79/2/3
f 92/2/3 79/2/3 91/2/3
f 93/2/3 88/2/3 87/2/3
f 93/2/3 87/2/3 86/2/3
f 94/3/3 89/3/3 88/3/3
f 94/2/3 88/2/3 93/2/3
f 95/2/3 91/2/3 90/2/3
f 95/3/3 89/3/3 94/3/3
f 95/2/3 90/2/3 89/2/3
f 96/2/3 93/2/3 86/2/3
f 96/3/3 94/3/3 93/3/3
f 97/2/3 95/2/3 94/2/3
f 97/3/3 94/3/3 96/3/3
f 98/2/3 91/2/3 95/2/3
f 98/2/3 95/2/3 97/2/3
f 98/3/3 92/3/3 91/3/3
f 99/2/3 60/2/3 92/2/3
f 99/3/3 92/3/3 98/3/3
f 100/2/3 97/2/3 96/2/3
f 100/2/3 96/2/3 86/2/3
f 100/2/3 99/2/3 98/2/3
f 100/2/3 86/2/3 59/2/3
f 100/2/3 98/2/3 97/2/3
f 101/2/3 60/2/3 99/2/3
f 101/2/3 99/2/3 100/2/3
f 106/4/3 105/4/3 104/4/3
f 107/4/3 105/4/3 106/4/3
f 108/4/3 103/4/3 102/4/3
f 108/1/3 104/1/3 103/1/3
f 109/4/3 106/4/3 104/4/3
f 109/1/3 104/1/3 108/1/3
f 110/4/3 108/4/3 102/4/3
f 110/8/3 109/8/3 108/8/3
f 111/4/3 106/4/3 109/4/3
f 111/8/3 109/8/3 110/8/3
f 112/4/3 106/4/3 111/4/3
f 113/4/3 105/4/3 107/4/3
f 114/4/3 110/4/3 102/4/3
f 115/1/3 111/1/3 110/1/3
f 115/4/3 110/4/3 114/4/3
f 116/4/3 112/4/3 111/4/3
f 116/1/3 111/1/3 115/1/3
f 116/4/3 113/4/3 112/4/3
f 117/4/3 105/4/3 113/4/3
f 117/4/3 113/4/3 116/4/3
f 120/1/3 119/1/3 118/1/3
f 121/1/3 119/1/3 120/1/3
f 124/1/3 123/1/3 122/1/3
f 125/1/3 123/1/3 124/1/3
f 126/1/3 123/1/3 125/1/3
f 129/1/3 128/1/3 127/1/3
f 130/1/3 128/1/3 129/1/3
f 133/1/3 132/1/3 131/1/3
f 134/1/3 132/1/3 133/1/3
f 135/1/3 132/1/3 134/1/3
f 136/1/4 137/1/4 138/1/4
f 138/1/4 137/1/4 139/1/4
f 140/1/4 141/1/4 143/1/4
f 143/1/4 141/1/4 144/1/4
f 142/1/4 143/1/4 145/1/4
f 145/1/4 143/1/4 146/1/4
f 146/1/4 143/1/4 147/1/4
f 148/1/4 149/1/4 150/1/4
f 150/1/4 149/1/4 151/1/4
f 151/1/4 149/1/4 152/1/4
f 152/1/4 149/1/4 153/1/4
f 154/4/4 155/4/4 158/4/4
f 155/1/4 156/1/4 159/1/4
f 158/4/4 155/4/4 159/4/4
f 156/4/4 157/4/4 160/4/4
f 159/1/4 156/1/4 160/1/4
f 160/4/4 157/4/4 161/4/4
f 165/4/5 163/4/5 162/4/5
f 166/1/5 165/1/5 164/1/5
f 167/4/5 163/4/5 165/4/5
f 167/1/5 165/1/5 166/1/5
f 168/4/5 163/4/5 167/4/5
f 169/4/5 163/4/5 168/4/5
f 172/1/5 171/1/5 170/1/5
f 173/1/5 171/1/5 172/1/5
f 176/2/5 175/2/5 174/2/5
f 177/2/5 175/2/5 176/2/5
f 180/1/5 179/1/5 178/1/5
f 181/1/5 179/1/5 180/1/5
f 182/1/6 183/1/6 184/1/6
f 184/1/6 183/1/6 185/1/6
f 186/1/6 187/1/6 189/1/6
f 189/1/6 187/1/6 190/1/6
f 188/1/6 189/1/6 191/1/6
f 188/1/6 191/1/6 193/1/6
f 191/1/6 192/1/6 193/1/6
f 193/1/6 192/1/6 194/1/6
f 195/1/6 196/1/6 197/1/6
f 197/1/6 196/1/6 198/1/6
f 195/1/6 197/1/6 199/1/6
f 199/1/6 197/1/6 200/1/6
f 201/2/6 202/2/6 203/2/6
f 203/2/6 202/2/6 204/2/6
f 205/4/6 206/4/6 207/4/6
f 207/4/6 206/4/6 208/4/6
