# MagicaVoxel @ Ephtracy

# group
o 

# material
mtllib ShieldCoop-2.mtl
usemtl palette

# normals
vn -1 0 0
vn 1 0 0
vn 0 0 1
vn 0 0 -1
vn 0 -1 0
vn 0 1 0

# texcoords
vt 0.841797 0.5
vt 0.861328 0.5
vt 0.873047 0.5
vt 0.947266 0.5
vt 0.951172 0.5
vt 0.994141 0.5

# verts
v -0.2 -0.8 0.3
v -0.2 -0.8 -0.3
v -0.2 -0.6 0.3
v -0.2 -0.6 0.2
v -0.2 -0.5 0.2
v -0.2 -0.5 -0.3
v -0.2 0.8 0.2
v -0.2 0.8 -0.2
v -0.2 0.9 0.3
v -0.2 0.9 0.2
v -0.2 0.9 -0.2
v -0.2 0.9 -0.3
v 0 0.8 0.3
v 0 0.8 0.2
v 0 0.8 -0.2
v 0 0.8 -0.3
v 0 0.9 0.3
v 0 0.9 0.2
v 0 0.9 -0.2
v 0 0.9 -0.3
v 0.1 0.7 0.3
v 0.1 0.7 0.2
v 0.1 0.7 -0.2
v 0.1 0.7 -0.3
v 0.1 0.8 0.3
v 0.1 0.8 0.2
v 0.1 0.8 -0.2
v 0.1 0.8 -0.3
v 0.1 0.9 0.2
v 0.1 0.9 -0.2
v 0.2 -0.8 0.3
v 0.2 -0.8 -0.3
v 0.2 -0.6 0.3
v 0.2 -0.6 -0.3
v 0.2 -0.5 0.2
v 0.2 -0.5 -0.2
v 0.2 0.7 0.3
v 0.2 0.7 0.2
v 0.2 0.7 -0.2
v 0.2 0.7 -0.3
v 0.2 0.8 0.2
v 0.2 0.8 -0.2
v -0.2 -0.8 0.3
v -0.2 -0.6 0.3
v -0.2 0.9 0.3
v 0 0.8 0.3
v 0 0.9 0.3
v 0.1 0.7 0.3
v 0.1 0.8 0.3
v 0.2 -0.8 0.3
v 0.2 -0.6 0.3
v 0.2 0.7 0.3
v 0 0.8 0.2
v 0 0.9 0.2
v 0.1 0.7 0.2
v 0.1 0.8 0.2
v 0.1 0.9 0.2
v 0.2 0.7 0.2
v 0.2 0.8 0.2
v 0 0.8 -0.2
v 0 0.9 -0.2
v 0.1 0.7 -0.2
v 0.1 0.8 -0.2
v 0.1 0.9 -0.2
v 0.2 0.7 -0.2
v 0.2 0.8 -0.2
v -0.2 -0.8 -0.3
v -0.2 -0.5 -0.3
v -0.2 0.9 -0.3
v 0 0.8 -0.3
v 0 0.9 -0.3
v 0.1 -0.6 -0.3
v 0.1 -0.5 -0.3
v 0.1 0.7 -0.3
v 0.1 0.8 -0.3
v 0.2 -0.8 -0.3
v 0.2 -0.6 -0.3
v 0.2 0.7 -0.3
v -0.2 -0.8 0.3
v 0.2 -0.8 0.3
v -0.2 -0.8 -0.3
v 0.2 -0.8 -0.3
v 0.1 0.7 0.3
v 0.2 0.7 0.3
v 0.1 0.7 0.2
v 0.2 0.7 0.2
v 0.1 0.7 -0.2
v 0.2 0.7 -0.2
v 0.1 0.7 -0.3
v 0.2 0.7 -0.3
v 0 0.8 0.3
v 0.1 0.8 0.3
v 0 0.8 0.2
v 0.1 0.8 0.2
v 0.2 0.8 0.2
v 0 0.8 -0.2
v 0.1 0.8 -0.2
v 0.2 0.8 -0.2
v 0 0.8 -0.3
v 0.1 0.8 -0.3
v -0.2 0.9 0.3
v 0 0.9 0.3
v -0.2 0.9 0.2
v 0 0.9 0.2
v 0.1 0.9 0.2
v -0.2 0.9 -0.2
v 0 0.9 -0.2
v 0.1 0.9 -0.2
v -0.2 0.9 -0.3
v 0 0.9 -0.3

# faces
f 3/6/1 2/6/1 1/6/1
f 4/6/1 2/6/1 3/6/1
f 5/3/1 4/3/1 3/3/1
f 5/6/1 2/6/1 4/6/1
f 6/6/1 2/6/1 5/6/1
f 7/3/1 5/3/1 3/3/1
f 7/3/1 6/3/1 5/3/1
f 8/3/1 6/3/1 7/3/1
f 9/3/1 7/3/1 3/3/1
f 10/1/1 8/1/1 7/1/1
f 10/3/1 7/3/1 9/3/1
f 11/3/1 6/3/1 8/3/1
f 11/1/1 8/1/1 10/1/1
f 12/3/1 6/3/1 11/3/1
f 13/3/2 14/3/2 17/3/2
f 17/3/2 14/3/2 18/3/2
f 15/3/2 16/3/2 19/3/2
f 19/3/2 16/3/2 20/3/2
f 21/3/2 22/3/2 25/3/2
f 25/3/2 22/3/2 26/3/2
f 23/3/2 24/3/2 27/3/2
f 27/3/2 24/3/2 28/3/2
f 26/1/2 27/1/2 29/1/2
f 29/1/2 27/1/2 30/1/2
f 31/6/2 32/6/2 33/6/2
f 33/6/2 32/6/2 34/6/2
f 33/3/2 34/3/2 35/3/2
f 35/3/2 34/3/2 36/3/2
f 33/3/2 35/3/2 37/3/2
f 35/2/2 36/2/2 38/2/2
f 37/3/2 35/3/2 38/3/2
f 36/3/2 34/3/2 39/3/2
f 38/2/2 36/2/2 39/2/2
f 39/3/2 34/3/2 40/3/2
f 38/2/2 39/2/2 41/2/2
f 41/2/2 39/2/2 42/2/2
f 46/3/3 45/3/3 44/3/3
f 47/3/3 45/3/3 46/3/3
f 48/3/3 46/3/3 44/3/3
f 49/3/3 46/3/3 48/3/3
f 50/6/3 44/6/3 43/6/3
f 51/3/3 48/3/3 44/3/3
f 51/6/3 44/6/3 50/6/3
f 52/3/3 48/3/3 51/3/3
f 56/1/3 54/1/3 53/1/3
f 57/1/3 54/1/3 56/1/3
f 58/2/3 56/2/3 55/2/3
f 59/2/3 56/2/3 58/2/3
f 60/1/4 61/1/4 63/1/4
f 63/1/4 61/1/4 64/1/4
f 62/2/4 63/2/4 65/2/4
f 65/2/4 63/2/4 66/2/4
f 68/3/4 69/3/4 70/3/4
f 70/3/4 69/3/4 71/3/4
f 67/6/4 68/6/4 72/6/4
f 68/3/4 70/3/4 73/3/4
f 72/6/4 68/6/4 73/6/4
f 73/3/4 70/3/4 74/3/4
f 74/3/4 70/3/4 75/3/4
f 67/6/4 72/6/4 76/6/4
f 72/3/4 73/3/4 77/3/4
f 76/6/4 72/6/4 77/6/4
f 73/3/4 74/3/4 77/3/4
f 77/3/4 74/3/4 78/3/4
f 81/6/5 80/6/5 79/6/5
f 82/6/5 80/6/5 81/6/5
f 83/3/6 84/3/6 85/3/6
f 85/3/6 84/3/6 86/3/6
f 87/3/6 88/3/6 89/3/6
f 89/3/6 88/3/6 90/3/6
f 91/3/6 92/3/6 93/3/6
f 93/3/6 92/3/6 94/3/6
f 94/2/6 95/2/6 97/2/6
f 97/2/6 95/2/6 98/2/6
f 96/3/6 97/3/6 99/3/6
f 99/3/6 97/3/6 100/3/6
f 101/3/6 102/3/6 103/3/6
f 103/3/6 102/3/6 104/3/6
f 103/1/6 104/1/6 106/1/6
f 104/1/6 105/1/6 106/1/6
f 106/1/6 105/1/6 107/1/6
f 107/1/6 105/1/6 108/1/6
f 106/3/6 107/3/6 109/3/6
f 109/3/6 107/3/6 110/3/6
