# MagicaVoxel @ Ephtracy

# group
o 

# material
mtllib ShieldCoop-0.mtl
usemtl palette

# normals
vn -1 0 0
vn 1 0 0
vn 0 0 1
vn 0 0 -1
vn 0 -1 0
vn 0 1 0

# texcoords
vt 0.845703 0.5
vt 0.873047 0.5
vt 0.912109 0.5
vt 0.916016 0.5
vt 0.951172 0.5
vt 0.986328 0.5
vt 0.990234 0.5

# verts
v -0.2 -0.8 -0.2
v -0.2 -0.8 -0.4
v -0.2 -0.7 -0.1
v -0.2 -0.7 -0.2
v -0.2 -0.6 0.1
v -0.2 -0.6 -0.1
v -0.2 0 0.2
v -0.2 0 0.1
v -0.2 0 -0.4
v -0.2 0.1 0.2
v -0.2 0.1 0.1
v -0.2 0.1 -0.4
v -0.2 0.3 0.2
v -0.2 0.3 0.1
v -0.2 0.3 -0.4
v -0.2 0.4 0.2
v -0.2 0.4 0.1
v -0.2 0.4 -0.4
v -0.2 0.9 0.1
v -0.2 0.9 -0.4
v -0.1 -0.8 0.3
v -0.1 -0.8 -0.2
v -0.1 -0.7 -0.1
v -0.1 -0.7 -0.2
v -0.1 -0.6 0.3
v -0.1 -0.6 0.1
v -0.1 -0.6 -0.1
v -0.1 0.1 0.2
v -0.1 0.1 0.1
v -0.1 0.3 0.2
v -0.1 0.3 0.1
v 0.2 -0.8 0.3
v 0.2 -0.8 -0.2
v 0.2 -0.7 0
v 0.2 -0.7 -0.2
v 0.2 -0.6 0.3
v 0.2 -0.6 0.1
v 0.2 -0.6 0
v 0.2 0.1 0.2
v 0.2 0.1 0.1
v 0.2 0.2 0.2
v 0.2 0.2 0.1
v 0.2 0.3 0.2
v 0.2 0.3 0.1
v 0.3 -0.8 -0.2
v 0.3 -0.8 -0.4
v 0.3 -0.7 0
v 0.3 -0.7 -0.2
v 0.3 -0.6 0.1
v 0.3 -0.6 0
v 0.3 0 0.2
v 0.3 0 0.1
v 0.3 0 -0.4
v 0.3 0.1 0.2
v 0.3 0.1 0.1
v 0.3 0.1 -0.4
v 0.3 0.3 0.2
v 0.3 0.3 0.1
v 0.3 0.3 -0.4
v 0.3 0.4 0.2
v 0.3 0.4 0.1
v 0.3 0.4 -0.4
v 0.3 0.9 0.1
v 0.3 0.9 -0.4
v -0.1 -0.8 0.3
v -0.1 -0.6 0.3
v 0.2 -0.8 0.3
v 0.2 -0.6 0.3
v -0.2 0 0.2
v -0.2 0.1 0.2
v -0.2 0.3 0.2
v -0.2 0.4 0.2
v -0.1 0.1 0.2
v -0.1 0.3 0.2
v -0.1 0.4 0.2
v 0 0 0.2
v 0 0.1 0.2
v 0 0.2 0.2
v 0 0.4 0.2
v 0.1 0.1 0.2
v 0.1 0.2 0.2
v 0.1 0.3 0.2
v 0.1 0.4 0.2
v 0.2 0 0.2
v 0.2 0.1 0.2
v 0.2 0.2 0.2
v 0.2 0.3 0.2
v 0.2 0.4 0.2
v 0.3 0 0.2
v 0.3 0.1 0.2
v 0.3 0.3 0.2
v 0.3 0.4 0.2
v -0.2 -0.6 0.1
v -0.2 0 0.1
v -0.2 0.1 0.1
v -0.2 0.3 0.1
v -0.2 0.4 0.1
v -0.2 0.9 0.1
v -0.1 -0.6 0.1
v -0.1 0.1 0.1
v -0.1 0.3 0.1
v -0.1 0.4 0.1
v 0 -0.5 0.1
v 0 0 0.1
v 0 0.4 0.1
v 0 0.9 0.1
v 0.1 -0.5 0.1
v 0.1 0 0.1
v 0.1 0.4 0.1
v 0.1 0.9 0.1
v 0.2 -0.6 0.1
v 0.2 0 0.1
v 0.2 0.1 0.1
v 0.2 0.2 0.1
v 0.2 0.3 0.1
v 0.2 0.4 0.1
v 0.3 -0.6 0.1
v 0.3 0 0.1
v 0.3 0.1 0.1
v 0.3 0.3 0.1
v 0.3 0.4 0.1
v 0.3 0.9 0.1
v 0.2 -0.7 0
v 0.2 -0.6 0
v 0.3 -0.7 0
v 0.3 -0.6 0
v -0.2 -0.7 -0.1
v -0.2 -0.6 -0.1
v -0.1 -0.7 -0.1
v -0.1 -0.6 -0.1
v -0.2 -0.8 -0.2
v -0.2 -0.7 -0.2
v -0.1 -0.8 -0.2
v -0.1 -0.7 -0.2
v 0.2 -0.8 -0.2
v 0.2 -0.7 -0.2
v 0.3 -0.8 -0.2
v 0.3 -0.7 -0.2
v -0.2 -0.8 -0.4
v -0.2 0 -0.4
v -0.2 0.1 -0.4
v -0.2 0.3 -0.4
v -0.2 0.4 -0.4
v -0.2 0.9 -0.4
v 0.3 -0.8 -0.4
v 0.3 0 -0.4
v 0.3 0.1 -0.4
v 0.3 0.3 -0.4
v 0.3 0.4 -0.4
v 0.3 0.9 -0.4
v -0.1 -0.8 0.3
v 0.2 -0.8 0.3
v -0.2 -0.8 -0.2
v -0.1 -0.8 -0.2
v 0.2 -0.8 -0.2
v 0.3 -0.8 -0.2
v -0.1 -0.8 -0.3
v 0.2 -0.8 -0.3
v -0.2 -0.8 -0.4
v 0.3 -0.8 -0.4
v 0.2 -0.7 0
v 0.3 -0.7 0
v -0.2 -0.7 -0.1
v -0.1 -0.7 -0.1
v -0.2 -0.7 -0.2
v -0.1 -0.7 -0.2
v 0.2 -0.7 -0.2
v 0.3 -0.7 -0.2
v -0.2 -0.6 0.1
v -0.1 -0.6 0.1
v 0.2 -0.6 0.1
v 0.3 -0.6 0.1
v 0.2 -0.6 0
v 0.3 -0.6 0
v -0.2 -0.6 -0.1
v -0.1 -0.6 -0.1
v -0.2 0 0.2
v 0 0 0.2
v 0.2 0 0.2
v 0.3 0 0.2
v -0.2 0 0.1
v 0 0 0.1
v 0.1 0 0.1
v 0.2 0 0.1
v 0.3 0 0.1
v -0.2 0.3 0.2
v -0.1 0.3 0.2
v 0.2 0.3 0.2
v 0.3 0.3 0.2
v -0.2 0.3 0.1
v -0.1 0.3 0.1
v 0.2 0.3 0.1
v 0.3 0.3 0.1
v -0.1 -0.6 0.3
v 0.2 -0.6 0.3
v -0.1 -0.6 0.1
v 0.2 -0.6 0.1
v -0.2 0.1 0.2
v -0.1 0.1 0.2
v 0.2 0.1 0.2
v 0.3 0.1 0.2
v -0.2 0.1 0.1
v -0.1 0.1 0.1
v 0.2 0.1 0.1
v 0.3 0.1 0.1
v -0.2 0.4 0.2
v -0.1 0.4 0.2
v 0 0.4 0.2
v 0.1 0.4 0.2
v 0.2 0.4 0.2
v 0.3 0.4 0.2
v -0.2 0.4 0.1
v -0.1 0.4 0.1
v 0 0.4 0.1
v 0.1 0.4 0.1
v 0.2 0.4 0.1
v 0.3 0.4 0.1
v -0.2 0.9 0.1
v 0 0.9 0.1
v 0.1 0.9 0.1
v 0.3 0.9 0.1
v -0.1 0.9 0
v 0 0.9 0
v 0.1 0.9 0
v 0.2 0.9 0
v -0.1 0.9 -0.3
v 0.2 0.9 -0.3
v -0.2 0.9 -0.4
v 0.3 0.9 -0.4

# faces
f 4/2/1 2/2/1 1/2/1
f 6/2/1 4/2/1 3/2/1
f 8/2/1 6/2/1 5/2/1
f 9/2/1 2/2/1 4/2/1
f 9/2/1 4/2/1 6/2/1
f 9/2/1 6/2/1 8/2/1
f 10/7/1 8/7/1 7/7/1
f 10/7/1 9/7/1 8/7/1
f 11/7/1 9/7/1 10/7/1
f 12/7/1 9/7/1 11/7/1
f 14/2/1 12/2/1 11/2/1
f 15/2/1 12/2/1 14/2/1
f 16/7/1 14/7/1 13/7/1
f 16/7/1 15/7/1 14/7/1
f 17/7/1 15/7/1 16/7/1
f 18/7/1 15/7/1 17/7/1
f 19/2/1 18/2/1 17/2/1
f 20/2/1 18/2/1 19/2/1
f 23/7/1 22/7/1 21/7/1
f 24/7/1 22/7/1 23/7/1
f 25/7/1 23/7/1 21/7/1
f 26/7/1 23/7/1 25/7/1
f 27/7/1 23/7/1 26/7/1
f 30/6/1 29/6/1 28/6/1
f 31/6/1 29/6/1 30/6/1
f 32/7/2 33/7/2 34/7/2
f 34/7/2 33/7/2 35/7/2
f 32/7/2 34/7/2 36/7/2
f 36/7/2 34/7/2 37/7/2
f 37/7/2 34/7/2 38/7/2
f 39/6/2 40/6/2 41/6/2
f 41/6/2 40/6/2 42/6/2
f 41/7/2 42/7/2 43/7/2
f 43/7/2 42/7/2 44/7/2
f 45/2/2 46/2/2 48/2/2
f 47/2/2 48/2/2 50/2/2
f 49/2/2 50/2/2 52/2/2
f 48/2/2 46/2/2 53/2/2
f 50/2/2 48/2/2 53/2/2
f 52/2/2 50/2/2 53/2/2
f 51/7/2 52/7/2 54/7/2
f 52/7/2 53/7/2 54/7/2
f 54/7/2 53/7/2 55/7/2
f 55/7/2 53/7/2 56/7/2
f 55/2/2 56/2/2 58/2/2
f 58/2/2 56/2/2 59/2/2
f 57/7/2 58/7/2 60/7/2
f 58/7/2 59/7/2 60/7/2
f 60/7/2 59/7/2 61/7/2
f 61/7/2 59/7/2 62/7/2
f 61/2/2 62/2/2 63/2/2
f 63/2/2 62/2/2 64/2/2
f 67/7/3 66/7/3 65/7/3
f 68/7/3 66/7/3 67/7/3
f 73/7/3 70/7/3 69/7/3
f 74/7/3 72/7/3 71/7/3
f 75/7/3 72/7/3 74/7/3
f 76/7/3 73/7/3 69/7/3
f 77/6/3 74/6/3 73/6/3
f 77/7/3 73/7/3 76/7/3
f 77/6/3 75/6/3 74/6/3
f 78/6/3 75/6/3 77/6/3
f 79/6/3 75/6/3 78/6/3
f 80/6/3 77/6/3 76/6/3
f 80/7/3 78/7/3 77/7/3
f 81/1/3 79/1/3 78/1/3
f 81/7/3 78/7/3 80/7/3
f 82/1/3 79/1/3 81/1/3
f 83/1/3 79/1/3 82/1/3
f 84/6/3 80/6/3 76/6/3
f 84/6/3 81/6/3 80/6/3
f 85/6/3 81/6/3 84/6/3
f 86/7/3 82/7/3 81/7/3
f 86/6/3 81/6/3 85/6/3
f 87/6/3 83/6/3 82/6/3
f 87/7/3 82/7/3 86/7/3
f 88/6/3 83/6/3 87/6/3
f 89/7/3 85/7/3 84/7/3
f 90/7/3 85/7/3 89/7/3
f 91/7/3 88/7/3 87/7/3
f 92/7/3 88/7/3 91/7/3
f 99/2/3 94/2/3 93/2/3
f 100/2/3 96/2/3 95/2/3
f 101/2/3 96/2/3 100/2/3
f 102/2/3 98/2/3 97/2/3
f 103/2/3 94/2/3 99/2/3
f 104/2/3 94/2/3 103/2/3
f 105/2/3 98/2/3 102/2/3
f 106/2/3 98/2/3 105/2/3
f 107/1/3 104/1/3 103/1/3
f 107/2/3 103/2/3 99/2/3
f 108/1/3 104/1/3 107/1/3
f 109/1/3 106/1/3 105/1/3
f 110/1/3 106/1/3 109/1/3
f 111/2/3 108/2/3 107/2/3
f 111/2/3 107/2/3 99/2/3
f 112/2/3 108/2/3 111/2/3
f 116/2/3 110/2/3 109/2/3
f 117/2/3 112/2/3 111/2/3
f 118/2/3 112/2/3 117/2/3
f 119/2/3 115/2/3 114/2/3
f 119/2/3 114/2/3 113/2/3
f 120/2/3 115/2/3 119/2/3
f 121/2/3 110/2/3 116/2/3
f 122/2/3 110/2/3 121/2/3
f 125/2/3 124/2/3 123/2/3
f 126/2/3 124/2/3 125/2/3
f 129/2/3 128/2/3 127/2/3
f 130/2/3 128/2/3 129/2/3
f 133/2/3 132/2/3 131/2/3
f 134/2/3 132/2/3 133/2/3
f 137/2/3 136/2/3 135/2/3
f 138/2/3 136/2/3 137/2/3
f 139/2/4 140/2/4 145/2/4
f 140/7/4 141/7/4 146/7/4
f 145/2/4 140/2/4 146/2/4
f 141/2/4 142/2/4 147/2/4
f 146/7/4 141/7/4 147/7/4
f 142/7/4 143/7/4 148/7/4
f 147/2/4 142/2/4 148/2/4
f 143/2/4 144/2/4 149/2/4
f 148/7/4 143/7/4 149/7/4
f 149/2/4 144/2/4 150/2/4
f 154/7/5 152/7/5 151/7/5
f 155/7/5 152/7/5 154/7/5
f 157/2/5 154/2/5 153/2/5
f 157/7/5 155/7/5 154/7/5
f 158/2/5 156/2/5 155/2/5
f 158/7/5 155/7/5 157/7/5
f 159/2/5 157/2/5 153/2/5
f 159/2/5 158/2/5 157/2/5
f 160/2/5 156/2/5 158/2/5
f 160/2/5 158/2/5 159/2/5
f 165/2/5 164/2/5 163/2/5
f 166/2/5 164/2/5 165/2/5
f 167/2/5 162/2/5 161/2/5
f 168/2/5 162/2/5 167/2/5
f 173/2/5 172/2/5 171/2/5
f 174/2/5 172/2/5 173/2/5
f 175/2/5 170/2/5 169/2/5
f 176/2/5 170/2/5 175/2/5
f 181/7/5 178/7/5 177/7/5
f 182/6/5 179/6/5 178/6/5
f 182/7/5 178/7/5 181/7/5
f 183/6/5 179/6/5 182/6/5
f 184/7/5 180/7/5 179/7/5
f 184/6/5 179/6/5 183/6/5
f 185/7/5 180/7/5 184/7/5
f 190/7/5 187/7/5 186/7/5
f 191/7/5 187/7/5 190/7/5
f 192/7/5 189/7/5 188/7/5
f 193/7/5 189/7/5 192/7/5
f 194/7/6 195/7/6 196/7/6
f 196/7/6 195/7/6 197/7/6
f 198/7/6 199/7/6 202/7/6
f 202/7/6 199/7/6 203/7/6
f 200/7/6 201/7/6 204/7/6
f 204/7/6 201/7/6 205/7/6
f 206/7/6 207/7/6 212/7/6
f 207/6/6 208/6/6 213/6/6
f 212/7/6 207/7/6 213/7/6
f 208/1/6 209/1/6 214/1/6
f 213/6/6 208/6/6 214/6/6
f 209/6/6 210/6/6 215/6/6
f 214/1/6 209/1/6 215/1/6
f 210/7/6 211/7/6 216/7/6
f 215/6/6 210/6/6 216/6/6
f 216/7/6 211/7/6 217/7/6
f 218/2/6 219/2/6 222/2/6
f 219/1/6 220/1/6 223/1/6
f 222/2/6 219/2/6 223/2/6
f 220/2/6 221/2/6 224/2/6
f 223/1/6 220/1/6 224/1/6
f 224/2/6 221/2/6 225/2/6
f 222/4/6 223/4/6 226/4/6
f 218/2/6 222/2/6 226/2/6
f 224/4/6 225/4/6 226/4/6
f 223/4/6 224/4/6 226/4/6
f 225/2/6 221/2/6 227/2/6
f 226/4/6 225/4/6 227/4/6
f 218/2/6 226/2/6 228/2/6
f 226/2/6 227/2/6 228/2/6
f 227/2/6 221/2/6 229/2/6
f 228/2/6 227/2/6 229/2/6
