# MagicaVoxel @ Ephtracy

# group
o 

# material
mtllib civil2-5.mtl
usemtl palette

# normals
vn -1 0 0
vn 1 0 0
vn 0 0 1
vn 0 0 -1
vn 0 -1 0
vn 0 1 0

# texcoords
vt 0.951172 0.5
vt 0.982422 0.5
vt 0.986328 0.5
vt 0.990234 0.5

# verts
v -0.8 1.7 0.5
v -0.8 1.7 0.4
v -0.8 1.7 0
v -0.8 1.7 -0.1
v -0.8 1.8 0.4
v -0.8 1.8 0
v -0.8 1.9 0.4
v -0.8 1.9 0
v -0.8 3.1 0.4
v -0.8 3.1 0
v -0.8 3.2 0.4
v -0.8 3.2 0
v -0.8 3.3 0.5
v -0.8 3.3 -0.1
v 0.8 1.7 0.5
v 0.8 1.7 0.4
v 0.8 1.7 0
v 0.8 1.7 -0.1
v 0.8 1.8 0.4
v 0.8 1.8 0
v 0.8 1.9 0.4
v 0.8 1.9 0
v 0.8 2.9 0.4
v 0.8 2.9 0
v 0.8 3.2 0.4
v 0.8 3.2 0
v 0.8 3.3 0.5
v 0.8 3.3 -0.1
v -0.8 1.7 0.5
v -0.8 3.3 0.5
v -0.1 1.7 0.5
v -0.1 3.3 0.5
v 0 1.7 0.5
v 0 3.3 0.5
v 0.8 1.7 0.5
v 0.8 3.3 0.5
v -0.8 1.7 0
v -0.8 1.8 0
v 0.8 1.7 0
v 0.8 1.8 0
v -0.8 1.7 0.4
v -0.8 1.8 0.4
v -0.1 1.7 0.4
v -0.1 1.8 0.4
v 0 1.7 0.4
v 0 1.8 0.4
v 0.8 1.7 0.4
v 0.8 1.8 0.4
v -0.8 1.7 -0.1
v -0.8 3.3 -0.1
v 0.8 1.7 -0.1
v 0.8 3.3 -0.1
v -0.8 1.7 0.5
v -0.1 1.7 0.5
v 0 1.7 0.5
v 0.8 1.7 0.5
v -0.8 1.7 0.4
v -0.1 1.7 0.4
v 0 1.7 0.4
v 0.8 1.7 0.4
v -0.8 1.7 0
v 0.8 1.7 0
v -0.8 1.7 -0.1
v 0.8 1.7 -0.1
v -0.8 1.8 0.4
v -0.1 1.8 0.4
v 0 1.8 0.4
v 0.8 1.8 0.4
v -0.8 1.8 0
v 0.8 1.8 0
v -0.8 3.3 0.5
v -0.1 3.3 0.5
v 0 3.3 0.5
v 0.8 3.3 0.5
v -0.3 3.3 0.4
v -0.1 3.3 0.4
v 0 3.3 0.4
v 0.3 3.3 0.4
v -0.3 3.3 0
v 0.3 3.3 0
v -0.8 3.3 -0.1
v 0.8 3.3 -0.1

# faces
f 5/3/1 2/3/1 1/3/1
f 6/3/1 4/3/1 3/3/1
f 7/3/1 5/3/1 1/3/1
f 7/3/1 6/3/1 5/3/1
f 8/3/1 4/3/1 6/3/1
f 8/3/1 6/3/1 7/3/1
f 9/3/1 7/3/1 1/3/1
f 9/1/1 8/1/1 7/1/1
f 10/3/1 4/3/1 8/3/1
f 10/1/1 8/1/1 9/1/1
f 11/3/1 9/3/1 1/3/1
f 11/4/1 10/4/1 9/4/1
f 12/3/1 4/3/1 10/3/1
f 12/4/1 10/4/1 11/4/1
f 13/3/1 11/3/1 1/3/1
f 13/3/1 12/3/1 11/3/1
f 14/3/1 4/3/1 12/3/1
f 14/3/1 12/3/1 13/3/1
f 15/3/2 16/3/2 19/3/2
f 17/3/2 18/3/2 20/3/2
f 15/3/2 19/3/2 21/3/2
f 19/3/2 20/3/2 21/3/2
f 20/3/2 18/3/2 22/3/2
f 21/3/2 20/3/2 22/3/2
f 15/3/2 21/3/2 23/3/2
f 21/1/2 22/1/2 23/1/2
f 22/3/2 18/3/2 24/3/2
f 23/1/2 22/1/2 24/1/2
f 15/3/2 23/3/2 25/3/2
f 23/4/2 24/4/2 25/4/2
f 24/3/2 18/3/2 26/3/2
f 25/4/2 24/4/2 26/4/2
f 15/3/2 25/3/2 27/3/2
f 25/3/2 26/3/2 27/3/2
f 26/3/2 18/3/2 28/3/2
f 27/3/2 26/3/2 28/3/2
f 31/3/3 30/3/3 29/3/3
f 32/3/3 30/3/3 31/3/3
f 33/2/3 32/2/3 31/2/3
f 34/2/3 32/2/3 33/2/3
f 35/3/3 34/3/3 33/3/3
f 36/3/3 34/3/3 35/3/3
f 39/3/3 38/3/3 37/3/3
f 40/3/3 38/3/3 39/3/3
f 41/3/4 42/3/4 43/3/4
f 43/3/4 42/3/4 44/3/4
f 43/2/4 44/2/4 45/2/4
f 45/2/4 44/2/4 46/2/4
f 45/3/4 46/3/4 47/3/4
f 47/3/4 46/3/4 48/3/4
f 49/3/4 50/3/4 51/3/4
f 51/3/4 50/3/4 52/3/4
f 57/3/5 54/3/5 53/3/5
f 58/2/5 55/2/5 54/2/5
f 58/3/5 54/3/5 57/3/5
f 59/3/5 56/3/5 55/3/5
f 59/2/5 55/2/5 58/2/5
f 60/3/5 56/3/5 59/3/5
f 63/3/5 62/3/5 61/3/5
f 64/3/5 62/3/5 63/3/5
f 69/3/5 66/3/5 65/3/5
f 69/3/5 68/3/5 67/3/5
f 69/3/5 67/3/5 66/3/5
f 70/3/5 68/3/5 69/3/5
f 71/3/6 72/3/6 75/3/6
f 72/2/6 73/2/6 76/2/6
f 75/3/6 72/3/6 76/3/6
f 73/3/6 74/3/6 77/3/6
f 76/2/6 73/2/6 77/2/6
f 77/3/6 74/3/6 78/3/6
f 75/1/6 76/1/6 79/1/6
f 71/3/6 75/3/6 79/3/6
f 77/1/6 78/1/6 79/1/6
f 76/1/6 77/1/6 79/1/6
f 78/3/6 74/3/6 80/3/6
f 79/1/6 78/1/6 80/1/6
f 71/3/6 79/3/6 81/3/6
f 79/3/6 80/3/6 81/3/6
f 80/3/6 74/3/6 82/3/6
f 81/3/6 80/3/6 82/3/6
