# MagicaVoxel @ Ephtracy

# group
o 

# material
mtllib civil2-2.mtl
usemtl palette

# normals
vn -1 0 0
vn 1 0 0
vn 0 0 1
vn 0 0 -1
vn 0 -1 0
vn 0 1 0

# texcoords
vt 0.947266 0.5
vt 0.986328 0.5
vt 0.990234 0.5

# verts
v 0.8 1.6 0.5
v 0.8 1.6 -0.1
v 0.8 1.9 0.4
v 0.8 1.9 0
v 0.8 3.2 0.4
v 0.8 3.2 0
v 0.8 3.3 0.5
v 0.8 3.3 -0.1
v 1 3.2 0.5
v 1 3.2 0.4
v 1 3.2 0
v 1 3.2 -0.1
v 1 3.3 0.5
v 1 3.3 0.4
v 1 3.3 0
v 1 3.3 -0.1
v 1.1 3.1 0.5
v 1.1 3.1 0.4
v 1.1 3.1 0
v 1.1 3.1 -0.1
v 1.1 3.2 0.5
v 1.1 3.2 0.4
v 1.1 3.2 0
v 1.1 3.2 -0.1
v 1.1 3.3 0.4
v 1.1 3.3 0
v 1.2 1.6 0.5
v 1.2 1.6 -0.1
v 1.2 2.7 0.4
v 1.2 2.7 0
v 1.2 2.8 0.4
v 1.2 2.8 0
v 1.2 2.9 0.4
v 1.2 2.9 0
v 1.2 3 0.4
v 1.2 3 0
v 1.2 3.1 0.5
v 1.2 3.1 0.4
v 1.2 3.1 0
v 1.2 3.1 -0.1
v 1.2 3.2 0.4
v 1.2 3.2 0
v 0.8 1.6 0.5
v 0.8 3.3 0.5
v 1 3.2 0.5
v 1 3.3 0.5
v 1.1 3.1 0.5
v 1.1 3.2 0.5
v 1.2 1.6 0.5
v 1.2 3.1 0.5
v 1 3.2 0.4
v 1 3.3 0.4
v 1.1 3.1 0.4
v 1.1 3.2 0.4
v 1.1 3.3 0.4
v 1.2 3.1 0.4
v 1.2 3.2 0.4
v 1 3.2 0
v 1 3.3 0
v 1.1 3.1 0
v 1.1 3.2 0
v 1.1 3.3 0
v 1.2 3.1 0
v 1.2 3.2 0
v 0.8 1.6 -0.1
v 0.8 3.3 -0.1
v 1 3.2 -0.1
v 1 3.3 -0.1
v 1.1 3.1 -0.1
v 1.1 3.2 -0.1
v 1.2 1.6 -0.1
v 1.2 3.1 -0.1
v 0.8 1.6 0.5
v 1.2 1.6 0.5
v 0.8 1.6 -0.1
v 1.2 1.6 -0.1
v 1.1 3.1 0.5
v 1.2 3.1 0.5
v 1.1 3.1 0.4
v 1.2 3.1 0.4
v 1.1 3.1 0
v 1.2 3.1 0
v 1.1 3.1 -0.1
v 1.2 3.1 -0.1
v 1 3.2 0.5
v 1.1 3.2 0.5
v 1 3.2 0.4
v 1.1 3.2 0.4
v 1.2 3.2 0.4
v 1 3.2 0
v 1.1 3.2 0
v 1.2 3.2 0
v 1 3.2 -0.1
v 1.1 3.2 -0.1
v 0.8 3.3 0.5
v 1 3.3 0.5
v 1 3.3 0.4
v 1.1 3.3 0.4
v 1 3.3 0
v 1.1 3.3 0
v 0.8 3.3 -0.1
v 1 3.3 -0.1

# faces
f 3/2/1 2/2/1 1/2/1
f 4/2/1 2/2/1 3/2/1
f 5/2/1 3/2/1 1/2/1
f 5/1/1 4/1/1 3/1/1
f 6/2/1 2/2/1 4/2/1
f 6/1/1 4/1/1 5/1/1
f 7/2/1 5/2/1 1/2/1
f 7/2/1 6/2/1 5/2/1
f 8/2/1 2/2/1 6/2/1
f 8/2/1 6/2/1 7/2/1
f 9/2/2 10/2/2 13/2/2
f 13/2/2 10/2/2 14/2/2
f 11/2/2 12/2/2 15/2/2
f 15/2/2 12/2/2 16/2/2
f 17/2/2 18/2/2 21/2/2
f 21/2/2 18/2/2 22/2/2
f 19/2/2 20/2/2 23/2/2
f 23/2/2 20/2/2 24/2/2
f 22/2/2 23/2/2 25/2/2
f 25/2/2 23/2/2 26/2/2
f 27/2/2 28/2/2 29/2/2
f 29/2/2 28/2/2 30/2/2
f 27/2/2 29/2/2 31/2/2
f 29/3/2 30/3/2 31/3/2
f 30/2/2 28/2/2 32/2/2
f 31/3/2 30/3/2 32/3/2
f 27/2/2 31/2/2 33/2/2
f 31/2/2 32/2/2 33/2/2
f 32/2/2 28/2/2 34/2/2
f 33/2/2 32/2/2 34/2/2
f 27/2/2 33/2/2 35/2/2
f 33/3/2 34/3/2 35/3/2
f 34/2/2 28/2/2 36/2/2
f 35/3/2 34/3/2 36/3/2
f 27/2/2 35/2/2 37/2/2
f 35/2/2 36/2/2 37/2/2
f 37/2/2 36/2/2 38/2/2
f 36/2/2 28/2/2 39/2/2
f 38/2/2 36/2/2 39/2/2
f 39/2/2 28/2/2 40/2/2
f 38/2/2 39/2/2 41/2/2
f 41/2/2 39/2/2 42/2/2
f 45/2/3 44/2/3 43/2/3
f 46/2/3 44/2/3 45/2/3
f 47/2/3 45/2/3 43/2/3
f 48/2/3 45/2/3 47/2/3
f 49/2/3 47/2/3 43/2/3
f 50/2/3 47/2/3 49/2/3
f 54/2/3 52/2/3 51/2/3
f 55/2/3 52/2/3 54/2/3
f 56/2/3 54/2/3 53/2/3
f 57/2/3 54/2/3 56/2/3
f 58/2/4 59/2/4 61/2/4
f 61/2/4 59/2/4 62/2/4
f 60/2/4 61/2/4 63/2/4
f 63/2/4 61/2/4 64/2/4
f 65/2/4 66/2/4 67/2/4
f 67/2/4 66/2/4 68/2/4
f 65/2/4 67/2/4 69/2/4
f 69/2/4 67/2/4 70/2/4
f 65/2/4 69/2/4 71/2/4
f 71/2/4 69/2/4 72/2/4
f 75/2/5 74/2/5 73/2/5
f 76/2/5 74/2/5 75/2/5
f 77/2/6 78/2/6 79/2/6
f 79/2/6 78/2/6 80/2/6
f 81/2/6 82/2/6 83/2/6
f 83/2/6 82/2/6 84/2/6
f 85/2/6 86/2/6 87/2/6
f 87/2/6 86/2/6 88/2/6
f 88/2/6 89/2/6 91/2/6
f 91/2/6 89/2/6 92/2/6
f 90/2/6 91/2/6 93/2/6
f 93/2/6 91/2/6 94/2/6
f 95/2/6 96/2/6 97/2/6
f 95/2/6 97/2/6 99/2/6
f 97/2/6 98/2/6 99/2/6
f 99/2/6 98/2/6 100/2/6
f 95/2/6 99/2/6 101/2/6
f 101/2/6 99/2/6 102/2/6
