# MagicaVoxel @ Ephtracy

# group
o 

# material
mtllib civil2-3.mtl
usemtl palette

# normals
vn -1 0 0
vn 1 0 0
vn 0 0 1
vn 0 0 -1
vn 0 -1 0
vn 0 1 0

# texcoords
vt 0.947266 0.5
vt 0.986328 0.5
vt 0.990234 0.5

# verts
v -1.2 1.6 0.5
v -1.2 1.6 -0.1
v -1.2 2.8 0.4
v -1.2 2.8 0
v -1.2 2.9 0.4
v -1.2 2.9 0
v -1.2 3 0.4
v -1.2 3 0
v -1.2 3.1 0.5
v -1.2 3.1 0.4
v -1.2 3.1 0
v -1.2 3.1 -0.1
v -1.2 3.2 0.4
v -1.2 3.2 0
v -1.1 3.1 0.5
v -1.1 3.1 0.4
v -1.1 3.1 0
v -1.1 3.1 -0.1
v -1.1 3.2 0.5
v -1.1 3.2 0.4
v -1.1 3.2 0
v -1.1 3.2 -0.1
v -1.1 3.3 0.4
v -1.1 3.3 0
v -1 3.2 0.5
v -1 3.2 0.4
v -1 3.2 0
v -1 3.2 -0.1
v -1 3.3 0.5
v -1 3.3 0.4
v -1 3.3 0
v -1 3.3 -0.1
v -0.9 1.9 0.4
v -0.9 1.9 0.3
v -0.9 1.9 0
v -0.9 2.3 0.4
v -0.9 2.3 0
v -0.8 1.6 0.5
v -0.8 1.6 -0.1
v -0.8 1.8 0.4
v -0.8 1.8 0.3
v -0.8 1.9 0.4
v -0.8 1.9 0.3
v -0.8 1.9 0
v -0.8 2.3 0.4
v -0.8 2.3 0
v -0.8 3 0.4
v -0.8 3 0
v -0.8 3.2 0.4
v -0.8 3.2 0
v -0.8 3.3 0.5
v -0.8 3.3 -0.1
v -1.2 1.6 0.5
v -1.2 3.1 0.5
v -1.1 3.1 0.5
v -1.1 3.2 0.5
v -1 3.2 0.5
v -1 3.3 0.5
v -0.8 1.6 0.5
v -0.8 3.3 0.5
v -1.2 3.1 0.4
v -1.2 3.2 0.4
v -1.1 3.1 0.4
v -1.1 3.2 0.4
v -1.1 3.3 0.4
v -1 3.2 0.4
v -1 3.3 0.4
v -0.9 1.9 0
v -0.9 2.3 0
v -0.8 1.9 0
v -0.8 2.3 0
v -0.9 1.9 0.4
v -0.9 2.3 0.4
v -0.8 1.9 0.4
v -0.8 2.3 0.4
v -1.2 3.1 0
v -1.2 3.2 0
v -1.1 3.1 0
v -1.1 3.2 0
v -1.1 3.3 0
v -1 3.2 0
v -1 3.3 0
v -1.2 1.6 -0.1
v -1.2 3.1 -0.1
v -1.1 3.1 -0.1
v -1.1 3.2 -0.1
v -1 3.2 -0.1
v -1 3.3 -0.1
v -0.8 1.6 -0.1
v -0.8 3.3 -0.1
v -1.2 1.6 0.5
v -0.8 1.6 0.5
v -1.2 1.6 -0.1
v -0.8 1.6 -0.1
v -0.9 2.3 0.4
v -0.8 2.3 0.4
v -0.9 2.3 0
v -0.8 2.3 0
v -0.9 1.9 0.4
v -0.8 1.9 0.4
v -0.9 1.9 0.3
v -0.8 1.9 0.3
v -0.9 1.9 0
v -0.8 1.9 0
v -1.2 3.1 0.5
v -1.1 3.1 0.5
v -1.2 3.1 0.4
v -1.1 3.1 0.4
v -1.2 3.1 0
v -1.1 3.1 0
v -1.2 3.1 -0.1
v -1.1 3.1 -0.1
v -1.1 3.2 0.5
v -1 3.2 0.5
v -1.2 3.2 0.4
v -1.1 3.2 0.4
v -1 3.2 0.4
v -1.2 3.2 0
v -1.1 3.2 0
v -1 3.2 0
v -1.1 3.2 -0.1
v -1 3.2 -0.1
v -1 3.3 0.5
v -0.8 3.3 0.5
v -1.1 3.3 0.4
v -1 3.3 0.4
v -1.1 3.3 0
v -1 3.3 0
v -1 3.3 -0.1
v -0.8 3.3 -0.1

# faces
f 3/2/1 2/2/1 1/2/1
f 4/2/1 2/2/1 3/2/1
f 5/2/1 3/2/1 1/2/1
f 5/3/1 4/3/1 3/3/1
f 6/2/1 2/2/1 4/2/1
f 6/3/1 4/3/1 5/3/1
f 7/2/1 5/2/1 1/2/1
f 7/2/1 6/2/1 5/2/1
f 8/2/1 2/2/1 6/2/1
f 8/2/1 6/2/1 7/2/1
f 9/2/1 7/2/1 1/2/1
f 10/3/1 8/3/1 7/3/1
f 10/2/1 7/2/1 9/2/1
f 11/2/1 2/2/1 8/2/1
f 11/3/1 8/3/1 10/3/1
f 12/2/1 2/2/1 11/2/1
f 13/2/1 11/2/1 10/2/1
f 14/2/1 11/2/1 13/2/1
f 19/2/1 16/2/1 15/2/1
f 20/2/1 16/2/1 19/2/1
f 21/2/1 18/2/1 17/2/1
f 22/2/1 18/2/1 21/2/1
f 23/2/1 21/2/1 20/2/1
f 24/2/1 21/2/1 23/2/1
f 29/2/1 26/2/1 25/2/1
f 30/2/1 26/2/1 29/2/1
f 31/2/1 28/2/1 27/2/1
f 32/2/1 28/2/1 31/2/1
f 33/1/2 34/1/2 36/1/2
f 34/1/2 35/1/2 36/1/2
f 36/1/2 35/1/2 37/1/2
f 38/2/2 39/2/2 40/2/2
f 40/2/2 39/2/2 41/2/2
f 38/2/2 40/2/2 42/2/2
f 40/3/2 41/3/2 42/3/2
f 41/2/2 39/2/2 43/2/2
f 42/3/2 41/3/2 43/3/2
f 43/2/2 39/2/2 44/2/2
f 38/2/2 42/2/2 45/2/2
f 44/2/2 39/2/2 46/2/2
f 38/2/2 45/2/2 47/2/2
f 45/1/2 46/1/2 47/1/2
f 46/2/2 39/2/2 48/2/2
f 47/1/2 46/1/2 48/1/2
f 38/2/2 47/2/2 49/2/2
f 47/3/2 48/3/2 49/3/2
f 48/2/2 39/2/2 50/2/2
f 49/3/2 48/3/2 50/3/2
f 38/2/2 49/2/2 51/2/2
f 49/2/2 50/2/2 51/2/2
f 50/2/2 39/2/2 52/2/2
f 51/2/2 50/2/2 52/2/2
f 55/2/3 54/2/3 53/2/3
f 57/2/3 56/2/3 55/2/3
f 59/2/3 55/2/3 53/2/3
f 59/2/3 58/2/3 57/2/3
f 59/2/3 57/2/3 55/2/3
f 60/2/3 58/2/3 59/2/3
f 63/2/3 62/2/3 61/2/3
f 64/2/3 62/2/3 63/2/3
f 66/2/3 65/2/3 64/2/3
f 67/2/3 65/2/3 66/2/3
f 70/2/3 69/2/3 68/2/3
f 71/2/3 69/2/3 70/2/3
f 72/2/4 73/2/4 74/2/4
f 74/2/4 73/2/4 75/2/4
f 76/2/4 77/2/4 78/2/4
f 78/2/4 77/2/4 79/2/4
f 79/2/4 80/2/4 81/2/4
f 81/2/4 80/2/4 82/2/4
f 83/2/4 84/2/4 85/2/4
f 85/2/4 86/2/4 87/2/4
f 83/2/4 85/2/4 89/2/4
f 87/2/4 88/2/4 89/2/4
f 85/2/4 87/2/4 89/2/4
f 89/2/4 88/2/4 90/2/4
f 93/2/5 92/2/5 91/2/5
f 94/2/5 92/2/5 93/2/5
f 97/1/5 96/1/5 95/1/5
f 98/1/5 96/1/5 97/1/5
f 99/3/6 100/3/6 101/3/6
f 101/3/6 100/3/6 102/3/6
f 101/2/6 102/2/6 103/2/6
f 103/2/6 102/2/6 104/2/6
f 105/2/6 106/2/6 107/2/6
f 107/2/6 106/2/6 108/2/6
f 109/2/6 110/2/6 111/2/6
f 111/2/6 110/2/6 112/2/6
f 113/2/6 114/2/6 116/2/6
f 116/2/6 114/2/6 117/2/6
f 115/2/6 116/2/6 118/2/6
f 118/2/6 116/2/6 119/2/6
f 119/2/6 120/2/6 121/2/6
f 121/2/6 120/2/6 122/2/6
f 123/2/6 124/2/6 126/2/6
f 125/2/6 126/2/6 127/2/6
f 126/2/6 124/2/6 128/2/6
f 127/2/6 126/2/6 128/2/6
f 128/2/6 124/2/6 129/2/6
f 129/2/6 124/2/6 130/2/6
