# MagicaVoxel @ Ephtracy

# group
o 

# material
mtllib CoopSHT-2.mtl
usemtl palette

# normals
vn -1 0 0
vn 1 0 0
vn 0 0 1
vn 0 0 -1
vn 0 -1 0
vn 0 1 0

# texcoords
vt 0.861328 0.5
vt 0.873047 0.5
vt 0.947266 0.5
vt 0.986328 0.5
vt 0.990234 0.5

# verts
v -1.3 2.4 0.4
v -1.3 2.4 0
v -1.3 2.8 0.4
v -1.3 2.8 0
v -1.2 1.6 0.5
v -1.2 1.6 -0.1
v -1.2 1.8 0.5
v -1.2 1.8 -0.1
v -1.2 1.9 0.4
v -1.2 1.9 0
v -1.2 2.4 0.4
v -1.2 2.4 0
v -1.2 2.5 0.5
v -1.2 2.5 0.4
v -1.2 2.5 0
v -1.2 2.5 -0.1
v -1.2 2.7 0.5
v -1.2 2.7 0.4
v -1.2 2.7 0
v -1.2 2.7 -0.1
v -1.2 2.8 0.4
v -1.2 2.8 0
v -1.2 3.1 0.5
v -1.2 3.1 0.4
v -1.2 3.1 0
v -1.2 3.1 -0.1
v -1.2 3.2 0.4
v -1.2 3.2 0
v -1.1 3.1 0.5
v -1.1 3.1 0.4
v -1.1 3.1 0
v -1.1 3.1 -0.1
v -1.1 3.2 0.5
v -1.1 3.2 0.4
v -1.1 3.2 0
v -1.1 3.2 -0.1
v -1.1 3.3 0.4
v -1.1 3.3 0
v -1 3.2 0.5
v -1 3.2 0.4
v -1 3.2 0
v -1 3.2 -0.1
v -1 3.3 0.5
v -1 3.3 0.4
v -1 3.3 0
v -1 3.3 -0.1
v -0.8 1.6 0.5
v -0.8 1.6 -0.1
v -0.8 1.8 0.5
v -0.8 1.8 0.4
v -0.8 1.9 0.4
v -0.8 1.9 -0.1
v -0.8 2.5 0.5
v -0.8 2.5 0.4
v -0.8 2.5 0
v -0.8 2.5 -0.1
v -0.8 2.7 0.5
v -0.8 2.7 0.4
v -0.8 2.7 0
v -0.8 2.7 -0.1
v -0.8 3.2 0.4
v -0.8 3.2 0
v -0.8 3.3 0.5
v -0.8 3.3 0.4
v -0.8 3.3 0
v -0.8 3.3 -0.1
v -1.2 1.6 0.5
v -1.2 1.8 0.5
v -1.2 2.5 0.5
v -1.2 2.7 0.5
v -1.2 3.1 0.5
v -1.1 3.1 0.5
v -1.1 3.2 0.5
v -1 3.2 0.5
v -1 3.3 0.5
v -0.8 1.6 0.5
v -0.8 1.8 0.5
v -0.8 2.5 0.5
v -0.8 2.7 0.5
v -0.8 3.3 0.5
v -1.3 2.4 0.4
v -1.3 2.8 0.4
v -1.2 2.4 0.4
v -1.2 2.5 0.4
v -1.2 2.7 0.4
v -1.2 2.8 0.4
v -1.2 3.1 0.4
v -1.2 3.2 0.4
v -1.1 3.1 0.4
v -1.1 3.2 0.4
v -1.1 3.3 0.4
v -1 3.2 0.4
v -1 3.3 0.4
v -1.3 2.4 0
v -1.3 2.8 0
v -1.2 2.4 0
v -1.2 2.5 0
v -1.2 2.7 0
v -1.2 2.8 0
v -1.2 3.1 0
v -1.2 3.2 0
v -1.1 3.1 0
v -1.1 3.2 0
v -1.1 3.3 0
v -1 3.2 0
v -1 3.3 0
v -1.2 1.6 -0.1
v -1.2 1.8 -0.1
v -1.2 2.5 -0.1
v -1.2 2.7 -0.1
v -1.2 3.1 -0.1
v -1.1 1.8 -0.1
v -1.1 1.9 -0.1
v -1.1 3.1 -0.1
v -1.1 3.2 -0.1
v -1 3.2 -0.1
v -1 3.3 -0.1
v -0.8 1.6 -0.1
v -0.8 1.9 -0.1
v -0.8 2.5 -0.1
v -0.8 2.7 -0.1
v -0.8 3.3 -0.1
v -1.2 1.6 0.5
v -0.8 1.6 0.5
v -1.2 1.6 -0.1
v -0.8 1.6 -0.1
v -1.3 2.4 0.4
v -1.2 2.4 0.4
v -1.3 2.4 0
v -1.2 2.4 0
v -1.3 2.8 0.4
v -1.2 2.8 0.4
v -1.3 2.8 0
v -1.2 2.8 0
v -1.2 3.1 0.5
v -1.1 3.1 0.5
v -1.2 3.1 0.4
v -1.1 3.1 0.4
v -1.2 3.1 0
v -1.1 3.1 0
v -1.2 3.1 -0.1
v -1.1 3.1 -0.1
v -1.1 3.2 0.5
v -1 3.2 0.5
v -1.2 3.2 0.4
v -1.1 3.2 0.4
v -1 3.2 0.4
v -1.2 3.2 0
v -1.1 3.2 0
v -1 3.2 0
v -1.1 3.2 -0.1
v -1 3.2 -0.1
v -1 3.3 0.5
v -0.8 3.3 0.5
v -1.1 3.3 0.4
v -1 3.3 0.4
v -0.8 3.3 0.4
v -1.1 3.3 0
v -1 3.3 0
v -0.8 3.3 0
v -1 3.3 -0.1
v -0.8 3.3 -0.1

# faces
f 3/5/1 2/5/1 1/5/1
f 4/5/1 2/5/1 3/5/1
f 7/4/1 6/4/1 5/4/1
f 8/4/1 6/4/1 7/4/1
f 9/2/1 8/2/1 7/2/1
f 10/2/1 8/2/1 9/2/1
f 11/2/1 9/2/1 7/2/1
f 11/1/1 10/1/1 9/1/1
f 12/2/1 8/2/1 10/2/1
f 12/1/1 10/1/1 11/1/1
f 13/2/1 11/2/1 7/2/1
f 14/2/1 11/2/1 13/2/1
f 15/2/1 8/2/1 12/2/1
f 16/2/1 8/2/1 15/2/1
f 17/4/1 14/4/1 13/4/1
f 18/4/1 14/4/1 17/4/1
f 19/4/1 16/4/1 15/4/1
f 20/4/1 16/4/1 19/4/1
f 21/2/1 18/2/1 17/2/1
f 22/2/1 20/2/1 19/2/1
f 23/2/1 21/2/1 17/2/1
f 24/1/1 22/1/1 21/1/1
f 24/2/1 21/2/1 23/2/1
f 25/2/1 20/2/1 22/2/1
f 25/1/1 22/1/1 24/1/1
f 26/2/1 20/2/1 25/2/1
f 27/1/1 25/1/1 24/1/1
f 28/1/1 25/1/1 27/1/1
f 33/2/1 30/2/1 29/2/1
f 34/2/1 30/2/1 33/2/1
f 35/2/1 32/2/1 31/2/1
f 36/2/1 32/2/1 35/2/1
f 37/1/1 35/1/1 34/1/1
f 38/1/1 35/1/1 37/1/1
f 43/2/1 40/2/1 39/2/1
f 44/2/1 40/2/1 43/2/1
f 45/2/1 42/2/1 41/2/1
f 46/2/1 42/2/1 45/2/1
f 47/4/2 48/4/2 49/4/2
f 49/4/2 48/4/2 50/4/2
f 49/2/2 50/2/2 51/2/2
f 50/4/2 48/4/2 51/4/2
f 51/4/2 48/4/2 52/4/2
f 49/2/2 51/2/2 53/2/2
f 51/2/2 52/2/2 53/2/2
f 53/2/2 52/2/2 54/2/2
f 54/2/2 52/2/2 55/2/2
f 55/2/2 52/2/2 56/2/2
f 53/4/2 54/4/2 57/4/2
f 54/2/2 55/2/2 58/2/2
f 57/4/2 54/4/2 58/4/2
f 55/4/2 56/4/2 59/4/2
f 58/2/2 55/2/2 59/2/2
f 59/4/2 56/4/2 60/4/2
f 57/2/2 58/2/2 61/2/2
f 58/2/2 59/2/2 61/2/2
f 59/2/2 60/2/2 61/2/2
f 61/2/2 60/2/2 62/2/2
f 57/2/2 61/2/2 63/2/2
f 61/1/2 62/1/2 64/1/2
f 63/2/2 61/2/2 64/2/2
f 62/2/2 60/2/2 65/2/2
f 64/1/2 62/1/2 65/1/2
f 65/2/2 60/2/2 66/2/2
f 72/2/3 71/2/3 70/2/3
f 74/2/3 73/2/3 72/2/3
f 76/4/3 68/4/3 67/4/3
f 77/2/3 69/2/3 68/2/3
f 77/4/3 68/4/3 76/4/3
f 78/4/3 70/4/3 69/4/3
f 78/2/3 69/2/3 77/2/3
f 79/2/3 75/2/3 74/2/3
f 79/4/3 70/4/3 78/4/3
f 79/2/3 72/2/3 70/2/3
f 79/2/3 74/2/3 72/2/3
f 80/2/3 75/2/3 79/2/3
f 83/5/3 82/5/3 81/5/3
f 84/5/3 82/5/3 83/5/3
f 85/5/3 82/5/3 84/5/3
f 86/5/3 82/5/3 85/5/3
f 89/1/3 88/1/3 87/1/3
f 90/1/3 88/1/3 89/1/3
f 92/1/3 91/1/3 90/1/3
f 93/1/3 91/1/3 92/1/3
f 94/5/4 95/5/4 96/5/4
f 96/5/4 95/5/4 97/5/4
f 97/5/4 95/5/4 98/5/4
f 98/5/4 95/5/4 99/5/4
f 100/1/4 101/1/4 102/1/4
f 102/1/4 101/1/4 103/1/4
f 103/1/4 104/1/4 105/1/4
f 105/1/4 104/1/4 106/1/4
f 107/4/4 108/4/4 112/4/4
f 108/2/4 109/2/4 112/2/4
f 112/2/4 109/2/4 113/2/4
f 110/2/4 111/2/4 114/2/4
f 114/2/4 115/2/4 116/2/4
f 107/4/4 112/4/4 118/4/4
f 112/4/4 113/4/4 118/4/4
f 113/2/4 109/2/4 119/2/4
f 118/4/4 113/4/4 119/4/4
f 109/4/4 110/4/4 120/4/4
f 119/2/4 109/2/4 120/2/4
f 116/2/4 117/2/4 121/2/4
f 120/4/4 110/4/4 121/4/4
f 114/2/4 116/2/4 121/2/4
f 110/2/4 114/2/4 121/2/4
f 121/2/4 117/2/4 122/2/4
f 125/4/5 124/4/5 123/4/5
f 126/4/5 124/4/5 125/4/5
f 129/5/5 128/5/5 127/5/5
f 130/5/5 128/5/5 129/5/5
f 131/5/6 132/5/6 133/5/6
f 133/5/6 132/5/6 134/5/6
f 135/2/6 136/2/6 137/2/6
f 137/2/6 136/2/6 138/2/6
f 139/2/6 140/2/6 141/2/6
f 141/2/6 140/2/6 142/2/6
f 143/2/6 144/2/6 146/2/6
f 146/2/6 144/2/6 147/2/6
f 145/1/6 146/1/6 148/1/6
f 148/1/6 146/1/6 149/1/6
f 149/2/6 150/2/6 151/2/6
f 151/2/6 150/2/6 152/2/6
f 153/2/6 154/2/6 156/2/6
f 156/2/6 154/2/6 157/2/6
f 155/1/6 156/1/6 158/1/6
f 156/1/6 157/1/6 158/1/6
f 158/1/6 157/1/6 159/1/6
f 159/1/6 157/1/6 160/1/6
f 159/2/6 160/2/6 161/2/6
f 161/2/6 160/2/6 162/2/6
