# MagicaVoxel @ Ephtracy

# group
o 

# material
mtllib AmmoBag.mtl
usemtl palette

# normals
vn -1 0 0
vn 1 0 0
vn 0 0 1
vn 0 0 -1
vn 0 -1 0
vn 0 1 0

# texcoords
vt 0.185547 0.5
vt 0.537109 0.5
vt 0.994141 0.5

# verts
v -1.3 0 0.6
v -1.3 0 -0.9
v -1.3 0.9 0.6
v -1.3 0.9 0.4
v -1.3 1 0.7
v -1.3 1 0.6
v -1.3 1 0.5
v -1.3 1.7 0.4
v -1.3 1.7 -0.8
v -1.3 1.8 0.5
v -1.3 1.8 -0.8
v -1.3 1.9 0.7
v -1.3 1.9 -0.9
v -0.7 1.9 0.1
v -0.7 1.9 -0.3
v -0.7 2 0.1
v -0.7 2 -0.3
v -0.6 2 0
v -0.6 2 -0.2
v -0.6 2.1 0
v -0.6 2.1 -0.2
v -0.5 2.1 0
v -0.5 2.1 -0.2
v -0.5 2.2 0
v -0.5 2.2 -0.2
v -0.1 0.9 0.7
v -0.1 0.9 0.6
v -0.1 1 0.7
v -0.1 1 0.6
v 0.4 1.9 0.1
v 0.4 1.9 -0.3
v 0.4 2 0.1
v 0.4 2 -0.3
v 0.5 2 0
v 0.5 2 -0.2
v 0.5 2.1 0
v 0.5 2.1 -0.2
v -0.5 2 0
v -0.5 2 -0.2
v -0.5 2.1 0
v -0.5 2.1 -0.2
v -0.4 1.9 0.1
v -0.4 1.9 -0.3
v -0.4 2 0.1
v -0.4 2 -0.3
v 0.0999999 0.9 0.7
v 0.0999999 0.9 0.6
v 0.0999999 1 0.7
v 0.0999999 1 0.6
v 0.5 2.1 0
v 0.5 2.1 -0.2
v 0.5 2.2 0
v 0.5 2.2 -0.2
v 0.6 2 0
v 0.6 2 -0.2
v 0.6 2.1 0
v 0.6 2.1 -0.2
v 0.7 1.9 0.1
v 0.7 1.9 -0.3
v 0.7 2 0.1
v 0.7 2 -0.3
v 1.3 0 0.6
v 1.3 0 -0.9
v 1.3 0.9 0.6
v 1.3 0.9 0.4
v 1.3 1 0.7
v 1.3 1 0.6
v 1.3 1 0.5
v 1.3 1.7 0.4
v 1.3 1.7 -0.8
v 1.3 1.8 0.5
v 1.3 1.8 -0.8
v 1.3 1.9 0.7
v 1.3 1.9 -0.9
v -1.3 1 0.7
v -1.3 1.9 0.7
v -0.1 0.9 0.7
v -0.1 1 0.7
v -0.1 1.1 0.7
v 0.0999999 0.9 0.7
v 0.0999999 1 0.7
v 0.0999999 1.1 0.7
v 1.3 1 0.7
v 1.3 1.9 0.7
v -1.3 0 0.6
v -1.3 0.9 0.6
v -1.3 1 0.6
v -0.1 0.9 0.6
v -0.1 1 0.6
v 0.0999999 0.9 0.6
v 0.0999999 1 0.6
v 1.3 0 0.6
v 1.3 0.9 0.6
v 1.3 1 0.6
v -0.7 1.9 0.1
v -0.7 2 0.1
v -0.4 1.9 0.1
v -0.4 2 0.1
v 0.4 1.9 0.1
v 0.4 2 0.1
v 0.7 1.9 0.1
v 0.7 2 0.1
v -0.6 2 0
v -0.6 2.1 0
v -0.5 2 0
v -0.5 2.1 0
v -0.5 2.2 0
v 0.5 2 0
v 0.5 2.1 0
v 0.5 2.2 0
v 0.6 2 0
v 0.6 2.1 0
v -0.6 2 -0.2
v -0.6 2.1 -0.2
v -0.5 2 -0.2
v -0.5 2.1 -0.2
v -0.5 2.2 -0.2
v 0.5 2 -0.2
v 0.5 2.1 -0.2
v 0.5 2.2 -0.2
v 0.6 2 -0.2
v 0.6 2.1 -0.2
v -0.7 1.9 -0.3
v -0.7 2 -0.3
v -0.4 1.9 -0.3
v -0.4 2 -0.3
v 0.4 1.9 -0.3
v 0.4 2 -0.3
v 0.7 1.9 -0.3
v 0.7 2 -0.3
v -1.3 0 -0.9
v -1.3 1.9 -0.9
v 1.3 0 -0.9
v 1.3 1.9 -0.9
v -1.3 0 0.6
v 1.3 0 0.6
v -1.3 0 -0.9
v 1.3 0 -0.9
v -0.1 0.9 0.7
v 0.0999999 0.9 0.7
v -0.1 0.9 0.6
v 0.0999999 0.9 0.6
v -1.3 1 0.7
v -0.1 1 0.7
v 0.0999999 1 0.7
v 1.3 1 0.7
v -1.3 1 0.6
v -0.1 1 0.6
v 0.0999999 1 0.6
v 1.3 1 0.6
v -0.5 2.1 0
v 0.5 2.1 0
v -0.5 2.1 -0.2
v 0.5 2.1 -0.2
v -1.3 1.9 0.7
v 1.3 1.9 0.7
v -0.7 1.9 0.1
v -0.4 1.9 0.1
v 0.4 1.9 0.1
v 0.7 1.9 0.1
v -0.7 1.9 -0.3
v -0.4 1.9 -0.3
v 0.4 1.9 -0.3
v 0.7 1.9 -0.3
v -1.3 1.9 -0.9
v 1.3 1.9 -0.9
v -0.7 2 0.1
v -0.4 2 0.1
v 0.4 2 0.1
v 0.7 2 0.1
v -0.6 2 0
v -0.5 2 0
v 0.5 2 0
v 0.6 2 0
v -0.6 2 -0.2
v -0.5 2 -0.2
v 0.5 2 -0.2
v 0.6 2 -0.2
v -0.7 2 -0.3
v -0.4 2 -0.3
v 0.4 2 -0.3
v 0.7 2 -0.3
v -0.6 2.1 0
v -0.5 2.1 0
v 0.5 2.1 0
v 0.6 2.1 0
v -0.6 2.1 -0.2
v -0.5 2.1 -0.2
v 0.5 2.1 -0.2
v 0.6 2.1 -0.2
v -0.5 2.2 0
v 0.5 2.2 0
v -0.5 2.2 -0.2
v 0.5 2.2 -0.2

# faces
f 3/2/1 2/2/1 1/2/1
f 4/2/1 2/2/1 3/2/1
f 6/3/1 4/3/1 3/3/1
f 7/3/1 4/3/1 6/3/1
f 8/2/1 2/2/1 4/2/1
f 8/3/1 4/3/1 7/3/1
f 9/2/1 2/2/1 8/2/1
f 10/2/1 7/2/1 6/2/1
f 10/2/1 6/2/1 5/2/1
f 10/3/1 9/3/1 8/3/1
f 10/3/1 8/3/1 7/3/1
f 11/2/1 2/2/1 9/2/1
f 11/3/1 9/3/1 10/3/1
f 12/2/1 10/2/1 5/2/1
f 12/2/1 11/2/1 10/2/1
f 13/2/1 2/2/1 11/2/1
f 13/2/1 11/2/1 12/2/1
f 16/3/1 15/3/1 14/3/1
f 17/3/1 15/3/1 16/3/1
f 20/2/1 19/2/1 18/2/1
f 21/2/1 19/2/1 20/2/1
f 24/2/1 23/2/1 22/2/1
f 25/2/1 23/2/1 24/2/1
f 28/1/1 27/1/1 26/1/1
f 29/1/1 27/1/1 28/1/1
f 32/3/1 31/3/1 30/3/1
f 33/3/1 31/3/1 32/3/1
f 36/2/1 35/2/1 34/2/1
f 37/2/1 35/2/1 36/2/1
f 38/2/2 39/2/2 40/2/2
f 40/2/2 39/2/2 41/2/2
f 42/3/2 43/3/2 44/3/2
f 44/3/2 43/3/2 45/3/2
f 46/1/2 47/1/2 48/1/2
f 48/1/2 47/1/2 49/1/2
f 50/2/2 51/2/2 52/2/2
f 52/2/2 51/2/2 53/2/2
f 54/2/2 55/2/2 56/2/2
f 56/2/2 55/2/2 57/2/2
f 58/3/2 59/3/2 60/3/2
f 60/3/2 59/3/2 61/3/2
f 62/2/2 63/2/2 64/2/2
f 64/2/2 63/2/2 65/2/2
f 64/3/2 65/3/2 67/3/2
f 67/3/2 65/3/2 68/3/2
f 65/2/2 63/2/2 69/2/2
f 68/3/2 65/3/2 69/3/2
f 69/2/2 63/2/2 70/2/2
f 67/2/2 68/2/2 71/2/2
f 66/2/2 67/2/2 71/2/2
f 69/3/2 70/3/2 71/3/2
f 68/3/2 69/3/2 71/3/2
f 70/2/2 63/2/2 72/2/2
f 71/3/2 70/3/2 72/3/2
f 66/2/2 71/2/2 73/2/2
f 71/2/2 72/2/2 73/2/2
f 72/2/2 63/2/2 74/2/2
f 73/2/2 72/2/2 74/2/2
f 78/2/3 76/2/3 75/2/3
f 79/2/3 76/2/3 78/2/3
f 80/1/3 78/1/3 77/1/3
f 80/1/3 79/1/3 78/1/3
f 81/1/3 79/1/3 80/1/3
f 82/2/3 76/2/3 79/2/3
f 82/1/3 79/1/3 81/1/3
f 83/2/3 82/2/3 81/2/3
f 84/2/3 76/2/3 82/2/3
f 84/2/3 82/2/3 83/2/3
f 88/2/3 86/2/3 85/2/3
f 88/3/3 87/3/3 86/3/3
f 89/3/3 87/3/3 88/3/3
f 90/2/3 88/2/3 85/2/3
f 92/2/3 90/2/3 85/2/3
f 93/3/3 91/3/3 90/3/3
f 93/2/3 90/2/3 92/2/3
f 94/3/3 91/3/3 93/3/3
f 97/3/3 96/3/3 95/3/3
f 98/3/3 96/3/3 97/3/3
f 101/3/3 100/3/3 99/3/3
f 102/3/3 100/3/3 101/3/3
f 105/2/3 104/2/3 103/2/3
f 106/2/3 104/2/3 105/2/3
f 109/2/3 107/2/3 106/2/3
f 110/2/3 107/2/3 109/2/3
f 111/2/3 109/2/3 108/2/3
f 112/2/3 109/2/3 111/2/3
f 113/2/4 114/2/4 115/2/4
f 115/2/4 114/2/4 116/2/4
f 116/2/4 117/2/4 119/2/4
f 119/2/4 117/2/4 120/2/4
f 118/2/4 119/2/4 121/2/4
f 121/2/4 119/2/4 122/2/4
f 123/3/4 124/3/4 125/3/4
f 125/3/4 124/3/4 126/3/4
f 127/3/4 128/3/4 129/3/4
f 129/3/4 128/3/4 130/3/4
f 131/2/4 132/2/4 133/2/4
f 133/2/4 132/2/4 134/2/4
f 137/2/5 136/2/5 135/2/5
f 138/2/5 136/2/5 137/2/5
f 141/1/5 140/1/5 139/1/5
f 142/1/5 140/1/5 141/1/5
f 147/2/5 144/2/5 143/2/5
f 148/2/5 144/2/5 147/2/5
f 149/2/5 146/2/5 145/2/5
f 150/2/5 146/2/5 149/2/5
f 153/2/5 152/2/5 151/2/5
f 154/2/5 152/2/5 153/2/5
f 155/2/6 156/2/6 157/2/6
f 157/2/6 156/2/6 158/2/6
f 158/2/6 156/2/6 159/2/6
f 159/2/6 156/2/6 160/2/6
f 155/2/6 157/2/6 161/2/6
f 158/2/6 159/2/6 162/2/6
f 162/2/6 159/2/6 163/2/6
f 160/2/6 156/2/6 164/2/6
f 162/2/6 163/2/6 165/2/6
f 163/2/6 164/2/6 165/2/6
f 155/2/6 161/2/6 165/2/6
f 161/2/6 162/2/6 165/2/6
f 164/2/6 156/2/6 166/2/6
f 165/2/6 164/2/6 166/2/6
f 167/3/6 168/3/6 171/3/6
f 171/3/6 168/3/6 172/3/6
f 169/3/6 170/3/6 173/3/6
f 173/3/6 170/3/6 174/3/6
f 167/3/6 171/3/6 175/3/6
f 172/3/6 168/3/6 176/3/6
f 169/3/6 173/3/6 177/3/6
f 174/3/6 170/3/6 178/3/6
f 167/3/6 175/3/6 179/3/6
f 175/3/6 176/3/6 179/3/6
f 176/3/6 168/3/6 180/3/6
f 179/3/6 176/3/6 180/3/6
f 177/3/6 178/3/6 181/3/6
f 169/3/6 177/3/6 181/3/6
f 178/3/6 170/3/6 182/3/6
f 181/3/6 178/3/6 182/3/6
f 183/2/6 184/2/6 187/2/6
f 187/2/6 184/2/6 188/2/6
f 185/2/6 186/2/6 189/2/6
f 189/2/6 186/2/6 190/2/6
f 191/2/6 192/2/6 193/2/6
f 193/2/6 192/2/6 194/2/6
