# MagicaVoxel @ Ephtracy

# group
o 

# material
mtllib Drill.mtl
usemtl palette

# normals
vn -1 0 0
vn 1 0 0
vn 0 0 1
vn 0 0 -1
vn 0 -1 0
vn 0 1 0

# texcoords
vt 0.185547 0.5
vt 0.943359 0.5
vt 0.955078 0.5
vt 0.974609 0.5
vt 0.982422 0.5
vt 0.986328 0.5
vt 0.990234 0.5
vt 0.994141 0.5

# verts
v -1.2 0.5 -0.5
v -1.2 0.5 -0.6
v -1.2 1.2 -0.5
v -1.2 1.2 -0.6
v -1.1 0.7 -0.8
v -1.1 0.7 -1
v -1.1 0.9 -0.8
v -1.1 0.9 -1
v -0.8 0 1.5
v -0.8 0 0.8
v -0.8 0.1 1.4
v -0.8 0.1 0.8
v -0.8 0.1 0.6
v -0.8 0.2 0.8
v -0.8 0.2 0.6
v -0.8 0.2 0.4
v -0.8 0.3 0.6
v -0.8 0.3 0.4
v -0.8 1.2 1.4
v -0.8 1.2 0.5
v -0.8 1.3 1.5
v -0.8 1.3 0.5
v -0.7 0.3 0.5
v -0.7 0.3 0.4
v -0.7 0.3 0.3
v -0.7 0.4 0.5
v -0.7 0.4 0.3
v -0.7 0.7 -0.6
v -0.7 0.7 -0.8
v -0.7 0.9 -0.6
v -0.7 0.9 -0.8
v -0.7 1.1 0.5
v -0.7 1.1 0.3
v -0.7 1.2 0.5
v -0.7 1.2 0.3
v -0.6 0.3 0.3
v -0.6 0.3 0.1
v -0.6 0.4 0.3
v -0.6 0.4 0.2
v -0.6 0.4 0.1
v -0.6 0.4 0
v -0.6 1.1 0.3
v -0.6 1.1 0.2
v -0.6 1.1 0.1
v -0.6 1.1 0
v -0.6 1.2 0.3
v -0.6 1.2 0.1
v -0.5 0.3 0.1
v -0.5 0.3 -1.6
v -0.5 0.4 0.1
v -0.5 0.4 0
v -0.5 0.5 -0.5
v -0.5 0.5 -0.6
v -0.5 0.7 -0.6
v -0.5 0.7 -0.8
v -0.5 0.9 -0.6
v -0.5 0.9 -0.8
v -0.5 1.1 0.1
v -0.5 1.1 0
v -0.5 1.2 0.1
v -0.5 1.2 -0.5
v -0.5 1.2 -0.6
v -0.5 1.2 -1.6
v -0.0999999 0.5 1.6
v -0.0999999 0.5 0.1
v -0.0999999 0.5 0
v -0.0999999 0.7 1.6
v -0.0999999 0.7 0
v 1.19209e-07 0.6 -1.2
v 1.19209e-07 0.6 -1.4
v 1.19209e-07 0.7 -1.2
v 1.19209e-07 0.7 -1.3
v 1.19209e-07 0.9 -1.2
v 1.19209e-07 0.9 -1.3
v 1.19209e-07 0.9 -1.4
v 1.19209e-07 1 -1.2
v 1.19209e-07 1 -1.3
v 1.19209e-07 1 -1.4
v 0.2 0.5 0.1
v 0.2 0.5 0
v 0.2 0.8 0.1
v 0.2 0.8 0
v 0.3 1.1 -0.5
v 0.3 1.1 -0.6
v 0.3 1.2 -0.5
v 0.3 1.2 -0.6
v 0.4 0.4 0.2
v 0.4 0.4 0.1
v 0.4 0.4 -1.2
v 0.4 0.4 -1.6
v 0.4 1 0.2
v 0.4 1 0.1
v 0.4 1.1 -1.2
v 0.4 1.1 -1.6
v 0.5 0.3 0.3
v 0.5 0.3 0.2
v 0.5 0.4 0.3
v 0.5 0.4 0.2
v 0.5 1.1 0.3
v 0.5 1.1 0.2
v 0.5 1.2 0.3
v 0.5 1.2 0.2
v 0.6 0.3 0.5
v 0.6 0.3 0.3
v 0.6 0.4 0.5
v 0.6 0.4 0.3
v 0.6 1.1 0.5
v 0.6 1.1 0.3
v 0.6 1.2 0.5
v 0.6 1.2 0.3
v 0.7 0 1.4
v 0.7 0 0.8
v 0.7 0.1 1.5
v 0.7 0.1 1.4
v 0.7 0.1 0.8
v 0.7 0.1 0.6
v 0.7 0.2 0.8
v 0.7 0.2 0.6
v 0.7 0.2 0.4
v 0.7 0.3 0.6
v 0.7 0.3 0.5
v 0.7 0.3 0.4
v 0.7 1.2 1.5
v 0.7 1.2 1.4
v 0.7 1.2 0.5
v 0.7 1.3 1.4
v 0.7 1.3 0.5
v -0.7 0 1.4
v -0.7 0 0.8
v -0.7 0.1 1.5
v -0.7 0.1 1.4
v -0.7 0.1 0.8
v -0.7 0.1 0.6
v -0.7 0.2 0.8
v -0.7 0.2 0.6
v -0.7 0.2 0.4
v -0.7 0.3 0.6
v -0.7 0.3 0.5
v -0.7 0.3 0.4
v -0.7 0.7 -0.9
v -0.7 0.7 -1
v -0.7 0.9 -0.9
v -0.7 0.9 -1
v -0.7 1.2 1.5
v -0.7 1.2 1.4
v -0.7 1.2 0.5
v -0.7 1.3 1.4
v -0.7 1.3 0.5
v -0.6 0.3 0.5
v -0.6 0.3 0.3
v -0.6 0.4 0.5
v -0.6 0.4 0.3
v -0.6 0.7 -0.8
v -0.6 0.7 -0.9
v -0.6 0.9 -0.8
v -0.6 0.9 -0.9
v -0.6 1.1 0.5
v -0.6 1.1 0.3
v -0.6 1.2 0.5
v -0.6 1.2 0.3
v -0.5 0.3 0.3
v -0.5 0.3 0.2
v -0.5 0.4 0.3
v -0.5 0.4 0.2
v -0.5 1.1 0.3
v -0.5 1.1 0.2
v -0.5 1.2 0.3
v -0.5 1.2 0.2
v -0.4 0.4 0.2
v -0.4 0.4 0.1
v -0.4 0.4 -1.2
v -0.4 0.4 -1.6
v -0.4 0.6 -1.2
v -0.4 1 0.2
v -0.4 1 0.1
v -0.4 1 -1.2
v -0.4 1.1 -1.2
v -0.4 1.1 -1.6
v -0.2 0.5 0.1
v -0.2 0.5 0
v -0.2 0.8 0.1
v -0.2 0.8 0
v 0.1 0.5 1.6
v 0.1 0.5 0.1
v 0.1 0.5 0
v 0.1 0.6 -1.2
v 0.1 0.6 -1.4
v 0.1 0.7 1.6
v 0.1 0.7 0
v 0.1 0.7 -1.2
v 0.1 0.7 -1.3
v 0.1 0.9 -1.2
v 0.1 0.9 -1.3
v 0.1 0.9 -1.4
v 0.1 1 -1.2
v 0.1 1 -1.3
v 0.1 1 -1.4
v 0.2 1.1 -0.5
v 0.2 1.1 -0.6
v 0.2 1.2 -0.5
v 0.2 1.2 -0.6
v 0.5 0.3 0.1
v 0.5 0.3 -1.6
v 0.5 0.4 0.1
v 0.5 0.4 0
v 0.5 1.1 0.1
v 0.5 1.1 0
v 0.5 1.2 0.1
v 0.5 1.2 -1.6
v 0.6 0.3 0.3
v 0.6 0.3 0.1
v 0.6 0.4 0.3
v 0.6 0.4 0.2
v 0.6 0.4 0.1
v 0.6 0.4 0
v 0.6 1.1 0.3
v 0.6 1.1 0.2
v 0.6 1.1 0.1
v 0.6 1.1 0
v 0.6 1.2 0.3
v 0.6 1.2 0.1
v 0.7 0.3 0.5
v 0.7 0.3 0.4
v 0.7 0.3 0.3
v 0.7 0.4 0.5
v 0.7 0.4 0.3
v 0.7 1.1 0.5
v 0.7 1.1 0.3
v 0.7 1.2 0.5
v 0.7 1.2 0.3
v 0.8 0 1.5
v 0.8 0 0.8
v 0.8 0.1 1.4
v 0.8 0.1 0.8
v 0.8 0.1 0.6
v 0.8 0.2 0.8
v 0.8 0.2 0.6
v 0.8 0.2 0.4
v 0.8 0.3 0.6
v 0.8 0.3 0.4
v 0.8 1.2 1.4
v 0.8 1.2 0.5
v 0.8 1.3 1.5
v 0.8 1.3 0.5
v -0.0999999 0.5 1.6
v -0.0999999 0.7 1.6
v 0.1 0.5 1.6
v 0.1 0.7 1.6
v -0.8 0 1.5
v -0.8 1.3 1.5
v -0.7 0.1 1.5
v -0.7 1.2 1.5
v 0.7 0.1 1.5
v 0.7 1.2 1.5
v 0.8 0 1.5
v 0.8 1.3 1.5
v -0.8 0.1 0.8
v -0.8 0.2 0.8
v -0.7 0.1 0.8
v -0.7 0.2 0.8
v 0.7 0.1 0.8
v 0.7 0.2 0.8
v 0.8 0.1 0.8
v 0.8 0.2 0.8
v -0.8 0.2 0.6
v -0.8 0.3 0.6
v -0.7 0.2 0.6
v -0.7 0.3 0.6
v 0.7 0.2 0.6
v 0.7 0.3 0.6
v 0.8 0.2 0.6
v 0.8 0.3 0.6
v -0.7 0.3 0.5
v -0.7 0.4 0.5
v -0.7 1.1 0.5
v -0.7 1.2 0.5
v -0.6 0.3 0.5
v -0.6 0.4 0.5
v -0.6 1.1 0.5
v -0.6 1.2 0.5
v 0.6 0.3 0.5
v 0.6 0.4 0.5
v 0.6 1.1 0.5
v 0.6 1.2 0.5
v 0.7 0.3 0.5
v 0.7 0.4 0.5
v 0.7 1.1 0.5
v 0.7 1.2 0.5
v -0.6 0.3 0.3
v -0.6 0.4 0.3
v -0.6 1.1 0.3
v -0.6 1.2 0.3
v -0.5 0.3 0.3
v -0.5 0.4 0.3
v -0.5 1.1 0.3
v -0.5 1.2 0.3
v 0.5 0.3 0.3
v 0.5 0.4 0.3
v 0.5 1.1 0.3
v 0.5 1.2 0.3
v 0.6 0.3 0.3
v 0.6 0.4 0.3
v 0.6 1.1 0.3
v 0.6 1.2 0.3
v -0.6 0.4 0.2
v -0.6 1.1 0.2
v -0.5 0.3 0.2
v -0.5 0.4 0.2
v -0.5 1.1 0.2
v -0.5 1.2 0.2
v -0.4 0.4 0.2
v -0.4 1 0.2
v 0.4 0.4 0.2
v 0.4 1 0.2
v 0.5 0.3 0.2
v 0.5 0.4 0.2
v 0.5 1.1 0.2
v 0.5 1.2 0.2
v 0.6 0.4 0.2
v 0.6 1.1 0.2
v -0.4 0.4 0.1
v -0.4 1 0.1
v -0.2 0.5 0.1
v -0.2 0.8 0.1
v -0.0999999 0.5 0.1
v 0.1 0.5 0.1
v 0.2 0.5 0.1
v 0.2 0.8 0.1
v 0.4 0.4 0.1
v 0.4 1 0.1
v -0.2 0.5 0
v -0.2 0.8 0
v -0.0999999 0.5 0
v -0.0999999 0.7 0
v 0.1 0.5 0
v 0.1 0.7 0
v 0.2 0.5 0
v 0.2 0.8 0
v -1.2 0.5 -0.5
v -1.2 1.2 -0.5
v -0.5 0.5 -0.5
v -0.5 1.2 -0.5
v 0.2 1.1 -0.6
v 0.2 1.2 -0.6
v 0.3 1.1 -0.6
v 0.3 1.2 -0.6
v -1.1 0.7 -0.8
v -1.1 0.9 -0.8
v -0.7 0.7 -0.8
v -0.7 0.9 -0.8
v 1.19209e-07 0.7 -1.3
v 1.19209e-07 0.9 -1.3
v 0.1 0.7 -1.3
v 0.1 0.9 -1.3
v -0.8 0.1 1.4
v -0.8 1.2 1.4
v -0.7 0 1.4
v -0.7 0.1 1.4
v -0.7 1.2 1.4
v -0.7 1.3 1.4
v 0.7 0 1.4
v 0.7 0.1 1.4
v 0.7 1.2 1.4
v 0.7 1.3 1.4
v 0.8 0.1 1.4
v 0.8 1.2 1.4
v -0.8 0 0.8
v -0.8 0.1 0.8
v -0.7 0 0.8
v -0.7 0.1 0.8
v 0.7 0 0.8
v 0.7 0.1 0.8
v 0.8 0 0.8
v 0.8 0.1 0.8
v -0.8 0.1 0.6
v -0.8 0.2 0.6
v -0.7 0.1 0.6
v -0.7 0.2 0.6
v 0.7 0.1 0.6
v 0.7 0.2 0.6
v 0.8 0.1 0.6
v 0.8 0.2 0.6
v -0.8 1.2 0.5
v -0.8 1.3 0.5
v -0.7 1.2 0.5
v -0.7 1.3 0.5
v 0.7 1.2 0.5
v 0.7 1.3 0.5
v 0.8 1.2 0.5
v 0.8 1.3 0.5
v -0.8 0.2 0.4
v -0.8 0.3 0.4
v -0.7 0.2 0.4
v -0.7 0.3 0.4
v 0.7 0.2 0.4
v 0.7 0.3 0.4
v 0.8 0.2 0.4
v 0.8 0.3 0.4
v -0.7 0.3 0.3
v -0.7 0.4 0.3
v -0.7 1.1 0.3
v -0.7 1.2 0.3
v -0.6 0.3 0.3
v -0.6 0.4 0.3
v -0.6 1.1 0.3
v -0.6 1.2 0.3
v 0.6 0.3 0.3
v 0.6 0.4 0.3
v 0.6 1.1 0.3
v 0.6 1.2 0.3
v 0.7 0.3 0.3
v 0.7 0.4 0.3
v 0.7 1.1 0.3
v 0.7 1.2 0.3
v -0.6 0.3 0.1
v -0.6 0.4 0.1
v -0.6 1.1 0.1
v -0.6 1.2 0.1
v -0.5 0.3 0.1
v -0.5 0.4 0.1
v -0.5 1.1 0.1
v -0.5 1.2 0.1
v 0.5 0.3 0.1
v 0.5 0.4 0.1
v 0.5 1.1 0.1
v 0.5 1.2 0.1
v 0.6 0.3 0.1
v 0.6 0.4 0.1
v 0.6 1.1 0.1
v 0.6 1.2 0.1
v -0.6 0.4 0
v -0.6 1.1 0
v -0.5 0.4 0
v -0.5 1.1 0
v 0.5 0.4 0
v 0.5 1.1 0
v 0.6 0.4 0
v 0.6 1.1 0
v 0.2 1.1 -0.5
v 0.2 1.2 -0.5
v 0.3 1.1 -0.5
v 0.3 1.2 -0.5
v -1.2 0.5 -0.6
v -1.2 1.2 -0.6
v -0.7 0.7 -0.6
v -0.7 0.9 -0.6
v -0.5 0.5 -0.6
v -0.5 0.7 -0.6
v -0.5 0.9 -0.6
v -0.5 1.2 -0.6
v -0.6 0.7 -0.8
v -0.6 0.9 -0.8
v -0.5 0.7 -0.8
v -0.5 0.9 -0.8
v -0.7 0.7 -0.9
v -0.7 0.9 -0.9
v -0.6 0.7 -0.9
v -0.6 0.9 -0.9
v -1.1 0.7 -1
v -1.1 0.9 -1
v -0.7 0.7 -1
v -0.7 0.9 -1
v -0.4 0.4 -1.2
v -0.4 0.6 -1.2
v -0.4 1 -1.2
v -0.4 1.1 -1.2
v -0.2 0.6 -1.2
v -0.2 1 -1.2
v 1.19209e-07 0.6 -1.2
v 1.19209e-07 0.7 -1.2
v 1.19209e-07 0.9 -1.2
v 1.19209e-07 1 -1.2
v 0.1 0.6 -1.2
v 0.1 0.7 -1.2
v 0.1 0.9 -1.2
v 0.1 1 -1.2
v 0.4 0.4 -1.2
v 0.4 1.1 -1.2
v 1.19209e-07 0.6 -1.4
v 1.19209e-07 0.9 -1.4
v 1.19209e-07 1 -1.4
v 0.1 0.6 -1.4
v 0.1 0.9 -1.4
v 0.1 1 -1.4
v -0.5 0.3 -1.6
v -0.5 1.2 -1.6
v -0.4 0.4 -1.6
v -0.4 1.1 -1.6
v 0.4 0.4 -1.6
v 0.4 1.1 -1.6
v 0.5 0.3 -1.6
v 0.5 1.2 -1.6
v -0.8 0 1.5
v 0.8 0 1.5
v -0.7 0 1.4
v 0.7 0 1.4
v -0.8 0 0.8
v -0.7 0 0.8
v 0.7 0 0.8
v 0.8 0 0.8
v -0.8 0.1 0.8
v -0.7 0.1 0.8
v 0.7 0.1 0.8
v 0.8 0.1 0.8
v -0.8 0.1 0.6
v -0.7 0.1 0.6
v 0.7 0.1 0.6
v 0.8 0.1 0.6
v -0.8 0.2 0.6
v -0.7 0.2 0.6
v 0.7 0.2 0.6
v 0.8 0.2 0.6
v -0.8 0.2 0.4
v -0.7 0.2 0.4
v 0.7 0.2 0.4
v 0.8 0.2 0.4
v -0.7 0.3 0.5
v -0.6 0.3 0.5
v 0.6 0.3 0.5
v 0.7 0.3 0.5
v -0.7 0.3 0.4
v 0.7 0.3 0.4
v -0.7 0.3 0.3
v -0.6 0.3 0.3
v -0.5 0.3 0.3
v 0.5 0.3 0.3
v 0.6 0.3 0.3
v 0.7 0.3 0.3
v -0.5 0.3 0.2
v 0.5 0.3 0.2
v -0.6 0.3 0.1
v -0.5 0.3 0.1
v -0.4 0.3 0.1
v 0.4 0.3 0.1
v 0.5 0.3 0.1
v 0.6 0.3 0.1
v -0.4 0.3 -1.2
v 0.4 0.3 -1.2
v -0.5 0.3 -1.6
v 0.5 0.3 -1.6
v -0.6 0.4 0.1
v -0.5 0.4 0.1
v 0.5 0.4 0.1
v 0.6 0.4 0.1
v -0.6 0.4 0
v -0.5 0.4 0
v 0.5 0.4 0
v 0.6 0.4 0
v -0.0999999 0.5 1.6
v 0.1 0.5 1.6
v -0.0999999 0.5 0.1
v 0.1 0.5 0.1
v -1.2 0.5 -0.5
v -0.5 0.5 -0.5
v -1.2 0.5 -0.6
v -0.5 0.5 -0.6
v 1.19209e-07 0.6 -1.2
v 0.1 0.6 -1.2
v 1.19209e-07 0.6 -1.4
v 0.1 0.6 -1.4
v -0.7 0.7 -0.6
v -0.5 0.7 -0.6
v -1.1 0.7 -0.8
v -0.7 0.7 -0.8
v -0.6 0.7 -0.8
v -0.5 0.7 -0.8
v -0.7 0.7 -0.9
v -0.6 0.7 -0.9
v -1.1 0.7 -1
v -0.7 0.7 -1
v -0.2 0.8 0.1
v 0.2 0.8 0.1
v -0.2 0.8 0
v 0.2 0.8 0
v 1.19209e-07 0.9 -1.2
v 0.1 0.9 -1.2
v 1.19209e-07 0.9 -1.3
v 0.1 0.9 -1.3
v -0.4 1 0.2
v 0.4 1 0.2
v -0.4 1 0.1
v 0.4 1 0.1
v -0.7 1.1 0.5
v -0.6 1.1 0.5
v 0.6 1.1 0.5
v 0.7 1.1 0.5
v -0.7 1.1 0.3
v -0.6 1.1 0.3
v -0.5 1.1 0.3
v 0.5 1.1 0.3
v 0.6 1.1 0.3
v 0.7 1.1 0.3
v -0.6 1.1 0.2
v -0.5 1.1 0.2
v 0.5 1.1 0.2
v 0.6 1.1 0.2
v -0.4 1.1 -1.2
v 0.4 1.1 -1.2
v -0.4 1.1 -1.6
v 0.4 1.1 -1.6
v -0.7 1.2 1.5
v 0.7 1.2 1.5
v -0.8 1.2 1.4
v -0.7 1.2 1.4
v 0.7 1.2 1.4
v 0.8 1.2 1.4
v -0.8 1.2 0.5
v -0.7 1.2 0.5
v 0.7 1.2 0.5
v 0.8 1.2 0.5
v -0.7 0.1 1.5
v 0.7 0.1 1.5
v -0.8 0.1 1.4
v -0.7 0.1 1.4
v 0.7 0.1 1.4
v 0.8 0.1 1.4
v -0.8 0.1 0.8
v -0.7 0.1 0.8
v 0.7 0.1 0.8
v 0.8 0.1 0.8
v -0.8 0.2 0.8
v -0.7 0.2 0.8
v 0.7 0.2 0.8
v 0.8 0.2 0.8
v -0.8 0.2 0.6
v -0.7 0.2 0.6
v 0.7 0.2 0.6
v 0.8 0.2 0.6
v -0.8 0.3 0.6
v -0.7 0.3 0.6
v 0.7 0.3 0.6
v 0.8 0.3 0.6
v -0.7 0.3 0.5
v 0.7 0.3 0.5
v -0.8 0.3 0.4
v -0.7 0.3 0.4
v 0.7 0.3 0.4
v 0.8 0.3 0.4
v -0.7 0.4 0.5
v -0.6 0.4 0.5
v 0.6 0.4 0.5
v 0.7 0.4 0.5
v -0.7 0.4 0.3
v -0.6 0.4 0.3
v -0.5 0.4 0.3
v 0.5 0.4 0.3
v 0.6 0.4 0.3
v 0.7 0.4 0.3
v -0.6 0.4 0.2
v -0.5 0.4 0.2
v -0.4 0.4 0.2
v 0.4 0.4 0.2
v 0.5 0.4 0.2
v 0.6 0.4 0.2
v -0.4 0.4 0.1
v 0.4 0.4 0.1
v -0.4 0.4 -1.2
v 0.4 0.4 -1.2
v -0.4 0.4 -1.6
v 0.4 0.4 -1.6
v -0.2 0.5 0.1
v -0.0999999 0.5 0.1
v 0.1 0.5 0.1
v 0.2 0.5 0.1
v -0.2 0.5 0
v -0.0999999 0.5 0
v 0.1 0.5 0
v 0.2 0.5 0
v -0.0999999 0.7 1.6
v 0.1 0.7 1.6
v -0.0999999 0.7 0
v 0.1 0.7 0
v 1.19209e-07 0.7 -1.2
v 0.1 0.7 -1.2
v 1.19209e-07 0.7 -1.3
v 0.1 0.7 -1.3
v -0.7 0.9 -0.6
v -0.5 0.9 -0.6
v -1.1 0.9 -0.8
v -0.7 0.9 -0.8
v -0.6 0.9 -0.8
v -0.5 0.9 -0.8
v -0.7 0.9 -0.9
v -0.6 0.9 -0.9
v -1.1 0.9 -1
v -0.7 0.9 -1
v 1.19209e-07 1 -1.2
v 0.1 1 -1.2
v 1.19209e-07 1 -1.3
v 0.1 1 -1.3
v 1.19209e-07 1 -1.4
v 0.1 1 -1.4
v -0.6 1.1 0.1
v -0.5 1.1 0.1
v 0.5 1.1 0.1
v 0.6 1.1 0.1
v -0.6 1.1 0
v -0.5 1.1 0
v 0.5 1.1 0
v 0.6 1.1 0
v 0.2 1.1 -0.5
v 0.3 1.1 -0.5
v 0.2 1.1 -0.6
v 0.3 1.1 -0.6
v -0.7 1.2 0.5
v -0.6 1.2 0.5
v 0.6 1.2 0.5
v 0.7 1.2 0.5
v -0.7 1.2 0.3
v -0.6 1.2 0.3
v -0.5 1.2 0.3
v 0.5 1.2 0.3
v 0.6 1.2 0.3
v 0.7 1.2 0.3
v -0.5 1.2 0.2
v 0.5 1.2 0.2
v -0.6 1.2 0.1
v -0.5 1.2 0.1
v 0.5 1.2 0.1
v 0.6 1.2 0.1
v -0.2 1.2 -0.1
v 0.3 1.2 -0.1
v -1.2 1.2 -0.5
v -0.5 1.2 -0.5
v 0.2 1.2 -0.5
v 0.3 1.2 -0.5
v -1.2 1.2 -0.6
v -0.5 1.2 -0.6
v 0.2 1.2 -0.6
v 0.3 1.2 -0.6
v -0.2 1.2 -1.2
v 0.3 1.2 -1.2
v -0.5 1.2 -1.6
v 0.5 1.2 -1.6
v -0.8 1.3 1.5
v 0.8 1.3 1.5
v -0.7 1.3 1.4
v 0.7 1.3 1.4
v -0.8 1.3 0.5
v -0.7 1.3 0.5
v 0.7 1.3 0.5
v 0.8 1.3 0.5

# faces
f 3/8/1 2/8/1 1/8/1
f 4/8/1 2/8/1 3/8/1
f 7/6/1 6/6/1 5/6/1
f 8/6/1 6/6/1 7/6/1
f 11/8/1 10/8/1 9/8/1
f 12/8/1 10/8/1 11/8/1
f 14/8/1 13/8/1 12/8/1
f 15/8/1 13/8/1 14/8/1
f 17/8/1 16/8/1 15/8/1
f 18/8/1 16/8/1 17/8/1
f 19/8/1 11/8/1 9/8/1
f 21/8/1 19/8/1 9/8/1
f 21/8/1 20/8/1 19/8/1
f 22/8/1 20/8/1 21/8/1
f 26/8/1 24/8/1 23/8/1
f 26/8/1 25/8/1 24/8/1
f 27/8/1 25/8/1 26/8/1
f 30/6/1 29/6/1 28/6/1
f 31/6/1 29/6/1 30/6/1
f 34/8/1 33/8/1 32/8/1
f 35/8/1 33/8/1 34/8/1
f 38/8/1 37/8/1 36/8/1
f 39/8/1 37/8/1 38/8/1
f 40/8/1 37/8/1 39/8/1
f 43/8/1 41/8/1 40/8/1
f 43/8/1 40/8/1 39/8/1
f 44/8/1 41/8/1 43/8/1
f 45/8/1 41/8/1 44/8/1
f 46/8/1 43/8/1 42/8/1
f 46/8/1 44/8/1 43/8/1
f 47/8/1 44/8/1 46/8/1
f 50/8/1 49/8/1 48/8/1
f 51/8/1 49/8/1 50/8/1
f 52/8/1 49/8/1 51/8/1
f 53/8/1 49/8/1 52/8/1
f 54/8/1 49/8/1 53/8/1
f 55/8/1 49/8/1 54/8/1
f 57/8/1 49/8/1 55/8/1
f 59/8/1 52/8/1 51/8/1
f 60/8/1 59/8/1 58/8/1
f 61/8/1 52/8/1 59/8/1
f 61/8/1 59/8/1 60/8/1
f 62/8/1 57/8/1 56/8/1
f 63/8/1 49/8/1 57/8/1
f 63/8/1 57/8/1 62/8/1
f 67/5/1 65/5/1 64/5/1
f 67/5/1 66/5/1 65/5/1
f 68/5/1 66/5/1 67/5/1
f 71/4/1 70/4/1 69/4/1
f 72/4/1 70/4/1 71/4/1
f 74/4/1 70/4/1 72/4/1
f 75/4/1 70/4/1 74/4/1
f 76/4/1 74/4/1 73/4/1
f 77/1/1 75/1/1 74/1/1
f 77/4/1 74/4/1 76/4/1
f 78/1/1 75/1/1 77/1/1
f 81/6/1 80/6/1 79/6/1
f 82/6/1 80/6/1 81/6/1
f 85/8/1 84/8/1 83/8/1
f 86/8/1 84/8/1 85/8/1
f 91/8/1 88/8/1 87/8/1
f 92/8/1 88/8/1 91/8/1
f 93/8/1 90/8/1 89/8/1
f 94/8/1 90/8/1 93/8/1
f 97/8/1 96/8/1 95/8/1
f 98/8/1 96/8/1 97/8/1
f 101/8/1 100/8/1 99/8/1
f 102/8/1 100/8/1 101/8/1
f 105/8/1 104/8/1 103/8/1
f 106/8/1 104/8/1 105/8/1
f 109/8/1 108/8/1 107/8/1
f 110/8/1 108/8/1 109/8/1
f 114/8/1 112/8/1 111/8/1
f 115/8/1 112/8/1 114/8/1
f 117/8/1 116/8/1 115/8/1
f 118/8/1 116/8/1 117/8/1
f 120/8/1 119/8/1 118/8/1
f 121/8/1 119/8/1 120/8/1
f 122/8/1 119/8/1 121/8/1
f 123/8/1 114/8/1 113/8/1
f 124/8/1 114/8/1 123/8/1
f 126/8/1 125/8/1 124/8/1
f 127/8/1 125/8/1 126/8/1
f 128/8/2 129/8/2 131/8/2
f 131/8/2 129/8/2 132/8/2
f 132/8/2 133/8/2 134/8/2
f 134/8/2 133/8/2 135/8/2
f 135/8/2 136/8/2 137/8/2
f 137/8/2 136/8/2 138/8/2
f 138/8/2 136/8/2 139/8/2
f 140/6/2 141/6/2 142/6/2
f 142/6/2 141/6/2 143/6/2
f 130/8/2 131/8/2 144/8/2
f 144/8/2 131/8/2 145/8/2
f 145/8/2 146/8/2 147/8/2
f 147/8/2 146/8/2 148/8/2
f 149/8/2 150/8/2 151/8/2
f 151/8/2 150/8/2 152/8/2
f 153/6/2 154/6/2 155/6/2
f 155/6/2 154/6/2 156/6/2
f 157/8/2 158/8/2 159/8/2
f 159/8/2 158/8/2 160/8/2
f 161/8/2 162/8/2 163/8/2
f 163/8/2 162/8/2 164/8/2
f 165/8/2 166/8/2 167/8/2
f 167/8/2 166/8/2 168/8/2
f 171/8/2 172/8/2 173/8/2
f 169/8/2 170/8/2 174/8/2
f 174/8/2 170/8/2 175/8/2
f 173/8/2 172/8/2 176/8/2
f 176/8/2 172/8/2 177/8/2
f 177/8/2 172/8/2 178/8/2
f 179/6/2 180/6/2 181/6/2
f 181/6/2 180/6/2 182/6/2
f 183/5/2 184/5/2 188/5/2
f 184/5/2 185/5/2 188/5/2
f 188/5/2 185/5/2 189/5/2
f 186/4/2 187/4/2 190/4/2
f 190/4/2 187/4/2 191/4/2
f 191/4/2 187/4/2 193/4/2
f 193/4/2 187/4/2 194/4/2
f 192/4/2 193/4/2 195/4/2
f 193/1/2 194/1/2 196/1/2
f 195/4/2 193/4/2 196/4/2
f 196/1/2 194/1/2 197/1/2
f 198/6/2 199/6/2 200/6/2
f 200/6/2 199/6/2 201/6/2
f 202/8/2 203/8/2 204/8/2
f 204/8/2 203/8/2 205/8/2
f 205/8/2 203/8/2 207/8/2
f 206/8/2 207/8/2 208/8/2
f 207/8/2 203/8/2 209/8/2
f 208/8/2 207/8/2 209/8/2
f 210/8/2 211/8/2 212/8/2
f 212/8/2 211/8/2 213/8/2
f 213/8/2 211/8/2 214/8/2
f 214/8/2 215/8/2 217/8/2
f 213/8/2 214/8/2 217/8/2
f 217/8/2 215/8/2 218/8/2
f 218/8/2 215/8/2 219/8/2
f 216/8/2 217/8/2 220/8/2
f 217/8/2 218/8/2 220/8/2
f 220/8/2 218/8/2 221/8/2
f 222/8/2 223/8/2 225/8/2
f 223/8/2 224/8/2 225/8/2
f 225/8/2 224/8/2 226/8/2
f 227/8/2 228/8/2 229/8/2
f 229/8/2 228/8/2 230/8/2
f 231/8/2 232/8/2 233/8/2
f 233/8/2 232/8/2 234/8/2
f 234/8/2 235/8/2 236/8/2
f 236/8/2 235/8/2 237/8/2
f 237/8/2 238/8/2 239/8/2
f 239/8/2 238/8/2 240/8/2
f 231/8/2 233/8/2 241/8/2
f 231/8/2 241/8/2 243/8/2
f 241/8/2 242/8/2 243/8/2
f 243/8/2 242/8/2 244/8/2
f 247/5/3 246/5/3 245/5/3
f 248/5/3 246/5/3 247/5/3
f 251/8/3 250/8/3 249/8/3
f 252/8/3 250/8/3 251/8/3
f 253/8/3 251/8/3 249/8/3
f 254/8/3 250/8/3 252/8/3
f 255/8/3 253/8/3 249/8/3
f 255/8/3 254/8/3 253/8/3
f 256/8/3 250/8/3 254/8/3
f 256/8/3 254/8/3 255/8/3
f 259/8/3 258/8/3 257/8/3
f 260/8/3 258/8/3 259/8/3
f 263/8/3 262/8/3 261/8/3
f 264/8/3 262/8/3 263/8/3
f 267/8/3 266/8/3 265/8/3
f 268/8/3 266/8/3 267/8/3
f 271/8/3 270/8/3 269/8/3
f 272/8/3 270/8/3 271/8/3
f 277/8/3 274/8/3 273/8/3
f 278/8/3 274/8/3 277/8/3
f 279/8/3 276/8/3 275/8/3
f 280/8/3 276/8/3 279/8/3
f 285/8/3 282/8/3 281/8/3
f 286/8/3 282/8/3 285/8/3
f 287/8/3 284/8/3 283/8/3
f 288/8/3 284/8/3 287/8/3
f 293/8/3 290/8/3 289/8/3
f 294/8/3 290/8/3 293/8/3
f 295/8/3 292/8/3 291/8/3
f 296/8/3 292/8/3 295/8/3
f 301/8/3 298/8/3 297/8/3
f 302/8/3 298/8/3 301/8/3
f 303/8/3 300/8/3 299/8/3
f 304/8/3 300/8/3 303/8/3
f 308/8/3 306/8/3 305/8/3
f 309/8/3 306/8/3 308/8/3
f 311/8/3 308/8/3 307/8/3
f 311/8/3 310/8/3 309/8/3
f 311/8/3 309/8/3 308/8/3
f 312/8/3 310/8/3 311/8/3
f 313/8/3 311/8/3 307/8/3
f 314/8/3 310/8/3 312/8/3
f 315/8/3 313/8/3 307/8/3
f 315/8/3 314/8/3 313/8/3
f 316/8/3 314/8/3 315/8/3
f 317/8/3 310/8/3 314/8/3
f 317/8/3 314/8/3 316/8/3
f 318/8/3 310/8/3 317/8/3
f 319/8/3 317/8/3 316/8/3
f 320/8/3 317/8/3 319/8/3
f 323/6/3 322/6/3 321/6/3
f 324/6/3 322/6/3 323/6/3
f 325/6/3 323/6/3 321/6/3
f 326/6/3 325/6/3 321/6/3
f 327/6/3 326/6/3 321/6/3
f 328/6/3 322/6/3 324/6/3
f 329/6/3 327/6/3 321/6/3
f 329/6/3 328/6/3 327/6/3
f 330/6/3 322/6/3 328/6/3
f 330/6/3 328/6/3 329/6/3
f 333/7/3 332/7/3 331/7/3
f 334/7/3 332/7/3 333/7/3
f 336/7/3 332/7/3 334/7/3
f 337/7/3 336/7/3 335/7/3
f 338/7/3 332/7/3 336/7/3
f 338/7/3 336/7/3 337/7/3
f 341/8/3 340/8/3 339/8/3
f 342/8/3 340/8/3 341/8/3
f 345/6/3 344/6/3 343/6/3
f 346/6/3 344/6/3 345/6/3
f 349/6/3 348/6/3 347/6/3
f 350/6/3 348/6/3 349/6/3
f 353/4/3 352/4/3 351/4/3
f 354/4/3 352/4/3 353/4/3
f 355/8/4 356/8/4 358/8/4
f 358/8/4 356/8/4 359/8/4
f 357/8/4 358/8/4 361/8/4
f 361/8/4 358/8/4 362/8/4
f 359/8/4 360/8/4 363/8/4
f 363/8/4 360/8/4 364/8/4
f 362/8/4 363/8/4 365/8/4
f 365/8/4 363/8/4 366/8/4
f 367/8/4 368/8/4 369/8/4
f 369/8/4 368/8/4 370/8/4
f 371/8/4 372/8/4 373/8/4
f 373/8/4 372/8/4 374/8/4
f 375/8/4 376/8/4 377/8/4
f 377/8/4 376/8/4 378/8/4
f 379/8/4 380/8/4 381/8/4
f 381/8/4 380/8/4 382/8/4
f 383/8/4 384/8/4 385/8/4
f 385/8/4 384/8/4 386/8/4
f 387/8/4 388/8/4 389/8/4
f 389/8/4 388/8/4 390/8/4
f 391/8/4 392/8/4 393/8/4
f 393/8/4 392/8/4 394/8/4
f 395/8/4 396/8/4 397/8/4
f 397/8/4 396/8/4 398/8/4
f 399/8/4 400/8/4 403/8/4
f 403/8/4 400/8/4 404/8/4
f 401/8/4 402/8/4 405/8/4
f 405/8/4 402/8/4 406/8/4
f 407/8/4 408/8/4 411/8/4
f 411/8/4 408/8/4 412/8/4
f 409/8/4 410/8/4 413/8/4
f 413/8/4 410/8/4 414/8/4
f 415/8/4 416/8/4 419/8/4
f 419/8/4 416/8/4 420/8/4
f 417/8/4 418/8/4 421/8/4
f 421/8/4 418/8/4 422/8/4
f 423/8/4 424/8/4 427/8/4
f 427/8/4 424/8/4 428/8/4
f 425/8/4 426/8/4 429/8/4
f 429/8/4 426/8/4 430/8/4
f 431/8/4 432/8/4 433/8/4
f 433/8/4 432/8/4 434/8/4
f 435/8/4 436/8/4 437/8/4
f 437/8/4 436/8/4 438/8/4
f 439/6/4 440/6/4 441/6/4
f 441/6/4 440/6/4 442/6/4
f 443/8/4 444/8/4 445/8/4
f 445/8/4 444/8/4 446/8/4
f 443/8/4 445/8/4 447/8/4
f 447/8/4 445/8/4 448/8/4
f 446/8/4 444/8/4 449/8/4
f 449/8/4 444/8/4 450/8/4
f 451/6/4 452/6/4 453/6/4
f 453/6/4 452/6/4 454/6/4
f 455/6/4 456/6/4 457/6/4
f 457/6/4 456/6/4 458/6/4
f 459/6/4 460/6/4 461/6/4
f 461/6/4 460/6/4 462/6/4
f 463/7/4 464/7/4 467/7/4
f 464/2/4 465/2/4 467/2/4
f 465/7/4 466/7/4 468/7/4
f 467/2/4 465/2/4 468/2/4
f 463/7/4 467/7/4 469/7/4
f 467/7/4 468/7/4 469/7/4
f 469/7/4 468/7/4 470/7/4
f 470/7/4 468/7/4 471/7/4
f 468/7/4 466/7/4 472/7/4
f 471/7/4 468/7/4 472/7/4
f 463/7/4 469/7/4 473/7/4
f 470/7/4 471/7/4 474/7/4
f 474/7/4 471/7/4 475/7/4
f 472/7/4 466/7/4 476/7/4
f 463/7/4 473/7/4 477/7/4
f 475/7/4 476/7/4 477/7/4
f 474/7/4 475/7/4 477/7/4
f 473/7/4 474/7/4 477/7/4
f 476/7/4 466/7/4 478/7/4
f 477/7/4 476/7/4 478/7/4
f 479/4/4 480/4/4 482/4/4
f 480/1/4 481/1/4 483/1/4
f 482/4/4 480/4/4 483/4/4
f 483/1/4 481/1/4 484/1/4
f 485/8/4 486/8/4 487/8/4
f 487/8/4 486/8/4 488/8/4
f 485/8/4 487/8/4 489/8/4
f 488/8/4 486/8/4 490/8/4
f 485/8/4 489/8/4 491/8/4
f 489/8/4 490/8/4 491/8/4
f 490/8/4 486/8/4 492/8/4
f 491/8/4 490/8/4 492/8/4
f 495/8/5 494/8/5 493/8/5
f 496/8/5 494/8/5 495/8/5
f 497/8/5 495/8/5 493/8/5
f 498/8/5 495/8/5 497/8/5
f 499/8/5 494/8/5 496/8/5
f 500/8/5 494/8/5 499/8/5
f 505/8/5 502/8/5 501/8/5
f 506/8/5 502/8/5 505/8/5
f 507/8/5 504/8/5 503/8/5
f 508/8/5 504/8/5 507/8/5
f 513/8/5 510/8/5 509/8/5
f 514/8/5 510/8/5 513/8/5
f 515/8/5 512/8/5 511/8/5
f 516/8/5 512/8/5 515/8/5
f 521/8/5 518/8/5 517/8/5
f 522/8/5 520/8/5 519/8/5
f 523/8/5 518/8/5 521/8/5
f 524/8/5 518/8/5 523/8/5
f 527/8/5 522/8/5 519/8/5
f 528/8/5 522/8/5 527/8/5
f 529/8/5 525/8/5 524/8/5
f 530/8/5 527/8/5 526/8/5
f 531/8/5 529/8/5 524/8/5
f 531/8/5 530/8/5 529/8/5
f 532/8/5 530/8/5 531/8/5
f 533/8/5 530/8/5 532/8/5
f 534/8/5 530/8/5 533/8/5
f 535/8/5 527/8/5 530/8/5
f 535/8/5 530/8/5 534/8/5
f 536/8/5 527/8/5 535/8/5
f 537/7/5 534/7/5 533/7/5
f 537/8/5 533/8/5 532/8/5
f 538/8/5 535/8/5 534/8/5
f 538/7/5 534/7/5 537/7/5
f 539/8/5 537/8/5 532/8/5
f 539/8/5 538/8/5 537/8/5
f 540/8/5 535/8/5 538/8/5
f 540/8/5 538/8/5 539/8/5
f 545/8/5 542/8/5 541/8/5
f 546/8/5 542/8/5 545/8/5
f 547/8/5 544/8/5 543/8/5
f 548/8/5 544/8/5 547/8/5
f 551/5/5 550/5/5 549/5/5
f 552/5/5 550/5/5 551/5/5
f 555/8/5 554/8/5 553/8/5
f 556/8/5 554/8/5 555/8/5
f 559/4/5 558/4/5 557/4/5
f 560/4/5 558/4/5 559/4/5
f 564/6/5 562/6/5 561/6/5
f 565/6/5 562/6/5 564/6/5
f 566/6/5 562/6/5 565/6/5
f 567/6/5 564/6/5 563/6/5
f 567/6/5 565/6/5 564/6/5
f 568/6/5 565/6/5 567/6/5
f 569/6/5 567/6/5 563/6/5
f 570/6/5 567/6/5 569/6/5
f 573/6/5 572/6/5 571/6/5
f 574/6/5 572/6/5 573/6/5
f 577/4/5 576/4/5 575/4/5
f 578/4/5 576/4/5 577/4/5
f 581/8/5 580/8/5 579/8/5
f 582/8/5 580/8/5 581/8/5
f 587/8/5 584/8/5 583/8/5
f 588/8/5 584/8/5 587/8/5
f 591/8/5 586/8/5 585/8/5
f 592/8/5 586/8/5 591/8/5
f 593/8/5 589/8/5 588/8/5
f 594/8/5 589/8/5 593/8/5
f 595/8/5 591/8/5 590/8/5
f 596/8/5 591/8/5 595/8/5
f 599/8/5 598/8/5 597/8/5
f 600/8/5 598/8/5 599/8/5
f 604/8/5 602/8/5 601/8/5
f 605/8/5 602/8/5 604/8/5
f 607/8/5 604/8/5 603/8/5
f 608/8/5 604/8/5 607/8/5
f 609/8/5 606/8/5 605/8/5
f 610/8/5 606/8/5 609/8/5
f 611/8/6 612/8/6 614/8/6
f 614/8/6 612/8/6 615/8/6
f 613/8/6 614/8/6 617/8/6
f 617/8/6 614/8/6 618/8/6
f 615/8/6 616/8/6 619/8/6
f 619/8/6 616/8/6 620/8/6
f 621/8/6 622/8/6 625/8/6
f 625/8/6 622/8/6 626/8/6
f 623/8/6 624/8/6 627/8/6
f 627/8/6 624/8/6 628/8/6
f 629/8/6 630/8/6 633/8/6
f 631/8/6 632/8/6 634/8/6
f 629/8/6 633/8/6 635/8/6
f 635/8/6 633/8/6 636/8/6
f 634/8/6 632/8/6 637/8/6
f 637/8/6 632/8/6 638/8/6
f 639/8/6 640/8/6 643/8/6
f 643/8/6 640/8/6 644/8/6
f 641/8/6 642/8/6 647/8/6
f 647/8/6 642/8/6 648/8/6
f 644/8/6 645/8/6 649/8/6
f 649/8/6 645/8/6 650/8/6
f 646/8/6 647/8/6 653/8/6
f 653/8/6 647/8/6 654/8/6
f 651/8/6 652/8/6 655/8/6
f 655/8/6 652/8/6 656/8/6
f 657/8/6 658/8/6 659/8/6
f 659/8/6 658/8/6 660/8/6
f 661/6/6 662/6/6 665/6/6
f 665/6/6 662/6/6 666/6/6
f 663/6/6 664/6/6 667/6/6
f 667/6/6 664/6/6 668/6/6
f 669/5/6 670/5/6 671/5/6
f 671/5/6 670/5/6 672/5/6
f 673/4/6 674/4/6 675/4/6
f 675/4/6 674/4/6 676/4/6
f 677/6/6 678/6/6 680/6/6
f 680/6/6 678/6/6 681/6/6
f 681/6/6 678/6/6 682/6/6
f 679/6/6 680/6/6 683/6/6
f 680/6/6 681/6/6 683/6/6
f 683/6/6 681/6/6 684/6/6
f 679/6/6 683/6/6 685/6/6
f 685/6/6 683/6/6 686/6/6
f 687/4/6 688/4/6 689/4/6
f 689/4/6 688/4/6 690/4/6
f 689/1/6 690/1/6 691/1/6
f 691/1/6 690/1/6 692/1/6
f 693/8/6 694/8/6 697/8/6
f 697/8/6 694/8/6 698/8/6
f 695/8/6 696/8/6 699/8/6
f 699/8/6 696/8/6 700/8/6
f 701/3/6 702/3/6 703/3/6
f 703/3/6 702/3/6 704/3/6
f 705/8/6 706/8/6 709/8/6
f 709/8/6 706/8/6 710/8/6
f 707/8/6 708/8/6 713/8/6
f 713/8/6 708/8/6 714/8/6
f 710/8/6 711/8/6 715/8/6
f 712/8/6 713/8/6 716/8/6
f 710/8/6 715/8/6 717/8/6
f 715/8/6 716/8/6 717/8/6
f 717/8/6 716/8/6 718/8/6
f 716/8/6 713/8/6 719/8/6
f 718/8/6 716/8/6 719/8/6
f 719/8/6 713/8/6 720/8/6
f 718/8/6 719/8/6 721/8/6
f 721/8/6 719/8/6 722/8/6
f 718/8/6 721/8/6 724/8/6
f 721/6/6 722/6/6 725/6/6
f 722/8/6 719/8/6 726/8/6
f 725/6/6 722/6/6 726/6/6
f 723/8/6 724/8/6 727/8/6
f 724/8/6 721/8/6 728/8/6
f 727/8/6 724/8/6 728/8/6
f 721/6/6 725/6/6 729/6/6
f 726/8/6 719/8/6 730/8/6
f 728/8/6 721/8/6 731/8/6
f 729/6/6 730/6/6 731/6/6
f 721/6/6 729/6/6 731/6/6
f 730/8/6 719/8/6 732/8/6
f 731/6/6 730/6/6 732/6/6
f 728/8/6 731/8/6 733/8/6
f 731/8/6 732/8/6 733/8/6
f 732/8/6 719/8/6 734/8/6
f 733/8/6 732/8/6 734/8/6
f 735/8/6 736/8/6 737/8/6
f 737/8/6 736/8/6 738/8/6
f 735/8/6 737/8/6 739/8/6
f 739/8/6 737/8/6 740/8/6
f 738/8/6 736/8/6 741/8/6
f 741/8/6 736/8/6 742/8/6
