# MagicaVoxel @ Ephtracy

# group
o 

# material
mtllib TSNEnemy-4.mtl
usemtl palette

# normals
vn -1 0 0
vn 1 0 0
vn 0 0 1
vn 0 0 -1
vn 0 -1 0
vn 0 1 0

# texcoords
vt 0.373047 0.5
vt 0.912109 0.5
vt 0.916016 0.5
vt 0.955078 0.5
vt 0.990234 0.5
vt 0.994141 0.5

# verts
v -0.5 3.4 0.5
v -0.5 3.4 -0.2
v -0.5 3.9 0.6
v -0.5 3.9 0.5
v -0.5 4 0.6
v -0.5 4 -0.2
v -0.4 3.6 0.7
v -0.4 3.6 0.5
v -0.4 3.9 0.7
v -0.4 3.9 0.6
v -0.4 3.9 0.5
v -0.4 4 0.5
v -0.4 4 -0.1
v -0.4 4.1 0.5
v -0.4 4.1 -0.1
v -0.3 3.3 0.4
v -0.3 3.3 0
v -0.3 3.4 0.4
v -0.3 3.4 0
v -0.1 3.6 0.7
v -0.1 3.6 0.5
v -0.1 3.7 0.5
v -0.1 3.8 0.5
v -0.1 3.9 0.7
v -0.1 3.9 0.6
v -0.1 3.9 0.5
v 0.3 3.3 0.4
v 0.3 3.3 0
v 0.3 3.4 0.4
v 0.3 3.4 0
v 0.4 4 0.5
v 0.4 4 -0.1
v 0.4 4.1 0.5
v 0.4 4.1 -0.1
v 0.5 3.4 0.5
v 0.5 3.4 -0.2
v 0.5 3.9 0.6
v 0.5 3.9 0.5
v 0.5 4 0.6
v 0.5 4 -0.2
v -0.4 3.6 0.7
v -0.4 3.9 0.7
v -0.3 3.7 0.7
v -0.3 3.8 0.7
v -0.2 3.7 0.7
v -0.2 3.8 0.7
v -0.1 3.6 0.7
v -0.1 3.9 0.7
v -0.5 3.9 0.6
v -0.5 4 0.6
v -0.4 3.9 0.6
v -0.1 3.9 0.6
v 0.5 3.9 0.6
v 0.5 4 0.6
v -0.5 3.4 0.5
v -0.5 3.9 0.5
v -0.4 3.4 0.5
v -0.4 3.5 0.5
v -0.4 3.6 0.5
v -0.4 3.9 0.5
v -0.4 4 0.5
v -0.4 4.1 0.5
v -0.3 3.4 0.5
v -0.3 3.5 0.5
v -0.3 3.6 0.5
v -0.2 3.4 0.5
v -0.2 3.5 0.5
v -0.2 3.6 0.5
v -0.1 3.4 0.5
v -0.1 3.5 0.5
v -0.1 3.6 0.5
v -0.1 3.7 0.5
v -0.1 3.8 0.5
v -0.1 3.9 0.5
v 0 3.4 0.5
v 0 3.5 0.5
v 0 3.6 0.5
v 0 3.7 0.5
v 0 3.8 0.5
v 0 3.9 0.5
v 0.1 3.4 0.5
v 0.1 3.5 0.5
v 0.1 3.6 0.5
v 0.1 3.7 0.5
v 0.1 3.8 0.5
v 0.1 3.9 0.5
v 0.2 3.4 0.5
v 0.2 3.5 0.5
v 0.2 3.6 0.5
v 0.2 3.7 0.5
v 0.2 3.8 0.5
v 0.2 3.9 0.5
v 0.3 3.4 0.5
v 0.3 3.5 0.5
v 0.3 3.6 0.5
v 0.3 3.7 0.5
v 0.3 3.8 0.5
v 0.3 3.9 0.5
v 0.4 3.4 0.5
v 0.4 3.5 0.5
v 0.4 3.6 0.5
v 0.4 3.7 0.5
v 0.4 3.8 0.5
v 0.4 3.9 0.5
v 0.4 4 0.5
v 0.4 4.1 0.5
v 0.5 3.4 0.5
v 0.5 3.9 0.5
v -0.3 3.3 0.4
v -0.3 3.4 0.4
v -0.2 3.4 0.4
v -0.1 3.4 0.4
v 0 3.4 0.4
v 0.1 3.4 0.4
v 0.2 3.4 0.4
v 0.3 3.3 0.4
v 0.3 3.4 0.4
v -0.3 3.3 0
v -0.3 3.4 0
v 0.3 3.3 0
v 0.3 3.4 0
v -0.4 4 -0.1
v -0.4 4.1 -0.1
v 0.4 4 -0.1
v 0.4 4.1 -0.1
v -0.5 3.4 -0.2
v -0.5 4 -0.2
v 0.5 3.4 -0.2
v 0.5 4 -0.2
v -0.3 3.3 0.4
v 0.3 3.3 0.4
v -0.2 3.3 0.3
v 0.2 3.3 0.3
v -0.2 3.3 0.1
v 0.2 3.3 0.1
v -0.3 3.3 0
v 0.3 3.3 0
v -0.5 3.4 0.5
v -0.4 3.4 0.5
v -0.3 3.4 0.5
v -0.2 3.4 0.5
v -0.1 3.4 0.5
v 0 3.4 0.5
v 0.1 3.4 0.5
v 0.2 3.4 0.5
v 0.3 3.4 0.5
v 0.4 3.4 0.5
v 0.5 3.4 0.5
v -0.4 3.4 0.4
v -0.3 3.4 0.4
v -0.2 3.4 0.4
v -0.1 3.4 0.4
v 0 3.4 0.4
v 0.1 3.4 0.4
v 0.2 3.4 0.4
v 0.3 3.4 0.4
v 0.4 3.4 0.4
v -0.3 3.4 0
v 0.3 3.4 0
v -0.4 3.4 -0.1
v 0.4 3.4 -0.1
v -0.5 3.4 -0.2
v 0.5 3.4 -0.2
v -0.4 3.6 0.7
v -0.1 3.6 0.7
v -0.4 3.6 0.5
v -0.3 3.6 0.5
v -0.2 3.6 0.5
v -0.1 3.6 0.5
v -0.5 3.9 0.6
v -0.4 3.9 0.6
v -0.1 3.9 0.6
v 0.5 3.9 0.6
v -0.5 3.9 0.5
v -0.4 3.9 0.5
v -0.1 3.9 0.5
v 0 3.9 0.5
v 0.1 3.9 0.5
v 0.2 3.9 0.5
v 0.3 3.9 0.5
v 0.4 3.9 0.5
v 0.5 3.9 0.5
v -0.4 3.9 0.7
v -0.1 3.9 0.7
v -0.4 3.9 0.6
v -0.1 3.9 0.6
v -0.5 4 0.6
v 0.5 4 0.6
v -0.4 4 0.5
v 0.4 4 0.5
v -0.4 4 -0.1
v 0.4 4 -0.1
v -0.5 4 -0.2
v 0.5 4 -0.2
v -0.4 4.1 0.5
v 0.4 4.1 0.5
v -0.4 4.1 -0.1
v 0.4 4.1 -0.1

# faces
f 4/5/1 2/5/1 1/5/1
f 5/5/1 4/5/1 3/5/1
f 6/5/1 2/5/1 4/5/1
f 6/5/1 4/5/1 5/5/1
f 9/3/1 8/3/1 7/3/1
f 10/3/1 8/3/1 9/3/1
f 11/3/1 8/3/1 10/3/1
f 14/5/1 13/5/1 12/5/1
f 15/5/1 13/5/1 14/5/1
f 18/5/1 17/5/1 16/5/1
f 19/5/1 17/5/1 18/5/1
f 20/3/2 21/3/2 22/3/2
f 20/3/2 22/3/2 23/3/2
f 20/3/2 23/3/2 24/3/2
f 24/3/2 23/3/2 25/3/2
f 25/3/2 23/3/2 26/3/2
f 27/5/2 28/5/2 29/5/2
f 29/5/2 28/5/2 30/5/2
f 31/5/2 32/5/2 33/5/2
f 33/5/2 32/5/2 34/5/2
f 35/5/2 36/5/2 38/5/2
f 37/5/2 38/5/2 39/5/2
f 38/5/2 36/5/2 40/5/2
f 39/5/2 38/5/2 40/5/2
f 43/3/3 42/3/3 41/3/3
f 44/3/3 42/3/3 43/3/3
f 45/3/3 43/3/3 41/3/3
f 45/4/3 44/4/3 43/4/3
f 46/3/3 42/3/3 44/3/3
f 46/4/3 44/4/3 45/4/3
f 47/3/3 45/3/3 41/3/3
f 47/3/3 46/3/3 45/3/3
f 48/3/3 42/3/3 46/3/3
f 48/3/3 46/3/3 47/3/3
f 51/5/3 50/5/3 49/5/3
f 52/5/3 50/5/3 51/5/3
f 53/5/3 50/5/3 52/5/3
f 54/5/3 50/5/3 53/5/3
f 57/5/3 56/5/3 55/5/3
f 58/5/3 56/5/3 57/5/3
f 59/5/3 56/5/3 58/5/3
f 60/5/3 56/5/3 59/5/3
f 63/2/3 58/2/3 57/2/3
f 64/3/3 59/3/3 58/3/3
f 64/2/3 58/2/3 63/2/3
f 65/3/3 59/3/3 64/3/3
f 66/3/3 64/3/3 63/3/3
f 67/2/3 65/2/3 64/2/3
f 67/3/3 64/3/3 66/3/3
f 68/2/3 65/2/3 67/2/3
f 69/2/3 67/2/3 66/2/3
f 70/3/3 68/3/3 67/3/3
f 70/2/3 67/2/3 69/2/3
f 71/3/3 68/3/3 70/3/3
f 75/3/3 70/3/3 69/3/3
f 76/2/3 71/2/3 70/2/3
f 76/3/3 70/3/3 75/3/3
f 77/3/3 72/3/3 71/3/3
f 77/2/3 71/2/3 76/2/3
f 78/2/3 73/2/3 72/2/3
f 78/3/3 72/3/3 77/3/3
f 79/3/3 74/3/3 73/3/3
f 79/2/3 73/2/3 78/2/3
f 80/3/3 74/3/3 79/3/3
f 81/2/3 76/2/3 75/2/3
f 82/3/3 77/3/3 76/3/3
f 82/2/3 76/2/3 81/2/3
f 83/2/3 78/2/3 77/2/3
f 83/3/3 77/3/3 82/3/3
f 84/3/3 79/3/3 78/3/3
f 84/2/3 78/2/3 83/2/3
f 85/2/3 80/2/3 79/2/3
f 85/3/3 79/3/3 84/3/3
f 86/2/3 80/2/3 85/2/3
f 87/3/3 82/3/3 81/3/3
f 88/2/3 83/2/3 82/2/3
f 88/3/3 82/3/3 87/3/3
f 89/3/3 84/3/3 83/3/3
f 89/2/3 83/2/3 88/2/3
f 90/2/3 85/2/3 84/2/3
f 90/3/3 84/3/3 89/3/3
f 91/3/3 86/3/3 85/3/3
f 91/2/3 85/2/3 90/2/3
f 92/3/3 86/3/3 91/3/3
f 93/2/3 88/2/3 87/2/3
f 94/3/3 89/3/3 88/3/3
f 94/2/3 88/2/3 93/2/3
f 95/2/3 90/2/3 89/2/3
f 95/3/3 89/3/3 94/3/3
f 96/6/3 91/6/3 90/6/3
f 96/2/3 90/2/3 95/2/3
f 97/2/3 92/2/3 91/2/3
f 97/6/3 91/6/3 96/6/3
f 98/2/3 92/2/3 97/2/3
f 99/3/3 94/3/3 93/3/3
f 100/2/3 95/2/3 94/2/3
f 100/3/3 94/3/3 99/3/3
f 101/3/3 96/3/3 95/3/3
f 101/2/3 95/2/3 100/2/3
f 102/2/3 97/2/3 96/2/3
f 102/3/3 96/3/3 101/3/3
f 103/3/3 98/3/3 97/3/3
f 103/2/3 97/2/3 102/2/3
f 104/3/3 98/3/3 103/3/3
f 105/5/3 62/5/3 61/5/3
f 106/5/3 62/5/3 105/5/3
f 107/5/3 104/5/3 103/5/3
f 107/5/3 103/5/3 102/5/3
f 107/5/3 102/5/3 101/5/3
f 107/5/3 101/5/3 100/5/3
f 107/5/3 100/5/3 99/5/3
f 108/5/3 104/5/3 107/5/3
f 111/5/3 110/5/3 109/5/3
f 112/5/3 111/5/3 109/5/3
f 113/5/3 112/5/3 109/5/3
f 114/5/3 113/5/3 109/5/3
f 115/5/3 114/5/3 109/5/3
f 116/5/3 115/5/3 109/5/3
f 117/5/3 115/5/3 116/5/3
f 118/5/4 119/5/4 120/5/4
f 120/5/4 119/5/4 121/5/4
f 122/5/4 123/5/4 124/5/4
f 124/5/4 123/5/4 125/5/4
f 126/5/4 127/5/4 128/5/4
f 128/5/4 127/5/4 129/5/4
f 132/5/5 131/5/5 130/5/5
f 133/5/5 131/5/5 132/5/5
f 134/5/5 132/5/5 130/5/5
f 134/1/5 133/1/5 132/1/5
f 135/5/5 131/5/5 133/5/5
f 135/1/5 133/1/5 134/1/5
f 136/5/5 134/5/5 130/5/5
f 136/5/5 135/5/5 134/5/5
f 137/5/5 131/5/5 135/5/5
f 137/5/5 135/5/5 136/5/5
f 149/5/5 139/5/5 138/5/5
f 149/2/5 140/2/5 139/2/5
f 150/3/5 141/3/5 140/3/5
f 150/2/5 140/2/5 149/2/5
f 151/2/5 142/2/5 141/2/5
f 151/3/5 141/3/5 150/3/5
f 152/3/5 143/3/5 142/3/5
f 152/2/5 142/2/5 151/2/5
f 153/2/5 144/2/5 143/2/5
f 153/3/5 143/3/5 152/3/5
f 154/3/5 145/3/5 144/3/5
f 154/2/5 144/2/5 153/2/5
f 155/2/5 146/2/5 145/2/5
f 155/3/5 145/3/5 154/3/5
f 156/3/5 147/3/5 146/3/5
f 156/2/5 146/2/5 155/2/5
f 157/5/5 148/5/5 147/5/5
f 157/3/5 147/3/5 156/3/5
f 158/1/5 150/1/5 149/1/5
f 159/1/5 157/1/5 156/1/5
f 160/1/5 158/1/5 149/1/5
f 160/1/5 159/1/5 158/1/5
f 160/5/5 149/5/5 138/5/5
f 161/5/5 148/5/5 157/5/5
f 161/1/5 159/1/5 160/1/5
f 161/1/5 157/1/5 159/1/5
f 162/5/5 160/5/5 138/5/5
f 162/5/5 161/5/5 160/5/5
f 163/5/5 148/5/5 161/5/5
f 163/5/5 161/5/5 162/5/5
f 166/3/5 165/3/5 164/3/5
f 167/3/5 165/3/5 166/3/5
f 168/3/5 165/3/5 167/3/5
f 169/3/5 165/3/5 168/3/5
f 174/5/5 171/5/5 170/5/5
f 175/5/5 171/5/5 174/5/5
f 176/5/5 173/5/5 172/5/5
f 177/5/5 173/5/5 176/5/5
f 178/5/5 173/5/5 177/5/5
f 179/5/5 173/5/5 178/5/5
f 180/5/5 173/5/5 179/5/5
f 181/5/5 173/5/5 180/5/5
f 182/5/5 173/5/5 181/5/5
f 183/3/6 184/3/6 185/3/6
f 185/3/6 184/3/6 186/3/6
f 187/5/6 188/5/6 189/5/6
f 189/5/6 188/5/6 190/5/6
f 187/5/6 189/5/6 191/5/6
f 190/5/6 188/5/6 192/5/6
f 187/5/6 191/5/6 193/5/6
f 191/5/6 192/5/6 193/5/6
f 192/5/6 188/5/6 194/5/6
f 193/5/6 192/5/6 194/5/6
f 195/5/6 196/5/6 197/5/6
f 197/5/6 196/5/6 198/5/6
