# MagicaVoxel @ Ephtracy

# group
o 

# material
mtllib civil1-0.mtl
usemtl palette

# normals
vn -1 0 0
vn 1 0 0
vn 0 0 1
vn 0 0 -1
vn 0 -1 0
vn 0 1 0

# texcoords
vt 0.951172 0.5
vt 0.978516 0.5
vt 0.982422 0.5
vt 0.990234 0.5

# verts
v 0 1.5 0.4
v 0 1.5 0
v 0 1.6 0.5
v 0 1.6 0.4
v 0 1.6 0.1
v 0 1.7 0.5
v 0 1.7 0.4
v 0 1.7 0.1
v 0 1.7 0
v 0.1 1.4 0.4
v 0.1 1.4 0
v 0.1 1.5 0.4
v 0.1 1.5 0
v 0.2 1.3 0.4
v 0.2 1.3 0
v 0.2 1.4 0.4
v 0.2 1.4 0
v 0.3 1.2 0.4
v 0.3 1.2 0
v 0.3 1.3 0.4
v 0.3 1.3 0
v 0.4 0 0.7
v 0.4 0 0
v 0.4 0.2 0.7
v 0.4 0.2 0.4
v 0.4 0.3 0.4
v 0.4 0.3 0
v 0.4 0.7 0.4
v 0.4 0.7 0
v 0.4 0.8 0.4
v 0.4 0.8 0
v 0.4 0.9 0.4
v 0.4 0.9 0
v 0.4 1 0.4
v 0.4 1 0
v 0.4 1.2 0.4
v 0.4 1.2 0
v 0.1 1.6 0.5
v 0.1 1.6 0.4
v 0.1 1.7 0.5
v 0.1 1.7 0.4
v 0.8 0 0.7
v 0.8 0 0
v 0.8 0.2 0.7
v 0.8 0.2 0.4
v 0.8 0.3 0.4
v 0.8 0.3 0
v 0.8 0.7 0.4
v 0.8 0.7 0
v 0.8 0.8 0.4
v 0.8 0.8 0
v 0.8 0.9 0.4
v 0.8 0.9 0
v 0.8 1 0.4
v 0.8 1 0
v 0.8 1.6 0.3
v 0.8 1.6 0.1
v 0.8 1.7 0.4
v 0.8 1.7 0.3
v 0.8 1.7 0.1
v 0.8 1.7 0
v 0.4 0 0.7
v 0.4 0.2 0.7
v 0.8 0 0.7
v 0.8 0.2 0.7
v 0 1.6 0.5
v 0 1.7 0.5
v 0.1 1.6 0.5
v 0.1 1.7 0.5
v 0 1.5 0.4
v 0 1.6 0.4
v 0.1 1.4 0.4
v 0.1 1.5 0.4
v 0.1 1.6 0.4
v 0.1 1.7 0.4
v 0.2 1.3 0.4
v 0.2 1.4 0.4
v 0.3 1.2 0.4
v 0.3 1.3 0.4
v 0.4 0.2 0.4
v 0.4 0.3 0.4
v 0.4 0.7 0.4
v 0.4 0.8 0.4
v 0.4 0.9 0.4
v 0.4 1 0.4
v 0.4 1.2 0.4
v 0.8 0.2 0.4
v 0.8 0.3 0.4
v 0.8 0.7 0.4
v 0.8 0.8 0.4
v 0.8 0.9 0.4
v 0.8 1 0.4
v 0.8 1.7 0.4
v 0 1.5 0
v 0 1.7 0
v 0.1 1.4 0
v 0.1 1.5 0
v 0.2 1.3 0
v 0.2 1.4 0
v 0.3 1.2 0
v 0.3 1.3 0
v 0.4 0 0
v 0.4 0.3 0
v 0.4 0.7 0
v 0.4 0.8 0
v 0.4 0.9 0
v 0.4 1 0
v 0.4 1.2 0
v 0.8 0 0
v 0.8 0.3 0
v 0.8 0.7 0
v 0.8 0.8 0
v 0.8 0.9 0
v 0.8 1 0
v 0.8 1.7 0
v 0.4 0 0.7
v 0.8 0 0.7
v 0.5 0 0.6
v 0.7 0 0.6
v 0.5 0 0.1
v 0.7 0 0.1
v 0.4 0 0
v 0.8 0 0
v 0.3 1.2 0.4
v 0.4 1.2 0.4
v 0.3 1.2 0
v 0.4 1.2 0
v 0.2 1.3 0.4
v 0.3 1.3 0.4
v 0.2 1.3 0
v 0.3 1.3 0
v 0.1 1.4 0.4
v 0.2 1.4 0.4
v 0.1 1.4 0
v 0.2 1.4 0
v 0 1.5 0.4
v 0.1 1.5 0.4
v 0 1.5 0
v 0.1 1.5 0
v 0 1.6 0.5
v 0.1 1.6 0.5
v 0 1.6 0.4
v 0.1 1.6 0.4
v 0.4 0.2 0.7
v 0.8 0.2 0.7
v 0.4 0.2 0.4
v 0.8 0.2 0.4
v 0 1.7 0.5
v 0.1 1.7 0.5
v 0 1.7 0.4
v 0.1 1.7 0.4
v 0.8 1.7 0.4
v 0.1 1.7 0.3
v 0.8 1.7 0.3
v 0 1.7 0.1
v 0.8 1.7 0.1
v 0 1.7 0
v 0.8 1.7 0

# faces
f 4/3/1 2/3/1 1/3/1
f 5/3/1 2/3/1 4/3/1
f 6/2/1 4/2/1 3/2/1
f 7/4/1 5/4/1 4/4/1
f 7/2/1 4/2/1 6/2/1
f 8/3/1 2/3/1 5/3/1
f 8/4/1 5/4/1 7/4/1
f 9/3/1 2/3/1 8/3/1
f 12/3/1 11/3/1 10/3/1
f 13/3/1 11/3/1 12/3/1
f 16/3/1 15/3/1 14/3/1
f 17/3/1 15/3/1 16/3/1
f 20/3/1 19/3/1 18/3/1
f 21/3/1 19/3/1 20/3/1
f 24/4/1 23/4/1 22/4/1
f 25/4/1 23/4/1 24/4/1
f 26/4/1 23/4/1 25/4/1
f 27/4/1 23/4/1 26/4/1
f 28/3/1 27/3/1 26/3/1
f 29/3/1 27/3/1 28/3/1
f 30/4/1 29/4/1 28/4/1
f 31/4/1 29/4/1 30/4/1
f 32/3/1 31/3/1 30/3/1
f 33/3/1 31/3/1 32/3/1
f 34/4/1 33/4/1 32/4/1
f 35/4/1 33/4/1 34/4/1
f 36/3/1 35/3/1 34/3/1
f 37/3/1 35/3/1 36/3/1
f 38/2/2 39/2/2 40/2/2
f 40/2/2 39/2/2 41/2/2
f 42/4/2 43/4/2 44/4/2
f 44/4/2 43/4/2 45/4/2
f 45/4/2 43/4/2 46/4/2
f 46/4/2 43/4/2 47/4/2
f 46/3/2 47/3/2 48/3/2
f 48/3/2 47/3/2 49/3/2
f 48/4/2 49/4/2 50/4/2
f 50/4/2 49/4/2 51/4/2
f 50/3/2 51/3/2 52/3/2
f 52/3/2 51/3/2 53/3/2
f 52/4/2 53/4/2 54/4/2
f 54/4/2 53/4/2 55/4/2
f 54/3/2 55/3/2 56/3/2
f 56/3/2 55/3/2 57/3/2
f 54/3/2 56/3/2 58/3/2
f 56/4/2 57/4/2 59/4/2
f 58/3/2 56/3/2 59/3/2
f 57/3/2 55/3/2 60/3/2
f 59/4/2 57/4/2 60/4/2
f 60/3/2 55/3/2 61/3/2
f 64/4/3 63/4/3 62/4/3
f 65/4/3 63/4/3 64/4/3
f 68/2/3 67/2/3 66/2/3
f 69/2/3 67/2/3 68/2/3
f 73/3/3 71/3/3 70/3/3
f 74/3/3 71/3/3 73/3/3
f 77/3/3 73/3/3 72/3/3
f 77/3/3 75/3/3 74/3/3
f 77/3/3 74/3/3 73/3/3
f 79/3/3 77/3/3 76/3/3
f 86/3/3 79/3/3 78/3/3
f 87/4/3 81/4/3 80/4/3
f 88/3/3 82/3/3 81/3/3
f 88/4/3 81/4/3 87/4/3
f 89/4/3 83/4/3 82/4/3
f 89/3/3 82/3/3 88/3/3
f 90/3/3 84/3/3 83/3/3
f 90/4/3 83/4/3 89/4/3
f 91/4/3 85/4/3 84/4/3
f 91/3/3 84/3/3 90/3/3
f 92/3/3 86/3/3 85/3/3
f 92/4/3 85/4/3 91/4/3
f 93/3/3 75/3/3 77/3/3
f 93/3/3 86/3/3 92/3/3
f 93/3/3 77/3/3 79/3/3
f 93/3/3 79/3/3 86/3/3
f 94/3/4 95/3/4 97/3/4
f 96/3/4 97/3/4 99/3/4
f 98/3/4 99/3/4 101/3/4
f 100/3/4 101/3/4 108/3/4
f 102/4/4 103/4/4 109/4/4
f 103/3/4 104/3/4 110/3/4
f 109/4/4 103/4/4 110/4/4
f 104/4/4 105/4/4 111/4/4
f 110/3/4 104/3/4 111/3/4
f 105/3/4 106/3/4 112/3/4
f 111/4/4 105/4/4 112/4/4
f 106/4/4 107/4/4 113/4/4
f 112/3/4 106/3/4 113/3/4
f 107/3/4 108/3/4 114/3/4
f 113/4/4 107/4/4 114/4/4
f 97/3/4 95/3/4 115/3/4
f 114/3/4 108/3/4 115/3/4
f 99/3/4 97/3/4 115/3/4
f 108/3/4 101/3/4 115/3/4
f 101/3/4 99/3/4 115/3/4
f 118/4/5 117/4/5 116/4/5
f 119/4/5 117/4/5 118/4/5
f 120/4/5 118/4/5 116/4/5
f 120/1/5 119/1/5 118/1/5
f 121/4/5 117/4/5 119/4/5
f 121/1/5 119/1/5 120/1/5
f 122/4/5 120/4/5 116/4/5
f 122/4/5 121/4/5 120/4/5
f 123/4/5 117/4/5 121/4/5
f 123/4/5 121/4/5 122/4/5
f 126/3/5 125/3/5 124/3/5
f 127/3/5 125/3/5 126/3/5
f 130/3/5 129/3/5 128/3/5
f 131/3/5 129/3/5 130/3/5
f 134/3/5 133/3/5 132/3/5
f 135/3/5 133/3/5 134/3/5
f 138/3/5 137/3/5 136/3/5
f 139/3/5 137/3/5 138/3/5
f 142/2/5 141/2/5 140/2/5
f 143/2/5 141/2/5 142/2/5
f 144/4/6 145/4/6 146/4/6
f 146/4/6 145/4/6 147/4/6
f 148/2/6 149/2/6 150/2/6
f 150/2/6 149/2/6 151/2/6
f 150/4/6 151/4/6 153/4/6
f 151/3/6 152/3/6 153/3/6
f 153/3/6 152/3/6 154/3/6
f 150/4/6 153/4/6 155/4/6
f 153/4/6 154/4/6 155/4/6
f 155/4/6 154/4/6 156/4/6
f 155/3/6 156/3/6 157/3/6
f 157/3/6 156/3/6 158/3/6
