# MagicaVoxel @ Ephtracy

# group
o 

# material
mtllib civil1-4.mtl
usemtl palette

# normals
vn -1 0 0
vn 1 0 0
vn 0 0 1
vn 0 0 -1
vn 0 -1 0
vn 0 1 0

# texcoords
vt 0.373047 0.5
vt 0.955078 0.5
vt 0.982422 0.5

# verts
v -0.5 3.6 0.5
v -0.5 3.6 -0.2
v -0.5 3.9 0.8
v -0.5 3.9 0.5
v -0.5 4 0.8
v -0.5 4 -0.2
v -0.4 3.4 0.5
v -0.4 3.4 -0.1
v -0.4 3.6 0.5
v -0.4 3.6 -0.1
v -0.4 4 0.5
v -0.4 4 -0.1
v -0.4 4.1 0.5
v -0.4 4.1 -0.1
v -0.3 3.3 0.4
v -0.3 3.3 0
v -0.3 3.4 0.4
v -0.3 3.4 0
v 0.3 3.3 0.4
v 0.3 3.3 0
v 0.3 3.4 0.4
v 0.3 3.4 0
v 0.4 3.4 0.5
v 0.4 3.4 -0.1
v 0.4 3.6 0.5
v 0.4 3.6 -0.1
v 0.4 4 0.5
v 0.4 4 -0.1
v 0.4 4.1 0.5
v 0.4 4.1 -0.1
v 0.5 3.6 0.5
v 0.5 3.6 -0.2
v 0.5 3.9 0.8
v 0.5 3.9 0.5
v 0.5 4 0.8
v 0.5 4 -0.2
v -0.5 3.9 0.8
v -0.5 4 0.8
v 0.5 3.9 0.8
v 0.5 4 0.8
v -0.5 3.6 0.5
v -0.5 3.9 0.5
v -0.4 3.4 0.5
v -0.4 3.6 0.5
v -0.4 3.9 0.5
v -0.4 4 0.5
v -0.4 4.1 0.5
v 0.4 3.4 0.5
v 0.4 3.6 0.5
v 0.4 3.9 0.5
v 0.4 4 0.5
v 0.4 4.1 0.5
v 0.5 3.6 0.5
v 0.5 3.9 0.5
v -0.3 3.3 0.4
v -0.3 3.4 0.4
v 0.3 3.3 0.4
v 0.3 3.4 0.4
v -0.3 3.3 0
v -0.3 3.4 0
v 0.3 3.3 0
v 0.3 3.4 0
v -0.4 3.4 -0.1
v -0.4 3.6 -0.1
v -0.4 4 -0.1
v -0.4 4.1 -0.1
v 0.4 3.4 -0.1
v 0.4 3.6 -0.1
v 0.4 4 -0.1
v 0.4 4.1 -0.1
v -0.5 3.6 -0.2
v -0.5 4 -0.2
v 0.5 3.6 -0.2
v 0.5 4 -0.2
v -0.3 3.3 0.4
v 0.3 3.3 0.4
v -0.3 3.3 0
v 0.3 3.3 0
v -0.4 3.4 0.5
v 0.4 3.4 0.5
v -0.3 3.4 0.4
v 0.3 3.4 0.4
v -0.3 3.4 0
v 0.3 3.4 0
v -0.4 3.4 -0.1
v 0.4 3.4 -0.1
v -0.5 3.6 0.5
v -0.4 3.6 0.5
v 0.4 3.6 0.5
v 0.5 3.6 0.5
v -0.4 3.6 -0.1
v 0.4 3.6 -0.1
v -0.5 3.6 -0.2
v 0.5 3.6 -0.2
v -0.5 3.9 0.8
v 0.5 3.9 0.8
v -0.5 3.9 0.5
v -0.4 3.9 0.5
v 0.4 3.9 0.5
v 0.5 3.9 0.5
v -0.5 4 0.8
v 0.5 4 0.8
v -0.4 4 0.5
v 0.4 4 0.5
v -0.4 4 -0.1
v 0.4 4 -0.1
v -0.5 4 -0.2
v 0.5 4 -0.2
v -0.4 4.1 0.5
v 0.4 4.1 0.5
v -0.4 4.1 -0.1
v 0.4 4.1 -0.1

# faces
f 4/3/1 2/3/1 1/3/1
f 5/3/1 4/3/1 3/3/1
f 6/3/1 2/3/1 4/3/1
f 6/3/1 4/3/1 5/3/1
f 9/1/1 8/1/1 7/1/1
f 10/1/1 8/1/1 9/1/1
f 13/3/1 12/3/1 11/3/1
f 14/3/1 12/3/1 13/3/1
f 17/1/1 16/1/1 15/1/1
f 18/1/1 16/1/1 17/1/1
f 19/1/2 20/1/2 21/1/2
f 21/1/2 20/1/2 22/1/2
f 23/1/2 24/1/2 25/1/2
f 25/1/2 24/1/2 26/1/2
f 27/3/2 28/3/2 29/3/2
f 29/3/2 28/3/2 30/3/2
f 31/3/2 32/3/2 34/3/2
f 33/3/2 34/3/2 35/3/2
f 34/3/2 32/3/2 36/3/2
f 35/3/2 34/3/2 36/3/2
f 39/3/3 38/3/3 37/3/3
f 40/3/3 38/3/3 39/3/3
f 44/3/3 42/3/3 41/3/3
f 45/3/3 42/3/3 44/3/3
f 48/1/3 44/1/3 43/1/3
f 48/1/3 45/1/3 44/1/3
f 49/1/3 45/1/3 48/1/3
f 50/1/3 45/1/3 49/1/3
f 51/3/3 47/3/3 46/3/3
f 52/3/3 47/3/3 51/3/3
f 53/3/3 50/3/3 49/3/3
f 54/3/3 50/3/3 53/3/3
f 57/1/3 56/1/3 55/1/3
f 58/1/3 56/1/3 57/1/3
f 59/1/4 60/1/4 61/1/4
f 61/1/4 60/1/4 62/1/4
f 63/1/4 64/1/4 67/1/4
f 67/1/4 64/1/4 68/1/4
f 65/3/4 66/3/4 69/3/4
f 69/3/4 66/3/4 70/3/4
f 71/3/4 72/3/4 73/3/4
f 73/3/4 72/3/4 74/3/4
f 77/1/5 76/1/5 75/1/5
f 78/1/5 76/1/5 77/1/5
f 81/1/5 80/1/5 79/1/5
f 82/1/5 80/1/5 81/1/5
f 83/1/5 81/1/5 79/1/5
f 84/1/5 80/1/5 82/1/5
f 85/1/5 83/1/5 79/1/5
f 85/1/5 84/1/5 83/1/5
f 86/1/5 80/1/5 84/1/5
f 86/1/5 84/1/5 85/1/5
f 91/3/5 88/3/5 87/3/5
f 92/3/5 90/3/5 89/3/5
f 93/3/5 91/3/5 87/3/5
f 93/3/5 92/3/5 91/3/5
f 94/3/5 90/3/5 92/3/5
f 94/3/5 92/3/5 93/3/5
f 97/3/5 96/3/5 95/3/5
f 98/3/5 96/3/5 97/3/5
f 99/3/5 96/3/5 98/3/5
f 100/3/5 96/3/5 99/3/5
f 101/3/6 102/3/6 103/3/6
f 103/3/6 102/3/6 104/3/6
f 101/3/6 103/3/6 105/3/6
f 104/3/6 102/3/6 106/3/6
f 101/3/6 105/3/6 107/3/6
f 105/3/6 106/3/6 107/3/6
f 106/3/6 102/3/6 108/3/6
f 107/3/6 106/3/6 108/3/6
f 109/3/6 110/3/6 111/3/6
f 111/3/6 110/3/6 112/3/6
