# MagicaVoxel @ Ephtracy

# group
o 

# material
mtllib civil1-5.mtl
usemtl palette

# normals
vn -1 0 0
vn 1 0 0
vn 0 0 1
vn 0 0 -1
vn 0 -1 0
vn 0 1 0

# texcoords
vt 0.537109 0.5
vt 0.873047 0.5
vt 0.947266 0.5
vt 0.951172 0.5
vt 0.986328 0.5
vt 0.990234 0.5

# verts
v -0.9 1.9 0.4
v -0.9 1.9 5.96046e-08
v -0.9 1.9 -0.1
v -0.9 1.9 -0.5
v -0.9 2.3 0.4
v -0.9 2.3 5.96046e-08
v -0.9 2.3 -0.1
v -0.9 2.3 -0.5
v -0.9 3 0.6
v -0.9 3 0.5
v -0.9 3 0.4
v -0.9 3 5.96046e-08
v -0.9 3.2 0.6
v -0.9 3.2 0.5
v -0.9 3.2 0.4
v -0.9 3.2 5.96046e-08
v -0.8 1.7 0.5
v -0.8 1.7 0.4
v -0.8 1.7 5.96046e-08
v -0.8 1.7 -0.1
v -0.8 1.8 0.4
v -0.8 1.8 5.96046e-08
v -0.8 1.9 0.4
v -0.8 1.9 5.96046e-08
v -0.8 1.9 -0.1
v -0.8 2.3 0.4
v -0.8 2.3 5.96046e-08
v -0.8 2.3 -0.1
v -0.8 3 0.5
v -0.8 3 0.4
v -0.8 3 5.96046e-08
v -0.8 3.2 0.6
v -0.8 3.2 0.5
v -0.8 3.2 0.4
v -0.8 3.2 5.96046e-08
v -0.8 3.3 0.6
v -0.8 3.3 0.5
v -0.8 3.3 5.96046e-08
v -0.8 3.3 -0.1
v -0.8 3.4 0.5
v -0.8 3.4 5.96046e-08
v -0.7 2.3 -0.1
v -0.7 2.3 -0.5
v -0.7 3.2 -0.2
v -0.7 3.2 -0.5
v -0.7 3.3 5.96046e-08
v -0.7 3.3 -0.1
v -0.7 3.4 5.96046e-08
v -0.7 3.4 -0.2
v -0.6 1.8 -0.2
v -0.6 1.8 -0.6
v -0.6 1.9 -0.2
v -0.6 1.9 -0.5
v -0.6 3.1 -0.5
v -0.6 3.1 -0.6
v -0.5 1.9 -0.6
v -0.5 1.9 -0.7
v -0.5 3 -0.6
v -0.5 3 -0.7
v -0.2 3.2 -0.2
v -0.2 3.2 -0.3
v -0.2 3.3 -0.2
v -0.2 3.3 -0.3
v 0.4 3.2 -0.1
v 0.4 3.2 -0.2
v 0.4 3.3 5.96046e-08
v 0.4 3.3 -0.1
v 0.4 3.4 5.96046e-08
v 0.4 3.4 -0.2
v 0.5 3.2 0.6
v 0.5 3.2 0.5
v 0.5 3.3 0.6
v 0.5 3.3 0.5
v 0.5 3.3 5.96046e-08
v 0.5 3.4 0.5
v 0.5 3.4 5.96046e-08
v 0.6 3.1 0.6
v 0.6 3.1 0.5
v 0.6 3.2 0.6
v 0.6 3.2 0.5
v 0.7 3 0.6
v 0.7 3 0.5
v 0.7 3.1 0.6
v 0.7 3.1 0.5
v -0.8 3 0.6
v -0.8 3 0.5
v -0.8 3.1 0.6
v -0.8 3.1 0.5
v -0.7 3.1 0.6
v -0.7 3.1 0.5
v -0.7 3.2 0.6
v -0.7 3.2 0.5
v -0.6 3.2 0.6
v -0.6 3.2 0.5
v -0.6 3.3 0.6
v -0.6 3.3 0.5
v -0.6 3.3 0.1
v -0.6 3.4 0.5
v -0.6 3.4 0.1
v -0.5 3.2 -0.1
v -0.5 3.2 -0.2
v -0.5 3.3 0.1
v -0.5 3.3 -0.1
v -0.5 3.4 0.1
v -0.5 3.4 -0.2
v 0.1 3.2 -0.2
v 0.1 3.2 -0.3
v 0.1 3.3 -0.2
v 0.1 3.3 -0.3
v 0.4 1.9 -0.6
v 0.4 1.9 -0.7
v 0.4 3 -0.6
v 0.4 3 -0.7
v 0.5 1.8 -0.5
v 0.5 1.8 -0.6
v 0.5 3.1 -0.5
v 0.5 3.1 -0.6
v 0.6 1.8 -0.2
v 0.6 1.8 -0.5
v 0.6 1.9 -0.2
v 0.6 1.9 -0.5
v 0.6 2.3 -0.1
v 0.6 2.3 -0.5
v 0.6 3.2 -0.2
v 0.6 3.2 -0.5
v 0.6 3.3 -0.1
v 0.6 3.4 -0.1
v 0.6 3.4 -0.2
v 0.7 3.2 0.6
v 0.7 3.2 0.5
v 0.7 3.3 0.6
v 0.7 3.3 0.5
v 0.7 3.3 -0.1
v 0.7 3.4 0.5
v 0.7 3.4 -0.1
v 0.8 1.7 0.5
v 0.8 1.7 0.4
v 0.8 1.7 5.96046e-08
v 0.8 1.7 -0.1
v 0.8 1.8 0.4
v 0.8 1.8 5.96046e-08
v 0.8 1.9 0.4
v 0.8 1.9 5.96046e-08
v 0.8 1.9 -0.1
v 0.8 1.9 -0.5
v 0.8 2.3 5.96046e-08
v 0.8 2.3 -0.1
v 0.8 2.3 -0.5
v 0.8 3 0.6
v 0.8 3 0.5
v 0.8 3 0.4
v 0.8 3.2 0.6
v 0.8 3.2 0.5
v 0.8 3.2 0.4
v 0.8 3.2 5.96046e-08
v 0.8 3.3 0.5
v 0.8 3.3 -0.1
v -0.9 3 0.6
v -0.9 3.2 0.6
v -0.8 3 0.6
v -0.8 3.1 0.6
v -0.8 3.2 0.6
v -0.8 3.3 0.6
v -0.7 3.1 0.6
v -0.7 3.2 0.6
v -0.6 3.2 0.6
v -0.6 3.3 0.6
v 0.5 3.2 0.6
v 0.5 3.3 0.6
v 0.6 3.1 0.6
v 0.6 3.2 0.6
v 0.7 3 0.6
v 0.7 3.1 0.6
v 0.7 3.2 0.6
v 0.7 3.3 0.6
v 0.8 3 0.6
v 0.8 3.2 0.6
v -0.8 1.7 0.5
v -0.8 3 0.5
v -0.8 3.1 0.5
v -0.8 3.3 0.5
v -0.8 3.4 0.5
v -0.7 3.1 0.5
v -0.7 3.2 0.5
v -0.6 3.2 0.5
v -0.6 3.3 0.5
v -0.6 3.4 0.5
v -0.1 1.7 0.5
v -0.1 3.3 0.5
v 0 1.7 0.5
v 0 3.3 0.5
v 0.5 3.2 0.5
v 0.5 3.3 0.5
v 0.5 3.4 0.5
v 0.6 3.1 0.5
v 0.6 3.2 0.5
v 0.7 3 0.5
v 0.7 3.1 0.5
v 0.7 3.2 0.5
v 0.7 3.3 0.5
v 0.7 3.4 0.5
v 0.8 1.7 0.5
v 0.8 3 0.5
v 0.8 3.2 0.5
v 0.8 3.3 0.5
v -0.9 1.9 0.4
v -0.9 2.3 0.4
v -0.8 1.9 0.4
v -0.8 2.3 0.4
v -0.6 3.3 0.1
v -0.6 3.4 0.1
v -0.5 3.3 0.1
v -0.5 3.4 0.1
v 0.4 3.3 5.96046e-08
v 0.4 3.4 5.96046e-08
v 0.5 3.3 5.96046e-08
v 0.5 3.4 5.96046e-08
v -0.6 1.8 -0.2
v -0.6 1.9 -0.2
v -0.2 3.2 -0.2
v -0.2 3.3 -0.2
v 0.1 3.2 -0.2
v 0.1 3.3 -0.2
v 0.6 1.8 -0.2
v 0.6 1.9 -0.2
v -0.9 3 5.96046e-08
v -0.9 3.2 5.96046e-08
v -0.8 3 5.96046e-08
v -0.8 3.2 5.96046e-08
v -0.8 3.3 5.96046e-08
v -0.8 3.4 5.96046e-08
v -0.7 3.3 5.96046e-08
v -0.7 3.4 5.96046e-08
v -0.8 1.7 -0.1
v -0.8 1.9 -0.1
v -0.8 2.3 -0.1
v -0.8 3.3 -0.1
v -0.7 2.3 -0.1
v -0.7 3.3 -0.1
v -0.5 3.2 -0.1
v -0.5 3.3 -0.1
v 0.4 3.2 -0.1
v 0.4 3.3 -0.1
v 0.6 2.3 -0.1
v 0.6 3.3 -0.1
v 0.6 3.4 -0.1
v 0.7 3.3 -0.1
v 0.7 3.4 -0.1
v 0.8 1.7 -0.1
v 0.8 1.9 -0.1
v 0.8 2.3 -0.1
v 0.8 3.3 -0.1
v -0.7 3.2 -0.2
v -0.7 3.4 -0.2
v -0.5 3.2 -0.2
v -0.5 3.4 -0.2
v 0.4 3.2 -0.2
v 0.4 3.4 -0.2
v 0.6 3.2 -0.2
v 0.6 3.4 -0.2
v -0.2 3.2 -0.3
v -0.2 3.3 -0.3
v 0.1 3.2 -0.3
v 0.1 3.3 -0.3
v -0.9 1.9 -0.5
v -0.9 2.3 -0.5
v -0.7 2.3 -0.5
v -0.7 3.2 -0.5
v -0.6 1.9 -0.5
v -0.6 3.1 -0.5
v 0.5 1.8 -0.5
v 0.5 3.1 -0.5
v 0.6 1.8 -0.5
v 0.6 1.9 -0.5
v 0.6 2.3 -0.5
v 0.6 3.2 -0.5
v 0.8 1.9 -0.5
v 0.8 2.3 -0.5
v -0.6 1.8 -0.6
v -0.6 3.1 -0.6
v -0.5 1.9 -0.6
v -0.5 3 -0.6
v 0.4 1.9 -0.6
v 0.4 3 -0.6
v 0.5 1.8 -0.6
v 0.5 3.1 -0.6
v -0.5 1.9 -0.7
v -0.5 3 -0.7
v 0.4 1.9 -0.7
v 0.4 3 -0.7
v -0.8 1.7 0.5
v -0.1 1.7 0.5
v 0 1.7 0.5
v 0.8 1.7 0.5
v -0.8 1.7 0.4
v -0.1 1.7 0.4
v 0 1.7 0.4
v 0.8 1.7 0.4
v -0.8 1.7 5.96046e-08
v 0.8 1.7 5.96046e-08
v -0.8 1.7 -0.1
v 0.8 1.7 -0.1
v -0.6 1.8 -0.2
v 0.6 1.8 -0.2
v 0.5 1.8 -0.5
v 0.6 1.8 -0.5
v -0.6 1.8 -0.6
v 0.5 1.8 -0.6
v -0.9 1.9 0.4
v -0.8 1.9 0.4
v -0.9 1.9 5.96046e-08
v -0.8 1.9 5.96046e-08
v -0.9 1.9 -0.1
v -0.8 1.9 -0.1
v 0.8 1.9 -0.1
v -0.6 1.9 -0.2
v 0.6 1.9 -0.2
v -0.9 1.9 -0.5
v -0.6 1.9 -0.5
v 0.6 1.9 -0.5
v 0.8 1.9 -0.5
v -0.5 1.9 -0.6
v 0.4 1.9 -0.6
v -0.5 1.9 -0.7
v 0.4 1.9 -0.7
v -0.9 3 0.6
v -0.8 3 0.6
v 0.7 3 0.6
v 0.8 3 0.6
v -0.9 3 0.5
v -0.8 3 0.5
v 0.7 3 0.5
v 0.8 3 0.5
v -0.9 3 0.4
v -0.8 3 0.4
v -0.9 3 5.96046e-08
v -0.8 3 5.96046e-08
v -0.8 3.1 0.6
v -0.7 3.1 0.6
v 0.6 3.1 0.6
v 0.7 3.1 0.6
v -0.8 3.1 0.5
v -0.7 3.1 0.5
v 0.6 3.1 0.5
v 0.7 3.1 0.5
v -0.7 3.2 0.6
v -0.6 3.2 0.6
v 0.5 3.2 0.6
v 0.6 3.2 0.6
v -0.7 3.2 0.5
v -0.6 3.2 0.5
v 0.5 3.2 0.5
v 0.6 3.2 0.5
v -0.9 2.3 0.4
v -0.8 2.3 0.4
v -0.9 2.3 5.96046e-08
v -0.8 2.3 5.96046e-08
v -0.9 2.3 -0.1
v -0.8 2.3 -0.1
v -0.7 2.3 -0.1
v 0.6 2.3 -0.1
v 0.8 2.3 -0.1
v -0.9 2.3 -0.5
v -0.7 2.3 -0.5
v 0.6 2.3 -0.5
v 0.8 2.3 -0.5
v -0.5 3 -0.6
v 0.4 3 -0.6
v -0.5 3 -0.7
v 0.4 3 -0.7
v -0.6 3.1 -0.5
v 0.5 3.1 -0.5
v -0.6 3.1 -0.6
v 0.5 3.1 -0.6
v -0.9 3.2 0.6
v -0.8 3.2 0.6
v 0.7 3.2 0.6
v 0.8 3.2 0.6
v -0.9 3.2 0.5
v -0.8 3.2 0.5
v 0.7 3.2 0.5
v 0.8 3.2 0.5
v -0.9 3.2 0.4
v -0.8 3.2 0.4
v -0.9 3.2 5.96046e-08
v -0.8 3.2 5.96046e-08
v -0.5 3.2 -0.1
v 0.4 3.2 -0.1
v -0.7 3.2 -0.2
v -0.5 3.2 -0.2
v -0.2 3.2 -0.2
v 0.1 3.2 -0.2
v 0.4 3.2 -0.2
v 0.6 3.2 -0.2
v -0.2 3.2 -0.3
v 0.1 3.2 -0.3
v -0.7 3.2 -0.5
v 0.6 3.2 -0.5
v -0.8 3.3 0.6
v -0.6 3.3 0.6
v 0.5 3.3 0.6
v 0.7 3.3 0.6
v -0.8 3.3 0.5
v -0.6 3.3 0.5
v -0.1 3.3 0.5
v 0 3.3 0.5
v 0.5 3.3 0.5
v 0.7 3.3 0.5
v 0.8 3.3 0.5
v -0.3 3.3 0.4
v -0.1 3.3 0.4
v 0 3.3 0.4
v 0.3 3.3 0.4
v -0.6 3.3 0.1
v -0.5 3.3 0.1
v -0.8 3.3 5.96046e-08
v -0.7 3.3 5.96046e-08
v -0.3 3.3 5.96046e-08
v 0.3 3.3 5.96046e-08
v 0.4 3.3 5.96046e-08
v 0.5 3.3 5.96046e-08
v -0.8 3.3 -0.1
v -0.7 3.3 -0.1
v -0.5 3.3 -0.1
v 0.4 3.3 -0.1
v 0.7 3.3 -0.1
v 0.8 3.3 -0.1
v -0.2 3.3 -0.2
v 0.1 3.3 -0.2
v -0.2 3.3 -0.3
v 0.1 3.3 -0.3
v -0.8 3.4 0.5
v -0.6 3.4 0.5
v 0.5 3.4 0.5
v 0.7 3.4 0.5
v -0.6 3.4 0.1
v -0.5 3.4 0.1
v -0.8 3.4 5.96046e-08
v -0.7 3.4 5.96046e-08
v 0.4 3.4 5.96046e-08
v 0.5 3.4 5.96046e-08
v 0.6 3.4 -0.1
v 0.7 3.4 -0.1
v -0.7 3.4 -0.2
v -0.5 3.4 -0.2
v 0.4 3.4 -0.2
v 0.6 3.4 -0.2

# faces
f 5/3/1 2/3/1 1/3/1
f 6/2/1 3/2/1 2/2/1
f 6/3/1 2/3/1 5/3/1
f 7/1/1 4/1/1 3/1/1
f 7/2/1 3/2/1 6/2/1
f 8/1/1 4/1/1 7/1/1
f 13/1/1 10/1/1 9/1/1
f 14/2/1 11/2/1 10/2/1
f 14/1/1 10/1/1 13/1/1
f 15/3/1 12/3/1 11/3/1
f 15/2/1 11/2/1 14/2/1
f 16/3/1 12/3/1 15/3/1
f 21/6/1 18/6/1 17/6/1
f 21/1/1 19/1/1 18/1/1
f 22/6/1 20/6/1 19/6/1
f 22/1/1 19/1/1 21/1/1
f 23/6/1 21/6/1 17/6/1
f 23/6/1 22/6/1 21/6/1
f 24/6/1 20/6/1 22/6/1
f 24/6/1 22/6/1 23/6/1
f 25/6/1 20/6/1 24/6/1
f 26/6/1 23/6/1 17/6/1
f 29/6/1 26/6/1 17/6/1
f 30/4/1 27/4/1 26/4/1
f 30/6/1 26/6/1 29/6/1
f 31/6/1 28/6/1 27/6/1
f 31/4/1 27/4/1 30/4/1
f 35/6/1 28/6/1 31/6/1
f 36/1/1 33/1/1 32/1/1
f 37/2/1 34/2/1 33/2/1
f 37/1/1 33/1/1 36/1/1
f 37/2/1 35/2/1 34/2/1
f 38/6/1 28/6/1 35/6/1
f 38/2/1 35/2/1 37/2/1
f 39/6/1 28/6/1 38/6/1
f 40/1/1 38/1/1 37/1/1
f 41/1/1 38/1/1 40/1/1
f 44/1/1 43/1/1 42/1/1
f 45/1/1 43/1/1 44/1/1
f 47/1/1 44/1/1 42/1/1
f 48/1/1 47/1/1 46/1/1
f 49/1/1 44/1/1 47/1/1
f 49/1/1 47/1/1 48/1/1
f 52/1/1 51/1/1 50/1/1
f 53/1/1 51/1/1 52/1/1
f 54/1/1 51/1/1 53/1/1
f 55/1/1 51/1/1 54/1/1
f 58/1/1 57/1/1 56/1/1
f 59/1/1 57/1/1 58/1/1
f 62/1/1 61/1/1 60/1/1
f 63/1/1 61/1/1 62/1/1
f 67/1/1 65/1/1 64/1/1
f 68/1/1 67/1/1 66/1/1
f 69/1/1 65/1/1 67/1/1
f 69/1/1 67/1/1 68/1/1
f 72/1/1 71/1/1 70/1/1
f 73/1/1 71/1/1 72/1/1
f 75/1/1 74/1/1 73/1/1
f 76/1/1 74/1/1 75/1/1
f 79/1/1 78/1/1 77/1/1
f 80/1/1 78/1/1 79/1/1
f 83/1/1 82/1/1 81/1/1
f 84/1/1 82/1/1 83/1/1
f 85/1/2 86/1/2 87/1/2
f 87/1/2 86/1/2 88/1/2
f 89/1/2 90/1/2 91/1/2
f 91/1/2 90/1/2 92/1/2
f 93/1/2 94/1/2 95/1/2
f 95/1/2 94/1/2 96/1/2
f 96/1/2 97/1/2 98/1/2
f 98/1/2 97/1/2 99/1/2
f 100/1/2 101/1/2 103/1/2
f 102/1/2 103/1/2 104/1/2
f 103/1/2 101/1/2 105/1/2
f 104/1/2 103/1/2 105/1/2
f 106/1/2 107/1/2 108/1/2
f 108/1/2 107/1/2 109/1/2
f 110/1/2 111/1/2 112/1/2
f 112/1/2 111/1/2 113/1/2
f 114/1/2 115/1/2 116/1/2
f 116/1/2 115/1/2 117/1/2
f 118/1/2 119/1/2 120/1/2
f 120/1/2 119/1/2 121/1/2
f 122/1/2 123/1/2 124/1/2
f 124/1/2 123/1/2 125/1/2
f 122/1/2 124/1/2 126/1/2
f 126/1/2 124/1/2 127/1/2
f 127/1/2 124/1/2 128/1/2
f 129/1/2 130/1/2 131/1/2
f 131/1/2 130/1/2 132/1/2
f 132/1/2 133/1/2 134/1/2
f 134/1/2 133/1/2 135/1/2
f 136/6/2 137/6/2 140/6/2
f 137/1/2 138/1/2 140/1/2
f 138/6/2 139/6/2 141/6/2
f 140/1/2 138/1/2 141/1/2
f 136/6/2 140/6/2 142/6/2
f 140/6/2 141/6/2 142/6/2
f 141/6/2 139/6/2 143/6/2
f 142/6/2 141/6/2 143/6/2
f 143/6/2 139/6/2 144/6/2
f 142/4/2 143/4/2 146/4/2
f 143/2/2 144/2/2 146/2/2
f 144/1/2 145/1/2 147/1/2
f 146/2/2 144/2/2 147/2/2
f 147/1/2 145/1/2 148/1/2
f 136/6/2 142/6/2 150/6/2
f 142/4/2 146/4/2 151/4/2
f 150/6/2 142/6/2 151/6/2
f 149/1/2 150/1/2 152/1/2
f 150/2/2 151/2/2 153/2/2
f 152/1/2 150/1/2 153/1/2
f 151/4/2 146/4/2 154/4/2
f 153/2/2 151/2/2 154/2/2
f 146/6/2 147/6/2 155/6/2
f 154/4/2 146/4/2 155/4/2
f 153/6/2 154/6/2 156/6/2
f 154/6/2 155/6/2 156/6/2
f 155/6/2 147/6/2 157/6/2
f 156/6/2 155/6/2 157/6/2
f 160/1/3 159/1/3 158/1/3
f 161/1/3 159/1/3 160/1/3
f 162/1/3 159/1/3 161/1/3
f 164/1/3 163/1/3 162/1/3
f 164/1/3 162/1/3 161/1/3
f 165/1/3 163/1/3 164/1/3
f 166/1/3 163/1/3 165/1/3
f 167/1/3 163/1/3 166/1/3
f 171/1/3 169/1/3 168/1/3
f 173/1/3 171/1/3 170/1/3
f 174/1/3 169/1/3 171/1/3
f 174/1/3 171/1/3 173/1/3
f 175/1/3 169/1/3 174/1/3
f 176/1/3 173/1/3 172/1/3
f 176/1/3 174/1/3 173/1/3
f 177/1/3 174/1/3 176/1/3
f 183/6/3 179/6/3 178/6/3
f 183/6/3 180/6/3 179/6/3
f 185/6/3 184/6/3 183/6/3
f 186/1/3 182/1/3 181/1/3
f 187/1/3 182/1/3 186/1/3
f 188/6/3 185/6/3 183/6/3
f 188/6/3 183/6/3 178/6/3
f 188/6/3 186/6/3 185/6/3
f 189/6/3 186/6/3 188/6/3
f 190/5/3 189/5/3 188/5/3
f 191/5/3 189/5/3 190/5/3
f 192/6/3 191/6/3 190/6/3
f 193/6/3 191/6/3 192/6/3
f 195/6/3 192/6/3 190/6/3
f 196/6/3 192/6/3 195/6/3
f 197/6/3 195/6/3 190/6/3
f 198/6/3 195/6/3 197/6/3
f 200/1/3 194/1/3 193/1/3
f 201/1/3 194/1/3 200/1/3
f 202/6/3 197/6/3 190/6/3
f 203/6/3 197/6/3 202/6/3
f 204/6/3 200/6/3 199/6/3
f 205/6/3 200/6/3 204/6/3
f 208/3/3 207/3/3 206/3/3
f 209/3/3 207/3/3 208/3/3
f 212/1/3 211/1/3 210/1/3
f 213/1/3 211/1/3 212/1/3
f 216/1/3 215/1/3 214/1/3
f 217/1/3 215/1/3 216/1/3
f 222/1/3 221/1/3 220/1/3
f 223/1/3 221/1/3 222/1/3
f 224/1/3 219/1/3 218/1/3
f 225/1/3 219/1/3 224/1/3
f 226/3/4 227/3/4 228/3/4
f 228/3/4 227/3/4 229/3/4
f 230/1/4 231/1/4 232/1/4
f 232/1/4 231/1/4 233/1/4
f 236/6/4 237/6/4 238/6/4
f 238/6/4 237/6/4 239/6/4
f 240/6/4 241/6/4 242/6/4
f 242/6/4 241/6/4 243/6/4
f 244/6/4 245/6/4 247/6/4
f 245/1/4 246/1/4 247/1/4
f 247/1/4 246/1/4 248/1/4
f 234/6/4 235/6/4 249/6/4
f 249/6/4 235/6/4 250/6/4
f 244/6/4 247/6/4 251/6/4
f 251/6/4 247/6/4 252/6/4
f 253/1/4 254/1/4 255/1/4
f 255/1/4 254/1/4 256/1/4
f 257/1/4 258/1/4 259/1/4
f 259/1/4 258/1/4 260/1/4
f 261/1/4 262/1/4 263/1/4
f 263/1/4 262/1/4 264/1/4
f 265/1/4 266/1/4 267/1/4
f 265/1/4 267/1/4 269/1/4
f 267/1/4 268/1/4 269/1/4
f 269/1/4 268/1/4 270/1/4
f 270/1/4 268/1/4 272/1/4
f 271/1/4 272/1/4 273/1/4
f 273/1/4 272/1/4 274/1/4
f 274/1/4 272/1/4 275/1/4
f 272/1/4 268/1/4 276/1/4
f 275/1/4 272/1/4 276/1/4
f 274/1/4 275/1/4 277/1/4
f 277/1/4 275/1/4 278/1/4
f 279/1/4 280/1/4 281/1/4
f 281/1/4 280/1/4 282/1/4
f 279/1/4 281/1/4 283/1/4
f 282/1/4 280/1/4 284/1/4
f 279/1/4 283/1/4 285/1/4
f 283/1/4 284/1/4 285/1/4
f 284/1/4 280/1/4 286/1/4
f 285/1/4 284/1/4 286/1/4
f 287/1/4 288/1/4 289/1/4
f 289/1/4 288/1/4 290/1/4
f 295/6/5 292/6/5 291/6/5
f 296/5/5 293/5/5 292/5/5
f 296/6/5 292/6/5 295/6/5
f 297/6/5 294/6/5 293/6/5
f 297/5/5 293/5/5 296/5/5
f 298/6/5 294/6/5 297/6/5
f 299/1/5 296/1/5 295/1/5
f 299/1/5 297/1/5 296/1/5
f 299/1/5 298/1/5 297/1/5
f 300/1/5 298/1/5 299/1/5
f 301/6/5 300/6/5 299/6/5
f 302/6/5 300/6/5 301/6/5
f 305/1/5 304/1/5 303/1/5
f 306/1/5 304/1/5 305/1/5
f 307/1/5 305/1/5 303/1/5
f 308/1/5 305/1/5 307/1/5
f 311/3/5 310/3/5 309/3/5
f 312/3/5 310/3/5 311/3/5
f 313/2/5 312/2/5 311/2/5
f 314/2/5 312/2/5 313/2/5
f 316/1/5 314/1/5 313/1/5
f 316/1/5 315/1/5 314/1/5
f 317/1/5 315/1/5 316/1/5
f 318/1/5 316/1/5 313/1/5
f 319/1/5 316/1/5 318/1/5
f 320/1/5 315/1/5 317/1/5
f 321/1/5 315/1/5 320/1/5
f 324/1/5 323/1/5 322/1/5
f 325/1/5 323/1/5 324/1/5
f 330/1/5 327/1/5 326/1/5
f 331/1/5 327/1/5 330/1/5
f 332/1/5 329/1/5 328/1/5
f 333/1/5 329/1/5 332/1/5
f 334/2/5 331/2/5 330/2/5
f 335/2/5 331/2/5 334/2/5
f 336/3/5 335/3/5 334/3/5
f 337/3/5 335/3/5 336/3/5
f 342/1/5 339/1/5 338/1/5
f 343/1/5 339/1/5 342/1/5
f 344/1/5 341/1/5 340/1/5
f 345/1/5 341/1/5 344/1/5
f 350/1/5 347/1/5 346/1/5
f 351/1/5 347/1/5 350/1/5
f 352/1/5 349/1/5 348/1/5
f 353/1/5 349/1/5 352/1/5
f 354/3/6 355/3/6 356/3/6
f 356/3/6 355/3/6 357/3/6
f 356/2/6 357/2/6 358/2/6
f 358/2/6 357/2/6 359/2/6
f 358/1/6 359/1/6 363/1/6
f 359/1/6 360/1/6 363/1/6
f 363/1/6 360/1/6 364/1/6
f 361/1/6 362/1/6 365/1/6
f 365/1/6 362/1/6 366/1/6
f 367/1/6 368/1/6 369/1/6
f 369/1/6 368/1/6 370/1/6
f 371/1/6 372/1/6 373/1/6
f 373/1/6 372/1/6 374/1/6
f 375/1/6 376/1/6 379/1/6
f 379/1/6 376/1/6 380/1/6
f 377/1/6 378/1/6 381/1/6
f 381/1/6 378/1/6 382/1/6
f 379/2/6 380/2/6 383/2/6
f 383/2/6 380/2/6 384/2/6
f 383/3/6 384/3/6 385/3/6
f 385/3/6 384/3/6 386/3/6
f 387/1/6 388/1/6 390/1/6
f 390/1/6 388/1/6 391/1/6
f 391/1/6 388/1/6 392/1/6
f 392/1/6 388/1/6 393/1/6
f 389/1/6 390/1/6 395/1/6
f 390/1/6 391/1/6 395/1/6
f 393/1/6 394/1/6 396/1/6
f 392/1/6 393/1/6 396/1/6
f 389/1/6 395/1/6 397/1/6
f 395/1/6 396/1/6 397/1/6
f 396/1/6 394/1/6 398/1/6
f 397/1/6 396/1/6 398/1/6
f 399/1/6 400/1/6 403/1/6
f 403/1/6 400/1/6 404/1/6
f 401/1/6 402/1/6 407/1/6
f 407/1/6 402/1/6 408/1/6
f 404/6/6 405/6/6 410/6/6
f 405/5/6 406/5/6 411/5/6
f 410/6/6 405/6/6 411/6/6
f 406/6/6 407/6/6 412/6/6
f 411/5/6 406/5/6 412/5/6
f 412/6/6 407/6/6 413/6/6
f 404/6/6 410/6/6 414/6/6
f 414/6/6 410/6/6 415/6/6
f 410/4/6 411/4/6 418/4/6
f 411/4/6 412/4/6 418/4/6
f 415/6/6 410/6/6 418/6/6
f 412/4/6 413/4/6 418/4/6
f 413/6/6 407/6/6 419/6/6
f 418/4/6 413/4/6 419/4/6
f 419/6/6 407/6/6 420/6/6
f 420/6/6 407/6/6 421/6/6
f 416/6/6 417/6/6 422/6/6
f 422/6/6 417/6/6 423/6/6
f 415/6/6 418/6/6 424/6/6
f 418/6/6 419/6/6 424/6/6
f 419/6/6 420/6/6 424/6/6
f 424/6/6 420/6/6 425/6/6
f 408/6/6 409/6/6 426/6/6
f 426/6/6 409/6/6 427/6/6
f 428/1/6 429/1/6 430/1/6
f 430/1/6 429/1/6 431/1/6
f 432/1/6 433/1/6 436/1/6
f 432/1/6 436/1/6 438/1/6
f 436/1/6 437/1/6 438/1/6
f 438/1/6 437/1/6 439/1/6
f 434/1/6 435/1/6 441/1/6
f 440/1/6 441/1/6 442/1/6
f 441/1/6 435/1/6 442/1/6
f 442/1/6 435/1/6 443/1/6
f 439/1/6 437/1/6 444/1/6
f 444/1/6 437/1/6 445/1/6
f 440/1/6 442/1/6 446/1/6
f 446/1/6 442/1/6 447/1/6
