# MagicaVoxel @ Ephtracy

# group
o 

# material
mtllib civil1-3.mtl
usemtl palette

# normals
vn -1 0 0
vn 1 0 0
vn 0 0 1
vn 0 0 -1
vn 0 -1 0
vn 0 1 0

# texcoords
vt 0.947266 0.5
vt 0.978516 0.5
vt 0.986328 0.5
vt 0.990234 0.5

# verts
v -1.2 1.6 0.5
v -1.2 1.6 -0.1
v -1.2 1.8 0.5
v -1.2 1.8 -0.1
v -1.2 1.9 0.4
v -1.2 1.9 0
v -1.2 2.8 0.4
v -1.2 2.8 0
v -1.2 2.9 0.4
v -1.2 2.9 0
v -1.2 3 0.4
v -1.2 3 0
v -1.2 3.1 0.5
v -1.2 3.1 0.4
v -1.2 3.1 0
v -1.2 3.1 -0.1
v -1.2 3.2 0.4
v -1.2 3.2 0
v -1.1 3.1 0.5
v -1.1 3.1 0.4
v -1.1 3.1 0
v -1.1 3.1 -0.1
v -1.1 3.2 0.5
v -1.1 3.2 0.4
v -1.1 3.2 0
v -1.1 3.2 -0.1
v -1.1 3.3 0.4
v -1.1 3.3 0
v -1 3.2 0.5
v -1 3.2 0.4
v -1 3.2 0
v -1 3.2 -0.1
v -1 3.3 0.5
v -1 3.3 0.4
v -1 3.3 0
v -1 3.3 -0.1
v -0.9 1.9 0.4
v -0.9 1.9 0
v -0.9 1.9 -0.1
v -0.9 2.3 0.4
v -0.9 2.3 0
v -0.9 2.3 -0.1
v -0.9 3 0.5
v -0.9 3 0.4
v -0.9 3 0
v -0.9 3.2 0.5
v -0.9 3.2 0.4
v -0.9 3.2 0
v -0.8 1.6 0.5
v -0.8 1.6 -0.1
v -0.8 1.8 0.5
v -0.8 1.8 0.4
v -0.8 1.9 0.4
v -0.8 1.9 -0.1
v -0.8 2.3 0.4
v -0.8 2.3 0
v -0.8 2.3 -0.1
v -0.8 3 0.5
v -0.8 3 0.4
v -0.8 3 0
v -0.8 3.2 0.5
v -0.8 3.2 0.4
v -0.8 3.2 0
v -0.8 3.3 0.5
v -0.8 3.3 0.4
v -0.8 3.3 0
v -0.8 3.3 -0.1
v -1.2 1.6 0.5
v -1.2 1.8 0.5
v -1.2 3.1 0.5
v -1.1 3.1 0.5
v -1.1 3.2 0.5
v -1 3.2 0.5
v -1 3.3 0.5
v -0.9 3 0.5
v -0.9 3.2 0.5
v -0.8 1.6 0.5
v -0.8 1.8 0.5
v -0.8 3 0.5
v -0.8 3.2 0.5
v -0.8 3.3 0.5
v -1.2 3.1 0.4
v -1.2 3.2 0.4
v -1.1 3.1 0.4
v -1.1 3.2 0.4
v -1.1 3.3 0.4
v -1 3.2 0.4
v -1 3.3 0.4
v -0.9 3 0
v -0.9 3.2 0
v -0.8 3 0
v -0.8 3.2 0
v -0.9 1.9 0.4
v -0.9 2.3 0.4
v -0.8 1.9 0.4
v -0.8 2.3 0.4
v -1.2 3.1 0
v -1.2 3.2 0
v -1.1 3.1 0
v -1.1 3.2 0
v -1.1 3.3 0
v -1 3.2 0
v -1 3.3 0
v -1.2 1.6 -0.1
v -1.2 1.8 -0.1
v -1.2 3.1 -0.1
v -1.1 1.8 -0.1
v -1.1 1.9 -0.1
v -1.1 3.1 -0.1
v -1.1 3.2 -0.1
v -1 3.2 -0.1
v -1 3.3 -0.1
v -0.9 1.9 -0.1
v -0.9 2.3 -0.1
v -0.8 1.6 -0.1
v -0.8 1.9 -0.1
v -0.8 2.3 -0.1
v -0.8 3.3 -0.1
v -1.2 1.6 0.5
v -0.8 1.6 0.5
v -1.2 1.6 -0.1
v -0.8 1.6 -0.1
v -0.9 2.3 0.4
v -0.8 2.3 0.4
v -0.9 2.3 0
v -0.8 2.3 0
v -0.9 2.3 -0.1
v -0.8 2.3 -0.1
v -0.9 3.2 0.5
v -0.8 3.2 0.5
v -0.9 3.2 0.4
v -0.8 3.2 0.4
v -0.9 3.2 0
v -0.8 3.2 0
v -0.9 1.9 0.4
v -0.8 1.9 0.4
v -0.9 1.9 0
v -0.9 1.9 -0.1
v -0.8 1.9 -0.1
v -0.9 3 0.5
v -0.8 3 0.5
v -0.9 3 0.4
v -0.8 3 0.4
v -0.9 3 0
v -0.8 3 0
v -1.2 3.1 0.5
v -1.1 3.1 0.5
v -1.2 3.1 0.4
v -1.1 3.1 0.4
v -1.2 3.1 0
v -1.1 3.1 0
v -1.2 3.1 -0.1
v -1.1 3.1 -0.1
v -1.1 3.2 0.5
v -1 3.2 0.5
v -1.2 3.2 0.4
v -1.1 3.2 0.4
v -1 3.2 0.4
v -1.2 3.2 0
v -1.1 3.2 0
v -1 3.2 0
v -1.1 3.2 -0.1
v -1 3.2 -0.1
v -1 3.3 0.5
v -0.8 3.3 0.5
v -1.1 3.3 0.4
v -1 3.3 0.4
v -0.8 3.3 0.4
v -1.1 3.3 0
v -1 3.3 0
v -0.8 3.3 0
v -1 3.3 -0.1
v -0.8 3.3 -0.1

# faces
f 3/3/1 2/3/1 1/3/1
f 4/3/1 2/3/1 3/3/1
f 5/4/1 4/4/1 3/4/1
f 6/4/1 4/4/1 5/4/1
f 7/4/1 5/4/1 3/4/1
f 7/3/1 6/3/1 5/3/1
f 8/4/1 4/4/1 6/4/1
f 8/3/1 6/3/1 7/3/1
f 9/4/1 7/4/1 3/4/1
f 9/2/1 8/2/1 7/2/1
f 10/4/1 4/4/1 8/4/1
f 10/2/1 8/2/1 9/2/1
f 11/4/1 9/4/1 3/4/1
f 11/3/1 10/3/1 9/3/1
f 12/4/1 4/4/1 10/4/1
f 12/3/1 10/3/1 11/3/1
f 13/4/1 11/4/1 3/4/1
f 14/2/1 12/2/1 11/2/1
f 14/4/1 11/4/1 13/4/1
f 15/4/1 4/4/1 12/4/1
f 15/2/1 12/2/1 14/2/1
f 16/4/1 4/4/1 15/4/1
f 17/3/1 15/3/1 14/3/1
f 18/3/1 15/3/1 17/3/1
f 23/4/1 20/4/1 19/4/1
f 24/4/1 20/4/1 23/4/1
f 25/4/1 22/4/1 21/4/1
f 26/4/1 22/4/1 25/4/1
f 27/3/1 25/3/1 24/3/1
f 28/3/1 25/3/1 27/3/1
f 33/4/1 30/4/1 29/4/1
f 34/4/1 30/4/1 33/4/1
f 35/4/1 32/4/1 31/4/1
f 36/4/1 32/4/1 35/4/1
f 37/1/2 38/1/2 40/1/2
f 38/4/2 39/4/2 41/4/2
f 40/1/2 38/1/2 41/1/2
f 41/4/2 39/4/2 42/4/2
f 43/4/2 44/4/2 46/4/2
f 44/1/2 45/1/2 47/1/2
f 46/4/2 44/4/2 47/4/2
f 47/1/2 45/1/2 48/1/2
f 49/3/2 50/3/2 51/3/2
f 51/3/2 50/3/2 52/3/2
f 51/4/2 52/4/2 53/4/2
f 52/3/2 50/3/2 53/3/2
f 53/3/2 50/3/2 54/3/2
f 51/4/2 53/4/2 55/4/2
f 51/4/2 55/4/2 58/4/2
f 55/1/2 56/1/2 59/1/2
f 58/4/2 55/4/2 59/4/2
f 56/4/2 57/4/2 60/4/2
f 59/1/2 56/1/2 60/1/2
f 60/4/2 57/4/2 63/4/2
f 61/4/2 62/4/2 64/4/2
f 62/3/2 63/3/2 65/3/2
f 64/4/2 62/4/2 65/4/2
f 63/4/2 57/4/2 66/4/2
f 65/3/2 63/3/2 66/3/2
f 66/4/2 57/4/2 67/4/2
f 71/4/3 70/4/3 69/4/3
f 73/4/3 72/4/3 71/4/3
f 75/4/3 71/4/3 69/4/3
f 75/4/3 74/4/3 73/4/3
f 75/4/3 73/4/3 71/4/3
f 76/4/3 74/4/3 75/4/3
f 77/3/3 69/3/3 68/3/3
f 78/4/3 75/4/3 69/4/3
f 78/3/3 69/3/3 77/3/3
f 79/4/3 75/4/3 78/4/3
f 80/4/3 74/4/3 76/4/3
f 81/4/3 74/4/3 80/4/3
f 84/3/3 83/3/3 82/3/3
f 85/3/3 83/3/3 84/3/3
f 87/3/3 86/3/3 85/3/3
f 88/3/3 86/3/3 87/3/3
f 91/4/3 90/4/3 89/4/3
f 92/4/3 90/4/3 91/4/3
f 93/4/4 94/4/4 95/4/4
f 95/4/4 94/4/4 96/4/4
f 97/3/4 98/3/4 99/3/4
f 99/3/4 98/3/4 100/3/4
f 100/3/4 101/3/4 102/3/4
f 102/3/4 101/3/4 103/3/4
f 104/3/4 105/3/4 107/3/4
f 105/4/4 106/4/4 107/4/4
f 107/4/4 106/4/4 108/4/4
f 108/4/4 106/4/4 109/4/4
f 108/4/4 109/4/4 111/4/4
f 109/4/4 110/4/4 111/4/4
f 107/3/4 108/3/4 113/3/4
f 111/4/4 112/4/4 113/4/4
f 108/4/4 111/4/4 113/4/4
f 113/4/4 112/4/4 114/4/4
f 104/3/4 107/3/4 115/3/4
f 107/3/4 113/3/4 115/3/4
f 115/3/4 113/3/4 116/3/4
f 114/4/4 112/4/4 117/4/4
f 117/4/4 112/4/4 118/4/4
f 121/3/5 120/3/5 119/3/5
f 122/3/5 120/3/5 121/3/5
f 125/1/5 124/1/5 123/1/5
f 126/1/5 124/1/5 125/1/5
f 127/4/5 126/4/5 125/4/5
f 128/4/5 126/4/5 127/4/5
f 131/4/5 130/4/5 129/4/5
f 132/4/5 130/4/5 131/4/5
f 133/3/5 132/3/5 131/3/5
f 134/3/5 132/3/5 133/3/5
f 135/3/6 136/3/6 137/3/6
f 137/3/6 136/3/6 138/3/6
f 138/3/6 136/3/6 139/3/6
f 140/4/6 141/4/6 142/4/6
f 142/4/6 141/4/6 143/4/6
f 142/1/6 143/1/6 144/1/6
f 144/1/6 143/1/6 145/1/6
f 146/4/6 147/4/6 148/4/6
f 148/4/6 147/4/6 149/4/6
f 150/4/6 151/4/6 152/4/6
f 152/4/6 151/4/6 153/4/6
f 154/4/6 155/4/6 157/4/6
f 157/4/6 155/4/6 158/4/6
f 156/3/6 157/3/6 159/3/6
f 159/3/6 157/3/6 160/3/6
f 160/4/6 161/4/6 162/4/6
f 162/4/6 161/4/6 163/4/6
f 164/4/6 165/4/6 167/4/6
f 167/4/6 165/4/6 168/4/6
f 166/3/6 167/3/6 169/3/6
f 167/3/6 168/3/6 169/3/6
f 169/3/6 168/3/6 170/3/6
f 170/3/6 168/3/6 171/3/6
f 170/4/6 171/4/6 172/4/6
f 172/4/6 171/4/6 173/4/6
