# MagicaVoxel @ Ephtracy

# group
o 

# material
mtllib civil1-1.mtl
usemtl palette

# normals
vn -1 0 0
vn 1 0 0
vn 0 0 1
vn 0 0 -1
vn 0 -1 0
vn 0 1 0

# texcoords
vt 0.951172 0.5
vt 0.978516 0.5
vt 0.982422 0.5
vt 0.990234 0.5

# verts
v -0.8 0 0.7
v -0.8 0 0
v -0.8 0.2 0.7
v -0.8 0.2 0.4
v -0.8 0.3 0.4
v -0.8 0.3 0
v -0.8 0.7 0.4
v -0.8 0.7 0
v -0.8 0.8 0.4
v -0.8 0.8 0
v -0.8 0.9 0.4
v -0.8 0.9 0
v -0.8 1 0.4
v -0.8 1 0
v -0.8 1.6 0.3
v -0.8 1.6 0.1
v -0.8 1.7 0.4
v -0.8 1.7 0.3
v -0.8 1.7 0.1
v -0.8 1.7 0
v -0.1 1.6 0.5
v -0.1 1.6 0.4
v -0.1 1.7 0.5
v -0.1 1.7 0.4
v -0.4 0 0.7
v -0.4 0 0
v -0.4 0.2 0.7
v -0.4 0.2 0.4
v -0.4 0.3 0.4
v -0.4 0.3 0
v -0.4 0.7 0.4
v -0.4 0.7 0
v -0.4 0.8 0.4
v -0.4 0.8 0
v -0.4 0.9 0.4
v -0.4 0.9 0
v -0.4 1 0.4
v -0.4 1 0
v -0.4 1.2 0.4
v -0.4 1.2 0
v -0.3 1.2 0.4
v -0.3 1.2 0
v -0.3 1.3 0.4
v -0.3 1.3 0
v -0.2 1.3 0.4
v -0.2 1.3 0
v -0.2 1.4 0.4
v -0.2 1.4 0
v -0.1 1.4 0.4
v -0.1 1.4 0
v -0.1 1.5 0.4
v -0.1 1.5 0
v 0 1.5 0.4
v 0 1.5 0
v 0 1.6 0.5
v 0 1.6 0.4
v 0 1.6 0.1
v 0 1.7 0.5
v 0 1.7 0.4
v 0 1.7 0.1
v 0 1.7 0
v -0.8 0 0.7
v -0.8 0.2 0.7
v -0.4 0 0.7
v -0.4 0.2 0.7
v -0.1 1.6 0.5
v -0.1 1.7 0.5
v 0 1.6 0.5
v 0 1.7 0.5
v -0.8 0.2 0.4
v -0.8 0.3 0.4
v -0.8 0.7 0.4
v -0.8 0.8 0.4
v -0.8 0.9 0.4
v -0.8 1 0.4
v -0.8 1.7 0.4
v -0.4 0.2 0.4
v -0.4 0.3 0.4
v -0.4 0.7 0.4
v -0.4 0.8 0.4
v -0.4 0.9 0.4
v -0.4 1 0.4
v -0.4 1.2 0.4
v -0.3 1.2 0.4
v -0.3 1.3 0.4
v -0.2 1.3 0.4
v -0.2 1.4 0.4
v -0.1 1.4 0.4
v -0.1 1.5 0.4
v -0.1 1.6 0.4
v -0.1 1.7 0.4
v 0 1.5 0.4
v 0 1.6 0.4
v -0.8 0 0
v -0.8 0.3 0
v -0.8 0.7 0
v -0.8 0.8 0
v -0.8 0.9 0
v -0.8 1 0
v -0.8 1.7 0
v -0.4 0 0
v -0.4 0.3 0
v -0.4 0.7 0
v -0.4 0.8 0
v -0.4 0.9 0
v -0.4 1 0
v -0.4 1.2 0
v -0.3 1.2 0
v -0.3 1.3 0
v -0.2 1.3 0
v -0.2 1.4 0
v -0.1 1.4 0
v -0.1 1.5 0
v 0 1.5 0
v 0 1.7 0
v -0.8 0 0.7
v -0.4 0 0.7
v -0.7 0 0.6
v -0.5 0 0.6
v -0.7 0 0.1
v -0.5 0 0.1
v -0.8 0 0
v -0.4 0 0
v -0.4 1.2 0.4
v -0.3 1.2 0.4
v -0.4 1.2 0
v -0.3 1.2 0
v -0.3 1.3 0.4
v -0.2 1.3 0.4
v -0.3 1.3 0
v -0.2 1.3 0
v -0.2 1.4 0.4
v -0.1 1.4 0.4
v -0.2 1.4 0
v -0.1 1.4 0
v -0.1 1.5 0.4
v 0 1.5 0.4
v -0.1 1.5 0
v 0 1.5 0
v -0.1 1.6 0.5
v 0 1.6 0.5
v -0.1 1.6 0.4
v 0 1.6 0.4
v -0.8 0.2 0.7
v -0.4 0.2 0.7
v -0.8 0.2 0.4
v -0.4 0.2 0.4
v -0.1 1.7 0.5
v 0 1.7 0.5
v -0.8 1.7 0.4
v -0.1 1.7 0.4
v 0 1.7 0.4
v -0.8 1.7 0.3
v -0.1 1.7 0.3
v -0.8 1.7 0.1
v 0 1.7 0.1
v -0.8 1.7 0
v 0 1.7 0

# faces
f 3/4/1 2/4/1 1/4/1
f 4/4/1 2/4/1 3/4/1
f 5/4/1 2/4/1 4/4/1
f 6/4/1 2/4/1 5/4/1
f 7/3/1 6/3/1 5/3/1
f 8/3/1 6/3/1 7/3/1
f 9/4/1 8/4/1 7/4/1
f 10/4/1 8/4/1 9/4/1
f 11/3/1 10/3/1 9/3/1
f 12/3/1 10/3/1 11/3/1
f 13/4/1 12/4/1 11/4/1
f 14/4/1 12/4/1 13/4/1
f 15/3/1 14/3/1 13/3/1
f 16/3/1 14/3/1 15/3/1
f 17/3/1 15/3/1 13/3/1
f 18/4/1 16/4/1 15/4/1
f 18/3/1 15/3/1 17/3/1
f 19/3/1 14/3/1 16/3/1
f 19/4/1 16/4/1 18/4/1
f 20/3/1 14/3/1 19/3/1
f 23/2/1 22/2/1 21/2/1
f 24/2/1 22/2/1 23/2/1
f 25/4/2 26/4/2 27/4/2
f 27/4/2 26/4/2 28/4/2
f 28/4/2 26/4/2 29/4/2
f 29/4/2 26/4/2 30/4/2
f 29/3/2 30/3/2 31/3/2
f 31/3/2 30/3/2 32/3/2
f 31/4/2 32/4/2 33/4/2
f 33/4/2 32/4/2 34/4/2
f 33/3/2 34/3/2 35/3/2
f 35/3/2 34/3/2 36/3/2
f 35/4/2 36/4/2 37/4/2
f 37/4/2 36/4/2 38/4/2
f 37/3/2 38/3/2 39/3/2
f 39/3/2 38/3/2 40/3/2
f 41/3/2 42/3/2 43/3/2
f 43/3/2 42/3/2 44/3/2
f 45/3/2 46/3/2 47/3/2
f 47/3/2 46/3/2 48/3/2
f 49/3/2 50/3/2 51/3/2
f 51/3/2 50/3/2 52/3/2
f 53/3/2 54/3/2 56/3/2
f 56/3/2 54/3/2 57/3/2
f 55/2/2 56/2/2 58/2/2
f 56/4/2 57/4/2 59/4/2
f 58/2/2 56/2/2 59/2/2
f 57/3/2 54/3/2 60/3/2
f 59/4/2 57/4/2 60/4/2
f 60/3/2 54/3/2 61/3/2
f 64/4/3 63/4/3 62/4/3
f 65/4/3 63/4/3 64/4/3
f 68/2/3 67/2/3 66/2/3
f 69/2/3 67/2/3 68/2/3
f 77/4/3 71/4/3 70/4/3
f 78/3/3 72/3/3 71/3/3
f 78/4/3 71/4/3 77/4/3
f 79/4/3 73/4/3 72/4/3
f 79/3/3 72/3/3 78/3/3
f 80/3/3 74/3/3 73/3/3
f 80/4/3 73/4/3 79/4/3
f 81/4/3 75/4/3 74/4/3
f 81/3/3 74/3/3 80/3/3
f 82/3/3 76/3/3 75/3/3
f 82/4/3 75/4/3 81/4/3
f 83/3/3 76/3/3 82/3/3
f 84/3/3 76/3/3 83/3/3
f 85/3/3 76/3/3 84/3/3
f 86/3/3 76/3/3 85/3/3
f 87/3/3 76/3/3 86/3/3
f 88/3/3 76/3/3 87/3/3
f 89/3/3 76/3/3 88/3/3
f 90/3/3 76/3/3 89/3/3
f 91/3/3 76/3/3 90/3/3
f 92/3/3 90/3/3 89/3/3
f 93/3/3 90/3/3 92/3/3
f 94/4/4 95/4/4 101/4/4
f 95/3/4 96/3/4 102/3/4
f 101/4/4 95/4/4 102/4/4
f 96/4/4 97/4/4 103/4/4
f 102/3/4 96/3/4 103/3/4
f 97/3/4 98/3/4 104/3/4
f 103/4/4 97/4/4 104/4/4
f 98/4/4 99/4/4 105/4/4
f 104/3/4 98/3/4 105/3/4
f 99/3/4 100/3/4 106/3/4
f 105/4/4 99/4/4 106/4/4
f 106/3/4 100/3/4 107/3/4
f 107/3/4 100/3/4 108/3/4
f 108/3/4 100/3/4 109/3/4
f 109/3/4 100/3/4 110/3/4
f 110/3/4 100/3/4 111/3/4
f 111/3/4 100/3/4 112/3/4
f 112/3/4 100/3/4 113/3/4
f 113/3/4 100/3/4 114/3/4
f 114/3/4 100/3/4 115/3/4
f 118/4/5 117/4/5 116/4/5
f 119/4/5 117/4/5 118/4/5
f 120/4/5 118/4/5 116/4/5
f 120/1/5 119/1/5 118/1/5
f 121/4/5 117/4/5 119/4/5
f 121/1/5 119/1/5 120/1/5
f 122/4/5 120/4/5 116/4/5
f 122/4/5 121/4/5 120/4/5
f 123/4/5 117/4/5 121/4/5
f 123/4/5 121/4/5 122/4/5
f 126/3/5 125/3/5 124/3/5
f 127/3/5 125/3/5 126/3/5
f 130/3/5 129/3/5 128/3/5
f 131/3/5 129/3/5 130/3/5
f 134/3/5 133/3/5 132/3/5
f 135/3/5 133/3/5 134/3/5
f 138/3/5 137/3/5 136/3/5
f 139/3/5 137/3/5 138/3/5
f 142/2/5 141/2/5 140/2/5
f 143/2/5 141/2/5 142/2/5
f 144/4/6 145/4/6 146/4/6
f 146/4/6 145/4/6 147/4/6
f 148/2/6 149/2/6 151/2/6
f 151/2/6 149/2/6 152/2/6
f 150/3/6 151/3/6 153/3/6
f 151/4/6 152/4/6 154/4/6
f 153/3/6 151/3/6 154/3/6
f 153/4/6 154/4/6 155/4/6
f 154/4/6 152/4/6 156/4/6
f 155/4/6 154/4/6 156/4/6
f 155/3/6 156/3/6 157/3/6
f 157/3/6 156/3/6 158/3/6
