# MagicaVoxel @ Ephtracy

# group
o 

# material
mtllib OficeTable.mtl
usemtl palette

# normals
vn -1 0 0
vn 1 0 0
vn 0 0 1
vn 0 0 -1
vn 0 -1 0
vn 0 1 0

# texcoords
vt 0.0214844 0.5
vt 0.369141 0.5
vt 0.373047 0.5

# verts
v -2 1.4 1.4
v -2 1.4 -1.4
v -2 1.6 1.4
v -2 1.6 -1.4
v -1.9 0 1.3
v -1.9 0 -1.2
v -1.9 0 -1.3
v -1.9 1.4 1.3
v -1.9 1.4 -1.2
v -1.9 1.4 -1.3
v 1.8 0 1.2
v 1.8 0 -1.3
v 1.8 0.9 -1.2
v 1.8 0.9 -1.3
v 1.8 1.4 1.2
v 1.8 1.4 -1.2
v -0.7 0 1.2
v -0.7 0 -1.2
v -0.7 0 -1.3
v -0.7 0.9 -1.2
v -0.7 0.9 -1.3
v -0.7 1.4 1.2
v -0.7 1.4 -1.2
v 1.9 0 1.3
v 1.9 0 -1.3
v 1.9 1.4 1.3
v 1.9 1.4 -1.3
v 2 1.4 1.4
v 2 1.4 -1.4
v 2 1.6 1.4
v 2 1.6 -1.4
v -2 1.4 1.4
v -2 1.6 1.4
v 2 1.4 1.4
v 2 1.6 1.4
v -1.9 0 1.3
v -1.9 1.4 1.3
v 1.9 0 1.3
v 1.9 1.4 1.3
v -0.7 0.9 -1.2
v -0.7 1.4 -1.2
v 1.8 0.9 -1.2
v 1.8 1.4 -1.2
v -0.7 0 1.2
v -0.7 1.4 1.2
v 1.8 0 1.2
v 1.8 1.4 1.2
v -1.9 0 -1.3
v -1.9 1.4 -1.3
v -1.8 0 -1.3
v -1.8 0.4 -1.3
v -1.8 0.5 -1.3
v -1.8 0.9 -1.3
v -1.8 1 -1.3
v -1.8 1.4 -1.3
v -1.6 0.2 -1.3
v -1.6 0.3 -1.3
v -1.6 0.7 -1.3
v -1.6 0.8 -1.3
v -1.6 1.2 -1.3
v -1.6 1.3 -1.3
v -1 0.2 -1.3
v -1 0.3 -1.3
v -1 0.7 -1.3
v -1 0.8 -1.3
v -1 1.2 -1.3
v -1 1.3 -1.3
v -0.8 0 -1.3
v -0.8 0.4 -1.3
v -0.8 0.5 -1.3
v -0.8 0.9 -1.3
v -0.8 1 -1.3
v -0.8 1.4 -1.3
v -0.7 0 -1.3
v -0.7 0.9 -1.3
v -0.7 1.4 -1.3
v 1.8 0 -1.3
v 1.8 0.9 -1.3
v 1.9 0 -1.3
v 1.9 1.4 -1.3
v -2 1.4 -1.4
v -2 1.6 -1.4
v 2 1.4 -1.4
v 2 1.6 -1.4
v -1.9 0 1.3
v 1.9 0 1.3
v -0.7 0 1.2
v 1.8 0 1.2
v -1.9 0 -1.2
v -1.8 0 -1.2
v -0.8 0 -1.2
v -0.7 0 -1.2
v -1.9 0 -1.3
v -1.8 0 -1.3
v -0.8 0 -1.3
v -0.7 0 -1.3
v 1.8 0 -1.3
v 1.9 0 -1.3
v -0.7 0.9 -1.2
v 1.8 0.9 -1.2
v -0.7 0.9 -1.3
v 1.8 0.9 -1.3
v -2 1.4 1.4
v 2 1.4 1.4
v -1.9 1.4 1.3
v 1.9 1.4 1.3
v -0.7 1.4 1.2
v 1.8 1.4 1.2
v -1.9 1.4 -1.2
v -0.7 1.4 -1.2
v 1.8 1.4 -1.2
v -1.9 1.4 -1.3
v -1.8 1.4 -1.3
v -0.8 1.4 -1.3
v -0.7 1.4 -1.3
v 1.9 1.4 -1.3
v -2 1.4 -1.4
v 2 1.4 -1.4
v -2 1.6 1.4
v 2 1.6 1.4
v -2 1.6 -1.4
v 2 1.6 -1.4

# faces
f 3/2/1 2/2/1 1/2/1
f 4/2/1 2/2/1 3/2/1
f 8/2/1 6/2/1 5/2/1
f 9/3/1 7/3/1 6/3/1
f 9/2/1 6/2/1 8/2/1
f 10/3/1 7/3/1 9/3/1
f 13/2/1 12/2/1 11/2/1
f 14/2/1 12/2/1 13/2/1
f 15/2/1 13/2/1 11/2/1
f 16/2/1 13/2/1 15/2/1
f 17/2/2 18/2/2 20/2/2
f 18/3/2 19/3/2 20/3/2
f 20/3/2 19/3/2 21/3/2
f 17/2/2 20/2/2 22/2/2
f 22/2/2 20/2/2 23/2/2
f 24/2/2 25/2/2 26/2/2
f 26/2/2 25/2/2 27/2/2
f 28/2/2 29/2/2 30/2/2
f 30/2/2 29/2/2 31/2/2
f 34/2/3 33/2/3 32/2/3
f 35/2/3 33/2/3 34/2/3
f 38/2/3 37/2/3 36/2/3
f 39/2/3 37/2/3 38/2/3
f 42/2/3 41/2/3 40/2/3
f 43/2/3 41/2/3 42/2/3
f 44/2/4 45/2/4 46/2/4
f 46/2/4 45/2/4 47/2/4
f 48/3/4 49/3/4 50/3/4
f 50/3/4 49/3/4 51/3/4
f 51/3/4 49/3/4 52/3/4
f 52/3/4 49/3/4 53/3/4
f 53/3/4 49/3/4 54/3/4
f 54/3/4 49/3/4 55/3/4
f 50/2/4 51/2/4 56/2/4
f 56/2/4 51/2/4 57/2/4
f 52/2/4 53/2/4 58/2/4
f 58/2/4 53/2/4 59/2/4
f 54/2/4 55/2/4 60/2/4
f 60/2/4 55/2/4 61/2/4
f 50/2/4 56/2/4 62/2/4
f 56/1/4 57/1/4 62/1/4
f 57/2/4 51/2/4 63/2/4
f 62/1/4 57/1/4 63/1/4
f 52/2/4 58/2/4 64/2/4
f 58/1/4 59/1/4 64/1/4
f 59/2/4 53/2/4 65/2/4
f 64/1/4 59/1/4 65/1/4
f 60/1/4 61/1/4 66/1/4
f 54/2/4 60/2/4 66/2/4
f 61/2/4 55/2/4 67/2/4
f 66/1/4 61/1/4 67/1/4
f 50/2/4 62/2/4 68/2/4
f 62/2/4 63/2/4 68/2/4
f 51/3/4 52/3/4 69/3/4
f 68/2/4 63/2/4 69/2/4
f 63/2/4 51/2/4 69/2/4
f 52/2/4 64/2/4 70/2/4
f 69/3/4 52/3/4 70/3/4
f 64/2/4 65/2/4 70/2/4
f 53/3/4 54/3/4 71/3/4
f 70/2/4 65/2/4 71/2/4
f 65/2/4 53/2/4 71/2/4
f 54/2/4 66/2/4 72/2/4
f 71/3/4 54/3/4 72/3/4
f 66/2/4 67/2/4 72/2/4
f 67/2/4 55/2/4 73/2/4
f 72/2/4 67/2/4 73/2/4
f 71/3/4 72/3/4 74/3/4
f 69/3/4 70/3/4 74/3/4
f 72/3/4 73/3/4 74/3/4
f 70/3/4 71/3/4 74/3/4
f 68/3/4 69/3/4 74/3/4
f 74/3/4 73/3/4 75/3/4
f 75/3/4 73/3/4 76/3/4
f 75/2/4 76/2/4 78/2/4
f 77/2/4 78/2/4 79/2/4
f 78/2/4 76/2/4 80/2/4
f 79/2/4 78/2/4 80/2/4
f 81/2/4 82/2/4 83/2/4
f 83/2/4 82/2/4 84/2/4
f 87/2/5 86/2/5 85/2/5
f 88/2/5 86/2/5 87/2/5
f 89/2/5 87/2/5 85/2/5
f 90/2/5 87/2/5 89/2/5
f 91/2/5 87/2/5 90/2/5
f 92/2/5 87/2/5 91/2/5
f 93/3/5 90/3/5 89/3/5
f 94/2/5 91/2/5 90/2/5
f 94/3/5 90/3/5 93/3/5
f 95/3/5 92/3/5 91/3/5
f 95/2/5 91/2/5 94/2/5
f 96/3/5 92/3/5 95/3/5
f 97/2/5 86/2/5 88/2/5
f 98/2/5 86/2/5 97/2/5
f 101/2/5 100/2/5 99/2/5
f 102/2/5 100/2/5 101/2/5
f 105/2/5 104/2/5 103/2/5
f 106/2/5 104/2/5 105/2/5
f 109/2/5 105/2/5 103/2/5
f 110/2/5 108/2/5 107/2/5
f 111/2/5 108/2/5 110/2/5
f 112/2/5 109/2/5 103/2/5
f 116/2/5 104/2/5 106/2/5
f 117/2/5 115/2/5 114/2/5
f 117/2/5 116/2/5 115/2/5
f 117/2/5 114/2/5 113/2/5
f 117/2/5 112/2/5 103/2/5
f 117/2/5 113/2/5 112/2/5
f 118/2/5 104/2/5 116/2/5
f 118/2/5 116/2/5 117/2/5
f 119/2/6 120/2/6 121/2/6
f 121/2/6 120/2/6 122/2/6
