# MagicaVoxel @ Ephtracy

# group
o 

# material
mtllib Polk.mtl
usemtl palette

# normals
vn -1 0 0
vn 1 0 0
vn 0 0 1
vn 0 0 -1
vn 0 -1 0
vn 0 1 0

# texcoords
vt 0.369141 0.5
vt 0.373047 0.5
vt 0.986328 0.5
vt 0.990234 0.5

# verts
v -2 0 0.3
v -2 0 -2
v -2 4 0.3
v -2 4 -2
v -0.3 1 0.5
v -0.3 1 0.3
v -0.3 1.1 0.4
v -0.3 1.1 0.3
v -0.3 1.3 0.4
v -0.3 1.3 0.3
v -0.3 1.4 0.5
v -0.3 1.4 0.3
v -0.2 2.1 0.3
v -0.2 2.1 0.2
v -0.2 2.1 -1.9
v -0.2 3.9 0.3
v -0.2 3.9 -1.9
v 2.38419e-07 1 0.5
v 2.38419e-07 1 0.3
v 2.38419e-07 1.1 0.4
v 2.38419e-07 1.1 0.3
v 2.38419e-07 1.3 0.4
v 2.38419e-07 1.3 0.3
v 2.38419e-07 1.4 0.5
v 2.38419e-07 1.4 0.3
v 1.9 0.1 0.2
v 1.9 0.1 -1.9
v 1.9 2 0.2
v 1.9 2 -1.9
v 1.9 2.1 0.3
v 1.9 2.1 0.2
v 1.9 2.1 -1.9
v 1.9 3.9 0.3
v 1.9 3.9 -1.9
v -1.9 0.1 0.2
v -1.9 0.1 -1.9
v -1.9 2 0.2
v -1.9 2 -1.9
v -1.9 2.1 0.3
v -1.9 2.1 0.2
v -1.9 2.1 -1.9
v -1.9 3.9 0.3
v -1.9 3.9 -1.9
v -0.2 1 0.5
v -0.2 1 0.3
v -0.2 1.1 0.4
v -0.2 1.1 0.3
v -0.2 1.3 0.4
v -0.2 1.3 0.3
v -0.2 1.4 0.5
v -0.2 1.4 0.3
v 2.38419e-07 2.1 0.3
v 2.38419e-07 2.1 0.2
v 2.38419e-07 2.1 -1.9
v 2.38419e-07 3.9 0.3
v 2.38419e-07 3.9 -1.9
v 0.1 1 0.5
v 0.1 1 0.3
v 0.1 1.1 0.4
v 0.1 1.1 0.3
v 0.1 1.3 0.4
v 0.1 1.3 0.3
v 0.1 1.4 0.5
v 0.1 1.4 0.3
v 2 0 0.3
v 2 0 -2
v 2 4 0.3
v 2 4 -2
v -0.3 1 0.5
v -0.3 1.4 0.5
v -0.2 1 0.5
v -0.2 1.4 0.5
v 2.38419e-07 1 0.5
v 2.38419e-07 1.4 0.5
v 0.1 1 0.5
v 0.1 1.4 0.5
v -2 0 0.3
v -2 4 0.3
v -1.9 0.1 0.3
v -1.9 2 0.3
v -1.9 2.1 0.3
v -1.9 3.9 0.3
v -0.3 1 0.3
v -0.3 1.1 0.3
v -0.3 1.3 0.3
v -0.3 1.4 0.3
v -0.2 0.1 0.3
v -0.2 1 0.3
v -0.2 1.1 0.3
v -0.2 1.3 0.3
v -0.2 1.4 0.3
v -0.2 2 0.3
v -0.2 2.1 0.3
v -0.2 3.9 0.3
v 2.38419e-07 0.1 0.3
v 2.38419e-07 1 0.3
v 2.38419e-07 1.1 0.3
v 2.38419e-07 1.3 0.3
v 2.38419e-07 1.4 0.3
v 2.38419e-07 2 0.3
v 2.38419e-07 2.1 0.3
v 2.38419e-07 3.9 0.3
v 0.1 1 0.3
v 0.1 1.1 0.3
v 0.1 1.3 0.3
v 0.1 1.4 0.3
v 1.9 0.1 0.3
v 1.9 2 0.3
v 1.9 2.1 0.3
v 1.9 3.9 0.3
v 2 0 0.3
v 2 4 0.3
v -1.9 0.1 -1.9
v -1.9 2 -1.9
v -1.9 2.1 -1.9
v -1.9 3.9 -1.9
v -0.2 2.1 -1.9
v -0.2 3.9 -1.9
v 2.38419e-07 2.1 -1.9
v 2.38419e-07 3.9 -1.9
v 1.9 0.1 -1.9
v 1.9 2 -1.9
v 1.9 2.1 -1.9
v 1.9 3.9 -1.9
v -0.3 1.1 0.4
v -0.3 1.3 0.4
v -0.2 1.1 0.4
v -0.2 1.3 0.4
v 2.38419e-07 1.1 0.4
v 2.38419e-07 1.3 0.4
v 0.1 1.1 0.4
v 0.1 1.3 0.4
v -1.9 0.1 0.2
v -1.9 2 0.2
v -0.2 0.1 0.2
v -0.2 2 0.2
v 2.38419e-07 0.1 0.2
v 2.38419e-07 2 0.2
v 1.9 0.1 0.2
v 1.9 2 0.2
v -2 0 -2
v -2 4 -2
v 2 0 -2
v 2 4 -2
v -2 0 0.3
v 2 0 0.3
v -1.9 0 0.2
v 1.9 0 0.2
v -1.9 0 -1.9
v 1.9 0 -1.9
v -2 0 -2
v 2 0 -2
v -0.3 1 0.5
v -0.2 1 0.5
v 2.38419e-07 1 0.5
v 0.1 1 0.5
v -0.3 1 0.3
v -0.2 1 0.3
v 2.38419e-07 1 0.3
v 0.1 1 0.3
v -0.3 1.3 0.4
v -0.2 1.3 0.4
v 2.38419e-07 1.3 0.4
v 0.1 1.3 0.4
v -0.3 1.3 0.3
v -0.2 1.3 0.3
v 2.38419e-07 1.3 0.3
v 0.1 1.3 0.3
v -1.9 2 0.2
v -0.2 2 0.2
v 2.38419e-07 2 0.2
v 1.9 2 0.2
v -1.9 2 -1.9
v 1.9 2 -1.9
v -1.9 3.9 0.3
v -0.2 3.9 0.3
v 2.38419e-07 3.9 0.3
v 1.9 3.9 0.3
v -1.9 3.9 -1.9
v -0.2 3.9 -1.9
v 2.38419e-07 3.9 -1.9
v 1.9 3.9 -1.9
v -1.9 0.1 0.2
v -0.2 0.1 0.2
v 2.38419e-07 0.1 0.2
v 1.9 0.1 0.2
v -1.9 0.1 -1.9
v 1.9 0.1 -1.9
v -0.3 1.1 0.4
v -0.2 1.1 0.4
v 2.38419e-07 1.1 0.4
v 0.1 1.1 0.4
v -0.3 1.1 0.3
v -0.2 1.1 0.3
v 2.38419e-07 1.1 0.3
v 0.1 1.1 0.3
v -0.3 1.4 0.5
v -0.2 1.4 0.5
v 2.38419e-07 1.4 0.5
v 0.1 1.4 0.5
v -0.3 1.4 0.3
v -0.2 1.4 0.3
v 2.38419e-07 1.4 0.3
v 0.1 1.4 0.3
v -1.9 2.1 0.3
v -0.2 2.1 0.3
v 2.38419e-07 2.1 0.3
v 1.9 2.1 0.3
v -1.9 2.1 0.2
v -0.2 2.1 0.2
v 2.38419e-07 2.1 0.2
v 1.9 2.1 0.2
v -1.9 2.1 -1.9
v -0.2 2.1 -1.9
v 2.38419e-07 2.1 -1.9
v 1.9 2.1 -1.9
v -2 4 0.3
v 2 4 0.3
v -2 4 -2
v 2 4 -2

# faces
f 3/1/1 2/1/1 1/1/1
f 4/1/1 2/1/1 3/1/1
f 7/4/1 6/4/1 5/4/1
f 8/4/1 6/4/1 7/4/1
f 9/4/1 7/4/1 5/4/1
f 11/4/1 9/4/1 5/4/1
f 11/4/1 10/4/1 9/4/1
f 12/4/1 10/4/1 11/4/1
f 16/1/1 14/1/1 13/1/1
f 16/1/1 15/1/1 14/1/1
f 17/1/1 15/1/1 16/1/1
f 20/4/1 19/4/1 18/4/1
f 21/4/1 19/4/1 20/4/1
f 22/4/1 20/4/1 18/4/1
f 24/4/1 22/4/1 18/4/1
f 24/4/1 23/4/1 22/4/1
f 25/4/1 23/4/1 24/4/1
f 28/1/1 27/1/1 26/1/1
f 29/1/1 27/1/1 28/1/1
f 33/1/1 31/1/1 30/1/1
f 33/1/1 32/1/1 31/1/1
f 34/1/1 32/1/1 33/1/1
f 35/1/2 36/1/2 37/1/2
f 37/1/2 36/1/2 38/1/2
f 39/1/2 40/1/2 42/1/2
f 40/1/2 41/1/2 42/1/2
f 42/1/2 41/1/2 43/1/2
f 44/4/2 45/4/2 46/4/2
f 46/4/2 45/4/2 47/4/2
f 44/4/2 46/4/2 48/4/2
f 44/4/2 48/4/2 50/4/2
f 48/4/2 49/4/2 50/4/2
f 50/4/2 49/4/2 51/4/2
f 52/1/2 53/1/2 55/1/2
f 53/1/2 54/1/2 55/1/2
f 55/1/2 54/1/2 56/1/2
f 57/4/2 58/4/2 59/4/2
f 59/4/2 58/4/2 60/4/2
f 57/4/2 59/4/2 61/4/2
f 57/4/2 61/4/2 63/4/2
f 61/4/2 62/4/2 63/4/2
f 63/4/2 62/4/2 64/4/2
f 65/1/2 66/1/2 67/1/2
f 67/1/2 66/1/2 68/1/2
f 71/4/3 70/4/3 69/4/3
f 72/4/3 70/4/3 71/4/3
f 75/4/3 74/4/3 73/4/3
f 76/4/3 74/4/3 75/4/3
f 79/1/3 78/1/3 77/1/3
f 80/1/3 78/1/3 79/1/3
f 81/1/3 78/1/3 80/1/3
f 82/1/3 78/1/3 81/1/3
f 83/2/3 80/2/3 79/2/3
f 84/2/3 80/2/3 83/2/3
f 85/2/3 80/2/3 84/2/3
f 86/2/3 80/2/3 85/2/3
f 87/1/3 79/1/3 77/1/3
f 87/2/3 83/2/3 79/2/3
f 88/2/3 83/2/3 87/2/3
f 89/2/3 85/2/3 84/2/3
f 90/2/3 85/2/3 89/2/3
f 91/2/3 80/2/3 86/2/3
f 92/1/3 81/1/3 80/1/3
f 92/2/3 80/2/3 91/2/3
f 93/1/3 81/1/3 92/1/3
f 94/1/3 78/1/3 82/1/3
f 95/3/3 90/3/3 89/3/3
f 95/3/3 91/3/3 90/3/3
f 95/3/3 88/3/3 87/3/3
f 95/1/3 87/1/3 77/1/3
f 95/3/3 92/3/3 91/3/3
f 95/3/3 89/3/3 88/3/3
f 96/3/3 92/3/3 95/3/3
f 97/3/3 92/3/3 96/3/3
f 98/3/3 92/3/3 97/3/3
f 99/3/3 92/3/3 98/3/3
f 100/1/3 94/1/3 93/1/3
f 100/3/3 92/3/3 99/3/3
f 100/1/3 93/1/3 92/1/3
f 101/1/3 94/1/3 100/1/3
f 102/1/3 78/1/3 94/1/3
f 102/1/3 94/1/3 101/1/3
f 103/2/3 96/2/3 95/2/3
f 104/2/3 98/2/3 97/2/3
f 105/2/3 98/2/3 104/2/3
f 106/2/3 100/2/3 99/2/3
f 107/2/3 103/2/3 95/2/3
f 107/2/3 106/2/3 105/2/3
f 107/1/3 95/1/3 77/1/3
f 107/2/3 105/2/3 104/2/3
f 107/2/3 104/2/3 103/2/3
f 108/2/3 100/2/3 106/2/3
f 108/2/3 106/2/3 107/2/3
f 108/1/3 101/1/3 100/1/3
f 109/1/3 101/1/3 108/1/3
f 110/1/3 78/1/3 102/1/3
f 111/1/3 109/1/3 108/1/3
f 111/1/3 110/1/3 109/1/3
f 111/1/3 107/1/3 77/1/3
f 111/1/3 108/1/3 107/1/3
f 112/1/3 78/1/3 110/1/3
f 112/1/3 110/1/3 111/1/3
f 117/1/3 116/1/3 115/1/3
f 118/1/3 116/1/3 117/1/3
f 121/1/3 114/1/3 113/1/3
f 122/1/3 114/1/3 121/1/3
f 123/1/3 120/1/3 119/1/3
f 124/1/3 120/1/3 123/1/3
f 125/4/4 126/4/4 127/4/4
f 127/4/4 126/4/4 128/4/4
f 129/4/4 130/4/4 131/4/4
f 131/4/4 130/4/4 132/4/4
f 133/2/4 134/2/4 135/2/4
f 135/2/4 134/2/4 136/2/4
f 135/3/4 136/3/4 137/3/4
f 137/3/4 136/3/4 138/3/4
f 137/2/4 138/2/4 139/2/4
f 139/2/4 138/2/4 140/2/4
f 141/1/4 142/1/4 143/1/4
f 143/1/4 142/1/4 144/1/4
f 147/1/5 146/1/5 145/1/5
f 148/1/5 146/1/5 147/1/5
f 149/1/5 147/1/5 145/1/5
f 149/2/5 148/2/5 147/2/5
f 150/1/5 146/1/5 148/1/5
f 150/2/5 148/2/5 149/2/5
f 151/1/5 149/1/5 145/1/5
f 151/1/5 150/1/5 149/1/5
f 152/1/5 146/1/5 150/1/5
f 152/1/5 150/1/5 151/1/5
f 157/4/5 154/4/5 153/4/5
f 158/4/5 154/4/5 157/4/5
f 159/4/5 156/4/5 155/4/5
f 160/4/5 156/4/5 159/4/5
f 165/4/5 162/4/5 161/4/5
f 166/4/5 162/4/5 165/4/5
f 167/4/5 164/4/5 163/4/5
f 168/4/5 164/4/5 167/4/5
f 173/2/5 170/2/5 169/2/5
f 173/2/5 172/2/5 171/2/5
f 173/2/5 171/2/5 170/2/5
f 174/2/5 172/2/5 173/2/5
f 179/1/5 176/1/5 175/1/5
f 180/1/5 176/1/5 179/1/5
f 181/1/5 178/1/5 177/1/5
f 182/1/5 178/1/5 181/1/5
f 183/2/6 184/2/6 187/2/6
f 185/2/6 186/2/6 187/2/6
f 184/2/6 185/2/6 187/2/6
f 187/2/6 186/2/6 188/2/6
f 189/4/6 190/4/6 193/4/6
f 193/4/6 190/4/6 194/4/6
f 191/4/6 192/4/6 195/4/6
f 195/4/6 192/4/6 196/4/6
f 197/4/6 198/4/6 201/4/6
f 201/4/6 198/4/6 202/4/6
f 199/4/6 200/4/6 203/4/6
f 203/4/6 200/4/6 204/4/6
f 205/1/6 206/1/6 209/1/6
f 209/1/6 206/1/6 210/1/6
f 207/1/6 208/1/6 211/1/6
f 211/1/6 208/1/6 212/1/6
f 209/2/6 210/2/6 213/2/6
f 213/2/6 210/2/6 214/2/6
f 211/2/6 212/2/6 215/2/6
f 215/2/6 212/2/6 216/2/6
f 217/1/6 218/1/6 219/1/6
f 219/1/6 218/1/6 220/1/6
