# MagicaVoxel @ Ephtracy

# group
o 

# material
mtllib ShopTable0.mtl
usemtl palette

# normals
vn -1 0 0
vn 1 0 0
vn 0 0 1
vn 0 0 -1
vn 0 -1 0
vn 0 1 0

# texcoords
vt 0.369141 0.5
vt 0.373047 0.5

# verts
v -2 0 1.1
v -2 0 -1.4
v -2 2.4 1.1
v -2 2.4 -1.4
v -2 2.7 1.2
v -2 2.7 1.1
v -2 2.7 -1.4
v -2 2.7 -1.5
v -2 2.9 1.2
v -2 2.9 -1.5
v 1.6 0 1.1
v 1.6 0 1
v 1.6 0 -1.3
v 1.6 0 -1.4
v 1.6 2.4 1.1
v 1.6 2.4 1
v 1.6 2.4 -1.3
v 1.6 2.4 -1.4
v 1.6 2.7 1.2
v 1.6 2.7 1.1
v 1.6 2.7 1
v 1.6 2.7 -1.3
v 1.6 2.7 -1.4
v 1.6 2.7 -1.5
v 1.6 2.9 1.2
v 1.6 2.9 1.1
v 1.6 2.9 -1.4
v 1.6 2.9 -1.5
v 1.7 0 1
v 1.7 0 0.9
v 1.7 0 -1.2
v 1.7 0 -1.3
v 1.7 2.4 1
v 1.7 2.4 0.9
v 1.7 2.4 -1.2
v 1.7 2.4 -1.3
v 1.7 2.7 1.1
v 1.7 2.7 1
v 1.7 2.7 0.9
v 1.7 2.7 -1.2
v 1.7 2.7 -1.3
v 1.7 2.7 -1.4
v 1.7 2.9 1.1
v 1.7 2.9 1
v 1.7 2.9 -1.3
v 1.7 2.9 -1.4
v 1.8 0 0.9
v 1.8 0 -1.2
v 1.8 2.4 0.9
v 1.8 2.4 -1.2
v 1.8 2.7 1
v 1.8 2.7 0.9
v 1.8 2.7 -1.2
v 1.8 2.7 -1.3
v 1.8 2.9 1
v 1.8 2.9 0.9
v 1.8 2.9 -1.2
v 1.8 2.9 -1.3
v 1.9 2.7 0.9
v 1.9 2.7 -1.2
v 1.9 2.9 0.9
v 1.9 2.9 -1.2
v -2 2.7 1.2
v -2 2.9 1.2
v 1.6 2.7 1.2
v 1.6 2.9 1.2
v -2 0 1.1
v -2 2.4 1.1
v -2 2.7 1.1
v 1.6 0 1.1
v 1.6 2.4 1.1
v 1.6 2.7 1.1
v 1.6 2.9 1.1
v 1.7 2.7 1.1
v 1.7 2.9 1.1
v 1.6 0 1
v 1.6 2.4 1
v 1.6 2.7 1
v 1.7 0 1
v 1.7 2.4 1
v 1.7 2.7 1
v 1.7 2.9 1
v 1.8 2.7 1
v 1.8 2.9 1
v 1.7 0 0.9
v 1.7 2.4 0.9
v 1.7 2.7 0.9
v 1.8 0 0.9
v 1.8 2.4 0.9
v 1.8 2.7 0.9
v 1.8 2.9 0.9
v 1.9 2.7 0.9
v 1.9 2.9 0.9
v 1.7 0 -1.2
v 1.7 2.4 -1.2
v 1.7 2.7 -1.2
v 1.8 0 -1.2
v 1.8 2.4 -1.2
v 1.8 2.7 -1.2
v 1.8 2.9 -1.2
v 1.9 2.7 -1.2
v 1.9 2.9 -1.2
v 1.6 0 -1.3
v 1.6 2.4 -1.3
v 1.6 2.7 -1.3
v 1.7 0 -1.3
v 1.7 2.4 -1.3
v 1.7 2.7 -1.3
v 1.7 2.9 -1.3
v 1.8 2.7 -1.3
v 1.8 2.9 -1.3
v -2 0 -1.4
v -2 2.4 -1.4
v -2 2.7 -1.4
v 1.6 0 -1.4
v 1.6 2.4 -1.4
v 1.6 2.7 -1.4
v 1.6 2.9 -1.4
v 1.7 2.7 -1.4
v 1.7 2.9 -1.4
v -2 2.7 -1.5
v -2 2.9 -1.5
v 1.6 2.7 -1.5
v 1.6 2.9 -1.5
v -2 0 1.1
v 1.6 0 1.1
v 1.6 0 1
v 1.7 0 1
v 1.7 0 0.9
v 1.8 0 0.9
v 1.7 0 -1.2
v 1.8 0 -1.2
v 1.6 0 -1.3
v 1.7 0 -1.3
v -2 0 -1.4
v 1.6 0 -1.4
v -2 2.7 1.2
v 1.6 2.7 1.2
v -2 2.7 1.1
v 1.6 2.7 1.1
v 1.7 2.7 1.1
v 1.6 2.7 1
v 1.7 2.7 1
v 1.8 2.7 1
v 1.7 2.7 0.9
v 1.8 2.7 0.9
v 1.9 2.7 0.9
v 1.7 2.7 -1.2
v 1.8 2.7 -1.2
v 1.9 2.7 -1.2
v 1.6 2.7 -1.3
v 1.7 2.7 -1.3
v 1.8 2.7 -1.3
v -2 2.7 -1.4
v 1.6 2.7 -1.4
v 1.7 2.7 -1.4
v -2 2.7 -1.5
v 1.6 2.7 -1.5
v -2 2.9 1.2
v 1.6 2.9 1.2
v 1.6 2.9 1.1
v 1.7 2.9 1.1
v 1.7 2.9 1
v 1.8 2.9 1
v 1.8 2.9 0.9
v 1.9 2.9 0.9
v 1.8 2.9 -1.2
v 1.9 2.9 -1.2
v 1.7 2.9 -1.3
v 1.8 2.9 -1.3
v 1.6 2.9 -1.4
v 1.7 2.9 -1.4
v -2 2.9 -1.5
v 1.6 2.9 -1.5

# faces
f 3/1/1 2/1/1 1/1/1
f 4/1/1 2/1/1 3/1/1
f 6/2/1 4/2/1 3/2/1
f 7/2/1 4/2/1 6/2/1
f 9/1/1 7/1/1 6/1/1
f 9/1/1 8/1/1 7/1/1
f 9/1/1 6/1/1 5/1/1
f 10/1/1 8/1/1 9/1/1
f 11/1/2 12/1/2 15/1/2
f 15/1/2 12/1/2 16/1/2
f 13/1/2 14/1/2 17/1/2
f 17/1/2 14/1/2 18/1/2
f 15/2/2 16/2/2 20/2/2
f 20/2/2 16/2/2 21/2/2
f 17/2/2 18/2/2 22/2/2
f 22/2/2 18/2/2 23/2/2
f 19/1/2 20/1/2 25/1/2
f 25/1/2 20/1/2 26/1/2
f 23/1/2 24/1/2 27/1/2
f 27/1/2 24/1/2 28/1/2
f 29/1/2 30/1/2 33/1/2
f 33/1/2 30/1/2 34/1/2
f 31/1/2 32/1/2 35/1/2
f 35/1/2 32/1/2 36/1/2
f 33/2/2 34/2/2 38/2/2
f 38/2/2 34/2/2 39/2/2
f 35/2/2 36/2/2 40/2/2
f 40/2/2 36/2/2 41/2/2
f 37/1/2 38/1/2 43/1/2
f 43/1/2 38/1/2 44/1/2
f 41/1/2 42/1/2 45/1/2
f 45/1/2 42/1/2 46/1/2
f 47/1/2 48/1/2 49/1/2
f 49/1/2 48/1/2 50/1/2
f 49/2/2 50/2/2 52/2/2
f 52/2/2 50/2/2 53/2/2
f 51/1/2 52/1/2 55/1/2
f 55/1/2 52/1/2 56/1/2
f 53/1/2 54/1/2 57/1/2
f 57/1/2 54/1/2 58/1/2
f 59/1/2 60/1/2 61/1/2
f 61/1/2 60/1/2 62/1/2
f 65/1/3 64/1/3 63/1/3
f 66/1/3 64/1/3 65/1/3
f 70/1/3 68/1/3 67/1/3
f 71/2/3 69/2/3 68/2/3
f 71/1/3 68/1/3 70/1/3
f 72/2/3 69/2/3 71/2/3
f 74/1/3 73/1/3 72/1/3
f 75/1/3 73/1/3 74/1/3
f 79/1/3 77/1/3 76/1/3
f 80/2/3 78/2/3 77/2/3
f 80/1/3 77/1/3 79/1/3
f 81/2/3 78/2/3 80/2/3
f 83/1/3 82/1/3 81/1/3
f 84/1/3 82/1/3 83/1/3
f 88/1/3 86/1/3 85/1/3
f 89/2/3 87/2/3 86/2/3
f 89/1/3 86/1/3 88/1/3
f 90/2/3 87/2/3 89/2/3
f 92/1/3 91/1/3 90/1/3
f 93/1/3 91/1/3 92/1/3
f 94/1/4 95/1/4 97/1/4
f 95/2/4 96/2/4 98/2/4
f 97/1/4 95/1/4 98/1/4
f 98/2/4 96/2/4 99/2/4
f 99/1/4 100/1/4 101/1/4
f 101/1/4 100/1/4 102/1/4
f 103/1/4 104/1/4 106/1/4
f 104/2/4 105/2/4 107/2/4
f 106/1/4 104/1/4 107/1/4
f 107/2/4 105/2/4 108/2/4
f 108/1/4 109/1/4 110/1/4
f 110/1/4 109/1/4 111/1/4
f 112/1/4 113/1/4 115/1/4
f 113/2/4 114/2/4 116/2/4
f 115/1/4 113/1/4 116/1/4
f 116/2/4 114/2/4 117/2/4
f 117/1/4 118/1/4 119/1/4
f 119/1/4 118/1/4 120/1/4
f 121/1/4 122/1/4 123/1/4
f 123/1/4 122/1/4 124/1/4
f 127/1/5 126/1/5 125/1/5
f 129/1/5 128/1/5 127/1/5
f 131/1/5 129/1/5 127/1/5
f 131/1/5 130/1/5 129/1/5
f 132/1/5 130/1/5 131/1/5
f 133/1/5 127/1/5 125/1/5
f 133/1/5 131/1/5 127/1/5
f 134/1/5 131/1/5 133/1/5
f 135/1/5 133/1/5 125/1/5
f 136/1/5 133/1/5 135/1/5
f 139/1/5 138/1/5 137/1/5
f 140/1/5 138/1/5 139/1/5
f 142/1/5 141/1/5 140/1/5
f 143/1/5 141/1/5 142/1/5
f 145/1/5 144/1/5 143/1/5
f 146/1/5 144/1/5 145/1/5
f 149/1/5 147/1/5 146/1/5
f 150/1/5 147/1/5 149/1/5
f 152/1/5 149/1/5 148/1/5
f 153/1/5 149/1/5 152/1/5
f 155/1/5 152/1/5 151/1/5
f 156/1/5 152/1/5 155/1/5
f 157/1/5 155/1/5 154/1/5
f 158/1/5 155/1/5 157/1/5
f 159/1/6 160/1/6 161/1/6
f 161/1/6 162/1/6 163/1/6
f 163/1/6 164/1/6 165/1/6
f 163/1/6 165/1/6 167/1/6
f 165/1/6 166/1/6 167/1/6
f 167/1/6 166/1/6 168/1/6
f 161/1/6 163/1/6 169/1/6
f 163/1/6 167/1/6 169/1/6
f 169/1/6 167/1/6 170/1/6
f 159/1/6 161/1/6 171/1/6
f 161/1/6 169/1/6 171/1/6
f 171/1/6 169/1/6 172/1/6
f 159/1/6 171/1/6 173/1/6
f 173/1/6 171/1/6 174/1/6
