# MagicaVoxel @ Ephtracy

# group
o 

# material
mtllib Card.mtl
usemtl palette

# normals
vn -1 0 0
vn 1 0 0
vn 0 0 1
vn 0 0 -1
vn 0 -1 0
vn 0 1 0

# texcoords
vt 0.0214844 0.5
vt 0.841797 0.5
vt 0.853516 0.5
vt 0.982422 0.5
vt 0.986328 0.5
vt 0.990234 0.5
vt 0.994141 0.5

# verts
v -3.2 -6 2
v -3.2 -6 -0.8
v -3.2 -6 -1.2
v -3.2 -6 -1.6
v -3.2 -5.6 2
v -3.2 -5.6 -0.8
v -3.2 -5.6 -1.2
v -3.2 -5.6 -1.6
v 3.2 -6 2
v 3.2 -6 -0.8
v 3.2 -6 -1.2
v 3.2 -6 -1.6
v 3.2 -5.6 2
v 3.2 -5.6 -0.8
v 3.2 -5.6 -1.2
v 3.2 -5.6 -1.6
v -3.2 -6 2
v -3.2 -5.6 2
v 3.2 -6 2
v 3.2 -5.6 2
v -3.2 -6 -1.6
v -3.2 -5.6 -1.6
v 3.2 -6 -1.6
v 3.2 -5.6 -1.6
v -3.2 -6 2
v 3.2 -6 2
v -3.2 -6 -0.8
v 3.2 -6 -0.8
v -3.2 -6 -1.2
v 3.2 -6 -1.2
v -3.2 -6 -1.6
v 3.2 -6 -1.6
v -3.2 -5.6 2
v 3.2 -5.6 2
v 2.5 -5.6 1.8
v 2.6 -5.6 1.8
v 2.7 -5.6 1.8
v 2.8 -5.6 1.8
v 2.9 -5.6 1.8
v 3 -5.6 1.8
v 2.5 -5.6 1.2
v 2.6 -5.6 1.2
v 2.7 -5.6 1.2
v 2.8 -5.6 1.2
v 2.9 -5.6 1.2
v 3 -5.6 1.2
v -0.7 -5.6 1.1
v -0.5 -5.6 1.1
v 0.6 -5.6 1.1
v 0.8 -5.6 1.1
v 2.4 -5.6 1.1
v 2.5 -5.6 1.1
v 2.6 -5.6 1.1
v 2.9 -5.6 1.1
v 3 -5.6 1.1
v 3.1 -5.6 1.1
v -1.6 -5.6 1
v -1.2 -5.6 1
v 2.4 -5.6 1
v 2.5 -5.6 1
v 2.6 -5.6 1
v 2.9 -5.6 1
v 3 -5.6 1
v 3.1 -5.6 1
v -2.4 -5.6 0.9
v -2.1 -5.6 0.9
v 2.5 -5.6 0.9
v 3 -5.6 0.9
v -2.6 -5.6 0.8
v -2.4 -5.6 0.8
v -1.8 -5.6 0.8
v -1.6 -5.6 0.8
v -1.2 -5.6 0.8
v -1 -5.6 0.8
v -2.8 -5.6 0.7
v -2.6 -5.6 0.7
v -2.4 -5.6 0.7
v -2.1 -5.6 0.7
v -2.6 -5.6 0.6
v -2.4 -5.6 0.6
v -1.5 -5.6 0.5
v -1.3 -5.6 0.5
v -2.9 -5.6 0.4
v -2.8 -5.6 0.4
v -2.6 -5.6 0.4
v -2.4 -5.6 0.4
v -1.6 -5.6 0.4
v -1.5 -5.6 0.4
v -1.3 -5.6 0.4
v -1.2 -5.6 0.4
v -1.6 -5.6 0.3
v -1.5 -5.6 0.3
v -1.3 -5.6 0.3
v -1.2 -5.6 0.3
v -0.0999999 -5.6 0.3
v 0.2 -5.6 0.3
v -2.9 -5.6 0.2
v -2.8 -5.6 0.2
v -2.6 -5.6 0.2
v -2.4 -5.6 0.2
v -1.5 -5.6 0.2
v -1.3 -5.6 0.2
v -0.2 -5.6 0.0999999
v -0.0999999 -5.6 0.0999999
v 0.2 -5.6 0.0999999
v 0.3 -5.6 0.0999999
v -2.6 -5.6 -2.38419e-07
v -2.4 -5.6 -2.38419e-07
v -0.3 -5.6 -2.38419e-07
v -0.2 -5.6 -2.38419e-07
v -0.0999999 -5.6 -2.38419e-07
v 0.2 -5.6 -2.38419e-07
v 0.3 -5.6 -2.38419e-07
v 0.4 -5.6 -2.38419e-07
v -2.8 -5.6 -0.1
v -2.6 -5.6 -0.1
v -2.4 -5.6 -0.1
v -2.1 -5.6 -0.1
v -1.8 -5.6 -0.1
v -1.6 -5.6 -0.1
v -1.2 -5.6 -0.1
v -1 -5.6 -0.1
v -0.5 -5.6 -0.1
v -0.3 -5.6 -0.1
v -0.2 -5.6 -0.1
v 0.3 -5.6 -0.1
v 0.4 -5.6 -0.1
v 0.6 -5.6 -0.1
v -2.6 -5.6 -0.2
v -2.4 -5.6 -0.2
v -2.4 -5.6 -0.3
v -2.1 -5.6 -0.3
v -1.6 -5.6 -0.3
v -1.2 -5.6 -0.3
v -0.7 -5.6 -0.3
v -0.3 -5.6 -0.3
v 0.4 -5.6 -0.3
v 0.8 -5.6 -0.3
v -3.2 -5.6 -0.8
v 3.2 -5.6 -0.8
v -3.2 -5.6 -1.2
v 3.2 -5.6 -1.2
v -3.2 -5.6 -1.6
v 3.2 -5.6 -1.6

# faces
f 5/4/1 2/4/1 1/4/1
f 6/7/1 3/7/1 2/7/1
f 6/4/1 2/4/1 5/4/1
f 7/4/1 4/4/1 3/4/1
f 7/7/1 3/7/1 6/7/1
f 8/4/1 4/4/1 7/4/1
f 9/4/2 10/4/2 13/4/2
f 10/7/2 11/7/2 14/7/2
f 13/4/2 10/4/2 14/4/2
f 11/4/2 12/4/2 15/4/2
f 14/7/2 11/7/2 15/7/2
f 15/4/2 12/4/2 16/4/2
f 19/4/3 18/4/3 17/4/3
f 20/4/3 18/4/3 19/4/3
f 21/4/4 22/4/4 23/4/4
f 23/4/4 22/4/4 24/4/4
f 27/4/5 26/4/5 25/4/5
f 28/4/5 26/4/5 27/4/5
f 29/7/5 28/7/5 27/7/5
f 30/7/5 28/7/5 29/7/5
f 31/4/5 30/4/5 29/4/5
f 32/4/5 30/4/5 31/4/5
f 33/4/6 34/4/6 35/4/6
f 35/4/6 34/4/6 36/4/6
f 36/4/6 34/4/6 37/4/6
f 37/4/6 34/4/6 38/4/6
f 38/4/6 34/4/6 39/4/6
f 39/4/6 34/4/6 40/4/6
f 33/4/6 35/4/6 41/4/6
f 35/6/6 36/6/6 41/6/6
f 36/4/6 37/4/6 42/4/6
f 41/6/6 36/6/6 42/6/6
f 37/6/6 38/6/6 43/6/6
f 42/4/6 37/4/6 43/4/6
f 38/4/6 39/4/6 44/4/6
f 43/6/6 38/6/6 44/6/6
f 39/6/6 40/6/6 45/6/6
f 44/4/6 39/4/6 45/4/6
f 40/4/6 34/4/6 46/4/6
f 45/6/6 40/6/6 46/6/6
f 33/4/6 41/4/6 47/4/6
f 47/4/6 41/4/6 48/4/6
f 48/4/6 41/4/6 49/4/6
f 49/4/6 41/4/6 50/4/6
f 50/4/6 41/4/6 51/4/6
f 44/5/6 45/5/6 52/5/6
f 51/4/6 41/4/6 52/4/6
f 43/5/6 44/5/6 52/5/6
f 41/5/6 42/5/6 52/5/6
f 42/5/6 43/5/6 52/5/6
f 45/5/6 46/5/6 52/5/6
f 52/5/6 46/5/6 53/5/6
f 53/5/6 46/5/6 54/5/6
f 46/4/6 34/4/6 55/4/6
f 54/5/6 46/5/6 55/5/6
f 55/4/6 34/4/6 56/4/6
f 33/4/6 47/4/6 57/4/6
f 57/4/6 47/4/6 58/4/6
f 50/4/6 51/4/6 59/4/6
f 51/5/6 52/5/6 59/5/6
f 52/6/6 53/6/6 60/6/6
f 59/5/6 52/5/6 60/5/6
f 53/4/6 54/4/6 61/4/6
f 60/6/6 53/6/6 61/6/6
f 54/6/6 55/6/6 62/6/6
f 61/4/6 54/4/6 62/4/6
f 55/5/6 56/5/6 63/5/6
f 62/6/6 55/6/6 63/6/6
f 56/4/6 34/4/6 64/4/6
f 63/5/6 56/5/6 64/5/6
f 33/4/6 57/4/6 65/4/6
f 65/4/6 57/4/6 66/4/6
f 59/4/6 60/4/6 67/4/6
f 62/5/6 63/5/6 67/5/6
f 60/5/6 61/5/6 67/5/6
f 61/5/6 62/5/6 67/5/6
f 63/4/6 64/4/6 68/4/6
f 67/5/6 63/5/6 68/5/6
f 33/4/6 65/4/6 69/4/6
f 65/3/6 66/3/6 70/3/6
f 69/4/6 65/4/6 70/4/6
f 66/4/6 57/4/6 71/4/6
f 57/2/6 58/2/6 72/2/6
f 71/4/6 57/4/6 72/4/6
f 58/4/6 47/4/6 73/4/6
f 72/2/6 58/2/6 73/2/6
f 73/4/6 47/4/6 74/4/6
f 33/4/6 69/4/6 75/4/6
f 69/3/6 70/3/6 76/3/6
f 75/4/6 69/4/6 76/4/6
f 70/3/6 66/3/6 77/3/6
f 76/3/6 70/3/6 77/3/6
f 66/4/6 71/4/6 78/4/6
f 77/3/6 66/3/6 78/3/6
f 75/3/6 76/3/6 79/3/6
f 76/3/6 77/3/6 79/3/6
f 77/4/6 78/4/6 80/4/6
f 79/3/6 77/3/6 80/3/6
f 72/4/6 73/4/6 81/4/6
f 81/4/6 73/4/6 82/4/6
f 33/4/6 75/4/6 83/4/6
f 75/3/6 79/3/6 84/3/6
f 83/4/6 75/4/6 84/4/6
f 79/4/6 80/4/6 85/4/6
f 84/3/6 79/3/6 85/3/6
f 80/4/6 78/4/6 86/4/6
f 85/4/6 80/4/6 86/4/6
f 71/2/6 72/2/6 87/2/6
f 72/4/6 81/4/6 87/4/6
f 81/3/6 82/3/6 88/3/6
f 87/4/6 81/4/6 88/4/6
f 82/4/6 73/4/6 89/4/6
f 88/3/6 82/3/6 89/3/6
f 73/2/6 74/2/6 90/2/6
f 89/4/6 73/4/6 90/4/6
f 87/3/6 88/3/6 91/3/6
f 71/2/6 87/2/6 91/2/6
f 88/4/6 89/4/6 92/4/6
f 91/3/6 88/3/6 92/3/6
f 89/3/6 90/3/6 93/3/6
f 92/4/6 89/4/6 93/4/6
f 90/2/6 74/2/6 94/2/6
f 93/3/6 90/3/6 94/3/6
f 48/4/6 49/4/6 95/4/6
f 95/4/6 49/4/6 96/4/6
f 33/4/6 83/4/6 97/4/6
f 84/1/6 85/1/6 97/1/6
f 83/1/6 84/1/6 97/1/6
f 85/1/6 86/1/6 97/1/6
f 97/1/6 86/1/6 98/1/6
f 98/1/6 86/1/6 99/1/6
f 86/4/6 78/4/6 100/4/6
f 99/1/6 86/1/6 100/1/6
f 92/3/6 93/3/6 101/3/6
f 91/4/6 92/4/6 101/4/6
f 93/4/6 94/4/6 102/4/6
f 101/3/6 93/3/6 102/3/6
f 48/4/6 95/4/6 103/4/6
f 95/3/6 96/3/6 104/3/6
f 103/4/6 95/4/6 104/4/6
f 96/4/6 49/4/6 105/4/6
f 104/3/6 96/3/6 105/3/6
f 105/4/6 49/4/6 106/4/6
f 98/3/6 99/3/6 107/3/6
f 99/4/6 100/4/6 107/4/6
f 100/4/6 78/4/6 108/4/6
f 107/4/6 100/4/6 108/4/6
f 48/4/6 103/4/6 109/4/6
f 103/3/6 104/3/6 110/3/6
f 109/4/6 103/4/6 110/4/6
f 104/4/6 105/4/6 111/4/6
f 110/3/6 104/3/6 111/3/6
f 105/3/6 106/3/6 112/3/6
f 111/4/6 105/4/6 112/4/6
f 106/4/6 49/4/6 113/4/6
f 112/3/6 106/3/6 113/3/6
f 113/4/6 49/4/6 114/4/6
f 98/3/6 107/3/6 115/3/6
f 97/4/6 98/4/6 115/4/6
f 107/3/6 108/3/6 115/3/6
f 115/3/6 108/3/6 116/3/6
f 108/4/6 78/4/6 117/4/6
f 116/3/6 108/3/6 117/3/6
f 78/4/6 71/4/6 118/4/6
f 117/4/6 78/4/6 118/4/6
f 71/2/6 91/2/6 119/2/6
f 118/4/6 71/4/6 119/4/6
f 91/4/6 101/4/6 120/4/6
f 119/2/6 91/2/6 120/2/6
f 101/4/6 102/4/6 120/4/6
f 94/2/6 74/2/6 121/2/6
f 120/4/6 102/4/6 121/4/6
f 102/4/6 94/4/6 121/4/6
f 74/4/6 47/4/6 122/4/6
f 121/2/6 74/2/6 122/2/6
f 47/3/6 48/3/6 123/3/6
f 48/4/6 109/4/6 123/4/6
f 109/3/6 110/3/6 124/3/6
f 123/4/6 109/4/6 124/4/6
f 111/4/6 112/4/6 125/4/6
f 124/3/6 110/3/6 125/3/6
f 112/4/6 113/4/6 125/4/6
f 110/4/6 111/4/6 125/4/6
f 113/3/6 114/3/6 126/3/6
f 125/4/6 113/4/6 126/4/6
f 114/4/6 49/4/6 127/4/6
f 126/3/6 114/3/6 127/3/6
f 49/3/6 50/3/6 128/3/6
f 127/4/6 49/4/6 128/4/6
f 116/3/6 117/3/6 129/3/6
f 115/4/6 116/4/6 129/4/6
f 117/3/6 118/3/6 129/3/6
f 129/3/6 118/3/6 130/3/6
f 129/4/6 130/4/6 131/4/6
f 130/3/6 118/3/6 131/3/6
f 119/4/6 120/4/6 132/4/6
f 131/3/6 118/3/6 132/3/6
f 118/4/6 119/4/6 132/4/6
f 120/2/6 121/2/6 133/2/6
f 132/4/6 120/4/6 133/4/6
f 121/4/6 122/4/6 134/4/6
f 133/2/6 121/2/6 134/2/6
f 123/3/6 124/3/6 135/3/6
f 134/4/6 122/4/6 135/4/6
f 122/4/6 47/4/6 135/4/6
f 47/3/6 123/3/6 135/3/6
f 126/4/6 127/4/6 136/4/6
f 135/3/6 124/3/6 136/3/6
f 125/4/6 126/4/6 136/4/6
f 124/4/6 125/4/6 136/4/6
f 127/3/6 128/3/6 137/3/6
f 136/4/6 127/4/6 137/4/6
f 128/3/6 50/3/6 138/3/6
f 137/3/6 128/3/6 138/3/6
f 50/4/6 59/4/6 138/4/6
f 59/4/6 67/4/6 138/4/6
f 67/4/6 68/4/6 138/4/6
f 133/4/6 134/4/6 139/4/6
f 134/4/6 135/4/6 139/4/6
f 137/4/6 138/4/6 139/4/6
f 115/4/6 129/4/6 139/4/6
f 136/4/6 137/4/6 139/4/6
f 135/4/6 136/4/6 139/4/6
f 129/4/6 131/4/6 139/4/6
f 97/4/6 115/4/6 139/4/6
f 132/4/6 133/4/6 139/4/6
f 131/4/6 132/4/6 139/4/6
f 33/4/6 97/4/6 139/4/6
f 138/4/6 68/4/6 140/4/6
f 139/4/6 138/4/6 140/4/6
f 64/4/6 34/4/6 140/4/6
f 68/4/6 64/4/6 140/4/6
f 139/7/6 140/7/6 141/7/6
f 141/7/6 140/7/6 142/7/6
f 141/4/6 142/4/6 143/4/6
f 143/4/6 142/4/6 144/4/6
