# MagicaVoxel @ Ephtracy

# group
o 

# material
mtllib bok0.mtl
usemtl palette

# normals
vn -1 0 0
vn 1 0 0
vn 0 0 1
vn 0 0 -1
vn 0 -1 0
vn 0 1 0

# texcoords
vt 0.974609 0.5
vt 0.978516 0.5
vt 0.986328 0.5

# verts
v -1.3 0.1 1.1
v -1.3 0.1 -1.1
v -1.3 0.7 1.1
v -1.3 0.7 -1.1
v -1.2 0 1.1
v -1.2 0 -1.1
v -1.2 0.1 1.1
v -1.2 0.1 -1.1
v -1.2 0.7 1.1
v -1.2 0.7 -1.1
v -1.2 0.8 1.1
v -1.2 0.8 -1.1
v 0.9 0 1.1
v 0.9 0 -1.1
v 0.9 0.1 1.1
v 0.9 0.1 -1.1
v 0.9 0.2 1.1
v 0.9 0.2 -1.1
v 0.9 0.3 1.1
v 0.9 0.3 -1.1
v 0.9 0.4 1.1
v 0.9 0.4 -1.1
v 0.9 0.5 1.1
v 0.9 0.5 -1.1
v 0.9 0.6 1.1
v 0.9 0.6 -1.1
v 0.9 0.7 1.1
v 0.9 0.7 -1.1
v 0.9 0.8 1.1
v 0.9 0.8 -1.1
v -1.3 0.1 1.1
v -1.3 0.7 1.1
v -1.2 0 1.1
v -1.2 0.1 1.1
v -1.2 0.7 1.1
v -1.2 0.8 1.1
v -1.1 0.1 1.1
v -1.1 0.2 1.1
v -1.1 0.3 1.1
v -1.1 0.4 1.1
v -1.1 0.5 1.1
v -1.1 0.6 1.1
v -1.1 0.7 1.1
v 0.9 0 1.1
v 0.9 0.1 1.1
v 0.9 0.2 1.1
v 0.9 0.3 1.1
v 0.9 0.4 1.1
v 0.9 0.5 1.1
v 0.9 0.6 1.1
v 0.9 0.7 1.1
v 0.9 0.8 1.1
v -1.3 0.1 -1.1
v -1.3 0.7 -1.1
v -1.2 0 -1.1
v -1.2 0.1 -1.1
v -1.2 0.7 -1.1
v -1.2 0.8 -1.1
v -1.1 0.1 -1.1
v -1.1 0.2 -1.1
v -1.1 0.3 -1.1
v -1.1 0.4 -1.1
v -1.1 0.5 -1.1
v -1.1 0.6 -1.1
v -1.1 0.7 -1.1
v 0.9 0 -1.1
v 0.9 0.1 -1.1
v 0.9 0.2 -1.1
v 0.9 0.3 -1.1
v 0.9 0.4 -1.1
v 0.9 0.5 -1.1
v 0.9 0.6 -1.1
v 0.9 0.7 -1.1
v 0.9 0.8 -1.1
v -1.2 0 1.1
v 0.9 0 1.1
v -1.2 0 -1.1
v 0.9 0 -1.1
v -1.3 0.1 1.1
v -1.2 0.1 1.1
v -1.3 0.1 -1.1
v -1.2 0.1 -1.1
v -1.3 0.7 1.1
v -1.2 0.7 1.1
v -1.3 0.7 -1.1
v -1.2 0.7 -1.1
v -1.2 0.8 1.1
v 0.9 0.8 1.1
v -1.2 0.8 -1.1
v 0.9 0.8 -1.1

# faces
f 3/3/1 2/3/1 1/3/1
f 4/3/1 2/3/1 3/3/1
f 7/3/1 6/3/1 5/3/1
f 8/3/1 6/3/1 7/3/1
f 11/3/1 10/3/1 9/3/1
f 12/3/1 10/3/1 11/3/1
f 13/3/2 14/3/2 15/3/2
f 15/3/2 14/3/2 16/3/2
f 15/2/2 16/2/2 17/2/2
f 17/2/2 16/2/2 18/2/2
f 17/1/2 18/1/2 19/1/2
f 19/1/2 18/1/2 20/1/2
f 19/2/2 20/2/2 21/2/2
f 21/2/2 20/2/2 22/2/2
f 21/1/2 22/1/2 23/1/2
f 23/1/2 22/1/2 24/1/2
f 23/2/2 24/2/2 25/2/2
f 25/2/2 24/2/2 26/2/2
f 25/1/2 26/1/2 27/1/2
f 27/1/2 26/1/2 28/1/2
f 27/3/2 28/3/2 29/3/2
f 29/3/2 28/3/2 30/3/2
f 34/3/3 32/3/3 31/3/3
f 35/3/3 32/3/3 34/3/3
f 37/3/3 34/3/3 33/3/3
f 37/3/3 36/3/3 35/3/3
f 37/3/3 35/3/3 34/3/3
f 38/3/3 36/3/3 37/3/3
f 39/3/3 36/3/3 38/3/3
f 40/3/3 36/3/3 39/3/3
f 41/3/3 36/3/3 40/3/3
f 42/3/3 36/3/3 41/3/3
f 43/3/3 36/3/3 42/3/3
f 44/3/3 37/3/3 33/3/3
f 45/2/3 38/2/3 37/2/3
f 45/3/3 37/3/3 44/3/3
f 46/1/3 39/1/3 38/1/3
f 46/2/3 38/2/3 45/2/3
f 47/2/3 40/2/3 39/2/3
f 47/1/3 39/1/3 46/1/3
f 48/1/3 41/1/3 40/1/3
f 48/2/3 40/2/3 47/2/3
f 49/2/3 42/2/3 41/2/3
f 49/1/3 41/1/3 48/1/3
f 50/1/3 43/1/3 42/1/3
f 50/2/3 42/2/3 49/2/3
f 51/3/3 36/3/3 43/3/3
f 51/1/3 43/1/3 50/1/3
f 52/3/3 36/3/3 51/3/3
f 53/3/4 54/3/4 56/3/4
f 56/3/4 54/3/4 57/3/4
f 55/3/4 56/3/4 59/3/4
f 57/3/4 58/3/4 59/3/4
f 56/3/4 57/3/4 59/3/4
f 59/3/4 58/3/4 60/3/4
f 60/3/4 58/3/4 61/3/4
f 61/3/4 58/3/4 62/3/4
f 62/3/4 58/3/4 63/3/4
f 63/3/4 58/3/4 64/3/4
f 64/3/4 58/3/4 65/3/4
f 55/3/4 59/3/4 66/3/4
f 59/2/4 60/2/4 67/2/4
f 66/3/4 59/3/4 67/3/4
f 60/1/4 61/1/4 68/1/4
f 67/2/4 60/2/4 68/2/4
f 61/2/4 62/2/4 69/2/4
f 68/1/4 61/1/4 69/1/4
f 62/1/4 63/1/4 70/1/4
f 69/2/4 62/2/4 70/2/4
f 63/2/4 64/2/4 71/2/4
f 70/1/4 63/1/4 71/1/4
f 64/1/4 65/1/4 72/1/4
f 71/2/4 64/2/4 72/2/4
f 65/3/4 58/3/4 73/3/4
f 72/1/4 65/1/4 73/1/4
f 73/3/4 58/3/4 74/3/4
f 77/3/5 76/3/5 75/3/5
f 78/3/5 76/3/5 77/3/5
f 81/3/5 80/3/5 79/3/5
f 82/3/5 80/3/5 81/3/5
f 83/3/6 84/3/6 85/3/6
f 85/3/6 84/3/6 86/3/6
f 87/3/6 88/3/6 89/3/6
f 89/3/6 88/3/6 90/3/6
