# MagicaVoxel @ Ephtracy

# group
o 

# material
mtllib skovord.mtl
usemtl palette

# normals
vn -1 0 0
vn 1 0 0
vn 0 0 1
vn 0 0 -1
vn 0 -1 0
vn 0 1 0

# texcoords
vt 0.986328 0.5
vt 0.990234 0.5

# verts
v -1.3 0 1.6
v -1.3 0 -1.6
v -1.3 0.1 1.5
v -1.3 0.1 1.4
v -1.3 0.2 1.6
v -1.3 0.2 1.5
v -1.3 0.2 1.4
v -1.3 0.2 -1.6
v 0.5 0.1 1.5
v 0.5 0.1 -1.5
v 0.5 0.2 1.5
v 0.5 0.2 -1.5
v 0.7 0.2 0.1
v 0.7 0.2 -0.2
v 0.7 0.3 0.1
v 0.7 0.3 -0.2
v -1.2 0.1 1.4
v -1.2 0.1 -1.5
v -1.2 0.2 1.4
v -1.2 0.2 -1.5
v 0.6 0 1.6
v 0.6 0 -1.6
v 0.6 0.1 0.1
v 0.6 0.1 -0.2
v 0.6 0.2 1.6
v 0.6 0.2 0.1
v 0.6 0.2 -0.2
v 0.6 0.2 -1.6
v 0.7 0.1 0.1
v 0.7 0.1 -0.2
v 0.7 0.2 0.1
v 0.7 0.2 -0.2
v 2 0.2 0.1
v 2 0.2 -0.2
v 2 0.3 0.1
v 2 0.3 -0.2
v -1.3 0 1.6
v -1.3 0.2 1.6
v 0.6 0 1.6
v 0.6 0.2 1.6
v -1.3 0.1 1.4
v -1.3 0.2 1.4
v -1.2 0.1 1.4
v -1.2 0.2 1.4
v 0.6 0.1 0.1
v 0.6 0.2 0.1
v 0.7 0.1 0.1
v 0.7 0.2 0.1
v 0.7 0.3 0.1
v 2 0.2 0.1
v 2 0.3 0.1
v -1.2 0.1 -1.5
v -1.2 0.2 -1.5
v 0.5 0.1 -1.5
v 0.5 0.2 -1.5
v -1.3 0.1 1.5
v -1.3 0.2 1.5
v 0.5 0.1 1.5
v 0.5 0.2 1.5
v 0.6 0.1 -0.2
v 0.6 0.2 -0.2
v 0.7 0.1 -0.2
v 0.7 0.2 -0.2
v 0.7 0.3 -0.2
v 2 0.2 -0.2
v 2 0.3 -0.2
v -1.3 0 -1.6
v -1.3 0.2 -1.6
v 0.6 0 -1.6
v 0.6 0.2 -1.6
v -1.3 0 1.6
v 0.6 0 1.6
v -1.3 0 -1.6
v 0.6 0 -1.6
v 0.6 0.1 0.1
v 0.7 0.1 0.1
v 0.6 0.1 -0.2
v 0.7 0.1 -0.2
v 0.7 0.2 0.1
v 2 0.2 0.1
v 0.7 0.2 -0.2
v 2 0.2 -0.2
v -1.3 0.1 1.5
v 0.5 0.1 1.5
v -1.3 0.1 1.4
v -1.2 0.1 1.4
v -1.2 0.1 -1.5
v 0.5 0.1 -1.5
v -1.3 0.2 1.6
v 0.6 0.2 1.6
v -1.3 0.2 1.5
v 0.5 0.2 1.5
v -1.3 0.2 1.4
v -1.2 0.2 1.4
v 0.6 0.2 0.1
v 0.7 0.2 0.1
v 0.6 0.2 -0.2
v 0.7 0.2 -0.2
v -1.2 0.2 -1.5
v 0.5 0.2 -1.5
v -1.3 0.2 -1.6
v 0.6 0.2 -1.6
v 0.7 0.3 0.1
v 2 0.3 0.1
v 0.7 0.3 -0.2
v 2 0.3 -0.2

# faces
f 3/2/1 2/2/1 1/2/1
f 4/2/1 2/2/1 3/2/1
f 5/2/1 3/2/1 1/2/1
f 6/2/1 3/2/1 5/2/1
f 7/2/1 2/2/1 4/2/1
f 8/2/1 2/2/1 7/2/1
f 11/2/1 10/2/1 9/2/1
f 12/2/1 10/2/1 11/2/1
f 15/1/1 14/1/1 13/1/1
f 16/1/1 14/1/1 15/1/1
f 17/2/2 18/2/2 19/2/2
f 19/2/2 18/2/2 20/2/2
f 21/2/2 22/2/2 23/2/2
f 23/2/2 22/2/2 24/2/2
f 21/2/2 23/2/2 25/2/2
f 25/2/2 23/2/2 26/2/2
f 24/2/2 22/2/2 27/2/2
f 27/2/2 22/2/2 28/2/2
f 29/1/2 30/1/2 31/1/2
f 31/1/2 30/1/2 32/1/2
f 33/1/2 34/1/2 35/1/2
f 35/1/2 34/1/2 36/1/2
f 39/2/3 38/2/3 37/2/3
f 40/2/3 38/2/3 39/2/3
f 43/2/3 42/2/3 41/2/3
f 44/2/3 42/2/3 43/2/3
f 47/1/3 46/1/3 45/1/3
f 48/1/3 46/1/3 47/1/3
f 50/1/3 49/1/3 48/1/3
f 51/1/3 49/1/3 50/1/3
f 54/2/3 53/2/3 52/2/3
f 55/2/3 53/2/3 54/2/3
f 56/2/4 57/2/4 58/2/4
f 58/2/4 57/2/4 59/2/4
f 60/1/4 61/1/4 62/1/4
f 62/1/4 61/1/4 63/1/4
f 63/1/4 64/1/4 65/1/4
f 65/1/4 64/1/4 66/1/4
f 67/2/4 68/2/4 69/2/4
f 69/2/4 68/2/4 70/2/4
f 73/2/5 72/2/5 71/2/5
f 74/2/5 72/2/5 73/2/5
f 77/1/5 76/1/5 75/1/5
f 78/1/5 76/1/5 77/1/5
f 81/1/5 80/1/5 79/1/5
f 82/1/5 80/1/5 81/1/5
f 83/2/6 84/2/6 85/2/6
f 85/2/6 84/2/6 86/2/6
f 86/2/6 84/2/6 87/2/6
f 87/2/6 84/2/6 88/2/6
f 89/2/6 90/2/6 91/2/6
f 91/2/6 90/2/6 92/2/6
f 92/2/6 90/2/6 95/2/6
f 92/2/6 95/2/6 97/2/6
f 95/1/6 96/1/6 97/1/6
f 97/1/6 96/1/6 98/1/6
f 93/2/6 94/2/6 99/2/6
f 92/2/6 97/2/6 100/2/6
f 93/2/6 99/2/6 101/2/6
f 99/2/6 100/2/6 101/2/6
f 100/2/6 97/2/6 102/2/6
f 101/2/6 100/2/6 102/2/6
f 103/1/6 104/1/6 105/1/6
f 105/1/6 104/1/6 106/1/6
