# MagicaVoxel @ Ephtracy

# group
o 

# material
mtllib CoopSHT-3.mtl
usemtl palette

# normals
vn -1 0 0
vn 1 0 0
vn 0 0 1
vn 0 0 -1
vn 0 -1 0
vn 0 1 0

# texcoords
vt 0.861328 0.5
vt 0.873047 0.5
vt 0.947266 0.5
vt 0.986328 0.5
vt 0.990234 0.5

# verts
v 0.8 1.6 0.5
v 0.8 1.6 -0.1
v 0.8 1.8 0.5
v 0.8 1.8 0.4
v 0.8 1.9 0.4
v 0.8 1.9 -0.1
v 0.8 2.5 0.5
v 0.8 2.5 0.4
v 0.8 2.5 0
v 0.8 2.5 -0.1
v 0.8 2.7 0.5
v 0.8 2.7 0.4
v 0.8 2.7 0
v 0.8 2.7 -0.1
v 0.8 3.2 0.4
v 0.8 3.2 0
v 0.8 3.3 0.5
v 0.8 3.3 0.4
v 0.8 3.3 0
v 0.8 3.3 -0.1
v 1 3.2 0.5
v 1 3.2 0.4
v 1 3.2 0
v 1 3.2 -0.1
v 1 3.3 0.5
v 1 3.3 0.4
v 1 3.3 0
v 1 3.3 -0.1
v 1.1 3.1 0.5
v 1.1 3.1 0.4
v 1.1 3.1 0
v 1.1 3.1 -0.1
v 1.1 3.2 0.5
v 1.1 3.2 0.4
v 1.1 3.2 0
v 1.1 3.2 -0.1
v 1.1 3.3 0.4
v 1.1 3.3 0
v 1.2 1.6 0.5
v 1.2 1.6 -0.1
v 1.2 1.8 0.5
v 1.2 1.8 -0.1
v 1.2 1.9 0.4
v 1.2 1.9 0
v 1.2 2.4 0.4
v 1.2 2.4 0
v 1.2 2.5 0.5
v 1.2 2.5 0.4
v 1.2 2.5 0
v 1.2 2.5 -0.1
v 1.2 2.7 0.5
v 1.2 2.7 0.4
v 1.2 2.7 0
v 1.2 2.7 -0.1
v 1.2 2.8 0.4
v 1.2 2.8 0
v 1.2 3.1 0.5
v 1.2 3.1 0.4
v 1.2 3.1 0
v 1.2 3.1 -0.1
v 1.2 3.2 0.4
v 1.2 3.2 0
v 1.3 2.4 0.4
v 1.3 2.4 0
v 1.3 2.8 0.4
v 1.3 2.8 0
v 0.8 1.6 0.5
v 0.8 1.8 0.5
v 0.8 2.5 0.5
v 0.8 2.7 0.5
v 0.8 3.3 0.5
v 1 3.2 0.5
v 1 3.3 0.5
v 1.1 3.1 0.5
v 1.1 3.2 0.5
v 1.2 1.6 0.5
v 1.2 1.8 0.5
v 1.2 2.5 0.5
v 1.2 2.7 0.5
v 1.2 3.1 0.5
v 1 3.2 0.4
v 1 3.3 0.4
v 1.1 3.1 0.4
v 1.1 3.2 0.4
v 1.1 3.3 0.4
v 1.2 2.4 0.4
v 1.2 2.5 0.4
v 1.2 2.7 0.4
v 1.2 2.8 0.4
v 1.2 3.1 0.4
v 1.2 3.2 0.4
v 1.3 2.4 0.4
v 1.3 2.8 0.4
v 1 3.2 0
v 1 3.3 0
v 1.1 3.1 0
v 1.1 3.2 0
v 1.1 3.3 0
v 1.2 2.4 0
v 1.2 2.5 0
v 1.2 2.7 0
v 1.2 2.8 0
v 1.2 3.1 0
v 1.2 3.2 0
v 1.3 2.4 0
v 1.3 2.8 0
v 0.8 1.6 -0.1
v 0.8 1.9 -0.1
v 0.8 2.5 -0.1
v 0.8 2.7 -0.1
v 0.8 3.3 -0.1
v 1 3.2 -0.1
v 1 3.3 -0.1
v 1.1 1.8 -0.1
v 1.1 1.9 -0.1
v 1.1 3.1 -0.1
v 1.1 3.2 -0.1
v 1.2 1.6 -0.1
v 1.2 1.8 -0.1
v 1.2 2.5 -0.1
v 1.2 2.7 -0.1
v 1.2 3.1 -0.1
v 0.8 1.6 0.5
v 1.2 1.6 0.5
v 0.8 1.6 -0.1
v 1.2 1.6 -0.1
v 1.2 2.4 0.4
v 1.3 2.4 0.4
v 1.2 2.4 0
v 1.3 2.4 0
v 1.2 2.8 0.4
v 1.3 2.8 0.4
v 1.2 2.8 0
v 1.3 2.8 0
v 1.1 3.1 0.5
v 1.2 3.1 0.5
v 1.1 3.1 0.4
v 1.2 3.1 0.4
v 1.1 3.1 0
v 1.2 3.1 0
v 1.1 3.1 -0.1
v 1.2 3.1 -0.1
v 1 3.2 0.5
v 1.1 3.2 0.5
v 1 3.2 0.4
v 1.1 3.2 0.4
v 1.2 3.2 0.4
v 1 3.2 0
v 1.1 3.2 0
v 1.2 3.2 0
v 1 3.2 -0.1
v 1.1 3.2 -0.1
v 0.8 3.3 0.5
v 1 3.3 0.5
v 0.8 3.3 0.4
v 1 3.3 0.4
v 1.1 3.3 0.4
v 0.8 3.3 0
v 1 3.3 0
v 1.1 3.3 0
v 0.8 3.3 -0.1
v 1 3.3 -0.1

# faces
f 3/4/1 2/4/1 1/4/1
f 4/4/1 2/4/1 3/4/1
f 5/2/1 4/2/1 3/2/1
f 5/4/1 2/4/1 4/4/1
f 6/4/1 2/4/1 5/4/1
f 7/2/1 5/2/1 3/2/1
f 7/2/1 6/2/1 5/2/1
f 8/2/1 6/2/1 7/2/1
f 9/2/1 6/2/1 8/2/1
f 10/2/1 6/2/1 9/2/1
f 11/4/1 8/4/1 7/4/1
f 12/2/1 9/2/1 8/2/1
f 12/4/1 8/4/1 11/4/1
f 13/4/1 10/4/1 9/4/1
f 13/2/1 9/2/1 12/2/1
f 14/4/1 10/4/1 13/4/1
f 15/2/1 12/2/1 11/2/1
f 15/2/1 13/2/1 12/2/1
f 15/2/1 14/2/1 13/2/1
f 16/2/1 14/2/1 15/2/1
f 17/2/1 15/2/1 11/2/1
f 18/1/1 16/1/1 15/1/1
f 18/2/1 15/2/1 17/2/1
f 19/2/1 14/2/1 16/2/1
f 19/1/1 16/1/1 18/1/1
f 20/2/1 14/2/1 19/2/1
f 21/2/2 22/2/2 25/2/2
f 25/2/2 22/2/2 26/2/2
f 23/2/2 24/2/2 27/2/2
f 27/2/2 24/2/2 28/2/2
f 29/2/2 30/2/2 33/2/2
f 33/2/2 30/2/2 34/2/2
f 31/2/2 32/2/2 35/2/2
f 35/2/2 32/2/2 36/2/2
f 34/1/2 35/1/2 37/1/2
f 37/1/2 35/1/2 38/1/2
f 39/4/2 40/4/2 41/4/2
f 41/4/2 40/4/2 42/4/2
f 41/2/2 42/2/2 43/2/2
f 43/2/2 42/2/2 44/2/2
f 41/2/2 43/2/2 45/2/2
f 43/1/2 44/1/2 45/1/2
f 44/2/2 42/2/2 46/2/2
f 45/1/2 44/1/2 46/1/2
f 41/2/2 45/2/2 47/2/2
f 47/2/2 45/2/2 48/2/2
f 46/2/2 42/2/2 49/2/2
f 49/2/2 42/2/2 50/2/2
f 47/4/2 48/4/2 51/4/2
f 51/4/2 48/4/2 52/4/2
f 49/4/2 50/4/2 53/4/2
f 53/4/2 50/4/2 54/4/2
f 51/2/2 52/2/2 55/2/2
f 53/2/2 54/2/2 56/2/2
f 51/2/2 55/2/2 57/2/2
f 55/1/2 56/1/2 58/1/2
f 57/2/2 55/2/2 58/2/2
f 56/2/2 54/2/2 59/2/2
f 58/1/2 56/1/2 59/1/2
f 59/2/2 54/2/2 60/2/2
f 58/1/2 59/1/2 61/1/2
f 61/1/2 59/1/2 62/1/2
f 63/5/2 64/5/2 65/5/2
f 65/5/2 64/5/2 66/5/2
f 72/2/3 71/2/3 70/2/3
f 73/2/3 71/2/3 72/2/3
f 74/2/3 72/2/3 70/2/3
f 75/2/3 72/2/3 74/2/3
f 76/4/3 68/4/3 67/4/3
f 77/2/3 69/2/3 68/2/3
f 77/4/3 68/4/3 76/4/3
f 78/4/3 70/4/3 69/4/3
f 78/2/3 69/2/3 77/2/3
f 79/2/3 74/2/3 70/2/3
f 79/4/3 70/4/3 78/4/3
f 80/2/3 74/2/3 79/2/3
f 84/1/3 82/1/3 81/1/3
f 85/1/3 82/1/3 84/1/3
f 90/1/3 84/1/3 83/1/3
f 91/1/3 84/1/3 90/1/3
f 92/5/3 89/5/3 88/5/3
f 92/5/3 87/5/3 86/5/3
f 92/5/3 88/5/3 87/5/3
f 93/5/3 89/5/3 92/5/3
f 94/1/4 95/1/4 97/1/4
f 97/1/4 95/1/4 98/1/4
f 96/1/4 97/1/4 103/1/4
f 103/1/4 97/1/4 104/1/4
f 101/5/4 102/5/4 105/5/4
f 99/5/4 100/5/4 105/5/4
f 100/5/4 101/5/4 105/5/4
f 105/5/4 102/5/4 106/5/4
f 110/2/4 111/2/4 112/2/4
f 112/2/4 111/2/4 113/2/4
f 107/4/4 108/4/4 114/4/4
f 108/2/4 109/2/4 115/2/4
f 114/4/4 108/4/4 115/4/4
f 110/2/4 112/2/4 116/2/4
f 116/2/4 112/2/4 117/2/4
f 107/4/4 114/4/4 118/4/4
f 114/2/4 115/2/4 119/2/4
f 118/4/4 114/4/4 119/4/4
f 109/4/4 110/4/4 120/4/4
f 119/2/4 115/2/4 120/2/4
f 115/2/4 109/2/4 120/2/4
f 110/2/4 116/2/4 121/2/4
f 120/4/4 110/4/4 121/4/4
f 121/2/4 116/2/4 122/2/4
f 125/4/5 124/4/5 123/4/5
f 126/4/5 124/4/5 125/4/5
f 129/5/5 128/5/5 127/5/5
f 130/5/5 128/5/5 129/5/5
f 131/5/6 132/5/6 133/5/6
f 133/5/6 132/5/6 134/5/6
f 135/2/6 136/2/6 137/2/6
f 137/2/6 136/2/6 138/2/6
f 139/2/6 140/2/6 141/2/6
f 141/2/6 140/2/6 142/2/6
f 143/2/6 144/2/6 145/2/6
f 145/2/6 144/2/6 146/2/6
f 146/1/6 147/1/6 149/1/6
f 149/1/6 147/1/6 150/1/6
f 148/2/6 149/2/6 151/2/6
f 151/2/6 149/2/6 152/2/6
f 153/2/6 154/2/6 155/2/6
f 155/2/6 154/2/6 156/2/6
f 155/1/6 156/1/6 158/1/6
f 156/1/6 157/1/6 158/1/6
f 158/1/6 157/1/6 159/1/6
f 159/1/6 157/1/6 160/1/6
f 158/2/6 159/2/6 161/2/6
f 161/2/6 159/2/6 162/2/6
