# MagicaVoxel @ Ephtracy

# group
o 

# material
mtllib CoopSHT-1.mtl
usemtl palette

# normals
vn -1 0 0
vn 1 0 0
vn 0 0 1
vn 0 0 -1
vn 0 -1 0
vn 0 1 0

# texcoords
vt 0.951172 0.5
vt 0.986328 0.5
vt 0.990234 0.5

# verts
v -0.8 0 0.7
v -0.8 0 0
v -0.8 0.2 0.7
v -0.8 0.2 0.4
v -0.8 0.3 0.4
v -0.8 0.3 0
v -0.8 0.4 0.4
v -0.8 0.4 0.3
v -0.8 0.6 0.4
v -0.8 0.6 0.3
v -0.8 0.7 0.5
v -0.8 0.7 0.4
v -0.8 0.7 0
v -0.8 1 0.5
v -0.8 1 0.4
v -0.8 1 0
v -0.8 1.2 0.4
v -0.8 1.2 0.3
v -0.8 1.5 0.4
v -0.8 1.5 0.3
v -0.8 1.6 0.4
v -0.8 1.6 0
v -0.4 0 0.7
v -0.4 0 0
v -0.4 0.2 0.7
v -0.4 0.2 0.4
v -0.4 0.3 0.4
v -0.4 0.3 0
v -0.4 0.4 0.4
v -0.4 0.4 0.3
v -0.4 0.6 0.4
v -0.4 0.6 0.3
v -0.4 0.7 0.5
v -0.4 0.7 0.4
v -0.4 0.7 0
v -0.4 1 0.5
v -0.4 1 0.4
v -0.4 1 0
v -0.4 1.2 0.4
v -0.4 1.2 0
v -0.3 1.2 0.4
v -0.3 1.2 0
v -0.3 1.3 0.4
v -0.3 1.3 0
v -0.2 1.3 0.4
v -0.2 1.3 0
v -0.2 1.4 0.4
v -0.2 1.4 0
v -0.1 1.4 0.4
v -0.1 1.4 0
v -0.1 1.5 0.4
v -0.1 1.5 0
v 0 1.5 0.4
v 0 1.5 0
v 0 1.6 0.4
v 0 1.6 0
v -0.8 0 0.7
v -0.8 0.2 0.7
v -0.4 0 0.7
v -0.4 0.2 0.7
v -0.8 0.7 0.5
v -0.8 1 0.5
v -0.4 0.7 0.5
v -0.4 1 0.5
v -0.8 0.2 0.4
v -0.8 0.3 0.4
v -0.8 0.4 0.4
v -0.8 0.6 0.4
v -0.8 0.7 0.4
v -0.8 1 0.4
v -0.8 1.2 0.4
v -0.8 1.5 0.4
v -0.8 1.6 0.4
v -0.4 0.2 0.4
v -0.4 0.3 0.4
v -0.4 0.4 0.4
v -0.4 0.6 0.4
v -0.4 0.7 0.4
v -0.4 1 0.4
v -0.4 1.2 0.4
v -0.4 1.5 0.4
v -0.3 1.2 0.4
v -0.3 1.3 0.4
v -0.2 1.3 0.4
v -0.2 1.4 0.4
v -0.1 1.4 0.4
v -0.1 1.5 0.4
v 0 1.5 0.4
v 0 1.6 0.4
v -0.8 0 0
v -0.8 0.3 0
v -0.8 0.7 0
v -0.8 1 0
v -0.8 1.6 0
v -0.7 0.8 0
v -0.7 0.9 0
v -0.5 0.8 0
v -0.5 0.9 0
v -0.4 0 0
v -0.4 0.3 0
v -0.4 0.7 0
v -0.4 1 0
v -0.4 1.2 0
v -0.3 1.2 0
v -0.3 1.3 0
v -0.2 1.3 0
v -0.2 1.4 0
v -0.1 1.4 0
v -0.1 1.5 0
v 0 1.5 0
v 0 1.6 0
v -0.8 0 0.7
v -0.4 0 0.7
v -0.8 0 0
v -0.4 0 0
v -0.8 0.7 0.5
v -0.4 0.7 0.5
v -0.8 0.7 0.4
v -0.4 0.7 0.4
v -0.4 1.2 0.4
v -0.3 1.2 0.4
v -0.4 1.2 0
v -0.3 1.2 0
v -0.3 1.3 0.4
v -0.2 1.3 0.4
v -0.3 1.3 0
v -0.2 1.3 0
v -0.2 1.4 0.4
v -0.1 1.4 0.4
v -0.2 1.4 0
v -0.1 1.4 0
v -0.1 1.5 0.4
v 0 1.5 0.4
v -0.1 1.5 0
v 0 1.5 0
v -0.8 0.2 0.7
v -0.4 0.2 0.7
v -0.8 0.2 0.4
v -0.4 0.2 0.4
v -0.8 1 0.5
v -0.4 1 0.5
v -0.8 1 0.4
v -0.4 1 0.4
v -0.8 1.6 0.4
v 0 1.6 0.4
v -0.7 1.6 0.3
v -0.1 1.6 0.3
v -0.7 1.6 0.1
v -0.1 1.6 0.1
v -0.8 1.6 0
v 0 1.6 0

# faces
f 3/3/1 2/3/1 1/3/1
f 4/3/1 2/3/1 3/3/1
f 5/3/1 2/3/1 4/3/1
f 6/3/1 2/3/1 5/3/1
f 7/2/1 6/2/1 5/2/1
f 8/2/1 6/2/1 7/2/1
f 9/3/1 8/3/1 7/3/1
f 10/2/1 6/2/1 8/2/1
f 10/3/1 8/3/1 9/3/1
f 12/2/1 10/2/1 9/2/1
f 13/2/1 6/2/1 10/2/1
f 13/2/1 10/2/1 12/2/1
f 14/3/1 12/3/1 11/3/1
f 14/3/1 13/3/1 12/3/1
f 15/3/1 13/3/1 14/3/1
f 16/3/1 13/3/1 15/3/1
f 17/2/1 16/2/1 15/2/1
f 18/2/1 16/2/1 17/2/1
f 19/3/1 18/3/1 17/3/1
f 20/2/1 16/2/1 18/2/1
f 20/3/1 18/3/1 19/3/1
f 21/2/1 20/2/1 19/2/1
f 22/2/1 16/2/1 20/2/1
f 22/2/1 20/2/1 21/2/1
f 23/3/2 24/3/2 25/3/2
f 25/3/2 24/3/2 26/3/2
f 26/3/2 24/3/2 27/3/2
f 27/3/2 24/3/2 28/3/2
f 27/2/2 28/2/2 29/2/2
f 29/2/2 28/2/2 30/2/2
f 29/3/2 30/3/2 31/3/2
f 30/2/2 28/2/2 32/2/2
f 31/3/2 30/3/2 32/3/2
f 31/2/2 32/2/2 34/2/2
f 32/2/2 28/2/2 35/2/2
f 34/2/2 32/2/2 35/2/2
f 33/3/2 34/3/2 36/3/2
f 34/3/2 35/3/2 36/3/2
f 36/3/2 35/3/2 37/3/2
f 37/3/2 35/3/2 38/3/2
f 37/2/2 38/2/2 39/2/2
f 39/2/2 38/2/2 40/2/2
f 41/2/2 42/2/2 43/2/2
f 43/2/2 42/2/2 44/2/2
f 45/2/2 46/2/2 47/2/2
f 47/2/2 46/2/2 48/2/2
f 49/2/2 50/2/2 51/2/2
f 51/2/2 50/2/2 52/2/2
f 53/2/2 54/2/2 55/2/2
f 55/2/2 54/2/2 56/2/2
f 59/3/3 58/3/3 57/3/3
f 60/3/3 58/3/3 59/3/3
f 63/3/3 62/3/3 61/3/3
f 64/3/3 62/3/3 63/3/3
f 74/3/3 66/3/3 65/3/3
f 75/2/3 67/2/3 66/2/3
f 75/3/3 66/3/3 74/3/3
f 76/3/3 68/3/3 67/3/3
f 76/2/3 67/2/3 75/2/3
f 77/2/3 69/2/3 68/2/3
f 77/3/3 68/3/3 76/3/3
f 78/2/3 69/2/3 77/2/3
f 79/2/3 71/2/3 70/2/3
f 80/3/3 72/3/3 71/3/3
f 80/2/3 71/2/3 79/2/3
f 81/2/3 73/2/3 72/2/3
f 81/3/3 72/3/3 80/3/3
f 82/2/3 81/2/3 80/2/3
f 83/2/3 81/2/3 82/2/3
f 84/2/3 81/2/3 83/2/3
f 85/2/3 81/2/3 84/2/3
f 86/2/3 81/2/3 85/2/3
f 87/2/3 73/2/3 81/2/3
f 87/2/3 81/2/3 86/2/3
f 88/2/3 73/2/3 87/2/3
f 89/2/3 73/2/3 88/2/3
f 92/3/4 93/3/4 95/3/4
f 95/3/4 93/3/4 96/3/4
f 92/3/4 95/3/4 97/3/4
f 95/2/4 96/2/4 97/2/4
f 96/3/4 93/3/4 98/3/4
f 97/2/4 96/2/4 98/2/4
f 90/3/4 91/3/4 99/3/4
f 91/2/4 92/2/4 100/2/4
f 99/3/4 91/3/4 100/3/4
f 92/3/4 97/3/4 101/3/4
f 100/2/4 92/2/4 101/2/4
f 97/3/4 98/3/4 101/3/4
f 98/3/4 93/3/4 102/3/4
f 101/3/4 98/3/4 102/3/4
f 93/2/4 94/2/4 102/2/4
f 102/2/4 94/2/4 103/2/4
f 103/2/4 94/2/4 104/2/4
f 104/2/4 94/2/4 105/2/4
f 105/2/4 94/2/4 106/2/4
f 106/2/4 94/2/4 107/2/4
f 107/2/4 94/2/4 108/2/4
f 108/2/4 94/2/4 109/2/4
f 109/2/4 94/2/4 110/2/4
f 110/2/4 94/2/4 111/2/4
f 114/3/5 113/3/5 112/3/5
f 115/3/5 113/3/5 114/3/5
f 118/3/5 117/3/5 116/3/5
f 119/3/5 117/3/5 118/3/5
f 122/2/5 121/2/5 120/2/5
f 123/2/5 121/2/5 122/2/5
f 126/2/5 125/2/5 124/2/5
f 127/2/5 125/2/5 126/2/5
f 130/2/5 129/2/5 128/2/5
f 131/2/5 129/2/5 130/2/5
f 134/2/5 133/2/5 132/2/5
f 135/2/5 133/2/5 134/2/5
f 136/3/6 137/3/6 138/3/6
f 138/3/6 137/3/6 139/3/6
f 140/3/6 141/3/6 142/3/6
f 142/3/6 141/3/6 143/3/6
f 144/2/6 145/2/6 146/2/6
f 146/2/6 145/2/6 147/2/6
f 144/2/6 146/2/6 148/2/6
f 146/3/6 147/3/6 148/3/6
f 147/2/6 145/2/6 149/2/6
f 148/3/6 147/3/6 149/3/6
f 144/2/6 148/2/6 150/2/6
f 148/2/6 149/2/6 150/2/6
f 149/2/6 145/2/6 151/2/6
f 150/2/6 149/2/6 151/2/6
