# MagicaVoxel @ Ephtracy

# group
o 

# material
mtllib JagerNaut-1.mtl
usemtl palette

# normals
vn -1 0 0
vn 1 0 0
vn 0 0 1
vn 0 0 -1
vn 0 -1 0
vn 0 1 0

# texcoords
vt 0.951172 0.5
vt 0.955078 0.5
vt 0.978516 0.5
vt 0.990234 0.5

# verts
v -0.8 0 0.7
v -0.8 0 0
v -0.8 0.2 0.7
v -0.8 0.2 0.4
v -0.8 0.5 0.4
v -0.8 0.5 0
v -0.8 0.7 0.4
v -0.8 0.7 0
v -0.8 0.8 0.4
v -0.8 0.8 0
v -0.8 0.9 0.4
v -0.8 0.9 0
v -0.8 1 0.4
v -0.8 1 0
v -0.8 1.6 0.3
v -0.8 1.6 0.1
v -0.8 1.7 0.4
v -0.8 1.7 0.3
v -0.8 1.7 0.1
v -0.8 1.7 0
v -0.1 1.6 0.5
v -0.1 1.6 0.4
v -0.1 1.7 0.5
v -0.1 1.7 0.4
v -0.4 0 0.7
v -0.4 0 0
v -0.4 0.2 0.7
v -0.4 0.2 0.4
v -0.4 0.5 0.4
v -0.4 0.5 0
v -0.4 0.7 0.4
v -0.4 0.7 0
v -0.4 0.8 0.4
v -0.4 0.8 0
v -0.4 0.9 0.4
v -0.4 0.9 0
v -0.4 1 0.4
v -0.4 1 0
v -0.4 1.2 0.4
v -0.4 1.2 0
v -0.3 1.2 0.4
v -0.3 1.2 0
v -0.3 1.3 0.4
v -0.3 1.3 0
v -0.2 1.3 0.4
v -0.2 1.3 0
v -0.2 1.4 0.4
v -0.2 1.4 0
v -0.1 1.4 0.4
v -0.1 1.4 0
v -0.1 1.5 0.4
v -0.1 1.5 0
v 0 1.5 0.4
v 0 1.5 0
v 0 1.6 0.5
v 0 1.6 0.4
v 0 1.6 0.1
v 0 1.7 0.5
v 0 1.7 0.4
v 0 1.7 0.1
v 0 1.7 0
v -0.8 0 0.7
v -0.8 0.2 0.7
v -0.4 0 0.7
v -0.4 0.2 0.7
v -0.1 1.6 0.5
v -0.1 1.7 0.5
v 0 1.6 0.5
v 0 1.7 0.5
v -0.8 0.2 0.4
v -0.8 0.5 0.4
v -0.8 0.7 0.4
v -0.8 0.8 0.4
v -0.8 0.9 0.4
v -0.8 1 0.4
v -0.8 1.7 0.4
v -0.7 0.8 0.4
v -0.7 0.9 0.4
v -0.5 0.8 0.4
v -0.5 0.9 0.4
v -0.4 0.2 0.4
v -0.4 0.5 0.4
v -0.4 0.7 0.4
v -0.4 0.8 0.4
v -0.4 0.9 0.4
v -0.4 1 0.4
v -0.4 1.2 0.4
v -0.3 1.2 0.4
v -0.3 1.3 0.4
v -0.2 1.3 0.4
v -0.2 1.4 0.4
v -0.1 1.4 0.4
v -0.1 1.5 0.4
v -0.1 1.6 0.4
v -0.1 1.7 0.4
v 0 1.5 0.4
v 0 1.6 0.4
v -0.8 0 0
v -0.8 0.5 0
v -0.8 0.7 0
v -0.8 0.8 0
v -0.8 0.9 0
v -0.8 1 0
v -0.8 1.7 0
v -0.4 0 0
v -0.4 0.5 0
v -0.4 0.7 0
v -0.4 0.8 0
v -0.4 0.9 0
v -0.4 1 0
v -0.4 1.2 0
v -0.3 1.2 0
v -0.3 1.3 0
v -0.2 1.3 0
v -0.2 1.4 0
v -0.1 1.4 0
v -0.1 1.5 0
v 0 1.5 0
v 0 1.7 0
v -0.8 0 0.7
v -0.4 0 0.7
v -0.7 0 0.6
v -0.5 0 0.6
v -0.7 0 0.1
v -0.5 0 0.1
v -0.8 0 0
v -0.4 0 0
v -0.4 1.2 0.4
v -0.3 1.2 0.4
v -0.4 1.2 0
v -0.3 1.2 0
v -0.3 1.3 0.4
v -0.2 1.3 0.4
v -0.3 1.3 0
v -0.2 1.3 0
v -0.2 1.4 0.4
v -0.1 1.4 0.4
v -0.2 1.4 0
v -0.1 1.4 0
v -0.1 1.5 0.4
v 0 1.5 0.4
v -0.1 1.5 0
v 0 1.5 0
v -0.1 1.6 0.5
v 0 1.6 0.5
v -0.1 1.6 0.4
v 0 1.6 0.4
v -0.8 0.2 0.7
v -0.4 0.2 0.7
v -0.8 0.2 0.4
v -0.4 0.2 0.4
v -0.1 1.7 0.5
v 0 1.7 0.5
v -0.8 1.7 0.4
v -0.1 1.7 0.4
v 0 1.7 0.4
v -0.8 1.7 0.3
v -0.1 1.7 0.3
v -0.8 1.7 0.1
v 0 1.7 0.1
v -0.8 1.7 0
v 0 1.7 0

# faces
f 3/4/1 2/4/1 1/4/1
f 4/4/1 2/4/1 3/4/1
f 5/4/1 2/4/1 4/4/1
f 6/4/1 2/4/1 5/4/1
f 7/2/1 6/2/1 5/2/1
f 8/2/1 6/2/1 7/2/1
f 9/4/1 8/4/1 7/4/1
f 10/4/1 8/4/1 9/4/1
f 11/2/1 10/2/1 9/2/1
f 12/2/1 10/2/1 11/2/1
f 13/4/1 12/4/1 11/4/1
f 14/4/1 12/4/1 13/4/1
f 15/2/1 14/2/1 13/2/1
f 16/2/1 14/2/1 15/2/1
f 17/2/1 15/2/1 13/2/1
f 18/4/1 16/4/1 15/4/1
f 18/2/1 15/2/1 17/2/1
f 19/2/1 14/2/1 16/2/1
f 19/4/1 16/4/1 18/4/1
f 20/2/1 14/2/1 19/2/1
f 23/3/1 22/3/1 21/3/1
f 24/3/1 22/3/1 23/3/1
f 25/4/2 26/4/2 27/4/2
f 27/4/2 26/4/2 28/4/2
f 28/4/2 26/4/2 29/4/2
f 29/4/2 26/4/2 30/4/2
f 29/2/2 30/2/2 31/2/2
f 31/2/2 30/2/2 32/2/2
f 31/4/2 32/4/2 33/4/2
f 33/4/2 32/4/2 34/4/2
f 33/2/2 34/2/2 35/2/2
f 35/2/2 34/2/2 36/2/2
f 35/4/2 36/4/2 37/4/2
f 37/4/2 36/4/2 38/4/2
f 37/2/2 38/2/2 39/2/2
f 39/2/2 38/2/2 40/2/2
f 41/2/2 42/2/2 43/2/2
f 43/2/2 42/2/2 44/2/2
f 45/2/2 46/2/2 47/2/2
f 47/2/2 46/2/2 48/2/2
f 49/2/2 50/2/2 51/2/2
f 51/2/2 50/2/2 52/2/2
f 53/2/2 54/2/2 56/2/2
f 56/2/2 54/2/2 57/2/2
f 55/3/2 56/3/2 58/3/2
f 56/4/2 57/4/2 59/4/2
f 58/3/2 56/3/2 59/3/2
f 57/2/2 54/2/2 60/2/2
f 59/4/2 57/4/2 60/4/2
f 60/2/2 54/2/2 61/2/2
f 64/4/3 63/4/3 62/4/3
f 65/4/3 63/4/3 64/4/3
f 68/3/3 67/3/3 66/3/3
f 69/3/3 67/3/3 68/3/3
f 77/4/3 73/4/3 72/4/3
f 77/2/3 74/2/3 73/2/3
f 78/4/3 75/4/3 74/4/3
f 78/2/3 74/2/3 77/2/3
f 79/4/3 77/4/3 72/4/3
f 79/4/3 78/4/3 77/4/3
f 80/4/3 75/4/3 78/4/3
f 80/4/3 78/4/3 79/4/3
f 81/4/3 71/4/3 70/4/3
f 82/2/3 72/2/3 71/2/3
f 82/4/3 71/4/3 81/4/3
f 83/4/3 79/4/3 72/4/3
f 83/2/3 72/2/3 82/2/3
f 84/2/3 80/2/3 79/2/3
f 84/4/3 79/4/3 83/4/3
f 85/4/3 75/4/3 80/4/3
f 85/2/3 80/2/3 84/2/3
f 86/2/3 76/2/3 75/2/3
f 86/4/3 75/4/3 85/4/3
f 87/2/3 76/2/3 86/2/3
f 88/2/3 76/2/3 87/2/3
f 89/2/3 76/2/3 88/2/3
f 90/2/3 76/2/3 89/2/3
f 91/2/3 76/2/3 90/2/3
f 92/2/3 76/2/3 91/2/3
f 93/2/3 76/2/3 92/2/3
f 94/2/3 76/2/3 93/2/3
f 95/2/3 76/2/3 94/2/3
f 96/2/3 94/2/3 93/2/3
f 97/2/3 94/2/3 96/2/3
f 98/4/4 99/4/4 105/4/4
f 99/2/4 100/2/4 106/2/4
f 105/4/4 99/4/4 106/4/4
f 100/4/4 101/4/4 107/4/4
f 106/2/4 100/2/4 107/2/4
f 101/2/4 102/2/4 108/2/4
f 107/4/4 101/4/4 108/4/4
f 102/4/4 103/4/4 109/4/4
f 108/2/4 102/2/4 109/2/4
f 103/2/4 104/2/4 110/2/4
f 109/4/4 103/4/4 110/4/4
f 110/2/4 104/2/4 111/2/4
f 111/2/4 104/2/4 112/2/4
f 112/2/4 104/2/4 113/2/4
f 113/2/4 104/2/4 114/2/4
f 114/2/4 104/2/4 115/2/4
f 115/2/4 104/2/4 116/2/4
f 116/2/4 104/2/4 117/2/4
f 117/2/4 104/2/4 118/2/4
f 118/2/4 104/2/4 119/2/4
f 122/4/5 121/4/5 120/4/5
f 123/4/5 121/4/5 122/4/5
f 124/4/5 122/4/5 120/4/5
f 124/1/5 123/1/5 122/1/5
f 125/4/5 121/4/5 123/4/5
f 125/1/5 123/1/5 124/1/5
f 126/4/5 124/4/5 120/4/5
f 126/4/5 125/4/5 124/4/5
f 127/4/5 121/4/5 125/4/5
f 127/4/5 125/4/5 126/4/5
f 130/2/5 129/2/5 128/2/5
f 131/2/5 129/2/5 130/2/5
f 134/2/5 133/2/5 132/2/5
f 135/2/5 133/2/5 134/2/5
f 138/2/5 137/2/5 136/2/5
f 139/2/5 137/2/5 138/2/5
f 142/2/5 141/2/5 140/2/5
f 143/2/5 141/2/5 142/2/5
f 146/3/5 145/3/5 144/3/5
f 147/3/5 145/3/5 146/3/5
f 148/4/6 149/4/6 150/4/6
f 150/4/6 149/4/6 151/4/6
f 152/3/6 153/3/6 155/3/6
f 155/3/6 153/3/6 156/3/6
f 154/2/6 155/2/6 157/2/6
f 155/4/6 156/4/6 158/4/6
f 157/2/6 155/2/6 158/2/6
f 157/4/6 158/4/6 159/4/6
f 158/4/6 156/4/6 160/4/6
f 159/4/6 158/4/6 160/4/6
f 159/2/6 160/2/6 161/2/6
f 161/2/6 160/2/6 162/2/6
