# MagicaVoxel @ Ephtracy

# group
o 

# material
mtllib JagerNaut-4.mtl
usemtl palette

# normals
vn -1 0 0
vn 1 0 0
vn 0 0 1
vn 0 0 -1
vn 0 -1 0
vn 0 1 0

# texcoords
vt 0.951172 0.5
vt 0.955078 0.5
vt 0.958984 0.5
vt 0.986328 0.5
vt 0.990234 0.5

# verts
v -0.5 3.4 0.6
v -0.5 3.4 0.5
v -0.5 3.4 -0.2
v -0.5 4 0.6
v -0.5 4 0.5
v -0.5 4 -0.2
v -0.4 4 0.5
v -0.4 4 -0.1
v -0.4 4.1 0.5
v -0.4 4.1 -0.1
v -0.3 3.3 0.4
v -0.3 3.3 5.96046e-08
v -0.3 3.4 0.4
v -0.3 3.4 5.96046e-08
v 0.4 4 0.6
v 0.4 4 0.5
v 0.4 4.1 0.6
v 0.4 4.1 0.5
v 0.3 3.3 0.4
v 0.3 3.3 5.96046e-08
v 0.3 3.4 0.4
v 0.3 3.4 5.96046e-08
v 0.5 3.4 0.6
v 0.5 3.4 0.5
v 0.5 3.4 -0.2
v 0.5 4 0.6
v 0.5 4 0.5
v 0.5 4 -0.1
v 0.5 4 -0.2
v 0.5 4.1 0.6
v 0.5 4.1 0.5
v 0.5 4.1 -0.1
v -0.5 3.4 0.6
v -0.5 4 0.6
v 0.4 4 0.6
v 0.4 4.1 0.6
v 0.5 3.4 0.6
v 0.5 4 0.6
v 0.5 4.1 0.6
v -0.4 4 0.5
v -0.4 4.1 0.5
v 0.4 4 0.5
v 0.4 4.1 0.5
v -0.3 3.3 0.4
v -0.3 3.4 0.4
v 0.3 3.3 0.4
v 0.3 3.4 0.4
v -0.3 3.3 5.96046e-08
v -0.3 3.4 5.96046e-08
v 0.3 3.3 5.96046e-08
v 0.3 3.4 5.96046e-08
v -0.4 4 -0.1
v -0.4 4.1 -0.1
v 0.4 4 -0.1
v 0.4 4.1 -0.1
v 0.5 4 -0.1
v 0.5 4.1 -0.1
v -0.5 3.4 -0.2
v -0.5 4 -0.2
v 0.5 3.4 -0.2
v 0.5 4 -0.2
v -0.3 3.3 0.4
v 0.3 3.3 0.4
v -0.3 3.3 5.96046e-08
v 0.3 3.3 5.96046e-08
v -0.5 3.4 0.6
v 0.5 3.4 0.6
v -0.5 3.4 0.5
v -0.4 3.4 0.5
v 0.4 3.4 0.5
v 0.5 3.4 0.5
v -0.3 3.4 0.4
v 0.3 3.4 0.4
v -0.3 3.4 5.96046e-08
v 0.3 3.4 5.96046e-08
v -0.4 3.4 -0.1
v 0.4 3.4 -0.1
v -0.5 3.4 -0.2
v 0.5 3.4 -0.2
v -0.5 4 0.6
v 0.4 4 0.6
v -0.5 4 0.5
v -0.4 4 0.5
v 0.4 4 0.5
v -0.4 4 -0.1
v 0.4 4 -0.1
v 0.5 4 -0.1
v -0.5 4 -0.2
v 0.5 4 -0.2
v 0.4 4.1 0.6
v 0.5 4.1 0.6
v -0.4 4.1 0.5
v 0.4 4.1 0.5
v 0.5 4.1 0.5
v -0.4 4.1 -0.1
v 0.4 4.1 -0.1
v 0.5 4.1 -0.1

# faces
f 4/1/1 2/1/1 1/1/1
f 5/2/1 3/2/1 2/2/1
f 5/1/1 2/1/1 4/1/1
f 6/2/1 3/2/1 5/2/1
f 9/2/1 8/2/1 7/2/1
f 10/2/1 8/2/1 9/2/1
f 13/5/1 12/5/1 11/5/1
f 14/5/1 12/5/1 13/5/1
f 17/3/1 16/3/1 15/3/1
f 18/3/1 16/3/1 17/3/1
f 19/5/2 20/5/2 21/5/2
f 21/5/2 20/5/2 22/5/2
f 23/1/2 24/1/2 26/1/2
f 24/2/2 25/2/2 27/2/2
f 26/1/2 24/1/2 27/1/2
f 27/2/2 25/2/2 28/2/2
f 28/2/2 25/2/2 29/2/2
f 26/3/2 27/3/2 30/3/2
f 27/4/2 28/4/2 31/4/2
f 30/3/2 27/3/2 31/3/2
f 31/4/2 28/4/2 32/4/2
f 35/1/3 34/1/3 33/1/3
f 37/1/3 35/1/3 33/1/3
f 38/3/3 36/3/3 35/3/3
f 38/1/3 35/1/3 37/1/3
f 39/3/3 36/3/3 38/3/3
f 42/2/3 41/2/3 40/2/3
f 43/2/3 41/2/3 42/2/3
f 46/5/3 45/5/3 44/5/3
f 47/5/3 45/5/3 46/5/3
f 48/5/4 49/5/4 50/5/4
f 50/5/4 49/5/4 51/5/4
f 52/2/4 53/2/4 54/2/4
f 54/2/4 53/2/4 55/2/4
f 54/4/4 55/4/4 56/4/4
f 56/4/4 55/4/4 57/4/4
f 58/2/4 59/2/4 60/2/4
f 60/2/4 59/2/4 61/2/4
f 64/5/5 63/5/5 62/5/5
f 65/5/5 63/5/5 64/5/5
f 68/1/5 67/1/5 66/1/5
f 69/1/5 67/1/5 68/1/5
f 70/1/5 67/1/5 69/1/5
f 71/1/5 67/1/5 70/1/5
f 72/5/5 70/5/5 69/5/5
f 73/5/5 70/5/5 72/5/5
f 74/5/5 72/5/5 69/5/5
f 75/5/5 70/5/5 73/5/5
f 76/2/5 69/2/5 68/2/5
f 76/5/5 75/5/5 74/5/5
f 76/5/5 74/5/5 69/5/5
f 77/5/5 70/5/5 75/5/5
f 77/5/5 75/5/5 76/5/5
f 77/2/5 71/2/5 70/2/5
f 78/2/5 76/2/5 68/2/5
f 78/2/5 77/2/5 76/2/5
f 79/2/5 71/2/5 77/2/5
f 79/2/5 77/2/5 78/2/5
f 80/1/6 81/1/6 82/1/6
f 82/1/6 81/1/6 83/1/6
f 83/1/6 81/1/6 84/1/6
f 82/2/6 83/2/6 85/2/6
f 85/2/6 86/2/6 88/2/6
f 86/2/6 87/2/6 88/2/6
f 82/2/6 85/2/6 88/2/6
f 88/2/6 87/2/6 89/2/6
f 90/3/6 91/3/6 93/3/6
f 93/3/6 91/3/6 94/3/6
f 92/2/6 93/2/6 95/2/6
f 93/4/6 94/4/6 96/4/6
f 95/2/6 93/2/6 96/2/6
f 96/4/6 94/4/6 97/4/6
