# MagicaVoxel @ Ephtracy

# group
o 

# material
mtllib JagerNaut-5.mtl
usemtl palette

# normals
vn -1 0 0
vn 1 0 0
vn 0 0 1
vn 0 0 -1
vn 0 -1 0
vn 0 1 0

# texcoords
vt 0.955078 0.5
vt 0.990234 0.5

# verts
v -0.7 1.7 0.6
v -0.7 1.7 0.4
v -0.7 1.7 0
v -0.7 1.7 -0.1
v -0.7 1.8 0.4
v -0.7 1.8 0
v -0.7 3.3 0.6
v -0.7 3.3 -0.1
v -0.6 1.8 0.7
v -0.6 1.8 0.6
v -0.6 1.9 -0.1
v -0.6 1.9 -0.5
v -0.6 3.2 0.7
v -0.6 3.2 0.6
v -0.6 3.2 -0.1
v -0.6 3.2 -0.5
v -0.5 1.8 -0.2
v -0.5 1.8 -0.5
v -0.5 1.9 -0.2
v -0.5 1.9 -0.5
v 0.5 3.2 -0.1
v 0.5 3.2 -0.2
v 0.5 3.3 0
v 0.5 3.3 -0.1
v 0.5 3.4 0
v 0.5 3.4 -0.2
v 0.6 3.3 0.5
v 0.6 3.3 0
v 0.6 3.4 0.5
v 0.6 3.4 0
v 0.6 1.8 0.7
v 0.6 1.8 0.6
v 0.6 3.2 0.7
v 0.6 3.2 0.6
v 0.7 1.7 0.6
v 0.7 1.7 0.4
v 0.7 1.7 0
v 0.7 1.7 -0.1
v 0.7 1.8 0.4
v 0.7 1.8 0
v 0.7 1.8 -0.2
v 0.7 1.8 -0.5
v 0.7 1.9 -0.1
v 0.7 1.9 -0.2
v 0.7 3.2 -0.2
v 0.7 3.2 -0.5
v 0.7 3.3 0.6
v 0.7 3.3 0.5
v 0.7 3.3 -0.1
v 0.7 3.4 0.5
v 0.7 3.4 -0.2
v -0.6 1.8 0.7
v -0.6 3.2 0.7
v 0.6 1.8 0.7
v 0.6 3.2 0.7
v -0.7 1.7 0.6
v -0.7 3.3 0.6
v -0.6 1.8 0.6
v -0.6 3.2 0.6
v 0.6 1.8 0.6
v 0.6 3.2 0.6
v 0.7 1.7 0.6
v 0.7 3.3 0.6
v 0.6 3.3 0.5
v 0.6 3.4 0.5
v 0.7 3.3 0.5
v 0.7 3.4 0.5
v 0.5 3.3 0
v 0.5 3.4 0
v 0.6 3.3 0
v 0.6 3.4 0
v -0.5 1.8 -0.2
v -0.5 1.9 -0.2
v 0.7 1.8 -0.2
v 0.7 1.9 -0.2
v -0.7 1.7 -0.1
v -0.7 3.3 -0.1
v -0.6 1.9 -0.1
v -0.6 3.2 -0.1
v 0.5 3.2 -0.1
v 0.5 3.3 -0.1
v 0.7 1.7 -0.1
v 0.7 1.9 -0.1
v 0.5 3.2 -0.2
v 0.5 3.4 -0.2
v 0.7 3.2 -0.2
v 0.7 3.4 -0.2
v -0.6 1.9 -0.5
v -0.6 3.2 -0.5
v -0.5 1.8 -0.5
v -0.5 1.9 -0.5
v 0.7 1.8 -0.5
v 0.7 3.2 -0.5
v -0.7 1.7 0.6
v 0.7 1.7 0.6
v -0.7 1.7 0.4
v 0.7 1.7 0.4
v -0.7 1.7 0
v 0.7 1.7 0
v -0.7 1.7 -0.1
v 0.7 1.7 -0.1
v -0.6 1.8 0.7
v 0.6 1.8 0.7
v -0.6 1.8 0.6
v 0.6 1.8 0.6
v -0.5 1.8 -0.2
v 0.7 1.8 -0.2
v -0.5 1.8 -0.5
v 0.7 1.8 -0.5
v -0.6 1.9 -0.1
v 0.7 1.9 -0.1
v -0.5 1.9 -0.2
v 0.7 1.9 -0.2
v -0.6 1.9 -0.5
v -0.5 1.9 -0.5
v -0.6 3.2 0.7
v 0.6 3.2 0.7
v -0.6 3.2 0.6
v 0.6 3.2 0.6
v -0.6 3.2 -0.1
v 0.5 3.2 -0.1
v 0.5 3.2 -0.2
v 0.7 3.2 -0.2
v -0.6 3.2 -0.5
v 0.7 3.2 -0.5
v -0.7 3.3 0.6
v 0.7 3.3 0.6
v 0.6 3.3 0.5
v 0.7 3.3 0.5
v 0.5 3.3 0
v 0.6 3.3 0
v -0.7 3.3 -0.1
v 0.5 3.3 -0.1
v 0.6 3.4 0.5
v 0.7 3.4 0.5
v 0.5 3.4 0
v 0.6 3.4 0
v 0.5 3.4 -0.2
v 0.7 3.4 -0.2

# faces
f 5/1/1 2/1/1 1/1/1
f 5/2/1 3/2/1 2/2/1
f 6/1/1 4/1/1 3/1/1
f 6/2/1 3/2/1 5/2/1
f 7/1/1 5/1/1 1/1/1
f 7/1/1 6/1/1 5/1/1
f 8/1/1 4/1/1 6/1/1
f 8/1/1 6/1/1 7/1/1
f 13/1/1 10/1/1 9/1/1
f 14/1/1 10/1/1 13/1/1
f 15/2/1 12/2/1 11/2/1
f 16/2/1 12/2/1 15/2/1
f 19/2/1 18/2/1 17/2/1
f 20/2/1 18/2/1 19/2/1
f 24/2/1 22/2/1 21/2/1
f 25/2/1 24/2/1 23/2/1
f 26/2/1 22/2/1 24/2/1
f 26/2/1 24/2/1 25/2/1
f 29/2/1 28/2/1 27/2/1
f 30/2/1 28/2/1 29/2/1
f 31/1/2 32/1/2 33/1/2
f 33/1/2 32/1/2 34/1/2
f 35/1/2 36/1/2 39/1/2
f 36/2/2 37/2/2 39/2/2
f 37/1/2 38/1/2 40/1/2
f 39/2/2 37/2/2 40/2/2
f 39/1/2 40/1/2 43/1/2
f 40/1/2 38/1/2 43/1/2
f 41/2/2 42/2/2 44/2/2
f 44/2/2 42/2/2 45/2/2
f 43/2/2 44/2/2 45/2/2
f 45/2/2 42/2/2 46/2/2
f 35/1/2 39/1/2 47/1/2
f 39/1/2 43/1/2 47/1/2
f 47/1/2 43/1/2 48/1/2
f 43/2/2 45/2/2 49/2/2
f 48/1/2 43/1/2 49/1/2
f 48/2/2 49/2/2 50/2/2
f 49/2/2 45/2/2 51/2/2
f 50/2/2 49/2/2 51/2/2
f 54/1/3 53/1/3 52/1/3
f 55/1/3 53/1/3 54/1/3
f 58/1/3 57/1/3 56/1/3
f 59/1/3 57/1/3 58/1/3
f 60/1/3 58/1/3 56/1/3
f 61/1/3 57/1/3 59/1/3
f 62/1/3 60/1/3 56/1/3
f 62/1/3 61/1/3 60/1/3
f 63/1/3 57/1/3 61/1/3
f 63/1/3 61/1/3 62/1/3
f 66/2/3 65/2/3 64/2/3
f 67/2/3 65/2/3 66/2/3
f 70/2/3 69/2/3 68/2/3
f 71/2/3 69/2/3 70/2/3
f 74/2/3 73/2/3 72/2/3
f 75/2/3 73/2/3 74/2/3
f 76/1/4 77/1/4 78/1/4
f 78/1/4 77/1/4 79/1/4
f 79/1/4 77/1/4 80/1/4
f 80/1/4 77/1/4 81/1/4
f 76/1/4 78/1/4 82/1/4
f 82/1/4 78/1/4 83/1/4
f 84/2/4 85/2/4 86/2/4
f 86/2/4 85/2/4 87/2/4
f 88/2/4 89/2/4 91/2/4
f 90/2/4 91/2/4 92/2/4
f 91/2/4 89/2/4 93/2/4
f 92/2/4 91/2/4 93/2/4
f 96/1/5 95/1/5 94/1/5
f 97/1/5 95/1/5 96/1/5
f 98/2/5 97/2/5 96/2/5
f 99/2/5 97/2/5 98/2/5
f 100/1/5 99/1/5 98/1/5
f 101/1/5 99/1/5 100/1/5
f 104/1/5 103/1/5 102/1/5
f 105/1/5 103/1/5 104/1/5
f 108/2/5 107/2/5 106/2/5
f 109/2/5 107/2/5 108/2/5
f 112/2/5 111/2/5 110/2/5
f 113/2/5 111/2/5 112/2/5
f 114/2/5 112/2/5 110/2/5
f 115/2/5 112/2/5 114/2/5
f 116/1/6 117/1/6 118/1/6
f 118/1/6 117/1/6 119/1/6
f 120/2/6 121/2/6 122/2/6
f 120/2/6 122/2/6 124/2/6
f 122/2/6 123/2/6 124/2/6
f 124/2/6 123/2/6 125/2/6
f 126/1/6 127/1/6 128/1/6
f 128/1/6 127/1/6 129/1/6
f 126/1/6 128/1/6 130/1/6
f 130/1/6 128/1/6 131/1/6
f 126/1/6 130/1/6 132/1/6
f 132/1/6 130/1/6 133/1/6
f 134/2/6 135/2/6 137/2/6
f 136/2/6 137/2/6 138/2/6
f 137/2/6 135/2/6 139/2/6
f 138/2/6 137/2/6 139/2/6
