# MagicaVoxel @ Ephtracy

# group
o 

# material
mtllib grenade launcher-1.mtl
usemtl palette

# normals
vn -1 0 0
vn 1 0 0
vn 0 0 1
vn 0 0 -1
vn 0 -1 0
vn 0 1 0

# texcoords
vt 0.912109 0.5
vt 0.916016 0.5
vt 0.951172 0.5
vt 0.986328 0.5
vt 0.990234 0.5

# verts
v -0.2 -0.8 -0.2
v -0.2 -0.8 -0.4
v -0.2 -0.7 -0.1
v -0.2 -0.7 -0.2
v -0.2 -0.6 0.1
v -0.2 -0.6 -0.1
v -0.2 0 0.2
v -0.2 0 0.1
v -0.2 0 -0.4
v -0.2 0.1 0.2
v -0.2 0.1 0.1
v -0.2 0.1 -0.4
v -0.2 0.3 0.2
v -0.2 0.3 0.1
v -0.2 0.3 -0.4
v -0.2 0.4 0.2
v -0.2 0.4 0.1
v -0.2 0.4 -0.4
v -0.2 0.9 0.1
v -0.2 0.9 -0.4
v -0.1 -0.8 0.3
v -0.1 -0.8 -0.2
v -0.1 -0.7 -0.1
v -0.1 -0.7 -0.2
v -0.1 -0.6 0.3
v -0.1 -0.6 0.1
v -0.1 -0.6 -0.1
v -0.1 0.1 0.2
v -0.1 0.1 0.1
v -0.1 0.3 0.2
v -0.1 0.3 0.1
v 0.2 -0.8 0.3
v 0.2 -0.8 -0.2
v 0.2 -0.7 0
v 0.2 -0.7 -0.2
v 0.2 -0.6 0.3
v 0.2 -0.6 0.1
v 0.2 -0.6 0
v 0.2 0.1 0.2
v 0.2 0.1 0.1
v 0.2 0.3 0.2
v 0.2 0.3 0.1
v 0.3 -0.8 -0.2
v 0.3 -0.8 -0.4
v 0.3 -0.7 0
v 0.3 -0.7 -0.2
v 0.3 -0.6 0.1
v 0.3 -0.6 0
v 0.3 0 0.2
v 0.3 0 0.1
v 0.3 0 -0.4
v 0.3 0.1 0.2
v 0.3 0.1 0.1
v 0.3 0.1 -0.4
v 0.3 0.3 0.2
v 0.3 0.3 0.1
v 0.3 0.3 -0.4
v 0.3 0.4 0.2
v 0.3 0.4 0.1
v 0.3 0.4 -0.4
v 0.3 0.9 0.1
v 0.3 0.9 -0.4
v -0.1 -0.8 0.3
v -0.1 -0.6 0.3
v 0.2 -0.8 0.3
v 0.2 -0.6 0.3
v -0.2 0 0.2
v -0.2 0.1 0.2
v -0.2 0.3 0.2
v -0.2 0.4 0.2
v -0.1 0 0.2
v -0.1 0.1 0.2
v -0.1 0.3 0.2
v -0.1 0.4 0.2
v 0 0.1 0.2
v 0 0.4 0.2
v 0.1 0.1 0.2
v 0.1 0.4 0.2
v 0.2 0 0.2
v 0.2 0.1 0.2
v 0.2 0.3 0.2
v 0.2 0.4 0.2
v 0.3 0 0.2
v 0.3 0.1 0.2
v 0.3 0.3 0.2
v 0.3 0.4 0.2
v -0.2 -0.6 0.1
v -0.2 0 0.1
v -0.2 0.1 0.1
v -0.2 0.3 0.1
v -0.2 0.4 0.1
v -0.2 0.9 0.1
v -0.1 -0.6 0.1
v -0.1 0 0.1
v -0.1 0.1 0.1
v -0.1 0.3 0.1
v -0.1 0.4 0.1
v 0 -0.5 0.1
v 0 0 0.1
v 0 0.4 0.1
v 0 0.9 0.1
v 0.1 -0.5 0.1
v 0.1 0 0.1
v 0.1 0.4 0.1
v 0.1 0.9 0.1
v 0.2 -0.6 0.1
v 0.2 0 0.1
v 0.2 0.1 0.1
v 0.2 0.3 0.1
v 0.2 0.4 0.1
v 0.3 -0.6 0.1
v 0.3 0 0.1
v 0.3 0.1 0.1
v 0.3 0.3 0.1
v 0.3 0.4 0.1
v 0.3 0.9 0.1
v 0.2 -0.7 0
v 0.2 -0.6 0
v 0.3 -0.7 0
v 0.3 -0.6 0
v -0.2 -0.7 -0.1
v -0.2 -0.6 -0.1
v -0.1 -0.7 -0.1
v -0.1 -0.6 -0.1
v -0.2 -0.8 -0.2
v -0.2 -0.7 -0.2
v -0.1 -0.8 -0.2
v -0.1 -0.7 -0.2
v 0.2 -0.8 -0.2
v 0.2 -0.7 -0.2
v 0.3 -0.8 -0.2
v 0.3 -0.7 -0.2
v -0.2 -0.8 -0.4
v -0.2 0 -0.4
v -0.2 0.1 -0.4
v -0.2 0.3 -0.4
v -0.2 0.4 -0.4
v -0.2 0.9 -0.4
v 0.3 -0.8 -0.4
v 0.3 0 -0.4
v 0.3 0.1 -0.4
v 0.3 0.3 -0.4
v 0.3 0.4 -0.4
v 0.3 0.9 -0.4
v -0.1 -0.8 0.3
v 0.2 -0.8 0.3
v 0 -0.8 0.2
v 0.1 -0.8 0.2
v -0.2 -0.8 -0.2
v -0.1 -0.8 -0.2
v 0 -0.8 -0.2
v 0.1 -0.8 -0.2
v 0.2 -0.8 -0.2
v 0.3 -0.8 -0.2
v 0 -0.8 -0.3
v 0.1 -0.8 -0.3
v -0.2 -0.8 -0.4
v 0.3 -0.8 -0.4
v 0.2 -0.7 0
v 0.3 -0.7 0
v -0.2 -0.7 -0.1
v -0.1 -0.7 -0.1
v -0.2 -0.7 -0.2
v -0.1 -0.7 -0.2
v 0.2 -0.7 -0.2
v 0.3 -0.7 -0.2
v -0.2 -0.6 0.1
v -0.1 -0.6 0.1
v 0.2 -0.6 0.1
v 0.3 -0.6 0.1
v 0.2 -0.6 0
v 0.3 -0.6 0
v -0.2 -0.6 -0.1
v -0.1 -0.6 -0.1
v -0.2 0 0.2
v -0.1 0 0.2
v 0.2 0 0.2
v 0.3 0 0.2
v -0.2 0 0.1
v -0.1 0 0.1
v 0 0 0.1
v 0.1 0 0.1
v 0.2 0 0.1
v 0.3 0 0.1
v -0.2 0.3 0.2
v -0.1 0.3 0.2
v 0.2 0.3 0.2
v 0.3 0.3 0.2
v -0.2 0.3 0.1
v -0.1 0.3 0.1
v 0.2 0.3 0.1
v 0.3 0.3 0.1
v -0.1 -0.6 0.3
v 0.2 -0.6 0.3
v -0.1 -0.6 0.1
v 0.2 -0.6 0.1
v -0.2 0.1 0.2
v -0.1 0.1 0.2
v 0.2 0.1 0.2
v 0.3 0.1 0.2
v -0.2 0.1 0.1
v -0.1 0.1 0.1
v 0.2 0.1 0.1
v 0.3 0.1 0.1
v -0.2 0.4 0.2
v -0.1 0.4 0.2
v 0 0.4 0.2
v 0.1 0.4 0.2
v 0.2 0.4 0.2
v 0.3 0.4 0.2
v -0.2 0.4 0.1
v -0.1 0.4 0.1
v 0 0.4 0.1
v 0.1 0.4 0.1
v 0.2 0.4 0.1
v 0.3 0.4 0.1
v -0.2 0.9 0.1
v 0 0.9 0.1
v 0.1 0.9 0.1
v 0.3 0.9 0.1
v 0 0.9 0
v 0.1 0.9 0
v -0.2 0.9 -0.4
v 0.3 0.9 -0.4

# faces
f 4/2/1 2/2/1 1/2/1
f 6/2/1 4/2/1 3/2/1
f 8/2/1 6/2/1 5/2/1
f 9/2/1 2/2/1 4/2/1
f 9/2/1 4/2/1 6/2/1
f 9/2/1 6/2/1 8/2/1
f 10/5/1 8/5/1 7/5/1
f 10/5/1 9/5/1 8/5/1
f 11/5/1 9/5/1 10/5/1
f 12/5/1 9/5/1 11/5/1
f 14/2/1 12/2/1 11/2/1
f 15/2/1 12/2/1 14/2/1
f 16/5/1 14/5/1 13/5/1
f 16/5/1 15/5/1 14/5/1
f 17/5/1 15/5/1 16/5/1
f 18/5/1 15/5/1 17/5/1
f 19/2/1 18/2/1 17/2/1
f 20/2/1 18/2/1 19/2/1
f 23/5/1 22/5/1 21/5/1
f 24/5/1 22/5/1 23/5/1
f 25/5/1 23/5/1 21/5/1
f 26/5/1 23/5/1 25/5/1
f 27/5/1 23/5/1 26/5/1
f 30/4/1 29/4/1 28/4/1
f 31/4/1 29/4/1 30/4/1
f 32/5/2 33/5/2 34/5/2
f 34/5/2 33/5/2 35/5/2
f 32/5/2 34/5/2 36/5/2
f 36/5/2 34/5/2 37/5/2
f 37/5/2 34/5/2 38/5/2
f 39/4/2 40/4/2 41/4/2
f 41/4/2 40/4/2 42/4/2
f 43/2/2 44/2/2 46/2/2
f 45/2/2 46/2/2 48/2/2
f 47/2/2 48/2/2 50/2/2
f 46/2/2 44/2/2 51/2/2
f 48/2/2 46/2/2 51/2/2
f 50/2/2 48/2/2 51/2/2
f 49/5/2 50/5/2 52/5/2
f 50/5/2 51/5/2 52/5/2
f 52/5/2 51/5/2 53/5/2
f 53/5/2 51/5/2 54/5/2
f 53/2/2 54/2/2 56/2/2
f 56/2/2 54/2/2 57/2/2
f 55/5/2 56/5/2 58/5/2
f 56/5/2 57/5/2 58/5/2
f 58/5/2 57/5/2 59/5/2
f 59/5/2 57/5/2 60/5/2
f 59/2/2 60/2/2 61/2/2
f 61/2/2 60/2/2 62/2/2
f 65/5/3 64/5/3 63/5/3
f 66/5/3 64/5/3 65/5/3
f 71/5/3 68/5/3 67/5/3
f 72/5/3 68/5/3 71/5/3
f 73/5/3 70/5/3 69/5/3
f 74/5/3 70/5/3 73/5/3
f 75/4/3 72/4/3 71/4/3
f 75/4/3 73/4/3 72/4/3
f 75/4/3 74/4/3 73/4/3
f 76/4/3 74/4/3 75/4/3
f 77/4/3 75/4/3 71/4/3
f 77/1/3 76/1/3 75/1/3
f 78/1/3 76/1/3 77/1/3
f 79/4/3 77/4/3 71/4/3
f 79/4/3 78/4/3 77/4/3
f 80/4/3 78/4/3 79/4/3
f 81/4/3 78/4/3 80/4/3
f 82/4/3 78/4/3 81/4/3
f 83/5/3 80/5/3 79/5/3
f 84/5/3 80/5/3 83/5/3
f 85/5/3 82/5/3 81/5/3
f 86/5/3 82/5/3 85/5/3
f 93/2/3 88/2/3 87/2/3
f 94/2/3 88/2/3 93/2/3
f 95/2/3 90/2/3 89/2/3
f 96/2/3 90/2/3 95/2/3
f 97/2/3 92/2/3 91/2/3
f 98/2/3 94/2/3 93/2/3
f 99/2/3 94/2/3 98/2/3
f 100/2/3 92/2/3 97/2/3
f 101/2/3 92/2/3 100/2/3
f 102/1/3 99/1/3 98/1/3
f 102/2/3 98/2/3 93/2/3
f 103/1/3 99/1/3 102/1/3
f 104/1/3 101/1/3 100/1/3
f 105/1/3 101/1/3 104/1/3
f 106/2/3 103/2/3 102/2/3
f 106/2/3 102/2/3 93/2/3
f 107/2/3 103/2/3 106/2/3
f 110/2/3 105/2/3 104/2/3
f 111/2/3 107/2/3 106/2/3
f 112/2/3 107/2/3 111/2/3
f 113/2/3 109/2/3 108/2/3
f 114/2/3 109/2/3 113/2/3
f 115/2/3 105/2/3 110/2/3
f 116/2/3 105/2/3 115/2/3
f 119/2/3 118/2/3 117/2/3
f 120/2/3 118/2/3 119/2/3
f 123/2/3 122/2/3 121/2/3
f 124/2/3 122/2/3 123/2/3
f 127/2/3 126/2/3 125/2/3
f 128/2/3 126/2/3 127/2/3
f 131/2/3 130/2/3 129/2/3
f 132/2/3 130/2/3 131/2/3
f 133/2/4 134/2/4 139/2/4
f 134/5/4 135/5/4 140/5/4
f 139/2/4 134/2/4 140/2/4
f 135/2/4 136/2/4 141/2/4
f 140/5/4 135/5/4 141/5/4
f 136/5/4 137/5/4 142/5/4
f 141/2/4 136/2/4 142/2/4
f 137/2/4 138/2/4 143/2/4
f 142/5/4 137/5/4 143/5/4
f 143/2/4 138/2/4 144/2/4
f 147/5/5 146/5/5 145/5/5
f 148/5/5 146/5/5 147/5/5
f 150/5/5 147/5/5 145/5/5
f 151/3/5 148/3/5 147/3/5
f 151/5/5 147/5/5 150/5/5
f 152/5/5 146/5/5 148/5/5
f 152/3/5 148/3/5 151/3/5
f 153/5/5 146/5/5 152/5/5
f 155/2/5 151/2/5 150/2/5
f 155/2/5 150/2/5 149/2/5
f 155/5/5 152/5/5 151/5/5
f 156/2/5 154/2/5 153/2/5
f 156/5/5 152/5/5 155/5/5
f 156/2/5 153/2/5 152/2/5
f 157/2/5 155/2/5 149/2/5
f 157/2/5 156/2/5 155/2/5
f 158/2/5 154/2/5 156/2/5
f 158/2/5 156/2/5 157/2/5
f 163/2/5 162/2/5 161/2/5
f 164/2/5 162/2/5 163/2/5
f 165/2/5 160/2/5 159/2/5
f 166/2/5 160/2/5 165/2/5
f 171/2/5 170/2/5 169/2/5
f 172/2/5 170/2/5 171/2/5
f 173/2/5 168/2/5 167/2/5
f 174/2/5 168/2/5 173/2/5
f 179/5/5 176/5/5 175/5/5
f 180/4/5 177/4/5 176/4/5
f 180/5/5 176/5/5 179/5/5
f 181/4/5 177/4/5 180/4/5
f 182/4/5 177/4/5 181/4/5
f 183/5/5 178/5/5 177/5/5
f 183/4/5 177/4/5 182/4/5
f 184/5/5 178/5/5 183/5/5
f 189/5/5 186/5/5 185/5/5
f 190/5/5 186/5/5 189/5/5
f 191/5/5 188/5/5 187/5/5
f 192/5/5 188/5/5 191/5/5
f 193/5/6 194/5/6 195/5/6
f 195/5/6 194/5/6 196/5/6
f 197/5/6 198/5/6 201/5/6
f 201/5/6 198/5/6 202/5/6
f 199/5/6 200/5/6 203/5/6
f 203/5/6 200/5/6 204/5/6
f 205/5/6 206/5/6 211/5/6
f 206/4/6 207/4/6 212/4/6
f 211/5/6 206/5/6 212/5/6
f 207/1/6 208/1/6 213/1/6
f 212/4/6 207/4/6 213/4/6
f 208/4/6 209/4/6 214/4/6
f 213/1/6 208/1/6 214/1/6
f 209/5/6 210/5/6 215/5/6
f 214/4/6 209/4/6 215/4/6
f 215/5/6 210/5/6 216/5/6
f 217/2/6 218/2/6 221/2/6
f 218/1/6 219/1/6 221/1/6
f 219/2/6 220/2/6 222/2/6
f 221/1/6 219/1/6 222/1/6
f 217/2/6 221/2/6 223/2/6
f 221/2/6 222/2/6 223/2/6
f 222/2/6 220/2/6 224/2/6
f 223/2/6 222/2/6 224/2/6
