# MagicaVoxel @ Ephtracy

# group
o 

# material
mtllib grenade launcher-4.mtl
usemtl palette

# normals
vn -1 0 0
vn 1 0 0
vn 0 0 1
vn 0 0 -1
vn 0 -1 0
vn 0 1 0

# texcoords
vt 0.912109 0.5
vt 0.916016 0.5
vt 0.947266 0.5
vt 0.951172 0.5
vt 0.955078 0.5
vt 0.958984 0.5
vt 0.986328 0.5
vt 0.990234 0.5
vt 0.994141 0.5

# verts
v -0.5 -0.3 0.3
v -0.5 -0.3 -0.4
v -0.5 0 -0.1
v -0.5 0 -0.3
v -0.5 0.1 0.1
v -0.5 0.1 -0.1
v -0.5 0.1 -0.3
v -0.5 0.2 0.3
v -0.5 0.2 0.1
v -0.5 0.2 -0.1
v -0.5 0.3 0.3
v -0.5 0.3 0.1
v -0.5 0.3 -0.4
v -0.4 -0.3 0.4
v -0.4 -0.3 0.3
v -0.4 0.2 0.3
v -0.4 0.3 0.4
v -0.4 0.3 0.3
v -0.4 0.3 0.1
v -0.4 0.3 -0.3
v -0.4 0.4 0.3
v -0.4 0.4 -0.3
v -0.3 -0.4 0.2
v -0.3 -0.4 -0.2
v -0.3 -0.3 0.2
v -0.3 -0.3 -0.2
v 0.4 0.3 0.4
v 0.4 0.3 0.3
v 0.4 0.4 0.4
v 0.4 0.4 0.3
v 0.2 -0.3 0.4
v 0.2 -0.3 0.3
v 0.2 -0.2 0.3
v 0.2 -0.1 0.4
v 0.2 -0.1 0.3
v 0.3 -0.4 0.2
v 0.3 -0.4 -0.2
v 0.3 -0.3 0.2
v 0.3 -0.3 -0.2
v 0.3 -0.1 0.4
v 0.3 -0.1 0.3
v 0.3 0 0.4
v 0.3 0 0.3
v 0.4 0 0.4
v 0.4 0 0.3
v 0.4 0.3 0.4
v 0.4 0.3 0.3
v 0.5 -0.3 0.3
v 0.5 -0.3 -0.4
v 0.5 0.3 0.4
v 0.5 0.3 0.3
v 0.5 0.3 -0.3
v 0.5 0.3 -0.4
v 0.5 0.4 0.4
v 0.5 0.4 0.3
v 0.5 0.4 -0.3
v -0.4 -0.3 0.4
v -0.4 0.3 0.4
v -0.2 -0.2 0.4
v -0.2 0 0.4
v -0.1 -0.2 0.4
v -0.1 0 0.4
v -0.1 0.2 0.4
v 0 0 0.4
v 0 0.2 0.4
v 0 0.3 0.4
v 0.1 0.2 0.4
v 0.1 0.3 0.4
v 0.2 -0.3 0.4
v 0.2 -0.1 0.4
v 0.3 -0.1 0.4
v 0.3 0 0.4
v 0.4 0 0.4
v 0.4 0.3 0.4
v 0.4 0.4 0.4
v 0.5 0.3 0.4
v 0.5 0.4 0.4
v -0.5 -0.3 0.3
v -0.5 0.2 0.3
v -0.5 0.3 0.3
v -0.4 -0.3 0.3
v -0.4 0.2 0.3
v -0.4 0.3 0.3
v -0.4 0.4 0.3
v 0 0.3 0.3
v 0.1 0.3 0.3
v 0.2 -0.3 0.3
v 0.2 -0.2 0.3
v 0.2 -0.1 0.3
v 0.3 -0.1 0.3
v 0.3 0 0.3
v 0.4 -0.3 0.3
v 0.4 -0.2 0.3
v 0.4 0 0.3
v 0.4 0.3 0.3
v 0.4 0.4 0.3
v 0.5 -0.3 0.3
v 0.5 0.3 0.3
v -0.3 -0.4 0.2
v -0.3 -0.3 0.2
v 0.3 -0.4 0.2
v 0.3 -0.3 0.2
v -0.3 -0.4 -0.2
v -0.3 -0.3 -0.2
v 0.3 -0.4 -0.2
v 0.3 -0.3 -0.2
v -0.4 0.3 -0.3
v -0.4 0.4 -0.3
v 0.4 0.3 -0.3
v 0.4 0.4 -0.3
v 0.5 0.3 -0.3
v 0.5 0.4 -0.3
v -0.5 -0.3 -0.4
v -0.5 0.3 -0.4
v 0.5 -0.3 -0.4
v 0.5 0.3 -0.4
v -0.3 -0.4 0.2
v 0.3 -0.4 0.2
v -0.3 -0.4 -0.2
v 0.3 -0.4 -0.2
v -0.4 -0.3 0.4
v 0.2 -0.3 0.4
v -0.5 -0.3 0.3
v -0.4 -0.3 0.3
v 0.2 -0.3 0.3
v 0.4 -0.3 0.3
v 0.5 -0.3 0.3
v -0.3 -0.3 0.2
v 0.3 -0.3 0.2
v -0.3 -0.3 -0.2
v 0.3 -0.3 -0.2
v -0.4 -0.3 -0.3
v 0.4 -0.3 -0.3
v -0.5 -0.3 -0.4
v 0.5 -0.3 -0.4
v 0.2 -0.1 0.4
v 0.3 -0.1 0.4
v 0.2 -0.1 0.3
v 0.3 -0.1 0.3
v 0.3 0 0.4
v 0.4 0 0.4
v 0.3 0 0.3
v 0.4 0 0.3
v 0.4 0.3 0.4
v 0.5 0.3 0.4
v 0.4 0.3 0.3
v 0.5 0.3 0.3
v -0.4 0.3 0.4
v 0 0.3 0.4
v 0.1 0.3 0.4
v 0.4 0.3 0.4
v -0.5 0.3 0.3
v -0.4 0.3 0.3
v 0 0.3 0.3
v 0.1 0.3 0.3
v 0.4 0.3 0.3
v -0.5 0.3 0.1
v -0.4 0.3 0.1
v -0.4 0.3 -0.3
v 0.4 0.3 -0.3
v 0.5 0.3 -0.3
v -0.5 0.3 -0.4
v 0.5 0.3 -0.4
v 0.4 0.4 0.4
v 0.5 0.4 0.4
v -0.4 0.4 0.3
v 0.4 0.4 0.3
v 0.5 0.4 0.3
v -0.1 0.4 0.2
v 0 0.4 0.2
v -0.2 0.4 0
v -0.1 0.4 0
v 0 0.4 0
v -0.2 0.4 -0.2
v -0.1 0.4 -0.2
v -0.4 0.4 -0.3
v 0.4 0.4 -0.3
v 0.5 0.4 -0.3

# faces
f 3/2/1 2/2/1 1/2/1
f 4/2/1 2/2/1 3/2/1
f 5/2/1 3/2/1 1/2/1
f 6/1/1 4/1/1 3/1/1
f 6/2/1 3/2/1 5/2/1
f 7/2/1 2/2/1 4/2/1
f 7/1/1 4/1/1 6/1/1
f 8/2/1 5/2/1 1/2/1
f 9/1/1 6/1/1 5/1/1
f 9/2/1 5/2/1 8/2/1
f 10/2/1 7/2/1 6/2/1
f 10/1/1 6/1/1 9/1/1
f 11/1/1 9/1/1 8/1/1
f 12/2/1 10/2/1 9/2/1
f 12/1/1 9/1/1 11/1/1
f 13/2/1 2/2/1 7/2/1
f 13/2/1 10/2/1 12/2/1
f 13/2/1 7/2/1 10/2/1
f 16/4/1 15/4/1 14/4/1
f 17/4/1 16/4/1 14/4/1
f 18/4/1 16/4/1 17/4/1
f 21/2/1 20/2/1 19/2/1
f 21/2/1 19/2/1 18/2/1
f 22/2/1 20/2/1 21/2/1
f 25/9/1 24/9/1 23/9/1
f 26/9/1 24/9/1 25/9/1
f 29/6/1 28/6/1 27/6/1
f 30/6/1 28/6/1 29/6/1
f 31/4/2 32/4/2 33/4/2
f 31/4/2 33/4/2 34/4/2
f 34/4/2 33/4/2 35/4/2
f 36/9/2 37/9/2 38/9/2
f 38/9/2 37/9/2 39/9/2
f 40/4/2 41/4/2 42/4/2
f 42/4/2 41/4/2 43/4/2
f 44/4/2 45/4/2 46/4/2
f 46/4/2 45/4/2 47/4/2
f 48/2/2 49/2/2 51/2/2
f 51/2/2 49/2/2 52/2/2
f 52/2/2 49/2/2 53/2/2
f 50/6/2 51/6/2 54/6/2
f 51/7/2 52/7/2 55/7/2
f 54/6/2 51/6/2 55/6/2
f 55/7/2 52/7/2 56/7/2
f 59/4/3 58/4/3 57/4/3
f 60/4/3 58/4/3 59/4/3
f 61/4/3 59/4/3 57/4/3
f 61/3/3 60/3/3 59/3/3
f 62/4/3 58/4/3 60/4/3
f 62/3/3 60/3/3 61/3/3
f 63/4/3 58/4/3 62/4/3
f 64/4/3 62/4/3 61/4/3
f 64/3/3 63/3/3 62/3/3
f 65/4/3 58/4/3 63/4/3
f 65/3/3 63/3/3 64/3/3
f 66/4/3 58/4/3 65/4/3
f 67/4/3 65/4/3 64/4/3
f 67/3/3 66/3/3 65/3/3
f 68/3/3 66/3/3 67/3/3
f 69/4/3 61/4/3 57/4/3
f 69/4/3 64/4/3 61/4/3
f 69/4/3 68/4/3 67/4/3
f 69/4/3 67/4/3 64/4/3
f 70/4/3 68/4/3 69/4/3
f 71/4/3 68/4/3 70/4/3
f 72/4/3 68/4/3 71/4/3
f 73/4/3 68/4/3 72/4/3
f 74/4/3 68/4/3 73/4/3
f 76/6/3 75/6/3 74/6/3
f 77/6/3 75/6/3 76/6/3
f 81/2/3 79/2/3 78/2/3
f 82/1/3 80/1/3 79/1/3
f 82/2/3 79/2/3 81/2/3
f 83/1/3 80/1/3 82/1/3
f 85/2/3 84/2/3 83/2/3
f 86/2/3 84/2/3 85/2/3
f 90/8/3 89/8/3 88/8/3
f 92/9/3 88/9/3 87/9/3
f 93/8/3 91/8/3 90/8/3
f 93/9/3 88/9/3 92/9/3
f 93/8/3 90/8/3 88/8/3
f 94/8/3 91/8/3 93/8/3
f 95/2/3 84/2/3 86/2/3
f 96/2/3 84/2/3 95/2/3
f 97/2/3 94/2/3 93/2/3
f 97/2/3 93/2/3 92/2/3
f 97/2/3 95/2/3 94/2/3
f 98/2/3 95/2/3 97/2/3
f 101/9/3 100/9/3 99/9/3
f 102/9/3 100/9/3 101/9/3
f 103/9/4 104/9/4 105/9/4
f 105/9/4 104/9/4 106/9/4
f 107/2/4 108/2/4 109/2/4
f 109/2/4 108/2/4 110/2/4
f 109/7/4 110/7/4 111/7/4
f 111/7/4 110/7/4 112/7/4
f 113/2/4 114/2/4 115/2/4
f 115/2/4 114/2/4 116/2/4
f 119/9/5 118/9/5 117/9/5
f 120/9/5 118/9/5 119/9/5
f 124/4/5 122/4/5 121/4/5
f 125/4/5 122/4/5 124/4/5
f 128/9/5 125/9/5 124/9/5
f 128/9/5 126/9/5 125/9/5
f 129/9/5 126/9/5 128/9/5
f 130/9/5 128/9/5 124/9/5
f 131/9/5 126/9/5 129/9/5
f 132/2/5 124/2/5 123/2/5
f 132/9/5 131/9/5 130/9/5
f 132/9/5 130/9/5 124/9/5
f 133/9/5 126/9/5 131/9/5
f 133/9/5 131/9/5 132/9/5
f 133/2/5 127/2/5 126/2/5
f 134/2/5 132/2/5 123/2/5
f 134/2/5 133/2/5 132/2/5
f 135/2/5 127/2/5 133/2/5
f 135/2/5 133/2/5 134/2/5
f 138/4/5 137/4/5 136/4/5
f 139/4/5 137/4/5 138/4/5
f 142/4/5 141/4/5 140/4/5
f 143/4/5 141/4/5 142/4/5
f 146/6/5 145/6/5 144/6/5
f 147/6/5 145/6/5 146/6/5
f 148/4/6 149/4/6 153/4/6
f 149/3/6 150/3/6 154/3/6
f 153/4/6 149/4/6 154/4/6
f 150/4/6 151/4/6 155/4/6
f 154/3/6 150/3/6 155/3/6
f 155/4/6 151/4/6 156/4/6
f 152/1/6 153/1/6 157/1/6
f 157/1/6 153/1/6 158/1/6
f 157/2/6 158/2/6 159/2/6
f 159/2/6 160/2/6 162/2/6
f 160/2/6 161/2/6 162/2/6
f 157/2/6 159/2/6 162/2/6
f 162/2/6 161/2/6 163/2/6
f 164/6/6 165/6/6 167/6/6
f 167/6/6 165/6/6 168/6/6
f 166/2/6 167/2/6 169/2/6
f 169/2/6 167/2/6 170/2/6
f 166/2/6 169/2/6 171/2/6
f 169/1/6 170/1/6 172/1/6
f 171/2/6 169/2/6 172/2/6
f 170/2/6 167/2/6 173/2/6
f 172/1/6 170/1/6 173/1/6
f 171/1/6 172/1/6 174/1/6
f 166/2/6 171/2/6 174/2/6
f 172/2/6 173/2/6 175/2/6
f 174/1/6 172/1/6 175/1/6
f 166/2/6 174/2/6 176/2/6
f 174/2/6 175/2/6 176/2/6
f 167/7/6 168/7/6 177/7/6
f 176/2/6 175/2/6 177/2/6
f 173/2/6 167/2/6 177/2/6
f 175/2/6 173/2/6 177/2/6
f 177/7/6 168/7/6 178/7/6
