# MagicaVoxel @ Ephtracy

# group
o 

# material
mtllib grenade launcher-0.mtl
usemtl palette

# normals
vn -1 0 0
vn 1 0 0
vn 0 0 1
vn 0 0 -1
vn 0 -1 0
vn 0 1 0

# texcoords
vt 0.912109 0.5
vt 0.916016 0.5
vt 0.951172 0.5
vt 0.986328 0.5
vt 0.990234 0.5

# verts
v -0.2 -0.8 -0.2
v -0.2 -0.8 -0.4
v -0.2 -0.7 -0.1
v -0.2 -0.7 -0.2
v -0.2 -0.6 0.1
v -0.2 -0.6 -0.1
v -0.2 0 0.2
v -0.2 0 0.1
v -0.2 0 -0.4
v -0.2 0.1 0.2
v -0.2 0.1 0.1
v -0.2 0.1 -0.4
v -0.2 0.3 0.2
v -0.2 0.3 0.1
v -0.2 0.3 -0.4
v -0.2 0.4 0.2
v -0.2 0.4 0.1
v -0.2 0.4 -0.4
v -0.2 0.9 0.1
v -0.2 0.9 -0.4
v -0.1 -0.8 0.3
v -0.1 -0.8 -0.2
v -0.1 -0.7 -0.1
v -0.1 -0.7 -0.2
v -0.1 -0.6 0.3
v -0.1 -0.6 0.1
v -0.1 -0.6 -0.1
v -0.1 0.1 0.2
v -0.1 0.1 0.1
v -0.1 0.3 0.2
v -0.1 0.3 0.1
v 0.2 -0.8 0.3
v 0.2 -0.8 -0.2
v 0.2 -0.7 0
v 0.2 -0.7 -0.2
v 0.2 -0.6 0.3
v 0.2 -0.6 0.1
v 0.2 -0.6 0
v 0.2 0.1 0.2
v 0.2 0.1 0.1
v 0.2 0.2 0.2
v 0.2 0.2 0.1
v 0.2 0.3 0.2
v 0.2 0.3 0.1
v 0.3 -0.8 -0.2
v 0.3 -0.8 -0.4
v 0.3 -0.7 0
v 0.3 -0.7 -0.2
v 0.3 -0.6 0.1
v 0.3 -0.6 0
v 0.3 0 0.2
v 0.3 0 0.1
v 0.3 0 -0.4
v 0.3 0.1 0.2
v 0.3 0.1 0.1
v 0.3 0.1 -0.4
v 0.3 0.3 0.2
v 0.3 0.3 0.1
v 0.3 0.3 -0.4
v 0.3 0.4 0.2
v 0.3 0.4 0.1
v 0.3 0.4 -0.4
v 0.3 0.9 0.1
v 0.3 0.9 -0.4
v -0.1 -0.8 0.3
v -0.1 -0.6 0.3
v 0.2 -0.8 0.3
v 0.2 -0.6 0.3
v -0.2 0 0.2
v -0.2 0.1 0.2
v -0.2 0.3 0.2
v -0.2 0.4 0.2
v -0.1 0.1 0.2
v -0.1 0.3 0.2
v -0.1 0.4 0.2
v 0 0 0.2
v 0 0.1 0.2
v 0 0.2 0.2
v 0 0.4 0.2
v 0.1 0.1 0.2
v 0.1 0.2 0.2
v 0.1 0.3 0.2
v 0.1 0.4 0.2
v 0.2 0 0.2
v 0.2 0.1 0.2
v 0.2 0.2 0.2
v 0.2 0.3 0.2
v 0.2 0.4 0.2
v 0.3 0 0.2
v 0.3 0.1 0.2
v 0.3 0.3 0.2
v 0.3 0.4 0.2
v -0.2 -0.6 0.1
v -0.2 0 0.1
v -0.2 0.1 0.1
v -0.2 0.3 0.1
v -0.2 0.4 0.1
v -0.2 0.9 0.1
v -0.1 -0.6 0.1
v -0.1 0.1 0.1
v -0.1 0.3 0.1
v -0.1 0.4 0.1
v 0 -0.5 0.1
v 0 0 0.1
v 0 0.4 0.1
v 0 0.9 0.1
v 0.1 -0.5 0.1
v 0.1 0 0.1
v 0.1 0.4 0.1
v 0.1 0.9 0.1
v 0.2 -0.6 0.1
v 0.2 0 0.1
v 0.2 0.1 0.1
v 0.2 0.2 0.1
v 0.2 0.3 0.1
v 0.2 0.4 0.1
v 0.3 -0.6 0.1
v 0.3 0 0.1
v 0.3 0.1 0.1
v 0.3 0.3 0.1
v 0.3 0.4 0.1
v 0.3 0.9 0.1
v 0.2 -0.7 0
v 0.2 -0.6 0
v 0.3 -0.7 0
v 0.3 -0.6 0
v -0.2 -0.7 -0.1
v -0.2 -0.6 -0.1
v -0.1 -0.7 -0.1
v -0.1 -0.6 -0.1
v -0.2 -0.8 -0.2
v -0.2 -0.7 -0.2
v -0.1 -0.8 -0.2
v -0.1 -0.7 -0.2
v 0.2 -0.8 -0.2
v 0.2 -0.7 -0.2
v 0.3 -0.8 -0.2
v 0.3 -0.7 -0.2
v -0.2 -0.8 -0.4
v -0.2 0 -0.4
v -0.2 0.1 -0.4
v -0.2 0.3 -0.4
v -0.2 0.4 -0.4
v -0.2 0.9 -0.4
v 0.3 -0.8 -0.4
v 0.3 0 -0.4
v 0.3 0.1 -0.4
v 0.3 0.3 -0.4
v 0.3 0.4 -0.4
v 0.3 0.9 -0.4
v -0.1 -0.8 0.3
v 0.2 -0.8 0.3
v 0 -0.8 0.2
v 0.1 -0.8 0.2
v -0.2 -0.8 -0.2
v -0.1 -0.8 -0.2
v 0 -0.8 -0.2
v 0.1 -0.8 -0.2
v 0.2 -0.8 -0.2
v 0.3 -0.8 -0.2
v 0 -0.8 -0.3
v 0.1 -0.8 -0.3
v -0.2 -0.8 -0.4
v 0.3 -0.8 -0.4
v 0.2 -0.7 0
v 0.3 -0.7 0
v -0.2 -0.7 -0.1
v -0.1 -0.7 -0.1
v -0.2 -0.7 -0.2
v -0.1 -0.7 -0.2
v 0.2 -0.7 -0.2
v 0.3 -0.7 -0.2
v -0.2 -0.6 0.1
v -0.1 -0.6 0.1
v 0.2 -0.6 0.1
v 0.3 -0.6 0.1
v 0.2 -0.6 0
v 0.3 -0.6 0
v -0.2 -0.6 -0.1
v -0.1 -0.6 -0.1
v -0.2 0 0.2
v 0 0 0.2
v 0.2 0 0.2
v 0.3 0 0.2
v -0.2 0 0.1
v 0 0 0.1
v 0.1 0 0.1
v 0.2 0 0.1
v 0.3 0 0.1
v -0.2 0.3 0.2
v -0.1 0.3 0.2
v 0.2 0.3 0.2
v 0.3 0.3 0.2
v -0.2 0.3 0.1
v -0.1 0.3 0.1
v 0.2 0.3 0.1
v 0.3 0.3 0.1
v -0.1 -0.6 0.3
v 0.2 -0.6 0.3
v -0.1 -0.6 0.1
v 0.2 -0.6 0.1
v -0.2 0.1 0.2
v -0.1 0.1 0.2
v 0.2 0.1 0.2
v 0.3 0.1 0.2
v -0.2 0.1 0.1
v -0.1 0.1 0.1
v 0.2 0.1 0.1
v 0.3 0.1 0.1
v -0.2 0.4 0.2
v -0.1 0.4 0.2
v 0 0.4 0.2
v 0.1 0.4 0.2
v 0.2 0.4 0.2
v 0.3 0.4 0.2
v -0.2 0.4 0.1
v -0.1 0.4 0.1
v 0 0.4 0.1
v 0.1 0.4 0.1
v 0.2 0.4 0.1
v 0.3 0.4 0.1
v -0.2 0.9 0.1
v 0 0.9 0.1
v 0.1 0.9 0.1
v 0.3 0.9 0.1
v 0 0.9 0
v 0.1 0.9 0
v -0.2 0.9 -0.4
v 0.3 0.9 -0.4

# faces
f 4/2/1 2/2/1 1/2/1
f 6/2/1 4/2/1 3/2/1
f 8/2/1 6/2/1 5/2/1
f 9/2/1 2/2/1 4/2/1
f 9/2/1 4/2/1 6/2/1
f 9/2/1 6/2/1 8/2/1
f 10/5/1 8/5/1 7/5/1
f 10/5/1 9/5/1 8/5/1
f 11/5/1 9/5/1 10/5/1
f 12/5/1 9/5/1 11/5/1
f 14/2/1 12/2/1 11/2/1
f 15/2/1 12/2/1 14/2/1
f 16/5/1 14/5/1 13/5/1
f 16/5/1 15/5/1 14/5/1
f 17/5/1 15/5/1 16/5/1
f 18/5/1 15/5/1 17/5/1
f 19/2/1 18/2/1 17/2/1
f 20/2/1 18/2/1 19/2/1
f 23/5/1 22/5/1 21/5/1
f 24/5/1 22/5/1 23/5/1
f 25/5/1 23/5/1 21/5/1
f 26/5/1 23/5/1 25/5/1
f 27/5/1 23/5/1 26/5/1
f 30/4/1 29/4/1 28/4/1
f 31/4/1 29/4/1 30/4/1
f 32/5/2 33/5/2 34/5/2
f 34/5/2 33/5/2 35/5/2
f 32/5/2 34/5/2 36/5/2
f 36/5/2 34/5/2 37/5/2
f 37/5/2 34/5/2 38/5/2
f 39/4/2 40/4/2 41/4/2
f 41/4/2 40/4/2 42/4/2
f 41/5/2 42/5/2 43/5/2
f 43/5/2 42/5/2 44/5/2
f 45/2/2 46/2/2 48/2/2
f 47/2/2 48/2/2 50/2/2
f 49/2/2 50/2/2 52/2/2
f 48/2/2 46/2/2 53/2/2
f 50/2/2 48/2/2 53/2/2
f 52/2/2 50/2/2 53/2/2
f 51/5/2 52/5/2 54/5/2
f 52/5/2 53/5/2 54/5/2
f 54/5/2 53/5/2 55/5/2
f 55/5/2 53/5/2 56/5/2
f 55/2/2 56/2/2 58/2/2
f 58/2/2 56/2/2 59/2/2
f 57/5/2 58/5/2 60/5/2
f 58/5/2 59/5/2 60/5/2
f 60/5/2 59/5/2 61/5/2
f 61/5/2 59/5/2 62/5/2
f 61/2/2 62/2/2 63/2/2
f 63/2/2 62/2/2 64/2/2
f 67/5/3 66/5/3 65/5/3
f 68/5/3 66/5/3 67/5/3
f 73/5/3 70/5/3 69/5/3
f 74/5/3 72/5/3 71/5/3
f 75/5/3 72/5/3 74/5/3
f 76/5/3 73/5/3 69/5/3
f 77/4/3 74/4/3 73/4/3
f 77/5/3 73/5/3 76/5/3
f 77/4/3 75/4/3 74/4/3
f 78/4/3 75/4/3 77/4/3
f 79/4/3 75/4/3 78/4/3
f 80/4/3 77/4/3 76/4/3
f 80/5/3 78/5/3 77/5/3
f 81/1/3 79/1/3 78/1/3
f 81/5/3 78/5/3 80/5/3
f 82/1/3 79/1/3 81/1/3
f 83/1/3 79/1/3 82/1/3
f 84/4/3 80/4/3 76/4/3
f 84/4/3 81/4/3 80/4/3
f 85/4/3 81/4/3 84/4/3
f 86/5/3 82/5/3 81/5/3
f 86/4/3 81/4/3 85/4/3
f 87/4/3 83/4/3 82/4/3
f 87/5/3 82/5/3 86/5/3
f 88/4/3 83/4/3 87/4/3
f 89/5/3 85/5/3 84/5/3
f 90/5/3 85/5/3 89/5/3
f 91/5/3 88/5/3 87/5/3
f 92/5/3 88/5/3 91/5/3
f 99/2/3 94/2/3 93/2/3
f 100/2/3 96/2/3 95/2/3
f 101/2/3 96/2/3 100/2/3
f 102/2/3 98/2/3 97/2/3
f 103/2/3 94/2/3 99/2/3
f 104/2/3 94/2/3 103/2/3
f 105/2/3 98/2/3 102/2/3
f 106/2/3 98/2/3 105/2/3
f 107/1/3 104/1/3 103/1/3
f 107/2/3 103/2/3 99/2/3
f 108/1/3 104/1/3 107/1/3
f 109/1/3 106/1/3 105/1/3
f 110/1/3 106/1/3 109/1/3
f 111/2/3 108/2/3 107/2/3
f 111/2/3 107/2/3 99/2/3
f 112/2/3 108/2/3 111/2/3
f 116/2/3 110/2/3 109/2/3
f 117/2/3 112/2/3 111/2/3
f 118/2/3 112/2/3 117/2/3
f 119/2/3 115/2/3 114/2/3
f 119/2/3 114/2/3 113/2/3
f 120/2/3 115/2/3 119/2/3
f 121/2/3 110/2/3 116/2/3
f 122/2/3 110/2/3 121/2/3
f 125/2/3 124/2/3 123/2/3
f 126/2/3 124/2/3 125/2/3
f 129/2/3 128/2/3 127/2/3
f 130/2/3 128/2/3 129/2/3
f 133/2/3 132/2/3 131/2/3
f 134/2/3 132/2/3 133/2/3
f 137/2/3 136/2/3 135/2/3
f 138/2/3 136/2/3 137/2/3
f 139/2/4 140/2/4 145/2/4
f 140/5/4 141/5/4 146/5/4
f 145/2/4 140/2/4 146/2/4
f 141/2/4 142/2/4 147/2/4
f 146/5/4 141/5/4 147/5/4
f 142/5/4 143/5/4 148/5/4
f 147/2/4 142/2/4 148/2/4
f 143/2/4 144/2/4 149/2/4
f 148/5/4 143/5/4 149/5/4
f 149/2/4 144/2/4 150/2/4
f 153/5/5 152/5/5 151/5/5
f 154/5/5 152/5/5 153/5/5
f 156/5/5 153/5/5 151/5/5
f 157/3/5 154/3/5 153/3/5
f 157/5/5 153/5/5 156/5/5
f 158/5/5 152/5/5 154/5/5
f 158/3/5 154/3/5 157/3/5
f 159/5/5 152/5/5 158/5/5
f 161/2/5 157/2/5 156/2/5
f 161/2/5 156/2/5 155/2/5
f 161/5/5 158/5/5 157/5/5
f 162/2/5 160/2/5 159/2/5
f 162/5/5 158/5/5 161/5/5
f 162/2/5 159/2/5 158/2/5
f 163/2/5 161/2/5 155/2/5
f 163/2/5 162/2/5 161/2/5
f 164/2/5 160/2/5 162/2/5
f 164/2/5 162/2/5 163/2/5
f 169/2/5 168/2/5 167/2/5
f 170/2/5 168/2/5 169/2/5
f 171/2/5 166/2/5 165/2/5
f 172/2/5 166/2/5 171/2/5
f 177/2/5 176/2/5 175/2/5
f 178/2/5 176/2/5 177/2/5
f 179/2/5 174/2/5 173/2/5
f 180/2/5 174/2/5 179/2/5
f 185/5/5 182/5/5 181/5/5
f 186/4/5 183/4/5 182/4/5
f 186/5/5 182/5/5 185/5/5
f 187/4/5 183/4/5 186/4/5
f 188/5/5 184/5/5 183/5/5
f 188/4/5 183/4/5 187/4/5
f 189/5/5 184/5/5 188/5/5
f 194/5/5 191/5/5 190/5/5
f 195/5/5 191/5/5 194/5/5
f 196/5/5 193/5/5 192/5/5
f 197/5/5 193/5/5 196/5/5
f 198/5/6 199/5/6 200/5/6
f 200/5/6 199/5/6 201/5/6
f 202/5/6 203/5/6 206/5/6
f 206/5/6 203/5/6 207/5/6
f 204/5/6 205/5/6 208/5/6
f 208/5/6 205/5/6 209/5/6
f 210/5/6 211/5/6 216/5/6
f 211/4/6 212/4/6 217/4/6
f 216/5/6 211/5/6 217/5/6
f 212/1/6 213/1/6 218/1/6
f 217/4/6 212/4/6 218/4/6
f 213/4/6 214/4/6 219/4/6
f 218/1/6 213/1/6 219/1/6
f 214/5/6 215/5/6 220/5/6
f 219/4/6 214/4/6 220/4/6
f 220/5/6 215/5/6 221/5/6
f 222/2/6 223/2/6 226/2/6
f 223/1/6 224/1/6 226/1/6
f 224/2/6 225/2/6 227/2/6
f 226/1/6 224/1/6 227/1/6
f 222/2/6 226/2/6 228/2/6
f 226/2/6 227/2/6 228/2/6
f 227/2/6 225/2/6 229/2/6
f 228/2/6 227/2/6 229/2/6
