# MagicaVoxel @ Ephtracy

# group
o 

# material
mtllib WPP.mtl
usemtl palette

# normals
vn -1 0 0
vn 1 0 0
vn 0 0 1
vn 0 0 -1
vn 0 -1 0
vn 0 1 0

# texcoords
vt 0.373047 0.5
vt 0.982422 0.5
vt 0.986328 0.5
vt 0.990234 0.5
vt 0.994141 0.5

# verts
v -6.8 -3.6 2
v -6.8 -3.6 0.4
v -6.8 -1.6 2
v -6.8 -1.6 0.4
v -6.4 -1.6 2
v -6.4 -1.6 0.4
v -6.4 -1.2 2
v -6.4 -1.2 0.4
v -6 -3.8 1.6
v -6 -3.8 0.8
v -6 -2.8 1.6
v -6 -2.8 0.8
v -6 -1.2 1.9
v -6 -1.2 0.5
v -6 -0.9 1.3
v -6 -0.9 1.1
v -6 -0.8 1.4
v -6 -0.8 1.3
v -6 -0.8 1.1
v -6 -0.8 1
v -6 -0.6 1.9
v -6 -0.6 1.8
v -6 -0.6 1.5
v -6 -0.6 1.4
v -6 -0.6 1
v -6 -0.6 0.9
v -6 -0.6 0.6
v -6 -0.6 0.5
v -6 -0.5 1.8
v -6 -0.5 1.5
v -6 -0.5 0.9
v -6 -0.5 0.6
v -3.2 -3.9 1.6
v -3.2 -3.9 0.8
v -3.2 -3.2 1.6
v -3.2 -3.2 0.8
v -3.1 -3.2 1.6
v -3.1 -3.2 0.8
v -3.1 -2.9 1.6
v -3.1 -2.9 0.8
v -3 -2.9 1.6
v -3 -2.9 0.8
v -3 -2.8 1.6
v -3 -2.8 0.8
v -2.9 -2.8 1.6
v -2.9 -2.8 0.8
v -2.9 -2.7 1.6
v -2.9 -2.7 0.8
v -2.8 -2.7 1.6
v -2.8 -2.7 0.8
v -2.8 -2.4 1.6
v -2.8 -2.4 0.8
v -2.1 -3.1 1.3
v -2.1 -3.1 1.1
v -2.1 -3 1.3
v -2.1 -3 1.1
v -2 -3 1.3
v -2 -3 1.1
v -2 -2.9 1.3
v -2 -2.9 1.1
v -2 -1.7 2.1
v -2 -1.7 2
v -2 -1.7 1.9
v -2 -1.6 2.1
v -2 -1.6 2
v -2 -1.6 1.9
v -1.9 -2.9 1.3
v -1.9 -2.9 1.1
v -1.9 -2.8 1.3
v -1.9 -2.8 1.1
v -1.7 -3.2 1.3
v -1.7 -3.2 1
v -1.7 -2.4 1.3
v -1.7 -2.4 1
v 1.3 -1.2 1.4
v 1.3 -1.2 1
v 1.3 -0.9 1.4
v 1.3 -0.9 1
v -6.4 -3.6 2
v -6.4 -3.6 0.4
v -6.4 -2.8 2
v -6.4 -2.8 0.4
v -6 -2.8 2
v -6 -2.8 1.6
v -6 -2.8 0.8
v -6 -2.8 0.4
v -6 -2.4 1.9
v -6 -2.4 1.6
v -6 -2.4 0.8
v -6 -2.4 0.5
v -6 -2.3 2
v -6 -2.3 1.9
v -6 -2.3 0.5
v -6 -2.3 0.4
v -6 -1.3 2
v -6 -1.3 1.9
v -6 -1.3 0.5
v -6 -1.3 0.4
v -6 -1.2 2
v -6 -1.2 1.9
v -6 -1.2 0.5
v -6 -1.2 0.4
v -5.7 -1.2 1.9
v -5.7 -1.2 0.5
v -5.7 -0.9 1.3
v -5.7 -0.9 1.1
v -5.7 -0.8 1.4
v -5.7 -0.8 1.3
v -5.7 -0.8 1.1
v -5.7 -0.8 1
v -5.7 -0.6 1.9
v -5.7 -0.6 1.8
v -5.7 -0.6 1.5
v -5.7 -0.6 1.4
v -5.7 -0.6 1
v -5.7 -0.6 0.9
v -5.7 -0.6 0.6
v -5.7 -0.6 0.5
v -5.7 -0.5 1.8
v -5.7 -0.5 1.5
v -5.7 -0.5 0.9
v -5.7 -0.5 0.6
v -4.4 -3.8 1.6
v -4.4 -3.8 0.8
v -4.4 -2.4 1.6
v -4.4 -2.4 0.8
v -3.7 -1.7 2
v -3.7 -1.7 1.9
v -3.7 -1.6 2
v -3.7 -1.6 1.9
v -2.8 -3.9 1.6
v -2.8 -3.9 0.8
v -2.8 -3.8 1.6
v -2.8 -3.8 0.8
v -2.7 -3.8 1.6
v -2.7 -3.8 0.8
v -2.7 -3.7 1.6
v -2.7 -3.7 0.8
v -2.6 -3.7 1.6
v -2.6 -3.7 0.8
v -2.6 -3.6 1.6
v -2.6 -3.6 0.8
v -2.5 -3.6 1.6
v -2.5 -3.6 0.8
v -2.5 -3.5 1.6
v -2.5 -3.5 0.8
v -2.4 -3.5 1.6
v -2.4 -3.5 0.8
v -2.4 -3.3 1.3
v -2.4 -3.3 1
v -2.4 -3.2 1.3
v -2.4 -3.2 1
v -2.4 -2.8 1.6
v -2.4 -2.8 0.8
v -2 -3.1 1.3
v -2 -3.1 1.1
v -2 -3 1.3
v -2 -3 1.1
v -2 -2.8 1.6
v -2 -2.8 1.3
v -2 -2.8 1.1
v -2 -2.8 0.8
v -2 -2.4 1.6
v -2 -2.4 1.3
v -2 -2.4 1.1
v -2 -2.4 0.8
v -1.9 -3 1.3
v -1.9 -3 1.1
v -1.9 -2.9 1.3
v -1.9 -2.9 1.1
v -1.9 -1.7 2.1
v -1.9 -1.7 2
v -1.9 -1.6 2.1
v -1.9 -1.6 2
v -1.8 -2.9 1.3
v -1.8 -2.9 1.1
v -1.8 -2.4 1.3
v -1.8 -2.4 1.1
v -1.6 -3.3 1.3
v -1.6 -3.3 1
v -1.6 -2.4 1.3
v -1.6 -2.4 1
v 1.6 -2.4 1.9
v 1.6 -2.4 1.6
v 1.6 -2.4 0.8
v 1.6 -2.4 0.5
v 1.6 -2.3 2
v 1.6 -2.3 1.9
v 1.6 -2.3 0.5
v 1.6 -2.3 0.4
v 1.6 -1.6 1.6
v 1.6 -1.6 0.8
v 1.6 -1.3 2
v 1.6 -1.3 1.9
v 1.6 -1.3 0.5
v 1.6 -1.3 0.4
v 1.6 -1.2 1.9
v 1.6 -1.2 1.4
v 1.6 -1.2 1
v 1.6 -1.2 0.5
v 1.6 -0.9 1.4
v 1.6 -0.9 1
v 5.4 -2.2 1.4
v 5.4 -2.2 1
v 5.4 -1.8 1.4
v 5.4 -1.8 1
v 7.2 -2.4 1.6
v 7.2 -2.4 0.8
v 7.2 -2.2 1.4
v 7.2 -2.2 1
v 7.2 -1.8 1.4
v 7.2 -1.8 1
v 7.2 -1.6 1.6
v 7.2 -1.6 0.8
v -2 -1.7 2.1
v -2 -1.6 2.1
v -1.9 -1.7 2.1
v -1.9 -1.6 2.1
v -6.8 -3.6 2
v -6.8 -1.6 2
v -6.4 -3.6 2
v -6.4 -2.8 2
v -6.4 -1.6 2
v -6.4 -1.2 2
v -6 -2.8 2
v -6 -2.3 2
v -6 -1.3 2
v -6 -1.2 2
v -3.7 -1.7 2
v -3.7 -1.6 2
v -2 -1.7 2
v -2 -1.6 2
v -1.9 -1.7 2
v -1.9 -1.6 2
v -0.4 -2.3 2
v -0.4 -2.1 2
v 1.3 -2.3 2
v 1.3 -2.1 2
v 1.6 -2.3 2
v 1.6 -1.3 2
v -6 -2.4 1.9
v -6 -2.3 1.9
v -6 -1.3 1.9
v -6 -1.2 1.9
v -6 -0.6 1.9
v -5.7 -1.3 1.9
v -5.7 -1.2 1.9
v -5.7 -0.6 1.9
v -3.7 -1.7 1.9
v -3.7 -1.6 1.9
v -2 -1.7 1.9
v -2 -1.6 1.9
v -0.4 -2.4 1.9
v -0.4 -2.3 1.9
v 1.3 -2.4 1.9
v 1.3 -2.3 1.9
v 1.6 -2.4 1.9
v 1.6 -2.3 1.9
v 1.6 -1.3 1.9
v 1.6 -1.2 1.9
v -6 -0.6 1.8
v -6 -0.5 1.8
v -5.7 -0.6 1.8
v -5.7 -0.5 1.8
v -6 -3.8 1.6
v -6 -2.8 1.6
v -6 -2.4 1.6
v -4.4 -3.8 1.6
v -4.4 -2.4 1.6
v -3.2 -3.9 1.6
v -3.2 -3.2 1.6
v -3.1 -3.2 1.6
v -3.1 -2.9 1.6
v -3 -2.9 1.6
v -3 -2.8 1.6
v -2.9 -2.8 1.6
v -2.9 -2.7 1.6
v -2.8 -3.9 1.6
v -2.8 -3.8 1.6
v -2.8 -2.7 1.6
v -2.8 -2.4 1.6
v -2.7 -3.8 1.6
v -2.7 -3.7 1.6
v -2.6 -3.7 1.6
v -2.6 -3.6 1.6
v -2.5 -3.6 1.6
v -2.5 -3.5 1.6
v -2.4 -3.5 1.6
v -2.4 -2.8 1.6
v -2 -2.8 1.6
v -2 -2.4 1.6
v 1.6 -2.4 1.6
v 1.6 -1.6 1.6
v 7.2 -2.4 1.6
v 7.2 -1.6 1.6
v 1.3 -1.2 1.4
v 1.3 -0.9 1.4
v 1.6 -1.2 1.4
v 1.6 -0.9 1.4
v -2.4 -3.3 1.3
v -2.4 -3.2 1.3
v -2.1 -3.1 1.3
v -2.1 -3 1.3
v -2 -3.1 1.3
v -2 -3 1.3
v -2 -2.9 1.3
v -2 -2.8 1.3
v -2 -2.4 1.3
v -1.9 -3 1.3
v -1.9 -2.9 1.3
v -1.9 -2.8 1.3
v -1.8 -2.9 1.3
v -1.8 -2.4 1.3
v -1.7 -3.2 1.3
v -1.7 -2.4 1.3
v -1.6 -3.3 1.3
v -1.6 -2.4 1.3
v -6 -0.9 1.1
v -6 -0.8 1.1
v -5.7 -0.9 1.1
v -5.7 -0.8 1.1
v -6 -0.8 1
v -6 -0.6 1
v -5.7 -0.8 1
v -5.7 -0.6 1
v 5.4 -2.2 1
v 5.4 -1.8 1
v 7.2 -2.2 1
v 7.2 -1.8 1
v -6 -0.6 0.9
v -6 -0.5 0.9
v -5.7 -0.6 0.9
v -5.7 -0.5 0.9
v -6 -0.6 1.5
v -6 -0.5 1.5
v -5.7 -0.6 1.5
v -5.7 -0.5 1.5
v -6 -0.8 1.4
v -6 -0.6 1.4
v -5.7 -0.8 1.4
v -5.7 -0.6 1.4
v 5.4 -2.2 1.4
v 5.4 -1.8 1.4
v 7.2 -2.2 1.4
v 7.2 -1.8 1.4
v -6 -0.9 1.3
v -6 -0.8 1.3
v -5.7 -0.9 1.3
v -5.7 -0.8 1.3
v -2.1 -3.1 1.1
v -2.1 -3 1.1
v -2 -3.1 1.1
v -2 -3 1.1
v -2 -2.9 1.1
v -2 -2.8 1.1
v -2 -2.4 1.1
v -1.9 -3 1.1
v -1.9 -2.9 1.1
v -1.9 -2.8 1.1
v -1.8 -2.9 1.1
v -1.8 -2.4 1.1
v -2.4 -3.3 1
v -2.4 -3.2 1
v -1.7 -3.2 1
v -1.7 -2.4 1
v -1.6 -3.3 1
v -1.6 -2.4 1
v 1.3 -1.2 1
v 1.3 -0.9 1
v 1.6 -1.2 1
v 1.6 -0.9 1
v -6 -3.8 0.8
v -6 -2.8 0.8
v -6 -2.4 0.8
v -4.4 -3.8 0.8
v -4.4 -2.4 0.8
v -3.2 -3.9 0.8
v -3.2 -3.2 0.8
v -3.1 -3.2 0.8
v -3.1 -2.9 0.8
v -3 -2.9 0.8
v -3 -2.8 0.8
v -2.9 -2.8 0.8
v -2.9 -2.7 0.8
v -2.8 -3.9 0.8
v -2.8 -3.8 0.8
v -2.8 -2.7 0.8
v -2.8 -2.4 0.8
v -2.7 -3.8 0.8
v -2.7 -3.7 0.8
v -2.6 -3.7 0.8
v -2.6 -3.6 0.8
v -2.5 -3.6 0.8
v -2.5 -3.5 0.8
v -2.4 -3.5 0.8
v -2.4 -2.8 0.8
v -2 -2.8 0.8
v -2 -2.4 0.8
v 1.6 -2.4 0.8
v 1.6 -1.6 0.8
v 7.2 -2.4 0.8
v 7.2 -1.6 0.8
v -6 -0.6 0.6
v -6 -0.5 0.6
v -5.7 -0.6 0.6
v -5.7 -0.5 0.6
v -6 -2.4 0.5
v -6 -2.3 0.5
v -6 -1.3 0.5
v -6 -1.2 0.5
v -6 -0.6 0.5
v -5.7 -1.3 0.5
v -5.7 -1.2 0.5
v -5.7 -0.6 0.5
v -0.4 -2.4 0.5
v -0.4 -2.3 0.5
v 1.3 -2.4 0.5
v 1.3 -2.3 0.5
v 1.6 -2.4 0.5
v 1.6 -2.3 0.5
v 1.6 -1.3 0.5
v 1.6 -1.2 0.5
v -6.8 -3.6 0.4
v -6.8 -1.6 0.4
v -6.4 -3.6 0.4
v -6.4 -2.8 0.4
v -6.4 -1.6 0.4
v -6.4 -1.2 0.4
v -6 -2.8 0.4
v -6 -2.3 0.4
v -6 -1.3 0.4
v -6 -1.2 0.4
v -0.4 -2.3 0.4
v -0.4 -2.1 0.4
v 1.3 -2.3 0.4
v 1.3 -2.1 0.4
v 1.6 -2.3 0.4
v 1.6 -1.3 0.4
v -3.2 -3.9 1.6
v -2.8 -3.9 1.6
v -3.2 -3.9 0.8
v -2.8 -3.9 0.8
v -6 -3.8 1.6
v -4.4 -3.8 1.6
v -2.8 -3.8 1.6
v -2.7 -3.8 1.6
v -6 -3.8 0.8
v -4.4 -3.8 0.8
v -2.8 -3.8 0.8
v -2.7 -3.8 0.8
v -2.7 -3.7 1.6
v -2.6 -3.7 1.6
v -2.7 -3.7 0.8
v -2.6 -3.7 0.8
v -6.8 -3.6 2
v -6.4 -3.6 2
v -2.6 -3.6 1.6
v -2.5 -3.6 1.6
v -2.6 -3.6 0.8
v -2.5 -3.6 0.8
v -6.8 -3.6 0.4
v -6.4 -3.6 0.4
v -2.5 -3.5 1.6
v -2.4 -3.5 1.6
v -2.5 -3.5 0.8
v -2.4 -3.5 0.8
v -2.4 -3.3 1.3
v -1.6 -3.3 1.3
v -2.4 -3.3 1
v -1.6 -3.3 1
v -2.1 -3.1 1.3
v -2 -3.1 1.3
v -2.1 -3.1 1.1
v -2 -3.1 1.1
v -2 -3 1.3
v -1.9 -3 1.3
v -2 -3 1.1
v -1.9 -3 1.1
v -1.9 -2.9 1.3
v -1.8 -2.9 1.3
v -1.9 -2.9 1.1
v -1.8 -2.9 1.1
v -6.4 -2.8 2
v -6 -2.8 2
v -6 -2.8 1.6
v -2.4 -2.8 1.6
v -2 -2.8 1.6
v -2 -2.8 1.3
v -1.9 -2.8 1.3
v -2 -2.8 1.1
v -1.9 -2.8 1.1
v -6 -2.8 0.8
v -2.4 -2.8 0.8
v -2 -2.8 0.8
v -6.4 -2.8 0.4
v -6 -2.8 0.4
v -6 -2.4 1.9
v -0.4 -2.4 1.9
v 1.3 -2.4 1.9
v 1.6 -2.4 1.9
v -6 -2.4 1.6
v -4.4 -2.4 1.6
v -2.8 -2.4 1.6
v -2 -2.4 1.6
v 1.6 -2.4 1.6
v 7.2 -2.4 1.6
v -2 -2.4 1.3
v -1.8 -2.4 1.3
v -1.7 -2.4 1.3
v -1.6 -2.4 1.3
v -2 -2.4 1.1
v -1.8 -2.4 1.1
v -1.7 -2.4 1
v -1.6 -2.4 1
v -6 -2.4 0.8
v -4.4 -2.4 0.8
v -2.8 -2.4 0.8
v -2 -2.4 0.8
v 1.6 -2.4 0.8
v 7.2 -2.4 0.8
v -6 -2.4 0.5
v -0.4 -2.4 0.5
v 1.3 -2.4 0.5
v 1.6 -2.4 0.5
v -6 -2.3 2
v -0.4 -2.3 2
v 1.3 -2.3 2
v 1.6 -2.3 2
v -6 -2.3 1.9
v -0.4 -2.3 1.9
v 1.3 -2.3 1.9
v 1.6 -2.3 1.9
v -6 -2.3 0.5
v -0.4 -2.3 0.5
v 1.3 -2.3 0.5
v 1.6 -2.3 0.5
v -6 -2.3 0.4
v -0.4 -2.3 0.4
v 1.3 -2.3 0.4
v 1.6 -2.3 0.4
v 5.4 -1.8 1.4
v 7.2 -1.8 1.4
v 5.4 -1.8 1
v 7.2 -1.8 1
v -2 -1.7 2.1
v -1.9 -1.7 2.1
v -2 -1.7 2
v -1.9 -1.7 2
v -3.7 -1.6 2
v -2 -1.6 2
v -3.7 -1.6 1.9
v -2 -1.6 1.9
v -3.2 -3.2 1.6
v -3.1 -3.2 1.6
v -2.4 -3.2 1.3
v -1.7 -3.2 1.3
v -2.4 -3.2 1
v -1.7 -3.2 1
v -3.2 -3.2 0.8
v -3.1 -3.2 0.8
v -2.1 -3 1.3
v -2 -3 1.3
v -2.1 -3 1.1
v -2 -3 1.1
v -3.1 -2.9 1.6
v -3 -2.9 1.6
v -2 -2.9 1.3
v -1.9 -2.9 1.3
v -2 -2.9 1.1
v -1.9 -2.9 1.1
v -3.1 -2.9 0.8
v -3 -2.9 0.8
v -3 -2.8 1.6
v -2.9 -2.8 1.6
v -3 -2.8 0.8
v -2.9 -2.8 0.8
v -2.9 -2.7 1.6
v -2.8 -2.7 1.6
v -2.9 -2.7 0.8
v -2.8 -2.7 0.8
v 5.4 -2.2 1.4
v 7.2 -2.2 1.4
v 5.4 -2.2 1
v 7.2 -2.2 1
v -3.7 -1.7 2
v -2 -1.7 2
v -3.7 -1.7 1.9
v -2 -1.7 1.9
v -2 -1.6 2.1
v -1.9 -1.6 2.1
v -6.8 -1.6 2
v -6.4 -1.6 2
v -2 -1.6 2
v -1.9 -1.6 2
v 1.6 -1.6 1.6
v 7.2 -1.6 1.6
v 1.6 -1.6 0.8
v 7.2 -1.6 0.8
v -6.8 -1.6 0.4
v -6.4 -1.6 0.4
v -6 -1.3 2
v 1.6 -1.3 2
v -6 -1.3 1.9
v -5.7 -1.3 1.9
v 1.6 -1.3 1.9
v -6 -1.3 0.5
v -5.7 -1.3 0.5
v 1.6 -1.3 0.5
v -6 -1.3 0.4
v 1.6 -1.3 0.4
v -6.4 -1.2 2
v -6 -1.2 2
v -6 -1.2 1.9
v -5.7 -1.2 1.9
v 1.6 -1.2 1.9
v 1.3 -1.2 1.4
v 1.6 -1.2 1.4
v 1.3 -1.2 1
v 1.6 -1.2 1
v -6 -1.2 0.5
v -5.7 -1.2 0.5
v 1.6 -1.2 0.5
v -6.4 -1.2 0.4
v -6 -1.2 0.4
v 1.3 -0.9 1.4
v 1.6 -0.9 1.4
v -6 -0.9 1.3
v -5.7 -0.9 1.3
v -6 -0.9 1.1
v -5.7 -0.9 1.1
v 1.3 -0.9 1
v 1.6 -0.9 1
v -6 -0.8 1.4
v -5.7 -0.8 1.4
v -6 -0.8 1.3
v -5.7 -0.8 1.3
v -6 -0.8 1.1
v -5.7 -0.8 1.1
v -6 -0.8 1
v -5.7 -0.8 1
v -6 -0.6 1.9
v -5.7 -0.6 1.9
v -6 -0.6 1.8
v -5.7 -0.6 1.8
v -6 -0.6 1.5
v -5.7 -0.6 1.5
v -6 -0.6 1.4
v -5.7 -0.6 1.4
v -6 -0.6 1
v -5.7 -0.6 1
v -6 -0.6 0.9
v -5.7 -0.6 0.9
v -6 -0.6 0.6
v -5.7 -0.6 0.6
v -6 -0.6 0.5
v -5.7 -0.6 0.5
v -6 -0.5 1.8
v -5.7 -0.5 1.8
v -6 -0.5 1.5
v -5.7 -0.5 1.5
v -6 -0.5 0.9
v -5.7 -0.5 0.9
v -6 -0.5 0.6
v -5.7 -0.5 0.6

# faces
f 3/2/1 2/2/1 1/2/1
f 4/2/1 2/2/1 3/2/1
f 7/2/1 6/2/1 5/2/1
f 8/2/1 6/2/1 7/2/1
f 11/3/1 10/3/1 9/3/1
f 12/3/1 10/3/1 11/3/1
f 15/2/1 14/2/1 13/2/1
f 16/2/1 14/2/1 15/2/1
f 17/2/1 15/2/1 13/2/1
f 18/2/1 15/2/1 17/2/1
f 19/2/1 14/2/1 16/2/1
f 20/2/1 14/2/1 19/2/1
f 21/2/1 17/2/1 13/2/1
f 22/2/1 17/2/1 21/2/1
f 23/2/1 17/2/1 22/2/1
f 24/2/1 17/2/1 23/2/1
f 25/2/1 14/2/1 20/2/1
f 26/2/1 14/2/1 25/2/1
f 27/2/1 14/2/1 26/2/1
f 28/2/1 14/2/1 27/2/1
f 29/2/1 23/2/1 22/2/1
f 30/2/1 23/2/1 29/2/1
f 31/2/1 27/2/1 26/2/1
f 32/2/1 27/2/1 31/2/1
f 35/5/1 34/5/1 33/5/1
f 36/5/1 34/5/1 35/5/1
f 39/5/1 38/5/1 37/5/1
f 40/5/1 38/5/1 39/5/1
f 43/5/1 42/5/1 41/5/1
f 44/5/1 42/5/1 43/5/1
f 47/5/1 46/5/1 45/5/1
f 48/5/1 46/5/1 47/5/1
f 51/5/1 50/5/1 49/5/1
f 52/5/1 50/5/1 51/5/1
f 55/2/1 54/2/1 53/2/1
f 56/2/1 54/2/1 55/2/1
f 59/2/1 58/2/1 57/2/1
f 60/2/1 58/2/1 59/2/1
f 64/4/1 62/4/1 61/4/1
f 64/4/1 63/4/1 62/4/1
f 65/4/1 63/4/1 64/4/1
f 66/4/1 63/4/1 65/4/1
f 69/2/1 68/2/1 67/2/1
f 70/2/1 68/2/1 69/2/1
f 73/2/1 72/2/1 71/2/1
f 74/2/1 72/2/1 73/2/1
f 77/4/1 76/4/1 75/4/1
f 78/4/1 76/4/1 77/4/1
f 79/2/2 80/2/2 81/2/2
f 81/2/2 80/2/2 82/2/2
f 83/2/2 84/2/2 87/2/2
f 87/2/2 84/2/2 88/2/2
f 85/2/2 86/2/2 89/2/2
f 89/2/2 86/2/2 90/2/2
f 83/2/2 87/2/2 91/2/2
f 91/2/2 87/2/2 92/2/2
f 90/2/2 86/2/2 93/2/2
f 93/2/2 86/2/2 94/2/2
f 95/2/2 96/2/2 99/2/2
f 99/2/2 96/2/2 100/2/2
f 97/2/2 98/2/2 101/2/2
f 101/2/2 98/2/2 102/2/2
f 103/2/2 104/2/2 105/2/2
f 105/2/2 104/2/2 106/2/2
f 103/2/2 105/2/2 107/2/2
f 107/2/2 105/2/2 108/2/2
f 106/2/2 104/2/2 109/2/2
f 109/2/2 104/2/2 110/2/2
f 103/2/2 107/2/2 111/2/2
f 111/2/2 107/2/2 112/2/2
f 112/2/2 107/2/2 113/2/2
f 113/2/2 107/2/2 114/2/2
f 110/2/2 104/2/2 115/2/2
f 115/2/2 104/2/2 116/2/2
f 116/2/2 104/2/2 117/2/2
f 117/2/2 104/2/2 118/2/2
f 112/2/2 113/2/2 119/2/2
f 119/2/2 113/2/2 120/2/2
f 116/2/2 117/2/2 121/2/2
f 121/2/2 117/2/2 122/2/2
f 123/3/2 124/3/2 125/3/2
f 125/3/2 124/3/2 126/3/2
f 127/4/2 128/4/2 129/4/2
f 129/4/2 128/4/2 130/4/2
f 131/5/2 132/5/2 133/5/2
f 133/5/2 132/5/2 134/5/2
f 135/5/2 136/5/2 137/5/2
f 137/5/2 136/5/2 138/5/2
f 139/5/2 140/5/2 141/5/2
f 141/5/2 140/5/2 142/5/2
f 143/5/2 144/5/2 145/5/2
f 145/5/2 144/5/2 146/5/2
f 147/5/2 148/5/2 149/5/2
f 149/5/2 148/5/2 150/5/2
f 147/5/2 149/5/2 151/5/2
f 150/5/2 148/5/2 152/5/2
f 147/5/2 151/5/2 153/5/2
f 151/5/2 152/5/2 153/5/2
f 152/5/2 148/5/2 154/5/2
f 153/5/2 152/5/2 154/5/2
f 155/2/2 156/2/2 157/2/2
f 157/2/2 156/2/2 158/2/2
f 159/5/2 160/5/2 163/5/2
f 163/5/2 160/5/2 164/5/2
f 161/5/2 162/5/2 165/5/2
f 165/5/2 162/5/2 166/5/2
f 167/2/2 168/2/2 169/2/2
f 169/2/2 168/2/2 170/2/2
f 171/4/2 172/4/2 173/4/2
f 173/4/2 172/4/2 174/4/2
f 175/2/2 176/2/2 177/2/2
f 177/2/2 176/2/2 178/2/2
f 179/2/2 180/2/2 181/2/2
f 181/2/2 180/2/2 182/2/2
f 183/4/2 184/4/2 188/4/2
f 185/4/2 186/4/2 189/4/2
f 187/4/2 188/4/2 191/4/2
f 188/4/2 184/4/2 191/4/2
f 189/4/2 190/4/2 192/4/2
f 185/4/2 189/4/2 192/4/2
f 187/4/2 191/4/2 193/4/2
f 191/4/2 192/4/2 193/4/2
f 193/4/2 192/4/2 194/4/2
f 192/4/2 190/4/2 195/4/2
f 194/4/2 192/4/2 195/4/2
f 195/4/2 190/4/2 196/4/2
f 194/4/2 195/4/2 197/4/2
f 197/4/2 195/4/2 198/4/2
f 198/4/2 195/4/2 199/4/2
f 199/4/2 195/4/2 200/4/2
f 198/4/2 199/4/2 201/4/2
f 201/4/2 199/4/2 202/4/2
f 203/4/2 204/4/2 205/4/2
f 205/4/2 204/4/2 206/4/2
f 207/4/2 208/4/2 209/4/2
f 209/4/2 208/4/2 210/4/2
f 207/4/2 209/4/2 211/4/2
f 210/4/2 208/4/2 212/4/2
f 207/4/2 211/4/2 213/4/2
f 211/4/2 212/4/2 213/4/2
f 212/4/2 208/4/2 214/4/2
f 213/4/2 212/4/2 214/4/2
f 217/4/3 216/4/3 215/4/3
f 218/4/3 216/4/3 217/4/3
f 221/2/3 220/2/3 219/2/3
f 222/2/3 220/2/3 221/2/3
f 223/2/3 220/2/3 222/2/3
f 225/2/3 224/2/3 223/2/3
f 225/2/3 223/2/3 222/2/3
f 226/2/3 224/2/3 225/2/3
f 227/2/3 224/2/3 226/2/3
f 228/2/3 224/2/3 227/2/3
f 229/4/3 227/4/3 226/4/3
f 230/4/3 227/4/3 229/4/3
f 231/4/3 229/4/3 226/4/3
f 232/4/3 227/4/3 230/4/3
f 233/4/3 231/4/3 226/4/3
f 234/4/3 227/4/3 232/4/3
f 235/4/3 233/4/3 226/4/3
f 235/4/3 234/4/3 233/4/3
f 236/4/3 234/4/3 235/4/3
f 237/1/3 236/1/3 235/1/3
f 238/4/3 234/4/3 236/4/3
f 238/1/3 236/1/3 237/1/3
f 239/4/3 238/4/3 237/4/3
f 240/4/3 227/4/3 234/4/3
f 240/4/3 238/4/3 239/4/3
f 240/4/3 234/4/3 238/4/3
f 246/2/3 244/2/3 243/2/3
f 246/2/3 245/2/3 244/2/3
f 247/2/3 245/2/3 246/2/3
f 248/2/3 245/2/3 247/2/3
f 251/3/3 250/3/3 249/3/3
f 252/3/3 250/3/3 251/3/3
f 253/4/3 242/4/3 241/4/3
f 254/4/3 242/4/3 253/4/3
f 255/1/3 254/1/3 253/1/3
f 256/1/3 254/1/3 255/1/3
f 257/4/3 256/4/3 255/4/3
f 258/4/3 256/4/3 257/4/3
f 259/4/3 247/4/3 246/4/3
f 260/4/3 247/4/3 259/4/3
f 263/2/3 262/2/3 261/2/3
f 264/2/3 262/2/3 263/2/3
f 268/3/3 266/3/3 265/3/3
f 268/3/3 267/3/3 266/3/3
f 269/3/3 267/3/3 268/3/3
f 272/5/3 271/5/3 270/5/3
f 274/5/3 273/5/3 272/5/3
f 276/5/3 275/5/3 274/5/3
f 278/5/3 272/5/3 270/5/3
f 278/5/3 277/5/3 276/5/3
f 278/5/3 276/5/3 274/5/3
f 278/5/3 274/5/3 272/5/3
f 279/5/3 277/5/3 278/5/3
f 280/5/3 277/5/3 279/5/3
f 282/5/3 281/5/3 280/5/3
f 282/5/3 280/5/3 279/5/3
f 283/5/3 281/5/3 282/5/3
f 284/5/3 281/5/3 283/5/3
f 285/5/3 281/5/3 284/5/3
f 286/5/3 281/5/3 285/5/3
f 287/5/3 281/5/3 286/5/3
f 288/5/3 281/5/3 287/5/3
f 289/5/3 281/5/3 288/5/3
f 290/5/3 281/5/3 289/5/3
f 291/5/3 281/5/3 290/5/3
f 294/4/3 293/4/3 292/4/3
f 295/4/3 293/4/3 294/4/3
f 298/4/3 297/4/3 296/4/3
f 299/4/3 297/4/3 298/4/3
f 304/2/3 303/2/3 302/2/3
f 305/2/3 303/2/3 304/2/3
f 309/2/3 306/2/3 305/2/3
f 310/2/3 306/2/3 309/2/3
f 311/2/3 308/2/3 307/2/3
f 312/2/3 311/2/3 310/2/3
f 313/2/3 308/2/3 311/2/3
f 313/2/3 311/2/3 312/2/3
f 314/2/3 301/2/3 300/2/3
f 316/2/3 314/2/3 300/2/3
f 316/2/3 315/2/3 314/2/3
f 317/2/3 315/2/3 316/2/3
f 320/2/3 319/2/3 318/2/3
f 321/2/3 319/2/3 320/2/3
f 324/2/3 323/2/3 322/2/3
f 325/2/3 323/2/3 324/2/3
f 328/4/3 327/4/3 326/4/3
f 329/4/3 327/4/3 328/4/3
f 332/2/3 331/2/3 330/2/3
f 333/2/3 331/2/3 332/2/3
f 334/2/4 335/2/4 336/2/4
f 336/2/4 335/2/4 337/2/4
f 338/2/4 339/2/4 340/2/4
f 340/2/4 339/2/4 341/2/4
f 342/4/4 343/4/4 344/4/4
f 344/4/4 343/4/4 345/4/4
f 346/2/4 347/2/4 348/2/4
f 348/2/4 347/2/4 349/2/4
f 350/2/4 351/2/4 352/2/4
f 352/2/4 351/2/4 353/2/4
f 353/2/4 354/2/4 357/2/4
f 357/2/4 354/2/4 358/2/4
f 355/2/4 356/2/4 359/2/4
f 358/2/4 359/2/4 360/2/4
f 359/2/4 356/2/4 361/2/4
f 360/2/4 359/2/4 361/2/4
f 362/2/4 363/2/4 364/2/4
f 362/2/4 364/2/4 366/2/4
f 364/2/4 365/2/4 366/2/4
f 366/2/4 365/2/4 367/2/4
f 368/4/4 369/4/4 370/4/4
f 370/4/4 369/4/4 371/4/4
f 372/3/4 373/3/4 375/3/4
f 373/3/4 374/3/4 375/3/4
f 375/3/4 374/3/4 376/3/4
f 377/5/4 378/5/4 379/5/4
f 379/5/4 380/5/4 381/5/4
f 381/5/4 382/5/4 383/5/4
f 377/5/4 379/5/4 385/5/4
f 383/5/4 384/5/4 385/5/4
f 381/5/4 383/5/4 385/5/4
f 379/5/4 381/5/4 385/5/4
f 385/5/4 384/5/4 386/5/4
f 386/5/4 384/5/4 387/5/4
f 387/5/4 388/5/4 389/5/4
f 386/5/4 387/5/4 389/5/4
f 389/5/4 388/5/4 390/5/4
f 390/5/4 388/5/4 391/5/4
f 391/5/4 388/5/4 392/5/4
f 392/5/4 388/5/4 393/5/4
f 393/5/4 388/5/4 394/5/4
f 394/5/4 388/5/4 395/5/4
f 395/5/4 388/5/4 396/5/4
f 396/5/4 388/5/4 397/5/4
f 397/5/4 388/5/4 398/5/4
f 399/4/4 400/4/4 401/4/4
f 401/4/4 400/4/4 402/4/4
f 403/2/4 404/2/4 405/2/4
f 405/2/4 404/2/4 406/2/4
f 409/2/4 410/2/4 412/2/4
f 410/2/4 411/2/4 412/2/4
f 412/2/4 411/2/4 413/2/4
f 413/2/4 411/2/4 414/2/4
f 407/4/4 408/4/4 415/4/4
f 415/4/4 408/4/4 416/4/4
f 415/1/4 416/1/4 417/1/4
f 417/1/4 416/1/4 418/1/4
f 417/4/4 418/4/4 419/4/4
f 419/4/4 418/4/4 420/4/4
f 412/4/4 413/4/4 421/4/4
f 421/4/4 413/4/4 422/4/4
f 423/2/4 424/2/4 425/2/4
f 425/2/4 424/2/4 426/2/4
f 426/2/4 424/2/4 427/2/4
f 427/2/4 428/2/4 429/2/4
f 426/2/4 427/2/4 429/2/4
f 429/2/4 428/2/4 430/2/4
f 430/2/4 428/2/4 431/2/4
f 431/2/4 428/2/4 432/2/4
f 430/4/4 431/4/4 433/4/4
f 433/4/4 431/4/4 434/4/4
f 433/1/4 434/1/4 435/1/4
f 434/4/4 431/4/4 436/4/4
f 435/1/4 434/1/4 436/1/4
f 435/4/4 436/4/4 437/4/4
f 436/4/4 431/4/4 438/4/4
f 437/4/4 436/4/4 438/4/4
f 441/5/5 440/5/5 439/5/5
f 442/5/5 440/5/5 441/5/5
f 447/3/5 444/3/5 443/3/5
f 448/3/5 444/3/5 447/3/5
f 449/5/5 446/5/5 445/5/5
f 450/5/5 446/5/5 449/5/5
f 453/5/5 452/5/5 451/5/5
f 454/5/5 452/5/5 453/5/5
f 459/5/5 458/5/5 457/5/5
f 460/5/5 458/5/5 459/5/5
f 461/2/5 456/2/5 455/2/5
f 462/2/5 456/2/5 461/2/5
f 465/5/5 464/5/5 463/5/5
f 466/5/5 464/5/5 465/5/5
f 469/2/5 468/2/5 467/2/5
f 470/2/5 468/2/5 469/2/5
f 473/2/5 472/2/5 471/2/5
f 474/2/5 472/2/5 473/2/5
f 477/2/5 476/2/5 475/2/5
f 478/2/5 476/2/5 477/2/5
f 481/2/5 480/2/5 479/2/5
f 482/2/5 480/2/5 481/2/5
f 485/2/5 484/2/5 483/2/5
f 488/5/5 487/5/5 486/5/5
f 490/5/5 488/5/5 486/5/5
f 490/2/5 489/2/5 488/2/5
f 491/2/5 489/2/5 490/2/5
f 492/2/5 485/2/5 483/2/5
f 493/5/5 490/5/5 486/5/5
f 494/5/5 490/5/5 493/5/5
f 495/2/5 492/2/5 483/2/5
f 496/2/5 492/2/5 495/2/5
f 501/4/5 498/4/5 497/4/5
f 502/4/5 498/4/5 501/4/5
f 503/4/5 498/4/5 502/4/5
f 504/4/5 498/4/5 503/4/5
f 505/4/5 500/4/5 499/4/5
f 507/4/5 498/4/5 504/4/5
f 508/4/5 498/4/5 507/4/5
f 509/4/5 498/4/5 508/4/5
f 510/4/5 498/4/5 509/4/5
f 512/4/5 509/4/5 508/4/5
f 513/4/5 509/4/5 512/4/5
f 513/4/5 512/4/5 511/4/5
f 514/4/5 498/4/5 510/4/5
f 516/4/5 503/4/5 502/4/5
f 517/4/5 503/4/5 516/4/5
f 518/4/5 514/4/5 513/4/5
f 518/4/5 513/4/5 511/4/5
f 519/4/5 506/4/5 505/4/5
f 519/4/5 505/4/5 499/4/5
f 520/4/5 506/4/5 519/4/5
f 521/4/5 518/4/5 517/4/5
f 521/4/5 517/4/5 516/4/5
f 521/4/5 516/4/5 515/4/5
f 522/1/5 499/1/5 498/1/5
f 522/4/5 518/4/5 521/4/5
f 522/4/5 514/4/5 518/4/5
f 522/4/5 498/4/5 514/4/5
f 523/4/5 519/4/5 499/4/5
f 523/1/5 499/1/5 522/1/5
f 524/4/5 519/4/5 523/4/5
f 529/4/5 526/4/5 525/4/5
f 530/1/5 527/1/5 526/1/5
f 530/4/5 526/4/5 529/4/5
f 531/4/5 528/4/5 527/4/5
f 531/1/5 527/1/5 530/1/5
f 532/4/5 528/4/5 531/4/5
f 537/4/5 534/4/5 533/4/5
f 538/1/5 535/1/5 534/1/5
f 538/4/5 534/4/5 537/4/5
f 539/4/5 536/4/5 535/4/5
f 539/1/5 535/1/5 538/1/5
f 540/4/5 536/4/5 539/4/5
f 543/4/5 542/4/5 541/4/5
f 544/4/5 542/4/5 543/4/5
f 547/4/5 546/4/5 545/4/5
f 548/4/5 546/4/5 547/4/5
f 551/4/5 550/4/5 549/4/5
f 552/4/5 550/4/5 551/4/5
f 555/2/6 556/2/6 557/2/6
f 557/2/6 556/2/6 558/2/6
f 553/5/6 554/5/6 559/5/6
f 559/5/6 554/5/6 560/5/6
f 561/2/6 562/2/6 563/2/6
f 563/2/6 562/2/6 564/2/6
f 567/2/6 568/2/6 569/2/6
f 569/2/6 568/2/6 570/2/6
f 565/5/6 566/5/6 571/5/6
f 571/5/6 566/5/6 572/5/6
f 573/5/6 574/5/6 575/5/6
f 575/5/6 574/5/6 576/5/6
f 577/5/6 578/5/6 579/5/6
f 579/5/6 578/5/6 580/5/6
f 581/4/6 582/4/6 583/4/6
f 583/4/6 582/4/6 584/4/6
f 585/4/6 586/4/6 587/4/6
f 587/4/6 586/4/6 588/4/6
f 589/4/6 590/4/6 593/4/6
f 593/4/6 590/4/6 594/4/6
f 595/4/6 596/4/6 597/4/6
f 597/4/6 596/4/6 598/4/6
f 591/2/6 592/2/6 599/2/6
f 599/2/6 592/2/6 600/2/6
f 601/4/6 602/4/6 603/4/6
f 603/4/6 602/4/6 604/4/6
f 604/4/6 602/4/6 605/4/6
f 606/4/6 607/4/6 609/4/6
f 607/4/6 608/4/6 609/4/6
f 609/4/6 608/4/6 610/4/6
f 611/2/6 612/2/6 613/2/6
f 614/4/6 615/4/6 616/4/6
f 616/4/6 615/4/6 617/4/6
f 614/4/6 616/4/6 618/4/6
f 611/2/6 613/2/6 620/2/6
f 618/4/6 619/4/6 621/4/6
f 614/4/6 618/4/6 621/4/6
f 621/4/6 619/4/6 622/4/6
f 611/2/6 620/2/6 623/2/6
f 623/2/6 620/2/6 624/2/6
f 627/2/6 628/2/6 629/2/6
f 629/2/6 628/2/6 630/2/6
f 625/4/6 626/4/6 631/4/6
f 631/4/6 626/4/6 632/4/6
f 633/2/6 634/2/6 635/2/6
f 635/2/6 634/2/6 636/2/6
f 637/2/6 638/2/6 639/2/6
f 639/2/6 638/2/6 640/2/6
f 641/2/6 642/2/6 643/2/6
f 643/2/6 642/2/6 644/2/6
f 645/2/6 646/2/6 647/2/6
f 647/2/6 646/2/6 648/2/6
f 649/2/6 650/2/6 651/2/6
f 651/2/6 650/2/6 652/2/6
f 653/2/6 654/2/6 655/2/6
f 655/2/6 654/2/6 656/2/6
f 657/2/6 658/2/6 659/2/6
f 659/2/6 658/2/6 660/2/6
f 661/2/6 662/2/6 663/2/6
f 663/2/6 662/2/6 664/2/6
