# MagicaVoxel @ Ephtracy

# group
o 

# material
mtllib TEnemy-0.mtl
usemtl palette

# normals
vn -1 0 0
vn 1 0 0
vn 0 0 1
vn 0 0 -1
vn 0 -1 0
vn 0 1 0

# texcoords
vt 0.951172 0.5
vt 0.986328 0.5
vt 0.990234 0.5

# verts
v 16 25.2 1
v 16 25.2 -0.6
v 16 25.9 1
v 16 25.9 -0.6
v 16.4 24.8 1
v 16.4 24.8 -0.6
v 16.4 25.2 1
v 16.4 25.2 -0.6
v 16.8 24.4 1
v 16.8 24.4 -0.6
v 16.8 24.8 1
v 16.8 24.8 -0.6
v 17.2 24 1
v 17.2 24 -0.6
v 17.2 24.4 1
v 17.2 24.4 -0.6
v 17.5 22 1.3
v 17.5 22 -0.7
v 17.5 22.4 1.3
v 17.5 22.4 -0.7
v 17.5 22.8 1.3
v 17.5 22.8 -0.7
v 17.5 23.2 1.3
v 17.5 23.2 -0.7
v 17.6 19.2 2.2
v 17.6 19.2 -0.6
v 17.6 20 2.2
v 17.6 20 1
v 17.6 20.4 1
v 17.6 20.4 -0.6
v 17.6 22 1.4
v 17.6 22 1.3
v 17.6 22 1
v 17.6 22 -0.6
v 17.6 22.4 1.3
v 17.6 22.4 1
v 17.6 22.4 -0.6
v 17.6 22.8 1.3
v 17.6 22.8 1
v 17.6 22.8 -0.6
v 17.6 23.2 1.4
v 17.6 23.2 1.3
v 17.6 23.2 1
v 17.6 23.2 -0.6
v 17.6 24 1
v 17.6 24 -0.6
v 19.2 19.2 2.2
v 19.2 19.2 -0.6
v 19.2 20 2.2
v 19.2 20 1
v 19.2 20.4 1
v 19.2 20.4 -0.6
v 19.2 22 1.4
v 19.2 22 1.3
v 19.2 22 1
v 19.2 22 -0.6
v 19.2 22.4 1.3
v 19.2 22.4 1
v 19.2 22.4 -0.6
v 19.2 22.8 1.3
v 19.2 22.8 1
v 19.2 22.8 -0.6
v 19.2 23.2 1.4
v 19.2 23.2 1.3
v 19.2 23.2 1
v 19.2 23.2 -0.6
v 19.2 25.9 1
v 19.2 25.9 -0.6
v 19.3 22 1.3
v 19.3 22 -0.7
v 19.3 22.4 1.3
v 19.3 22.4 -0.7
v 19.3 22.8 1.3
v 19.3 22.8 -0.7
v 19.3 23.2 1.3
v 19.3 23.2 -0.7
v 17.6 19.2 2.2
v 17.6 20 2.2
v 19.2 19.2 2.2
v 19.2 20 2.2
v 17.6 22 1.4
v 17.6 23.2 1.4
v 19.2 22 1.4
v 19.2 23.2 1.4
v 17.5 22 1.3
v 17.5 22.4 1.3
v 17.5 22.8 1.3
v 17.5 23.2 1.3
v 17.6 22 1.3
v 17.6 22.4 1.3
v 17.6 22.8 1.3
v 17.6 23.2 1.3
v 19.2 22 1.3
v 19.2 22.4 1.3
v 19.2 22.8 1.3
v 19.2 23.2 1.3
v 19.3 22 1.3
v 19.3 22.4 1.3
v 19.3 22.8 1.3
v 19.3 23.2 1.3
v 16 25.2 1
v 16 25.9 1
v 16.4 24.8 1
v 16.4 25.2 1
v 16.8 24.4 1
v 16.8 24.8 1
v 17.2 24 1
v 17.2 24.4 1
v 17.6 20 1
v 17.6 20.4 1
v 17.6 22 1
v 17.6 23.2 1
v 17.6 24 1
v 19.2 20 1
v 19.2 20.4 1
v 19.2 22 1
v 19.2 23.2 1
v 19.2 25.9 1
v 16 25.2 -0.6
v 16 25.9 -0.6
v 16.4 24.8 -0.6
v 16.4 25.2 -0.6
v 16.8 24.4 -0.6
v 16.8 24.8 -0.6
v 17.2 24 -0.6
v 17.2 24.4 -0.6
v 17.6 19.2 -0.6
v 17.6 20.4 -0.6
v 17.6 22 -0.6
v 17.6 22.4 -0.6
v 17.6 22.8 -0.6
v 17.6 23.2 -0.6
v 17.6 24 -0.6
v 19.2 19.2 -0.6
v 19.2 20.4 -0.6
v 19.2 22 -0.6
v 19.2 22.4 -0.6
v 19.2 22.8 -0.6
v 19.2 23.2 -0.6
v 19.2 25.9 -0.6
v 17.5 22 -0.7
v 17.5 22.4 -0.7
v 17.5 22.8 -0.7
v 17.5 23.2 -0.7
v 19.3 22 -0.7
v 19.3 22.4 -0.7
v 19.3 22.8 -0.7
v 19.3 23.2 -0.7
v 17.6 19.2 2.2
v 19.2 19.2 2.2
v 17.6 19.2 -0.6
v 19.2 19.2 -0.6
v 17.6 22 1.4
v 19.2 22 1.4
v 17.5 22 1.3
v 17.6 22 1.3
v 19.2 22 1.3
v 19.3 22 1.3
v 17.6 22 1
v 19.2 22 1
v 17.6 22 -0.6
v 19.2 22 -0.6
v 17.5 22 -0.7
v 19.3 22 -0.7
v 17.5 22.8 1.3
v 17.6 22.8 1.3
v 19.2 22.8 1.3
v 19.3 22.8 1.3
v 17.6 22.8 1
v 19.2 22.8 1
v 17.6 22.8 -0.6
v 19.2 22.8 -0.6
v 17.5 22.8 -0.7
v 19.3 22.8 -0.7
v 17.2 24 1
v 17.6 24 1
v 17.2 24 -0.6
v 17.6 24 -0.6
v 16.8 24.4 1
v 17.2 24.4 1
v 16.8 24.4 -0.6
v 17.2 24.4 -0.6
v 16.4 24.8 1
v 16.8 24.8 1
v 16.4 24.8 -0.6
v 16.8 24.8 -0.6
v 16 25.2 1
v 16.4 25.2 1
v 16 25.2 -0.6
v 16.4 25.2 -0.6
v 17.6 20 2.2
v 19.2 20 2.2
v 17.6 20 1
v 19.2 20 1
v 17.5 22.4 1.3
v 17.6 22.4 1.3
v 19.2 22.4 1.3
v 19.3 22.4 1.3
v 17.6 22.4 1
v 19.2 22.4 1
v 17.6 22.4 -0.6
v 19.2 22.4 -0.6
v 17.5 22.4 -0.7
v 19.3 22.4 -0.7
v 17.6 23.2 1.4
v 19.2 23.2 1.4
v 17.5 23.2 1.3
v 17.6 23.2 1.3
v 19.2 23.2 1.3
v 19.3 23.2 1.3
v 17.6 23.2 1
v 19.2 23.2 1
v 17.6 23.2 -0.6
v 19.2 23.2 -0.6
v 17.5 23.2 -0.7
v 19.3 23.2 -0.7
v 16 25.9 1
v 19.2 25.9 1
v 16 25.9 -0.6
v 19.2 25.9 -0.6

# faces
f 3/3/1 2/3/1 1/3/1
f 4/3/1 2/3/1 3/3/1
f 7/3/1 6/3/1 5/3/1
f 8/3/1 6/3/1 7/3/1
f 11/3/1 10/3/1 9/3/1
f 12/3/1 10/3/1 11/3/1
f 15/3/1 14/3/1 13/3/1
f 16/3/1 14/3/1 15/3/1
f 19/2/1 18/2/1 17/2/1
f 20/2/1 18/2/1 19/2/1
f 23/2/1 22/2/1 21/2/1
f 24/2/1 22/2/1 23/2/1
f 27/1/1 26/1/1 25/1/1
f 28/1/1 26/1/1 27/1/1
f 29/1/1 26/1/1 28/1/1
f 30/1/1 26/1/1 29/1/1
f 33/3/1 30/3/1 29/3/1
f 34/3/1 30/3/1 33/3/1
f 35/2/1 32/2/1 31/2/1
f 38/2/1 35/2/1 31/2/1
f 38/2/1 36/2/1 35/2/1
f 39/3/1 37/3/1 36/3/1
f 39/2/1 36/2/1 38/2/1
f 40/3/1 37/3/1 39/3/1
f 41/2/1 38/2/1 31/2/1
f 42/2/1 38/2/1 41/2/1
f 45/3/1 44/3/1 43/3/1
f 46/3/1 44/3/1 45/3/1
f 47/1/2 48/1/2 49/1/2
f 49/1/2 48/1/2 50/1/2
f 50/1/2 48/1/2 51/1/2
f 51/1/2 48/1/2 52/1/2
f 51/3/2 52/3/2 55/3/2
f 55/3/2 52/3/2 56/3/2
f 53/2/2 54/2/2 57/2/2
f 53/2/2 57/2/2 60/2/2
f 57/2/2 58/2/2 60/2/2
f 58/3/2 59/3/2 61/3/2
f 60/2/2 58/2/2 61/2/2
f 61/3/2 59/3/2 62/3/2
f 53/2/2 60/2/2 63/2/2
f 63/2/2 60/2/2 64/2/2
f 65/3/2 66/3/2 67/3/2
f 67/3/2 66/3/2 68/3/2
f 69/2/2 70/2/2 71/2/2
f 71/2/2 70/2/2 72/2/2
f 73/2/2 74/2/2 75/2/2
f 75/2/2 74/2/2 76/2/2
f 79/1/3 78/1/3 77/1/3
f 80/1/3 78/1/3 79/1/3
f 83/2/3 82/2/3 81/2/3
f 84/2/3 82/2/3 83/2/3
f 89/2/3 86/2/3 85/2/3
f 90/2/3 86/2/3 89/2/3
f 91/2/3 88/2/3 87/2/3
f 92/2/3 88/2/3 91/2/3
f 97/2/3 94/2/3 93/2/3
f 98/2/3 94/2/3 97/2/3
f 99/2/3 96/2/3 95/2/3
f 100/2/3 96/2/3 99/2/3
f 104/3/3 102/3/3 101/3/3
f 106/3/3 104/3/3 103/3/3
f 108/3/3 106/3/3 105/3/3
f 113/3/3 108/3/3 107/3/3
f 114/1/3 110/1/3 109/1/3
f 115/3/3 111/3/3 110/3/3
f 115/1/3 110/1/3 114/1/3
f 116/3/3 111/3/3 115/3/3
f 117/3/3 113/3/3 112/3/3
f 118/3/3 102/3/3 104/3/3
f 118/3/3 113/3/3 117/3/3
f 118/3/3 104/3/3 106/3/3
f 118/3/3 106/3/3 108/3/3
f 118/3/3 108/3/3 113/3/3
f 119/3/4 120/3/4 122/3/4
f 121/3/4 122/3/4 124/3/4
f 123/3/4 124/3/4 126/3/4
f 125/3/4 126/3/4 133/3/4
f 127/1/4 128/1/4 134/1/4
f 128/3/4 129/3/4 135/3/4
f 134/1/4 128/1/4 135/1/4
f 135/3/4 129/3/4 136/3/4
f 130/3/4 131/3/4 137/3/4
f 137/3/4 131/3/4 138/3/4
f 132/3/4 133/3/4 139/3/4
f 122/3/4 120/3/4 140/3/4
f 139/3/4 133/3/4 140/3/4
f 124/3/4 122/3/4 140/3/4
f 126/3/4 124/3/4 140/3/4
f 133/3/4 126/3/4 140/3/4
f 141/2/4 142/2/4 145/2/4
f 145/2/4 142/2/4 146/2/4
f 143/2/4 144/2/4 147/2/4
f 147/2/4 144/2/4 148/2/4
f 151/1/5 150/1/5 149/1/5
f 152/1/5 150/1/5 151/1/5
f 156/2/5 154/2/5 153/2/5
f 157/2/5 154/2/5 156/2/5
f 159/2/5 156/2/5 155/2/5
f 159/2/5 158/2/5 157/2/5
f 159/2/5 157/2/5 156/2/5
f 160/2/5 158/2/5 159/2/5
f 161/2/5 159/2/5 155/2/5
f 162/2/5 158/2/5 160/2/5
f 163/2/5 161/2/5 155/2/5
f 163/2/5 162/2/5 161/2/5
f 164/2/5 158/2/5 162/2/5
f 164/2/5 162/2/5 163/2/5
f 169/2/5 166/2/5 165/2/5
f 170/2/5 168/2/5 167/2/5
f 171/2/5 169/2/5 165/2/5
f 172/2/5 168/2/5 170/2/5
f 173/2/5 171/2/5 165/2/5
f 173/2/5 172/2/5 171/2/5
f 174/2/5 168/2/5 172/2/5
f 174/2/5 172/2/5 173/2/5
f 177/3/5 176/3/5 175/3/5
f 178/3/5 176/3/5 177/3/5
f 181/3/5 180/3/5 179/3/5
f 182/3/5 180/3/5 181/3/5
f 185/3/5 184/3/5 183/3/5
f 186/3/5 184/3/5 185/3/5
f 189/3/5 188/3/5 187/3/5
f 190/3/5 188/3/5 189/3/5
f 191/1/6 192/1/6 193/1/6
f 193/1/6 192/1/6 194/1/6
f 195/2/6 196/2/6 199/2/6
f 197/2/6 198/2/6 200/2/6
f 195/2/6 199/2/6 201/2/6
f 200/2/6 198/2/6 202/2/6
f 195/2/6 201/2/6 203/2/6
f 201/2/6 202/2/6 203/2/6
f 202/2/6 198/2/6 204/2/6
f 203/2/6 202/2/6 204/2/6
f 205/2/6 206/2/6 208/2/6
f 208/2/6 206/2/6 209/2/6
f 207/2/6 208/2/6 211/2/6
f 209/2/6 210/2/6 211/2/6
f 208/2/6 209/2/6 211/2/6
f 211/2/6 210/2/6 212/2/6
f 207/2/6 211/2/6 213/2/6
f 212/2/6 210/2/6 214/2/6
f 207/2/6 213/2/6 215/2/6
f 213/2/6 214/2/6 215/2/6
f 214/2/6 210/2/6 216/2/6
f 215/2/6 214/2/6 216/2/6
f 217/3/6 218/3/6 219/3/6
f 219/3/6 218/3/6 220/3/6
