# MagicaVoxel @ Ephtracy

# group
o 

# material
mtllib TEnemy-3.mtl
usemtl palette

# normals
vn -1 0 0
vn 1 0 0
vn 0 0 1
vn 0 0 -1
vn 0 -1 0
vn 0 1 0

# texcoords
vt 0.373047 0.5
vt 0.955078 0.5
vt 0.982422 0.5
vt 0.990234 0.5

# verts
v 15.6 21.9 2
v 15.6 21.9 -0.8
v 15.6 23.1 2.3
v 15.6 23.1 2
v 15.6 23.9 2.3
v 15.6 23.9 -0.8
v 15.7 23.1 2.4
v 15.7 23.1 2.3
v 15.7 23.8 2.4
v 15.7 23.8 2.3
v 16 21.1 2
v 16 21.1 -0.4
v 16 21.5 2.4
v 16 21.5 2.1
v 16 21.9 2
v 16 21.9 -0.4
v 16 22.9 2.1
v 16 22.9 2
v 16 23.1 2.4
v 16 23.1 2
v 19.2 21.1 2
v 19.2 21.1 -0.4
v 19.2 21.5 2.4
v 19.2 21.5 2.1
v 19.2 21.9 2
v 19.2 21.9 -0.4
v 19.2 22.9 2.1
v 19.2 22.9 2
v 19.2 23.1 2.4
v 19.2 23.1 2
v 19.5 23.1 2.4
v 19.5 23.1 2.3
v 19.5 23.8 2.4
v 19.5 23.8 2.3
v 19.6 21.9 2
v 19.6 21.9 -0.8
v 19.6 23.1 2.3
v 19.6 23.1 2
v 19.6 23.9 2.3
v 19.6 23.9 -0.8
v 15.7 23.1 2.4
v 15.7 23.8 2.4
v 16 21.5 2.4
v 16 23.1 2.4
v 19.2 21.5 2.4
v 19.2 23.1 2.4
v 19.5 23.1 2.4
v 19.5 23.8 2.4
v 15.6 23.1 2.3
v 15.6 23.9 2.3
v 15.7 23.1 2.3
v 15.7 23.8 2.3
v 19.5 23.1 2.3
v 19.5 23.8 2.3
v 19.6 23.1 2.3
v 19.6 23.9 2.3
v 15.6 21.9 2
v 15.6 23.1 2
v 16 21.1 2
v 16 21.9 2
v 16 22.9 2
v 16 23.1 2
v 16.4 21.5 2
v 16.4 21.9 2
v 18.8 21.5 2
v 18.8 21.9 2
v 19.2 21.1 2
v 19.2 21.9 2
v 19.2 22.9 2
v 19.2 23.1 2
v 19.6 21.9 2
v 19.6 23.1 2
v 16 21.5 2.1
v 16 22.9 2.1
v 19.2 21.5 2.1
v 19.2 22.9 2.1
v 16 21.1 -0.4
v 16 21.9 -0.4
v 19.2 21.1 -0.4
v 19.2 21.9 -0.4
v 15.6 21.9 -0.8
v 15.6 23.9 -0.8
v 19.6 21.9 -0.8
v 19.6 23.9 -0.8
v 16 21.1 2
v 19.2 21.1 2
v 16.4 21.1 1.6
v 18.8 21.1 1.6
v 16.4 21.1 0
v 18.8 21.1 0
v 16 21.1 -0.4
v 19.2 21.1 -0.4
v 16 21.5 2.4
v 19.2 21.5 2.4
v 16 21.5 2.1
v 19.2 21.5 2.1
v 15.6 21.9 2
v 16 21.9 2
v 19.2 21.9 2
v 19.6 21.9 2
v 16 21.9 -0.4
v 19.2 21.9 -0.4
v 15.6 21.9 -0.8
v 19.6 21.9 -0.8
v 16 22.9 2.1
v 19.2 22.9 2.1
v 16 22.9 2
v 19.2 22.9 2
v 15.7 23.1 2.4
v 16 23.1 2.4
v 19.2 23.1 2.4
v 19.5 23.1 2.4
v 15.6 23.1 2.3
v 15.7 23.1 2.3
v 19.5 23.1 2.3
v 19.6 23.1 2.3
v 15.6 23.1 2
v 16 23.1 2
v 19.2 23.1 2
v 19.6 23.1 2
v 15.7 23.8 2.4
v 19.5 23.8 2.4
v 15.7 23.8 2.3
v 19.5 23.8 2.3
v 15.6 23.9 2.3
v 19.6 23.9 2.3
v 15.6 23.9 -0.8
v 19.6 23.9 -0.8

# faces
f 4/2/1 2/2/1 1/2/1
f 5/2/1 4/2/1 3/2/1
f 6/2/1 2/2/1 4/2/1
f 6/2/1 4/2/1 5/2/1
f 9/2/1 8/2/1 7/2/1
f 10/2/1 8/2/1 9/2/1
f 15/4/1 12/4/1 11/4/1
f 16/4/1 12/4/1 15/4/1
f 17/3/1 14/3/1 13/3/1
f 19/3/1 17/3/1 13/3/1
f 19/3/1 18/3/1 17/3/1
f 20/3/1 18/3/1 19/3/1
f 21/4/2 22/4/2 25/4/2
f 25/4/2 22/4/2 26/4/2
f 23/3/2 24/3/2 27/3/2
f 23/3/2 27/3/2 29/3/2
f 27/3/2 28/3/2 29/3/2
f 29/3/2 28/3/2 30/3/2
f 31/2/2 32/2/2 33/2/2
f 33/2/2 32/2/2 34/2/2
f 35/2/2 36/2/2 38/2/2
f 37/2/2 38/2/2 39/2/2
f 38/2/2 36/2/2 40/2/2
f 39/2/2 38/2/2 40/2/2
f 44/2/3 42/2/3 41/2/3
f 45/3/3 44/3/3 43/3/3
f 46/2/3 42/2/3 44/2/3
f 46/3/3 44/3/3 45/3/3
f 47/2/3 42/2/3 46/2/3
f 48/2/3 42/2/3 47/2/3
f 51/2/3 50/2/3 49/2/3
f 52/2/3 50/2/3 51/2/3
f 54/2/3 50/2/3 52/2/3
f 55/2/3 54/2/3 53/2/3
f 56/2/3 50/2/3 54/2/3
f 56/2/3 54/2/3 55/2/3
f 60/2/3 58/2/3 57/2/3
f 61/2/3 58/2/3 60/2/3
f 62/2/3 58/2/3 61/2/3
f 63/4/3 60/4/3 59/4/3
f 64/1/3 61/1/3 60/1/3
f 64/4/3 60/4/3 63/4/3
f 65/4/3 63/4/3 59/4/3
f 65/1/3 64/1/3 63/1/3
f 66/1/3 61/1/3 64/1/3
f 66/1/3 64/1/3 65/1/3
f 67/4/3 65/4/3 59/4/3
f 67/4/3 66/4/3 65/4/3
f 68/1/3 61/1/3 66/1/3
f 68/4/3 66/4/3 67/4/3
f 69/1/3 61/1/3 68/1/3
f 71/2/3 70/2/3 69/2/3
f 71/2/3 69/2/3 68/2/3
f 72/2/3 70/2/3 71/2/3
f 73/3/4 74/3/4 75/3/4
f 75/3/4 74/3/4 76/3/4
f 77/4/4 78/4/4 79/4/4
f 79/4/4 78/4/4 80/4/4
f 81/2/4 82/2/4 83/2/4
f 83/2/4 82/2/4 84/2/4
f 87/4/5 86/4/5 85/4/5
f 88/4/5 86/4/5 87/4/5
f 89/4/5 87/4/5 85/4/5
f 89/1/5 88/1/5 87/1/5
f 90/4/5 86/4/5 88/4/5
f 90/1/5 88/1/5 89/1/5
f 91/4/5 89/4/5 85/4/5
f 91/4/5 90/4/5 89/4/5
f 92/4/5 86/4/5 90/4/5
f 92/4/5 90/4/5 91/4/5
f 95/3/5 94/3/5 93/3/5
f 96/3/5 94/3/5 95/3/5
f 101/2/5 98/2/5 97/2/5
f 102/2/5 100/2/5 99/2/5
f 103/2/5 101/2/5 97/2/5
f 103/2/5 102/2/5 101/2/5
f 104/2/5 100/2/5 102/2/5
f 104/2/5 102/2/5 103/2/5
f 107/3/5 106/3/5 105/3/5
f 108/3/5 106/3/5 107/3/5
f 114/2/5 110/2/5 109/2/5
f 115/2/5 112/2/5 111/2/5
f 117/2/5 114/2/5 113/2/5
f 118/2/5 110/2/5 114/2/5
f 118/2/5 114/2/5 117/2/5
f 119/2/5 116/2/5 115/2/5
f 119/2/5 115/2/5 111/2/5
f 120/2/5 116/2/5 119/2/5
f 121/2/6 122/2/6 123/2/6
f 123/2/6 122/2/6 124/2/6
f 125/2/6 126/2/6 127/2/6
f 127/2/6 126/2/6 128/2/6
