# MagicaVoxel @ Ephtracy

# group
o 

# material
mtllib CSHTRUN-1.mtl
usemtl palette

# normals
vn -1 0 0
vn 1 0 0
vn 0 0 1
vn 0 0 -1
vn 0 -1 0
vn 0 1 0

# texcoords
vt 0.951172 0.5
vt 0.982422 0.5
vt 0.986328 0.5
vt 0.990234 0.5

# verts
v -0.8 0 0.7
v -0.8 0 0
v -0.8 0.2 0.7
v -0.8 0.2 0.4
v -0.8 0.3 0.4
v -0.8 0.3 0
v -0.8 0.7 0.5
v -0.8 0.7 0.4
v -0.8 0.7 0
v -0.8 1 0.5
v -0.8 1 0.4
v -0.8 1 0
v -0.8 1.6 0.4
v -0.8 1.6 0
v -0.4 0 0.7
v -0.4 0 0
v -0.4 0.2 0.7
v -0.4 0.2 0.4
v -0.4 0.3 0.4
v -0.4 0.3 0
v -0.4 0.7 0.5
v -0.4 0.7 0.4
v -0.4 0.7 0
v -0.4 1 0.5
v -0.4 1 0.4
v -0.4 1 0
v -0.4 1.2 0.4
v -0.4 1.2 0
v -0.3 1.2 0.4
v -0.3 1.2 0
v -0.3 1.3 0.4
v -0.3 1.3 0
v -0.2 1.3 0.4
v -0.2 1.3 0
v -0.2 1.4 0.4
v -0.2 1.4 0
v -0.1 1.4 0.4
v -0.1 1.4 0
v -0.1 1.5 0.4
v -0.1 1.5 0.3
v -0.1 1.5 0
v 0 1.5 0.4
v 0 1.5 0.3
v 0 1.5 0
v 0 1.6 0.4
v 0 1.6 0.3
v 0 1.6 0
v -0.8 0 0.7
v -0.8 0.2 0.7
v -0.4 0 0.7
v -0.4 0.2 0.7
v -0.8 0.7 0.5
v -0.8 1 0.5
v -0.4 0.7 0.5
v -0.4 1 0.5
v -0.8 0.2 0.4
v -0.8 0.3 0.4
v -0.8 0.7 0.4
v -0.8 1 0.4
v -0.8 1.6 0.4
v -0.4 0.2 0.4
v -0.4 0.3 0.4
v -0.4 0.7 0.4
v -0.4 1 0.4
v -0.4 1.2 0.4
v -0.3 1.2 0.4
v -0.3 1.3 0.4
v -0.2 1.3 0.4
v -0.2 1.4 0.4
v -0.1 1.4 0.4
v -0.1 1.5 0.4
v -0.1 1.6 0.4
v 0 1.5 0.4
v 0 1.6 0.4
v -0.8 0 0
v -0.8 0.3 0
v -0.8 0.7 0
v -0.8 1 0
v -0.8 1.6 0
v -0.7 0.8 0
v -0.7 0.9 0
v -0.5 0.8 0
v -0.5 0.9 0
v -0.4 0 0
v -0.4 0.3 0
v -0.4 0.7 0
v -0.4 1 0
v -0.4 1.2 0
v -0.3 1.2 0
v -0.3 1.3 0
v -0.2 1.3 0
v -0.2 1.4 0
v -0.1 1.4 0
v -0.1 1.5 0
v 0 1.5 0
v 0 1.6 0
v -0.8 0 0.7
v -0.4 0 0.7
v -0.8 0 0
v -0.4 0 0
v -0.8 0.7 0.5
v -0.4 0.7 0.5
v -0.8 0.7 0.4
v -0.4 0.7 0.4
v -0.4 1.2 0.4
v -0.3 1.2 0.4
v -0.4 1.2 0
v -0.3 1.2 0
v -0.3 1.3 0.4
v -0.2 1.3 0.4
v -0.3 1.3 0
v -0.2 1.3 0
v -0.2 1.4 0.4
v -0.1 1.4 0.4
v -0.2 1.4 0
v -0.1 1.4 0
v -0.1 1.5 0.4
v 0 1.5 0.4
v -0.1 1.5 0.3
v 0 1.5 0.3
v -0.1 1.5 0
v 0 1.5 0
v -0.8 0.2 0.7
v -0.4 0.2 0.7
v -0.8 0.2 0.4
v -0.4 0.2 0.4
v -0.8 1 0.5
v -0.4 1 0.5
v -0.8 1 0.4
v -0.4 1 0.4
v -0.8 1.6 0.4
v -0.1 1.6 0.4
v 0 1.6 0.4
v -0.7 1.6 0.3
v -0.1 1.6 0.3
v 0 1.6 0.3
v -0.7 1.6 0.1
v -0.1 1.6 0.1
v -0.8 1.6 0
v 0 1.6 0

# faces
f 3/4/1 2/4/1 1/4/1
f 4/4/1 2/4/1 3/4/1
f 5/4/1 2/4/1 4/4/1
f 6/4/1 2/4/1 5/4/1
f 8/2/1 6/2/1 5/2/1
f 9/2/1 6/2/1 8/2/1
f 10/4/1 8/4/1 7/4/1
f 10/4/1 9/4/1 8/4/1
f 11/4/1 9/4/1 10/4/1
f 12/4/1 9/4/1 11/4/1
f 13/2/1 12/2/1 11/2/1
f 14/2/1 12/2/1 13/2/1
f 15/4/2 16/4/2 17/4/2
f 17/4/2 16/4/2 18/4/2
f 18/4/2 16/4/2 19/4/2
f 19/4/2 16/4/2 20/4/2
f 19/2/2 20/2/2 22/2/2
f 22/2/2 20/2/2 23/2/2
f 21/4/2 22/4/2 24/4/2
f 22/4/2 23/4/2 24/4/2
f 24/4/2 23/4/2 25/4/2
f 25/4/2 23/4/2 26/4/2
f 25/2/2 26/2/2 27/2/2
f 27/2/2 26/2/2 28/2/2
f 29/2/2 30/2/2 31/2/2
f 31/2/2 30/2/2 32/2/2
f 33/2/2 34/2/2 35/2/2
f 35/2/2 34/2/2 36/2/2
f 37/2/2 38/2/2 39/2/2
f 39/2/2 38/2/2 40/2/2
f 40/2/2 38/2/2 41/2/2
f 42/3/2 43/3/2 45/3/2
f 43/2/2 44/2/2 46/2/2
f 45/3/2 43/3/2 46/3/2
f 46/2/2 44/2/2 47/2/2
f 50/4/3 49/4/3 48/4/3
f 51/4/3 49/4/3 50/4/3
f 54/4/3 53/4/3 52/4/3
f 55/4/3 53/4/3 54/4/3
f 61/4/3 57/4/3 56/4/3
f 62/2/3 58/2/3 57/2/3
f 62/4/3 57/4/3 61/4/3
f 63/2/3 58/2/3 62/2/3
f 64/2/3 60/2/3 59/2/3
f 65/2/3 60/2/3 64/2/3
f 66/2/3 60/2/3 65/2/3
f 67/2/3 60/2/3 66/2/3
f 68/2/3 60/2/3 67/2/3
f 69/2/3 60/2/3 68/2/3
f 70/2/3 60/2/3 69/2/3
f 71/2/3 60/2/3 70/2/3
f 72/2/3 60/2/3 71/2/3
f 73/3/3 72/3/3 71/3/3
f 74/3/3 72/3/3 73/3/3
f 77/4/4 78/4/4 80/4/4
f 80/4/4 78/4/4 81/4/4
f 77/4/4 80/4/4 82/4/4
f 80/2/4 81/2/4 82/2/4
f 81/4/4 78/4/4 83/4/4
f 82/2/4 81/2/4 83/2/4
f 75/4/4 76/4/4 84/4/4
f 76/2/4 77/2/4 85/2/4
f 84/4/4 76/4/4 85/4/4
f 77/4/4 82/4/4 86/4/4
f 85/2/4 77/2/4 86/2/4
f 82/4/4 83/4/4 86/4/4
f 83/4/4 78/4/4 87/4/4
f 86/4/4 83/4/4 87/4/4
f 78/2/4 79/2/4 87/2/4
f 87/2/4 79/2/4 88/2/4
f 88/2/4 79/2/4 89/2/4
f 89/2/4 79/2/4 90/2/4
f 90/2/4 79/2/4 91/2/4
f 91/2/4 79/2/4 92/2/4
f 92/2/4 79/2/4 93/2/4
f 93/2/4 79/2/4 94/2/4
f 94/2/4 79/2/4 95/2/4
f 95/2/4 79/2/4 96/2/4
f 99/4/5 98/4/5 97/4/5
f 100/4/5 98/4/5 99/4/5
f 103/4/5 102/4/5 101/4/5
f 104/4/5 102/4/5 103/4/5
f 107/2/5 106/2/5 105/2/5
f 108/2/5 106/2/5 107/2/5
f 111/2/5 110/2/5 109/2/5
f 112/2/5 110/2/5 111/2/5
f 115/2/5 114/2/5 113/2/5
f 116/2/5 114/2/5 115/2/5
f 119/3/5 118/3/5 117/3/5
f 120/3/5 118/3/5 119/3/5
f 121/2/5 120/2/5 119/2/5
f 122/2/5 120/2/5 121/2/5
f 123/4/6 124/4/6 125/4/6
f 125/4/6 124/4/6 126/4/6
f 127/4/6 128/4/6 129/4/6
f 129/4/6 128/4/6 130/4/6
f 131/2/6 132/2/6 134/2/6
f 132/3/6 133/3/6 135/3/6
f 134/2/6 132/2/6 135/2/6
f 135/3/6 133/3/6 136/3/6
f 131/2/6 134/2/6 137/2/6
f 134/4/6 135/4/6 137/4/6
f 135/2/6 136/2/6 138/2/6
f 137/4/6 135/4/6 138/4/6
f 131/2/6 137/2/6 139/2/6
f 137/2/6 138/2/6 139/2/6
f 138/2/6 136/2/6 140/2/6
f 139/2/6 138/2/6 140/2/6
