# MagicaVoxel @ Ephtracy

# group
o 

# material
mtllib CSHTRUN-2.mtl
usemtl palette

# normals
vn -1 0 0
vn 1 0 0
vn 0 0 1
vn 0 0 -1
vn 0 -1 0
vn 0 1 0

# texcoords
vt 0.861328 0.5
vt 0.873047 0.5
vt 0.947266 0.5
vt 0.986328 0.5

# verts
v -1.2 1.6 0.5
v -1.2 1.6 -0.1
v -1.2 1.8 0.5
v -1.2 1.8 -0.1
v -1.2 1.9 0.4
v -1.2 1.9 0
v -1.2 3.1 0.5
v -1.2 3.1 0.4
v -1.2 3.1 0
v -1.2 3.1 -0.1
v -1.2 3.2 0.4
v -1.2 3.2 0
v -1.1 3.1 0.5
v -1.1 3.1 0.4
v -1.1 3.1 0
v -1.1 3.1 -0.1
v -1.1 3.2 0.5
v -1.1 3.2 0.4
v -1.1 3.2 0
v -1.1 3.2 -0.1
v -1.1 3.3 0.4
v -1.1 3.3 0
v -1 3.2 0.5
v -1 3.2 0.4
v -1 3.2 0
v -1 3.2 -0.1
v -1 3.3 0.5
v -1 3.3 0.4
v -1 3.3 0
v -1 3.3 -0.1
v -0.8 1.6 0.5
v -0.8 1.6 -0.1
v -0.8 1.8 0.5
v -0.8 1.8 0.4
v -0.8 1.9 0.4
v -0.8 1.9 -0.1
v -0.8 3.2 0.4
v -0.8 3.2 0
v -0.8 3.3 0.5
v -0.8 3.3 0.4
v -0.8 3.3 0
v -0.8 3.3 -0.1
v -1.2 1.6 0.5
v -1.2 1.8 0.5
v -1.2 3.1 0.5
v -1.1 3.1 0.5
v -1.1 3.2 0.5
v -1 3.2 0.5
v -1 3.3 0.5
v -0.8 1.6 0.5
v -0.8 1.8 0.5
v -0.8 3.3 0.5
v -1.2 3.1 0.4
v -1.2 3.2 0.4
v -1.1 3.1 0.4
v -1.1 3.2 0.4
v -1.1 3.3 0.4
v -1 3.2 0.4
v -1 3.3 0.4
v -1.2 3.1 0
v -1.2 3.2 0
v -1.1 3.1 0
v -1.1 3.2 0
v -1.1 3.3 0
v -1 3.2 0
v -1 3.3 0
v -1.2 1.6 -0.1
v -1.2 1.8 -0.1
v -1.2 3.1 -0.1
v -1.1 1.8 -0.1
v -1.1 1.9 -0.1
v -1.1 3.1 -0.1
v -1.1 3.2 -0.1
v -1 3.2 -0.1
v -1 3.3 -0.1
v -0.8 1.6 -0.1
v -0.8 1.9 -0.1
v -0.8 3.3 -0.1
v -1.2 1.6 0.5
v -0.8 1.6 0.5
v -1.2 1.6 -0.1
v -0.8 1.6 -0.1
v -1.2 3.1 0.5
v -1.1 3.1 0.5
v -1.2 3.1 0.4
v -1.1 3.1 0.4
v -1.2 3.1 0
v -1.1 3.1 0
v -1.2 3.1 -0.1
v -1.1 3.1 -0.1
v -1.1 3.2 0.5
v -1 3.2 0.5
v -1.2 3.2 0.4
v -1.1 3.2 0.4
v -1 3.2 0.4
v -1.2 3.2 0
v -1.1 3.2 0
v -1 3.2 0
v -1.1 3.2 -0.1
v -1 3.2 -0.1
v -1 3.3 0.5
v -0.8 3.3 0.5
v -1.1 3.3 0.4
v -1 3.3 0.4
v -0.8 3.3 0.4
v -1.1 3.3 0
v -1 3.3 0
v -0.8 3.3 0
v -1 3.3 -0.1
v -0.8 3.3 -0.1

# faces
f 3/4/1 2/4/1 1/4/1
f 4/4/1 2/4/1 3/4/1
f 5/2/1 4/2/1 3/2/1
f 6/2/1 4/2/1 5/2/1
f 7/2/1 5/2/1 3/2/1
f 8/1/1 6/1/1 5/1/1
f 8/2/1 5/2/1 7/2/1
f 9/2/1 4/2/1 6/2/1
f 9/1/1 6/1/1 8/1/1
f 10/2/1 4/2/1 9/2/1
f 11/1/1 9/1/1 8/1/1
f 12/1/1 9/1/1 11/1/1
f 17/2/1 14/2/1 13/2/1
f 18/2/1 14/2/1 17/2/1
f 19/2/1 16/2/1 15/2/1
f 20/2/1 16/2/1 19/2/1
f 21/1/1 19/1/1 18/1/1
f 22/1/1 19/1/1 21/1/1
f 27/2/1 24/2/1 23/2/1
f 28/2/1 24/2/1 27/2/1
f 29/2/1 26/2/1 25/2/1
f 30/2/1 26/2/1 29/2/1
f 31/4/2 32/4/2 33/4/2
f 33/4/2 32/4/2 34/4/2
f 33/2/2 34/2/2 35/2/2
f 34/4/2 32/4/2 35/4/2
f 35/4/2 32/4/2 36/4/2
f 33/2/2 35/2/2 37/2/2
f 35/2/2 36/2/2 37/2/2
f 37/2/2 36/2/2 38/2/2
f 33/2/2 37/2/2 39/2/2
f 37/1/2 38/1/2 40/1/2
f 39/2/2 37/2/2 40/2/2
f 38/2/2 36/2/2 41/2/2
f 40/1/2 38/1/2 41/1/2
f 41/2/2 36/2/2 42/2/2
f 46/2/3 45/2/3 44/2/3
f 48/2/3 47/2/3 46/2/3
f 50/4/3 44/4/3 43/4/3
f 51/2/3 49/2/3 48/2/3
f 51/4/3 44/4/3 50/4/3
f 51/2/3 46/2/3 44/2/3
f 51/2/3 48/2/3 46/2/3
f 52/2/3 49/2/3 51/2/3
f 55/1/3 54/1/3 53/1/3
f 56/1/3 54/1/3 55/1/3
f 58/1/3 57/1/3 56/1/3
f 59/1/3 57/1/3 58/1/3
f 60/1/4 61/1/4 62/1/4
f 62/1/4 61/1/4 63/1/4
f 63/1/4 64/1/4 65/1/4
f 65/1/4 64/1/4 66/1/4
f 67/4/4 68/4/4 70/4/4
f 68/2/4 69/2/4 70/2/4
f 70/2/4 69/2/4 71/2/4
f 71/2/4 69/2/4 72/2/4
f 71/2/4 72/2/4 74/2/4
f 72/2/4 73/2/4 74/2/4
f 67/4/4 70/4/4 76/4/4
f 70/4/4 71/4/4 76/4/4
f 74/2/4 75/2/4 77/2/4
f 76/4/4 71/4/4 77/4/4
f 71/2/4 74/2/4 77/2/4
f 77/2/4 75/2/4 78/2/4
f 81/4/5 80/4/5 79/4/5
f 82/4/5 80/4/5 81/4/5
f 83/2/6 84/2/6 85/2/6
f 85/2/6 84/2/6 86/2/6
f 87/2/6 88/2/6 89/2/6
f 89/2/6 88/2/6 90/2/6
f 91/2/6 92/2/6 94/2/6
f 94/2/6 92/2/6 95/2/6
f 93/1/6 94/1/6 96/1/6
f 96/1/6 94/1/6 97/1/6
f 97/2/6 98/2/6 99/2/6
f 99/2/6 98/2/6 100/2/6
f 101/2/6 102/2/6 104/2/6
f 104/2/6 102/2/6 105/2/6
f 103/1/6 104/1/6 106/1/6
f 104/1/6 105/1/6 106/1/6
f 106/1/6 105/1/6 107/1/6
f 107/1/6 105/1/6 108/1/6
f 107/2/6 108/2/6 109/2/6
f 109/2/6 108/2/6 110/2/6
