# MagicaVoxel @ Ephtracy

# group
o 

# material
mtllib MN.mtl
usemtl palette

# normals
vn -1 0 0
vn 1 0 0
vn 0 0 1
vn 0 0 -1
vn 0 -1 0
vn 0 1 0

# texcoords
vt 0.0410156 0.5
vt 0.0644531 0.5
vt 0.0683594 0.5
vt 0.0917969 0.5

# verts
v -2.4 -10.8 -1.6
v -2.4 -10.8 -6.4
v -2.4 -7.8 -1.6
v -2.4 -7.8 -6.4
v -2.4 -7.7 -1.6
v -2.4 -7.7 -6.4
v -2.4 -7.6 -1.6
v -2.4 -7.6 -6.4
v 8.8 -10.8 -1.6
v 8.8 -10.8 -6.4
v 8.8 -7.8 -1.6
v 8.8 -7.8 -6.4
v 8.8 -7.7 -1.6
v 8.8 -7.7 -6.4
v 8.8 -7.6 -1.6
v 8.8 -7.6 -6.4
v -2.4 -10.8 -1.6
v -2.4 -7.8 -1.6
v -2.4 -7.7 -1.6
v -2.4 -7.6 -1.6
v 1.6 -10.8 -1.6
v 1.6 -7.8 -1.6
v 1.6 -7.7 -1.6
v 1.6 -7.6 -1.6
v 4.8 -10.8 -1.6
v 4.8 -7.8 -1.6
v 4.8 -7.7 -1.6
v 4.8 -7.6 -1.6
v 8.8 -10.8 -1.6
v 8.8 -7.8 -1.6
v 8.8 -7.7 -1.6
v 8.8 -7.6 -1.6
v -2.4 -10.8 -6.4
v -2.4 -7.8 -6.4
v -2.4 -7.7 -6.4
v -2.4 -7.6 -6.4
v 1.6 -10.8 -6.4
v 1.6 -7.8 -6.4
v 1.6 -7.7 -6.4
v 1.6 -7.6 -6.4
v 4.8 -10.8 -6.4
v 4.8 -7.8 -6.4
v 4.8 -7.7 -6.4
v 4.8 -7.6 -6.4
v 8.8 -10.8 -6.4
v 8.8 -7.8 -6.4
v 8.8 -7.7 -6.4
v 8.8 -7.6 -6.4
v -2.4 -10.8 -1.6
v 1.6 -10.8 -1.6
v 4.8 -10.8 -1.6
v 8.8 -10.8 -1.6
v -2.4 -10.8 -6.4
v 1.6 -10.8 -6.4
v 4.8 -10.8 -6.4
v 8.8 -10.8 -6.4
v -2.4 -7.6 -1.6
v 1.6 -7.6 -1.6
v 4.8 -7.6 -1.6
v 8.8 -7.6 -1.6
v 6.3 -7.6 -1.8
v 6.4 -7.6 -1.8
v 6.7 -7.6 -1.8
v 6.8 -7.6 -1.8
v 7.1 -7.6 -1.8
v 7.2 -7.6 -1.8
v 7.5 -7.6 -1.8
v 8.6 -7.6 -1.8
v 7.5 -7.6 -1.9
v 8 -7.6 -1.9
v 8.1 -7.6 -1.9
v 8.6 -7.6 -1.9
v 7.5 -7.6 -2.5
v 8 -7.6 -2.5
v 8.1 -7.6 -2.5
v 8.6 -7.6 -2.5
v 6.3 -7.6 -2.6
v 6.4 -7.6 -2.6
v 6.7 -7.6 -2.6
v 6.8 -7.6 -2.6
v 7.1 -7.6 -2.6
v 7.2 -7.6 -2.6
v 7.5 -7.6 -2.6
v 8.6 -7.6 -2.6
v -2.2 -7.6 -5.4
v -1.3 -7.6 -5.4
v -1 -7.6 -5.4
v -0.9 -7.6 -5.4
v -0.6 -7.6 -5.4
v -0.5 -7.6 -5.4
v -0.2 -7.6 -5.4
v -0.0999999 -7.6 -5.4
v -2.2 -7.6 -5.5
v -1.8 -7.6 -5.5
v -1.7 -7.6 -5.5
v -1.3 -7.6 -5.5
v -2.2 -7.6 -6.1
v -1.8 -7.6 -6.1
v -1.7 -7.6 -6.1
v -1.3 -7.6 -6.1
v -2.2 -7.6 -6.2
v -1.3 -7.6 -6.2
v -1 -7.6 -6.2
v -0.9 -7.6 -6.2
v -0.6 -7.6 -6.2
v -0.5 -7.6 -6.2
v -0.2 -7.6 -6.2
v -0.0999999 -7.6 -6.2
v -2.4 -7.6 -6.4
v 1.6 -7.6 -6.4
v 4.8 -7.6 -6.4
v 8.8 -7.6 -6.4

# faces
f 3/2/1 2/2/1 1/2/1
f 4/2/1 2/2/1 3/2/1
f 5/3/1 4/3/1 3/3/1
f 6/3/1 4/3/1 5/3/1
f 7/2/1 6/2/1 5/2/1
f 8/2/1 6/2/1 7/2/1
f 9/2/2 10/2/2 11/2/2
f 11/2/2 10/2/2 12/2/2
f 11/3/2 12/3/2 13/3/2
f 13/3/2 12/3/2 14/3/2
f 13/2/2 14/2/2 15/2/2
f 15/2/2 14/2/2 16/2/2
f 21/2/3 18/2/3 17/2/3
f 22/3/3 19/3/3 18/3/3
f 22/2/3 18/2/3 21/2/3
f 23/2/3 20/2/3 19/2/3
f 23/3/3 19/3/3 22/3/3
f 24/2/3 20/2/3 23/2/3
f 25/4/3 22/4/3 21/4/3
f 25/4/3 23/4/3 22/4/3
f 25/4/3 24/4/3 23/4/3
f 26/4/3 24/4/3 25/4/3
f 27/4/3 24/4/3 26/4/3
f 28/4/3 24/4/3 27/4/3
f 29/2/3 26/2/3 25/2/3
f 30/3/3 27/3/3 26/3/3
f 30/2/3 26/2/3 29/2/3
f 31/2/3 28/2/3 27/2/3
f 31/3/3 27/3/3 30/3/3
f 32/2/3 28/2/3 31/2/3
f 33/2/4 34/2/4 37/2/4
f 34/3/4 35/3/4 38/3/4
f 37/2/4 34/2/4 38/2/4
f 35/2/4 36/2/4 39/2/4
f 38/3/4 35/3/4 39/3/4
f 39/2/4 36/2/4 40/2/4
f 37/4/4 38/4/4 41/4/4
f 38/4/4 39/4/4 41/4/4
f 39/4/4 40/4/4 41/4/4
f 41/4/4 40/4/4 42/4/4
f 42/4/4 40/4/4 43/4/4
f 43/4/4 40/4/4 44/4/4
f 41/2/4 42/2/4 45/2/4
f 42/3/4 43/3/4 46/3/4
f 45/2/4 42/2/4 46/2/4
f 43/2/4 44/2/4 47/2/4
f 46/3/4 43/3/4 47/3/4
f 47/2/4 44/2/4 48/2/4
f 53/2/5 50/2/5 49/2/5
f 54/4/5 51/4/5 50/4/5
f 54/2/5 50/2/5 53/2/5
f 55/2/5 52/2/5 51/2/5
f 55/4/5 51/4/5 54/4/5
f 56/2/5 52/2/5 55/2/5
f 59/2/6 60/2/6 61/2/6
f 61/2/6 60/2/6 62/2/6
f 62/2/6 60/2/6 63/2/6
f 63/2/6 60/2/6 64/2/6
f 64/2/6 60/2/6 65/2/6
f 65/2/6 60/2/6 66/2/6
f 66/2/6 60/2/6 67/2/6
f 67/2/6 60/2/6 68/2/6
f 66/2/6 67/2/6 69/2/6
f 67/1/6 68/1/6 69/1/6
f 69/1/6 68/1/6 70/1/6
f 70/1/6 68/1/6 71/1/6
f 68/2/6 60/2/6 72/2/6
f 71/1/6 68/1/6 72/1/6
f 66/2/6 69/2/6 73/2/6
f 69/2/6 70/2/6 73/2/6
f 70/1/6 71/1/6 74/1/6
f 73/2/6 70/2/6 74/2/6
f 71/2/6 72/2/6 75/2/6
f 74/1/6 71/1/6 75/1/6
f 72/2/6 60/2/6 76/2/6
f 75/2/6 72/2/6 76/2/6
f 59/2/6 61/2/6 77/2/6
f 61/1/6 62/1/6 77/1/6
f 62/2/6 63/2/6 78/2/6
f 77/1/6 62/1/6 78/1/6
f 63/1/6 64/1/6 79/1/6
f 78/2/6 63/2/6 79/2/6
f 64/2/6 65/2/6 80/2/6
f 79/1/6 64/1/6 80/1/6
f 65/1/6 66/1/6 81/1/6
f 80/2/6 65/2/6 81/2/6
f 66/2/6 73/2/6 82/2/6
f 81/1/6 66/1/6 82/1/6
f 75/1/6 76/1/6 83/1/6
f 82/2/6 73/2/6 83/2/6
f 74/1/6 75/1/6 83/1/6
f 73/1/6 74/1/6 83/1/6
f 76/2/6 60/2/6 84/2/6
f 83/1/6 76/1/6 84/1/6
f 57/2/6 58/2/6 85/2/6
f 85/2/6 58/2/6 86/2/6
f 86/2/6 58/2/6 87/2/6
f 87/2/6 58/2/6 88/2/6
f 88/2/6 58/2/6 89/2/6
f 89/2/6 58/2/6 90/2/6
f 90/2/6 58/2/6 91/2/6
f 91/2/6 58/2/6 92/2/6
f 57/2/6 85/2/6 93/2/6
f 85/1/6 86/1/6 93/1/6
f 93/1/6 86/1/6 94/1/6
f 94/1/6 86/1/6 95/1/6
f 86/2/6 87/2/6 96/2/6
f 95/1/6 86/1/6 96/1/6
f 57/2/6 93/2/6 97/2/6
f 93/2/6 94/2/6 97/2/6
f 94/1/6 95/1/6 98/1/6
f 97/2/6 94/2/6 98/2/6
f 95/2/6 96/2/6 99/2/6
f 98/1/6 95/1/6 99/1/6
f 96/2/6 87/2/6 100/2/6
f 99/2/6 96/2/6 100/2/6
f 57/2/6 97/2/6 101/2/6
f 98/1/6 99/1/6 101/1/6
f 99/1/6 100/1/6 101/1/6
f 97/1/6 98/1/6 101/1/6
f 100/2/6 87/2/6 102/2/6
f 101/1/6 100/1/6 102/1/6
f 87/1/6 88/1/6 103/1/6
f 102/2/6 87/2/6 103/2/6
f 88/2/6 89/2/6 104/2/6
f 103/1/6 88/1/6 104/1/6
f 89/1/6 90/1/6 105/1/6
f 104/2/6 89/2/6 105/2/6
f 90/2/6 91/2/6 106/2/6
f 105/1/6 90/1/6 106/1/6
f 91/1/6 92/1/6 107/1/6
f 106/2/6 91/2/6 107/2/6
f 92/2/6 58/2/6 108/2/6
f 107/1/6 92/1/6 108/1/6
f 106/2/6 107/2/6 109/2/6
f 105/2/6 106/2/6 109/2/6
f 107/2/6 108/2/6 109/2/6
f 104/2/6 105/2/6 109/2/6
f 103/2/6 104/2/6 109/2/6
f 102/2/6 103/2/6 109/2/6
f 101/2/6 102/2/6 109/2/6
f 57/2/6 101/2/6 109/2/6
f 58/4/6 59/4/6 110/4/6
f 109/2/6 108/2/6 110/2/6
f 108/2/6 58/2/6 110/2/6
f 82/2/6 83/2/6 111/2/6
f 110/4/6 59/4/6 111/4/6
f 81/2/6 82/2/6 111/2/6
f 83/2/6 84/2/6 111/2/6
f 80/2/6 81/2/6 111/2/6
f 79/2/6 80/2/6 111/2/6
f 78/2/6 79/2/6 111/2/6
f 77/2/6 78/2/6 111/2/6
f 59/2/6 77/2/6 111/2/6
f 84/2/6 60/2/6 112/2/6
f 111/2/6 84/2/6 112/2/6
