# MagicaVoxel @ Ephtracy

# group
o 

# material
mtllib USBFlDri.mtl
usemtl palette

# normals
vn -1 0 0
vn 1 0 0
vn 0 0 1
vn 0 0 -1
vn 0 -1 0
vn 0 1 0

# texcoords
vt 0.986328 0.5
vt 0.990234 0.5

# verts
v -0.9 -10.7 3.9
v -0.9 -10.7 3.3
v -0.9 -10.1 3.9
v -0.9 -10.1 3.3
v -0.8 -10.8 3.9
v -0.8 -10.8 3.3
v -0.8 -10.7 4
v -0.8 -10.7 3.9
v -0.8 -10.7 3.3
v -0.8 -10.7 3.2
v -0.8 -10.1 4
v -0.8 -10.1 3.9
v -0.8 -10.1 3.3
v -0.8 -10.1 3.2
v -0.8 -10 3.9
v -0.8 -10 3.3
v 1.5 -10.8 3.9
v 1.5 -10.8 3.3
v 1.5 -10.7 3.9
v 1.5 -10.7 3.3
v 1.5 -10.1 3.9
v 1.5 -10.1 3.3
v 1.5 -10 3.9
v 1.5 -10 3.3
v 1.6 -10.7 4
v 1.6 -10.7 3.2
v 1.6 -10.5 3.9
v 1.6 -10.5 3.3
v 1.6 -10.2 3.9
v 1.6 -10.2 3.3
v 1.6 -10.1 4
v 1.6 -10.1 3.2
v 1.9 -10.4 3.8
v 1.9 -10.4 3.4
v 1.9 -10.3 3.8
v 1.9 -10.3 3.4
v 2.1 -10.5 3.9
v 2.1 -10.5 3.3
v 2.1 -10.4 3.8
v 2.1 -10.4 3.4
v 2.1 -10.3 3.8
v 2.1 -10.3 3.4
v 2.1 -10.2 3.9
v 2.1 -10.2 3.3
v -0.8 -10.7 4
v -0.8 -10.1 4
v 1.6 -10.7 4
v 1.6 -10.1 4
v -0.9 -10.7 3.9
v -0.9 -10.1 3.9
v -0.8 -10.8 3.9
v -0.8 -10.7 3.9
v -0.8 -10.1 3.9
v -0.8 -10 3.9
v 1.5 -10.8 3.9
v 1.5 -10.7 3.9
v 1.5 -10.1 3.9
v 1.5 -10 3.9
v 1.6 -10.5 3.9
v 1.6 -10.2 3.9
v 2.1 -10.5 3.9
v 2.1 -10.2 3.9
v 1.9 -10.4 3.4
v 1.9 -10.3 3.4
v 2.1 -10.4 3.4
v 2.1 -10.3 3.4
v 1.9 -10.4 3.8
v 1.9 -10.3 3.8
v 2.1 -10.4 3.8
v 2.1 -10.3 3.8
v -0.9 -10.7 3.3
v -0.9 -10.1 3.3
v -0.8 -10.8 3.3
v -0.8 -10.7 3.3
v -0.8 -10.1 3.3
v -0.8 -10 3.3
v 1.5 -10.8 3.3
v 1.5 -10.7 3.3
v 1.5 -10.1 3.3
v 1.5 -10 3.3
v 1.6 -10.5 3.3
v 1.6 -10.2 3.3
v 2.1 -10.5 3.3
v 2.1 -10.2 3.3
v -0.8 -10.7 3.2
v -0.8 -10.1 3.2
v 1.6 -10.7 3.2
v 1.6 -10.1 3.2
v -0.8 -10.8 3.9
v 1.5 -10.8 3.9
v -0.8 -10.8 3.3
v 1.5 -10.8 3.3
v -0.8 -10.7 4
v 1.6 -10.7 4
v -0.9 -10.7 3.9
v -0.8 -10.7 3.9
v 1.5 -10.7 3.9
v -0.9 -10.7 3.3
v -0.8 -10.7 3.3
v 1.5 -10.7 3.3
v -0.8 -10.7 3.2
v 1.6 -10.7 3.2
v 1.6 -10.5 3.9
v 2.1 -10.5 3.9
v 1.6 -10.5 3.3
v 2.1 -10.5 3.3
v 1.9 -10.3 3.8
v 2.1 -10.3 3.8
v 1.9 -10.3 3.4
v 2.1 -10.3 3.4
v 1.9 -10.4 3.8
v 2.1 -10.4 3.8
v 1.9 -10.4 3.4
v 2.1 -10.4 3.4
v 1.6 -10.2 3.9
v 2.1 -10.2 3.9
v 1.6 -10.2 3.3
v 2.1 -10.2 3.3
v -0.8 -10.1 4
v 1.6 -10.1 4
v -0.9 -10.1 3.9
v -0.8 -10.1 3.9
v 1.5 -10.1 3.9
v -0.9 -10.1 3.3
v -0.8 -10.1 3.3
v 1.5 -10.1 3.3
v -0.8 -10.1 3.2
v 1.6 -10.1 3.2
v -0.8 -10 3.9
v 1.5 -10 3.9
v -0.8 -10 3.3
v 1.5 -10 3.3

# faces
f 3/2/1 2/2/1 1/2/1
f 4/2/1 2/2/1 3/2/1
f 8/2/1 6/2/1 5/2/1
f 9/2/1 6/2/1 8/2/1
f 11/2/1 8/2/1 7/2/1
f 12/2/1 8/2/1 11/2/1
f 13/2/1 10/2/1 9/2/1
f 14/2/1 10/2/1 13/2/1
f 15/2/1 13/2/1 12/2/1
f 16/2/1 13/2/1 15/2/1
f 17/2/2 18/2/2 19/2/2
f 19/2/2 18/2/2 20/2/2
f 21/2/2 22/2/2 23/2/2
f 23/2/2 22/2/2 24/2/2
f 25/2/2 26/2/2 27/2/2
f 27/2/2 26/2/2 28/2/2
f 25/2/2 27/2/2 29/2/2
f 28/2/2 26/2/2 30/2/2
f 25/2/2 29/2/2 31/2/2
f 29/2/2 30/2/2 31/2/2
f 30/2/2 26/2/2 32/2/2
f 31/2/2 30/2/2 32/2/2
f 33/1/2 34/1/2 35/1/2
f 35/1/2 34/1/2 36/1/2
f 37/1/2 38/1/2 39/1/2
f 39/1/2 38/1/2 40/1/2
f 37/1/2 39/1/2 41/1/2
f 40/1/2 38/1/2 42/1/2
f 37/1/2 41/1/2 43/1/2
f 41/1/2 42/1/2 43/1/2
f 42/1/2 38/1/2 44/1/2
f 43/1/2 42/1/2 44/1/2
f 47/2/3 46/2/3 45/2/3
f 48/2/3 46/2/3 47/2/3
f 52/2/3 50/2/3 49/2/3
f 53/2/3 50/2/3 52/2/3
f 55/2/3 52/2/3 51/2/3
f 56/2/3 52/2/3 55/2/3
f 57/2/3 54/2/3 53/2/3
f 58/2/3 54/2/3 57/2/3
f 61/1/3 60/1/3 59/1/3
f 62/1/3 60/1/3 61/1/3
f 65/1/3 64/1/3 63/1/3
f 66/1/3 64/1/3 65/1/3
f 67/1/4 68/1/4 69/1/4
f 69/1/4 68/1/4 70/1/4
f 71/2/4 72/2/4 74/2/4
f 74/2/4 72/2/4 75/2/4
f 73/2/4 74/2/4 77/2/4
f 77/2/4 74/2/4 78/2/4
f 75/2/4 76/2/4 79/2/4
f 79/2/4 76/2/4 80/2/4
f 81/1/4 82/1/4 83/1/4
f 83/1/4 82/1/4 84/1/4
f 85/2/4 86/2/4 87/2/4
f 87/2/4 86/2/4 88/2/4
f 91/2/5 90/2/5 89/2/5
f 92/2/5 90/2/5 91/2/5
f 96/2/5 94/2/5 93/2/5
f 97/2/5 94/2/5 96/2/5
f 98/2/5 96/2/5 95/2/5
f 99/2/5 96/2/5 98/2/5
f 100/2/5 94/2/5 97/2/5
f 101/2/5 100/2/5 99/2/5
f 102/2/5 94/2/5 100/2/5
f 102/2/5 100/2/5 101/2/5
f 105/1/5 104/1/5 103/1/5
f 106/1/5 104/1/5 105/1/5
f 109/1/5 108/1/5 107/1/5
f 110/1/5 108/1/5 109/1/5
f 111/1/6 112/1/6 113/1/6
f 113/1/6 112/1/6 114/1/6
f 115/1/6 116/1/6 117/1/6
f 117/1/6 116/1/6 118/1/6
f 119/2/6 120/2/6 122/2/6
f 122/2/6 120/2/6 123/2/6
f 121/2/6 122/2/6 124/2/6
f 124/2/6 122/2/6 125/2/6
f 123/2/6 120/2/6 126/2/6
f 125/2/6 126/2/6 127/2/6
f 126/2/6 120/2/6 128/2/6
f 127/2/6 126/2/6 128/2/6
f 129/2/6 130/2/6 131/2/6
f 131/2/6 130/2/6 132/2/6
