# MagicaVoxel @ Ephtracy

# group
o 

# material
mtllib disassembledRevolver.mtl
usemtl palette

# normals
vn -1 0 0
vn 1 0 0
vn 0 0 1
vn 0 0 -1
vn 0 -1 0
vn 0 1 0

# texcoords
vt 0.369141 0.5
vt 0.373047 0.5
vt 0.537109 0.5
vt 0.986328 0.5
vt 0.990234 0.5

# verts
v -1.7 0 0.1
v -1.7 0 0
v -1.7 0 -0.1
v -1.7 0 -0.2
v -1.7 0 -0.3
v -1.7 0 -0.4
v -1.7 0 -1.3
v -1.7 0 -1.7
v -1.7 0.1 0.1
v -1.7 0.1 0
v -1.7 0.1 -0.1
v -1.7 0.1 -0.2
v -1.7 0.1 -0.3
v -1.7 0.1 -0.4
v -1.7 0.1 -1.4
v -1.7 0.1 -1.6
v -1.7 0.3 -0.3
v -1.7 0.3 -0.4
v -1.7 0.3 -1.4
v -1.7 0.3 -1.6
v -1.7 0.4 -1.3
v -1.7 0.4 -1.7
v -1.6 0 1.1
v -1.6 0 0.7
v -1.6 0 -0.7
v -1.6 0 -1
v -1.6 0.1 1
v -1.6 0.1 0.8
v -1.6 0.3 1
v -1.6 0.3 0.8
v -1.6 0.4 1.1
v -1.6 0.4 0.7
v -1.6 0.6 -0.7
v -1.6 0.6 -1
v -1.5 0 -0.2
v -1.5 0 -0.3
v -1.5 0 -0.5
v -1.5 0 -0.6
v -1.5 0 -0.7
v -1.5 0 -1
v -1.5 0 -1.1
v -1.5 0.1 -0.2
v -1.5 0.1 -0.3
v -1.5 0.1 -0.4
v -1.5 0.1 -0.5
v -1.5 0.2 -0.4
v -1.5 0.2 -0.5
v -1.5 0.6 -0.6
v -1.5 0.6 -0.7
v -1.5 0.6 -1
v -1.5 0.6 -1.1
v -1.4 0 -0.8
v -1.4 0 -0.9
v -1.4 0.6 -0.8
v -1.4 0.6 -0.9
v -1.3 0 -0.2
v -1.3 0 -0.4
v -1.3 0 -0.5
v -1.3 0 -0.7
v -1.3 0 -0.8
v -1.3 0 -0.9
v -1.3 0 -1
v -1.3 0.1 -0.2
v -1.3 0.1 -0.3
v -1.3 0.1 -0.4
v -1.3 0.1 -0.5
v -1.3 0.2 -0.2
v -1.3 0.2 -0.3
v -1.3 0.6 -0.7
v -1.3 0.6 -0.8
v -1.3 0.6 -0.9
v -1.3 0.6 -1
v -1.2 0 -0.8
v -1.2 0 -0.9
v -1.2 0.6 -0.8
v -1.2 0.6 -0.9
v -1.1 0 -0.2
v -1.1 0 -0.4
v -1.1 0 -0.5
v -1.1 0.1 0.5
v -1.1 0.1 0.4
v -1.1 0.1 -0.2
v -1.1 0.1 -0.3
v -1.1 0.1 -0.4
v -1.1 0.1 -0.5
v -1.1 0.2 0.5
v -1.1 0.2 0.4
v -1 0 -0.5
v -1 0 -0.7
v -1 0.1 0.6
v -1 0.1 0.5
v -1 0.1 0.4
v -1 0.1 0.3
v -1 0.1 -0.5
v -1 0.1 -0.7
v -1 0.2 0.6
v -1 0.2 0.5
v -1 0.2 0.4
v -1 0.2 0.3
v -1 0.4 0.5
v -1 0.4 0.4
v -0.9 0 -0.7
v -0.9 0 -1.1
v -0.9 0.1 -0.7
v -0.9 0.1 -1.1
v -0.7 0.1 0.2
v -0.7 0.1 0.1
v -0.7 0.2 0.2
v -0.7 0.2 0.1
v -0.6 0.1 0.3
v -0.6 0.1 0.2
v -0.6 0.1 0.1
v -0.6 0.1 0
v -0.6 0.2 0.3
v -0.6 0.2 0.2
v -0.6 0.2 0.1
v -0.6 0.2 0
v -0.6 0.4 0.2
v -0.6 0.4 0.1
v -0.5 0.1 -0.9
v -0.5 0.1 -1.2
v -0.5 0.4 -0.9
v -0.5 0.4 -1.2
v -0.4 0.1 -0.5
v -0.4 0.1 -0.9
v -0.4 0.4 -0.5
v -0.4 0.4 -0.9
v 0.0999999 0 -1.2
v 0.0999999 0 -1.4
v 0.0999999 0.1 -1.2
v 0.0999999 0.1 -1.4
v 0.2 0 -1.4
v 0.2 0 -1.5
v 0.2 0.1 -1.4
v 0.2 0.1 -1.5
v -1.6 0 -0.3
v -1.6 0 -0.4
v -1.6 0.1 -0.3
v -1.6 0.1 -0.4
v -1.6 0.3 -0.3
v -1.6 0.3 -0.4
v -1.5 0 -0.8
v -1.5 0 -0.9
v -1.5 0.6 -0.8
v -1.5 0.6 -0.9
v -1.4 0 -0.2
v -1.4 0 -0.3
v -1.4 0 -0.5
v -1.4 0 -0.7
v -1.4 0 -0.8
v -1.4 0 -0.9
v -1.4 0 -1
v -1.4 0.1 -0.2
v -1.4 0.1 -0.3
v -1.4 0.1 -0.4
v -1.4 0.1 -0.5
v -1.4 0.6 -0.7
v -1.4 0.6 -0.8
v -1.4 0.6 -0.9
v -1.4 0.6 -1
v -1.3 0 -0.8
v -1.3 0 -0.9
v -1.3 0.6 -0.8
v -1.3 0.6 -0.9
v -1.2 0 -0.2
v -1.2 0 -0.4
v -1.2 0 -0.5
v -1.2 0 -0.6
v -1.2 0 -0.7
v -1.2 0 -1
v -1.2 0 -1.1
v -1.2 0.1 -0.2
v -1.2 0.1 -0.3
v -1.2 0.1 -0.4
v -1.2 0.1 -0.5
v -1.2 0.2 -0.4
v -1.2 0.2 -0.5
v -1.2 0.6 -0.6
v -1.2 0.6 -0.7
v -1.2 0.6 -1
v -1.2 0.6 -1.1
v -1.1 0 -0.7
v -1.1 0 -1
v -1.1 0.6 -0.7
v -1.1 0.6 -1
v -1 0 0.1
v -1 0 0
v -1 0 -0.1
v -1 0 -0.2
v -1 0 -0.4
v -1 0 -0.5
v -1 0.1 0.1
v -1 0.1 0
v -1 0.1 -0.1
v -1 0.1 -0.2
v -1 0.1 -0.3
v -1 0.1 -0.4
v -1 0.1 -0.5
v -1 0.2 -0.2
v -1 0.2 -0.3
v -0.9 0 -0.5
v -0.9 0 -0.6
v -0.9 0.1 0.6
v -0.9 0.1 0.5
v -0.9 0.1 0.4
v -0.9 0.1 0.3
v -0.9 0.1 -0.5
v -0.9 0.1 -0.6
v -0.9 0.2 0.6
v -0.9 0.2 0.5
v -0.9 0.2 0.4
v -0.9 0.2 0.3
v -0.9 0.4 0.5
v -0.9 0.4 0.4
v -0.8 0 -0.6
v -0.8 0 -0.7
v -0.8 0.1 0.5
v -0.8 0.1 0.4
v -0.8 0.1 -0.6
v -0.8 0.1 -0.7
v -0.8 0.2 0.5
v -0.8 0.2 0.4
v -0.7 0 -0.7
v -0.7 0 -1.1
v -0.7 0.1 -0.7
v -0.7 0.1 -1.1
v -0.5 0.1 0.3
v -0.5 0.1 0.2
v -0.5 0.1 0.1
v -0.5 0.1 0
v -0.5 0.2 0.3
v -0.5 0.2 0.2
v -0.5 0.2 0.1
v -0.5 0.2 0
v -0.5 0.4 0.2
v -0.5 0.4 0.1
v -0.4 0.1 0.2
v -0.4 0.1 0.1
v -0.4 0.2 0.2
v -0.4 0.2 0.1
v -0.1 0 1.1
v -0.1 0 0.7
v -0.1 0.1 1
v -0.1 0.1 0.8
v -0.1 0.3 1
v -0.1 0.3 0.8
v -0.1 0.4 1.1
v -0.1 0.4 0.7
v 0 0 -1.3
v 0 0 -1.7
v 0 0.1 -0.5
v 0 0.1 -1.2
v 0 0.1 -1.4
v 0 0.1 -1.6
v 0 0.3 -1.4
v 0 0.3 -1.6
v 0 0.4 -0.5
v 0 0.4 -1.2
v 0 0.4 -1.3
v 0 0.4 -1.7
v 0.2 0 -1.2
v 0.2 0 -1.4
v 0.2 0.1 -1.2
v 0.2 0.1 -1.4
v 0.3 0 -1.4
v 0.3 0 -1.5
v 0.3 0.1 -1.4
v 0.3 0.1 -1.5
v -1.6 0 1.1
v -1.6 0.4 1.1
v -0.1 0 1.1
v -0.1 0.4 1.1
v -1.6 0.1 0.8
v -1.6 0.3 0.8
v -0.1 0.1 0.8
v -0.1 0.3 0.8
v -1 0.1 0.6
v -1 0.2 0.6
v -0.9 0.1 0.6
v -0.9 0.2 0.6
v -1.1 0.1 0.5
v -1.1 0.2 0.5
v -1 0.1 0.5
v -1 0.2 0.5
v -1 0.4 0.5
v -0.9 0.1 0.5
v -0.9 0.2 0.5
v -0.9 0.4 0.5
v -0.8 0.1 0.5
v -0.8 0.2 0.5
v -0.6 0.1 0.3
v -0.6 0.2 0.3
v -0.5 0.1 0.3
v -0.5 0.2 0.3
v -0.7 0.1 0.2
v -0.7 0.2 0.2
v -0.6 0.1 0.2
v -0.6 0.2 0.2
v -0.6 0.4 0.2
v -0.5 0.1 0.2
v -0.5 0.2 0.2
v -0.5 0.4 0.2
v -0.4 0.1 0.2
v -0.4 0.2 0.2
v -1.7 0 0.1
v -1.7 0.1 0.1
v -1 0 0.1
v -1 0.1 0.1
v -1.7 0 -0.1
v -1.7 0.1 -0.1
v -1 0 -0.1
v -1 0.1 -0.1
v -1.3 0.1 -0.2
v -1.3 0.2 -0.2
v -1.1 0.1 -0.2
v -1.1 0.2 -0.2
v -1 0.1 -0.2
v -1 0.2 -0.2
v -1.7 0 -0.3
v -1.7 0.1 -0.3
v -1.7 0.3 -0.3
v -1.6 0 -0.3
v -1.6 0.1 -0.3
v -1.6 0.3 -0.3
v -1.5 0.1 -0.4
v -1.5 0.2 -0.4
v -1.4 0.1 -0.4
v -1.4 0.2 -0.4
v -1.3 0.1 -0.4
v -1.2 0.1 -0.4
v -1.2 0.2 -0.4
v -1 0 -0.5
v -1 0.1 -0.5
v -0.9 0 -0.5
v -0.9 0.1 -0.5
v -0.4 0.1 -0.5
v -0.4 0.4 -0.5
v 0 0.1 -0.5
v 0 0.4 -0.5
v -1.5 0 -0.6
v -1.5 0.6 -0.6
v -1.2 0 -0.6
v -1.2 0.6 -0.6
v -0.9 0 -0.6
v -0.9 0.1 -0.6
v -0.8 0 -0.6
v -0.8 0.1 -0.6
v -1.6 0 -0.7
v -1.6 0.6 -0.7
v -1.5 0 -0.7
v -1.5 0.6 -0.7
v -1.2 0 -0.7
v -1.2 0.6 -0.7
v -1.1 0 -0.7
v -1.1 0.6 -0.7
v -0.8 0 -0.7
v -0.8 0.1 -0.7
v -0.7 0 -0.7
v -0.7 0.1 -0.7
v -1.4 0 -0.8
v -1.4 0.6 -0.8
v -1.3 0 -0.8
v -1.3 0.6 -0.8
v -1.5 0 -0.9
v -1.5 0.6 -0.9
v -1.4 0 -0.9
v -1.4 0.6 -0.9
v -1.3 0 -0.9
v -1.3 0.6 -0.9
v -1.2 0 -0.9
v -1.2 0.6 -0.9
v -0.5 0.1 -0.9
v -0.5 0.4 -0.9
v -0.4 0.1 -0.9
v -0.4 0.4 -0.9
v -1.4 0 -1
v -1.4 0.6 -1
v -1.3 0 -1
v -1.3 0.6 -1
v 0.0999999 0 -1.2
v 0.0999999 0.1 -1.2
v 0.2 0 -1.2
v 0.2 0.1 -1.2
v -1.7 0 -1.3
v -1.7 0.4 -1.3
v 0 0 -1.3
v 0 0.4 -1.3
v 0.2 0 -1.4
v 0.2 0.1 -1.4
v 0.3 0 -1.4
v 0.3 0.1 -1.4
v -1.7 0.1 -1.6
v -1.7 0.3 -1.6
v 0 0.1 -1.6
v 0 0.3 -1.6
v -1.6 0.1 1
v -1.6 0.3 1
v -0.1 0.1 1
v -0.1 0.3 1
v -1.6 0 0.7
v -1.6 0.4 0.7
v -0.1 0 0.7
v -0.1 0.4 0.7
v -1.1 0.1 0.4
v -1.1 0.2 0.4
v -1 0.1 0.4
v -1 0.2 0.4
v -1 0.4 0.4
v -0.9 0.1 0.4
v -0.9 0.2 0.4
v -0.9 0.4 0.4
v -0.8 0.1 0.4
v -0.8 0.2 0.4
v -1 0.1 0.3
v -1 0.2 0.3
v -0.9 0.1 0.3
v -0.9 0.2 0.3
v -0.7 0.1 0.1
v -0.7 0.2 0.1
v -0.6 0.1 0.1
v -0.6 0.2 0.1
v -0.6 0.4 0.1
v -0.5 0.1 0.1
v -0.5 0.2 0.1
v -0.5 0.4 0.1
v -0.4 0.1 0.1
v -0.4 0.2 0.1
v -1.7 0 0
v -1.7 0.1 0
v -1 0 0
v -1 0.1 0
v -0.6 0.1 0
v -0.6 0.2 0
v -0.5 0.1 0
v -0.5 0.2 0
v -1.7 0 -0.2
v -1.7 0.1 -0.2
v -1.5 0 -0.2
v -1.5 0.1 -0.2
v -1.4 0 -0.2
v -1.4 0.1 -0.2
v -1.3 0 -0.2
v -1.3 0.1 -0.2
v -1.2 0 -0.2
v -1.2 0.1 -0.2
v -1.1 0 -0.2
v -1.1 0.1 -0.2
v -1.3 0.1 -0.3
v -1.3 0.2 -0.3
v -1.2 0.1 -0.3
v -1.1 0.1 -0.3
v -1.1 0.2 -0.3
v -1 0.1 -0.3
v -1 0.2 -0.3
v -1.7 0 -0.4
v -1.7 0.1 -0.4
v -1.7 0.3 -0.4
v -1.6 0 -0.4
v -1.6 0.1 -0.4
v -1.6 0.3 -0.4
v -1.5 0 -0.5
v -1.5 0.1 -0.5
v -1.5 0.2 -0.5
v -1.4 0 -0.5
v -1.4 0.1 -0.5
v -1.4 0.2 -0.5
v -1.3 0 -0.5
v -1.3 0.1 -0.5
v -1.2 0 -0.5
v -1.2 0.1 -0.5
v -1.2 0.2 -0.5
v -1.1 0 -0.5
v -1.1 0.1 -0.5
v -1 0 -0.5
v -1 0.1 -0.5
v -1.4 0 -0.7
v -1.4 0.6 -0.7
v -1.3 0 -0.7
v -1.3 0.6 -0.7
v -1 0 -0.7
v -1 0.1 -0.7
v -0.9 0 -0.7
v -0.9 0.1 -0.7
v -1.5 0 -0.8
v -1.5 0.6 -0.8
v -1.4 0 -0.8
v -1.4 0.6 -0.8
v -1.3 0 -0.8
v -1.3 0.6 -0.8
v -1.2 0 -0.8
v -1.2 0.6 -0.8
v -1.4 0 -0.9
v -1.4 0.6 -0.9
v -1.3 0 -0.9
v -1.3 0.6 -0.9
v -1.6 0 -1
v -1.6 0.6 -1
v -1.5 0 -1
v -1.5 0.6 -1
v -1.2 0 -1
v -1.2 0.6 -1
v -1.1 0 -1
v -1.1 0.6 -1
v -1.5 0 -1.1
v -1.5 0.6 -1.1
v -1.2 0 -1.1
v -1.2 0.6 -1.1
v -0.9 0 -1.1
v -0.9 0.1 -1.1
v -0.7 0 -1.1
v -0.7 0.1 -1.1
v -0.5 0.1 -1.2
v -0.5 0.4 -1.2
v 0 0.1 -1.2
v 0 0.4 -1.2
v -1.7 0.1 -1.4
v -1.7 0.3 -1.4
v 0 0.1 -1.4
v 0 0.3 -1.4
v 0.0999999 0 -1.4
v 0.0999999 0.1 -1.4
v 0.2 0 -1.4
v 0.2 0.1 -1.4
v 0.2 0 -1.5
v 0.2 0.1 -1.5
v 0.3 0 -1.5
v 0.3 0.1 -1.5
v -1.7 0 -1.7
v -1.7 0.4 -1.7
v 0 0 -1.7
v 0 0.4 -1.7
v -1.6 0 1.1
v -0.1 0 1.1
v -1.6 0 0.7
v -0.1 0 0.7
v -1.7 0 0.1
v -1 0 0.1
v -1.7 0 0
v -1 0 0
v -1.7 0 -0.1
v -1 0 -0.1
v -1.7 0 -0.2
v -1.5 0 -0.2
v -1.4 0 -0.2
v -1.3 0 -0.2
v -1.2 0 -0.2
v -1.1 0 -0.2
v -1 0 -0.2
v -1.7 0 -0.3
v -1.6 0 -0.3
v -1.5 0 -0.3
v -1.4 0 -0.3
v -1.7 0 -0.4
v -1.6 0 -0.4
v -1.3 0 -0.4
v -1.2 0 -0.4
v -1.1 0 -0.4
v -1 0 -0.4
v -1.5 0 -0.5
v -1.4 0 -0.5
v -1.3 0 -0.5
v -1.2 0 -0.5
v -1.1 0 -0.5
v -1 0 -0.5
v -0.9 0 -0.5
v -1.5 0 -0.6
v -1.2 0 -0.6
v -0.9 0 -0.6
v -0.8 0 -0.6
v -1.6 0 -0.7
v -1.5 0 -0.7
v -1.4 0 -0.7
v -1.3 0 -0.7
v -1.2 0 -0.7
v -1.1 0 -0.7
v -1 0 -0.7
v -0.9 0 -0.7
v -0.8 0 -0.7
v -0.7 0 -0.7
v -1.5 0 -0.8
v -1.4 0 -0.8
v -1.3 0 -0.8
v -1.2 0 -0.8
v -1.5 0 -0.9
v -1.4 0 -0.9
v -1.3 0 -0.9
v -1.2 0 -0.9
v -1.6 0 -1
v -1.5 0 -1
v -1.4 0 -1
v -1.3 0 -1
v -1.2 0 -1
v -1.1 0 -1
v -1.5 0 -1.1
v -1.2 0 -1.1
v -0.9 0 -1.1
v -0.7 0 -1.1
v 0.0999999 0 -1.2
v 0.2 0 -1.2
v -1.7 0 -1.3
v 0 0 -1.3
v 0.0999999 0 -1.4
v 0.2 0 -1.4
v 0.3 0 -1.4
v 0.2 0 -1.5
v 0.3 0 -1.5
v -1.7 0 -1.7
v 0 0 -1.7
v -1 0.1 0.6
v -0.9 0.1 0.6
v -1.1 0.1 0.5
v -1 0.1 0.5
v -0.9 0.1 0.5
v -0.8 0.1 0.5
v -1.1 0.1 0.4
v -1 0.1 0.4
v -0.9 0.1 0.4
v -0.8 0.1 0.4
v -1 0.1 0.3
v -0.9 0.1 0.3
v -0.6 0.1 0.3
v -0.5 0.1 0.3
v -0.7 0.1 0.2
v -0.6 0.1 0.2
v -0.5 0.1 0.2
v -0.4 0.1 0.2
v -0.7 0.1 0.1
v -0.6 0.1 0.1
v -0.5 0.1 0.1
v -0.4 0.1 0.1
v -0.6 0.1 0
v -0.5 0.1 0
v -1.2 0.1 -0.2
v -1.1 0.1 -0.2
v -1.2 0.1 -0.3
v -1.1 0.1 -0.3
v -1.4 0.1 -0.4
v -1.3 0.1 -0.4
v -1.4 0.1 -0.5
v -1.3 0.1 -0.5
v -0.4 0.1 -0.5
v 0 0.1 -0.5
v -0.5 0.1 -0.9
v -0.4 0.1 -0.9
v -0.5 0.1 -1.2
v 0 0.1 -1.2
v -1.6 0.3 1
v -0.1 0.3 1
v -1.6 0.3 0.8
v -0.1 0.3 0.8
v -1.7 0.3 -1.4
v 0 0.3 -1.4
v -1.7 0.3 -1.6
v 0 0.3 -1.6
v -1.6 0.1 1
v -0.1 0.1 1
v -1.6 0.1 0.8
v -0.1 0.1 0.8
v -1.7 0.1 0.1
v -1 0.1 0.1
v -1.7 0.1 0
v -1 0.1 0
v -1.7 0.1 -0.1
v -1 0.1 -0.1
v -1.7 0.1 -0.2
v -1.5 0.1 -0.2
v -1.4 0.1 -0.2
v -1.3 0.1 -0.2
v -1.1 0.1 -0.2
v -1 0.1 -0.2
v -1.5 0.1 -0.3
v -1.4 0.1 -0.3
v -1.3 0.1 -0.3
v -1.2 0.1 -0.3
v -1.1 0.1 -0.3
v -1 0.1 -0.3
v -1.5 0.1 -0.4
v -1.4 0.1 -0.4
v -1.3 0.1 -0.4
v -1.2 0.1 -0.4
v -1.1 0.1 -0.4
v -1 0.1 -0.4
v -1.1 0.1 -0.5
v -1 0.1 -0.5
v -0.9 0.1 -0.5
v -0.9 0.1 -0.6
v -0.8 0.1 -0.6
v -1 0.1 -0.7
v -0.9 0.1 -0.7
v -0.8 0.1 -0.7
v -0.7 0.1 -0.7
v -0.9 0.1 -1.1
v -0.7 0.1 -1.1
v 0.0999999 0.1 -1.2
v 0.2 0.1 -1.2
v -1.7 0.1 -1.4
v 0 0.1 -1.4
v 0.0999999 0.1 -1.4
v 0.2 0.1 -1.4
v 0.3 0.1 -1.4
v 0.2 0.1 -1.5
v 0.3 0.1 -1.5
v -1.7 0.1 -1.6
v 0 0.1 -1.6
v -1 0.2 0.6
v -0.9 0.2 0.6
v -1.1 0.2 0.5
v -1 0.2 0.5
v -0.9 0.2 0.5
v -0.8 0.2 0.5
v -1.1 0.2 0.4
v -1 0.2 0.4
v -0.9 0.2 0.4
v -0.8 0.2 0.4
v -1 0.2 0.3
v -0.9 0.2 0.3
v -0.6 0.2 0.3
v -0.5 0.2 0.3
v -0.7 0.2 0.2
v -0.6 0.2 0.2
v -0.5 0.2 0.2
v -0.4 0.2 0.2
v -0.7 0.2 0.1
v -0.6 0.2 0.1
v -0.5 0.2 0.1
v -0.4 0.2 0.1
v -0.6 0.2 0
v -0.5 0.2 0
v -1.3 0.2 -0.2
v -1.1 0.2 -0.2
v -1 0.2 -0.2
v -1.3 0.2 -0.3
v -1.1 0.2 -0.3
v -1 0.2 -0.3
v -1.5 0.2 -0.4
v -1.4 0.2 -0.4
v -1.2 0.2 -0.4
v -1.5 0.2 -0.5
v -1.4 0.2 -0.5
v -1.2 0.2 -0.5
v -1.7 0.3 -0.3
v -1.6 0.3 -0.3
v -1.7 0.3 -0.4
v -1.6 0.3 -0.4
v -1.6 0.4 1.1
v -0.1 0.4 1.1
v -1.6 0.4 0.7
v -0.1 0.4 0.7
v -1 0.4 0.5
v -0.9 0.4 0.5
v -1 0.4 0.4
v -0.9 0.4 0.4
v -0.6 0.4 0.2
v -0.5 0.4 0.2
v -0.6 0.4 0.1
v -0.5 0.4 0.1
v -0.4 0.4 -0.5
v 0 0.4 -0.5
v -0.5 0.4 -0.9
v -0.4 0.4 -0.9
v -0.5 0.4 -1.2
v 0 0.4 -1.2
v -1.7 0.4 -1.3
v 0 0.4 -1.3
v -1.7 0.4 -1.7
v 0 0.4 -1.7
v -1.5 0.6 -0.6
v -1.2 0.6 -0.6
v -1.6 0.6 -0.7
v -1.5 0.6 -0.7
v -1.4 0.6 -0.7
v -1.3 0.6 -0.7
v -1.2 0.6 -0.7
v -1.1 0.6 -0.7
v -1.5 0.6 -0.8
v -1.4 0.6 -0.8
v -1.3 0.6 -0.8
v -1.2 0.6 -0.8
v -1.5 0.6 -0.9
v -1.4 0.6 -0.9
v -1.3 0.6 -0.9
v -1.2 0.6 -0.9
v -1.6 0.6 -1
v -1.5 0.6 -1
v -1.4 0.6 -1
v -1.3 0.6 -1
v -1.2 0.6 -1
v -1.1 0.6 -1
v -1.5 0.6 -1.1
v -1.2 0.6 -1.1

# faces
f 9/4/1 2/4/1 1/4/1
f 10/4/1 2/4/1 9/4/1
f 11/4/1 4/4/1 3/4/1
f 12/4/1 4/4/1 11/4/1
f 13/1/1 6/1/1 5/1/1
f 14/1/1 6/1/1 13/1/1
f 15/4/1 8/4/1 7/4/1
f 16/4/1 8/4/1 15/4/1
f 17/2/1 14/2/1 13/2/1
f 18/2/1 14/2/1 17/2/1
f 19/4/1 15/4/1 7/4/1
f 20/4/1 8/4/1 16/4/1
f 21/4/1 19/4/1 7/4/1
f 21/4/1 20/4/1 19/4/1
f 22/4/1 8/4/1 20/4/1
f 22/4/1 20/4/1 21/4/1
f 27/4/1 24/4/1 23/4/1
f 28/4/1 24/4/1 27/4/1
f 29/4/1 27/4/1 23/4/1
f 30/4/1 24/4/1 28/4/1
f 31/4/1 29/4/1 23/4/1
f 31/4/1 30/4/1 29/4/1
f 32/4/1 24/4/1 30/4/1
f 32/4/1 30/4/1 31/4/1
f 33/4/1 26/4/1 25/4/1
f 34/4/1 26/4/1 33/4/1
f 42/1/1 36/1/1 35/1/1
f 43/2/1 37/2/1 36/2/1
f 43/1/1 36/1/1 42/1/1
f 44/2/1 37/2/1 43/2/1
f 45/2/1 37/2/1 44/2/1
f 46/1/1 45/1/1 44/1/1
f 47/1/1 45/1/1 46/1/1
f 48/4/1 39/4/1 38/4/1
f 49/4/1 39/4/1 48/4/1
f 50/4/1 41/4/1 40/4/1
f 51/4/1 41/4/1 50/4/1
f 54/5/1 53/5/1 52/5/1
f 55/5/1 53/5/1 54/5/1
f 63/2/1 57/2/1 56/2/1
f 64/2/1 57/2/1 63/2/1
f 65/1/1 58/1/1 57/1/1
f 65/2/1 57/2/1 64/2/1
f 66/1/1 58/1/1 65/1/1
f 67/2/1 64/2/1 63/2/1
f 68/2/1 64/2/1 67/2/1
f 69/4/1 60/4/1 59/4/1
f 70/4/1 60/4/1 69/4/1
f 71/4/1 62/4/1 61/4/1
f 72/4/1 62/4/1 71/4/1
f 75/4/1 74/4/1 73/4/1
f 76/4/1 74/4/1 75/4/1
f 82/2/1 78/2/1 77/2/1
f 83/2/1 78/2/1 82/2/1
f 84/1/1 79/1/1 78/1/1
f 84/2/1 78/2/1 83/2/1
f 85/1/1 79/1/1 84/1/1
f 86/4/1 81/4/1 80/4/1
f 87/4/1 81/4/1 86/4/1
f 94/4/1 89/4/1 88/4/1
f 95/4/1 89/4/1 94/4/1
f 96/4/1 91/4/1 90/4/1
f 97/4/1 91/4/1 96/4/1
f 98/4/1 93/4/1 92/4/1
f 99/4/1 93/4/1 98/4/1
f 100/4/1 98/4/1 97/4/1
f 101/4/1 98/4/1 100/4/1
f 104/4/1 103/4/1 102/4/1
f 105/4/1 103/4/1 104/4/1
f 108/4/1 107/4/1 106/4/1
f 109/4/1 107/4/1 108/4/1
f 114/4/1 111/4/1 110/4/1
f 115/4/1 111/4/1 114/4/1
f 116/4/1 113/4/1 112/4/1
f 117/4/1 113/4/1 116/4/1
f 118/4/1 116/4/1 115/4/1
f 119/4/1 116/4/1 118/4/1
f 122/3/1 121/3/1 120/3/1
f 123/3/1 121/3/1 122/3/1
f 126/3/1 125/3/1 124/3/1
f 127/3/1 125/3/1 126/3/1
f 130/4/1 129/4/1 128/4/1
f 131/4/1 129/4/1 130/4/1
f 134/4/1 133/4/1 132/4/1
f 135/4/1 133/4/1 134/4/1
f 136/1/2 137/1/2 138/1/2
f 138/1/2 137/1/2 139/1/2
f 138/2/2 139/2/2 140/2/2
f 140/2/2 139/2/2 141/2/2
f 142/4/2 143/4/2 144/4/2
f 144/4/2 143/4/2 145/4/2
f 146/1/2 147/1/2 153/1/2
f 147/2/2 148/2/2 154/2/2
f 153/1/2 147/1/2 154/1/2
f 154/2/2 148/2/2 155/2/2
f 155/2/2 148/2/2 156/2/2
f 149/4/2 150/4/2 157/4/2
f 157/4/2 150/4/2 158/4/2
f 151/4/2 152/4/2 159/4/2
f 159/4/2 152/4/2 160/4/2
f 161/5/2 162/5/2 163/5/2
f 163/5/2 162/5/2 164/5/2
f 165/2/2 166/2/2 172/2/2
f 172/2/2 166/2/2 173/2/2
f 166/1/2 167/1/2 174/1/2
f 173/2/2 166/2/2 174/2/2
f 174/1/2 167/1/2 175/1/2
f 174/2/2 175/2/2 176/2/2
f 176/2/2 175/2/2 177/2/2
f 168/4/2 169/4/2 178/4/2
f 178/4/2 169/4/2 179/4/2
f 170/4/2 171/4/2 180/4/2
f 180/4/2 171/4/2 181/4/2
f 182/4/2 183/4/2 184/4/2
f 184/4/2 183/4/2 185/4/2
f 186/4/2 187/4/2 192/4/2
f 192/4/2 187/4/2 193/4/2
f 188/4/2 189/4/2 194/4/2
f 189/2/2 190/2/2 195/2/2
f 194/4/2 189/4/2 195/4/2
f 195/2/2 190/2/2 196/2/2
f 190/1/2 191/1/2 197/1/2
f 196/2/2 190/2/2 197/2/2
f 197/1/2 191/1/2 198/1/2
f 195/1/2 196/1/2 199/1/2
f 199/1/2 196/1/2 200/1/2
f 201/4/2 202/4/2 207/4/2
f 207/4/2 202/4/2 208/4/2
f 203/4/2 204/4/2 209/4/2
f 209/4/2 204/4/2 210/4/2
f 205/4/2 206/4/2 211/4/2
f 211/4/2 206/4/2 212/4/2
f 210/4/2 211/4/2 213/4/2
f 213/4/2 211/4/2 214/4/2
f 215/4/2 216/4/2 219/4/2
f 219/4/2 216/4/2 220/4/2
f 217/4/2 218/4/2 221/4/2
f 221/4/2 218/4/2 222/4/2
f 223/4/2 224/4/2 225/4/2
f 225/4/2 224/4/2 226/4/2
f 227/4/2 228/4/2 231/4/2
f 231/4/2 228/4/2 232/4/2
f 229/4/2 230/4/2 233/4/2
f 233/4/2 230/4/2 234/4/2
f 232/4/2 233/4/2 235/4/2
f 235/4/2 233/4/2 236/4/2
f 237/4/2 238/4/2 239/4/2
f 239/4/2 238/4/2 240/4/2
f 241/4/2 242/4/2 243/4/2
f 243/4/2 242/4/2 244/4/2
f 241/4/2 243/4/2 245/4/2
f 244/4/2 242/4/2 246/4/2
f 241/4/2 245/4/2 247/4/2
f 245/4/2 246/4/2 247/4/2
f 246/4/2 242/4/2 248/4/2
f 247/4/2 246/4/2 248/4/2
f 249/4/2 250/4/2 253/4/2
f 253/4/2 250/4/2 254/4/2
f 249/4/2 253/4/2 255/4/2
f 254/4/2 250/4/2 256/4/2
f 251/3/2 252/3/2 257/3/2
f 257/3/2 252/3/2 258/3/2
f 255/4/2 256/4/2 259/4/2
f 249/4/2 255/4/2 259/4/2
f 256/4/2 250/4/2 260/4/2
f 259/4/2 256/4/2 260/4/2
f 261/4/2 262/4/2 263/4/2
f 263/4/2 262/4/2 264/4/2
f 265/4/2 266/4/2 267/4/2
f 267/4/2 266/4/2 268/4/2
f 271/4/3 270/4/3 269/4/3
f 272/4/3 270/4/3 271/4/3
f 275/4/3 274/4/3 273/4/3
f 276/4/3 274/4/3 275/4/3
f 279/4/3 278/4/3 277/4/3
f 280/4/3 278/4/3 279/4/3
f 283/4/3 282/4/3 281/4/3
f 284/4/3 282/4/3 283/4/3
f 287/4/3 285/4/3 284/4/3
f 288/4/3 285/4/3 287/4/3
f 289/4/3 287/4/3 286/4/3
f 290/4/3 287/4/3 289/4/3
f 293/4/3 292/4/3 291/4/3
f 294/4/3 292/4/3 293/4/3
f 297/4/3 296/4/3 295/4/3
f 298/4/3 296/4/3 297/4/3
f 301/4/3 299/4/3 298/4/3
f 302/4/3 299/4/3 301/4/3
f 303/4/3 301/4/3 300/4/3
f 304/4/3 301/4/3 303/4/3
f 307/4/3 306/4/3 305/4/3
f 308/4/3 306/4/3 307/4/3
f 311/4/3 310/4/3 309/4/3
f 312/4/3 310/4/3 311/4/3
f 315/2/3 314/2/3 313/2/3
f 316/2/3 314/2/3 315/2/3
f 317/1/3 316/1/3 315/1/3
f 318/1/3 316/1/3 317/1/3
f 322/1/3 320/1/3 319/1/3
f 323/2/3 321/2/3 320/2/3
f 323/1/3 320/1/3 322/1/3
f 324/2/3 321/2/3 323/2/3
f 327/1/3 326/1/3 325/1/3
f 328/1/3 326/1/3 327/1/3
f 329/2/3 328/2/3 327/2/3
f 330/2/3 328/2/3 329/2/3
f 331/2/3 328/2/3 330/2/3
f 334/4/3 333/4/3 332/4/3
f 335/4/3 333/4/3 334/4/3
f 338/3/3 337/3/3 336/3/3
f 339/3/3 337/3/3 338/3/3
f 342/4/3 341/4/3 340/4/3
f 343/4/3 341/4/3 342/4/3
f 346/4/3 345/4/3 344/4/3
f 347/4/3 345/4/3 346/4/3
f 350/4/3 349/4/3 348/4/3
f 351/4/3 349/4/3 350/4/3
f 354/4/3 353/4/3 352/4/3
f 355/4/3 353/4/3 354/4/3
f 358/4/3 357/4/3 356/4/3
f 359/4/3 357/4/3 358/4/3
f 362/5/3 361/5/3 360/5/3
f 363/5/3 361/5/3 362/5/3
f 366/4/3 365/4/3 364/4/3
f 367/4/3 365/4/3 366/4/3
f 370/4/3 369/4/3 368/4/3
f 371/4/3 369/4/3 370/4/3
f 374/3/3 373/3/3 372/3/3
f 375/3/3 373/3/3 374/3/3
f 378/4/3 377/4/3 376/4/3
f 379/4/3 377/4/3 378/4/3
f 382/4/3 381/4/3 380/4/3
f 383/4/3 381/4/3 382/4/3
f 386/4/3 385/4/3 384/4/3
f 387/4/3 385/4/3 386/4/3
f 390/4/3 389/4/3 388/4/3
f 391/4/3 389/4/3 390/4/3
f 394/4/3 393/4/3 392/4/3
f 395/4/3 393/4/3 394/4/3
f 396/4/4 397/4/4 398/4/4
f 398/4/4 397/4/4 399/4/4
f 400/4/4 401/4/4 402/4/4
f 402/4/4 401/4/4 403/4/4
f 404/4/4 405/4/4 406/4/4
f 406/4/4 405/4/4 407/4/4
f 407/4/4 408/4/4 410/4/4
f 410/4/4 408/4/4 411/4/4
f 409/4/4 410/4/4 412/4/4
f 412/4/4 410/4/4 413/4/4
f 414/4/4 415/4/4 416/4/4
f 416/4/4 415/4/4 417/4/4
f 418/4/4 419/4/4 420/4/4
f 420/4/4 419/4/4 421/4/4
f 421/4/4 422/4/4 424/4/4
f 424/4/4 422/4/4 425/4/4
f 423/4/4 424/4/4 426/4/4
f 426/4/4 424/4/4 427/4/4
f 428/4/4 429/4/4 430/4/4
f 430/4/4 429/4/4 431/4/4
f 432/4/4 433/4/4 434/4/4
f 434/4/4 433/4/4 435/4/4
f 436/4/4 437/4/4 438/4/4
f 438/4/4 437/4/4 439/4/4
f 440/4/4 441/4/4 442/4/4
f 442/4/4 441/4/4 443/4/4
f 444/4/4 445/4/4 446/4/4
f 446/4/4 445/4/4 447/4/4
f 448/2/4 449/2/4 450/2/4
f 450/2/4 449/2/4 451/2/4
f 451/2/4 449/2/4 452/2/4
f 451/1/4 452/1/4 453/1/4
f 453/1/4 452/1/4 454/1/4
f 455/1/4 456/1/4 458/1/4
f 456/2/4 457/2/4 459/2/4
f 458/1/4 456/1/4 459/1/4
f 459/2/4 457/2/4 460/2/4
f 461/2/4 462/2/4 464/2/4
f 462/1/4 463/1/4 465/1/4
f 464/2/4 462/2/4 465/2/4
f 465/1/4 463/1/4 466/1/4
f 465/2/4 466/2/4 468/2/4
f 467/1/4 468/1/4 469/1/4
f 468/2/4 466/2/4 470/2/4
f 469/1/4 468/1/4 470/1/4
f 470/2/4 466/2/4 471/2/4
f 472/1/4 473/1/4 474/1/4
f 474/1/4 473/1/4 475/1/4
f 476/4/4 477/4/4 478/4/4
f 478/4/4 477/4/4 479/4/4
f 480/4/4 481/4/4 482/4/4
f 482/4/4 481/4/4 483/4/4
f 484/4/4 485/4/4 486/4/4
f 486/4/4 485/4/4 487/4/4
f 488/4/4 489/4/4 490/4/4
f 490/4/4 489/4/4 491/4/4
f 492/5/4 493/5/4 494/5/4
f 494/5/4 493/5/4 495/5/4
f 496/4/4 497/4/4 498/4/4
f 498/4/4 497/4/4 499/4/4
f 500/4/4 501/4/4 502/4/4
f 502/4/4 501/4/4 503/4/4
f 504/4/4 505/4/4 506/4/4
f 506/4/4 505/4/4 507/4/4
f 508/4/4 509/4/4 510/4/4
f 510/4/4 509/4/4 511/4/4
f 512/3/4 513/3/4 514/3/4
f 514/3/4 513/3/4 515/3/4
f 516/4/4 517/4/4 518/4/4
f 518/4/4 517/4/4 519/4/4
f 520/4/4 521/4/4 522/4/4
f 522/4/4 521/4/4 523/4/4
f 524/4/4 525/4/4 526/4/4
f 526/4/4 525/4/4 527/4/4
f 528/4/4 529/4/4 530/4/4
f 530/4/4 529/4/4 531/4/4
f 534/4/5 533/4/5 532/4/5
f 535/4/5 533/4/5 534/4/5
f 538/4/5 537/4/5 536/4/5
f 539/4/5 537/4/5 538/4/5
f 542/4/5 541/4/5 540/4/5
f 543/4/5 541/4/5 542/4/5
f 544/4/5 541/4/5 543/4/5
f 545/4/5 541/4/5 544/4/5
f 546/4/5 541/4/5 545/4/5
f 547/4/5 541/4/5 546/4/5
f 548/4/5 541/4/5 547/4/5
f 551/1/5 544/1/5 543/1/5
f 552/1/5 544/1/5 551/1/5
f 553/1/5 550/1/5 549/1/5
f 554/1/5 550/1/5 553/1/5
f 555/2/5 546/2/5 545/2/5
f 556/2/5 546/2/5 555/2/5
f 557/2/5 548/2/5 547/2/5
f 558/2/5 548/2/5 557/2/5
f 559/2/5 552/2/5 551/2/5
f 560/2/5 552/2/5 559/2/5
f 561/1/5 556/1/5 555/1/5
f 562/1/5 556/1/5 561/1/5
f 563/1/5 558/1/5 557/1/5
f 564/1/5 558/1/5 563/1/5
f 568/4/5 565/4/5 564/4/5
f 571/4/5 567/4/5 566/4/5
f 572/4/5 567/4/5 571/4/5
f 573/4/5 567/4/5 572/4/5
f 574/4/5 567/4/5 573/4/5
f 576/4/5 569/4/5 568/4/5
f 576/4/5 568/4/5 564/4/5
f 577/4/5 569/4/5 576/4/5
f 578/4/5 569/4/5 577/4/5
f 580/4/5 571/4/5 570/4/5
f 580/4/5 572/4/5 571/4/5
f 581/4/5 572/4/5 580/4/5
f 582/4/5 575/4/5 574/4/5
f 582/4/5 574/4/5 573/4/5
f 583/4/5 575/4/5 582/4/5
f 584/4/5 580/4/5 570/4/5
f 585/5/5 582/5/5 581/5/5
f 586/5/5 582/5/5 585/5/5
f 587/4/5 575/4/5 583/4/5
f 588/4/5 584/4/5 570/4/5
f 588/4/5 585/4/5 584/4/5
f 589/4/5 585/4/5 588/4/5
f 590/4/5 585/4/5 589/4/5
f 591/4/5 587/4/5 586/4/5
f 592/4/5 575/4/5 587/4/5
f 592/4/5 587/4/5 591/4/5
f 593/4/5 575/4/5 592/4/5
f 594/4/5 590/4/5 589/4/5
f 594/4/5 591/4/5 590/4/5
f 594/4/5 592/4/5 591/4/5
f 595/4/5 592/4/5 594/4/5
f 596/4/5 579/4/5 578/4/5
f 596/4/5 578/4/5 577/4/5
f 597/4/5 579/4/5 596/4/5
f 602/4/5 599/4/5 598/4/5
f 603/4/5 599/4/5 602/4/5
f 605/4/5 604/4/5 603/4/5
f 606/4/5 604/4/5 605/4/5
f 607/4/5 601/4/5 600/4/5
f 608/4/5 601/4/5 607/4/5
f 612/4/5 610/4/5 609/4/5
f 613/4/5 610/4/5 612/4/5
f 615/4/5 612/4/5 611/4/5
f 615/4/5 614/4/5 613/4/5
f 615/4/5 613/4/5 612/4/5
f 616/4/5 614/4/5 615/4/5
f 617/4/5 614/4/5 616/4/5
f 618/4/5 614/4/5 617/4/5
f 619/4/5 617/4/5 616/4/5
f 620/4/5 617/4/5 619/4/5
f 624/4/5 622/4/5 621/4/5
f 625/4/5 622/4/5 624/4/5
f 627/4/5 624/4/5 623/4/5
f 627/4/5 626/4/5 625/4/5
f 627/4/5 625/4/5 624/4/5
f 628/4/5 626/4/5 627/4/5
f 629/4/5 626/4/5 628/4/5
f 630/4/5 626/4/5 629/4/5
f 631/4/5 629/4/5 628/4/5
f 632/4/5 629/4/5 631/4/5
f 635/2/5 634/2/5 633/2/5
f 636/2/5 634/2/5 635/2/5
f 639/2/5 638/2/5 637/2/5
f 640/2/5 638/2/5 639/2/5
f 644/3/5 642/3/5 641/3/5
f 645/3/5 644/3/5 643/3/5
f 646/3/5 642/3/5 644/3/5
f 646/3/5 644/3/5 645/3/5
f 649/4/5 648/4/5 647/4/5
f 650/4/5 648/4/5 649/4/5
f 653/4/5 652/4/5 651/4/5
f 654/4/5 652/4/5 653/4/5
f 655/4/6 656/4/6 657/4/6
f 657/4/6 656/4/6 658/4/6
f 659/4/6 660/4/6 661/4/6
f 661/4/6 660/4/6 662/4/6
f 663/4/6 664/4/6 665/4/6
f 665/4/6 664/4/6 666/4/6
f 666/4/6 664/4/6 667/4/6
f 667/4/6 664/4/6 668/4/6
f 668/4/6 664/4/6 669/4/6
f 669/4/6 664/4/6 670/4/6
f 666/1/6 667/1/6 671/1/6
f 671/1/6 667/1/6 672/1/6
f 671/2/6 672/2/6 677/2/6
f 677/2/6 672/2/6 678/2/6
f 673/2/6 674/2/6 679/2/6
f 679/2/6 674/2/6 680/2/6
f 675/2/6 676/2/6 681/2/6
f 681/2/6 676/2/6 682/2/6
f 681/1/6 682/1/6 683/1/6
f 683/1/6 682/1/6 684/1/6
f 684/4/6 685/4/6 686/4/6
f 684/4/6 686/4/6 688/4/6
f 686/4/6 687/4/6 688/4/6
f 688/4/6 687/4/6 689/4/6
f 689/4/6 687/4/6 690/4/6
f 690/4/6 691/4/6 692/4/6
f 689/4/6 690/4/6 692/4/6
f 692/4/6 691/4/6 693/4/6
f 694/4/6 695/4/6 698/4/6
f 698/4/6 695/4/6 699/4/6
f 699/4/6 700/4/6 701/4/6
f 701/4/6 700/4/6 702/4/6
f 696/4/6 697/4/6 703/4/6
f 703/4/6 697/4/6 704/4/6
f 705/4/6 706/4/6 708/4/6
f 708/4/6 706/4/6 709/4/6
f 707/4/6 708/4/6 711/4/6
f 711/4/6 708/4/6 712/4/6
f 709/4/6 710/4/6 713/4/6
f 713/4/6 710/4/6 714/4/6
f 712/4/6 713/4/6 715/4/6
f 715/4/6 713/4/6 716/4/6
f 717/4/6 718/4/6 720/4/6
f 720/4/6 718/4/6 721/4/6
f 719/4/6 720/4/6 723/4/6
f 723/4/6 720/4/6 724/4/6
f 721/4/6 722/4/6 725/4/6
f 725/4/6 722/4/6 726/4/6
f 724/4/6 725/4/6 727/4/6
f 727/4/6 725/4/6 728/4/6
f 729/2/6 730/2/6 732/2/6
f 730/1/6 731/1/6 733/1/6
f 732/2/6 730/2/6 733/2/6
f 733/1/6 731/1/6 734/1/6
f 735/1/6 736/1/6 738/1/6
f 736/2/6 737/2/6 739/2/6
f 738/1/6 736/1/6 739/1/6
f 739/2/6 737/2/6 740/2/6
f 741/2/6 742/2/6 743/2/6
f 743/2/6 742/2/6 744/2/6
f 745/4/6 746/4/6 747/4/6
f 747/4/6 746/4/6 748/4/6
f 749/4/6 750/4/6 751/4/6
f 751/4/6 750/4/6 752/4/6
f 753/4/6 754/4/6 755/4/6
f 755/4/6 754/4/6 756/4/6
f 757/3/6 758/3/6 760/3/6
f 759/3/6 760/3/6 761/3/6
f 760/3/6 758/3/6 762/3/6
f 761/3/6 760/3/6 762/3/6
f 763/4/6 764/4/6 765/4/6
f 765/4/6 764/4/6 766/4/6
f 767/4/6 768/4/6 770/4/6
f 770/4/6 768/4/6 771/4/6
f 771/4/6 768/4/6 772/4/6
f 772/4/6 768/4/6 773/4/6
f 769/4/6 770/4/6 775/4/6
f 770/4/6 771/4/6 775/4/6
f 775/4/6 771/4/6 776/4/6
f 773/4/6 774/4/6 777/4/6
f 772/4/6 773/4/6 777/4/6
f 777/4/6 774/4/6 778/4/6
f 769/4/6 775/4/6 779/4/6
f 776/5/6 777/5/6 780/5/6
f 780/5/6 777/5/6 781/5/6
f 778/4/6 774/4/6 782/4/6
f 769/4/6 779/4/6 783/4/6
f 779/4/6 780/4/6 783/4/6
f 783/4/6 780/4/6 784/4/6
f 784/4/6 780/4/6 785/4/6
f 781/4/6 782/4/6 786/4/6
f 782/4/6 774/4/6 787/4/6
f 786/4/6 782/4/6 787/4/6
f 787/4/6 774/4/6 788/4/6
f 784/4/6 785/4/6 789/4/6
f 785/4/6 786/4/6 789/4/6
f 786/4/6 787/4/6 789/4/6
f 789/4/6 787/4/6 790/4/6
