# MagicaVoxel @ Ephtracy

# group
o 

# material
mtllib CoopSHT-4.mtl
usemtl palette

# normals
vn -1 0 0
vn 1 0 0
vn 0 0 1
vn 0 0 -1
vn 0 -1 0
vn 0 1 0

# texcoords
vt 0.373047 0.5
vt 0.865234 0.5
vt 0.955078 0.5
vt 0.982422 0.5

# verts
v -0.5 3.3 0.6
v -0.5 3.3 0.5
v -0.5 3.4 0.5
v -0.5 3.4 -0.2
v -0.5 3.9 0.6
v -0.5 3.9 0.5
v -0.5 4 0.6
v -0.5 4 -0.2
v -0.4 4 0.5
v -0.4 4 -0.1
v -0.4 4.1 0.5
v -0.4 4.1 -0.1
v -0.3 3.3 0.4
v -0.3 3.3 0
v -0.3 3.4 0.4
v -0.3 3.4 0
v 0.3 3.3 0.4
v 0.3 3.3 0
v 0.3 3.4 0.4
v 0.3 3.4 0
v 0.4 4 0.5
v 0.4 4 -0.1
v 0.4 4.1 0.5
v 0.4 4.1 -0.1
v 0.5 3.3 0.6
v 0.5 3.3 0.5
v 0.5 3.4 0.5
v 0.5 3.4 -0.2
v 0.5 3.9 0.6
v 0.5 3.9 0.5
v 0.5 4 0.6
v 0.5 4 -0.2
v -0.5 3.3 0.6
v -0.5 3.9 0.6
v -0.5 4 0.6
v 0.5 3.3 0.6
v 0.5 3.9 0.6
v 0.5 4 0.6
v -0.4 4 0.5
v -0.4 4.1 0.5
v 0.4 4 0.5
v 0.4 4.1 0.5
v -0.3 3.3 0.4
v -0.3 3.4 0.4
v 0.3 3.3 0.4
v 0.3 3.4 0.4
v -0.5 3.3 0.5
v -0.5 3.4 0.5
v -0.4 3.4 0.5
v 0.4 3.4 0.5
v 0.5 3.3 0.5
v 0.5 3.4 0.5
v -0.3 3.3 0
v -0.3 3.4 0
v 0.3 3.3 0
v 0.3 3.4 0
v -0.4 4 -0.1
v -0.4 4.1 -0.1
v 0.4 4 -0.1
v 0.4 4.1 -0.1
v -0.5 3.4 -0.2
v -0.5 4 -0.2
v 0.5 3.4 -0.2
v 0.5 4 -0.2
v -0.5 3.3 0.6
v 0.5 3.3 0.6
v -0.5 3.3 0.5
v 0.5 3.3 0.5
v -0.3 3.3 0.4
v 0.3 3.3 0.4
v -0.3 3.3 0
v 0.3 3.3 0
v -0.5 3.4 0.5
v -0.4 3.4 0.5
v 0.4 3.4 0.5
v 0.5 3.4 0.5
v -0.3 3.4 0.4
v 0.3 3.4 0.4
v -0.3 3.4 0
v 0.3 3.4 0
v -0.4 3.4 -0.1
v 0.4 3.4 -0.1
v -0.5 3.4 -0.2
v 0.5 3.4 -0.2
v -0.5 4 0.6
v 0.5 4 0.6
v -0.4 4 0.5
v 0.4 4 0.5
v -0.4 4 -0.1
v 0.4 4 -0.1
v -0.5 4 -0.2
v 0.5 4 -0.2
v -0.4 4.1 0.5
v 0.4 4.1 0.5
v -0.4 4.1 -0.1
v 0.4 4.1 -0.1

# faces
f 3/4/1 2/4/1 1/4/1
f 5/4/1 3/4/1 1/4/1
f 6/2/1 4/2/1 3/2/1
f 6/4/1 3/4/1 5/4/1
f 7/2/1 6/2/1 5/2/1
f 8/2/1 4/2/1 6/2/1
f 8/2/1 6/2/1 7/2/1
f 11/2/1 10/2/1 9/2/1
f 12/2/1 10/2/1 11/2/1
f 15/1/1 14/1/1 13/1/1
f 16/1/1 14/1/1 15/1/1
f 17/1/2 18/1/2 19/1/2
f 19/1/2 18/1/2 20/1/2
f 21/2/2 22/2/2 23/2/2
f 23/2/2 22/2/2 24/2/2
f 25/4/2 26/4/2 27/4/2
f 25/4/2 27/4/2 29/4/2
f 27/2/2 28/2/2 30/2/2
f 29/4/2 27/4/2 30/4/2
f 29/2/2 30/2/2 31/2/2
f 30/2/2 28/2/2 32/2/2
f 31/2/2 30/2/2 32/2/2
f 36/4/3 34/4/3 33/4/3
f 37/2/3 35/2/3 34/2/3
f 37/4/3 34/4/3 36/4/3
f 38/2/3 35/2/3 37/2/3
f 41/2/3 40/2/3 39/2/3
f 42/2/3 40/2/3 41/2/3
f 45/1/3 44/1/3 43/1/3
f 46/1/3 44/1/3 45/1/3
f 47/4/4 48/4/4 49/4/4
f 47/4/4 49/4/4 50/4/4
f 47/4/4 50/4/4 51/4/4
f 51/4/4 50/4/4 52/4/4
f 53/1/4 54/1/4 55/1/4
f 55/1/4 54/1/4 56/1/4
f 57/2/4 58/2/4 59/2/4
f 59/2/4 58/2/4 60/2/4
f 61/2/4 62/2/4 63/2/4
f 63/2/4 62/2/4 64/2/4
f 67/4/5 66/4/5 65/4/5
f 68/4/5 66/4/5 67/4/5
f 71/1/5 70/1/5 69/1/5
f 72/1/5 70/1/5 71/1/5
f 77/1/5 75/1/5 74/1/5
f 78/1/5 75/1/5 77/1/5
f 79/1/5 77/1/5 74/1/5
f 80/1/5 75/1/5 78/1/5
f 81/2/5 74/2/5 73/2/5
f 81/1/5 80/1/5 79/1/5
f 81/1/5 79/1/5 74/1/5
f 82/1/5 75/1/5 80/1/5
f 82/1/5 80/1/5 81/1/5
f 82/2/5 76/2/5 75/2/5
f 83/2/5 81/2/5 73/2/5
f 83/2/5 82/2/5 81/2/5
f 84/2/5 76/2/5 82/2/5
f 84/2/5 82/2/5 83/2/5
f 85/2/6 86/2/6 87/2/6
f 87/2/6 86/2/6 88/2/6
f 85/2/6 87/2/6 89/2/6
f 88/2/6 86/2/6 90/2/6
f 85/2/6 89/2/6 91/2/6
f 89/2/6 90/2/6 91/2/6
f 90/2/6 86/2/6 92/2/6
f 91/2/6 90/2/6 92/2/6
f 93/2/6 94/2/6 95/2/6
f 95/2/6 94/2/6 96/2/6
