# MagicaVoxel @ Ephtracy

# group
o 

# material
mtllib TSNEnemy-2.mtl
usemtl palette

# normals
vn -1 0 0
vn 1 0 0
vn 0 0 1
vn 0 0 -1
vn 0 -1 0
vn 0 1 0

# texcoords
vt 0.947266 0.5
vt 0.986328 0.5
vt 0.990234 0.5
vt 0.994141 0.5

# verts
v -1.2 1.6 0.5
v -1.2 1.6 -0.1
v -1.2 1.8 0.5
v -1.2 1.8 -0.1
v -1.2 1.9 0.4
v -1.2 1.9 0
v -1.2 3.1 0.5
v -1.2 3.1 0.4
v -1.2 3.1 0
v -1.2 3.1 -0.1
v -1.2 3.2 0.4
v -1.2 3.2 0
v -1.1 3.1 0.5
v -1.1 3.1 0.4
v -1.1 3.1 0
v -1.1 3.1 -0.1
v -1.1 3.2 0.5
v -1.1 3.2 0.4
v -1.1 3.2 0
v -1.1 3.2 -0.1
v -1.1 3.3 0.4
v -1.1 3.3 0
v -1 3.2 0.5
v -1 3.2 0.4
v -1 3.2 0
v -1 3.2 -0.1
v -1 3.3 0.5
v -1 3.3 0.4
v -1 3.3 0
v -1 3.3 -0.1
v -0.8 1.6 0.5
v -0.8 1.6 -0.1
v -0.8 1.8 0.5
v -0.8 1.8 0.4
v -0.8 1.9 0.4
v -0.8 1.9 -0.1
v -0.8 3.2 0.4
v -0.8 3.2 0
v -0.8 3.3 0.5
v -0.8 3.3 0.4
v -0.8 3.3 0
v -0.8 3.3 -0.1
v -1.2 1.6 0.5
v -1.2 1.8 0.5
v -1.2 3.1 0.5
v -1.1 3.1 0.5
v -1.1 3.2 0.5
v -1 3.2 0.5
v -1 3.3 0.5
v -0.8 1.6 0.5
v -0.8 1.8 0.5
v -0.8 3.3 0.5
v -1.2 3.1 0.4
v -1.2 3.2 0.4
v -1.1 3.1 0.4
v -1.1 3.2 0.4
v -1.1 3.3 0.4
v -1 3.2 0.4
v -1 3.3 0.4
v -1.2 3.1 0
v -1.2 3.2 0
v -1.1 3.1 0
v -1.1 3.2 0
v -1.1 3.3 0
v -1 3.2 0
v -1 3.3 0
v -1.2 1.6 -0.1
v -1.2 1.8 -0.1
v -1.2 3.1 -0.1
v -1.1 1.8 -0.1
v -1.1 1.9 -0.1
v -1.1 3.1 -0.1
v -1.1 3.2 -0.1
v -1 3.2 -0.1
v -1 3.3 -0.1
v -0.8 1.6 -0.1
v -0.8 1.9 -0.1
v -0.8 3.3 -0.1
v -1.2 1.6 0.5
v -0.8 1.6 0.5
v -1.2 1.6 -0.1
v -0.8 1.6 -0.1
v -1.2 3.1 0.5
v -1.1 3.1 0.5
v -1.2 3.1 0.4
v -1.1 3.1 0.4
v -1.2 3.1 0
v -1.1 3.1 0
v -1.2 3.1 -0.1
v -1.1 3.1 -0.1
v -1.1 3.2 0.5
v -1 3.2 0.5
v -1.2 3.2 0.4
v -1.1 3.2 0.4
v -1 3.2 0.4
v -1.2 3.2 0
v -1.1 3.2 0
v -1 3.2 0
v -1.1 3.2 -0.1
v -1 3.2 -0.1
v -1 3.3 0.5
v -0.8 3.3 0.5
v -1.1 3.3 0.4
v -1 3.3 0.4
v -0.8 3.3 0.4
v -1.1 3.3 0
v -1 3.3 0
v -0.8 3.3 0
v -1 3.3 -0.1
v -0.8 3.3 -0.1

# faces
f 3/2/1 2/2/1 1/2/1
f 4/2/1 2/2/1 3/2/1
f 5/3/1 4/3/1 3/3/1
f 6/3/1 4/3/1 5/3/1
f 7/3/1 5/3/1 3/3/1
f 8/4/1 6/4/1 5/4/1
f 8/3/1 5/3/1 7/3/1
f 9/3/1 4/3/1 6/3/1
f 9/4/1 6/4/1 8/4/1
f 10/3/1 4/3/1 9/3/1
f 11/4/1 9/4/1 8/4/1
f 12/4/1 9/4/1 11/4/1
f 17/3/1 14/3/1 13/3/1
f 18/3/1 14/3/1 17/3/1
f 19/3/1 16/3/1 15/3/1
f 20/3/1 16/3/1 19/3/1
f 21/4/1 19/4/1 18/4/1
f 22/4/1 19/4/1 21/4/1
f 27/3/1 24/3/1 23/3/1
f 28/3/1 24/3/1 27/3/1
f 29/3/1 26/3/1 25/3/1
f 30/3/1 26/3/1 29/3/1
f 31/2/2 32/2/2 33/2/2
f 33/2/2 32/2/2 34/2/2
f 33/3/2 34/3/2 35/3/2
f 34/2/2 32/2/2 35/2/2
f 35/2/2 32/2/2 36/2/2
f 33/3/2 35/3/2 37/3/2
f 35/3/2 36/3/2 37/3/2
f 37/3/2 36/3/2 38/3/2
f 33/3/2 37/3/2 39/3/2
f 37/4/2 38/4/2 40/4/2
f 39/3/2 37/3/2 40/3/2
f 38/3/2 36/3/2 41/3/2
f 40/4/2 38/4/2 41/4/2
f 41/3/2 36/3/2 42/3/2
f 46/3/3 45/3/3 44/3/3
f 48/3/3 47/3/3 46/3/3
f 50/2/3 44/2/3 43/2/3
f 51/3/3 49/3/3 48/3/3
f 51/2/3 44/2/3 50/2/3
f 51/3/3 46/3/3 44/3/3
f 51/3/3 48/3/3 46/3/3
f 52/3/3 49/3/3 51/3/3
f 55/4/3 54/4/3 53/4/3
f 56/4/3 54/4/3 55/4/3
f 58/4/3 57/4/3 56/4/3
f 59/4/3 57/4/3 58/4/3
f 60/4/4 61/4/4 62/4/4
f 62/4/4 61/4/4 63/4/4
f 63/4/4 64/4/4 65/4/4
f 65/4/4 64/4/4 66/4/4
f 67/2/4 68/2/4 70/2/4
f 68/3/4 69/3/4 70/3/4
f 70/3/4 69/3/4 71/3/4
f 71/3/4 69/3/4 72/3/4
f 71/3/4 72/3/4 74/3/4
f 72/3/4 73/3/4 74/3/4
f 67/2/4 70/2/4 76/2/4
f 70/2/4 71/2/4 76/2/4
f 74/3/4 75/3/4 77/3/4
f 76/2/4 71/2/4 77/2/4
f 71/3/4 74/3/4 77/3/4
f 77/3/4 75/3/4 78/3/4
f 81/2/5 80/2/5 79/2/5
f 82/2/5 80/2/5 81/2/5
f 83/3/6 84/3/6 85/3/6
f 85/3/6 84/3/6 86/3/6
f 87/3/6 88/3/6 89/3/6
f 89/3/6 88/3/6 90/3/6
f 91/3/6 92/3/6 94/3/6
f 94/3/6 92/3/6 95/3/6
f 93/4/6 94/4/6 96/4/6
f 96/4/6 94/4/6 97/4/6
f 97/3/6 98/3/6 99/3/6
f 99/3/6 98/3/6 100/3/6
f 101/3/6 102/3/6 104/3/6
f 104/3/6 102/3/6 105/3/6
f 103/4/6 104/4/6 106/4/6
f 104/4/6 105/4/6 106/4/6
f 106/4/6 105/4/6 107/4/6
f 107/4/6 105/4/6 108/4/6
f 107/3/6 108/3/6 109/3/6
f 109/3/6 108/3/6 110/3/6
