# MagicaVoxel @ Ephtracy

# group
o 

# material
mtllib Arsenal-2.mtl
usemtl palette

# normals
vn -1 0 0
vn 1 0 0
vn 0 0 1
vn 0 0 -1
vn 0 -1 0
vn 0 1 0

# texcoords
vt 0.982422 0.5
vt 0.986328 0.5
vt 0.990234 0.5

# verts
v -2 -1.9 1
v -2 -1.9 -1
v -2 2 1
v -2 2 -1
v -1.6 0.7 -0.7
v -1.6 0.7 -0.8
v -1.6 0.8 -0.7
v -1.6 0.8 -0.8
v -1.3 0.7 -0.7
v -1.3 0.7 -0.8
v -1.3 0.8 -0.7
v -1.3 0.8 -0.8
v -1 0.7 -0.7
v -1 0.7 -0.8
v -1 0.8 -0.7
v -1 0.8 -0.8
v -0.7 0.7 -0.7
v -0.7 0.7 -0.8
v -0.7 0.8 -0.7
v -0.7 0.8 -0.8
v -0.4 0.7 -0.7
v -0.4 0.7 -0.8
v -0.4 0.8 -0.7
v -0.4 0.8 -0.8
v -0.0999999 0.7 -0.7
v -0.0999999 0.7 -0.8
v -0.0999999 0.8 -0.7
v -0.0999999 0.8 -0.8
v 2.38419e-07 -1.8 1
v 2.38419e-07 -1.8 0.9
v 2.38419e-07 -1.8 -0.9
v 2.38419e-07 0.7 -0.7
v 2.38419e-07 0.7 -0.9
v 2.38419e-07 0.8 -0.7
v 2.38419e-07 0.8 -0.9
v 2.38419e-07 1.9 1
v 2.38419e-07 1.9 0.9
v 2.38419e-07 1.9 -0.9
v 1.9 -1.8 1
v 1.9 -1.8 -0.9
v 1.9 -1.1 1
v 1.9 -1.1 -0.9
v 1.9 -1 1
v 1.9 -1 -0.9
v 1.9 0.7 0.9
v 1.9 0.7 -0.9
v 1.9 0.8 0.9
v 1.9 0.8 -0.9
v 1.9 1.9 1
v 1.9 1.9 -0.9
v -1.9 -1.8 1
v -1.9 -1.8 -0.9
v -1.9 0.7 -0.7
v -1.9 0.7 -0.9
v -1.9 0.8 -0.7
v -1.9 0.8 -0.9
v -1.9 1.9 1
v -1.9 1.9 -0.9
v -1.8 0.7 -0.7
v -1.8 0.7 -0.8
v -1.8 0.8 -0.7
v -1.8 0.8 -0.8
v -1.5 0.7 -0.7
v -1.5 0.7 -0.8
v -1.5 0.8 -0.7
v -1.5 0.8 -0.8
v -1.2 0.7 -0.7
v -1.2 0.7 -0.8
v -1.2 0.8 -0.7
v -1.2 0.8 -0.8
v -0.9 0.7 -0.7
v -0.9 0.7 -0.8
v -0.9 0.8 -0.7
v -0.9 0.8 -0.8
v -0.6 0.7 -0.7
v -0.6 0.7 -0.8
v -0.6 0.8 -0.7
v -0.6 0.8 -0.8
v -0.3 0.7 -0.7
v -0.3 0.7 -0.8
v -0.3 0.8 -0.7
v -0.3 0.8 -0.8
v 0.1 -1.8 1
v 0.1 -1.8 0.9
v 0.1 -1.8 -0.9
v 0.1 -1.1 1
v 0.1 -1.1 0.9
v 0.1 -1.1 -0.9
v 0.1 -1 1
v 0.1 -1 0.9
v 0.1 -1 -0.9
v 0.1 0.7 0.9
v 0.1 0.7 -0.9
v 0.1 0.8 0.9
v 0.1 0.8 -0.9
v 0.1 1.9 1
v 0.1 1.9 0.9
v 0.1 1.9 -0.9
v 2 -1.9 1
v 2 -1.9 -1
v 2 2 1
v 2 2 -1
v -2 -1.9 1
v -2 2 1
v -1.9 -1.8 1
v -1.9 1.9 1
v 2.38419e-07 -1.8 1
v 2.38419e-07 1.9 1
v 0.1 -1.8 1
v 0.1 -1.1 1
v 0.1 -1 1
v 0.1 1.9 1
v 1.9 -1.8 1
v 1.9 -1.1 1
v 1.9 -1 1
v 1.9 1.9 1
v 2 -1.9 1
v 2 2 1
v 0.1 0.7 0.9
v 0.1 0.8 0.9
v 1.9 0.7 0.9
v 1.9 0.8 0.9
v -1.9 0.7 -0.7
v -1.9 0.8 -0.7
v -1.8 0.7 -0.7
v -1.8 0.8 -0.7
v -1.6 0.7 -0.7
v -1.6 0.8 -0.7
v -1.5 0.7 -0.7
v -1.5 0.8 -0.7
v -1.3 0.7 -0.7
v -1.3 0.8 -0.7
v -1.2 0.7 -0.7
v -1.2 0.8 -0.7
v -1 0.7 -0.7
v -1 0.8 -0.7
v -0.9 0.7 -0.7
v -0.9 0.8 -0.7
v -0.7 0.7 -0.7
v -0.7 0.8 -0.7
v -0.6 0.7 -0.7
v -0.6 0.8 -0.7
v -0.4 0.7 -0.7
v -0.4 0.8 -0.7
v -0.3 0.7 -0.7
v -0.3 0.8 -0.7
v -0.0999999 0.7 -0.7
v -0.0999999 0.8 -0.7
v 2.38419e-07 0.7 -0.7
v 2.38419e-07 0.8 -0.7
v -1.8 0.7 -0.8
v -1.8 0.8 -0.8
v -1.6 0.7 -0.8
v -1.6 0.8 -0.8
v -1.5 0.7 -0.8
v -1.5 0.8 -0.8
v -1.3 0.7 -0.8
v -1.3 0.8 -0.8
v -1.2 0.7 -0.8
v -1.2 0.8 -0.8
v -1 0.7 -0.8
v -1 0.8 -0.8
v -0.9 0.7 -0.8
v -0.9 0.8 -0.8
v -0.7 0.7 -0.8
v -0.7 0.8 -0.8
v -0.6 0.7 -0.8
v -0.6 0.8 -0.8
v -0.4 0.7 -0.8
v -0.4 0.8 -0.8
v -0.3 0.7 -0.8
v -0.3 0.8 -0.8
v -0.0999999 0.7 -0.8
v -0.0999999 0.8 -0.8
v -1.9 -1.8 -0.9
v -1.9 0.7 -0.9
v -1.9 0.8 -0.9
v -1.9 1.9 -0.9
v 2.38419e-07 -1.8 -0.9
v 2.38419e-07 0.7 -0.9
v 2.38419e-07 0.8 -0.9
v 2.38419e-07 1.9 -0.9
v 0.1 -1.8 -0.9
v 0.1 -1.1 -0.9
v 0.1 -1 -0.9
v 0.1 0.7 -0.9
v 0.1 0.8 -0.9
v 0.1 1.9 -0.9
v 1.9 -1.8 -0.9
v 1.9 -1.1 -0.9
v 1.9 -1 -0.9
v 1.9 0.7 -0.9
v 1.9 0.8 -0.9
v 1.9 1.9 -0.9
v -2 -1.9 -1
v -2 2 -1
v 2 -1.9 -1
v 2 2 -1
v -2 -1.9 1
v 2 -1.9 1
v -2 -1.9 -1
v 2 -1.9 -1
v 0.1 -1.1 1
v 1.9 -1.1 1
v 0.1 -1.1 0.9
v 0.1 -1.1 -0.9
v 1.9 -1.1 -0.9
v 0.1 0.7 0.9
v 1.9 0.7 0.9
v -1.9 0.7 -0.7
v -1.8 0.7 -0.7
v -1.6 0.7 -0.7
v -1.5 0.7 -0.7
v -1.3 0.7 -0.7
v -1.2 0.7 -0.7
v -1 0.7 -0.7
v -0.9 0.7 -0.7
v -0.7 0.7 -0.7
v -0.6 0.7 -0.7
v -0.4 0.7 -0.7
v -0.3 0.7 -0.7
v -0.0999999 0.7 -0.7
v 2.38419e-07 0.7 -0.7
v -1.8 0.7 -0.8
v -1.6 0.7 -0.8
v -1.5 0.7 -0.8
v -1.3 0.7 -0.8
v -1.2 0.7 -0.8
v -1 0.7 -0.8
v -0.9 0.7 -0.8
v -0.7 0.7 -0.8
v -0.6 0.7 -0.8
v -0.4 0.7 -0.8
v -0.3 0.7 -0.8
v -0.0999999 0.7 -0.8
v -1.9 0.7 -0.9
v 2.38419e-07 0.7 -0.9
v 0.1 0.7 -0.9
v 1.9 0.7 -0.9
v -1.9 1.9 1
v 2.38419e-07 1.9 1
v 0.1 1.9 1
v 1.9 1.9 1
v 2.38419e-07 1.9 0.9
v 0.1 1.9 0.9
v -1.9 1.9 -0.9
v 2.38419e-07 1.9 -0.9
v 0.1 1.9 -0.9
v 1.9 1.9 -0.9
v -1.9 -1.8 1
v 2.38419e-07 -1.8 1
v 0.1 -1.8 1
v 1.9 -1.8 1
v 2.38419e-07 -1.8 0.9
v 0.1 -1.8 0.9
v -1.9 -1.8 -0.9
v 2.38419e-07 -1.8 -0.9
v 0.1 -1.8 -0.9
v 1.9 -1.8 -0.9
v 0.1 -1 1
v 1.9 -1 1
v 0.1 -1 0.9
v 0.1 -1 -0.9
v 1.9 -1 -0.9
v 0.1 0.8 0.9
v 1.9 0.8 0.9
v -1.9 0.8 -0.7
v -1.8 0.8 -0.7
v -1.6 0.8 -0.7
v -1.5 0.8 -0.7
v -1.3 0.8 -0.7
v -1.2 0.8 -0.7
v -1 0.8 -0.7
v -0.9 0.8 -0.7
v -0.7 0.8 -0.7
v -0.6 0.8 -0.7
v -0.4 0.8 -0.7
v -0.3 0.8 -0.7
v -0.0999999 0.8 -0.7
v 2.38419e-07 0.8 -0.7
v -1.8 0.8 -0.8
v -1.6 0.8 -0.8
v -1.5 0.8 -0.8
v -1.3 0.8 -0.8
v -1.2 0.8 -0.8
v -1 0.8 -0.8
v -0.9 0.8 -0.8
v -0.7 0.8 -0.8
v -0.6 0.8 -0.8
v -0.4 0.8 -0.8
v -0.3 0.8 -0.8
v -0.0999999 0.8 -0.8
v -1.9 0.8 -0.9
v 2.38419e-07 0.8 -0.9
v 0.1 0.8 -0.9
v 1.9 0.8 -0.9
v -2 2 1
v 2 2 1
v -2 2 -1
v 2 2 -1

# faces
f 3/3/1 2/3/1 1/3/1
f 4/3/1 2/3/1 3/3/1
f 7/2/1 6/2/1 5/2/1
f 8/2/1 6/2/1 7/2/1
f 11/2/1 10/2/1 9/2/1
f 12/2/1 10/2/1 11/2/1
f 15/2/1 14/2/1 13/2/1
f 16/2/1 14/2/1 15/2/1
f 19/2/1 18/2/1 17/2/1
f 20/2/1 18/2/1 19/2/1
f 23/2/1 22/2/1 21/2/1
f 24/2/1 22/2/1 23/2/1
f 27/2/1 26/2/1 25/2/1
f 28/2/1 26/2/1 27/2/1
f 32/1/1 31/1/1 30/1/1
f 33/1/1 31/1/1 32/1/1
f 34/1/1 32/1/1 30/1/1
f 36/3/1 30/3/1 29/3/1
f 37/1/1 35/1/1 34/1/1
f 37/3/1 30/3/1 36/3/1
f 37/1/1 34/1/1 30/1/1
f 38/1/1 35/1/1 37/1/1
f 41/3/1 40/3/1 39/3/1
f 42/3/1 40/3/1 41/3/1
f 45/3/1 44/3/1 43/3/1
f 46/3/1 44/3/1 45/3/1
f 47/3/1 45/3/1 43/3/1
f 49/3/1 47/3/1 43/3/1
f 49/3/1 48/3/1 47/3/1
f 50/3/1 48/3/1 49/3/1
f 51/3/2 52/3/2 53/3/2
f 53/3/2 52/3/2 54/3/2
f 51/3/2 53/3/2 55/3/2
f 51/3/2 55/3/2 57/3/2
f 55/3/2 56/3/2 57/3/2
f 57/3/2 56/3/2 58/3/2
f 59/2/2 60/2/2 61/2/2
f 61/2/2 60/2/2 62/2/2
f 63/2/2 64/2/2 65/2/2
f 65/2/2 64/2/2 66/2/2
f 67/2/2 68/2/2 69/2/2
f 69/2/2 68/2/2 70/2/2
f 71/2/2 72/2/2 73/2/2
f 73/2/2 72/2/2 74/2/2
f 75/2/2 76/2/2 77/2/2
f 77/2/2 76/2/2 78/2/2
f 79/2/2 80/2/2 81/2/2
f 81/2/2 80/2/2 82/2/2
f 83/3/2 84/3/2 86/3/2
f 84/1/2 85/1/2 87/1/2
f 86/3/2 84/3/2 87/3/2
f 87/1/2 85/1/2 88/1/2
f 89/3/2 90/3/2 92/3/2
f 90/1/2 91/1/2 92/1/2
f 92/1/2 91/1/2 93/1/2
f 89/3/2 92/3/2 94/3/2
f 89/3/2 94/3/2 96/3/2
f 94/1/2 95/1/2 97/1/2
f 96/3/2 94/3/2 97/3/2
f 97/1/2 95/1/2 98/1/2
f 99/3/2 100/3/2 101/3/2
f 101/3/2 100/3/2 102/3/2
f 105/3/3 104/3/3 103/3/3
f 106/3/3 104/3/3 105/3/3
f 107/3/3 105/3/3 103/3/3
f 108/3/3 104/3/3 106/3/3
f 109/3/3 107/3/3 103/3/3
f 109/3/3 108/3/3 107/3/3
f 110/3/3 108/3/3 109/3/3
f 111/3/3 108/3/3 110/3/3
f 112/3/3 104/3/3 108/3/3
f 112/3/3 108/3/3 111/3/3
f 113/3/3 109/3/3 103/3/3
f 114/1/3 111/1/3 110/1/3
f 115/1/3 111/1/3 114/1/3
f 116/3/3 104/3/3 112/3/3
f 117/3/3 113/3/3 103/3/3
f 117/3/3 116/3/3 115/3/3
f 117/3/3 115/3/3 114/3/3
f 117/3/3 114/3/3 113/3/3
f 118/3/3 104/3/3 116/3/3
f 118/3/3 116/3/3 117/3/3
f 121/1/3 120/1/3 119/1/3
f 122/1/3 120/1/3 121/1/3
f 125/2/3 124/2/3 123/2/3
f 126/2/3 124/2/3 125/2/3
f 129/2/3 128/2/3 127/2/3
f 130/2/3 128/2/3 129/2/3
f 133/2/3 132/2/3 131/2/3
f 134/2/3 132/2/3 133/2/3
f 137/2/3 136/2/3 135/2/3
f 138/2/3 136/2/3 137/2/3
f 141/2/3 140/2/3 139/2/3
f 142/2/3 140/2/3 141/2/3
f 145/2/3 144/2/3 143/2/3
f 146/2/3 144/2/3 145/2/3
f 149/2/3 148/2/3 147/2/3
f 150/2/3 148/2/3 149/2/3
f 153/2/3 152/2/3 151/2/3
f 154/2/3 152/2/3 153/2/3
f 157/2/3 156/2/3 155/2/3
f 158/2/3 156/2/3 157/2/3
f 161/2/3 160/2/3 159/2/3
f 162/2/3 160/2/3 161/2/3
f 165/2/3 164/2/3 163/2/3
f 166/2/3 164/2/3 165/2/3
f 169/2/3 168/2/3 167/2/3
f 170/2/3 168/2/3 169/2/3
f 173/2/3 172/2/3 171/2/3
f 174/2/3 172/2/3 173/2/3
f 179/3/3 176/3/3 175/3/3
f 180/3/3 176/3/3 179/3/3
f 181/3/3 178/3/3 177/3/3
f 182/3/3 178/3/3 181/3/3
f 189/3/3 184/3/3 183/3/3
f 190/3/3 184/3/3 189/3/3
f 191/3/3 186/3/3 185/3/3
f 192/3/3 186/3/3 191/3/3
f 193/3/3 188/3/3 187/3/3
f 194/3/3 188/3/3 193/3/3
f 195/3/4 196/3/4 197/3/4
f 197/3/4 196/3/4 198/3/4
f 201/3/5 200/3/5 199/3/5
f 202/3/5 200/3/5 201/3/5
f 205/1/5 204/1/5 203/1/5
f 206/1/5 204/1/5 205/1/5
f 207/1/5 204/1/5 206/1/5
f 224/2/5 211/2/5 210/2/5
f 225/2/5 213/2/5 212/2/5
f 226/2/5 213/2/5 225/2/5
f 227/2/5 215/2/5 214/2/5
f 228/2/5 215/2/5 227/2/5
f 229/2/5 217/2/5 216/2/5
f 230/2/5 217/2/5 229/2/5
f 231/2/5 219/2/5 218/2/5
f 232/2/5 219/2/5 231/2/5
f 233/2/5 221/2/5 220/2/5
f 234/2/5 221/2/5 233/2/5
f 235/2/5 223/2/5 222/2/5
f 236/2/5 234/2/5 233/2/5
f 236/2/5 235/2/5 234/2/5
f 236/2/5 224/2/5 210/2/5
f 236/2/5 226/2/5 225/2/5
f 236/2/5 233/2/5 232/2/5
f 236/2/5 228/2/5 227/2/5
f 236/2/5 231/2/5 230/2/5
f 236/2/5 230/2/5 229/2/5
f 236/2/5 229/2/5 228/2/5
f 236/2/5 232/2/5 231/2/5
f 236/2/5 227/2/5 226/2/5
f 236/2/5 225/2/5 224/2/5
f 237/2/5 223/2/5 235/2/5
f 237/2/5 235/2/5 236/2/5
f 238/1/5 209/1/5 208/1/5
f 239/1/5 209/1/5 238/1/5
f 244/3/5 241/3/5 240/3/5
f 245/3/5 243/3/5 242/3/5
f 246/3/5 244/3/5 240/3/5
f 247/3/5 244/3/5 246/3/5
f 248/3/5 243/3/5 245/3/5
f 249/3/5 243/3/5 248/3/5
f 250/3/6 251/3/6 254/3/6
f 252/3/6 253/3/6 255/3/6
f 250/3/6 254/3/6 256/3/6
f 256/3/6 254/3/6 257/3/6
f 255/3/6 253/3/6 258/3/6
f 258/3/6 253/3/6 259/3/6
f 260/1/6 261/1/6 262/1/6
f 262/1/6 261/1/6 263/1/6
f 263/1/6 261/1/6 264/1/6
f 267/2/6 268/2/6 281/2/6
f 269/2/6 270/2/6 282/2/6
f 282/2/6 270/2/6 283/2/6
f 271/2/6 272/2/6 284/2/6
f 284/2/6 272/2/6 285/2/6
f 273/2/6 274/2/6 286/2/6
f 286/2/6 274/2/6 287/2/6
f 275/2/6 276/2/6 288/2/6
f 288/2/6 276/2/6 289/2/6
f 277/2/6 278/2/6 290/2/6
f 290/2/6 278/2/6 291/2/6
f 279/2/6 280/2/6 292/2/6
f 290/2/6 291/2/6 293/2/6
f 291/2/6 292/2/6 293/2/6
f 267/2/6 281/2/6 293/2/6
f 282/2/6 283/2/6 293/2/6
f 289/2/6 290/2/6 293/2/6
f 284/2/6 285/2/6 293/2/6
f 287/2/6 288/2/6 293/2/6
f 286/2/6 287/2/6 293/2/6
f 285/2/6 286/2/6 293/2/6
f 288/2/6 289/2/6 293/2/6
f 283/2/6 284/2/6 293/2/6
f 281/2/6 282/2/6 293/2/6
f 292/2/6 280/2/6 294/2/6
f 293/2/6 292/2/6 294/2/6
f 265/1/6 266/1/6 295/1/6
f 295/1/6 266/1/6 296/1/6
f 297/3/6 298/3/6 299/3/6
f 299/3/6 298/3/6 300/3/6
