# MagicaVoxel @ Ephtracy

# group
o 

# material
mtllib RifleCasings.mtl
usemtl palette

# normals
vn -1 0 0
vn 1 0 0
vn 0 0 1
vn 0 0 -1
vn 0 -1 0
vn 0 1 0

# texcoords
vt 0.369141 0.5
vt 0.373047 0.5
vt 0.982422 0.5

# verts
v -0.5 -0.4 1.9
v -0.5 -0.4 1.7
v -0.5 -0.4 1.5
v -0.5 -0.4 -1.3
v -0.5 0.4 1.9
v -0.5 0.4 1.7
v -0.5 0.4 1.5
v -0.5 0.4 -1.3
v -0.4 -0.3 1.7
v -0.4 -0.3 1.5
v -0.4 0.3 1.7
v -0.4 0.3 1.5
v -0.3 -0.2 1.9
v -0.3 -0.2 1.8
v -0.3 0.2 1.9
v -0.3 0.2 1.8
v 0.1 -0.2 1.7
v 0.1 -0.2 1.5
v 0.1 -0.2 -1.3
v 0.1 0.2 1.7
v 0.1 0.2 1.5
v 0.1 0.2 -1.3
v 0.2 -0.3 1.9
v 0.2 -0.3 1.8
v 0.2 0.3 1.9
v 0.2 0.3 1.8
v -0.4 -0.3 1.9
v -0.4 -0.3 1.8
v -0.4 0.3 1.9
v -0.4 0.3 1.8
v -0.3 -0.2 1.7
v -0.3 -0.2 1.5
v -0.3 -0.2 -1.3
v -0.3 0.2 1.7
v -0.3 0.2 1.5
v -0.3 0.2 -1.3
v 0.1 -0.2 1.9
v 0.1 -0.2 1.8
v 0.1 0.2 1.9
v 0.1 0.2 1.8
v 0.2 -0.3 1.7
v 0.2 -0.3 1.5
v 0.2 0.3 1.7
v 0.2 0.3 1.5
v 0.3 -0.4 1.9
v 0.3 -0.4 1.7
v 0.3 -0.4 1.5
v 0.3 -0.4 -1.3
v 0.3 0.4 1.9
v 0.3 0.4 1.7
v 0.3 0.4 1.5
v 0.3 0.4 -1.3
v -0.5 -0.4 1.9
v -0.5 0.4 1.9
v -0.4 -0.3 1.9
v -0.4 0.3 1.9
v -0.3 -0.2 1.9
v -0.3 0.2 1.9
v -0.2 -0.1 1.9
v -0.2 0.1 1.9
v 0 -0.1 1.9
v 0 0.1 1.9
v 0.1 -0.2 1.9
v 0.1 0.2 1.9
v 0.2 -0.3 1.9
v 0.2 0.3 1.9
v 0.3 -0.4 1.9
v 0.3 0.4 1.9
v -0.4 -0.3 1.8
v -0.4 0.3 1.8
v -0.3 -0.2 1.8
v -0.3 0.2 1.8
v 0.1 -0.2 1.8
v 0.1 0.2 1.8
v 0.2 -0.3 1.8
v 0.2 0.3 1.8
v -0.5 -0.4 1.5
v -0.5 0.4 1.5
v -0.4 -0.3 1.5
v -0.4 0.3 1.5
v 0.2 -0.3 1.5
v 0.2 0.3 1.5
v 0.3 -0.4 1.5
v 0.3 0.4 1.5
v -0.5 -0.4 1.7
v -0.5 0.4 1.7
v -0.4 -0.3 1.7
v -0.4 0.3 1.7
v -0.3 -0.2 1.7
v -0.3 0.2 1.7
v -0.2 -0.1 1.7
v -0.2 0.1 1.7
v 0 -0.1 1.7
v 0 0.1 1.7
v 0.1 -0.2 1.7
v 0.1 0.2 1.7
v 0.2 -0.3 1.7
v 0.2 0.3 1.7
v 0.3 -0.4 1.7
v 0.3 0.4 1.7
v -0.5 -0.4 -1.3
v -0.5 0.4 -1.3
v -0.3 -0.2 -1.3
v -0.3 0.2 -1.3
v 0.1 -0.2 -1.3
v 0.1 0.2 -1.3
v 0.3 -0.4 -1.3
v 0.3 0.4 -1.3
v -0.5 -0.4 1.9
v 0.3 -0.4 1.9
v -0.5 -0.4 1.7
v 0.3 -0.4 1.7
v -0.5 -0.4 1.5
v 0.3 -0.4 1.5
v -0.5 -0.4 -1.3
v 0.3 -0.4 -1.3
v -0.4 -0.3 1.7
v 0.2 -0.3 1.7
v -0.4 -0.3 1.5
v 0.2 -0.3 1.5
v -0.3 -0.2 1.9
v 0.1 -0.2 1.9
v -0.3 -0.2 1.8
v 0.1 -0.2 1.8
v -0.3 0.2 1.7
v 0.1 0.2 1.7
v -0.3 0.2 1.5
v 0.1 0.2 1.5
v -0.3 0.2 -1.3
v 0.1 0.2 -1.3
v -0.4 0.3 1.9
v 0.2 0.3 1.9
v -0.4 0.3 1.8
v 0.2 0.3 1.8
v -0.4 -0.3 1.9
v 0.2 -0.3 1.9
v -0.4 -0.3 1.8
v 0.2 -0.3 1.8
v -0.3 -0.2 1.7
v 0.1 -0.2 1.7
v -0.3 -0.2 1.5
v 0.1 -0.2 1.5
v -0.3 -0.2 -1.3
v 0.1 -0.2 -1.3
v -0.3 0.2 1.9
v 0.1 0.2 1.9
v -0.3 0.2 1.8
v 0.1 0.2 1.8
v -0.4 0.3 1.7
v 0.2 0.3 1.7
v -0.4 0.3 1.5
v 0.2 0.3 1.5
v -0.5 0.4 1.9
v 0.3 0.4 1.9
v -0.5 0.4 1.7
v 0.3 0.4 1.7
v -0.5 0.4 1.5
v 0.3 0.4 1.5
v -0.5 0.4 -1.3
v 0.3 0.4 -1.3

# faces
f 5/1/1 2/1/1 1/1/1
f 6/1/1 2/1/1 5/1/1
f 7/2/1 4/2/1 3/2/1
f 8/2/1 4/2/1 7/2/1
f 11/1/1 10/1/1 9/1/1
f 12/1/1 10/1/1 11/1/1
f 15/1/1 14/1/1 13/1/1
f 16/1/1 14/1/1 15/1/1
f 20/1/1 18/1/1 17/1/1
f 21/2/1 19/2/1 18/2/1
f 21/1/1 18/1/1 20/1/1
f 22/2/1 19/2/1 21/2/1
f 25/1/1 24/1/1 23/1/1
f 26/1/1 24/1/1 25/1/1
f 27/1/2 28/1/2 29/1/2
f 29/1/2 28/1/2 30/1/2
f 31/1/2 32/1/2 34/1/2
f 32/2/2 33/2/2 35/2/2
f 34/1/2 32/1/2 35/1/2
f 35/2/2 33/2/2 36/2/2
f 37/1/2 38/1/2 39/1/2
f 39/1/2 38/1/2 40/1/2
f 41/1/2 42/1/2 43/1/2
f 43/1/2 42/1/2 44/1/2
f 45/1/2 46/1/2 49/1/2
f 49/1/2 46/1/2 50/1/2
f 47/2/2 48/2/2 51/2/2
f 51/2/2 48/2/2 52/2/2
f 55/1/3 54/1/3 53/1/3
f 56/1/3 54/1/3 55/1/3
f 59/1/3 58/1/3 57/1/3
f 60/1/3 58/1/3 59/1/3
f 61/1/3 59/1/3 57/1/3
f 61/3/3 60/3/3 59/3/3
f 62/1/3 58/1/3 60/1/3
f 62/3/3 60/3/3 61/3/3
f 63/1/3 61/1/3 57/1/3
f 63/1/3 62/1/3 61/1/3
f 64/1/3 58/1/3 62/1/3
f 64/1/3 62/1/3 63/1/3
f 65/1/3 55/1/3 53/1/3
f 66/1/3 54/1/3 56/1/3
f 67/1/3 65/1/3 53/1/3
f 67/1/3 66/1/3 65/1/3
f 68/1/3 54/1/3 66/1/3
f 68/1/3 66/1/3 67/1/3
f 71/1/3 70/1/3 69/1/3
f 72/1/3 70/1/3 71/1/3
f 73/1/3 71/1/3 69/1/3
f 74/1/3 70/1/3 72/1/3
f 75/1/3 73/1/3 69/1/3
f 75/1/3 74/1/3 73/1/3
f 76/1/3 70/1/3 74/1/3
f 76/1/3 74/1/3 75/1/3
f 79/2/3 78/2/3 77/2/3
f 80/2/3 78/2/3 79/2/3
f 81/2/3 79/2/3 77/2/3
f 82/2/3 78/2/3 80/2/3
f 83/2/3 81/2/3 77/2/3
f 83/2/3 82/2/3 81/2/3
f 84/2/3 78/2/3 82/2/3
f 84/2/3 82/2/3 83/2/3
f 85/1/4 86/1/4 87/1/4
f 87/1/4 86/1/4 88/1/4
f 89/1/4 90/1/4 91/1/4
f 91/1/4 90/1/4 92/1/4
f 89/1/4 91/1/4 93/1/4
f 91/3/4 92/3/4 93/3/4
f 92/1/4 90/1/4 94/1/4
f 93/3/4 92/3/4 94/3/4
f 89/1/4 93/1/4 95/1/4
f 93/1/4 94/1/4 95/1/4
f 94/1/4 90/1/4 96/1/4
f 95/1/4 94/1/4 96/1/4
f 85/1/4 87/1/4 97/1/4
f 88/1/4 86/1/4 98/1/4
f 85/1/4 97/1/4 99/1/4
f 97/1/4 98/1/4 99/1/4
f 98/1/4 86/1/4 100/1/4
f 99/1/4 98/1/4 100/1/4
f 101/2/4 102/2/4 103/2/4
f 103/2/4 102/2/4 104/2/4
f 101/2/4 103/2/4 105/2/4
f 104/2/4 102/2/4 106/2/4
f 101/2/4 105/2/4 107/2/4
f 105/2/4 106/2/4 107/2/4
f 106/2/4 102/2/4 108/2/4
f 107/2/4 106/2/4 108/2/4
f 111/1/5 110/1/5 109/1/5
f 112/1/5 110/1/5 111/1/5
f 115/2/5 114/2/5 113/2/5
f 116/2/5 114/2/5 115/2/5
f 119/1/5 118/1/5 117/1/5
f 120/1/5 118/1/5 119/1/5
f 123/1/5 122/1/5 121/1/5
f 124/1/5 122/1/5 123/1/5
f 127/1/5 126/1/5 125/1/5
f 128/1/5 126/1/5 127/1/5
f 129/2/5 128/2/5 127/2/5
f 130/2/5 128/2/5 129/2/5
f 133/1/5 132/1/5 131/1/5
f 134/1/5 132/1/5 133/1/5
f 135/1/6 136/1/6 137/1/6
f 137/1/6 136/1/6 138/1/6
f 139/1/6 140/1/6 141/1/6
f 141/1/6 140/1/6 142/1/6
f 141/2/6 142/2/6 143/2/6
f 143/2/6 142/2/6 144/2/6
f 145/1/6 146/1/6 147/1/6
f 147/1/6 146/1/6 148/1/6
f 149/1/6 150/1/6 151/1/6
f 151/1/6 150/1/6 152/1/6
f 153/1/6 154/1/6 155/1/6
f 155/1/6 154/1/6 156/1/6
f 157/2/6 158/2/6 159/2/6
f 159/2/6 158/2/6 160/2/6
