# MagicaVoxel @ Ephtracy

# group
o 

# material
mtllib carEscp.mtl
usemtl palette

# normals
vn -1 0 0
vn 1 0 0
vn 0 0 1
vn 0 0 -1
vn 0 -1 0
vn 0 1 0

# texcoords
vt 0.935547 0.5
vt 0.982422 0.5
vt 0.986328 0.5
vt 0.990234 0.5
vt 0.994141 0.5

# verts
v -1.8 0.2 1.2
v -1.8 0.2 -1.2
v -1.8 0.3 0.7
v -1.8 0.3 -0.7
v -1.8 0.4 0.6
v -1.8 0.4 -0.6
v -1.8 0.5 0.6
v -1.8 0.5 -0.6
v -1.8 0.6 0.6
v -1.8 0.6 -0.6
v -1.8 0.7 0.6
v -1.8 0.7 -0.6
v -1.8 0.8 0.7
v -1.8 0.8 -0.7
v -1.8 1.1 1.2
v -1.8 1.1 -1.2
v -1.5 1.1 1.2
v -1.5 1.1 1.1
v -1.5 1.1 -1.1
v -1.5 1.1 -1.2
v -1.5 1.2 1.2
v -1.5 1.2 1.1
v -1.5 1.2 -1.1
v -1.5 1.2 -1.2
v -1.4 1.2 1.2
v -1.4 1.2 1.1
v -1.4 1.2 -1.1
v -1.4 1.2 -1.2
v -1.4 1.6 1.2
v -1.4 1.6 1.1
v -1.4 1.6 -1.1
v -1.4 1.6 -1.2
v -1.3 0 1.2
v -1.3 0 1.1
v -1.3 0 -1.1
v -1.3 0 -1.2
v -1.3 0.2 1.2
v -1.3 0.2 1.1
v -1.3 0.2 -1.1
v -1.3 0.2 -1.2
v -1.3 1.1 1.1
v -1.3 1.1 -1.1
v -1.3 1.2 1.1
v -1.3 1.2 -1.1
v -1.3 1.6 1.2
v -1.3 1.6 1.1
v -1.3 1.6 -1.1
v -1.3 1.6 -1.2
v -1.3 1.7 1.2
v -1.3 1.7 -1.2
v -0.8 0.3 1.1
v -0.8 0.3 1
v -0.8 0.3 -1
v -0.8 0.3 -1.1
v -0.8 0.4 1.1
v -0.8 0.4 1
v -0.8 0.4 -1
v -0.8 0.4 -1.1
v 0.8 0 1.2
v 0.8 0 1.1
v 0.8 0 -1.1
v 0.8 0 -1.2
v 0.8 0.2 1.2
v 0.8 0.2 1.1
v 0.8 0.2 -1.1
v 0.8 0.2 -1.2
v 1.3 0.3 1.1
v 1.3 0.3 -1.1
v 1.3 0.4 1.1
v 1.3 0.4 -1.1
v 1.4 0.2 1.1
v 1.4 0.2 -1.1
v 1.4 0.3 1.1
v 1.4 0.3 -1.1
v -1.4 1.1 1.1
v -1.4 1.1 -1.1
v -1.4 1.2 1.1
v -1.4 1.2 -1.1
v -1.3 0.2 1.1
v -1.3 0.2 -1.1
v -1.3 0.4 1.1
v -1.3 0.4 -1.1
v -0.8 0 1.2
v -0.8 0 1.1
v -0.8 0 -1.1
v -0.8 0 -1.2
v -0.8 0.2 1.2
v -0.8 0.2 1.1
v -0.8 0.2 -1.1
v -0.8 0.2 -1.2
v 0.8 0.3 1.1
v 0.8 0.3 1
v 0.8 0.3 -1
v 0.8 0.3 -1.1
v 0.8 0.4 1.1
v 0.8 0.4 1
v 0.8 0.4 -1
v 0.8 0.4 -1.1
v 1.2 1.6 1.2
v 1.2 1.6 -1.2
v 1.2 1.7 1.2
v 1.2 1.7 -1.2
v 1.3 0 1.2
v 1.3 0 1.1
v 1.3 0 -1.1
v 1.3 0 -1.2
v 1.3 0.2 1.2
v 1.3 0.2 1.1
v 1.3 0.2 -1.1
v 1.3 0.2 -1.2
v 1.3 1.4 1.2
v 1.3 1.4 1.1
v 1.3 1.4 -1.1
v 1.3 1.4 -1.2
v 1.3 1.6 1.2
v 1.3 1.6 -1.2
v 1.5 0.2 1.2
v 1.5 0.2 -1.2
v 1.5 0.4 1.1
v 1.5 0.4 -1.1
v 1.5 0.9 0.3
v 1.5 0.9 -0.3
v 1.5 1 0.3
v 1.5 1 -0.3
v 1.5 1.4 1.2
v 1.5 1.4 1.1
v 1.5 1.4 -1.1
v 1.5 1.4 -1.2
v -1.8 0.2 1.2
v -1.8 1.1 1.2
v -1.5 1.1 1.2
v -1.5 1.2 1.2
v -1.4 1.2 1.2
v -1.4 1.6 1.2
v -1.3 0 1.2
v -1.3 0.2 1.2
v -1.3 0.4 1.2
v -1.3 0.5 1.2
v -1.3 1.5 1.2
v -1.3 1.6 1.2
v -1.3 1.7 1.2
v -1.2 0.1 1.2
v -1.2 0.3 1.2
v -0.9 0.1 1.2
v -0.9 0.3 1.2
v -0.8 0 1.2
v -0.8 0.2 1.2
v -0.8 0.4 1.2
v -0.7 0.9 1.2
v -0.7 1.1 1.2
v -0.6 0.9 1.2
v -0.6 1.1 1.2
v -0.5 0.5 1.2
v -0.5 1.5 1.2
v -0.2 0.5 1.2
v -0.2 1.5 1.2
v -0.0999999 0.9 1.2
v -0.0999999 1.1 1.2
v 0 0.9 1.2
v 0 1.1 1.2
v 0.8 0 1.2
v 0.8 0.2 1.2
v 0.8 0.4 1.2
v 0.9 0.1 1.2
v 0.9 0.3 1.2
v 1.1 0.5 1.2
v 1.1 1.5 1.2
v 1.2 0.1 1.2
v 1.2 0.3 1.2
v 1.2 1.6 1.2
v 1.2 1.7 1.2
v 1.3 0 1.2
v 1.3 0.2 1.2
v 1.3 0.4 1.2
v 1.3 1.4 1.2
v 1.3 1.6 1.2
v 1.5 0.2 1.2
v 1.5 1.4 1.2
v -0.8 0.3 -1
v -0.8 0.4 -1
v 0.8 0.3 -1
v 0.8 0.4 -1
v -1.4 1.1 -1.1
v -1.4 1.2 -1.1
v -1.3 0 -1.1
v -1.3 0.2 -1.1
v -1.3 0.4 -1.1
v -1.3 1.1 -1.1
v -1.3 1.2 -1.1
v -1.2 0.1 -1.1
v -1.2 0.3 -1.1
v -0.9 0.1 -1.1
v -0.9 0.3 -1.1
v -0.8 0 -1.1
v -0.8 0.2 -1.1
v -0.8 0.3 -1.1
v -0.8 0.4 -1.1
v 0.8 0 -1.1
v 0.8 0.2 -1.1
v 0.8 0.3 -1.1
v 0.8 0.4 -1.1
v 0.9 0.1 -1.1
v 0.9 0.3 -1.1
v 1.2 0.1 -1.1
v 1.2 0.3 -1.1
v 1.3 0 -1.1
v 1.3 0.2 -1.1
v 1.3 0.3 -1.1
v 1.3 0.4 -1.1
v 1.4 0.2 -1.1
v 1.4 0.3 -1.1
v -1.4 1.1 1.1
v -1.4 1.2 1.1
v -1.3 0 1.1
v -1.3 0.2 1.1
v -1.3 0.4 1.1
v -1.3 1.1 1.1
v -1.3 1.2 1.1
v -1.2 0.1 1.1
v -1.2 0.3 1.1
v -0.9 0.1 1.1
v -0.9 0.3 1.1
v -0.8 0 1.1
v -0.8 0.2 1.1
v -0.8 0.3 1.1
v -0.8 0.4 1.1
v 0.8 0 1.1
v 0.8 0.2 1.1
v 0.8 0.3 1.1
v 0.8 0.4 1.1
v 0.9 0.1 1.1
v 0.9 0.3 1.1
v 1.2 0.1 1.1
v 1.2 0.3 1.1
v 1.3 0 1.1
v 1.3 0.2 1.1
v 1.3 0.3 1.1
v 1.3 0.4 1.1
v 1.4 0.2 1.1
v 1.4 0.3 1.1
v -0.8 0.3 1
v -0.8 0.4 1
v 0.8 0.3 1
v 0.8 0.4 1
v -1.8 0.2 -1.2
v -1.8 1.1 -1.2
v -1.5 1.1 -1.2
v -1.5 1.2 -1.2
v -1.4 1.2 -1.2
v -1.4 1.6 -1.2
v -1.3 0 -1.2
v -1.3 0.2 -1.2
v -1.3 0.4 -1.2
v -1.3 0.5 -1.2
v -1.3 1.5 -1.2
v -1.3 1.6 -1.2
v -1.3 1.7 -1.2
v -1.2 0.1 -1.2
v -1.2 0.3 -1.2
v -0.9 0.1 -1.2
v -0.9 0.3 -1.2
v -0.8 0 -1.2
v -0.8 0.2 -1.2
v -0.8 0.4 -1.2
v -0.7 0.9 -1.2
v -0.7 1.1 -1.2
v -0.6 0.9 -1.2
v -0.6 1.1 -1.2
v -0.5 0.5 -1.2
v -0.5 1.5 -1.2
v -0.2 0.5 -1.2
v -0.2 1.5 -1.2
v -0.0999999 0.9 -1.2
v -0.0999999 1.1 -1.2
v 0 0.9 -1.2
v 0 1.1 -1.2
v 0.8 0 -1.2
v 0.8 0.2 -1.2
v 0.8 0.4 -1.2
v 0.9 0.1 -1.2
v 0.9 0.3 -1.2
v 1.1 0.5 -1.2
v 1.1 1.5 -1.2
v 1.2 0.1 -1.2
v 1.2 0.3 -1.2
v 1.2 1.6 -1.2
v 1.2 1.7 -1.2
v 1.3 0 -1.2
v 1.3 0.2 -1.2
v 1.3 0.4 -1.2
v 1.3 1.4 -1.2
v 1.3 1.6 -1.2
v 1.5 0.2 -1.2
v 1.5 1.4 -1.2
v -1.3 0 1.2
v -0.8 0 1.2
v 0.8 0 1.2
v 1.3 0 1.2
v -1.3 0 1.1
v -0.8 0 1.1
v 0.8 0 1.1
v 1.3 0 1.1
v -1.3 0 -1.1
v -0.8 0 -1.1
v 0.8 0 -1.1
v 1.3 0 -1.1
v -1.3 0 -1.2
v -0.8 0 -1.2
v 0.8 0 -1.2
v 1.3 0 -1.2
v -1.8 0.2 1.2
v -1.3 0.2 1.2
v -0.8 0.2 1.2
v 0.8 0.2 1.2
v 1.3 0.2 1.2
v 1.5 0.2 1.2
v -1.3 0.2 1.1
v -0.8 0.2 1.1
v 0.8 0.2 1.1
v 1.3 0.2 1.1
v 1.4 0.2 1.1
v -1.3 0.2 -1.1
v -0.8 0.2 -1.1
v 0.8 0.2 -1.1
v 1.3 0.2 -1.1
v 1.4 0.2 -1.1
v -1.8 0.2 -1.2
v -1.3 0.2 -1.2
v -0.8 0.2 -1.2
v 0.8 0.2 -1.2
v 1.3 0.2 -1.2
v 1.5 0.2 -1.2
v -0.8 0.3 1.1
v 0.8 0.3 1.1
v 1.3 0.3 1.1
v 1.4 0.3 1.1
v -0.8 0.3 1
v 0.8 0.3 1
v -0.8 0.3 -1
v 0.8 0.3 -1
v -0.8 0.3 -1.1
v 0.8 0.3 -1.1
v 1.3 0.3 -1.1
v 1.4 0.3 -1.1
v -1.3 0.4 1.1
v -0.8 0.4 1.1
v 0.8 0.4 1.1
v 1.3 0.4 1.1
v -0.8 0.4 1
v 0.8 0.4 1
v -0.8 0.4 -1
v 0.8 0.4 -1
v -1.3 0.4 -1.1
v -0.8 0.4 -1.1
v 0.8 0.4 -1.1
v 1.3 0.4 -1.1
v -1.4 1.2 1.1
v -1.3 1.2 1.1
v -1.4 1.2 -1.1
v -1.3 1.2 -1.1
v -1.8 1.1 1.2
v -1.5 1.1 1.2
v -1.5 1.1 1.1
v -1.4 1.1 1.1
v -1.3 1.1 1.1
v -1.5 1.1 -1.1
v -1.4 1.1 -1.1
v -1.3 1.1 -1.1
v -1.8 1.1 -1.2
v -1.5 1.1 -1.2
v -1.5 1.2 1.2
v -1.4 1.2 1.2
v -1.5 1.2 1.1
v -1.4 1.2 1.1
v -1.5 1.2 -1.1
v -1.4 1.2 -1.1
v -1.5 1.2 -1.2
v -1.4 1.2 -1.2
v 1.3 1.4 1.2
v 1.5 1.4 1.2
v 1.3 1.4 1.1
v 1.5 1.4 1.1
v 1.3 1.4 -1.1
v 1.5 1.4 -1.1
v 1.3 1.4 -1.2
v 1.5 1.4 -1.2
v -1.4 1.6 1.2
v -1.3 1.6 1.2
v 1.2 1.6 1.2
v 1.3 1.6 1.2
v -1.4 1.6 1.1
v -1.3 1.6 1.1
v -1.4 1.6 -1.1
v -1.3 1.6 -1.1
v -1.4 1.6 -1.2
v -1.3 1.6 -1.2
v 1.2 1.6 -1.2
v 1.3 1.6 -1.2
v -1.3 1.7 1.2
v 1.2 1.7 1.2
v -1.3 1.7 -1.2
v 1.2 1.7 -1.2

# faces
f 3/4/1 2/4/1 1/4/1
f 4/4/1 2/4/1 3/4/1
f 5/2/1 4/2/1 3/2/1
f 6/2/1 4/2/1 5/2/1
f 7/2/1 5/2/1 3/2/1
f 7/4/1 6/4/1 5/4/1
f 8/2/1 4/2/1 6/2/1
f 8/4/1 6/4/1 7/4/1
f 9/2/1 7/2/1 3/2/1
f 9/2/1 8/2/1 7/2/1
f 10/2/1 4/2/1 8/2/1
f 10/2/1 8/2/1 9/2/1
f 11/2/1 9/2/1 3/2/1
f 11/4/1 10/4/1 9/4/1
f 12/2/1 4/2/1 10/2/1
f 12/4/1 10/4/1 11/4/1
f 13/4/1 3/4/1 1/4/1
f 13/2/1 11/2/1 3/2/1
f 13/2/1 12/2/1 11/2/1
f 14/2/1 4/2/1 12/2/1
f 14/2/1 12/2/1 13/2/1
f 14/4/1 2/4/1 4/4/1
f 15/4/1 13/4/1 1/4/1
f 15/4/1 14/4/1 13/4/1
f 16/4/1 2/4/1 14/4/1
f 16/4/1 14/4/1 15/4/1
f 21/4/1 18/4/1 17/4/1
f 22/1/1 19/1/1 18/1/1
f 22/4/1 18/4/1 21/4/1
f 23/4/1 20/4/1 19/4/1
f 23/1/1 19/1/1 22/1/1
f 24/4/1 20/4/1 23/4/1
f 29/4/1 26/4/1 25/4/1
f 30/1/1 27/1/1 26/1/1
f 30/4/1 26/4/1 29/4/1
f 31/4/1 28/4/1 27/4/1
f 31/1/1 27/1/1 30/1/1
f 32/4/1 28/4/1 31/4/1
f 37/5/1 34/5/1 33/5/1
f 38/5/1 34/5/1 37/5/1
f 39/5/1 36/5/1 35/5/1
f 40/5/1 36/5/1 39/5/1
f 43/3/1 42/3/1 41/3/1
f 44/3/1 42/3/1 43/3/1
f 49/4/1 47/4/1 46/4/1
f 49/4/1 48/4/1 47/4/1
f 49/4/1 46/4/1 45/4/1
f 50/4/1 48/4/1 49/4/1
f 55/4/1 52/4/1 51/4/1
f 56/4/1 52/4/1 55/4/1
f 57/4/1 54/4/1 53/4/1
f 58/4/1 54/4/1 57/4/1
f 63/5/1 60/5/1 59/5/1
f 64/5/1 60/5/1 63/5/1
f 65/5/1 62/5/1 61/5/1
f 66/5/1 62/5/1 65/5/1
f 69/4/1 68/4/1 67/4/1
f 70/4/1 68/4/1 69/4/1
f 73/4/1 72/4/1 71/4/1
f 74/4/1 72/4/1 73/4/1
f 75/1/2 76/1/2 77/1/2
f 77/1/2 76/1/2 78/1/2
f 79/4/2 80/4/2 81/4/2
f 81/4/2 80/4/2 82/4/2
f 83/5/2 84/5/2 87/5/2
f 87/5/2 84/5/2 88/5/2
f 85/5/2 86/5/2 89/5/2
f 89/5/2 86/5/2 90/5/2
f 91/4/2 92/4/2 95/4/2
f 95/4/2 92/4/2 96/4/2
f 93/4/2 94/4/2 97/4/2
f 97/4/2 94/4/2 98/4/2
f 99/4/2 100/4/2 101/4/2
f 101/4/2 100/4/2 102/4/2
f 103/5/2 104/5/2 107/5/2
f 107/5/2 104/5/2 108/5/2
f 105/5/2 106/5/2 109/5/2
f 109/5/2 106/5/2 110/5/2
f 111/4/2 112/4/2 115/4/2
f 113/4/2 114/4/2 115/4/2
f 112/4/2 113/4/2 115/4/2
f 115/4/2 114/4/2 116/4/2
f 117/4/2 118/4/2 119/4/2
f 119/4/2 118/4/2 120/4/2
f 119/2/2 120/2/2 121/2/2
f 121/2/2 120/2/2 122/2/2
f 119/2/2 121/2/2 123/2/2
f 121/5/2 122/5/2 123/5/2
f 122/2/2 120/2/2 124/2/2
f 123/5/2 122/5/2 124/5/2
f 117/4/2 119/4/2 125/4/2
f 119/2/2 123/2/2 126/2/2
f 125/4/2 119/4/2 126/4/2
f 123/2/2 124/2/2 126/2/2
f 124/2/2 120/2/2 127/2/2
f 126/2/2 124/2/2 127/2/2
f 120/4/2 118/4/2 127/4/2
f 127/4/2 118/4/2 128/4/2
f 131/4/3 130/4/3 129/4/3
f 133/4/3 132/4/3 131/4/3
f 136/4/3 131/4/3 129/4/3
f 136/4/3 134/4/3 133/4/3
f 136/4/3 133/4/3 131/4/3
f 137/4/3 134/4/3 136/4/3
f 138/4/3 134/4/3 137/4/3
f 139/4/3 134/4/3 138/4/3
f 140/4/3 134/4/3 139/4/3
f 142/5/3 136/5/3 135/5/3
f 142/5/3 137/5/3 136/5/3
f 143/5/3 137/5/3 142/5/3
f 144/5/3 142/5/3 135/5/3
f 144/2/3 143/2/3 142/2/3
f 145/5/3 137/5/3 143/5/3
f 145/2/3 143/2/3 144/2/3
f 146/5/3 144/5/3 135/5/3
f 146/5/3 145/5/3 144/5/3
f 147/5/3 145/5/3 146/5/3
f 148/4/3 138/4/3 137/4/3
f 148/5/3 145/5/3 147/5/3
f 148/5/3 137/5/3 145/5/3
f 149/5/3 139/5/3 138/5/3
f 150/5/3 139/5/3 149/5/3
f 151/5/3 149/5/3 138/5/3
f 151/2/3 150/2/3 149/2/3
f 152/5/3 139/5/3 150/5/3
f 152/2/3 150/2/3 151/2/3
f 153/4/3 138/4/3 148/4/3
f 153/4/3 148/4/3 147/4/3
f 153/5/3 152/5/3 151/5/3
f 153/5/3 151/5/3 138/5/3
f 154/4/3 141/4/3 140/4/3
f 154/5/3 152/5/3 153/5/3
f 154/4/3 140/4/3 139/4/3
f 154/5/3 139/5/3 152/5/3
f 155/4/3 153/4/3 147/4/3
f 155/4/3 154/4/3 153/4/3
f 156/4/3 141/4/3 154/4/3
f 156/4/3 154/4/3 155/4/3
f 157/5/3 156/5/3 155/5/3
f 158/5/3 156/5/3 157/5/3
f 159/5/3 157/5/3 155/5/3
f 159/3/3 158/3/3 157/3/3
f 160/5/3 156/5/3 158/5/3
f 160/3/3 158/3/3 159/3/3
f 162/4/3 155/4/3 147/4/3
f 163/4/3 155/4/3 162/4/3
f 164/5/3 162/5/3 161/5/3
f 164/5/3 163/5/3 162/5/3
f 165/5/3 163/5/3 164/5/3
f 166/5/3 159/5/3 155/5/3
f 166/5/3 160/5/3 159/5/3
f 166/4/3 155/4/3 163/4/3
f 167/5/3 156/5/3 160/5/3
f 167/5/3 160/5/3 166/5/3
f 167/4/3 141/4/3 156/4/3
f 168/5/3 164/5/3 161/5/3
f 168/2/3 165/2/3 164/2/3
f 169/5/3 163/5/3 165/5/3
f 169/2/3 165/2/3 168/2/3
f 170/4/3 141/4/3 167/4/3
f 170/4/3 167/4/3 166/4/3
f 171/4/3 141/4/3 170/4/3
f 172/5/3 168/5/3 161/5/3
f 172/5/3 169/5/3 168/5/3
f 173/5/3 169/5/3 172/5/3
f 174/4/3 166/4/3 163/4/3
f 174/5/3 169/5/3 173/5/3
f 174/5/3 163/5/3 169/5/3
f 174/4/3 170/4/3 166/4/3
f 175/4/3 170/4/3 174/4/3
f 176/4/3 170/4/3 175/4/3
f 177/4/3 174/4/3 173/4/3
f 177/4/3 175/4/3 174/4/3
f 178/4/3 175/4/3 177/4/3
f 181/4/3 180/4/3 179/4/3
f 182/4/3 180/4/3 181/4/3
f 188/4/3 184/4/3 183/4/3
f 189/4/3 184/4/3 188/4/3
f 190/5/3 187/5/3 186/5/3
f 190/5/3 186/5/3 185/5/3
f 191/5/3 187/5/3 190/5/3
f 192/5/3 190/5/3 185/5/3
f 192/2/3 191/2/3 190/2/3
f 193/5/3 187/5/3 191/5/3
f 193/2/3 191/2/3 192/2/3
f 194/5/3 192/5/3 185/5/3
f 194/5/3 193/5/3 192/5/3
f 195/5/3 193/5/3 194/5/3
f 196/5/3 187/5/3 193/5/3
f 196/5/3 193/5/3 195/5/3
f 197/5/3 187/5/3 196/5/3
f 199/4/3 196/4/3 195/4/3
f 200/4/3 196/4/3 199/4/3
f 202/5/3 199/5/3 198/5/3
f 202/5/3 201/5/3 200/5/3
f 202/5/3 200/5/3 199/5/3
f 203/5/3 201/5/3 202/5/3
f 204/5/3 202/5/3 198/5/3
f 204/2/3 203/2/3 202/2/3
f 205/5/3 201/5/3 203/5/3
f 205/2/3 203/2/3 204/2/3
f 206/5/3 204/5/3 198/5/3
f 206/5/3 205/5/3 204/5/3
f 207/5/3 205/5/3 206/5/3
f 208/5/3 201/5/3 205/5/3
f 208/5/3 205/5/3 207/5/3
f 209/5/3 201/5/3 208/5/3
f 210/4/3 208/4/3 207/4/3
f 211/4/3 208/4/3 210/4/3
f 212/4/4 213/4/4 217/4/4
f 217/4/4 213/4/4 218/4/4
f 215/5/4 216/5/4 219/5/4
f 214/5/4 215/5/4 219/5/4
f 219/5/4 216/5/4 220/5/4
f 214/5/4 219/5/4 221/5/4
f 219/2/4 220/2/4 221/2/4
f 220/5/4 216/5/4 222/5/4
f 221/2/4 220/2/4 222/2/4
f 214/5/4 221/5/4 223/5/4
f 221/5/4 222/5/4 223/5/4
f 223/5/4 222/5/4 224/5/4
f 222/5/4 216/5/4 225/5/4
f 224/5/4 222/5/4 225/5/4
f 225/5/4 216/5/4 226/5/4
f 224/4/4 225/4/4 228/4/4
f 228/4/4 225/4/4 229/4/4
f 227/5/4 228/5/4 231/5/4
f 229/5/4 230/5/4 231/5/4
f 228/5/4 229/5/4 231/5/4
f 231/5/4 230/5/4 232/5/4
f 227/5/4 231/5/4 233/5/4
f 231/2/4 232/2/4 233/2/4
f 232/5/4 230/5/4 234/5/4
f 233/2/4 232/2/4 234/2/4
f 227/5/4 233/5/4 235/5/4
f 233/5/4 234/5/4 235/5/4
f 235/5/4 234/5/4 236/5/4
f 234/5/4 230/5/4 237/5/4
f 236/5/4 234/5/4 237/5/4
f 237/5/4 230/5/4 238/5/4
f 236/4/4 237/4/4 239/4/4
f 239/4/4 237/4/4 240/4/4
f 241/4/4 242/4/4 243/4/4
f 243/4/4 242/4/4 244/4/4
f 245/4/4 246/4/4 247/4/4
f 247/4/4 248/4/4 249/4/4
f 245/4/4 247/4/4 252/4/4
f 249/4/4 250/4/4 252/4/4
f 247/4/4 249/4/4 252/4/4
f 252/4/4 250/4/4 253/4/4
f 253/4/4 250/4/4 254/4/4
f 254/4/4 250/4/4 255/4/4
f 255/4/4 250/4/4 256/4/4
f 251/5/4 252/5/4 258/5/4
f 252/5/4 253/5/4 258/5/4
f 258/5/4 253/5/4 259/5/4
f 251/5/4 258/5/4 260/5/4
f 258/2/4 259/2/4 260/2/4
f 259/5/4 253/5/4 261/5/4
f 260/2/4 259/2/4 261/2/4
f 251/5/4 260/5/4 262/5/4
f 260/5/4 261/5/4 262/5/4
f 262/5/4 261/5/4 263/5/4
f 253/4/4 254/4/4 264/4/4
f 263/5/4 261/5/4 264/5/4
f 261/5/4 253/5/4 264/5/4
f 254/5/4 255/5/4 265/5/4
f 265/5/4 255/5/4 266/5/4
f 254/5/4 265/5/4 267/5/4
f 265/2/4 266/2/4 267/2/4
f 266/5/4 255/5/4 268/5/4
f 267/2/4 266/2/4 268/2/4
f 264/4/4 254/4/4 269/4/4
f 263/4/4 264/4/4 269/4/4
f 267/5/4 268/5/4 269/5/4
f 254/5/4 267/5/4 269/5/4
f 256/4/4 257/4/4 270/4/4
f 269/5/4 268/5/4 270/5/4
f 255/4/4 256/4/4 270/4/4
f 268/5/4 255/5/4 270/5/4
f 263/4/4 269/4/4 271/4/4
f 269/4/4 270/4/4 271/4/4
f 270/4/4 257/4/4 272/4/4
f 271/4/4 270/4/4 272/4/4
f 271/5/4 272/5/4 273/5/4
f 273/5/4 272/5/4 274/5/4
f 271/5/4 273/5/4 275/5/4
f 273/3/4 274/3/4 275/3/4
f 274/5/4 272/5/4 276/5/4
f 275/3/4 274/3/4 276/3/4
f 263/4/4 271/4/4 278/4/4
f 278/4/4 271/4/4 279/4/4
f 277/5/4 278/5/4 280/5/4
f 278/5/4 279/5/4 280/5/4
f 280/5/4 279/5/4 281/5/4
f 271/5/4 275/5/4 282/5/4
f 275/5/4 276/5/4 282/5/4
f 279/4/4 271/4/4 282/4/4
f 276/5/4 272/5/4 283/5/4
f 282/5/4 276/5/4 283/5/4
f 272/4/4 257/4/4 283/4/4
f 277/5/4 280/5/4 284/5/4
f 280/2/4 281/2/4 284/2/4
f 281/5/4 279/5/4 285/5/4
f 284/2/4 281/2/4 285/2/4
f 283/4/4 257/4/4 286/4/4
f 282/4/4 283/4/4 286/4/4
f 286/4/4 257/4/4 287/4/4
f 277/5/4 284/5/4 288/5/4
f 284/5/4 285/5/4 288/5/4
f 288/5/4 285/5/4 289/5/4
f 279/4/4 282/4/4 290/4/4
f 289/5/4 285/5/4 290/5/4
f 285/5/4 279/5/4 290/5/4
f 282/4/4 286/4/4 290/4/4
f 290/4/4 286/4/4 291/4/4
f 291/4/4 286/4/4 292/4/4
f 289/4/4 290/4/4 293/4/4
f 290/4/4 291/4/4 293/4/4
f 293/4/4 291/4/4 294/4/4
f 299/5/5 296/5/5 295/5/5
f 300/5/5 296/5/5 299/5/5
f 301/5/5 298/5/5 297/5/5
f 302/5/5 298/5/5 301/5/5
f 307/5/5 304/5/5 303/5/5
f 308/5/5 304/5/5 307/5/5
f 309/5/5 306/5/5 305/5/5
f 310/5/5 306/5/5 309/5/5
f 317/4/5 312/4/5 311/4/5
f 318/4/5 314/4/5 313/4/5
f 319/4/5 314/4/5 318/4/5
f 320/4/5 316/4/5 315/4/5
f 321/4/5 316/4/5 320/4/5
f 322/4/5 317/4/5 311/4/5
f 326/4/5 316/4/5 321/4/5
f 327/4/5 322/4/5 311/4/5
f 328/4/5 322/4/5 327/4/5
f 329/4/5 324/4/5 323/4/5
f 330/4/5 324/4/5 329/4/5
f 331/4/5 326/4/5 325/4/5
f 332/4/5 316/4/5 326/4/5
f 332/4/5 326/4/5 331/4/5
f 337/4/5 334/4/5 333/4/5
f 338/4/5 334/4/5 337/4/5
f 341/4/5 340/4/5 339/4/5
f 342/4/5 340/4/5 341/4/5
f 343/4/5 336/4/5 335/4/5
f 344/4/5 336/4/5 343/4/5
f 349/4/5 346/4/5 345/4/5
f 350/4/5 348/4/5 347/4/5
f 351/4/5 349/4/5 345/4/5
f 351/4/5 350/4/5 349/4/5
f 352/4/5 348/4/5 350/4/5
f 352/4/5 350/4/5 351/4/5
f 353/4/5 351/4/5 345/4/5
f 354/4/5 351/4/5 353/4/5
f 355/4/5 348/4/5 352/4/5
f 356/4/5 348/4/5 355/4/5
f 359/1/5 358/1/5 357/1/5
f 360/1/5 358/1/5 359/1/5
f 361/4/6 362/4/6 363/4/6
f 361/4/6 363/4/6 366/4/6
f 364/3/6 365/3/6 367/3/6
f 367/3/6 365/3/6 368/3/6
f 361/4/6 366/4/6 369/4/6
f 369/4/6 366/4/6 370/4/6
f 371/4/6 372/4/6 373/4/6
f 373/4/6 372/4/6 374/4/6
f 373/1/6 374/1/6 375/1/6
f 375/1/6 374/1/6 376/1/6
f 375/4/6 376/4/6 377/4/6
f 377/4/6 376/4/6 378/4/6
f 379/4/6 380/4/6 381/4/6
f 381/4/6 380/4/6 382/4/6
f 381/2/6 382/2/6 383/2/6
f 383/2/6 382/2/6 384/2/6
f 383/4/6 384/4/6 385/4/6
f 385/4/6 384/4/6 386/4/6
f 387/4/6 388/4/6 391/4/6
f 391/4/6 388/4/6 392/4/6
f 391/1/6 392/1/6 393/1/6
f 393/1/6 392/1/6 394/1/6
f 393/4/6 394/4/6 395/4/6
f 395/4/6 394/4/6 396/4/6
f 389/4/6 390/4/6 397/4/6
f 397/4/6 390/4/6 398/4/6
f 399/4/6 400/4/6 401/4/6
f 401/4/6 400/4/6 402/4/6
