# MagicaVoxel @ Ephtracy

# group
o 

# material
mtllib EnTorret-1.mtl
usemtl palette

# normals
vn -1 0 0
vn 1 0 0
vn 0 0 1
vn 0 0 -1
vn 0 -1 0
vn 0 1 0

# texcoords
vt 0.986328 0.5
vt 0.990234 0.5
vt 0.994141 0.5

# verts
v -4.8 0 5.2
v -4.8 0 -3.2
v -4.8 0.4 5.2
v -4.8 0.4 -3.2
v -4.4 0.4 4.8
v -4.4 0.4 -2.8
v -4.4 0.8 4.8
v -4.4 0.8 -2.8
v -3.3 0.8 4.4
v -3.3 0.8 -2.5
v -3.3 0.9 4.4
v -3.3 0.9 -2.5
v -3 0.9 4.2
v -3 0.9 -2.2
v -3 1 4.2
v -3 1 -2.2
v -2.4 1 3.7
v -2.4 1 -1.5
v -2.4 2.5 3.7
v -2.4 2.5 -1.5
v -2.1 2.1 -1.5
v -2.1 2.1 -1.7
v -2.1 2.2 -1.5
v -2.1 2.2 -1.7
v -1.7 2.5 2.7
v -1.7 2.5 -0.7
v -1.7 2.8 2.7
v -1.7 2.8 -0.7
v -1.2 2.8 2.4
v -1.2 2.8 -0.4
v -1.2 4 2.4
v -1.2 4 -0.4
v -1.1 2.1 -1.5
v -1.1 2.1 -1.6
v -1.1 2.2 -1.5
v -1.1 2.2 -1.6
v 1.1 2.1 -1.5
v 1.1 2.1 -1.7
v 1.1 2.2 -1.5
v 1.1 2.2 -1.7
v 2.1 2.1 -1.5
v 2.1 2.1 -1.6
v 2.1 2.2 -1.5
v 2.1 2.2 -1.6
v -2 2.1 -1.5
v -2 2.1 -1.6
v -2 2.2 -1.5
v -2 2.2 -1.6
v -1 2.1 -1.5
v -1 2.1 -1.7
v -1 2.2 -1.5
v -1 2.2 -1.7
v 1.2 2.1 -1.5
v 1.2 2.1 -1.6
v 1.2 2.2 -1.5
v 1.2 2.2 -1.6
v 1.2 2.8 2.4
v 1.2 2.8 -0.4
v 1.2 4 2.4
v 1.2 4 -0.4
v 1.5 2.5 2.7
v 1.5 2.5 -0.7
v 1.5 2.8 2.7
v 1.5 2.8 -0.7
v 2.2 2.1 -1.5
v 2.2 2.1 -1.7
v 2.2 2.2 -1.5
v 2.2 2.2 -1.7
v 2.5 1 3.7
v 2.5 1 -1.5
v 2.5 2.5 3.7
v 2.5 2.5 -1.5
v 3.1 0.9 4.2
v 3.1 0.9 -2.2
v 3.1 1 4.2
v 3.1 1 -2.2
v 3.3 0.8 4.4
v 3.3 0.8 -2.5
v 3.3 0.9 4.4
v 3.3 0.9 -2.5
v 4.4 0.4 4.8
v 4.4 0.4 -2.8
v 4.4 0.8 4.8
v 4.4 0.8 -2.8
v 4.8 0 5.2
v 4.8 0 -3.2
v 4.8 0.4 5.2
v 4.8 0.4 -3.2
v -4.8 0 5.2
v -4.8 0.4 5.2
v 4.8 0 5.2
v 4.8 0.4 5.2
v -4.4 0.4 4.8
v -4.4 0.8 4.8
v 4.4 0.4 4.8
v 4.4 0.8 4.8
v -3.3 0.8 4.4
v -3.3 0.9 4.4
v 3.3 0.8 4.4
v 3.3 0.9 4.4
v -3 0.9 4.2
v -3 1 4.2
v 3.1 0.9 4.2
v 3.1 1 4.2
v -2.4 1 3.7
v -2.4 2.5 3.7
v 2.5 1 3.7
v 2.5 2.5 3.7
v -1.7 2.5 2.7
v -1.7 2.8 2.7
v 1.5 2.5 2.7
v 1.5 2.8 2.7
v -1.2 2.8 2.4
v -1.2 4 2.4
v 1.2 2.8 2.4
v 1.2 4 2.4
v -2 2.1 -1.6
v -2 2.2 -1.6
v -1.1 2.1 -1.6
v -1.1 2.2 -1.6
v 1.2 2.1 -1.6
v 1.2 2.2 -1.6
v 2.1 2.1 -1.6
v 2.1 2.2 -1.6
v -1.2 2.8 -0.4
v -1.2 4 -0.4
v 1.2 2.8 -0.4
v 1.2 4 -0.4
v -1.7 2.5 -0.7
v -1.7 2.8 -0.7
v 1.5 2.5 -0.7
v 1.5 2.8 -0.7
v -2.4 1 -1.5
v -2.4 2.5 -1.5
v -2.2 1.2 -1.5
v -2.2 2.3 -1.5
v -2.1 2.1 -1.5
v -2.1 2.2 -1.5
v -2 2.1 -1.5
v -2 2.2 -1.5
v -1.1 2.1 -1.5
v -1.1 2.2 -1.5
v -1 2.1 -1.5
v -1 2.2 -1.5
v -0.9 1.2 -1.5
v -0.9 2.3 -1.5
v 1 1.2 -1.5
v 1 2.3 -1.5
v 1.1 2.1 -1.5
v 1.1 2.2 -1.5
v 1.2 2.1 -1.5
v 1.2 2.2 -1.5
v 2.1 2.1 -1.5
v 2.1 2.2 -1.5
v 2.2 2.1 -1.5
v 2.2 2.2 -1.5
v 2.3 1.2 -1.5
v 2.3 2.3 -1.5
v 2.5 1 -1.5
v 2.5 2.5 -1.5
v -2.1 2.1 -1.7
v -2.1 2.2 -1.7
v -1 2.1 -1.7
v -1 2.2 -1.7
v 1.1 2.1 -1.7
v 1.1 2.2 -1.7
v 2.2 2.1 -1.7
v 2.2 2.2 -1.7
v -3 0.9 -2.2
v -3 1 -2.2
v 3.1 0.9 -2.2
v 3.1 1 -2.2
v -3.3 0.8 -2.5
v -3.3 0.9 -2.5
v 3.3 0.8 -2.5
v 3.3 0.9 -2.5
v -4.4 0.4 -2.8
v -4.4 0.8 -2.8
v 4.4 0.4 -2.8
v 4.4 0.8 -2.8
v -4.8 0 -3.2
v -4.8 0.4 -3.2
v 4.8 0 -3.2
v 4.8 0.4 -3.2
v -4.8 0 5.2
v 4.8 0 5.2
v -4.8 0 -3.2
v 4.8 0 -3.2
v -2.1 2.1 -1.5
v -2 2.1 -1.5
v -1.1 2.1 -1.5
v -1 2.1 -1.5
v 1.1 2.1 -1.5
v 1.2 2.1 -1.5
v 2.1 2.1 -1.5
v 2.2 2.1 -1.5
v -2 2.1 -1.6
v -1.1 2.1 -1.6
v 1.2 2.1 -1.6
v 2.1 2.1 -1.6
v -2.1 2.1 -1.7
v -1 2.1 -1.7
v 1.1 2.1 -1.7
v 2.2 2.1 -1.7
v -4.8 0.4 5.2
v 4.8 0.4 5.2
v -4.4 0.4 4.8
v 4.4 0.4 4.8
v -4.4 0.4 -2.8
v 4.4 0.4 -2.8
v -4.8 0.4 -3.2
v 4.8 0.4 -3.2
v -4.4 0.8 4.8
v 4.4 0.8 4.8
v -3.3 0.8 4.4
v 3.3 0.8 4.4
v -3.3 0.8 -2.5
v 3.3 0.8 -2.5
v -4.4 0.8 -2.8
v 4.4 0.8 -2.8
v -3.3 0.9 4.4
v 3.3 0.9 4.4
v -3 0.9 4.2
v 3.1 0.9 4.2
v -3 0.9 -2.2
v 3.1 0.9 -2.2
v -3.3 0.9 -2.5
v 3.3 0.9 -2.5
v -3 1 4.2
v 3.1 1 4.2
v -2.4 1 3.7
v 2.5 1 3.7
v -2.4 1 -1.5
v 2.5 1 -1.5
v -3 1 -2.2
v 3.1 1 -2.2
v -2.1 2.2 -1.5
v -2 2.2 -1.5
v -1.1 2.2 -1.5
v -1 2.2 -1.5
v 1.1 2.2 -1.5
v 1.2 2.2 -1.5
v 2.1 2.2 -1.5
v 2.2 2.2 -1.5
v -2 2.2 -1.6
v -1.1 2.2 -1.6
v 1.2 2.2 -1.6
v 2.1 2.2 -1.6
v -2.1 2.2 -1.7
v -1 2.2 -1.7
v 1.1 2.2 -1.7
v 2.2 2.2 -1.7
v -2.4 2.5 3.7
v 2.5 2.5 3.7
v -1.7 2.5 2.7
v 1.5 2.5 2.7
v -1.7 2.5 -0.7
v 1.5 2.5 -0.7
v -2.4 2.5 -1.5
v 2.5 2.5 -1.5
v -1.7 2.8 2.7
v 1.5 2.8 2.7
v -1.2 2.8 2.4
v 1.2 2.8 2.4
v -1.2 2.8 -0.4
v 1.2 2.8 -0.4
v -1.7 2.8 -0.7
v 1.5 2.8 -0.7
v -1.2 4 2.4
v 1.2 4 2.4
v -1.2 4 -0.4
v 1.2 4 -0.4

# faces
f 3/1/1 2/1/1 1/1/1
f 4/1/1 2/1/1 3/1/1
f 7/1/1 6/1/1 5/1/1
f 8/1/1 6/1/1 7/1/1
f 11/3/1 10/3/1 9/3/1
f 12/3/1 10/3/1 11/3/1
f 15/3/1 14/3/1 13/3/1
f 16/3/1 14/3/1 15/3/1
f 19/3/1 18/3/1 17/3/1
f 20/3/1 18/3/1 19/3/1
f 23/2/1 22/2/1 21/2/1
f 24/2/1 22/2/1 23/2/1
f 27/3/1 26/3/1 25/3/1
f 28/3/1 26/3/1 27/3/1
f 31/3/1 30/3/1 29/3/1
f 32/3/1 30/3/1 31/3/1
f 35/2/1 34/2/1 33/2/1
f 36/2/1 34/2/1 35/2/1
f 39/2/1 38/2/1 37/2/1
f 40/2/1 38/2/1 39/2/1
f 43/2/1 42/2/1 41/2/1
f 44/2/1 42/2/1 43/2/1
f 45/2/2 46/2/2 47/2/2
f 47/2/2 46/2/2 48/2/2
f 49/2/2 50/2/2 51/2/2
f 51/2/2 50/2/2 52/2/2
f 53/2/2 54/2/2 55/2/2
f 55/2/2 54/2/2 56/2/2
f 57/3/2 58/3/2 59/3/2
f 59/3/2 58/3/2 60/3/2
f 61/3/2 62/3/2 63/3/2
f 63/3/2 62/3/2 64/3/2
f 65/2/2 66/2/2 67/2/2
f 67/2/2 66/2/2 68/2/2
f 69/3/2 70/3/2 71/3/2
f 71/3/2 70/3/2 72/3/2
f 73/3/2 74/3/2 75/3/2
f 75/3/2 74/3/2 76/3/2
f 77/3/2 78/3/2 79/3/2
f 79/3/2 78/3/2 80/3/2
f 81/1/2 82/1/2 83/1/2
f 83/1/2 82/1/2 84/1/2
f 85/1/2 86/1/2 87/1/2
f 87/1/2 86/1/2 88/1/2
f 91/1/3 90/1/3 89/1/3
f 92/1/3 90/1/3 91/1/3
f 95/1/3 94/1/3 93/1/3
f 96/1/3 94/1/3 95/1/3
f 99/3/3 98/3/3 97/3/3
f 100/3/3 98/3/3 99/3/3
f 103/3/3 102/3/3 101/3/3
f 104/3/3 102/3/3 103/3/3
f 107/3/3 106/3/3 105/3/3
f 108/3/3 106/3/3 107/3/3
f 111/3/3 110/3/3 109/3/3
f 112/3/3 110/3/3 111/3/3
f 115/3/3 114/3/3 113/3/3
f 116/3/3 114/3/3 115/3/3
f 119/2/3 118/2/3 117/2/3
f 120/2/3 118/2/3 119/2/3
f 123/2/3 122/2/3 121/2/3
f 124/2/3 122/2/3 123/2/3
f 125/3/4 126/3/4 127/3/4
f 127/3/4 126/3/4 128/3/4
f 129/3/4 130/3/4 131/3/4
f 131/3/4 130/3/4 132/3/4
f 133/3/4 134/3/4 135/3/4
f 135/3/4 134/3/4 136/3/4
f 135/1/4 136/1/4 137/1/4
f 137/1/4 136/1/4 138/1/4
f 135/1/4 137/1/4 139/1/4
f 138/1/4 136/1/4 140/1/4
f 135/1/4 139/1/4 141/1/4
f 139/1/4 140/1/4 141/1/4
f 140/1/4 136/1/4 142/1/4
f 141/1/4 140/1/4 142/1/4
f 135/1/4 141/1/4 143/1/4
f 142/1/4 136/1/4 144/1/4
f 133/3/4 135/3/4 145/3/4
f 143/1/4 144/1/4 145/1/4
f 135/1/4 143/1/4 145/1/4
f 144/1/4 136/1/4 146/1/4
f 145/1/4 144/1/4 146/1/4
f 136/3/4 134/3/4 146/3/4
f 133/3/4 145/3/4 147/3/4
f 145/3/4 146/3/4 147/3/4
f 146/3/4 134/3/4 148/3/4
f 147/3/4 146/3/4 148/3/4
f 147/1/4 148/1/4 149/1/4
f 149/1/4 148/1/4 150/1/4
f 147/1/4 149/1/4 151/1/4
f 150/1/4 148/1/4 152/1/4
f 147/1/4 151/1/4 153/1/4
f 151/1/4 152/1/4 153/1/4
f 152/1/4 148/1/4 154/1/4
f 153/1/4 152/1/4 154/1/4
f 147/1/4 153/1/4 155/1/4
f 154/1/4 148/1/4 156/1/4
f 133/3/4 147/3/4 157/3/4
f 155/1/4 156/1/4 157/1/4
f 147/1/4 155/1/4 157/1/4
f 156/1/4 148/1/4 158/1/4
f 157/1/4 156/1/4 158/1/4
f 148/3/4 134/3/4 158/3/4
f 133/3/4 157/3/4 159/3/4
f 157/3/4 158/3/4 159/3/4
f 158/3/4 134/3/4 160/3/4
f 159/3/4 158/3/4 160/3/4
f 161/2/4 162/2/4 163/2/4
f 163/2/4 162/2/4 164/2/4
f 165/2/4 166/2/4 167/2/4
f 167/2/4 166/2/4 168/2/4
f 169/3/4 170/3/4 171/3/4
f 171/3/4 170/3/4 172/3/4
f 173/3/4 174/3/4 175/3/4
f 175/3/4 174/3/4 176/3/4
f 177/1/4 178/1/4 179/1/4
f 179/1/4 178/1/4 180/1/4
f 181/1/4 182/1/4 183/1/4
f 183/1/4 182/1/4 184/1/4
f 187/1/5 186/1/5 185/1/5
f 188/1/5 186/1/5 187/1/5
f 197/2/5 190/2/5 189/2/5
f 198/2/5 192/2/5 191/2/5
f 199/2/5 194/2/5 193/2/5
f 200/2/5 196/2/5 195/2/5
f 201/2/5 197/2/5 189/2/5
f 201/2/5 198/2/5 197/2/5
f 202/2/5 192/2/5 198/2/5
f 202/2/5 198/2/5 201/2/5
f 203/2/5 199/2/5 193/2/5
f 203/2/5 200/2/5 199/2/5
f 204/2/5 196/2/5 200/2/5
f 204/2/5 200/2/5 203/2/5
f 205/1/6 206/1/6 207/1/6
f 207/1/6 206/1/6 208/1/6
f 205/1/6 207/1/6 209/1/6
f 208/1/6 206/1/6 210/1/6
f 205/1/6 209/1/6 211/1/6
f 209/1/6 210/1/6 211/1/6
f 210/1/6 206/1/6 212/1/6
f 211/1/6 210/1/6 212/1/6
f 213/1/6 214/1/6 215/1/6
f 215/1/6 214/1/6 216/1/6
f 213/1/6 215/1/6 217/1/6
f 216/1/6 214/1/6 218/1/6
f 213/1/6 217/1/6 219/1/6
f 217/1/6 218/1/6 219/1/6
f 218/1/6 214/1/6 220/1/6
f 219/1/6 218/1/6 220/1/6
f 221/3/6 222/3/6 223/3/6
f 223/3/6 222/3/6 224/3/6
f 221/3/6 223/3/6 225/3/6
f 224/3/6 222/3/6 226/3/6
f 221/3/6 225/3/6 227/3/6
f 225/3/6 226/3/6 227/3/6
f 226/3/6 222/3/6 228/3/6
f 227/3/6 226/3/6 228/3/6
f 229/3/6 230/3/6 231/3/6
f 231/3/6 230/3/6 232/3/6
f 229/3/6 231/3/6 233/3/6
f 232/3/6 230/3/6 234/3/6
f 229/3/6 233/3/6 235/3/6
f 233/3/6 234/3/6 235/3/6
f 234/3/6 230/3/6 236/3/6
f 235/3/6 234/3/6 236/3/6
f 237/2/6 238/2/6 245/2/6
f 239/2/6 240/2/6 246/2/6
f 241/2/6 242/2/6 247/2/6
f 243/2/6 244/2/6 248/2/6
f 237/2/6 245/2/6 249/2/6
f 245/2/6 246/2/6 249/2/6
f 246/2/6 240/2/6 250/2/6
f 249/2/6 246/2/6 250/2/6
f 241/2/6 247/2/6 251/2/6
f 247/2/6 248/2/6 251/2/6
f 248/2/6 244/2/6 252/2/6
f 251/2/6 248/2/6 252/2/6
f 253/3/6 254/3/6 255/3/6
f 255/3/6 254/3/6 256/3/6
f 253/3/6 255/3/6 257/3/6
f 256/3/6 254/3/6 258/3/6
f 253/3/6 257/3/6 259/3/6
f 257/3/6 258/3/6 259/3/6
f 258/3/6 254/3/6 260/3/6
f 259/3/6 258/3/6 260/3/6
f 261/3/6 262/3/6 263/3/6
f 263/3/6 262/3/6 264/3/6
f 261/3/6 263/3/6 265/3/6
f 264/3/6 262/3/6 266/3/6
f 261/3/6 265/3/6 267/3/6
f 265/3/6 266/3/6 267/3/6
f 266/3/6 262/3/6 268/3/6
f 267/3/6 266/3/6 268/3/6
f 269/3/6 270/3/6 271/3/6
f 271/3/6 270/3/6 272/3/6
