# MagicaVoxel @ Ephtracy

# group
o 

# material
mtllib iconTurret.mtl
usemtl palette

# normals
vn -1 0 0
vn 1 0 0
vn 0 0 1
vn 0 0 -1
vn 0 -1 0
vn 0 1 0

# texcoords
vt 0.0214844 0.5
vt 0.912109 0.5
vt 0.974609 0.5
vt 0.982422 0.5
vt 0.986328 0.5
vt 0.990234 0.5
vt 0.994141 0.5

# verts
v -1.9 2.1 0.1
v -1.9 2.1 0
v -1.9 2.2 0.1
v -1.9 2.2 0
v -1.8 1.4 0.1
v -1.8 1.4 0
v -1.8 2.1 0.1
v -1.8 2.1 0
v -1.8 2.2 0.1
v -1.8 2.2 0
v -1.8 2.6 0.1
v -1.8 2.6 0
v -1.7 1.3 0.1
v -1.7 1.3 0
v -1.7 1.4 0.1
v -1.7 1.4 0
v -1.5 0 0.1
v -1.5 0 0
v -1.5 0.6 0.1
v -1.5 0.6 0
v -1.2 2 0.1
v -1.2 2 0
v -1.2 2.1 0.1
v -1.2 2.1 0
v -1 0.6 0.1
v -1 0.6 0
v -1 0.9 0.1
v -1 0.9 0
v -0.9 1.7 0.1
v -0.9 1.7 0
v -0.9 2 0.1
v -0.9 2 0
v -0.9 2.2 0.1
v -0.9 2.2 0
v -0.9 2.4 0.1
v -0.9 2.4 0
v -0.3 0.9 0.1
v -0.3 0.9 0
v -0.3 1.7 0.1
v -0.3 1.7 0
v -1.7 2.5 0.1
v -1.7 2.5 0
v -1.7 2.6 0.1
v -1.7 2.6 0
v -1.6 1.3 0.1
v -1.6 1.3 0
v -1.6 2.1 0.1
v -1.6 2.1 0
v -1.6 2.2 0.1
v -1.6 2.2 0
v -1.6 2.5 0.1
v -1.6 2.5 0
v 0.3 0.9 0.1
v 0.3 0.9 0
v 0.3 1.7 0.1
v 0.3 1.7 0
v 0.9 1.7 0.1
v 0.9 1.7 0
v 0.9 2.2 0.1
v 0.9 2.2 0
v 0.9 2.4 0.1
v 0.9 2.4 0
v 1 0.6 0.1
v 1 0.6 0
v 1 0.9 0.1
v 1 0.9 0
v 1.5 0 0.1
v 1.5 0 0
v 1.5 0.6 0.1
v 1.5 0.6 0
v -1.9 2.1 0.1
v -1.9 2.2 0.1
v -1.8 1.4 0.1
v -1.8 2.1 0.1
v -1.8 2.2 0.1
v -1.8 2.6 0.1
v -1.7 1.3 0.1
v -1.7 1.4 0.1
v -1.7 2.5 0.1
v -1.7 2.6 0.1
v -1.6 1.3 0.1
v -1.6 2.1 0.1
v -1.6 2.2 0.1
v -1.6 2.5 0.1
v -1.5 0 0.1
v -1.5 0.6 0.1
v -1.2 2 0.1
v -1.2 2.1 0.1
v -1 0.6 0.1
v -1 0.9 0.1
v -0.9 1.7 0.1
v -0.9 2 0.1
v -0.9 2.1 0.1
v -0.9 2.2 0.1
v -0.9 2.4 0.1
v -0.3 0.9 0.1
v -0.3 1.7 0.1
v -0.2 1.7 0.1
v -0.2 2.2 0.1
v 0.3 0.9 0.1
v 0.3 1.7 0.1
v 0.6 2.2 0.1
v 0.6 2.3 0.1
v 0.8 2.2 0.1
v 0.8 2.3 0.1
v 0.9 1.7 0.1
v 0.9 2.2 0.1
v 0.9 2.4 0.1
v 1 0.6 0.1
v 1 0.9 0.1
v 1.5 0 0.1
v 1.5 0.6 0.1
v -1.9 2.1 0
v -1.9 2.2 0
v -1.8 1.4 0
v -1.8 2.1 0
v -1.8 2.2 0
v -1.8 2.6 0
v -1.7 1.3 0
v -1.7 1.4 0
v -1.7 2.5 0
v -1.7 2.6 0
v -1.6 1.3 0
v -1.6 2.1 0
v -1.6 2.2 0
v -1.6 2.5 0
v -1.5 0 0
v -1.5 0.6 0
v -1.2 2 0
v -1.2 2.1 0
v -1 0.6 0
v -1 0.9 0
v -0.9 1.7 0
v -0.9 2 0
v -0.9 2.1 0
v -0.9 2.2 0
v -0.9 2.4 0
v -0.3 0.9 0
v -0.3 1.7 0
v -0.2 1.7 0
v -0.2 2.2 0
v 0.3 0.9 0
v 0.3 1.7 0
v 0.6 2.2 0
v 0.6 2.3 0
v 0.8 2.2 0
v 0.8 2.3 0
v 0.9 1.7 0
v 0.9 2.2 0
v 0.9 2.4 0
v 1 0.6 0
v 1 0.9 0
v 1.5 0 0
v 1.5 0.6 0
v -1.5 0 0.1
v 1.5 0 0.1
v -1.5 0 0
v 1.5 0 0
v -1.7 1.3 0.1
v -1.6 1.3 0.1
v -1.7 1.3 0
v -1.6 1.3 0
v -1.8 1.4 0.1
v -1.7 1.4 0.1
v -1.8 1.4 0
v -1.7 1.4 0
v -0.9 1.7 0.1
v -0.3 1.7 0.1
v 0.3 1.7 0.1
v 0.9 1.7 0.1
v -0.9 1.7 0
v -0.3 1.7 0
v 0.3 1.7 0
v 0.9 1.7 0
v -1.2 2 0.1
v -0.9 2 0.1
v -1.2 2 0
v -0.9 2 0
v -1.9 2.1 0.1
v -1.8 2.1 0.1
v -1.6 2.1 0.1
v -1.2 2.1 0.1
v -1.9 2.1 0
v -1.8 2.1 0
v -1.6 2.1 0
v -1.2 2.1 0
v -1.5 0.6 0.1
v -1 0.6 0.1
v 1 0.6 0.1
v 1.5 0.6 0.1
v -1.5 0.6 0
v -1 0.6 0
v 1 0.6 0
v 1.5 0.6 0
v -1 0.9 0.1
v -0.3 0.9 0.1
v 0.3 0.9 0.1
v 1 0.9 0.1
v -1 0.9 0
v -0.3 0.9 0
v 0.3 0.9 0
v 1 0.9 0
v -1.9 2.2 0.1
v -1.8 2.2 0.1
v -1.6 2.2 0.1
v -0.9 2.2 0.1
v -1.9 2.2 0
v -1.8 2.2 0
v -1.6 2.2 0
v -0.9 2.2 0
v -0.9 2.4 0.1
v 0.9 2.4 0.1
v -0.9 2.4 0
v 0.9 2.4 0
v -1.7 2.5 0.1
v -1.6 2.5 0.1
v -1.7 2.5 0
v -1.6 2.5 0
v -1.8 2.6 0.1
v -1.7 2.6 0.1
v -1.8 2.6 0
v -1.7 2.6 0

# faces
f 3/6/1 2/6/1 1/6/1
f 4/6/1 2/6/1 3/6/1
f 7/3/1 6/3/1 5/3/1
f 8/3/1 6/3/1 7/3/1
f 11/3/1 10/3/1 9/3/1
f 12/3/1 10/3/1 11/3/1
f 15/3/1 14/3/1 13/3/1
f 16/3/1 14/3/1 15/3/1
f 19/7/1 18/7/1 17/7/1
f 20/7/1 18/7/1 19/7/1
f 23/7/1 22/7/1 21/7/1
f 24/7/1 22/7/1 23/7/1
f 27/5/1 26/5/1 25/5/1
f 28/5/1 26/5/1 27/5/1
f 31/6/1 30/6/1 29/6/1
f 32/6/1 30/6/1 31/6/1
f 35/6/1 34/6/1 33/6/1
f 36/6/1 34/6/1 35/6/1
f 39/4/1 38/4/1 37/4/1
f 40/4/1 38/4/1 39/4/1
f 41/3/2 42/3/2 43/3/2
f 43/3/2 42/3/2 44/3/2
f 45/3/2 46/3/2 47/3/2
f 47/3/2 46/3/2 48/3/2
f 49/3/2 50/3/2 51/3/2
f 51/3/2 50/3/2 52/3/2
f 53/4/2 54/4/2 55/4/2
f 55/4/2 54/4/2 56/4/2
f 57/2/2 58/2/2 59/2/2
f 59/2/2 58/2/2 60/2/2
f 59/6/2 60/6/2 61/6/2
f 61/6/2 60/6/2 62/6/2
f 63/5/2 64/5/2 65/5/2
f 65/5/2 64/5/2 66/5/2
f 67/7/2 68/7/2 69/7/2
f 69/7/2 68/7/2 70/7/2
f 74/6/3 72/6/3 71/6/3
f 75/6/3 72/6/3 74/6/3
f 78/3/3 74/3/3 73/3/3
f 78/3/3 76/3/3 75/3/3
f 78/3/3 75/3/3 74/3/3
f 79/3/3 76/3/3 78/3/3
f 80/3/3 76/3/3 79/3/3
f 81/3/3 78/3/3 77/3/3
f 81/3/3 79/3/3 78/3/3
f 82/3/3 79/3/3 81/3/3
f 83/3/3 79/3/3 82/3/3
f 84/3/3 79/3/3 83/3/3
f 88/6/3 83/6/3 82/6/3
f 89/7/3 86/7/3 85/7/3
f 92/7/3 88/7/3 87/7/3
f 93/6/3 83/6/3 88/6/3
f 93/7/3 88/7/3 92/7/3
f 94/6/3 83/6/3 93/6/3
f 96/5/3 90/5/3 89/5/3
f 97/6/3 95/6/3 94/6/3
f 97/6/3 92/6/3 91/6/3
f 97/6/3 94/6/3 93/6/3
f 97/6/3 93/6/3 92/6/3
f 98/6/3 95/6/3 97/6/3
f 98/4/3 97/4/3 96/4/3
f 99/6/3 95/6/3 98/6/3
f 100/5/3 96/5/3 89/5/3
f 100/4/3 98/4/3 96/4/3
f 101/2/3 99/2/3 98/2/3
f 101/4/3 98/4/3 100/4/3
f 102/6/3 95/6/3 99/6/3
f 102/2/3 99/2/3 101/2/3
f 103/6/3 95/6/3 102/6/3
f 104/2/3 102/2/3 101/2/3
f 104/1/3 103/1/3 102/1/3
f 105/6/3 95/6/3 103/6/3
f 105/1/3 103/1/3 104/1/3
f 106/2/3 104/2/3 101/2/3
f 107/6/3 105/6/3 104/6/3
f 107/2/3 104/2/3 106/2/3
f 108/6/3 95/6/3 105/6/3
f 108/6/3 105/6/3 107/6/3
f 109/5/3 100/5/3 89/5/3
f 109/7/3 89/7/3 85/7/3
f 110/5/3 100/5/3 109/5/3
f 111/7/3 109/7/3 85/7/3
f 112/7/3 109/7/3 111/7/3
f 113/6/4 114/6/4 116/6/4
f 116/6/4 114/6/4 117/6/4
f 115/3/4 116/3/4 120/3/4
f 117/3/4 118/3/4 120/3/4
f 116/3/4 117/3/4 120/3/4
f 120/3/4 118/3/4 121/3/4
f 121/3/4 118/3/4 122/3/4
f 119/3/4 120/3/4 123/3/4
f 120/3/4 121/3/4 123/3/4
f 123/3/4 121/3/4 124/3/4
f 124/3/4 121/3/4 125/3/4
f 125/3/4 121/3/4 126/3/4
f 124/6/4 125/6/4 130/6/4
f 127/7/4 128/7/4 131/7/4
f 129/7/4 130/7/4 134/7/4
f 130/6/4 125/6/4 135/6/4
f 134/7/4 130/7/4 135/7/4
f 135/6/4 125/6/4 136/6/4
f 131/5/4 132/5/4 138/5/4
f 136/6/4 137/6/4 139/6/4
f 133/6/4 134/6/4 139/6/4
f 135/6/4 136/6/4 139/6/4
f 134/6/4 135/6/4 139/6/4
f 139/6/4 137/6/4 140/6/4
f 138/4/4 139/4/4 140/4/4
f 140/6/4 137/6/4 141/6/4
f 131/5/4 138/5/4 142/5/4
f 138/4/4 140/4/4 142/4/4
f 140/2/4 141/2/4 143/2/4
f 142/4/4 140/4/4 143/4/4
f 141/6/4 137/6/4 144/6/4
f 143/2/4 141/2/4 144/2/4
f 144/6/4 137/6/4 145/6/4
f 143/2/4 144/2/4 146/2/4
f 144/1/4 145/1/4 146/1/4
f 145/6/4 137/6/4 147/6/4
f 146/1/4 145/1/4 147/1/4
f 143/2/4 146/2/4 148/2/4
f 146/6/4 147/6/4 149/6/4
f 148/2/4 146/2/4 149/2/4
f 147/6/4 137/6/4 150/6/4
f 149/6/4 147/6/4 150/6/4
f 131/5/4 142/5/4 151/5/4
f 127/7/4 131/7/4 151/7/4
f 151/5/4 142/5/4 152/5/4
f 127/7/4 151/7/4 153/7/4
f 153/7/4 151/7/4 154/7/4
f 157/7/5 156/7/5 155/7/5
f 158/7/5 156/7/5 157/7/5
f 161/3/5 160/3/5 159/3/5
f 162/3/5 160/3/5 161/3/5
f 165/3/5 164/3/5 163/3/5
f 166/3/5 164/3/5 165/3/5
f 171/6/5 168/6/5 167/6/5
f 172/6/5 168/6/5 171/6/5
f 173/2/5 170/2/5 169/2/5
f 174/2/5 170/2/5 173/2/5
f 177/7/5 176/7/5 175/7/5
f 178/7/5 176/7/5 177/7/5
f 183/6/5 180/6/5 179/6/5
f 184/6/5 180/6/5 183/6/5
f 185/6/5 182/6/5 181/6/5
f 186/6/5 182/6/5 185/6/5
f 187/7/6 188/7/6 191/7/6
f 191/7/6 188/7/6 192/7/6
f 189/7/6 190/7/6 193/7/6
f 193/7/6 190/7/6 194/7/6
f 195/5/6 196/5/6 199/5/6
f 199/5/6 196/5/6 200/5/6
f 197/5/6 198/5/6 201/5/6
f 201/5/6 198/5/6 202/5/6
f 203/6/6 204/6/6 207/6/6
f 207/6/6 204/6/6 208/6/6
f 205/6/6 206/6/6 209/6/6
f 209/6/6 206/6/6 210/6/6
f 211/6/6 212/6/6 213/6/6
f 213/6/6 212/6/6 214/6/6
f 215/3/6 216/3/6 217/3/6
f 217/3/6 216/3/6 218/3/6
f 219/3/6 220/3/6 221/3/6
f 221/3/6 220/3/6 222/3/6
