# MagicaVoxel @ Ephtracy

# group
o 

# material
mtllib MedBagIconPlus.mtl
usemtl palette

# normals
vn -1 0 0
vn 1 0 0
vn 0 0 1
vn 0 0 -1
vn 0 -1 0
vn 0 1 0

# texcoords
vt 0.865234 0.5
vt 0.904297 0.5
vt 0.970703 0.5

# verts
v -2 0 0
v -2 0 -0.1
v -2 2.6 0
v -2 2.6 -0.1
v -1.1 2.6 0
v -1.1 2.6 -0.1
v -1.1 3.2 0
v -1.1 3.2 -0.1
v 0.9 2.6 0
v 0.9 2.6 -0.1
v 0.9 3 0
v 0.9 3 -0.1
v 1.2 2.5 0.1
v 1.2 2.5 0
v 1.2 2.6 0
v 1.2 2.8 0.1
v 1.2 2.8 0
v 1.4 2.3 0.1
v 1.4 2.3 0
v 1.4 2.5 0.1
v 1.4 2.5 0
v 1.4 2.8 0.1
v 1.4 2.8 0
v 1.4 3 0.1
v 1.4 3 0
v -0.9 2.6 0
v -0.9 2.6 -0.1
v -0.9 3 0
v -0.9 3 -0.1
v 1.1 2.6 0
v 1.1 2.6 -0.1
v 1.1 3.2 0
v 1.1 3.2 -0.1
v 1.8 2.3 0.1
v 1.8 2.3 0
v 1.8 2.5 0.1
v 1.8 2.5 0
v 1.8 2.8 0.1
v 1.8 2.8 0
v 1.8 3 0.1
v 1.8 3 0
v 2 0 0
v 2 0 -0.1
v 2 2.5 0.1
v 2 2.5 0
v 2 2.6 0
v 2 2.6 -0.1
v 2 2.8 0.1
v 2 2.8 0
v 1.2 2.5 0.1
v 1.2 2.8 0.1
v 1.4 2.3 0.1
v 1.4 2.5 0.1
v 1.4 2.8 0.1
v 1.4 3 0.1
v 1.8 2.3 0.1
v 1.8 2.5 0.1
v 1.8 2.8 0.1
v 1.8 3 0.1
v 2 2.5 0.1
v 2 2.8 0.1
v -2 0 0
v -2 2.6 0
v -1.1 2.6 0
v -1.1 3.2 0
v -0.9 2.6 0
v -0.9 3 0
v -0.8 1.1 0
v -0.8 1.6 0
v -0.3 0.6 0
v -0.3 1.1 0
v -0.3 1.6 0
v -0.3 2.1 0
v 0.3 0.6 0
v 0.3 1.1 0
v 0.3 1.6 0
v 0.3 2.1 0
v 0.8 1.1 0
v 0.8 1.6 0
v 0.9 2.6 0
v 0.9 3 0
v 1.1 2.6 0
v 1.1 3.2 0
v 1.2 2.5 0
v 1.2 2.6 0
v 1.4 2.3 0
v 1.4 2.5 0
v 1.8 2.3 0
v 1.8 2.5 0
v 2 0 0
v 2 2.5 0
v 1.2 2.6 0
v 1.2 2.8 0
v 1.4 2.8 0
v 1.4 3 0
v 1.8 2.8 0
v 1.8 3 0
v 2 2.6 0
v 2 2.8 0
v -2 0 -0.1
v -2 2.6 -0.1
v -1.1 2.6 -0.1
v -1.1 3.2 -0.1
v -0.9 2.6 -0.1
v -0.9 3 -0.1
v -0.8 1.1 -0.1
v -0.8 1.6 -0.1
v -0.3 0.6 -0.1
v -0.3 1.1 -0.1
v -0.3 1.6 -0.1
v -0.3 2.1 -0.1
v 0.3 0.6 -0.1
v 0.3 1.1 -0.1
v 0.3 1.6 -0.1
v 0.3 2.1 -0.1
v 0.8 1.1 -0.1
v 0.8 1.6 -0.1
v 0.9 2.6 -0.1
v 0.9 3 -0.1
v 1.1 2.6 -0.1
v 1.1 3.2 -0.1
v 2 0 -0.1
v 2 2.6 -0.1
v -2 0 0
v 2 0 0
v -2 0 -0.1
v 2 0 -0.1
v 1.4 2.3 0.1
v 1.8 2.3 0.1
v 1.4 2.3 0
v 1.8 2.3 0
v 1.2 2.5 0.1
v 1.4 2.5 0.1
v 1.8 2.5 0.1
v 2 2.5 0.1
v 1.2 2.5 0
v 1.4 2.5 0
v 1.8 2.5 0
v 2 2.5 0
v -0.9 3 0
v 0.9 3 0
v -0.9 3 -0.1
v 0.9 3 -0.1
v -2 2.6 0
v -1.1 2.6 0
v -0.9 2.6 0
v 0.9 2.6 0
v 1.1 2.6 0
v 1.2 2.6 0
v 2 2.6 0
v -2 2.6 -0.1
v -1.1 2.6 -0.1
v -0.9 2.6 -0.1
v 0.9 2.6 -0.1
v 1.1 2.6 -0.1
v 2 2.6 -0.1
v 1.2 2.8 0.1
v 1.4 2.8 0.1
v 1.8 2.8 0.1
v 2 2.8 0.1
v 1.2 2.8 0
v 1.4 2.8 0
v 1.8 2.8 0
v 2 2.8 0
v 1.4 3 0.1
v 1.8 3 0.1
v 1.4 3 0
v 1.8 3 0
v -1.1 3.2 0
v 1.1 3.2 0
v -1.1 3.2 -0.1
v 1.1 3.2 -0.1

# faces
f 3/1/1 2/1/1 1/1/1
f 4/1/1 2/1/1 3/1/1
f 7/1/1 6/1/1 5/1/1
f 8/1/1 6/1/1 7/1/1
f 11/1/1 10/1/1 9/1/1
f 12/1/1 10/1/1 11/1/1
f 15/2/1 14/2/1 13/2/1
f 16/2/1 15/2/1 13/2/1
f 17/2/1 15/2/1 16/2/1
f 20/2/1 19/2/1 18/2/1
f 21/2/1 19/2/1 20/2/1
f 24/2/1 23/2/1 22/2/1
f 25/2/1 23/2/1 24/2/1
f 26/1/2 27/1/2 28/1/2
f 28/1/2 27/1/2 29/1/2
f 30/1/2 31/1/2 32/1/2
f 32/1/2 31/1/2 33/1/2
f 34/2/2 35/2/2 36/2/2
f 36/2/2 35/2/2 37/2/2
f 38/2/2 39/2/2 40/2/2
f 40/2/2 39/2/2 41/2/2
f 42/1/2 43/1/2 45/1/2
f 45/1/2 43/1/2 46/1/2
f 44/2/2 45/2/2 46/2/2
f 46/1/2 43/1/2 47/1/2
f 44/2/2 46/2/2 48/2/2
f 48/2/2 46/2/2 49/2/2
f 53/2/3 51/2/3 50/2/3
f 54/2/3 51/2/3 53/2/3
f 56/2/3 53/2/3 52/2/3
f 56/2/3 55/2/3 54/2/3
f 56/2/3 54/2/3 53/2/3
f 57/2/3 55/2/3 56/2/3
f 58/2/3 55/2/3 57/2/3
f 59/2/3 55/2/3 58/2/3
f 60/2/3 58/2/3 57/2/3
f 61/2/3 58/2/3 60/2/3
f 64/1/3 63/1/3 62/1/3
f 66/1/3 64/1/3 62/1/3
f 66/1/3 65/1/3 64/1/3
f 67/1/3 65/1/3 66/1/3
f 68/1/3 66/1/3 62/1/3
f 69/1/3 66/1/3 68/1/3
f 70/1/3 68/1/3 62/1/3
f 71/3/3 69/3/3 68/3/3
f 71/1/3 68/1/3 70/1/3
f 72/1/3 66/1/3 69/1/3
f 72/3/3 69/3/3 71/3/3
f 73/1/3 66/1/3 72/1/3
f 74/3/3 71/3/3 70/3/3
f 74/1/3 70/1/3 62/1/3
f 74/3/3 73/3/3 72/3/3
f 74/3/3 72/3/3 71/3/3
f 75/3/3 73/3/3 74/3/3
f 76/3/3 73/3/3 75/3/3
f 77/1/3 66/1/3 73/1/3
f 77/3/3 73/3/3 76/3/3
f 78/3/3 76/3/3 75/3/3
f 78/1/3 75/1/3 74/1/3
f 79/1/3 77/1/3 76/1/3
f 79/3/3 76/3/3 78/3/3
f 80/1/3 66/1/3 77/1/3
f 80/1/3 77/1/3 79/1/3
f 80/1/3 79/1/3 78/1/3
f 81/1/3 65/1/3 67/1/3
f 82/1/3 80/1/3 78/1/3
f 82/1/3 81/1/3 80/1/3
f 83/1/3 65/1/3 81/1/3
f 83/1/3 81/1/3 82/1/3
f 84/1/3 82/1/3 78/1/3
f 85/1/3 82/1/3 84/1/3
f 86/1/3 84/1/3 78/1/3
f 87/1/3 84/1/3 86/1/3
f 88/1/3 86/1/3 78/1/3
f 90/1/3 78/1/3 74/1/3
f 90/1/3 89/1/3 88/1/3
f 90/1/3 88/1/3 78/1/3
f 90/1/3 74/1/3 62/1/3
f 91/1/3 89/1/3 90/1/3
f 92/2/4 93/2/4 94/2/4
f 92/2/4 94/2/4 96/2/4
f 94/2/4 95/2/4 96/2/4
f 96/2/4 95/2/4 97/2/4
f 92/2/4 96/2/4 98/2/4
f 98/2/4 96/2/4 99/2/4
f 100/1/4 101/1/4 102/1/4
f 100/1/4 102/1/4 104/1/4
f 102/1/4 103/1/4 104/1/4
f 104/1/4 103/1/4 105/1/4
f 100/1/4 104/1/4 106/1/4
f 106/1/4 104/1/4 107/1/4
f 100/1/4 106/1/4 108/1/4
f 106/3/4 107/3/4 109/3/4
f 108/1/4 106/1/4 109/1/4
f 107/1/4 104/1/4 110/1/4
f 109/3/4 107/3/4 110/3/4
f 110/1/4 104/1/4 111/1/4
f 108/3/4 109/3/4 112/3/4
f 100/1/4 108/1/4 112/1/4
f 110/3/4 111/3/4 112/3/4
f 109/3/4 110/3/4 112/3/4
f 112/3/4 111/3/4 113/3/4
f 113/3/4 111/3/4 114/3/4
f 111/1/4 104/1/4 115/1/4
f 114/3/4 111/3/4 115/3/4
f 113/3/4 114/3/4 116/3/4
f 112/1/4 113/1/4 116/1/4
f 114/1/4 115/1/4 117/1/4
f 116/3/4 114/3/4 117/3/4
f 115/1/4 104/1/4 118/1/4
f 117/1/4 115/1/4 118/1/4
f 116/1/4 117/1/4 118/1/4
f 105/1/4 103/1/4 119/1/4
f 116/1/4 118/1/4 120/1/4
f 118/1/4 119/1/4 120/1/4
f 119/1/4 103/1/4 121/1/4
f 120/1/4 119/1/4 121/1/4
f 116/1/4 120/1/4 122/1/4
f 112/1/4 116/1/4 122/1/4
f 100/1/4 112/1/4 122/1/4
f 122/1/4 120/1/4 123/1/4
f 126/1/5 125/1/5 124/1/5
f 127/1/5 125/1/5 126/1/5
f 130/2/5 129/2/5 128/2/5
f 131/2/5 129/2/5 130/2/5
f 136/2/5 133/2/5 132/2/5
f 137/2/5 133/2/5 136/2/5
f 138/2/5 135/2/5 134/2/5
f 139/2/5 135/2/5 138/2/5
f 142/1/5 141/1/5 140/1/5
f 143/1/5 141/1/5 142/1/5
f 144/1/6 145/1/6 151/1/6
f 151/1/6 145/1/6 152/1/6
f 146/1/6 147/1/6 153/1/6
f 153/1/6 147/1/6 154/1/6
f 149/1/6 150/1/6 155/1/6
f 148/1/6 149/1/6 155/1/6
f 155/1/6 150/1/6 156/1/6
f 157/2/6 158/2/6 161/2/6
f 161/2/6 158/2/6 162/2/6
f 159/2/6 160/2/6 163/2/6
f 163/2/6 160/2/6 164/2/6
f 165/2/6 166/2/6 167/2/6
f 167/2/6 166/2/6 168/2/6
f 169/1/6 170/1/6 171/1/6
f 171/1/6 170/1/6 172/1/6
