# MagicaVoxel @ Ephtracy

# group
o 

# material
mtllib PPIcon.mtl
usemtl palette

# normals
vn -1 0 0
vn 1 0 0
vn 0 0 1
vn 0 0 -1
vn 0 -1 0
vn 0 1 0

# texcoords
vt 0.373047 0.5
vt 0.982422 0.5
vt 0.990234 0.5
vt 0.994141 0.5

# verts
v -6.8 -3.6 1.3
v -6.8 -3.6 1.2
v -6.8 -1.6 1.3
v -6.8 -1.6 1.2
v -6.4 -1.6 1.3
v -6.4 -1.6 1.2
v -6.4 -1.2 1.3
v -6.4 -1.2 1.2
v -6 -3.8 1.3
v -6 -3.8 1.2
v -6 -2.8 1.3
v -6 -2.8 1.2
v -6 -1.2 1.3
v -6 -1.2 1.2
v -6 -0.9 1.3
v -6 -0.9 1.2
v -3.2 -3.9 1.3
v -3.2 -3.9 1.2
v -3.2 -3.2 1.3
v -3.2 -3.2 1.2
v -3.1 -3.2 1.3
v -3.1 -3.2 1.2
v -3.1 -2.9 1.3
v -3.1 -2.9 1.2
v -3 -2.9 1.3
v -3 -2.9 1.2
v -3 -2.8 1.3
v -3 -2.8 1.2
v -2.9 -2.8 1.3
v -2.9 -2.8 1.2
v -2.9 -2.7 1.3
v -2.9 -2.7 1.2
v -2.8 -2.7 1.3
v -2.8 -2.7 1.2
v -2.8 -2.4 1.3
v -2.8 -2.4 1.2
v -2.1 -3.1 1.3
v -2.1 -3.1 1.2
v -2.1 -3 1.3
v -2.1 -3 1.2
v -2 -3 1.3
v -2 -3 1.2
v -2 -2.9 1.3
v -2 -2.9 1.2
v -1.9 -2.9 1.3
v -1.9 -2.9 1.2
v -1.9 -2.8 1.3
v -1.9 -2.8 1.2
v -1.7 -3.2 1.3
v -1.7 -3.2 1.2
v -1.7 -2.4 1.3
v -1.7 -2.4 1.2
v 1.3 -1.2 1.3
v 1.3 -1.2 1.2
v 1.3 -0.9 1.3
v 1.3 -0.9 1.2
v -6.4 -3.6 1.3
v -6.4 -3.6 1.2
v -6.4 -2.8 1.3
v -6.4 -2.8 1.2
v -5.7 -1.2 1.3
v -5.7 -1.2 1.2
v -5.7 -0.9 1.3
v -5.7 -0.9 1.2
v -4.4 -3.8 1.3
v -4.4 -3.8 1.2
v -4.4 -2.4 1.3
v -4.4 -2.4 1.2
v -2.8 -3.9 1.3
v -2.8 -3.9 1.2
v -2.8 -3.8 1.3
v -2.8 -3.8 1.2
v -2.7 -3.8 1.3
v -2.7 -3.8 1.2
v -2.7 -3.7 1.3
v -2.7 -3.7 1.2
v -2.6 -3.7 1.3
v -2.6 -3.7 1.2
v -2.6 -3.6 1.3
v -2.6 -3.6 1.2
v -2.5 -3.6 1.3
v -2.5 -3.6 1.2
v -2.5 -3.5 1.3
v -2.5 -3.5 1.2
v -2.4 -3.5 1.3
v -2.4 -3.5 1.2
v -2.4 -3.3 1.3
v -2.4 -3.3 1.2
v -2.4 -3.2 1.3
v -2.4 -3.2 1.2
v -2.4 -2.8 1.3
v -2.4 -2.8 1.2
v -2 -3.1 1.3
v -2 -3.1 1.2
v -2 -3 1.3
v -2 -3 1.2
v -1.9 -3 1.3
v -1.9 -3 1.2
v -1.9 -2.9 1.3
v -1.9 -2.9 1.2
v -1.8 -2.9 1.3
v -1.8 -2.9 1.2
v -1.8 -2.4 1.3
v -1.8 -2.4 1.2
v -1.6 -3.3 1.3
v -1.6 -3.3 1.2
v -1.6 -2.4 1.3
v -1.6 -2.4 1.2
v 1.6 -1.6 1.3
v 1.6 -1.6 1.2
v 1.6 -0.9 1.3
v 1.6 -0.9 1.2
v 7.2 -2.4 1.3
v 7.2 -2.4 1.2
v 7.2 -1.6 1.3
v 7.2 -1.6 1.2
v -6.8 -3.6 1.3
v -6.8 -1.6 1.3
v -6.4 -3.6 1.3
v -6.4 -2.8 1.3
v -6.4 -1.6 1.3
v -6.4 -1.2 1.3
v -6 -3.8 1.3
v -6 -2.8 1.3
v -6 -1.2 1.3
v -6 -0.9 1.3
v -5.9 -1.2 1.3
v -5.9 -1 1.3
v -5.8 -1.2 1.3
v -5.8 -1 1.3
v -5.7 -1.2 1.3
v -5.7 -0.9 1.3
v -4.4 -3.8 1.3
v -4.4 -2.4 1.3
v -3.2 -3.9 1.3
v -3.2 -3.2 1.3
v -3.1 -3.2 1.3
v -3.1 -2.9 1.3
v -3 -2.9 1.3
v -3 -2.8 1.3
v -2.9 -2.8 1.3
v -2.9 -2.7 1.3
v -2.8 -3.9 1.3
v -2.8 -3.8 1.3
v -2.8 -2.7 1.3
v -2.8 -2.4 1.3
v -2.7 -3.8 1.3
v -2.7 -3.7 1.3
v -2.6 -3.7 1.3
v -2.6 -3.6 1.3
v -2.5 -3.6 1.3
v -2.5 -3.5 1.3
v -2.5 -3.3 1.3
v -2.5 -3.2 1.3
v -2.4 -3.5 1.3
v -2.4 -3.3 1.3
v -2.4 -3.2 1.3
v -2.4 -2.8 1.3
v -2.1 -3.1 1.3
v -2.1 -3 1.3
v -2 -3.1 1.3
v -2 -3 1.3
v -2 -2.9 1.3
v -2 -2.8 1.3
v -2 -2.4 1.3
v -1.9 -3 1.3
v -1.9 -2.9 1.3
v -1.9 -2.8 1.3
v -1.8 -2.9 1.3
v -1.8 -2.4 1.3
v -1.7 -3.2 1.3
v -1.7 -2.4 1.3
v -1.6 -3.3 1.3
v -1.6 -2.4 1.3
v -0.4 -2.4 1.3
v -0.4 -2.1 1.3
v 1.3 -2.4 1.3
v 1.3 -2.1 1.3
v 1.3 -1.2 1.3
v 1.3 -0.9 1.3
v 1.6 -1.6 1.3
v 1.6 -0.9 1.3
v 7.2 -2.4 1.3
v 7.2 -1.6 1.3
v -6.8 -3.6 1.2
v -6.8 -1.6 1.2
v -6.4 -3.6 1.2
v -6.4 -2.8 1.2
v -6.4 -1.6 1.2
v -6.4 -1.2 1.2
v -6 -3.8 1.2
v -6 -2.8 1.2
v -6 -1.2 1.2
v -6 -0.9 1.2
v -5.9 -1.2 1.2
v -5.9 -1 1.2
v -5.8 -1.2 1.2
v -5.8 -1 1.2
v -5.7 -1.2 1.2
v -5.7 -0.9 1.2
v -4.4 -3.8 1.2
v -4.4 -2.4 1.2
v -3.2 -3.9 1.2
v -3.2 -3.2 1.2
v -3.1 -3.2 1.2
v -3.1 -2.9 1.2
v -3 -2.9 1.2
v -3 -2.8 1.2
v -2.9 -2.8 1.2
v -2.9 -2.7 1.2
v -2.8 -3.9 1.2
v -2.8 -3.8 1.2
v -2.8 -2.7 1.2
v -2.8 -2.4 1.2
v -2.7 -3.8 1.2
v -2.7 -3.7 1.2
v -2.6 -3.7 1.2
v -2.6 -3.6 1.2
v -2.5 -3.6 1.2
v -2.5 -3.5 1.2
v -2.5 -3.3 1.2
v -2.5 -3.2 1.2
v -2.4 -3.5 1.2
v -2.4 -3.3 1.2
v -2.4 -3.2 1.2
v -2.4 -2.8 1.2
v -2.1 -3.1 1.2
v -2.1 -3 1.2
v -2 -3.1 1.2
v -2 -3 1.2
v -2 -2.9 1.2
v -2 -2.8 1.2
v -2 -2.4 1.2
v -1.9 -3 1.2
v -1.9 -2.9 1.2
v -1.9 -2.8 1.2
v -1.8 -2.9 1.2
v -1.8 -2.4 1.2
v -1.7 -3.2 1.2
v -1.7 -2.4 1.2
v -1.6 -3.3 1.2
v -1.6 -2.4 1.2
v -0.4 -2.4 1.2
v -0.4 -2.1 1.2
v 1.3 -2.4 1.2
v 1.3 -2.1 1.2
v 1.3 -1.2 1.2
v 1.3 -0.9 1.2
v 1.6 -1.6 1.2
v 1.6 -0.9 1.2
v 7.2 -2.4 1.2
v 7.2 -1.6 1.2
v -3.2 -3.9 1.3
v -2.8 -3.9 1.3
v -3.2 -3.9 1.2
v -2.8 -3.9 1.2
v -6 -3.8 1.3
v -4.4 -3.8 1.3
v -2.8 -3.8 1.3
v -2.7 -3.8 1.3
v -6 -3.8 1.2
v -4.4 -3.8 1.2
v -2.8 -3.8 1.2
v -2.7 -3.8 1.2
v -2.7 -3.7 1.3
v -2.6 -3.7 1.3
v -2.7 -3.7 1.2
v -2.6 -3.7 1.2
v -6.8 -3.6 1.3
v -6.4 -3.6 1.3
v -2.6 -3.6 1.3
v -2.5 -3.6 1.3
v -6.8 -3.6 1.2
v -6.4 -3.6 1.2
v -2.6 -3.6 1.2
v -2.5 -3.6 1.2
v -2.5 -3.5 1.3
v -2.4 -3.5 1.3
v -2.5 -3.5 1.2
v -2.4 -3.5 1.2
v -2.4 -3.3 1.3
v -1.6 -3.3 1.3
v -2.4 -3.3 1.2
v -1.6 -3.3 1.2
v -2.1 -3.1 1.3
v -2 -3.1 1.3
v -2.1 -3.1 1.2
v -2 -3.1 1.2
v -2 -3 1.3
v -1.9 -3 1.3
v -2 -3 1.2
v -1.9 -3 1.2
v -1.9 -2.9 1.3
v -1.8 -2.9 1.3
v -1.9 -2.9 1.2
v -1.8 -2.9 1.2
v -6.4 -2.8 1.3
v -6 -2.8 1.3
v -2.4 -2.8 1.3
v -2 -2.8 1.3
v -1.9 -2.8 1.3
v -6.4 -2.8 1.2
v -6 -2.8 1.2
v -2.4 -2.8 1.2
v -2 -2.8 1.2
v -1.9 -2.8 1.2
v -4.4 -2.4 1.3
v -2.8 -2.4 1.3
v -1.8 -2.4 1.3
v -1.7 -2.4 1.3
v -1.6 -2.4 1.3
v -0.4 -2.4 1.3
v 1.3 -2.4 1.3
v 7.2 -2.4 1.3
v -4.4 -2.4 1.2
v -2.8 -2.4 1.2
v -1.8 -2.4 1.2
v -1.7 -2.4 1.2
v -1.6 -2.4 1.2
v -0.4 -2.4 1.2
v 1.3 -2.4 1.2
v 7.2 -2.4 1.2
v -3.2 -3.2 1.3
v -3.1 -3.2 1.3
v -2.4 -3.2 1.3
v -1.7 -3.2 1.3
v -3.2 -3.2 1.2
v -3.1 -3.2 1.2
v -2.4 -3.2 1.2
v -1.7 -3.2 1.2
v -2.1 -3 1.3
v -2 -3 1.3
v -2.1 -3 1.2
v -2 -3 1.2
v -3.1 -2.9 1.3
v -3 -2.9 1.3
v -2 -2.9 1.3
v -1.9 -2.9 1.3
v -3.1 -2.9 1.2
v -3 -2.9 1.2
v -2 -2.9 1.2
v -1.9 -2.9 1.2
v -3 -2.8 1.3
v -2.9 -2.8 1.3
v -3 -2.8 1.2
v -2.9 -2.8 1.2
v -2.9 -2.7 1.3
v -2.8 -2.7 1.3
v -2.9 -2.7 1.2
v -2.8 -2.7 1.2
v -6.8 -1.6 1.3
v -6.4 -1.6 1.3
v 1.6 -1.6 1.3
v 7.2 -1.6 1.3
v -6.8 -1.6 1.2
v -6.4 -1.6 1.2
v 1.6 -1.6 1.2
v 7.2 -1.6 1.2
v -6.4 -1.2 1.3
v -6 -1.2 1.3
v -5.7 -1.2 1.3
v 1.3 -1.2 1.3
v -6.4 -1.2 1.2
v -6 -1.2 1.2
v -5.7 -1.2 1.2
v 1.3 -1.2 1.2
v -6 -0.9 1.3
v -5.7 -0.9 1.3
v 1.3 -0.9 1.3
v 1.6 -0.9 1.3
v -6 -0.9 1.2
v -5.7 -0.9 1.2
v 1.3 -0.9 1.2
v 1.6 -0.9 1.2

# faces
f 3/2/1 2/2/1 1/2/1
f 4/2/1 2/2/1 3/2/1
f 7/2/1 6/2/1 5/2/1
f 8/2/1 6/2/1 7/2/1
f 11/3/1 10/3/1 9/3/1
f 12/3/1 10/3/1 11/3/1
f 15/2/1 14/2/1 13/2/1
f 16/2/1 14/2/1 15/2/1
f 19/4/1 18/4/1 17/4/1
f 20/4/1 18/4/1 19/4/1
f 23/4/1 22/4/1 21/4/1
f 24/4/1 22/4/1 23/4/1
f 27/4/1 26/4/1 25/4/1
f 28/4/1 26/4/1 27/4/1
f 31/4/1 30/4/1 29/4/1
f 32/4/1 30/4/1 31/4/1
f 35/4/1 34/4/1 33/4/1
f 36/4/1 34/4/1 35/4/1
f 39/2/1 38/2/1 37/2/1
f 40/2/1 38/2/1 39/2/1
f 43/2/1 42/2/1 41/2/1
f 44/2/1 42/2/1 43/2/1
f 47/2/1 46/2/1 45/2/1
f 48/2/1 46/2/1 47/2/1
f 51/2/1 50/2/1 49/2/1
f 52/2/1 50/2/1 51/2/1
f 55/3/1 54/3/1 53/3/1
f 56/3/1 54/3/1 55/3/1
f 57/2/2 58/2/2 59/2/2
f 59/2/2 58/2/2 60/2/2
f 61/2/2 62/2/2 63/2/2
f 63/2/2 62/2/2 64/2/2
f 65/3/2 66/3/2 67/3/2
f 67/3/2 66/3/2 68/3/2
f 69/4/2 70/4/2 71/4/2
f 71/4/2 70/4/2 72/4/2
f 73/4/2 74/4/2 75/4/2
f 75/4/2 74/4/2 76/4/2
f 77/4/2 78/4/2 79/4/2
f 79/4/2 78/4/2 80/4/2
f 81/4/2 82/4/2 83/4/2
f 83/4/2 82/4/2 84/4/2
f 85/4/2 86/4/2 87/4/2
f 87/4/2 86/4/2 88/4/2
f 89/4/2 90/4/2 91/4/2
f 91/4/2 90/4/2 92/4/2
f 93/2/2 94/2/2 95/2/2
f 95/2/2 94/2/2 96/2/2
f 97/2/2 98/2/2 99/2/2
f 99/2/2 98/2/2 100/2/2
f 101/2/2 102/2/2 103/2/2
f 103/2/2 102/2/2 104/2/2
f 105/2/2 106/2/2 107/2/2
f 107/2/2 106/2/2 108/2/2
f 109/3/2 110/3/2 111/3/2
f 111/3/2 110/3/2 112/3/2
f 113/3/2 114/3/2 115/3/2
f 115/3/2 114/3/2 116/3/2
f 119/2/3 118/2/3 117/2/3
f 120/2/3 118/2/3 119/2/3
f 121/2/3 118/2/3 120/2/3
f 124/2/3 122/2/3 121/2/3
f 124/2/3 121/2/3 120/2/3
f 125/2/3 122/2/3 124/2/3
f 127/3/3 124/3/3 123/3/3
f 127/2/3 126/2/3 125/2/3
f 127/3/3 125/3/3 124/3/3
f 128/2/3 126/2/3 127/2/3
f 129/3/3 127/3/3 123/3/3
f 129/3/3 128/3/3 127/3/3
f 130/2/3 126/2/3 128/2/3
f 130/3/3 128/3/3 129/3/3
f 131/3/3 129/3/3 123/3/3
f 131/2/3 130/2/3 129/2/3
f 132/2/3 126/2/3 130/2/3
f 132/2/3 130/2/3 131/2/3
f 133/3/3 131/3/3 123/3/3
f 134/3/3 131/3/3 133/3/3
f 137/4/3 136/4/3 135/4/3
f 139/4/3 138/4/3 137/4/3
f 141/4/3 140/4/3 139/4/3
f 143/4/3 137/4/3 135/4/3
f 143/4/3 142/4/3 141/4/3
f 143/4/3 141/4/3 139/4/3
f 143/4/3 139/4/3 137/4/3
f 144/4/3 142/4/3 143/4/3
f 145/4/3 142/4/3 144/4/3
f 146/3/3 131/3/3 134/3/3
f 147/4/3 145/4/3 144/4/3
f 147/4/3 146/4/3 145/4/3
f 148/4/3 146/4/3 147/4/3
f 149/4/3 146/4/3 148/4/3
f 150/4/3 146/4/3 149/4/3
f 151/4/3 146/4/3 150/4/3
f 152/4/3 146/4/3 151/4/3
f 153/4/3 146/4/3 152/4/3
f 154/4/3 146/4/3 153/4/3
f 155/4/3 153/4/3 152/4/3
f 156/3/3 154/3/3 153/3/3
f 156/4/3 153/4/3 155/4/3
f 157/4/3 146/4/3 154/4/3
f 157/3/3 154/3/3 156/3/3
f 158/4/3 146/4/3 157/4/3
f 161/2/3 160/2/3 159/2/3
f 162/2/3 160/2/3 161/2/3
f 164/4/3 146/4/3 158/4/3
f 165/3/3 131/3/3 146/3/3
f 165/4/3 146/4/3 164/4/3
f 166/2/3 163/2/3 162/2/3
f 167/2/3 163/2/3 166/2/3
f 168/2/3 165/2/3 164/2/3
f 169/2/3 168/2/3 167/2/3
f 170/3/3 131/3/3 165/3/3
f 170/2/3 168/2/3 169/2/3
f 170/2/3 165/2/3 168/2/3
f 171/2/3 157/2/3 156/2/3
f 172/3/3 131/3/3 170/3/3
f 173/2/3 171/2/3 156/2/3
f 173/2/3 172/2/3 171/2/3
f 174/3/3 131/3/3 172/3/3
f 174/2/3 172/2/3 173/2/3
f 175/3/3 131/3/3 174/3/3
f 176/3/3 131/3/3 175/3/3
f 177/1/3 176/1/3 175/1/3
f 178/3/3 131/3/3 176/3/3
f 178/1/3 176/1/3 177/1/3
f 179/3/3 131/3/3 178/3/3
f 181/3/3 178/3/3 177/3/3
f 181/3/3 180/3/3 179/3/3
f 181/3/3 179/3/3 178/3/3
f 182/3/3 180/3/3 181/3/3
f 183/3/3 181/3/3 177/3/3
f 184/3/3 181/3/3 183/3/3
f 185/2/4 186/2/4 187/2/4
f 187/2/4 186/2/4 188/2/4
f 188/2/4 186/2/4 189/2/4
f 189/2/4 190/2/4 192/2/4
f 188/2/4 189/2/4 192/2/4
f 192/2/4 190/2/4 193/2/4
f 191/3/4 192/3/4 195/3/4
f 193/2/4 194/2/4 195/2/4
f 192/3/4 193/3/4 195/3/4
f 195/2/4 194/2/4 196/2/4
f 191/3/4 195/3/4 197/3/4
f 195/3/4 196/3/4 197/3/4
f 196/2/4 194/2/4 198/2/4
f 197/3/4 196/3/4 198/3/4
f 191/3/4 197/3/4 199/3/4
f 197/2/4 198/2/4 199/2/4
f 198/2/4 194/2/4 200/2/4
f 199/2/4 198/2/4 200/2/4
f 191/3/4 199/3/4 201/3/4
f 201/3/4 199/3/4 202/3/4
f 203/4/4 204/4/4 205/4/4
f 205/4/4 206/4/4 207/4/4
f 207/4/4 208/4/4 209/4/4
f 203/4/4 205/4/4 211/4/4
f 209/4/4 210/4/4 211/4/4
f 207/4/4 209/4/4 211/4/4
f 205/4/4 207/4/4 211/4/4
f 211/4/4 210/4/4 212/4/4
f 212/4/4 210/4/4 213/4/4
f 202/3/4 199/3/4 214/3/4
f 212/4/4 213/4/4 215/4/4
f 213/4/4 214/4/4 215/4/4
f 215/4/4 214/4/4 216/4/4
f 216/4/4 214/4/4 217/4/4
f 217/4/4 214/4/4 218/4/4
f 218/4/4 214/4/4 219/4/4
f 219/4/4 214/4/4 220/4/4
f 220/4/4 214/4/4 221/4/4
f 221/4/4 214/4/4 222/4/4
f 220/4/4 221/4/4 223/4/4
f 221/3/4 222/3/4 224/3/4
f 223/4/4 221/4/4 224/4/4
f 222/4/4 214/4/4 225/4/4
f 224/3/4 222/3/4 225/3/4
f 225/4/4 214/4/4 226/4/4
f 227/2/4 228/2/4 229/2/4
f 229/2/4 228/2/4 230/2/4
f 226/4/4 214/4/4 232/4/4
f 214/3/4 199/3/4 233/3/4
f 232/4/4 214/4/4 233/4/4
f 230/2/4 231/2/4 234/2/4
f 234/2/4 231/2/4 235/2/4
f 232/2/4 233/2/4 236/2/4
f 235/2/4 236/2/4 237/2/4
f 233/3/4 199/3/4 238/3/4
f 237/2/4 236/2/4 238/2/4
f 236/2/4 233/2/4 238/2/4
f 224/2/4 225/2/4 239/2/4
f 238/3/4 199/3/4 240/3/4
f 224/2/4 239/2/4 241/2/4
f 239/2/4 240/2/4 241/2/4
f 240/3/4 199/3/4 242/3/4
f 241/2/4 240/2/4 242/2/4
f 242/3/4 199/3/4 243/3/4
f 243/3/4 199/3/4 244/3/4
f 243/1/4 244/1/4 245/1/4
f 244/3/4 199/3/4 246/3/4
f 245/1/4 244/1/4 246/1/4
f 246/3/4 199/3/4 247/3/4
f 245/3/4 246/3/4 249/3/4
f 247/3/4 248/3/4 249/3/4
f 246/3/4 247/3/4 249/3/4
f 249/3/4 248/3/4 250/3/4
f 245/3/4 249/3/4 251/3/4
f 251/3/4 249/3/4 252/3/4
f 255/4/5 254/4/5 253/4/5
f 256/4/5 254/4/5 255/4/5
f 261/3/5 258/3/5 257/3/5
f 262/3/5 258/3/5 261/3/5
f 263/4/5 260/4/5 259/4/5
f 264/4/5 260/4/5 263/4/5
f 267/4/5 266/4/5 265/4/5
f 268/4/5 266/4/5 267/4/5
f 273/2/5 270/2/5 269/2/5
f 274/2/5 270/2/5 273/2/5
f 275/4/5 272/4/5 271/4/5
f 276/4/5 272/4/5 275/4/5
f 279/4/5 278/4/5 277/4/5
f 280/4/5 278/4/5 279/4/5
f 283/2/5 282/2/5 281/2/5
f 284/2/5 282/2/5 283/2/5
f 287/2/5 286/2/5 285/2/5
f 288/2/5 286/2/5 287/2/5
f 291/2/5 290/2/5 289/2/5
f 292/2/5 290/2/5 291/2/5
f 295/2/5 294/2/5 293/2/5
f 296/2/5 294/2/5 295/2/5
f 302/2/5 298/2/5 297/2/5
f 303/2/5 298/2/5 302/2/5
f 304/4/5 300/4/5 299/4/5
f 305/2/5 301/2/5 300/2/5
f 305/4/5 300/4/5 304/4/5
f 306/2/5 301/2/5 305/2/5
f 315/3/5 308/3/5 307/3/5
f 316/3/5 308/3/5 315/3/5
f 317/3/5 310/3/5 309/3/5
f 318/3/5 310/3/5 317/3/5
f 319/3/5 312/3/5 311/3/5
f 320/1/5 313/1/5 312/1/5
f 320/3/5 312/3/5 319/3/5
f 321/3/5 314/3/5 313/3/5
f 321/1/5 313/1/5 320/1/5
f 322/3/5 314/3/5 321/3/5
f 323/4/6 324/4/6 327/4/6
f 327/4/6 324/4/6 328/4/6
f 325/2/6 326/2/6 329/2/6
f 329/2/6 326/2/6 330/2/6
f 331/2/6 332/2/6 333/2/6
f 333/2/6 332/2/6 334/2/6
f 335/4/6 336/4/6 339/4/6
f 339/4/6 336/4/6 340/4/6
f 337/2/6 338/2/6 341/2/6
f 341/2/6 338/2/6 342/2/6
f 343/4/6 344/4/6 345/4/6
f 345/4/6 344/4/6 346/4/6
f 347/4/6 348/4/6 349/4/6
f 349/4/6 348/4/6 350/4/6
f 351/2/6 352/2/6 355/2/6
f 355/2/6 352/2/6 356/2/6
f 353/3/6 354/3/6 357/3/6
f 357/3/6 354/3/6 358/3/6
f 359/2/6 360/2/6 363/2/6
f 363/2/6 360/2/6 364/2/6
f 361/3/6 362/3/6 365/3/6
f 365/3/6 362/3/6 366/3/6
f 367/2/6 368/2/6 371/2/6
f 371/2/6 368/2/6 372/2/6
f 369/3/6 370/3/6 373/3/6
f 373/3/6 370/3/6 374/3/6
