# MagicaVoxel @ Ephtracy

# group
o 

# material
mtllib PPIconPlus.mtl
usemtl palette

# normals
vn -1 0 0
vn 1 0 0
vn 0 0 1
vn 0 0 -1
vn 0 -1 0
vn 0 1 0

# texcoords
vt 0.373047 0.5
vt 0.853516 0.5
vt 0.982422 0.5
vt 0.990234 0.5
vt 0.994141 0.5

# verts
v -6.8 -3.6 1.3
v -6.8 -3.6 1.2
v -6.8 -1.6 1.3
v -6.8 -1.6 1.2
v -6.4 -1.6 1.3
v -6.4 -1.6 1.2
v -6.4 -1.2 1.3
v -6.4 -1.2 1.2
v -6.1 -1.5 1.2
v -6.1 -1.5 1.1
v -6.1 -1.2 1.2
v -6.1 -1.2 1.1
v -6 -3.8 1.3
v -6 -3.8 1.2
v -6 -2.8 1.3
v -6 -2.8 1.2
v -6 -1.2 1.3
v -6 -1.2 1.2
v -6 -0.9 1.3
v -6 -0.9 1.2
v -5.8 -1.8 1.2
v -5.8 -1.8 1.1
v -5.8 -1.5 1.2
v -5.8 -1.5 1.1
v -5.8 -1.2 1.2
v -5.8 -1.2 1.1
v -5.8 -1 1.2
v -5.8 -0.9 1.2
v -5.8 -0.9 1.1
v -3.2 -3.9 1.3
v -3.2 -3.9 1.2
v -3.2 -3.2 1.3
v -3.2 -3.2 1.2
v -3.1 -3.2 1.3
v -3.1 -3.2 1.2
v -3.1 -2.9 1.3
v -3.1 -2.9 1.2
v -3 -2.9 1.3
v -3 -2.9 1.2
v -3 -2.8 1.3
v -3 -2.8 1.2
v -2.9 -2.8 1.3
v -2.9 -2.8 1.2
v -2.9 -2.7 1.3
v -2.9 -2.7 1.2
v -2.8 -2.7 1.3
v -2.8 -2.7 1.2
v -2.8 -2.4 1.3
v -2.8 -2.4 1.2
v -2.1 -3.1 1.3
v -2.1 -3.1 1.2
v -2.1 -3 1.3
v -2.1 -3 1.2
v -2 -3 1.3
v -2 -3 1.2
v -2 -2.9 1.3
v -2 -2.9 1.2
v -1.9 -2.9 1.3
v -1.9 -2.9 1.2
v -1.9 -2.8 1.3
v -1.9 -2.8 1.2
v -1.7 -3.2 1.3
v -1.7 -3.2 1.2
v -1.7 -2.4 1.3
v -1.7 -2.4 1.2
v 1.3 -1.2 1.3
v 1.3 -1.2 1.2
v 1.3 -0.9 1.3
v 1.3 -0.9 1.2
v -6.4 -3.6 1.3
v -6.4 -3.6 1.2
v -6.4 -2.8 1.3
v -6.4 -2.8 1.2
v -5.7 -1.2 1.3
v -5.7 -1.2 1.2
v -5.7 -0.9 1.3
v -5.7 -0.9 1.2
v -5.5 -1.8 1.2
v -5.5 -1.8 1.1
v -5.5 -1.5 1.2
v -5.5 -1.5 1.1
v -5.5 -1.2 1.2
v -5.5 -1.2 1.1
v -5.5 -0.9 1.2
v -5.5 -0.9 1.1
v -5.2 -1.5 1.2
v -5.2 -1.5 1.1
v -5.2 -1.2 1.2
v -5.2 -1.2 1.1
v -4.4 -3.8 1.3
v -4.4 -3.8 1.2
v -4.4 -2.4 1.3
v -4.4 -2.4 1.2
v -2.8 -3.9 1.3
v -2.8 -3.9 1.2
v -2.8 -3.8 1.3
v -2.8 -3.8 1.2
v -2.7 -3.8 1.3
v -2.7 -3.8 1.2
v -2.7 -3.7 1.3
v -2.7 -3.7 1.2
v -2.6 -3.7 1.3
v -2.6 -3.7 1.2
v -2.6 -3.6 1.3
v -2.6 -3.6 1.2
v -2.5 -3.6 1.3
v -2.5 -3.6 1.2
v -2.5 -3.5 1.3
v -2.5 -3.5 1.2
v -2.4 -3.5 1.3
v -2.4 -3.5 1.2
v -2.4 -3.3 1.3
v -2.4 -3.3 1.2
v -2.4 -3.2 1.3
v -2.4 -3.2 1.2
v -2.4 -2.8 1.3
v -2.4 -2.8 1.2
v -2 -3.1 1.3
v -2 -3.1 1.2
v -2 -3 1.3
v -2 -3 1.2
v -1.9 -3 1.3
v -1.9 -3 1.2
v -1.9 -2.9 1.3
v -1.9 -2.9 1.2
v -1.8 -2.9 1.3
v -1.8 -2.9 1.2
v -1.8 -2.4 1.3
v -1.8 -2.4 1.2
v -1.6 -3.3 1.3
v -1.6 -3.3 1.2
v -1.6 -2.4 1.3
v -1.6 -2.4 1.2
v 1.6 -1.6 1.3
v 1.6 -1.6 1.2
v 1.6 -0.9 1.3
v 1.6 -0.9 1.2
v 7.2 -2.4 1.3
v 7.2 -2.4 1.2
v 7.2 -1.6 1.3
v 7.2 -1.6 1.2
v -6.8 -3.6 1.3
v -6.8 -1.6 1.3
v -6.4 -3.6 1.3
v -6.4 -2.8 1.3
v -6.4 -1.6 1.3
v -6.4 -1.2 1.3
v -6 -3.8 1.3
v -6 -2.8 1.3
v -6 -1.2 1.3
v -6 -0.9 1.3
v -5.9 -1.2 1.3
v -5.9 -1 1.3
v -5.8 -1.2 1.3
v -5.8 -1 1.3
v -5.7 -1.2 1.3
v -5.7 -0.9 1.3
v -4.4 -3.8 1.3
v -4.4 -2.4 1.3
v -3.2 -3.9 1.3
v -3.2 -3.2 1.3
v -3.1 -3.2 1.3
v -3.1 -2.9 1.3
v -3 -2.9 1.3
v -3 -2.8 1.3
v -2.9 -2.8 1.3
v -2.9 -2.7 1.3
v -2.8 -3.9 1.3
v -2.8 -3.8 1.3
v -2.8 -2.7 1.3
v -2.8 -2.4 1.3
v -2.7 -3.8 1.3
v -2.7 -3.7 1.3
v -2.6 -3.7 1.3
v -2.6 -3.6 1.3
v -2.5 -3.6 1.3
v -2.5 -3.5 1.3
v -2.5 -3.3 1.3
v -2.5 -3.2 1.3
v -2.4 -3.5 1.3
v -2.4 -3.3 1.3
v -2.4 -3.2 1.3
v -2.4 -2.8 1.3
v -2.1 -3.1 1.3
v -2.1 -3 1.3
v -2 -3.1 1.3
v -2 -3 1.3
v -2 -2.9 1.3
v -2 -2.8 1.3
v -2 -2.4 1.3
v -1.9 -3 1.3
v -1.9 -2.9 1.3
v -1.9 -2.8 1.3
v -1.8 -2.9 1.3
v -1.8 -2.4 1.3
v -1.7 -3.2 1.3
v -1.7 -2.4 1.3
v -1.6 -3.3 1.3
v -1.6 -2.4 1.3
v -0.4 -2.4 1.3
v -0.4 -2.1 1.3
v 1.3 -2.4 1.3
v 1.3 -2.1 1.3
v 1.3 -1.2 1.3
v 1.3 -0.9 1.3
v 1.6 -1.6 1.3
v 1.6 -0.9 1.3
v 7.2 -2.4 1.3
v 7.2 -1.6 1.3
v -5.7 -1.2 1.2
v -5.7 -0.9 1.2
v -5.5 -1.2 1.2
v -5.5 -0.9 1.2
v -6.8 -3.6 1.2
v -6.8 -1.6 1.2
v -6.4 -3.6 1.2
v -6.4 -2.8 1.2
v -6.4 -1.6 1.2
v -6.4 -1.2 1.2
v -6.1 -1.5 1.2
v -6.1 -1.2 1.2
v -6 -3.8 1.2
v -6 -2.8 1.2
v -6 -1.5 1.2
v -6 -1.2 1.2
v -6 -0.9 1.2
v -5.9 -1.2 1.2
v -5.9 -1 1.2
v -5.8 -1.8 1.2
v -5.8 -1.5 1.2
v -5.8 -1.2 1.2
v -5.8 -1 1.2
v -5.8 -0.9 1.2
v -5.5 -1.8 1.2
v -5.5 -1.5 1.2
v -5.2 -1.5 1.2
v -5.2 -1.2 1.2
v -4.4 -3.8 1.2
v -4.4 -2.4 1.2
v -3.2 -3.9 1.2
v -3.2 -3.2 1.2
v -3.1 -3.2 1.2
v -3.1 -2.9 1.2
v -3 -2.9 1.2
v -3 -2.8 1.2
v -2.9 -2.8 1.2
v -2.9 -2.7 1.2
v -2.8 -3.9 1.2
v -2.8 -3.8 1.2
v -2.8 -2.7 1.2
v -2.8 -2.4 1.2
v -2.7 -3.8 1.2
v -2.7 -3.7 1.2
v -2.6 -3.7 1.2
v -2.6 -3.6 1.2
v -2.5 -3.6 1.2
v -2.5 -3.5 1.2
v -2.5 -3.3 1.2
v -2.5 -3.2 1.2
v -2.4 -3.5 1.2
v -2.4 -3.3 1.2
v -2.4 -3.2 1.2
v -2.4 -2.8 1.2
v -2.1 -3.1 1.2
v -2.1 -3 1.2
v -2 -3.1 1.2
v -2 -3 1.2
v -2 -2.9 1.2
v -2 -2.8 1.2
v -2 -2.4 1.2
v -1.9 -3 1.2
v -1.9 -2.9 1.2
v -1.9 -2.8 1.2
v -1.8 -2.9 1.2
v -1.8 -2.4 1.2
v -1.7 -3.2 1.2
v -1.7 -2.4 1.2
v -1.6 -3.3 1.2
v -1.6 -2.4 1.2
v -0.4 -2.4 1.2
v -0.4 -2.1 1.2
v 1.3 -2.4 1.2
v 1.3 -2.1 1.2
v 1.3 -1.2 1.2
v 1.3 -0.9 1.2
v 1.6 -1.6 1.2
v 1.6 -0.9 1.2
v 7.2 -2.4 1.2
v 7.2 -1.6 1.2
v -6.1 -1.5 1.1
v -6.1 -1.2 1.1
v -5.8 -1.8 1.1
v -5.8 -1.5 1.1
v -5.8 -1.2 1.1
v -5.8 -0.9 1.1
v -5.5 -1.8 1.1
v -5.5 -1.5 1.1
v -5.5 -1.2 1.1
v -5.5 -0.9 1.1
v -5.2 -1.5 1.1
v -5.2 -1.2 1.1
v -3.2 -3.9 1.3
v -2.8 -3.9 1.3
v -3.2 -3.9 1.2
v -2.8 -3.9 1.2
v -6 -3.8 1.3
v -4.4 -3.8 1.3
v -2.8 -3.8 1.3
v -2.7 -3.8 1.3
v -6 -3.8 1.2
v -4.4 -3.8 1.2
v -2.8 -3.8 1.2
v -2.7 -3.8 1.2
v -2.7 -3.7 1.3
v -2.6 -3.7 1.3
v -2.7 -3.7 1.2
v -2.6 -3.7 1.2
v -6.8 -3.6 1.3
v -6.4 -3.6 1.3
v -2.6 -3.6 1.3
v -2.5 -3.6 1.3
v -6.8 -3.6 1.2
v -6.4 -3.6 1.2
v -2.6 -3.6 1.2
v -2.5 -3.6 1.2
v -2.5 -3.5 1.3
v -2.4 -3.5 1.3
v -2.5 -3.5 1.2
v -2.4 -3.5 1.2
v -2.4 -3.3 1.3
v -1.6 -3.3 1.3
v -2.4 -3.3 1.2
v -1.6 -3.3 1.2
v -2.1 -3.1 1.3
v -2 -3.1 1.3
v -2.1 -3.1 1.2
v -2 -3.1 1.2
v -2 -3 1.3
v -1.9 -3 1.3
v -2 -3 1.2
v -1.9 -3 1.2
v -1.9 -2.9 1.3
v -1.8 -2.9 1.3
v -1.9 -2.9 1.2
v -1.8 -2.9 1.2
v -6.4 -2.8 1.3
v -6 -2.8 1.3
v -2.4 -2.8 1.3
v -2 -2.8 1.3
v -1.9 -2.8 1.3
v -6.4 -2.8 1.2
v -6 -2.8 1.2
v -2.4 -2.8 1.2
v -2 -2.8 1.2
v -1.9 -2.8 1.2
v -4.4 -2.4 1.3
v -2.8 -2.4 1.3
v -1.8 -2.4 1.3
v -1.7 -2.4 1.3
v -1.6 -2.4 1.3
v -0.4 -2.4 1.3
v 1.3 -2.4 1.3
v 7.2 -2.4 1.3
v -4.4 -2.4 1.2
v -2.8 -2.4 1.2
v -1.8 -2.4 1.2
v -1.7 -2.4 1.2
v -1.6 -2.4 1.2
v -0.4 -2.4 1.2
v 1.3 -2.4 1.2
v 7.2 -2.4 1.2
v -5.8 -1.8 1.2
v -5.5 -1.8 1.2
v -5.8 -1.8 1.1
v -5.5 -1.8 1.1
v -6.1 -1.5 1.2
v -6 -1.5 1.2
v -5.8 -1.5 1.2
v -5.5 -1.5 1.2
v -5.2 -1.5 1.2
v -6.1 -1.5 1.1
v -5.8 -1.5 1.1
v -5.5 -1.5 1.1
v -5.2 -1.5 1.1
v -3.2 -3.2 1.3
v -3.1 -3.2 1.3
v -2.4 -3.2 1.3
v -1.7 -3.2 1.3
v -3.2 -3.2 1.2
v -3.1 -3.2 1.2
v -2.4 -3.2 1.2
v -1.7 -3.2 1.2
v -2.1 -3 1.3
v -2 -3 1.3
v -2.1 -3 1.2
v -2 -3 1.2
v -3.1 -2.9 1.3
v -3 -2.9 1.3
v -2 -2.9 1.3
v -1.9 -2.9 1.3
v -3.1 -2.9 1.2
v -3 -2.9 1.2
v -2 -2.9 1.2
v -1.9 -2.9 1.2
v -3 -2.8 1.3
v -2.9 -2.8 1.3
v -3 -2.8 1.2
v -2.9 -2.8 1.2
v -2.9 -2.7 1.3
v -2.8 -2.7 1.3
v -2.9 -2.7 1.2
v -2.8 -2.7 1.2
v -6.8 -1.6 1.3
v -6.4 -1.6 1.3
v 1.6 -1.6 1.3
v 7.2 -1.6 1.3
v -6.8 -1.6 1.2
v -6.4 -1.6 1.2
v 1.6 -1.6 1.2
v 7.2 -1.6 1.2
v -6.4 -1.2 1.3
v -6 -1.2 1.3
v -5.7 -1.2 1.3
v 1.3 -1.2 1.3
v -6.4 -1.2 1.2
v -6.1 -1.2 1.2
v -6 -1.2 1.2
v -5.9 -1.2 1.2
v -5.8 -1.2 1.2
v -5.7 -1.2 1.2
v -5.5 -1.2 1.2
v -5.2 -1.2 1.2
v 1.3 -1.2 1.2
v -6.1 -1.2 1.1
v -5.8 -1.2 1.1
v -5.5 -1.2 1.1
v -5.2 -1.2 1.1
v -6 -0.9 1.3
v -5.7 -0.9 1.3
v 1.3 -0.9 1.3
v 1.6 -0.9 1.3
v -6 -0.9 1.2
v -5.8 -0.9 1.2
v -5.7 -0.9 1.2
v -5.5 -0.9 1.2
v 1.3 -0.9 1.2
v 1.6 -0.9 1.2
v -5.8 -0.9 1.1
v -5.5 -0.9 1.1

# faces
f 3/3/1 2/3/1 1/3/1
f 4/3/1 2/3/1 3/3/1
f 7/3/1 6/3/1 5/3/1
f 8/3/1 6/3/1 7/3/1
f 11/2/1 10/2/1 9/2/1
f 12/2/1 10/2/1 11/2/1
f 15/4/1 14/4/1 13/4/1
f 16/4/1 14/4/1 15/4/1
f 19/3/1 18/3/1 17/3/1
f 20/3/1 18/3/1 19/3/1
f 23/2/1 22/2/1 21/2/1
f 24/2/1 22/2/1 23/2/1
f 27/2/1 26/2/1 25/2/1
f 28/2/1 26/2/1 27/2/1
f 29/2/1 26/2/1 28/2/1
f 32/5/1 31/5/1 30/5/1
f 33/5/1 31/5/1 32/5/1
f 36/5/1 35/5/1 34/5/1
f 37/5/1 35/5/1 36/5/1
f 40/5/1 39/5/1 38/5/1
f 41/5/1 39/5/1 40/5/1
f 44/5/1 43/5/1 42/5/1
f 45/5/1 43/5/1 44/5/1
f 48/5/1 47/5/1 46/5/1
f 49/5/1 47/5/1 48/5/1
f 52/3/1 51/3/1 50/3/1
f 53/3/1 51/3/1 52/3/1
f 56/3/1 55/3/1 54/3/1
f 57/3/1 55/3/1 56/3/1
f 60/3/1 59/3/1 58/3/1
f 61/3/1 59/3/1 60/3/1
f 64/3/1 63/3/1 62/3/1
f 65/3/1 63/3/1 64/3/1
f 68/4/1 67/4/1 66/4/1
f 69/4/1 67/4/1 68/4/1
f 70/3/2 71/3/2 72/3/2
f 72/3/2 71/3/2 73/3/2
f 74/3/2 75/3/2 76/3/2
f 76/3/2 75/3/2 77/3/2
f 78/2/2 79/2/2 80/2/2
f 80/2/2 79/2/2 81/2/2
f 82/2/2 83/2/2 84/2/2
f 84/2/2 83/2/2 85/2/2
f 86/2/2 87/2/2 88/2/2
f 88/2/2 87/2/2 89/2/2
f 90/4/2 91/4/2 92/4/2
f 92/4/2 91/4/2 93/4/2
f 94/5/2 95/5/2 96/5/2
f 96/5/2 95/5/2 97/5/2
f 98/5/2 99/5/2 100/5/2
f 100/5/2 99/5/2 101/5/2
f 102/5/2 103/5/2 104/5/2
f 104/5/2 103/5/2 105/5/2
f 106/5/2 107/5/2 108/5/2
f 108/5/2 107/5/2 109/5/2
f 110/5/2 111/5/2 112/5/2
f 112/5/2 111/5/2 113/5/2
f 114/5/2 115/5/2 116/5/2
f 116/5/2 115/5/2 117/5/2
f 118/3/2 119/3/2 120/3/2
f 120/3/2 119/3/2 121/3/2
f 122/3/2 123/3/2 124/3/2
f 124/3/2 123/3/2 125/3/2
f 126/3/2 127/3/2 128/3/2
f 128/3/2 127/3/2 129/3/2
f 130/3/2 131/3/2 132/3/2
f 132/3/2 131/3/2 133/3/2
f 134/4/2 135/4/2 136/4/2
f 136/4/2 135/4/2 137/4/2
f 138/4/2 139/4/2 140/4/2
f 140/4/2 139/4/2 141/4/2
f 144/3/3 143/3/3 142/3/3
f 145/3/3 143/3/3 144/3/3
f 146/3/3 143/3/3 145/3/3
f 149/3/3 147/3/3 146/3/3
f 149/3/3 146/3/3 145/3/3
f 150/3/3 147/3/3 149/3/3
f 152/4/3 149/4/3 148/4/3
f 152/3/3 151/3/3 150/3/3
f 152/4/3 150/4/3 149/4/3
f 153/3/3 151/3/3 152/3/3
f 154/4/3 152/4/3 148/4/3
f 154/4/3 153/4/3 152/4/3
f 155/3/3 151/3/3 153/3/3
f 155/4/3 153/4/3 154/4/3
f 156/4/3 154/4/3 148/4/3
f 156/3/3 155/3/3 154/3/3
f 157/3/3 151/3/3 155/3/3
f 157/3/3 155/3/3 156/3/3
f 158/4/3 156/4/3 148/4/3
f 159/4/3 156/4/3 158/4/3
f 162/5/3 161/5/3 160/5/3
f 164/5/3 163/5/3 162/5/3
f 166/5/3 165/5/3 164/5/3
f 168/5/3 162/5/3 160/5/3
f 168/5/3 167/5/3 166/5/3
f 168/5/3 166/5/3 164/5/3
f 168/5/3 164/5/3 162/5/3
f 169/5/3 167/5/3 168/5/3
f 170/5/3 167/5/3 169/5/3
f 171/4/3 156/4/3 159/4/3
f 172/5/3 170/5/3 169/5/3
f 172/5/3 171/5/3 170/5/3
f 173/5/3 171/5/3 172/5/3
f 174/5/3 171/5/3 173/5/3
f 175/5/3 171/5/3 174/5/3
f 176/5/3 171/5/3 175/5/3
f 177/5/3 171/5/3 176/5/3
f 178/5/3 171/5/3 177/5/3
f 179/5/3 171/5/3 178/5/3
f 180/5/3 178/5/3 177/5/3
f 181/4/3 179/4/3 178/4/3
f 181/5/3 178/5/3 180/5/3
f 182/5/3 171/5/3 179/5/3
f 182/4/3 179/4/3 181/4/3
f 183/5/3 171/5/3 182/5/3
f 186/3/3 185/3/3 184/3/3
f 187/3/3 185/3/3 186/3/3
f 189/5/3 171/5/3 183/5/3
f 190/4/3 156/4/3 171/4/3
f 190/5/3 171/5/3 189/5/3
f 191/3/3 188/3/3 187/3/3
f 192/3/3 188/3/3 191/3/3
f 193/3/3 190/3/3 189/3/3
f 194/3/3 193/3/3 192/3/3
f 195/4/3 156/4/3 190/4/3
f 195/3/3 193/3/3 194/3/3
f 195/3/3 190/3/3 193/3/3
f 196/3/3 182/3/3 181/3/3
f 197/4/3 156/4/3 195/4/3
f 198/3/3 196/3/3 181/3/3
f 198/3/3 197/3/3 196/3/3
f 199/4/3 156/4/3 197/4/3
f 199/3/3 197/3/3 198/3/3
f 200/4/3 156/4/3 199/4/3
f 201/4/3 156/4/3 200/4/3
f 202/1/3 201/1/3 200/1/3
f 203/4/3 156/4/3 201/4/3
f 203/1/3 201/1/3 202/1/3
f 204/4/3 156/4/3 203/4/3
f 206/4/3 203/4/3 202/4/3
f 206/4/3 205/4/3 204/4/3
f 206/4/3 204/4/3 203/4/3
f 207/4/3 205/4/3 206/4/3
f 208/4/3 206/4/3 202/4/3
f 209/4/3 206/4/3 208/4/3
f 212/2/3 211/2/3 210/2/3
f 213/2/3 211/2/3 212/2/3
f 214/3/4 215/3/4 216/3/4
f 216/3/4 215/3/4 217/3/4
f 217/3/4 215/3/4 218/3/4
f 218/3/4 219/3/4 220/3/4
f 217/3/4 218/3/4 220/3/4
f 220/3/4 219/3/4 221/3/4
f 217/3/4 220/3/4 223/3/4
f 223/3/4 220/3/4 224/3/4
f 225/3/4 226/3/4 227/3/4
f 227/3/4 226/3/4 228/3/4
f 223/4/4 224/4/4 229/4/4
f 222/4/4 223/4/4 229/4/4
f 229/4/4 224/4/4 230/4/4
f 227/4/4 228/4/4 231/4/4
f 228/3/4 226/3/4 232/3/4
f 231/4/4 228/4/4 232/4/4
f 232/3/4 226/3/4 233/3/4
f 222/4/4 229/4/4 234/4/4
f 234/4/4 235/4/4 236/4/4
f 222/4/4 234/4/4 238/4/4
f 236/4/4 237/4/4 238/4/4
f 234/4/4 236/4/4 238/4/4
f 238/4/4 237/4/4 239/4/4
f 240/5/4 241/5/4 242/5/4
f 242/5/4 243/5/4 244/5/4
f 244/5/4 245/5/4 246/5/4
f 240/5/4 242/5/4 248/5/4
f 246/5/4 247/5/4 248/5/4
f 244/5/4 246/5/4 248/5/4
f 242/5/4 244/5/4 248/5/4
f 248/5/4 247/5/4 249/5/4
f 249/5/4 247/5/4 250/5/4
f 239/4/4 237/4/4 251/4/4
f 249/5/4 250/5/4 252/5/4
f 250/5/4 251/5/4 252/5/4
f 252/5/4 251/5/4 253/5/4
f 253/5/4 251/5/4 254/5/4
f 254/5/4 251/5/4 255/5/4
f 255/5/4 251/5/4 256/5/4
f 256/5/4 251/5/4 257/5/4
f 257/5/4 251/5/4 258/5/4
f 258/5/4 251/5/4 259/5/4
f 257/5/4 258/5/4 260/5/4
f 258/4/4 259/4/4 261/4/4
f 260/5/4 258/5/4 261/5/4
f 259/5/4 251/5/4 262/5/4
f 261/4/4 259/4/4 262/4/4
f 262/5/4 251/5/4 263/5/4
f 264/3/4 265/3/4 266/3/4
f 266/3/4 265/3/4 267/3/4
f 263/5/4 251/5/4 269/5/4
f 251/4/4 237/4/4 270/4/4
f 269/5/4 251/5/4 270/5/4
f 267/3/4 268/3/4 271/3/4
f 271/3/4 268/3/4 272/3/4
f 269/3/4 270/3/4 273/3/4
f 272/3/4 273/3/4 274/3/4
f 270/4/4 237/4/4 275/4/4
f 274/3/4 273/3/4 275/3/4
f 273/3/4 270/3/4 275/3/4
f 261/3/4 262/3/4 276/3/4
f 275/4/4 237/4/4 277/4/4
f 261/3/4 276/3/4 278/3/4
f 276/3/4 277/3/4 278/3/4
f 277/4/4 237/4/4 279/4/4
f 278/3/4 277/3/4 279/3/4
f 279/4/4 237/4/4 280/4/4
f 280/4/4 237/4/4 281/4/4
f 280/1/4 281/1/4 282/1/4
f 281/4/4 237/4/4 283/4/4
f 282/1/4 281/1/4 283/1/4
f 283/4/4 237/4/4 284/4/4
f 282/4/4 283/4/4 286/4/4
f 284/4/4 285/4/4 286/4/4
f 283/4/4 284/4/4 286/4/4
f 286/4/4 285/4/4 287/4/4
f 282/4/4 286/4/4 288/4/4
f 288/4/4 286/4/4 289/4/4
f 290/2/4 291/2/4 293/2/4
f 293/2/4 291/2/4 294/2/4
f 292/2/4 293/2/4 296/2/4
f 294/2/4 295/2/4 296/2/4
f 293/2/4 294/2/4 296/2/4
f 296/2/4 295/2/4 297/2/4
f 297/2/4 295/2/4 298/2/4
f 298/2/4 295/2/4 299/2/4
f 297/2/4 298/2/4 300/2/4
f 300/2/4 298/2/4 301/2/4
f 304/5/5 303/5/5 302/5/5
f 305/5/5 303/5/5 304/5/5
f 310/4/5 307/4/5 306/4/5
f 311/4/5 307/4/5 310/4/5
f 312/5/5 309/5/5 308/5/5
f 313/5/5 309/5/5 312/5/5
f 316/5/5 315/5/5 314/5/5
f 317/5/5 315/5/5 316/5/5
f 322/3/5 319/3/5 318/3/5
f 323/3/5 319/3/5 322/3/5
f 324/5/5 321/5/5 320/5/5
f 325/5/5 321/5/5 324/5/5
f 328/5/5 327/5/5 326/5/5
f 329/5/5 327/5/5 328/5/5
f 332/3/5 331/3/5 330/3/5
f 333/3/5 331/3/5 332/3/5
f 336/3/5 335/3/5 334/3/5
f 337/3/5 335/3/5 336/3/5
f 340/3/5 339/3/5 338/3/5
f 341/3/5 339/3/5 340/3/5
f 344/3/5 343/3/5 342/3/5
f 345/3/5 343/3/5 344/3/5
f 351/3/5 347/3/5 346/3/5
f 352/3/5 347/3/5 351/3/5
f 353/5/5 349/5/5 348/5/5
f 354/3/5 350/3/5 349/3/5
f 354/5/5 349/5/5 353/5/5
f 355/3/5 350/3/5 354/3/5
f 364/4/5 357/4/5 356/4/5
f 365/4/5 357/4/5 364/4/5
f 366/4/5 359/4/5 358/4/5
f 367/4/5 359/4/5 366/4/5
f 368/4/5 361/4/5 360/4/5
f 369/1/5 362/1/5 361/1/5
f 369/4/5 361/4/5 368/4/5
f 370/4/5 363/4/5 362/4/5
f 370/1/5 362/1/5 369/1/5
f 371/4/5 363/4/5 370/4/5
f 374/2/5 373/2/5 372/2/5
f 375/2/5 373/2/5 374/2/5
f 381/2/5 377/2/5 376/2/5
f 381/2/5 378/2/5 377/2/5
f 382/2/5 378/2/5 381/2/5
f 383/2/5 380/2/5 379/2/5
f 384/2/5 380/2/5 383/2/5
f 385/5/6 386/5/6 389/5/6
f 389/5/6 386/5/6 390/5/6
f 387/3/6 388/3/6 391/3/6
f 391/3/6 388/3/6 392/3/6
f 393/3/6 394/3/6 395/3/6
f 395/3/6 394/3/6 396/3/6
f 397/5/6 398/5/6 401/5/6
f 401/5/6 398/5/6 402/5/6
f 399/3/6 400/3/6 403/3/6
f 403/3/6 400/3/6 404/3/6
f 405/5/6 406/5/6 407/5/6
f 407/5/6 406/5/6 408/5/6
f 409/5/6 410/5/6 411/5/6
f 411/5/6 410/5/6 412/5/6
f 413/3/6 414/3/6 417/3/6
f 417/3/6 414/3/6 418/3/6
f 415/4/6 416/4/6 419/4/6
f 419/4/6 416/4/6 420/4/6
f 421/3/6 422/3/6 425/3/6
f 425/3/6 422/3/6 426/3/6
f 426/3/6 422/3/6 427/3/6
f 423/4/6 424/4/6 430/4/6
f 430/4/6 424/4/6 431/4/6
f 431/4/6 424/4/6 432/4/6
f 432/4/6 424/4/6 433/4/6
f 428/2/6 429/2/6 434/2/6
f 426/2/6 427/2/6 434/2/6
f 427/2/6 428/2/6 434/2/6
f 434/2/6 429/2/6 435/2/6
f 431/2/6 432/2/6 436/2/6
f 436/2/6 432/2/6 437/2/6
f 438/3/6 439/3/6 442/3/6
f 442/3/6 439/3/6 443/3/6
f 443/3/6 439/3/6 444/3/6
f 440/4/6 441/4/6 446/4/6
f 446/4/6 441/4/6 447/4/6
f 444/2/6 445/2/6 448/2/6
f 443/2/6 444/2/6 448/2/6
f 448/2/6 445/2/6 449/2/6
