# MagicaVoxel @ Ephtracy

# group
o 

# material
mtllib radio.mtl
usemtl palette

# normals
vn -1 0 0
vn 1 0 0
vn 0 0 1
vn 0 0 -1
vn 0 -1 0
vn 0 1 0

# texcoords
vt 0.873047 0.5
vt 0.947266 0.5
vt 0.986328 0.5
vt 0.990234 0.5
vt 0.994141 0.5

# verts
v -0.6 1.5 -1.9
v -0.6 1.5 -2
v -0.6 1.8 -1.9
v -0.6 1.8 -2
v -0.6 2 -1.9
v -0.6 2 -2
v -0.6 2.2 -1.9
v -0.6 2.2 -2
v -0.5 0.6 -1.9
v -0.5 0.6 -2
v -0.5 1.2 -1.9
v -0.5 1.2 -2
v -0.5 1.5 -1.9
v -0.5 1.5 -2
v -0.5 1.8 -1.9
v -0.5 1.8 -2
v -0.5 2 -1.9
v -0.5 2 -2
v -0.5 2.2 -1.9
v -0.5 2.2 -2
v -0.5 2.3 -1.9
v -0.5 2.3 -2
v -0.4 2.3 -1.9
v -0.4 2.3 -2
v -0.4 2.4 -1.9
v -0.4 2.4 -2
v -5.96046e-08 2.3 -1.9
v -5.96046e-08 2.3 -2
v -5.96046e-08 2.4 -1.9
v -5.96046e-08 2.4 -2
v 0.2 2.4 -1.9
v 0.2 2.4 -2
v 0.2 3.7 -1.9
v 0.2 3.7 -2
v -0.2 2.3 -1.9
v -0.2 2.3 -2
v -0.2 2.4 -1.9
v -0.2 2.4 -2
v 0.3 2.4 -1.9
v 0.3 2.4 -2
v 0.3 3.7 -1.9
v 0.3 3.7 -2
v 0.4 2.3 -1.9
v 0.4 2.3 -2
v 0.4 2.4 -1.9
v 0.4 2.4 -2
v 0.6 0.6 -1.9
v 0.6 0.6 -2
v 0.6 1.2 -1.9
v 0.6 1.2 -2
v 0.6 1.7 -1.9
v 0.6 1.7 -2
v 0.6 2.3 -1.9
v 0.6 2.3 -2
v -0.6 1.5 -1.9
v -0.6 1.8 -1.9
v -0.6 2 -1.9
v -0.6 2.2 -1.9
v -0.5 0.6 -1.9
v -0.5 1.2 -1.9
v -0.5 1.5 -1.9
v -0.5 1.7 -1.9
v -0.5 1.8 -1.9
v -0.5 2 -1.9
v -0.5 2.2 -1.9
v -0.5 2.3 -1.9
v -0.4 1 -1.9
v -0.4 1.2 -1.9
v -0.4 1.3 -1.9
v -0.4 1.4 -1.9
v -0.4 1.5 -1.9
v -0.4 1.6 -1.9
v -0.4 1.9 -1.9
v -0.4 2.2 -1.9
v -0.4 2.3 -1.9
v -0.4 2.4 -1.9
v -0.3 0.8 -1.9
v -0.3 1 -1.9
v -0.3 1.1 -1.9
v -0.3 1.2 -1.9
v -0.2 0.6 -1.9
v -0.2 0.8 -1.9
v -0.2 0.9 -1.9
v -0.2 1 -1.9
v -0.2 2.3 -1.9
v -0.2 2.4 -1.9
v -0.1 0.7 -1.9
v -0.1 0.8 -1.9
v -5.96046e-08 2.3 -1.9
v -5.96046e-08 2.4 -1.9
v 0.2 0.7 -1.9
v 0.2 0.8 -1.9
v 0.2 2.3 -1.9
v 0.2 2.4 -1.9
v 0.2 3.7 -1.9
v 0.3 0.6 -1.9
v 0.3 0.8 -1.9
v 0.3 0.9 -1.9
v 0.3 1 -1.9
v 0.3 2.3 -1.9
v 0.3 2.4 -1.9
v 0.3 3.7 -1.9
v 0.4 0.8 -1.9
v 0.4 1 -1.9
v 0.4 1.1 -1.9
v 0.4 1.2 -1.9
v 0.4 2.3 -1.9
v 0.4 2.4 -1.9
v 0.5 1 -1.9
v 0.5 1.2 -1.9
v 0.5 1.3 -1.9
v 0.5 1.4 -1.9
v 0.5 1.5 -1.9
v 0.5 1.6 -1.9
v 0.5 1.9 -1.9
v 0.5 2.2 -1.9
v 0.6 0.6 -1.9
v 0.6 1.2 -1.9
v 0.6 1.7 -1.9
v 0.6 2.3 -1.9
v -0.6 1.5 -2
v -0.6 1.8 -2
v -0.6 2 -2
v -0.6 2.2 -2
v -0.5 0.6 -2
v -0.5 1.2 -2
v -0.5 1.5 -2
v -0.5 1.7 -2
v -0.5 1.8 -2
v -0.5 2 -2
v -0.5 2.2 -2
v -0.5 2.3 -2
v -0.4 1 -2
v -0.4 1.2 -2
v -0.4 1.3 -2
v -0.4 1.4 -2
v -0.4 1.5 -2
v -0.4 1.6 -2
v -0.4 1.9 -2
v -0.4 2.2 -2
v -0.4 2.3 -2
v -0.4 2.4 -2
v -0.3 0.8 -2
v -0.3 1 -2
v -0.3 1.1 -2
v -0.3 1.2 -2
v -0.2 0.6 -2
v -0.2 0.8 -2
v -0.2 0.9 -2
v -0.2 1 -2
v -0.2 2.3 -2
v -0.2 2.4 -2
v -0.1 0.7 -2
v -0.1 0.8 -2
v -5.96046e-08 2.3 -2
v -5.96046e-08 2.4 -2
v 0.2 0.7 -2
v 0.2 0.8 -2
v 0.2 2.3 -2
v 0.2 2.4 -2
v 0.2 3.7 -2
v 0.3 0.6 -2
v 0.3 0.8 -2
v 0.3 0.9 -2
v 0.3 1 -2
v 0.3 2.3 -2
v 0.3 2.4 -2
v 0.3 3.7 -2
v 0.4 0.8 -2
v 0.4 1 -2
v 0.4 1.1 -2
v 0.4 1.2 -2
v 0.4 2.3 -2
v 0.4 2.4 -2
v 0.5 1 -2
v 0.5 1.2 -2
v 0.5 1.3 -2
v 0.5 1.4 -2
v 0.5 1.5 -2
v 0.5 1.6 -2
v 0.5 1.9 -2
v 0.5 2.2 -2
v 0.6 0.6 -2
v 0.6 1.2 -2
v 0.6 1.7 -2
v 0.6 2.3 -2
v -0.5 0.6 -1.9
v -0.2 0.6 -1.9
v 0.3 0.6 -1.9
v 0.6 0.6 -1.9
v -0.5 0.6 -2
v -0.2 0.6 -2
v 0.3 0.6 -2
v 0.6 0.6 -2
v -0.6 1.5 -1.9
v -0.5 1.5 -1.9
v -0.6 1.5 -2
v -0.5 1.5 -2
v -0.6 2 -1.9
v -0.5 2 -1.9
v -0.6 2 -2
v -0.5 2 -2
v -0.6 1.8 -1.9
v -0.5 1.8 -1.9
v -0.6 1.8 -2
v -0.5 1.8 -2
v -0.6 2.2 -1.9
v -0.5 2.2 -1.9
v -0.6 2.2 -2
v -0.5 2.2 -2
v -0.5 2.3 -1.9
v -0.4 2.3 -1.9
v -0.2 2.3 -1.9
v -5.96046e-08 2.3 -1.9
v 0.4 2.3 -1.9
v 0.6 2.3 -1.9
v -0.5 2.3 -2
v -0.4 2.3 -2
v -0.2 2.3 -2
v -5.96046e-08 2.3 -2
v 0.4 2.3 -2
v 0.6 2.3 -2
v -0.4 2.4 -1.9
v -0.2 2.4 -1.9
v -5.96046e-08 2.4 -1.9
v 0.2 2.4 -1.9
v 0.3 2.4 -1.9
v 0.4 2.4 -1.9
v -0.4 2.4 -2
v -0.2 2.4 -2
v -5.96046e-08 2.4 -2
v 0.2 2.4 -2
v 0.3 2.4 -2
v 0.4 2.4 -2
v 0.2 3.7 -1.9
v 0.3 3.7 -1.9
v 0.2 3.7 -2
v 0.3 3.7 -2

# faces
f 3/5/1 2/5/1 1/5/1
f 4/5/1 2/5/1 3/5/1
f 7/1/1 6/1/1 5/1/1
f 8/1/1 6/1/1 7/1/1
f 11/4/1 10/4/1 9/4/1
f 12/4/1 10/4/1 11/4/1
f 13/3/1 12/3/1 11/3/1
f 14/3/1 12/3/1 13/3/1
f 17/4/1 16/4/1 15/4/1
f 18/4/1 16/4/1 17/4/1
f 21/4/1 20/4/1 19/4/1
f 22/4/1 20/4/1 21/4/1
f 25/3/1 24/3/1 23/3/1
f 26/3/1 24/3/1 25/3/1
f 29/4/1 28/4/1 27/4/1
f 30/4/1 28/4/1 29/4/1
f 33/3/1 32/3/1 31/3/1
f 34/3/1 32/3/1 33/3/1
f 35/3/2 36/3/2 37/3/2
f 37/3/2 36/3/2 38/3/2
f 39/3/2 40/3/2 41/3/2
f 41/3/2 40/3/2 42/3/2
f 43/4/2 44/4/2 45/4/2
f 45/4/2 44/4/2 46/4/2
f 47/4/2 48/4/2 49/4/2
f 49/4/2 48/4/2 50/4/2
f 49/3/2 50/3/2 51/3/2
f 51/3/2 50/3/2 52/3/2
f 51/4/2 52/4/2 53/4/2
f 53/4/2 52/4/2 54/4/2
f 61/5/3 56/5/3 55/5/3
f 62/5/3 56/5/3 61/5/3
f 63/5/3 56/5/3 62/5/3
f 64/1/3 58/1/3 57/1/3
f 65/1/3 58/1/3 64/1/3
f 67/4/3 60/4/3 59/4/3
f 68/3/3 61/3/3 60/3/3
f 68/4/3 60/4/3 67/4/3
f 68/3/3 62/3/3 61/3/3
f 69/3/3 62/3/3 68/3/3
f 70/3/3 62/3/3 69/3/3
f 71/3/3 62/3/3 70/3/3
f 72/3/3 62/3/3 71/3/3
f 73/4/3 66/4/3 65/4/3
f 73/4/3 63/4/3 62/4/3
f 73/4/3 65/4/3 64/4/3
f 73/4/3 64/4/3 63/4/3
f 74/4/3 66/4/3 73/4/3
f 75/4/3 66/4/3 74/4/3
f 77/4/3 67/4/3 59/4/3
f 78/3/3 68/3/3 67/3/3
f 78/4/3 67/4/3 77/4/3
f 78/3/3 69/3/3 68/3/3
f 79/3/3 69/3/3 78/3/3
f 80/3/3 69/3/3 79/3/3
f 81/4/3 77/4/3 59/4/3
f 82/3/3 78/3/3 77/3/3
f 82/4/3 77/4/3 81/4/3
f 82/3/3 79/3/3 78/3/3
f 83/3/3 79/3/3 82/3/3
f 84/3/3 79/3/3 83/3/3
f 85/3/3 76/3/3 75/3/3
f 85/4/3 75/4/3 74/4/3
f 86/3/3 76/3/3 85/3/3
f 87/3/3 82/3/3 81/3/3
f 87/3/3 83/3/3 82/3/3
f 88/3/3 83/3/3 87/3/3
f 89/4/3 85/4/3 74/4/3
f 91/3/3 87/3/3 81/3/3
f 91/5/3 88/5/3 87/5/3
f 92/3/3 83/3/3 88/3/3
f 92/5/3 88/5/3 91/5/3
f 93/4/3 90/4/3 89/4/3
f 93/4/3 89/4/3 74/4/3
f 94/4/3 90/4/3 93/4/3
f 96/3/3 91/3/3 81/3/3
f 96/3/3 92/3/3 91/3/3
f 97/3/3 83/3/3 92/3/3
f 97/3/3 92/3/3 96/3/3
f 98/5/3 84/5/3 83/5/3
f 98/3/3 83/3/3 97/3/3
f 99/3/3 79/3/3 84/3/3
f 99/5/3 84/5/3 98/5/3
f 100/3/3 94/3/3 93/3/3
f 100/3/3 95/3/3 94/3/3
f 100/4/3 93/4/3 74/4/3
f 101/3/3 95/3/3 100/3/3
f 102/3/3 95/3/3 101/3/3
f 103/3/3 98/3/3 97/3/3
f 103/4/3 97/4/3 96/4/3
f 103/3/3 99/3/3 98/3/3
f 104/3/3 79/3/3 99/3/3
f 104/3/3 99/3/3 103/3/3
f 105/5/3 80/5/3 79/5/3
f 105/3/3 79/3/3 104/3/3
f 106/3/3 69/3/3 80/3/3
f 106/5/3 80/5/3 105/5/3
f 107/4/3 101/4/3 100/4/3
f 107/4/3 100/4/3 74/4/3
f 108/4/3 101/4/3 107/4/3
f 109/3/3 105/3/3 104/3/3
f 109/4/3 104/4/3 103/4/3
f 109/3/3 106/3/3 105/3/3
f 110/3/3 69/3/3 106/3/3
f 110/3/3 106/3/3 109/3/3
f 111/5/3 70/5/3 69/5/3
f 111/3/3 69/3/3 110/3/3
f 112/3/3 71/3/3 70/3/3
f 112/5/3 70/5/3 111/5/3
f 113/5/3 72/5/3 71/5/3
f 113/3/3 71/3/3 112/3/3
f 114/3/3 62/3/3 72/3/3
f 114/5/3 72/5/3 113/5/3
f 115/4/3 73/4/3 62/4/3
f 115/2/3 74/2/3 73/2/3
f 116/4/3 107/4/3 74/4/3
f 116/2/3 74/2/3 115/2/3
f 117/4/3 110/4/3 109/4/3
f 117/4/3 109/4/3 103/4/3
f 117/4/3 103/4/3 96/4/3
f 118/3/3 113/3/3 112/3/3
f 118/4/3 110/4/3 117/4/3
f 118/3/3 112/3/3 111/3/3
f 118/3/3 111/3/3 110/3/3
f 118/3/3 114/3/3 113/3/3
f 119/4/3 115/4/3 62/4/3
f 119/3/3 114/3/3 118/3/3
f 119/4/3 116/4/3 115/4/3
f 119/3/3 62/3/3 114/3/3
f 120/4/3 107/4/3 116/4/3
f 120/4/3 116/4/3 119/4/3
f 121/5/4 122/5/4 127/5/4
f 127/5/4 122/5/4 128/5/4
f 128/5/4 122/5/4 129/5/4
f 123/1/4 124/1/4 130/1/4
f 130/1/4 124/1/4 131/1/4
f 125/4/4 126/4/4 133/4/4
f 126/3/4 127/3/4 134/3/4
f 133/4/4 126/4/4 134/4/4
f 127/3/4 128/3/4 134/3/4
f 134/3/4 128/3/4 135/3/4
f 135/3/4 128/3/4 136/3/4
f 136/3/4 128/3/4 137/3/4
f 137/3/4 128/3/4 138/3/4
f 131/4/4 132/4/4 139/4/4
f 128/4/4 129/4/4 139/4/4
f 130/4/4 131/4/4 139/4/4
f 129/4/4 130/4/4 139/4/4
f 139/4/4 132/4/4 140/4/4
f 140/4/4 132/4/4 141/4/4
f 125/4/4 133/4/4 143/4/4
f 133/3/4 134/3/4 144/3/4
f 143/4/4 133/4/4 144/4/4
f 134/3/4 135/3/4 144/3/4
f 144/3/4 135/3/4 145/3/4
f 145/3/4 135/3/4 146/3/4
f 125/4/4 143/4/4 147/4/4
f 143/3/4 144/3/4 148/3/4
f 147/4/4 143/4/4 148/4/4
f 144/3/4 145/3/4 148/3/4
f 148/3/4 145/3/4 149/3/4
f 149/3/4 145/3/4 150/3/4
f 141/3/4 142/3/4 151/3/4
f 140/4/4 141/4/4 151/4/4
f 151/3/4 142/3/4 152/3/4
f 147/3/4 148/3/4 153/3/4
f 148/3/4 149/3/4 153/3/4
f 153/3/4 149/3/4 154/3/4
f 140/4/4 151/4/4 155/4/4
f 147/3/4 153/3/4 157/3/4
f 153/5/4 154/5/4 157/5/4
f 154/3/4 149/3/4 158/3/4
f 157/5/4 154/5/4 158/5/4
f 155/4/4 156/4/4 159/4/4
f 140/4/4 155/4/4 159/4/4
f 159/4/4 156/4/4 160/4/4
f 147/3/4 157/3/4 162/3/4
f 157/3/4 158/3/4 162/3/4
f 158/3/4 149/3/4 163/3/4
f 162/3/4 158/3/4 163/3/4
f 149/5/4 150/5/4 164/5/4
f 163/3/4 149/3/4 164/3/4
f 150/3/4 145/3/4 165/3/4
f 164/5/4 150/5/4 165/5/4
f 159/3/4 160/3/4 166/3/4
f 160/3/4 161/3/4 166/3/4
f 140/4/4 159/4/4 166/4/4
f 166/3/4 161/3/4 167/3/4
f 167/3/4 161/3/4 168/3/4
f 163/3/4 164/3/4 169/3/4
f 162/4/4 163/4/4 169/4/4
f 164/3/4 165/3/4 169/3/4
f 165/3/4 145/3/4 170/3/4
f 169/3/4 165/3/4 170/3/4
f 145/5/4 146/5/4 171/5/4
f 170/3/4 145/3/4 171/3/4
f 146/3/4 135/3/4 172/3/4
f 171/5/4 146/5/4 172/5/4
f 166/4/4 167/4/4 173/4/4
f 140/4/4 166/4/4 173/4/4
f 173/4/4 167/4/4 174/4/4
f 170/3/4 171/3/4 175/3/4
f 169/4/4 170/4/4 175/4/4
f 171/3/4 172/3/4 175/3/4
f 172/3/4 135/3/4 176/3/4
f 175/3/4 172/3/4 176/3/4
f 135/5/4 136/5/4 177/5/4
f 176/3/4 135/3/4 177/3/4
f 136/3/4 137/3/4 178/3/4
f 177/5/4 136/5/4 178/5/4
f 137/5/4 138/5/4 179/5/4
f 178/3/4 137/3/4 179/3/4
f 138/3/4 128/3/4 180/3/4
f 179/5/4 138/5/4 180/5/4
f 128/4/4 139/4/4 181/4/4
f 139/2/4 140/2/4 181/2/4
f 140/4/4 173/4/4 182/4/4
f 181/2/4 140/2/4 182/2/4
f 175/4/4 176/4/4 183/4/4
f 169/4/4 175/4/4 183/4/4
f 162/4/4 169/4/4 183/4/4
f 178/3/4 179/3/4 184/3/4
f 183/4/4 176/4/4 184/4/4
f 177/3/4 178/3/4 184/3/4
f 176/3/4 177/3/4 184/3/4
f 179/3/4 180/3/4 184/3/4
f 128/4/4 181/4/4 185/4/4
f 184/3/4 180/3/4 185/3/4
f 181/4/4 182/4/4 185/4/4
f 180/3/4 128/3/4 185/3/4
f 182/4/4 173/4/4 186/4/4
f 185/4/4 182/4/4 186/4/4
f 191/4/5 188/4/5 187/4/5
f 192/3/5 189/3/5 188/3/5
f 192/4/5 188/4/5 191/4/5
f 193/4/5 190/4/5 189/4/5
f 193/3/5 189/3/5 192/3/5
f 194/4/5 190/4/5 193/4/5
f 197/5/5 196/5/5 195/5/5
f 198/5/5 196/5/5 197/5/5
f 201/1/5 200/1/5 199/1/5
f 202/1/5 200/1/5 201/1/5
f 203/5/6 204/5/6 205/5/6
f 205/5/6 204/5/6 206/5/6
f 207/1/6 208/1/6 209/1/6
f 209/1/6 208/1/6 210/1/6
f 211/4/6 212/4/6 217/4/6
f 217/4/6 212/4/6 218/4/6
f 213/4/6 214/4/6 219/4/6
f 219/4/6 214/4/6 220/4/6
f 215/4/6 216/4/6 221/4/6
f 221/4/6 216/4/6 222/4/6
f 223/3/6 224/3/6 229/3/6
f 229/3/6 224/3/6 230/3/6
f 225/4/6 226/4/6 231/4/6
f 231/4/6 226/4/6 232/4/6
f 227/4/6 228/4/6 233/4/6
f 233/4/6 228/4/6 234/4/6
f 235/3/6 236/3/6 237/3/6
f 237/3/6 236/3/6 238/3/6
