# MagicaVoxel @ Ephtracy

# group
o 

# material
mtllib BuletHole.mtl
usemtl palette

# normals
vn -1 0 0
vn 1 0 0
vn 0 0 1
vn 0 0 -1
vn 0 -1 0
vn 0 1 0

# texcoords
vt 0.986328 0.5
vt 0.990234 0.5
vt 0.994141 0.5

# verts
v -1.2 4.6 -7.6
v -1.2 4.6 -8
v -1.2 5.4 -7.6
v -1.2 5.4 -8
v -1.1 4.5 -7.6
v -1.1 4.5 -8
v -1.1 4.6 -7.6
v -1.1 4.6 -8
v -1.1 5.4 -7.6
v -1.1 5.4 -8
v -1.1 5.5 -7.6
v -1.1 5.5 -8
v -1 4.4 -7.6
v -1 4.4 -8
v -1 4.5 -7.6
v -1 4.5 -8
v -1 5.5 -7.6
v -1 5.5 -8
v -1 5.6 -7.6
v -1 5.6 -8
v -0.5 4.9 -7.7
v -0.5 4.9 -7.8
v -0.5 5 -7.7
v -0.5 5 -7.8
v -0.5 5.1 -7.7
v -0.5 5.1 -7.8
v -0.4 4.8 -7.6
v -0.4 4.8 -7.7
v -0.4 4.8 -7.8
v -0.4 4.9 -7.6
v -0.4 4.9 -7.7
v -0.4 4.9 -7.8
v -0.4 5 -7.6
v -0.4 5 -7.7
v -0.4 5.1 -7.6
v -0.4 5.1 -7.7
v -0.4 5.2 -7.6
v -0.4 5.2 -7.7
v -0.8 4.8 -7.6
v -0.8 4.8 -7.7
v -0.8 4.9 -7.6
v -0.8 4.9 -7.7
v -0.8 5 -7.6
v -0.8 5 -7.7
v -0.8 5.1 -7.6
v -0.8 5.1 -7.7
v -0.8 5.2 -7.6
v -0.8 5.2 -7.7
v -0.7 4.9 -7.7
v -0.7 4.9 -7.8
v -0.7 5 -7.8
v -0.7 5.1 -7.7
v -0.7 5.1 -7.8
v -0.6 4.8 -7.7
v -0.6 4.8 -7.8
v -0.6 4.9 -7.7
v -0.6 4.9 -7.8
v -0.3 5.5 -7.8
v -0.3 5.5 -7.9
v -0.3 5.6 -7.8
v -0.3 5.6 -7.9
v -0.2 4.4 -7.6
v -0.2 4.4 -8
v -0.2 4.5 -7.6
v -0.2 4.5 -8
v -0.2 5.5 -7.6
v -0.2 5.5 -7.8
v -0.2 5.5 -7.9
v -0.2 5.5 -8
v -0.2 5.6 -7.6
v -0.2 5.6 -7.8
v -0.2 5.6 -7.9
v -0.2 5.6 -8
v -0.1 4.5 -7.6
v -0.1 4.5 -8
v -0.1 4.6 -7.6
v -0.1 4.6 -8
v -0.1 5.4 -7.6
v -0.1 5.4 -8
v -0.1 5.5 -7.6
v -0.1 5.5 -8
v 0 4.6 -7.6
v 0 4.6 -8
v 0 5.4 -7.6
v 0 5.4 -8
v -1.2 4.6 -7.6
v -1.2 5.4 -7.6
v -1.1 4.5 -7.6
v -1.1 4.6 -7.6
v -1.1 4.7 -7.6
v -1.1 4.8 -7.6
v -1.1 4.9 -7.6
v -1.1 5 -7.6
v -1.1 5.1 -7.6
v -1.1 5.2 -7.6
v -1.1 5.3 -7.6
v -1.1 5.4 -7.6
v -1.1 5.5 -7.6
v -1 4.4 -7.6
v -1 4.5 -7.6
v -1 4.6 -7.6
v -1 4.7 -7.6
v -1 4.8 -7.6
v -1 4.9 -7.6
v -1 5 -7.6
v -1 5.1 -7.6
v -1 5.2 -7.6
v -1 5.3 -7.6
v -1 5.4 -7.6
v -1 5.5 -7.6
v -1 5.6 -7.6
v -0.9 4.5 -7.6
v -0.9 4.6 -7.6
v -0.9 4.7 -7.6
v -0.9 4.8 -7.6
v -0.9 4.9 -7.6
v -0.9 5 -7.6
v -0.9 5.1 -7.6
v -0.9 5.2 -7.6
v -0.9 5.3 -7.6
v -0.9 5.4 -7.6
v -0.9 5.5 -7.6
v -0.8 4.5 -7.6
v -0.8 4.6 -7.6
v -0.8 4.7 -7.6
v -0.8 4.8 -7.6
v -0.8 4.9 -7.6
v -0.8 5 -7.6
v -0.8 5.1 -7.6
v -0.8 5.2 -7.6
v -0.8 5.3 -7.6
v -0.8 5.4 -7.6
v -0.8 5.5 -7.6
v -0.7 4.5 -7.6
v -0.7 4.6 -7.6
v -0.7 4.7 -7.6
v -0.7 4.8 -7.6
v -0.7 5.2 -7.6
v -0.7 5.3 -7.6
v -0.7 5.4 -7.6
v -0.7 5.5 -7.6
v -0.6 4.5 -7.6
v -0.6 4.6 -7.6
v -0.6 4.7 -7.6
v -0.6 4.8 -7.6
v -0.6 5.2 -7.6
v -0.6 5.3 -7.6
v -0.6 5.4 -7.6
v -0.6 5.5 -7.6
v -0.5 4.5 -7.6
v -0.5 4.6 -7.6
v -0.5 4.7 -7.6
v -0.5 4.8 -7.6
v -0.5 5.2 -7.6
v -0.5 5.3 -7.6
v -0.5 5.4 -7.6
v -0.5 5.5 -7.6
v -0.4 4.5 -7.6
v -0.4 4.6 -7.6
v -0.4 4.7 -7.6
v -0.4 4.8 -7.6
v -0.4 4.9 -7.6
v -0.4 5 -7.6
v -0.4 5.1 -7.6
v -0.4 5.2 -7.6
v -0.4 5.3 -7.6
v -0.4 5.4 -7.6
v -0.4 5.5 -7.6
v -0.3 4.5 -7.6
v -0.3 4.6 -7.6
v -0.3 4.7 -7.6
v -0.3 4.8 -7.6
v -0.3 4.9 -7.6
v -0.3 5 -7.6
v -0.3 5.1 -7.6
v -0.3 5.2 -7.6
v -0.3 5.3 -7.6
v -0.3 5.4 -7.6
v -0.3 5.5 -7.6
v -0.2 4.4 -7.6
v -0.2 4.5 -7.6
v -0.2 4.6 -7.6
v -0.2 4.7 -7.6
v -0.2 4.8 -7.6
v -0.2 4.9 -7.6
v -0.2 5 -7.6
v -0.2 5.1 -7.6
v -0.2 5.2 -7.6
v -0.2 5.3 -7.6
v -0.2 5.4 -7.6
v -0.2 5.5 -7.6
v -0.2 5.6 -7.6
v -0.1 4.5 -7.6
v -0.1 4.6 -7.6
v -0.1 4.8 -7.6
v -0.1 4.9 -7.6
v -0.1 5 -7.6
v -0.1 5.1 -7.6
v -0.1 5.4 -7.6
v -0.1 5.5 -7.6
v 0 4.6 -7.6
v 0 5.4 -7.6
v -0.8 4.8 -7.7
v -0.8 4.9 -7.7
v -0.8 5 -7.7
v -0.8 5.1 -7.7
v -0.8 5.2 -7.7
v -0.7 4.8 -7.7
v -0.7 4.9 -7.7
v -0.7 5.1 -7.7
v -0.7 5.2 -7.7
v -0.6 4.8 -7.7
v -0.6 4.9 -7.7
v -0.6 5.2 -7.7
v -0.5 4.9 -7.7
v -0.5 5 -7.7
v -0.5 5.1 -7.7
v -0.5 5.2 -7.7
v -0.4 4.9 -7.7
v -0.4 5 -7.7
v -0.4 5.1 -7.7
v -0.4 5.2 -7.7
v -0.7 4.9 -7.8
v -0.7 5 -7.8
v -0.7 5.1 -7.8
v -0.6 4.8 -7.8
v -0.6 4.9 -7.8
v -0.6 5 -7.8
v -0.5 4.9 -7.8
v -0.5 5 -7.8
v -0.5 5.1 -7.8
v -0.4 4.8 -7.8
v -0.4 4.9 -7.8
v -0.3 5.5 -7.9
v -0.3 5.6 -7.9
v -0.2 5.5 -7.9
v -0.2 5.6 -7.9
v -0.3 5.5 -7.8
v -0.3 5.6 -7.8
v -0.2 5.5 -7.8
v -0.2 5.6 -7.8
v -1.2 4.6 -8
v -1.2 5.4 -8
v -1.1 4.5 -8
v -1.1 4.6 -8
v -1.1 5.4 -8
v -1.1 5.5 -8
v -1 4.4 -8
v -1 4.5 -8
v -1 4.6 -8
v -1 5.4 -8
v -1 5.5 -8
v -1 5.6 -8
v -0.8 4.8 -8
v -0.8 5.2 -8
v -0.4 4.8 -8
v -0.4 5.2 -8
v -0.2 4.4 -8
v -0.2 4.5 -8
v -0.2 4.6 -8
v -0.2 5.4 -8
v -0.2 5.5 -8
v -0.2 5.6 -8
v -0.1 4.5 -8
v -0.1 4.6 -8
v -0.1 5.4 -8
v -0.1 5.5 -8
v 0 4.6 -8
v 0 5.4 -8
v -1 4.4 -7.6
v -0.2 4.4 -7.6
v -1 4.4 -8
v -0.2 4.4 -8
v -1.1 4.5 -7.6
v -1 4.5 -7.6
v -0.2 4.5 -7.6
v -0.1 4.5 -7.6
v -1.1 4.5 -8
v -1 4.5 -8
v -0.2 4.5 -8
v -0.1 4.5 -8
v -1.2 4.6 -7.6
v -1.1 4.6 -7.6
v -0.1 4.6 -7.6
v 0 4.6 -7.6
v -1.2 4.6 -8
v -1.1 4.6 -8
v -0.1 4.6 -8
v 0 4.6 -8
v -0.5 4.9 -7.7
v -0.4 4.9 -7.7
v -0.5 4.9 -7.8
v -0.4 4.9 -7.8
v -0.7 5.1 -7.7
v -0.5 5.1 -7.7
v -0.7 5.1 -7.8
v -0.5 5.1 -7.8
v -0.8 5.2 -7.6
v -0.7 5.2 -7.6
v -0.6 5.2 -7.6
v -0.5 5.2 -7.6
v -0.4 5.2 -7.6
v -0.8 5.2 -7.7
v -0.7 5.2 -7.7
v -0.6 5.2 -7.7
v -0.5 5.2 -7.7
v -0.4 5.2 -7.7
v -0.8 4.8 -7.6
v -0.7 4.8 -7.6
v -0.6 4.8 -7.6
v -0.5 4.8 -7.6
v -0.4 4.8 -7.6
v -0.8 4.8 -7.7
v -0.7 4.8 -7.7
v -0.6 4.8 -7.7
v -0.5 4.8 -7.7
v -0.4 4.8 -7.7
v -0.6 4.8 -7.8
v -0.4 4.8 -7.8
v -0.7 4.9 -7.7
v -0.6 4.9 -7.7
v -0.7 4.9 -7.8
v -0.6 4.9 -7.8
v -1.2 5.4 -7.6
v -1.1 5.4 -7.6
v -0.1 5.4 -7.6
v 0 5.4 -7.6
v -1.2 5.4 -8
v -1.1 5.4 -8
v -0.1 5.4 -8
v 0 5.4 -8
v -1.1 5.5 -7.6
v -1 5.5 -7.6
v -0.2 5.5 -7.6
v -0.1 5.5 -7.6
v -0.3 5.5 -7.8
v -0.2 5.5 -7.8
v -0.3 5.5 -7.9
v -0.2 5.5 -7.9
v -1.1 5.5 -8
v -1 5.5 -8
v -0.2 5.5 -8
v -0.1 5.5 -8
v -1 5.6 -7.6
v -0.2 5.6 -7.6
v -0.3 5.6 -7.8
v -0.2 5.6 -7.8
v -0.3 5.6 -7.9
v -0.2 5.6 -7.9
v -1 5.6 -8
v -0.2 5.6 -8

# faces
f 3/3/1 2/3/1 1/3/1
f 4/3/1 2/3/1 3/3/1
f 7/3/1 6/3/1 5/3/1
f 8/3/1 6/3/1 7/3/1
f 11/3/1 10/3/1 9/3/1
f 12/3/1 10/3/1 11/3/1
f 15/3/1 14/3/1 13/3/1
f 16/3/1 14/3/1 15/3/1
f 19/3/1 18/3/1 17/3/1
f 20/3/1 18/3/1 19/3/1
f 23/3/1 22/3/1 21/3/1
f 24/3/1 22/3/1 23/3/1
f 25/1/1 24/1/1 23/1/1
f 26/1/1 24/1/1 25/1/1
f 30/2/1 28/2/1 27/2/1
f 30/2/1 29/2/1 28/2/1
f 31/2/1 29/2/1 30/2/1
f 32/2/1 29/2/1 31/2/1
f 33/3/1 31/3/1 30/3/1
f 34/3/1 31/3/1 33/3/1
f 35/2/1 34/2/1 33/2/1
f 36/2/1 34/2/1 35/2/1
f 37/3/1 36/3/1 35/3/1
f 38/3/1 36/3/1 37/3/1
f 39/3/2 40/3/2 41/3/2
f 41/3/2 40/3/2 42/3/2
f 41/2/2 42/2/2 43/2/2
f 43/2/2 42/2/2 44/2/2
f 43/3/2 44/3/2 45/3/2
f 45/3/2 44/3/2 46/3/2
f 45/2/2 46/2/2 47/2/2
f 47/2/2 46/2/2 48/2/2
f 49/3/2 50/3/2 51/3/2
f 49/3/2 51/3/2 52/3/2
f 52/3/2 51/3/2 53/3/2
f 54/3/2 55/3/2 56/3/2
f 56/3/2 55/3/2 57/3/2
f 58/3/2 59/3/2 60/3/2
f 60/3/2 59/3/2 61/3/2
f 62/3/2 63/3/2 64/3/2
f 64/3/2 63/3/2 65/3/2
f 66/3/2 67/3/2 70/3/2
f 70/3/2 67/3/2 71/3/2
f 68/3/2 69/3/2 72/3/2
f 72/3/2 69/3/2 73/3/2
f 74/3/2 75/3/2 76/3/2
f 76/3/2 75/3/2 77/3/2
f 78/3/2 79/3/2 80/3/2
f 80/3/2 79/3/2 81/3/2
f 82/3/2 83/3/2 84/3/2
f 84/3/2 83/3/2 85/3/2
f 89/3/3 87/3/3 86/3/3
f 90/3/3 87/3/3 89/3/3
f 91/3/3 87/3/3 90/3/3
f 92/3/3 87/3/3 91/3/3
f 93/3/3 87/3/3 92/3/3
f 94/3/3 87/3/3 93/3/3
f 95/3/3 87/3/3 94/3/3
f 96/3/3 87/3/3 95/3/3
f 97/3/3 87/3/3 96/3/3
f 100/3/3 89/3/3 88/3/3
f 100/3/3 90/3/3 89/3/3
f 101/3/3 90/3/3 100/3/3
f 102/2/3 91/2/3 90/2/3
f 102/3/3 90/3/3 101/3/3
f 103/3/3 92/3/3 91/3/3
f 103/2/3 91/2/3 102/2/3
f 104/2/3 93/2/3 92/2/3
f 104/3/3 92/3/3 103/3/3
f 105/3/3 94/3/3 93/3/3
f 105/2/3 93/2/3 104/2/3
f 106/2/3 95/2/3 94/2/3
f 106/3/3 94/3/3 105/3/3
f 107/3/3 96/3/3 95/3/3
f 107/2/3 95/2/3 106/2/3
f 108/2/3 97/2/3 96/2/3
f 108/3/3 96/3/3 107/3/3
f 109/3/3 98/3/3 97/3/3
f 109/2/3 97/2/3 108/2/3
f 110/3/3 98/3/3 109/3/3
f 112/3/3 101/3/3 100/3/3
f 112/3/3 100/3/3 99/3/3
f 113/2/3 102/2/3 101/2/3
f 113/3/3 101/3/3 112/3/3
f 114/3/3 103/3/3 102/3/3
f 114/2/3 102/2/3 113/2/3
f 115/2/3 104/2/3 103/2/3
f 115/3/3 103/3/3 114/3/3
f 116/3/3 105/3/3 104/3/3
f 116/2/3 104/2/3 115/2/3
f 117/2/3 106/2/3 105/2/3
f 117/3/3 105/3/3 116/3/3
f 118/3/3 107/3/3 106/3/3
f 118/2/3 106/2/3 117/2/3
f 119/2/3 108/2/3 107/2/3
f 119/3/3 107/3/3 118/3/3
f 120/3/3 109/3/3 108/3/3
f 120/2/3 108/2/3 119/2/3
f 121/2/3 110/2/3 109/2/3
f 121/3/3 109/3/3 120/3/3
f 122/3/3 111/3/3 110/3/3
f 122/2/3 110/2/3 121/2/3
f 123/3/3 112/3/3 99/3/3
f 123/2/3 113/2/3 112/2/3
f 124/3/3 114/3/3 113/3/3
f 124/2/3 113/2/3 123/2/3
f 125/2/3 115/2/3 114/2/3
f 125/3/3 114/3/3 124/3/3
f 126/3/3 116/3/3 115/3/3
f 126/2/3 115/2/3 125/2/3
f 127/2/3 117/2/3 116/2/3
f 127/3/3 116/3/3 126/3/3
f 128/3/3 118/3/3 117/3/3
f 128/2/3 117/2/3 127/2/3
f 129/2/3 119/2/3 118/2/3
f 129/3/3 118/3/3 128/3/3
f 130/3/3 120/3/3 119/3/3
f 130/2/3 119/2/3 129/2/3
f 131/2/3 121/2/3 120/2/3
f 131/3/3 120/3/3 130/3/3
f 132/3/3 122/3/3 121/3/3
f 132/2/3 121/2/3 131/2/3
f 133/3/3 111/3/3 122/3/3
f 133/3/3 122/3/3 132/3/3
f 134/3/3 123/3/3 99/3/3
f 134/3/3 124/3/3 123/3/3
f 135/2/3 125/2/3 124/2/3
f 135/3/3 124/3/3 134/3/3
f 136/3/3 126/3/3 125/3/3
f 136/2/3 125/2/3 135/2/3
f 137/3/3 126/3/3 136/3/3
f 138/2/3 131/2/3 130/2/3
f 139/3/3 132/3/3 131/3/3
f 139/2/3 131/2/3 138/2/3
f 140/2/3 133/2/3 132/2/3
f 140/3/3 132/3/3 139/3/3
f 141/3/3 111/3/3 133/3/3
f 141/2/3 133/2/3 140/2/3
f 142/2/3 135/2/3 134/2/3
f 142/3/3 134/3/3 99/3/3
f 143/3/3 136/3/3 135/3/3
f 143/2/3 135/2/3 142/2/3
f 144/2/3 137/2/3 136/2/3
f 144/3/3 136/3/3 143/3/3
f 145/2/3 137/2/3 144/2/3
f 146/3/3 139/3/3 138/3/3
f 147/2/3 140/2/3 139/2/3
f 147/3/3 139/3/3 146/3/3
f 148/3/3 141/3/3 140/3/3
f 148/2/3 140/2/3 147/2/3
f 149/3/3 111/3/3 141/3/3
f 149/3/3 141/3/3 148/3/3
f 150/3/3 143/3/3 142/3/3
f 150/3/3 142/3/3 99/3/3
f 151/2/3 144/2/3 143/2/3
f 151/3/3 143/3/3 150/3/3
f 152/3/3 145/3/3 144/3/3
f 152/2/3 144/2/3 151/2/3
f 153/3/3 145/3/3 152/3/3
f 154/1/3 147/1/3 146/1/3
f 155/3/3 148/3/3 147/3/3
f 155/1/3 147/1/3 154/1/3
f 156/2/3 149/2/3 148/2/3
f 156/3/3 148/3/3 155/3/3
f 157/3/3 111/3/3 149/3/3
f 157/2/3 149/2/3 156/2/3
f 158/2/3 151/2/3 150/2/3
f 158/3/3 150/3/3 99/3/3
f 159/3/3 152/3/3 151/3/3
f 159/2/3 151/2/3 158/2/3
f 160/1/3 153/1/3 152/1/3
f 160/3/3 152/3/3 159/3/3
f 161/1/3 153/1/3 160/1/3
f 165/3/3 155/3/3 154/3/3
f 166/2/3 156/2/3 155/2/3
f 166/3/3 155/3/3 165/3/3
f 167/3/3 157/3/3 156/3/3
f 167/2/3 156/2/3 166/2/3
f 168/3/3 111/3/3 157/3/3
f 168/3/3 157/3/3 167/3/3
f 169/3/3 159/3/3 158/3/3
f 169/3/3 158/3/3 99/3/3
f 170/2/3 160/2/3 159/2/3
f 170/3/3 159/3/3 169/3/3
f 171/3/3 161/3/3 160/3/3
f 171/2/3 160/2/3 170/2/3
f 172/2/3 162/2/3 161/2/3
f 172/3/3 161/3/3 171/3/3
f 173/3/3 163/3/3 162/3/3
f 173/2/3 162/2/3 172/2/3
f 174/2/3 164/2/3 163/2/3
f 174/3/3 163/3/3 173/3/3
f 175/3/3 165/3/3 164/3/3
f 175/2/3 164/2/3 174/2/3
f 176/2/3 166/2/3 165/2/3
f 176/3/3 165/3/3 175/3/3
f 177/3/3 167/3/3 166/3/3
f 177/2/3 166/2/3 176/2/3
f 178/2/3 168/2/3 167/2/3
f 178/3/3 167/3/3 177/3/3
f 179/3/3 111/3/3 168/3/3
f 179/2/3 168/2/3 178/2/3
f 180/3/3 169/3/3 99/3/3
f 181/2/3 170/2/3 169/2/3
f 181/3/3 169/3/3 180/3/3
f 182/3/3 171/3/3 170/3/3
f 182/2/3 170/2/3 181/2/3
f 183/2/3 172/2/3 171/2/3
f 183/3/3 171/3/3 182/3/3
f 184/3/3 173/3/3 172/3/3
f 184/2/3 172/2/3 183/2/3
f 185/2/3 174/2/3 173/2/3
f 185/3/3 173/3/3 184/3/3
f 186/3/3 175/3/3 174/3/3
f 186/2/3 174/2/3 185/2/3
f 187/2/3 176/2/3 175/2/3
f 187/3/3 175/3/3 186/3/3
f 188/3/3 177/3/3 176/3/3
f 188/2/3 176/2/3 187/2/3
f 189/2/3 178/2/3 177/2/3
f 189/3/3 177/3/3 188/3/3
f 190/3/3 179/3/3 178/3/3
f 190/2/3 178/2/3 189/2/3
f 191/3/3 111/3/3 179/3/3
f 191/3/3 179/3/3 190/3/3
f 192/3/3 111/3/3 191/3/3
f 193/3/3 184/3/3 183/3/3
f 193/3/3 183/3/3 182/3/3
f 193/3/3 182/3/3 181/3/3
f 194/3/3 184/3/3 193/3/3
f 195/2/3 185/2/3 184/2/3
f 195/3/3 184/3/3 194/3/3
f 196/3/3 186/3/3 185/3/3
f 196/2/3 185/2/3 195/2/3
f 197/2/3 187/2/3 186/2/3
f 197/3/3 186/3/3 196/3/3
f 198/3/3 188/3/3 187/3/3
f 198/2/3 187/2/3 197/2/3
f 198/3/3 191/3/3 190/3/3
f 198/3/3 190/3/3 189/3/3
f 198/3/3 189/3/3 188/3/3
f 199/3/3 191/3/3 198/3/3
f 200/3/3 191/3/3 199/3/3
f 201/3/3 195/3/3 194/3/3
f 201/3/3 197/3/3 196/3/3
f 201/3/3 199/3/3 198/3/3
f 201/3/3 198/3/3 197/3/3
f 201/3/3 196/3/3 195/3/3
f 202/3/3 199/3/3 201/3/3
f 208/3/3 204/3/3 203/3/3
f 208/3/3 205/3/3 204/3/3
f 208/3/3 206/3/3 205/3/3
f 209/3/3 206/3/3 208/3/3
f 210/1/3 207/1/3 206/1/3
f 210/3/3 206/3/3 209/3/3
f 211/1/3 207/1/3 210/1/3
f 212/3/3 209/3/3 208/3/3
f 213/3/3 209/3/3 212/3/3
f 214/3/3 211/3/3 210/3/3
f 217/3/3 214/3/3 210/3/3
f 218/3/3 214/3/3 217/3/3
f 219/3/3 216/3/3 215/3/3
f 220/1/3 217/1/3 216/1/3
f 220/3/3 216/3/3 219/3/3
f 221/3/3 218/3/3 217/3/3
f 221/1/3 217/1/3 220/1/3
f 222/3/3 218/3/3 221/3/3
f 227/1/3 224/1/3 223/1/3
f 228/3/3 225/3/3 224/3/3
f 228/1/3 224/1/3 227/1/3
f 229/3/3 227/3/3 226/3/3
f 229/3/3 228/3/3 227/3/3
f 230/3/3 225/3/3 228/3/3
f 230/3/3 228/3/3 229/3/3
f 231/3/3 225/3/3 230/3/3
f 232/3/3 229/3/3 226/3/3
f 233/3/3 229/3/3 232/3/3
f 236/3/3 235/3/3 234/3/3
f 237/3/3 235/3/3 236/3/3
f 238/3/4 239/3/4 240/3/4
f 240/3/4 239/3/4 241/3/4
f 242/3/4 243/3/4 245/3/4
f 245/3/4 243/3/4 246/3/4
f 244/3/4 245/3/4 249/3/4
f 245/2/4 246/2/4 250/2/4
f 249/3/4 245/3/4 250/3/4
f 246/3/4 247/3/4 251/3/4
f 250/2/4 246/2/4 251/2/4
f 251/3/4 247/3/4 252/3/4
f 249/2/4 250/2/4 254/2/4
f 250/2/4 251/2/4 254/2/4
f 251/2/4 252/2/4 254/2/4
f 254/2/4 252/2/4 255/2/4
f 249/2/4 254/2/4 256/2/4
f 254/3/4 255/3/4 256/3/4
f 255/2/4 252/2/4 257/2/4
f 256/3/4 255/3/4 257/3/4
f 248/3/4 249/3/4 258/3/4
f 249/2/4 256/2/4 259/2/4
f 258/3/4 249/3/4 259/3/4
f 256/2/4 257/2/4 259/2/4
f 259/2/4 257/2/4 260/2/4
f 257/2/4 252/2/4 261/2/4
f 260/2/4 257/2/4 261/2/4
f 252/3/4 253/3/4 262/3/4
f 261/2/4 252/2/4 262/2/4
f 262/3/4 253/3/4 263/3/4
f 259/3/4 260/3/4 264/3/4
f 260/2/4 261/2/4 265/2/4
f 264/3/4 260/3/4 265/3/4
f 261/3/4 262/3/4 266/3/4
f 265/2/4 261/2/4 266/2/4
f 266/3/4 262/3/4 267/3/4
f 265/3/4 266/3/4 268/3/4
f 268/3/4 266/3/4 269/3/4
f 272/3/5 271/3/5 270/3/5
f 273/3/5 271/3/5 272/3/5
f 278/3/5 275/3/5 274/3/5
f 279/3/5 275/3/5 278/3/5
f 280/3/5 277/3/5 276/3/5
f 281/3/5 277/3/5 280/3/5
f 286/3/5 283/3/5 282/3/5
f 287/3/5 283/3/5 286/3/5
f 288/3/5 285/3/5 284/3/5
f 289/3/5 285/3/5 288/3/5
f 292/3/5 291/3/5 290/3/5
f 293/3/5 291/3/5 292/3/5
f 296/3/5 295/3/5 294/3/5
f 297/3/5 295/3/5 296/3/5
f 303/2/5 299/2/5 298/2/5
f 304/3/5 300/3/5 299/3/5
f 304/2/5 299/2/5 303/2/5
f 305/1/5 301/1/5 300/1/5
f 305/3/5 300/3/5 304/3/5
f 306/3/5 302/3/5 301/3/5
f 306/1/5 301/1/5 305/1/5
f 307/3/5 302/3/5 306/3/5
f 308/3/6 309/3/6 313/3/6
f 309/2/6 310/2/6 314/2/6
f 313/3/6 309/3/6 314/3/6
f 310/3/6 311/3/6 315/3/6
f 314/2/6 310/2/6 315/2/6
f 311/1/6 312/1/6 316/1/6
f 315/3/6 311/3/6 316/3/6
f 316/1/6 312/1/6 317/1/6
f 316/3/6 317/3/6 318/3/6
f 315/3/6 316/3/6 318/3/6
f 318/3/6 317/3/6 319/3/6
f 320/3/6 321/3/6 322/3/6
f 322/3/6 321/3/6 323/3/6
f 324/3/6 325/3/6 328/3/6
f 328/3/6 325/3/6 329/3/6
f 326/3/6 327/3/6 330/3/6
f 330/3/6 327/3/6 331/3/6
f 334/3/6 335/3/6 337/3/6
f 336/2/6 337/2/6 338/2/6
f 337/3/6 335/3/6 339/3/6
f 338/2/6 337/2/6 339/2/6
f 332/3/6 333/3/6 340/3/6
f 340/3/6 333/3/6 341/3/6
f 339/3/6 335/3/6 342/3/6
f 342/3/6 335/3/6 343/3/6
f 344/3/6 345/3/6 346/3/6
f 346/3/6 345/3/6 347/3/6
f 344/3/6 346/3/6 348/3/6
f 344/3/6 348/3/6 350/3/6
f 348/3/6 349/3/6 350/3/6
f 350/3/6 349/3/6 351/3/6
