# MagicaVoxel @ Ephtracy

# group
o 

# material
mtllib PistolWithSilencer.mtl
usemtl palette

# normals
vn -1 0 0
vn 1 0 0
vn 0 0 1
vn 0 0 -1
vn 0 -1 0
vn 0 1 0

# texcoords
vt 0.310547 0.5
vt 0.982422 0.5
vt 0.986328 0.5
vt 0.990234 0.5
vt 0.994141 0.5

# verts
v -1.6 1.3 -0.6
v -1.6 1.3 -0.8
v -1.6 1.5 -0.6
v -1.6 1.5 -0.8
v -0.9 1.2 -0.6
v -0.9 1.2 -0.8
v -0.9 1.3 -0.6
v -0.9 1.3 -0.8
v -0.9 1.5 -0.6
v -0.9 1.5 -0.8
v -0.9 1.6 -0.6
v -0.9 1.6 -0.8
v -0.7 1.6 -0.6
v -0.7 1.6 -0.8
v -0.7 1.7 -0.6
v -0.7 1.7 -0.8
v -0.3 0.9 -0.6
v -0.3 0.9 -0.8
v -0.3 1.2 -0.6
v -0.3 1.2 -0.8
v -0.1 1 -0.6
v -0.1 1 -0.8
v -0.1 1.1 -0.6
v -0.1 1.1 -0.8
v 0 1.1 -0.6
v 0 1.1 -0.8
v 0 1.2 -0.6
v 0 1.2 -0.8
v 0.1 0.5 -0.6
v 0.1 0.5 -0.8
v 0.1 0.8 -0.6
v 0.1 0.8 -0.8
v 0.1 0.9 -0.6
v 0.1 0.9 -0.8
v 0.1 1 -0.6
v 0.1 1 -0.8
v 0.1 1.1 -0.6
v 0.1 1.1 -0.8
v 0.1 1.6 -0.6
v 0.1 1.6 -0.8
v 0.1 1.7 -0.6
v 0.1 1.7 -0.8
v -0.6 1.6 -0.6
v -0.6 1.6 -0.8
v -0.6 1.7 -0.6
v -0.6 1.7 -0.8
v -0.2 1 -0.6
v -0.2 1 -0.8
v -0.2 1.2 -0.6
v -0.2 1.2 -0.8
v 0 1 -0.6
v 0 1 -0.8
v 0 1.1 -0.6
v 0 1.1 -0.8
v 0.2 1.6 -0.6
v 0.2 1.6 -0.8
v 0.2 1.7 -0.6
v 0.2 1.7 -0.8
v 0.3 1.5 -0.6
v 0.3 1.5 -0.8
v 0.3 1.6 -0.6
v 0.3 1.6 -0.8
v 0.4 1.3 -0.6
v 0.4 1.3 -0.8
v 0.4 1.4 -0.6
v 0.4 1.4 -0.8
v 0.5 1.1 -0.6
v 0.5 1.1 -0.8
v 0.5 1.3 -0.6
v 0.5 1.3 -0.8
v 0.5 1.4 -0.6
v 0.5 1.4 -0.8
v 0.5 1.5 -0.6
v 0.5 1.5 -0.8
v 0.6 0.5 -0.6
v 0.6 0.5 -0.8
v 0.6 0.6 -0.6
v 0.6 0.6 -0.8
v 0.6 1.1 -0.6
v 0.6 1.1 -0.8
v -1.6 1.3 -0.6
v -1.6 1.5 -0.6
v -0.9 1.2 -0.6
v -0.9 1.3 -0.6
v -0.9 1.5 -0.6
v -0.9 1.6 -0.6
v -0.7 1.6 -0.6
v -0.7 1.7 -0.6
v -0.6 1.6 -0.6
v -0.6 1.7 -0.6
v -0.3 0.9 -0.6
v -0.3 1.2 -0.6
v -0.2 1 -0.6
v -0.2 1.2 -0.6
v -0.1 1 -0.6
v -0.1 1.1 -0.6
v 0 1 -0.6
v 0 1.1 -0.6
v 0 1.2 -0.6
v 0.1 0.5 -0.6
v 0.1 0.8 -0.6
v 0.1 0.9 -0.6
v 0.1 1 -0.6
v 0.1 1.1 -0.6
v 0.1 1.2 -0.6
v 0.1 1.6 -0.6
v 0.1 1.7 -0.6
v 0.2 0.6 -0.6
v 0.2 0.8 -0.6
v 0.2 1.6 -0.6
v 0.2 1.7 -0.6
v 0.3 1.5 -0.6
v 0.3 1.6 -0.6
v 0.4 1.2 -0.6
v 0.4 1.3 -0.6
v 0.4 1.4 -0.6
v 0.4 1.5 -0.6
v 0.5 1.1 -0.6
v 0.5 1.3 -0.6
v 0.5 1.4 -0.6
v 0.5 1.5 -0.6
v 0.6 0.5 -0.6
v 0.6 0.6 -0.6
v 0.6 1.1 -0.6
v -1.6 1.3 -0.8
v -1.6 1.5 -0.8
v -0.9 1.2 -0.8
v -0.9 1.3 -0.8
v -0.9 1.5 -0.8
v -0.9 1.6 -0.8
v -0.7 1.6 -0.8
v -0.7 1.7 -0.8
v -0.6 1.6 -0.8
v -0.6 1.7 -0.8
v -0.3 0.9 -0.8
v -0.3 1.2 -0.8
v -0.2 1 -0.8
v -0.2 1.2 -0.8
v -0.1 1 -0.8
v -0.1 1.1 -0.8
v 0 1 -0.8
v 0 1.1 -0.8
v 0 1.2 -0.8
v 0 1.4 -0.8
v 0 1.5 -0.8
v 0.1 0.5 -0.8
v 0.1 0.8 -0.8
v 0.1 0.9 -0.8
v 0.1 1 -0.8
v 0.1 1.1 -0.8
v 0.1 1.2 -0.8
v 0.1 1.6 -0.8
v 0.1 1.7 -0.8
v 0.2 0.6 -0.8
v 0.2 0.8 -0.8
v 0.2 1.4 -0.8
v 0.2 1.5 -0.8
v 0.2 1.6 -0.8
v 0.2 1.7 -0.8
v 0.3 1.5 -0.8
v 0.3 1.6 -0.8
v 0.4 1.2 -0.8
v 0.4 1.3 -0.8
v 0.4 1.4 -0.8
v 0.4 1.5 -0.8
v 0.5 1.1 -0.8
v 0.5 1.3 -0.8
v 0.5 1.4 -0.8
v 0.5 1.5 -0.8
v 0.6 0.5 -0.8
v 0.6 0.6 -0.8
v 0.6 1.1 -0.8
v 0.1 0.5 -0.6
v 0.6 0.5 -0.6
v 0.1 0.5 -0.8
v 0.6 0.5 -0.8
v -0.3 0.9 -0.6
v 0.1 0.9 -0.6
v -0.3 0.9 -0.8
v 0.1 0.9 -0.8
v 0 1.1 -0.6
v 0.1 1.1 -0.6
v 0 1.1 -0.8
v 0.1 1.1 -0.8
v -0.9 1.2 -0.6
v -0.3 1.2 -0.6
v -0.2 1.2 -0.6
v 0 1.2 -0.6
v -0.9 1.2 -0.8
v -0.3 1.2 -0.8
v -0.2 1.2 -0.8
v 0 1.2 -0.8
v -1.6 1.3 -0.6
v -0.9 1.3 -0.6
v -1.6 1.3 -0.8
v -0.9 1.3 -0.8
v 0.4 1.4 -0.6
v 0.5 1.4 -0.6
v 0.4 1.4 -0.8
v 0.5 1.4 -0.8
v -0.2 1 -0.6
v -0.1 1 -0.6
v 0 1 -0.6
v 0.1 1 -0.6
v -0.2 1 -0.8
v -0.1 1 -0.8
v 0 1 -0.8
v 0.1 1 -0.8
v -0.1 1.1 -0.6
v 0 1.1 -0.6
v 0.5 1.1 -0.6
v 0.6 1.1 -0.6
v -0.1 1.1 -0.8
v 0 1.1 -0.8
v 0.5 1.1 -0.8
v 0.6 1.1 -0.8
v 0.4 1.3 -0.6
v 0.5 1.3 -0.6
v 0.4 1.3 -0.8
v 0.5 1.3 -0.8
v -1.6 1.5 -0.6
v -0.9 1.5 -0.6
v 0.3 1.5 -0.6
v 0.4 1.5 -0.6
v 0.5 1.5 -0.6
v -1.6 1.5 -0.8
v -0.9 1.5 -0.8
v 0.3 1.5 -0.8
v 0.4 1.5 -0.8
v 0.5 1.5 -0.8
v -0.9 1.6 -0.6
v -0.7 1.6 -0.6
v -0.6 1.6 -0.6
v 0.1 1.6 -0.6
v 0.2 1.6 -0.6
v 0.3 1.6 -0.6
v -0.9 1.6 -0.8
v -0.7 1.6 -0.8
v -0.6 1.6 -0.8
v 0.1 1.6 -0.8
v 0.2 1.6 -0.8
v 0.3 1.6 -0.8
v -0.7 1.7 -0.6
v -0.6 1.7 -0.6
v 0.1 1.7 -0.6
v 0.2 1.7 -0.6
v -0.7 1.7 -0.8
v -0.6 1.7 -0.8
v 0.1 1.7 -0.8
v 0.2 1.7 -0.8

# faces
f 3/4/1 2/4/1 1/4/1
f 4/4/1 2/4/1 3/4/1
f 7/4/1 6/4/1 5/4/1
f 8/4/1 6/4/1 7/4/1
f 11/3/1 10/3/1 9/3/1
f 12/3/1 10/3/1 11/3/1
f 15/4/1 14/4/1 13/4/1
f 16/4/1 14/4/1 15/4/1
f 19/5/1 18/5/1 17/5/1
f 20/5/1 18/5/1 19/5/1
f 23/4/1 22/4/1 21/4/1
f 24/4/1 22/4/1 23/4/1
f 27/4/1 26/4/1 25/4/1
f 28/4/1 26/4/1 27/4/1
f 31/5/1 30/5/1 29/5/1
f 32/5/1 30/5/1 31/5/1
f 33/1/1 32/1/1 31/1/1
f 34/1/1 32/1/1 33/1/1
f 37/1/1 36/1/1 35/1/1
f 38/1/1 36/1/1 37/1/1
f 41/4/1 40/4/1 39/4/1
f 42/4/1 40/4/1 41/4/1
f 43/4/2 44/4/2 45/4/2
f 45/4/2 44/4/2 46/4/2
f 47/5/2 48/5/2 49/5/2
f 49/5/2 48/5/2 50/5/2
f 51/4/2 52/4/2 53/4/2
f 53/4/2 52/4/2 54/4/2
f 55/4/2 56/4/2 57/4/2
f 57/4/2 56/4/2 58/4/2
f 59/3/2 60/3/2 61/3/2
f 61/3/2 60/3/2 62/3/2
f 63/3/2 64/3/2 65/3/2
f 65/3/2 64/3/2 66/3/2
f 67/1/2 68/1/2 69/1/2
f 69/1/2 68/1/2 70/1/2
f 71/4/2 72/4/2 73/4/2
f 73/4/2 72/4/2 74/4/2
f 75/5/2 76/5/2 77/5/2
f 77/5/2 76/5/2 78/5/2
f 77/1/2 78/1/2 79/1/2
f 79/1/2 78/1/2 80/1/2
f 84/4/3 82/4/3 81/4/3
f 85/4/3 82/4/3 84/4/3
f 87/3/3 85/3/3 84/3/3
f 87/3/3 86/3/3 85/3/3
f 89/3/3 87/3/3 84/3/3
f 89/4/3 88/4/3 87/4/3
f 90/4/3 88/4/3 89/4/3
f 92/4/3 84/4/3 83/4/3
f 93/5/3 92/5/3 91/5/3
f 94/4/3 84/4/3 92/4/3
f 94/5/3 92/5/3 93/5/3
f 95/5/3 93/5/3 91/5/3
f 97/5/3 95/5/3 91/5/3
f 97/4/3 96/4/3 95/4/3
f 98/4/3 96/4/3 97/4/3
f 99/4/3 84/4/3 94/4/3
f 102/5/3 97/5/3 91/5/3
f 103/5/3 97/5/3 102/5/3
f 104/4/3 99/4/3 98/4/3
f 105/4/3 84/4/3 99/4/3
f 105/4/3 99/4/3 104/4/3
f 106/3/3 89/3/3 84/3/3
f 108/5/3 101/5/3 100/5/3
f 109/1/3 103/1/3 102/1/3
f 109/5/3 101/5/3 108/5/3
f 109/1/3 104/1/3 103/1/3
f 109/1/3 102/1/3 101/1/3
f 109/1/3 105/1/3 104/1/3
f 110/4/3 107/4/3 106/4/3
f 110/3/3 106/3/3 84/3/3
f 111/4/3 107/4/3 110/4/3
f 112/3/3 110/3/3 84/3/3
f 113/3/3 110/3/3 112/3/3
f 114/4/3 84/4/3 105/4/3
f 114/1/3 105/1/3 109/1/3
f 114/1/3 109/1/3 108/1/3
f 115/3/3 112/3/3 84/3/3
f 115/4/3 84/4/3 114/4/3
f 116/3/3 112/3/3 115/3/3
f 117/3/3 112/3/3 116/3/3
f 118/1/3 114/1/3 108/1/3
f 118/1/3 115/1/3 114/1/3
f 119/1/3 115/1/3 118/1/3
f 120/4/3 117/4/3 116/4/3
f 121/4/3 117/4/3 120/4/3
f 122/5/3 108/5/3 100/5/3
f 123/1/3 118/1/3 108/1/3
f 123/5/3 108/5/3 122/5/3
f 124/1/3 118/1/3 123/1/3
f 125/4/4 126/4/4 128/4/4
f 128/4/4 126/4/4 129/4/4
f 128/3/4 129/3/4 131/3/4
f 129/3/4 130/3/4 131/3/4
f 128/3/4 131/3/4 133/3/4
f 131/4/4 132/4/4 133/4/4
f 133/4/4 132/4/4 134/4/4
f 127/4/4 128/4/4 136/4/4
f 135/5/4 136/5/4 137/5/4
f 136/4/4 128/4/4 138/4/4
f 137/5/4 136/5/4 138/5/4
f 135/5/4 137/5/4 139/5/4
f 135/5/4 139/5/4 141/5/4
f 139/4/4 140/4/4 141/4/4
f 141/4/4 140/4/4 142/4/4
f 138/4/4 128/4/4 143/4/4
f 128/3/4 133/3/4 144/3/4
f 144/3/4 133/3/4 145/3/4
f 135/5/4 141/5/4 148/5/4
f 148/5/4 141/5/4 149/5/4
f 142/4/4 143/4/4 150/4/4
f 143/4/4 128/4/4 151/4/4
f 150/4/4 143/4/4 151/4/4
f 145/3/4 133/3/4 152/3/4
f 146/5/4 147/5/4 154/5/4
f 148/1/4 149/1/4 155/1/4
f 154/5/4 147/5/4 155/5/4
f 149/1/4 150/1/4 155/1/4
f 147/1/4 148/1/4 155/1/4
f 150/1/4 151/1/4 155/1/4
f 128/3/4 144/3/4 156/3/4
f 144/2/4 145/2/4 156/2/4
f 145/3/4 152/3/4 157/3/4
f 156/2/4 145/2/4 157/2/4
f 152/4/4 153/4/4 158/4/4
f 157/3/4 152/3/4 158/3/4
f 158/4/4 153/4/4 159/4/4
f 156/3/4 157/3/4 160/3/4
f 157/3/4 158/3/4 160/3/4
f 160/3/4 158/3/4 161/3/4
f 151/4/4 128/4/4 162/4/4
f 155/1/4 151/1/4 162/1/4
f 154/1/4 155/1/4 162/1/4
f 128/3/4 156/3/4 163/3/4
f 162/4/4 128/4/4 163/4/4
f 156/3/4 160/3/4 163/3/4
f 163/3/4 160/3/4 164/3/4
f 164/3/4 160/3/4 165/3/4
f 154/1/4 162/1/4 166/1/4
f 162/1/4 163/1/4 166/1/4
f 166/1/4 163/1/4 167/1/4
f 164/4/4 165/4/4 168/4/4
f 168/4/4 165/4/4 169/4/4
f 146/5/4 154/5/4 170/5/4
f 154/1/4 166/1/4 171/1/4
f 170/5/4 154/5/4 171/5/4
f 171/1/4 166/1/4 172/1/4
f 175/5/5 174/5/5 173/5/5
f 176/5/5 174/5/5 175/5/5
f 179/5/5 178/5/5 177/5/5
f 180/5/5 178/5/5 179/5/5
f 183/4/5 182/4/5 181/4/5
f 184/4/5 182/4/5 183/4/5
f 189/4/5 186/4/5 185/4/5
f 190/4/5 186/4/5 189/4/5
f 191/4/5 188/4/5 187/4/5
f 192/4/5 188/4/5 191/4/5
f 195/4/5 194/4/5 193/4/5
f 196/4/5 194/4/5 195/4/5
f 199/4/5 198/4/5 197/4/5
f 200/4/5 198/4/5 199/4/5
f 201/5/6 202/5/6 205/5/6
f 205/5/6 202/5/6 206/5/6
f 203/5/6 204/5/6 207/5/6
f 207/5/6 204/5/6 208/5/6
f 209/4/6 210/4/6 213/4/6
f 213/4/6 210/4/6 214/4/6
f 211/1/6 212/1/6 215/1/6
f 215/1/6 212/1/6 216/1/6
f 217/1/6 218/1/6 219/1/6
f 219/1/6 218/1/6 220/1/6
f 221/4/6 222/4/6 226/4/6
f 226/4/6 222/4/6 227/4/6
f 223/3/6 224/3/6 228/3/6
f 224/4/6 225/4/6 229/4/6
f 228/3/6 224/3/6 229/3/6
f 229/4/6 225/4/6 230/4/6
f 231/3/6 232/3/6 237/3/6
f 237/3/6 232/3/6 238/3/6
f 233/3/6 234/3/6 239/3/6
f 239/3/6 234/3/6 240/3/6
f 235/3/6 236/3/6 241/3/6
f 241/3/6 236/3/6 242/3/6
f 243/4/6 244/4/6 247/4/6
f 247/4/6 244/4/6 248/4/6
f 245/4/6 246/4/6 249/4/6
f 249/4/6 246/4/6 250/4/6
