# MagicaVoxel @ Ephtracy

# group
o 

# material
mtllib CSHTRUN-0.mtl
usemtl palette

# normals
vn -1 0 0
vn 1 0 0
vn 0 0 1
vn 0 0 -1
vn 0 -1 0
vn 0 1 0

# texcoords
vt 0.951172 0.5
vt 0.982422 0.5
vt 0.990234 0.5

# verts
v 0 1.5 0.4
v 0 1.5 0
v 0 1.6 0.4
v 0 1.6 0
v 0.1 1.4 0.4
v 0.1 1.4 0
v 0.1 1.5 0.4
v 0.1 1.5 0
v 0.2 1.3 0.4
v 0.2 1.3 0
v 0.2 1.4 0.4
v 0.2 1.4 0
v 0.3 1.2 0.4
v 0.3 1.2 0
v 0.3 1.3 0.4
v 0.3 1.3 0
v 0.4 0 0.7
v 0.4 0 0
v 0.4 0.2 0.7
v 0.4 0.2 0.4
v 0.4 0.3 0.4
v 0.4 0.3 0
v 0.4 0.7 0.5
v 0.4 0.7 0.4
v 0.4 0.7 0
v 0.4 1 0.5
v 0.4 1 0.4
v 0.4 1 0
v 0.4 1.2 0.4
v 0.4 1.2 0
v 0.8 0 0.7
v 0.8 0 0
v 0.8 0.2 0.7
v 0.8 0.2 0.4
v 0.8 0.3 0.4
v 0.8 0.3 0
v 0.8 0.7 0.5
v 0.8 0.7 0.4
v 0.8 0.7 0
v 0.8 1 0.5
v 0.8 1 0.4
v 0.8 1 0
v 0.8 1.6 0.4
v 0.8 1.6 0
v 0.4 0 0.7
v 0.4 0.2 0.7
v 0.8 0 0.7
v 0.8 0.2 0.7
v 0.4 0.7 0.5
v 0.4 1 0.5
v 0.8 0.7 0.5
v 0.8 1 0.5
v 0 1.5 0.4
v 0 1.6 0.4
v 0.1 1.4 0.4
v 0.1 1.5 0.4
v 0.2 1.3 0.4
v 0.2 1.4 0.4
v 0.3 1.2 0.4
v 0.3 1.3 0.4
v 0.4 0.2 0.4
v 0.4 0.3 0.4
v 0.4 0.7 0.4
v 0.4 1 0.4
v 0.4 1.2 0.4
v 0.8 0.2 0.4
v 0.8 0.3 0.4
v 0.8 0.7 0.4
v 0.8 1 0.4
v 0.8 1.6 0.4
v 0 1.5 0
v 0 1.6 0
v 0.1 1.4 0
v 0.1 1.5 0
v 0.2 1.3 0
v 0.2 1.4 0
v 0.3 1.2 0
v 0.3 1.3 0
v 0.4 0 0
v 0.4 0.3 0
v 0.4 0.7 0
v 0.4 1 0
v 0.4 1.2 0
v 0.5 0.8 0
v 0.5 0.9 0
v 0.7 0.8 0
v 0.7 0.9 0
v 0.8 0 0
v 0.8 0.3 0
v 0.8 0.7 0
v 0.8 1 0
v 0.8 1.6 0
v 0.4 0 0.7
v 0.8 0 0.7
v 0.4 0 0
v 0.8 0 0
v 0.4 0.7 0.5
v 0.8 0.7 0.5
v 0.4 0.7 0.4
v 0.8 0.7 0.4
v 0.3 1.2 0.4
v 0.4 1.2 0.4
v 0.3 1.2 0
v 0.4 1.2 0
v 0.2 1.3 0.4
v 0.3 1.3 0.4
v 0.2 1.3 0
v 0.3 1.3 0
v 0.1 1.4 0.4
v 0.2 1.4 0.4
v 0.1 1.4 0
v 0.2 1.4 0
v 0 1.5 0.4
v 0.1 1.5 0.4
v 0 1.5 0
v 0.1 1.5 0
v 0.4 0.2 0.7
v 0.8 0.2 0.7
v 0.4 0.2 0.4
v 0.8 0.2 0.4
v 0.4 1 0.5
v 0.8 1 0.5
v 0.4 1 0.4
v 0.8 1 0.4
v 0 1.6 0.4
v 0.8 1.6 0.4
v 0.1 1.6 0.3
v 0.7 1.6 0.3
v 0.1 1.6 0.1
v 0.7 1.6 0.1
v 0 1.6 0
v 0.8 1.6 0

# faces
f 3/2/1 2/2/1 1/2/1
f 4/2/1 2/2/1 3/2/1
f 7/2/1 6/2/1 5/2/1
f 8/2/1 6/2/1 7/2/1
f 11/2/1 10/2/1 9/2/1
f 12/2/1 10/2/1 11/2/1
f 15/2/1 14/2/1 13/2/1
f 16/2/1 14/2/1 15/2/1
f 19/3/1 18/3/1 17/3/1
f 20/3/1 18/3/1 19/3/1
f 21/3/1 18/3/1 20/3/1
f 22/3/1 18/3/1 21/3/1
f 24/2/1 22/2/1 21/2/1
f 25/2/1 22/2/1 24/2/1
f 26/3/1 24/3/1 23/3/1
f 26/3/1 25/3/1 24/3/1
f 27/3/1 25/3/1 26/3/1
f 28/3/1 25/3/1 27/3/1
f 29/2/1 28/2/1 27/2/1
f 30/2/1 28/2/1 29/2/1
f 31/3/2 32/3/2 33/3/2
f 33/3/2 32/3/2 34/3/2
f 34/3/2 32/3/2 35/3/2
f 35/3/2 32/3/2 36/3/2
f 35/2/2 36/2/2 38/2/2
f 38/2/2 36/2/2 39/2/2
f 37/3/2 38/3/2 40/3/2
f 38/3/2 39/3/2 40/3/2
f 40/3/2 39/3/2 41/3/2
f 41/3/2 39/3/2 42/3/2
f 41/2/2 42/2/2 43/2/2
f 43/2/2 42/2/2 44/2/2
f 47/3/3 46/3/3 45/3/3
f 48/3/3 46/3/3 47/3/3
f 51/3/3 50/3/3 49/3/3
f 52/3/3 50/3/3 51/3/3
f 56/2/3 54/2/3 53/2/3
f 58/2/3 56/2/3 55/2/3
f 60/2/3 58/2/3 57/2/3
f 65/2/3 60/2/3 59/2/3
f 66/3/3 62/3/3 61/3/3
f 67/2/3 63/2/3 62/2/3
f 67/3/3 62/3/3 66/3/3
f 68/2/3 63/2/3 67/2/3
f 69/2/3 65/2/3 64/2/3
f 70/2/3 54/2/3 56/2/3
f 70/2/3 65/2/3 69/2/3
f 70/2/3 56/2/3 58/2/3
f 70/2/3 58/2/3 60/2/3
f 70/2/3 60/2/3 65/2/3
f 71/2/4 72/2/4 74/2/4
f 73/2/4 74/2/4 76/2/4
f 75/2/4 76/2/4 78/2/4
f 77/2/4 78/2/4 83/2/4
f 81/3/4 82/3/4 84/3/4
f 84/3/4 82/3/4 85/3/4
f 81/3/4 84/3/4 86/3/4
f 84/2/4 85/2/4 86/2/4
f 85/3/4 82/3/4 87/3/4
f 86/2/4 85/2/4 87/2/4
f 79/3/4 80/3/4 88/3/4
f 80/2/4 81/2/4 89/2/4
f 88/3/4 80/3/4 89/3/4
f 81/3/4 86/3/4 90/3/4
f 89/2/4 81/2/4 90/2/4
f 86/3/4 87/3/4 90/3/4
f 82/2/4 83/2/4 91/2/4
f 90/3/4 87/3/4 91/3/4
f 87/3/4 82/3/4 91/3/4
f 74/2/4 72/2/4 92/2/4
f 91/2/4 83/2/4 92/2/4
f 76/2/4 74/2/4 92/2/4
f 83/2/4 78/2/4 92/2/4
f 78/2/4 76/2/4 92/2/4
f 95/3/5 94/3/5 93/3/5
f 96/3/5 94/3/5 95/3/5
f 99/3/5 98/3/5 97/3/5
f 100/3/5 98/3/5 99/3/5
f 103/2/5 102/2/5 101/2/5
f 104/2/5 102/2/5 103/2/5
f 107/2/5 106/2/5 105/2/5
f 108/2/5 106/2/5 107/2/5
f 111/2/5 110/2/5 109/2/5
f 112/2/5 110/2/5 111/2/5
f 115/2/5 114/2/5 113/2/5
f 116/2/5 114/2/5 115/2/5
f 117/3/6 118/3/6 119/3/6
f 119/3/6 118/3/6 120/3/6
f 121/3/6 122/3/6 123/3/6
f 123/3/6 122/3/6 124/3/6
f 125/2/6 126/2/6 127/2/6
f 127/2/6 126/2/6 128/2/6
f 125/2/6 127/2/6 129/2/6
f 127/3/6 128/3/6 129/3/6
f 128/2/6 126/2/6 130/2/6
f 129/3/6 128/3/6 130/3/6
f 125/2/6 129/2/6 131/2/6
f 129/2/6 130/2/6 131/2/6
f 130/2/6 126/2/6 132/2/6
f 131/2/6 130/2/6 132/2/6
