# MagicaVoxel @ Ephtracy

# group
o 

# material
mtllib CSHTRUN-4.mtl
usemtl palette

# normals
vn -1 0 0
vn 1 0 0
vn 0 0 1
vn 0 0 -1
vn 0 -1 0
vn 0 1 0

# texcoords
vt 0.373047 0.5
vt 0.955078 0.5

# verts
v -0.5 3.6 0.5
v -0.5 3.6 -0.2
v -0.5 3.9 0.8
v -0.5 3.9 0.5
v -0.5 4 0.8
v -0.5 4 -0.2
v -0.4 3.4 0.5
v -0.4 3.4 -0.1
v -0.4 3.6 0.5
v -0.4 3.6 -0.1
v -0.4 4 0.5
v -0.4 4 -0.1
v -0.4 4.1 0.5
v -0.4 4.1 -0.1
v -0.3 3.3 0.4
v -0.3 3.3 0
v -0.3 3.4 0.4
v -0.3 3.4 0
v 0.3 3.3 0.4
v 0.3 3.3 0
v 0.3 3.4 0.4
v 0.3 3.4 0
v 0.4 3.4 0.5
v 0.4 3.4 -0.1
v 0.4 3.6 0.5
v 0.4 3.6 -0.1
v 0.4 4 0.5
v 0.4 4 -0.1
v 0.4 4.1 0.5
v 0.4 4.1 -0.1
v 0.5 3.6 0.5
v 0.5 3.6 -0.2
v 0.5 3.9 0.8
v 0.5 3.9 0.5
v 0.5 4 0.8
v 0.5 4 -0.2
v -0.5 3.9 0.8
v -0.5 4 0.8
v 0.5 3.9 0.8
v 0.5 4 0.8
v -0.5 3.6 0.5
v -0.5 3.9 0.5
v -0.4 3.4 0.5
v -0.4 3.6 0.5
v -0.4 3.9 0.5
v -0.4 4 0.5
v -0.4 4.1 0.5
v 0.4 3.4 0.5
v 0.4 3.6 0.5
v 0.4 3.9 0.5
v 0.4 4 0.5
v 0.4 4.1 0.5
v 0.5 3.6 0.5
v 0.5 3.9 0.5
v -0.3 3.3 0.4
v -0.3 3.4 0.4
v 0.3 3.3 0.4
v 0.3 3.4 0.4
v -0.3 3.3 0
v -0.3 3.4 0
v 0.3 3.3 0
v 0.3 3.4 0
v -0.4 3.4 -0.1
v -0.4 3.6 -0.1
v -0.4 4 -0.1
v -0.4 4.1 -0.1
v 0.4 3.4 -0.1
v 0.4 3.6 -0.1
v 0.4 4 -0.1
v 0.4 4.1 -0.1
v -0.5 3.6 -0.2
v -0.5 4 -0.2
v 0.5 3.6 -0.2
v 0.5 4 -0.2
v -0.3 3.3 0.4
v 0.3 3.3 0.4
v -0.3 3.3 0
v 0.3 3.3 0
v -0.4 3.4 0.5
v 0.4 3.4 0.5
v -0.3 3.4 0.4
v 0.3 3.4 0.4
v -0.3 3.4 0
v 0.3 3.4 0
v -0.4 3.4 -0.1
v 0.4 3.4 -0.1
v -0.5 3.6 0.5
v -0.4 3.6 0.5
v 0.4 3.6 0.5
v 0.5 3.6 0.5
v -0.4 3.6 -0.1
v 0.4 3.6 -0.1
v -0.5 3.6 -0.2
v 0.5 3.6 -0.2
v -0.5 3.9 0.8
v 0.5 3.9 0.8
v -0.5 3.9 0.5
v -0.4 3.9 0.5
v 0.4 3.9 0.5
v 0.5 3.9 0.5
v -0.5 4 0.8
v 0.5 4 0.8
v -0.4 4 0.5
v 0.4 4 0.5
v -0.4 4 -0.1
v 0.4 4 -0.1
v -0.5 4 -0.2
v 0.5 4 -0.2
v -0.4 4.1 0.5
v 0.4 4.1 0.5
v -0.4 4.1 -0.1
v 0.4 4.1 -0.1

# faces
f 4/2/1 2/2/1 1/2/1
f 5/2/1 4/2/1 3/2/1
f 6/2/1 2/2/1 4/2/1
f 6/2/1 4/2/1 5/2/1
f 9/1/1 8/1/1 7/1/1
f 10/1/1 8/1/1 9/1/1
f 13/2/1 12/2/1 11/2/1
f 14/2/1 12/2/1 13/2/1
f 17/1/1 16/1/1 15/1/1
f 18/1/1 16/1/1 17/1/1
f 19/1/2 20/1/2 21/1/2
f 21/1/2 20/1/2 22/1/2
f 23/1/2 24/1/2 25/1/2
f 25/1/2 24/1/2 26/1/2
f 27/2/2 28/2/2 29/2/2
f 29/2/2 28/2/2 30/2/2
f 31/2/2 32/2/2 34/2/2
f 33/2/2 34/2/2 35/2/2
f 34/2/2 32/2/2 36/2/2
f 35/2/2 34/2/2 36/2/2
f 39/2/3 38/2/3 37/2/3
f 40/2/3 38/2/3 39/2/3
f 44/2/3 42/2/3 41/2/3
f 45/2/3 42/2/3 44/2/3
f 48/1/3 44/1/3 43/1/3
f 48/1/3 45/1/3 44/1/3
f 49/1/3 45/1/3 48/1/3
f 50/1/3 45/1/3 49/1/3
f 51/2/3 47/2/3 46/2/3
f 52/2/3 47/2/3 51/2/3
f 53/2/3 50/2/3 49/2/3
f 54/2/3 50/2/3 53/2/3
f 57/1/3 56/1/3 55/1/3
f 58/1/3 56/1/3 57/1/3
f 59/1/4 60/1/4 61/1/4
f 61/1/4 60/1/4 62/1/4
f 63/1/4 64/1/4 67/1/4
f 67/1/4 64/1/4 68/1/4
f 65/2/4 66/2/4 69/2/4
f 69/2/4 66/2/4 70/2/4
f 71/2/4 72/2/4 73/2/4
f 73/2/4 72/2/4 74/2/4
f 77/1/5 76/1/5 75/1/5
f 78/1/5 76/1/5 77/1/5
f 81/1/5 80/1/5 79/1/5
f 82/1/5 80/1/5 81/1/5
f 83/1/5 81/1/5 79/1/5
f 84/1/5 80/1/5 82/1/5
f 85/1/5 83/1/5 79/1/5
f 85/1/5 84/1/5 83/1/5
f 86/1/5 80/1/5 84/1/5
f 86/1/5 84/1/5 85/1/5
f 91/2/5 88/2/5 87/2/5
f 92/2/5 90/2/5 89/2/5
f 93/2/5 91/2/5 87/2/5
f 93/2/5 92/2/5 91/2/5
f 94/2/5 90/2/5 92/2/5
f 94/2/5 92/2/5 93/2/5
f 97/2/5 96/2/5 95/2/5
f 98/2/5 96/2/5 97/2/5
f 99/2/5 96/2/5 98/2/5
f 100/2/5 96/2/5 99/2/5
f 101/2/6 102/2/6 103/2/6
f 103/2/6 102/2/6 104/2/6
f 101/2/6 103/2/6 105/2/6
f 104/2/6 102/2/6 106/2/6
f 101/2/6 105/2/6 107/2/6
f 105/2/6 106/2/6 107/2/6
f 106/2/6 102/2/6 108/2/6
f 107/2/6 106/2/6 108/2/6
f 109/2/6 110/2/6 111/2/6
f 111/2/6 110/2/6 112/2/6
