# MagicaVoxel @ Ephtracy

# group
o 

# material
mtllib CSHTRUN-5.mtl
usemtl palette

# normals
vn -1 0 0
vn 1 0 0
vn 0 0 1
vn 0 0 -1
vn 0 -1 0
vn 0 1 0

# texcoords
vt 0.373047 0.5
vt 0.537109 0.5
vt 0.873047 0.5
vt 0.943359 0.5
vt 0.951172 0.5
vt 0.978516 0.5
vt 0.986328 0.5
vt 0.990234 0.5

# verts
v -0.9 1.9 -0.1
v -0.9 1.9 -0.5
v -0.9 2.3 -0.1
v -0.9 2.3 -0.5
v -0.9 3 0.6
v -0.9 3 0.5
v -0.9 3.2 0.6
v -0.9 3.2 0.5
v -0.8 1.6 0.4
v -0.8 1.6 0.3
v -0.8 1.6 0.1
v -0.8 1.6 5.96046e-08
v -0.8 1.7 0.5
v -0.8 1.7 0.4
v -0.8 1.7 0.3
v -0.8 1.7 0.1
v -0.8 1.7 5.96046e-08
v -0.8 1.7 -0.1
v -0.8 1.9 -0.1
v -0.8 2.3 -0.1
v -0.8 3 0.5
v -0.8 3.2 0.6
v -0.8 3.2 0.5
v -0.8 3.3 0.6
v -0.8 3.3 0.5
v -0.8 3.3 5.96046e-08
v -0.8 3.3 -0.1
v -0.8 3.4 0.5
v -0.8 3.4 5.96046e-08
v -0.7 2.3 -0.1
v -0.7 2.3 -0.5
v -0.7 3.2 -0.2
v -0.7 3.2 -0.5
v -0.7 3.3 5.96046e-08
v -0.7 3.3 -0.1
v -0.7 3.4 5.96046e-08
v -0.7 3.4 -0.2
v -0.6 1.8 -0.2
v -0.6 1.8 -0.6
v -0.6 1.9 -0.2
v -0.6 1.9 -0.5
v -0.6 3.1 -0.5
v -0.6 3.1 -0.6
v -0.5 1.9 -0.6
v -0.5 1.9 -0.7
v -0.5 2.3 -0.6
v -0.5 2.3 -0.7
v -0.5 2.7 -0.6
v -0.5 2.7 -0.7
v -0.5 2.8 -0.6
v -0.5 2.8 -0.7
v -0.5 3 -0.6
v -0.5 3 -0.7
v -0.2 3.2 -0.2
v -0.2 3.2 -0.3
v -0.2 3.3 -0.2
v -0.2 3.3 -0.3
v -0.1 1.6 0.5
v -0.1 1.6 0.4
v -0.1 1.7 0.5
v -0.1 1.7 0.4
v 0.4 3.2 -0.1
v 0.4 3.2 -0.2
v 0.4 3.3 5.96046e-08
v 0.4 3.3 -0.1
v 0.4 3.4 5.96046e-08
v 0.4 3.4 -0.2
v 0.5 3.2 0.6
v 0.5 3.2 0.5
v 0.5 3.3 0.6
v 0.5 3.3 0.5
v 0.5 3.3 5.96046e-08
v 0.5 3.4 0.5
v 0.5 3.4 5.96046e-08
v 0.6 3.1 0.6
v 0.6 3.1 0.5
v 0.6 3.2 0.6
v 0.6 3.2 0.5
v 0.7 3 0.6
v 0.7 3 0.5
v 0.7 3.1 0.6
v 0.7 3.1 0.5
v -0.8 3 0.6
v -0.8 3 0.5
v -0.8 3.1 0.6
v -0.8 3.1 0.5
v -0.7 3.1 0.6
v -0.7 3.1 0.5
v -0.7 3.2 0.6
v -0.7 3.2 0.5
v -0.6 3.2 0.6
v -0.6 3.2 0.5
v -0.6 3.3 0.6
v -0.6 3.3 0.5
v -0.6 3.3 0.1
v -0.6 3.4 0.5
v -0.6 3.4 0.1
v -0.5 3.2 -0.1
v -0.5 3.2 -0.2
v -0.5 3.3 0.1
v -0.5 3.3 -0.1
v -0.5 3.4 0.1
v -0.5 3.4 -0.2
v 0.1 1.6 0.5
v 0.1 1.6 0.4
v 0.1 1.7 0.5
v 0.1 1.7 0.4
v 0.1 3.2 -0.2
v 0.1 3.2 -0.3
v 0.1 3.3 -0.2
v 0.1 3.3 -0.3
v 0.4 1.9 -0.6
v 0.4 1.9 -0.7
v 0.4 2 -0.6
v 0.4 2 -0.7
v 0.4 3 -0.6
v 0.4 3 -0.7
v 0.5 1.8 -0.5
v 0.5 1.8 -0.6
v 0.5 3.1 -0.5
v 0.5 3.1 -0.6
v 0.6 1.8 -0.2
v 0.6 1.8 -0.5
v 0.6 1.9 -0.2
v 0.6 1.9 -0.5
v 0.6 2.3 -0.1
v 0.6 2.3 -0.5
v 0.6 3.2 -0.2
v 0.6 3.2 -0.5
v 0.6 3.3 -0.1
v 0.6 3.4 -0.1
v 0.6 3.4 -0.2
v 0.7 3.2 0.6
v 0.7 3.2 0.5
v 0.7 3.3 0.6
v 0.7 3.3 0.5
v 0.7 3.3 -0.1
v 0.7 3.4 0.5
v 0.7 3.4 -0.1
v 0.8 1.6 0.4
v 0.8 1.6 0.3
v 0.8 1.6 0.1
v 0.8 1.6 5.96046e-08
v 0.8 1.7 0.5
v 0.8 1.7 0.4
v 0.8 1.7 0.3
v 0.8 1.7 0.1
v 0.8 1.7 5.96046e-08
v 0.8 1.7 -0.1
v 0.8 1.9 -0.1
v 0.8 1.9 -0.5
v 0.8 2.3 -0.1
v 0.8 2.3 -0.5
v 0.8 3 0.6
v 0.8 3 0.5
v 0.8 3.2 0.6
v 0.8 3.2 0.5
v 0.8 3.3 0.5
v 0.8 3.3 -0.1
v -0.9 3 0.6
v -0.9 3.2 0.6
v -0.8 3 0.6
v -0.8 3.1 0.6
v -0.8 3.2 0.6
v -0.8 3.3 0.6
v -0.7 3.1 0.6
v -0.7 3.2 0.6
v -0.6 3.2 0.6
v -0.6 3.3 0.6
v 0.5 3.2 0.6
v 0.5 3.3 0.6
v 0.6 3.1 0.6
v 0.6 3.2 0.6
v 0.7 3 0.6
v 0.7 3.1 0.6
v 0.7 3.2 0.6
v 0.7 3.3 0.6
v 0.8 3 0.6
v 0.8 3.2 0.6
v -0.8 1.7 0.5
v -0.8 3 0.5
v -0.8 3.1 0.5
v -0.8 3.3 0.5
v -0.8 3.4 0.5
v -0.7 3.1 0.5
v -0.7 3.2 0.5
v -0.6 3.2 0.5
v -0.6 3.3 0.5
v -0.6 3.4 0.5
v -0.1 1.6 0.5
v -0.1 1.7 0.5
v 0.1 1.6 0.5
v 0.1 1.7 0.5
v 0.5 3.2 0.5
v 0.5 3.3 0.5
v 0.5 3.4 0.5
v 0.6 3.1 0.5
v 0.6 3.2 0.5
v 0.7 3 0.5
v 0.7 3.1 0.5
v 0.7 3.2 0.5
v 0.7 3.3 0.5
v 0.7 3.4 0.5
v 0.8 1.7 0.5
v 0.8 3 0.5
v 0.8 3.2 0.5
v 0.8 3.3 0.5
v -0.8 1.6 0.4
v -0.8 1.7 0.4
v -0.4 1.6 0.4
v -0.4 1.7 0.4
v -0.3 1.6 0.4
v -0.3 1.7 0.4
v -0.1 1.6 0.4
v -0.1 1.7 0.4
v 0.1 1.6 0.4
v 0.1 1.7 0.4
v 0.2 1.6 0.4
v 0.2 1.7 0.4
v 0.3 1.6 0.4
v 0.3 1.7 0.4
v 0.4 1.6 0.4
v 0.4 1.7 0.4
v 0.8 1.6 0.4
v 0.8 1.7 0.4
v -0.6 3.3 0.1
v -0.6 3.4 0.1
v -0.5 3.3 0.1
v -0.5 3.4 0.1
v 0.4 3.3 5.96046e-08
v 0.4 3.4 5.96046e-08
v 0.5 3.3 5.96046e-08
v 0.5 3.4 5.96046e-08
v -0.9 1.9 -0.1
v -0.9 2.3 -0.1
v -0.8 1.9 -0.1
v -0.8 2.3 -0.1
v -0.6 1.8 -0.2
v -0.6 1.9 -0.2
v -0.2 3.2 -0.2
v -0.2 3.3 -0.2
v 0.1 3.2 -0.2
v 0.1 3.3 -0.2
v 0.6 1.8 -0.2
v 0.6 1.9 -0.2
v -0.9 3 0.5
v -0.9 3.2 0.5
v -0.8 3 0.5
v -0.8 3.2 0.5
v -0.8 1.6 5.96046e-08
v -0.8 1.7 5.96046e-08
v -0.8 3.3 5.96046e-08
v -0.8 3.4 5.96046e-08
v -0.7 3.3 5.96046e-08
v -0.7 3.4 5.96046e-08
v -0.6 1.6 5.96046e-08
v -0.6 1.7 5.96046e-08
v -0.5 1.6 5.96046e-08
v -0.5 1.7 5.96046e-08
v -0.1 1.6 5.96046e-08
v -0.1 1.7 5.96046e-08
v 0.1 1.6 5.96046e-08
v 0.1 1.7 5.96046e-08
v 0.5 1.6 5.96046e-08
v 0.5 1.7 5.96046e-08
v 0.6 1.6 5.96046e-08
v 0.6 1.7 5.96046e-08
v 0.8 1.6 5.96046e-08
v 0.8 1.7 5.96046e-08
v -0.8 1.7 -0.1
v -0.8 1.9 -0.1
v -0.8 2.3 -0.1
v -0.8 3.3 -0.1
v -0.7 2.3 -0.1
v -0.7 3.3 -0.1
v -0.5 3.2 -0.1
v -0.5 3.3 -0.1
v 0.4 3.2 -0.1
v 0.4 3.3 -0.1
v 0.6 2.3 -0.1
v 0.6 3.3 -0.1
v 0.6 3.4 -0.1
v 0.7 3.3 -0.1
v 0.7 3.4 -0.1
v 0.8 1.7 -0.1
v 0.8 1.9 -0.1
v 0.8 2.3 -0.1
v 0.8 3.3 -0.1
v -0.7 3.2 -0.2
v -0.7 3.4 -0.2
v -0.5 3.2 -0.2
v -0.5 3.4 -0.2
v 0.4 3.2 -0.2
v 0.4 3.4 -0.2
v 0.6 3.2 -0.2
v 0.6 3.4 -0.2
v -0.2 3.2 -0.3
v -0.2 3.3 -0.3
v 0.1 3.2 -0.3
v 0.1 3.3 -0.3
v -0.9 1.9 -0.5
v -0.9 2.3 -0.5
v -0.7 2.3 -0.5
v -0.7 3.2 -0.5
v -0.6 1.9 -0.5
v -0.6 3.1 -0.5
v 0.5 1.8 -0.5
v 0.5 3.1 -0.5
v 0.6 1.8 -0.5
v 0.6 1.9 -0.5
v 0.6 2.3 -0.5
v 0.6 3.2 -0.5
v 0.8 1.9 -0.5
v 0.8 2.3 -0.5
v -0.6 1.8 -0.6
v -0.6 3.1 -0.6
v -0.5 1.9 -0.6
v -0.5 2.3 -0.6
v -0.5 2.7 -0.6
v -0.5 2.8 -0.6
v -0.5 3 -0.6
v 0.3 1.9 -0.6
v 0.4 1.9 -0.6
v 0.4 2 -0.6
v 0.4 3 -0.6
v 0.5 1.8 -0.6
v 0.5 3.1 -0.6
v -0.5 1.9 -0.7
v -0.5 2.3 -0.7
v -0.5 2.7 -0.7
v -0.5 2.8 -0.7
v -0.5 3 -0.7
v -0.4 2.6 -0.7
v -0.4 2.7 -0.7
v -0.4 2.8 -0.7
v -0.3 2.5 -0.7
v -0.3 2.6 -0.7
v -0.3 2.7 -0.7
v -0.2 2.3 -0.7
v -0.2 2.4 -0.7
v -0.2 2.5 -0.7
v -0.2 2.6 -0.7
v -0.1 2.3 -0.7
v -0.1 2.4 -0.7
v -0.1 2.5 -0.7
v 0 2.2 -0.7
v 0 2.3 -0.7
v 0 2.4 -0.7
v 0.1 2.1 -0.7
v 0.1 2.2 -0.7
v 0.1 2.3 -0.7
v 0.2 2 -0.7
v 0.2 2.1 -0.7
v 0.2 2.2 -0.7
v 0.3 1.9 -0.7
v 0.3 2 -0.7
v 0.3 2.1 -0.7
v 0.4 1.9 -0.7
v 0.4 2 -0.7
v 0.4 3 -0.7
v -0.1 1.6 0.5
v 0.1 1.6 0.5
v -0.8 1.6 0.4
v -0.4 1.6 0.4
v -0.3 1.6 0.4
v -0.1 1.6 0.4
v 0.1 1.6 0.4
v 0.2 1.6 0.4
v 0.3 1.6 0.4
v 0.4 1.6 0.4
v 0.8 1.6 0.4
v -0.8 1.6 0.3
v -0.4 1.6 0.3
v -0.3 1.6 0.3
v -0.1 1.6 0.3
v 0.2 1.6 0.3
v 0.3 1.6 0.3
v 0.4 1.6 0.3
v 0.8 1.6 0.3
v -0.8 1.6 0.1
v -0.6 1.6 0.1
v -0.5 1.6 0.1
v -0.1 1.6 0.1
v 0.1 1.6 0.1
v 0.5 1.6 0.1
v 0.6 1.6 0.1
v 0.8 1.6 0.1
v -0.8 1.6 5.96046e-08
v -0.6 1.6 5.96046e-08
v -0.5 1.6 5.96046e-08
v -0.1 1.6 5.96046e-08
v 0.1 1.6 5.96046e-08
v 0.5 1.6 5.96046e-08
v 0.6 1.6 5.96046e-08
v 0.8 1.6 5.96046e-08
v -0.8 1.7 0.5
v -0.1 1.7 0.5
v 0.1 1.7 0.5
v 0.8 1.7 0.5
v -0.8 1.7 0.4
v -0.4 1.7 0.4
v -0.3 1.7 0.4
v -0.1 1.7 0.4
v 0.1 1.7 0.4
v 0.2 1.7 0.4
v 0.3 1.7 0.4
v 0.4 1.7 0.4
v 0.8 1.7 0.4
v -0.8 1.7 5.96046e-08
v -0.6 1.7 5.96046e-08
v -0.5 1.7 5.96046e-08
v -0.1 1.7 5.96046e-08
v 0.1 1.7 5.96046e-08
v 0.5 1.7 5.96046e-08
v 0.6 1.7 5.96046e-08
v 0.8 1.7 5.96046e-08
v -0.8 1.7 -0.1
v 0.8 1.7 -0.1
v -0.6 1.8 -0.2
v 0.6 1.8 -0.2
v 0.5 1.8 -0.5
v 0.6 1.8 -0.5
v -0.6 1.8 -0.6
v 0.5 1.8 -0.6
v -0.9 1.9 -0.1
v -0.8 1.9 -0.1
v 0.8 1.9 -0.1
v -0.6 1.9 -0.2
v 0.6 1.9 -0.2
v -0.9 1.9 -0.5
v -0.6 1.9 -0.5
v 0.6 1.9 -0.5
v 0.8 1.9 -0.5
v -0.5 1.9 -0.6
v 0.3 1.9 -0.6
v 0.4 1.9 -0.6
v -0.5 1.9 -0.7
v 0.3 1.9 -0.7
v 0.4 1.9 -0.7
v -0.9 3 0.6
v -0.8 3 0.6
v 0.7 3 0.6
v 0.8 3 0.6
v -0.9 3 0.5
v -0.8 3 0.5
v 0.7 3 0.5
v 0.8 3 0.5
v -0.8 3.1 0.6
v -0.7 3.1 0.6
v 0.6 3.1 0.6
v 0.7 3.1 0.6
v -0.8 3.1 0.5
v -0.7 3.1 0.5
v 0.6 3.1 0.5
v 0.7 3.1 0.5
v -0.7 3.2 0.6
v -0.6 3.2 0.6
v 0.5 3.2 0.6
v 0.6 3.2 0.6
v -0.7 3.2 0.5
v -0.6 3.2 0.5
v 0.5 3.2 0.5
v 0.6 3.2 0.5
v -0.9 2.3 -0.1
v -0.8 2.3 -0.1
v -0.7 2.3 -0.1
v 0.6 2.3 -0.1
v 0.8 2.3 -0.1
v -0.9 2.3 -0.5
v -0.7 2.3 -0.5
v 0.6 2.3 -0.5
v 0.8 2.3 -0.5
v -0.5 3 -0.6
v 0.4 3 -0.6
v -0.5 3 -0.7
v 0.4 3 -0.7
v -0.6 3.1 -0.5
v 0.5 3.1 -0.5
v -0.6 3.1 -0.6
v 0.5 3.1 -0.6
v -0.9 3.2 0.6
v -0.8 3.2 0.6
v 0.7 3.2 0.6
v 0.8 3.2 0.6
v -0.9 3.2 0.5
v -0.8 3.2 0.5
v 0.7 3.2 0.5
v 0.8 3.2 0.5
v -0.5 3.2 -0.1
v 0.4 3.2 -0.1
v -0.7 3.2 -0.2
v -0.5 3.2 -0.2
v -0.2 3.2 -0.2
v 0.1 3.2 -0.2
v 0.4 3.2 -0.2
v 0.6 3.2 -0.2
v -0.2 3.2 -0.3
v 0.1 3.2 -0.3
v -0.7 3.2 -0.5
v 0.6 3.2 -0.5
v -0.8 3.3 0.6
v -0.6 3.3 0.6
v 0.5 3.3 0.6
v 0.7 3.3 0.6
v -0.8 3.3 0.5
v -0.6 3.3 0.5
v 0.5 3.3 0.5
v 0.7 3.3 0.5
v 0.8 3.3 0.5
v -0.6 3.3 0.1
v -0.5 3.3 0.1
v -0.8 3.3 5.96046e-08
v -0.7 3.3 5.96046e-08
v 0.4 3.3 5.96046e-08
v 0.5 3.3 5.96046e-08
v -0.8 3.3 -0.1
v -0.7 3.3 -0.1
v -0.5 3.3 -0.1
v 0.4 3.3 -0.1
v 0.7 3.3 -0.1
v 0.8 3.3 -0.1
v -0.2 3.3 -0.2
v 0.1 3.3 -0.2
v -0.2 3.3 -0.3
v 0.1 3.3 -0.3
v -0.8 3.4 0.5
v -0.6 3.4 0.5
v 0.5 3.4 0.5
v 0.7 3.4 0.5
v -0.6 3.4 0.1
v -0.5 3.4 0.1
v -0.8 3.4 5.96046e-08
v -0.7 3.4 5.96046e-08
v 0.4 3.4 5.96046e-08
v 0.5 3.4 5.96046e-08
v 0.6 3.4 -0.1
v 0.7 3.4 -0.1
v -0.7 3.4 -0.2
v -0.5 3.4 -0.2
v 0.4 3.4 -0.2
v 0.6 3.4 -0.2

# faces
f 3/7/1 2/7/1 1/7/1
f 4/7/1 2/7/1 3/7/1
f 7/7/1 6/7/1 5/7/1
f 8/7/1 6/7/1 7/7/1
f 14/1/1 10/1/1 9/1/1
f 15/8/1 11/8/1 10/8/1
f 15/1/1 10/1/1 14/1/1
f 16/1/1 12/1/1 11/1/1
f 16/8/1 11/8/1 15/8/1
f 17/1/1 12/1/1 16/1/1
f 19/3/1 15/3/1 14/3/1
f 19/3/1 18/3/1 17/3/1
f 19/3/1 17/3/1 16/3/1
f 19/3/1 16/3/1 15/3/1
f 19/3/1 14/3/1 13/3/1
f 20/3/1 19/3/1 13/3/1
f 21/3/1 20/3/1 13/3/1
f 23/3/1 20/3/1 21/3/1
f 24/7/1 23/7/1 22/7/1
f 25/3/1 20/3/1 23/3/1
f 25/7/1 23/7/1 24/7/1
f 26/3/1 20/3/1 25/3/1
f 27/3/1 20/3/1 26/3/1
f 28/7/1 26/7/1 25/7/1
f 29/7/1 26/7/1 28/7/1
f 32/7/1 31/7/1 30/7/1
f 33/7/1 31/7/1 32/7/1
f 35/7/1 32/7/1 30/7/1
f 36/7/1 35/7/1 34/7/1
f 37/7/1 32/7/1 35/7/1
f 37/7/1 35/7/1 36/7/1
f 40/7/1 39/7/1 38/7/1
f 41/7/1 39/7/1 40/7/1
f 42/7/1 39/7/1 41/7/1
f 43/7/1 39/7/1 42/7/1
f 46/7/1 45/7/1 44/7/1
f 47/7/1 45/7/1 46/7/1
f 48/4/1 47/4/1 46/4/1
f 49/4/1 47/4/1 48/4/1
f 50/2/1 49/2/1 48/2/1
f 51/2/1 49/2/1 50/2/1
f 52/7/1 51/7/1 50/7/1
f 53/7/1 51/7/1 52/7/1
f 56/7/1 55/7/1 54/7/1
f 57/7/1 55/7/1 56/7/1
f 60/6/1 59/6/1 58/6/1
f 61/6/1 59/6/1 60/6/1
f 65/7/1 63/7/1 62/7/1
f 66/7/1 65/7/1 64/7/1
f 67/7/1 63/7/1 65/7/1
f 67/7/1 65/7/1 66/7/1
f 70/7/1 69/7/1 68/7/1
f 71/7/1 69/7/1 70/7/1
f 73/7/1 72/7/1 71/7/1
f 74/7/1 72/7/1 73/7/1
f 77/7/1 76/7/1 75/7/1
f 78/7/1 76/7/1 77/7/1
f 81/7/1 80/7/1 79/7/1
f 82/7/1 80/7/1 81/7/1
f 83/7/2 84/7/2 85/7/2
f 85/7/2 84/7/2 86/7/2
f 87/7/2 88/7/2 89/7/2
f 89/7/2 88/7/2 90/7/2
f 91/7/2 92/7/2 93/7/2
f 93/7/2 92/7/2 94/7/2
f 94/7/2 95/7/2 96/7/2
f 96/7/2 95/7/2 97/7/2
f 98/7/2 99/7/2 101/7/2
f 100/7/2 101/7/2 102/7/2
f 101/7/2 99/7/2 103/7/2
f 102/7/2 101/7/2 103/7/2
f 104/6/2 105/6/2 106/6/2
f 106/6/2 105/6/2 107/6/2
f 108/7/2 109/7/2 110/7/2
f 110/7/2 109/7/2 111/7/2
f 112/2/2 113/2/2 114/2/2
f 114/2/2 113/2/2 115/2/2
f 114/7/2 115/7/2 116/7/2
f 116/7/2 115/7/2 117/7/2
f 118/7/2 119/7/2 120/7/2
f 120/7/2 119/7/2 121/7/2
f 122/7/2 123/7/2 124/7/2
f 124/7/2 123/7/2 125/7/2
f 126/7/2 127/7/2 128/7/2
f 128/7/2 127/7/2 129/7/2
f 126/7/2 128/7/2 130/7/2
f 130/7/2 128/7/2 131/7/2
f 131/7/2 128/7/2 132/7/2
f 133/7/2 134/7/2 135/7/2
f 135/7/2 134/7/2 136/7/2
f 136/7/2 137/7/2 138/7/2
f 138/7/2 137/7/2 139/7/2
f 140/1/2 141/1/2 145/1/2
f 141/8/2 142/8/2 146/8/2
f 145/1/2 141/1/2 146/1/2
f 142/1/2 143/1/2 147/1/2
f 146/8/2 142/8/2 147/8/2
f 147/1/2 143/1/2 148/1/2
f 145/3/2 146/3/2 150/3/2
f 148/3/2 149/3/2 150/3/2
f 147/3/2 148/3/2 150/3/2
f 146/3/2 147/3/2 150/3/2
f 144/3/2 145/3/2 150/3/2
f 144/3/2 150/3/2 152/3/2
f 150/7/2 151/7/2 152/7/2
f 152/7/2 151/7/2 153/7/2
f 144/3/2 152/3/2 155/3/2
f 154/7/2 155/7/2 156/7/2
f 155/3/2 152/3/2 157/3/2
f 156/7/2 155/7/2 157/7/2
f 157/3/2 152/3/2 158/3/2
f 158/3/2 152/3/2 159/3/2
f 162/7/3 161/7/3 160/7/3
f 163/7/3 161/7/3 162/7/3
f 164/7/3 161/7/3 163/7/3
f 166/7/3 165/7/3 164/7/3
f 166/7/3 164/7/3 163/7/3
f 167/7/3 165/7/3 166/7/3
f 168/7/3 165/7/3 167/7/3
f 169/7/3 165/7/3 168/7/3
f 173/7/3 171/7/3 170/7/3
f 175/7/3 173/7/3 172/7/3
f 176/7/3 171/7/3 173/7/3
f 176/7/3 173/7/3 175/7/3
f 177/7/3 171/7/3 176/7/3
f 178/7/3 175/7/3 174/7/3
f 178/7/3 176/7/3 175/7/3
f 179/7/3 176/7/3 178/7/3
f 185/3/3 181/3/3 180/3/3
f 185/3/3 182/3/3 181/3/3
f 187/3/3 186/3/3 185/3/3
f 188/7/3 184/7/3 183/7/3
f 189/7/3 184/7/3 188/7/3
f 191/3/3 187/3/3 185/3/3
f 191/3/3 185/3/3 180/3/3
f 191/3/3 188/3/3 187/3/3
f 192/6/3 191/6/3 190/6/3
f 193/3/3 188/3/3 191/3/3
f 193/6/3 191/6/3 192/6/3
f 194/3/3 188/3/3 193/3/3
f 195/3/3 188/3/3 194/3/3
f 197/3/3 194/3/3 193/3/3
f 198/3/3 194/3/3 197/3/3
f 199/3/3 197/3/3 193/3/3
f 200/3/3 197/3/3 199/3/3
f 202/7/3 196/7/3 195/7/3
f 203/7/3 196/7/3 202/7/3
f 204/3/3 199/3/3 193/3/3
f 205/3/3 199/3/3 204/3/3
f 206/3/3 202/3/3 201/3/3
f 207/3/3 202/3/3 206/3/3
f 210/1/3 209/1/3 208/1/3
f 211/1/3 209/1/3 210/1/3
f 212/8/3 211/8/3 210/8/3
f 213/8/3 211/8/3 212/8/3
f 214/1/3 213/1/3 212/1/3
f 215/1/3 213/1/3 214/1/3
f 218/8/3 217/8/3 216/8/3
f 219/8/3 217/8/3 218/8/3
f 220/1/3 219/1/3 218/1/3
f 221/1/3 219/1/3 220/1/3
f 222/8/3 221/8/3 220/8/3
f 223/8/3 221/8/3 222/8/3
f 224/1/3 223/1/3 222/1/3
f 225/1/3 223/1/3 224/1/3
f 228/7/3 227/7/3 226/7/3
f 229/7/3 227/7/3 228/7/3
f 232/7/3 231/7/3 230/7/3
f 233/7/3 231/7/3 232/7/3
f 236/7/3 235/7/3 234/7/3
f 237/7/3 235/7/3 236/7/3
f 242/7/3 241/7/3 240/7/3
f 243/7/3 241/7/3 242/7/3
f 244/7/3 239/7/3 238/7/3
f 245/7/3 239/7/3 244/7/3
f 246/7/4 247/7/4 248/7/4
f 248/7/4 247/7/4 249/7/4
f 252/7/4 253/7/4 254/7/4
f 254/7/4 253/7/4 255/7/4
f 250/1/4 251/1/4 256/1/4
f 256/1/4 251/1/4 257/1/4
f 256/8/4 257/8/4 258/8/4
f 258/8/4 257/8/4 259/8/4
f 258/1/4 259/1/4 260/1/4
f 260/1/4 259/1/4 261/1/4
f 260/8/4 261/8/4 262/8/4
f 262/8/4 261/8/4 263/8/4
f 262/1/4 263/1/4 264/1/4
f 264/1/4 263/1/4 265/1/4
f 264/8/4 265/8/4 266/8/4
f 266/8/4 265/8/4 267/8/4
f 266/1/4 267/1/4 268/1/4
f 268/1/4 267/1/4 269/1/4
f 272/3/4 273/3/4 274/3/4
f 274/3/4 273/3/4 275/3/4
f 276/3/4 277/3/4 278/3/4
f 278/3/4 277/3/4 279/3/4
f 280/3/4 281/3/4 283/3/4
f 281/7/4 282/7/4 283/7/4
f 283/7/4 282/7/4 284/7/4
f 270/3/4 271/3/4 285/3/4
f 285/3/4 271/3/4 286/3/4
f 280/3/4 283/3/4 287/3/4
f 287/3/4 283/3/4 288/3/4
f 289/7/4 290/7/4 291/7/4
f 291/7/4 290/7/4 292/7/4
f 293/7/4 294/7/4 295/7/4
f 295/7/4 294/7/4 296/7/4
f 297/7/4 298/7/4 299/7/4
f 299/7/4 298/7/4 300/7/4
f 301/7/4 302/7/4 303/7/4
f 301/7/4 303/7/4 305/7/4
f 303/7/4 304/7/4 305/7/4
f 305/7/4 304/7/4 306/7/4
f 306/7/4 304/7/4 308/7/4
f 307/7/4 308/7/4 309/7/4
f 309/7/4 308/7/4 310/7/4
f 310/7/4 308/7/4 311/7/4
f 308/7/4 304/7/4 312/7/4
f 311/7/4 308/7/4 312/7/4
f 310/7/4 311/7/4 313/7/4
f 313/7/4 311/7/4 314/7/4
f 315/7/4 316/7/4 317/7/4
f 317/7/4 316/7/4 318/7/4
f 318/7/4 316/7/4 319/7/4
f 319/7/4 316/7/4 320/7/4
f 320/7/4 316/7/4 321/7/4
f 315/7/4 317/7/4 322/7/4
f 315/7/4 322/7/4 323/7/4
f 321/7/4 316/7/4 325/7/4
f 323/7/4 324/7/4 326/7/4
f 324/7/4 325/7/4 326/7/4
f 315/7/4 323/7/4 326/7/4
f 325/7/4 316/7/4 327/7/4
f 326/7/4 325/7/4 327/7/4
f 329/4/4 330/4/4 333/4/4
f 330/2/4 331/2/4 334/2/4
f 333/4/4 330/4/4 334/4/4
f 331/7/4 332/7/4 335/7/4
f 334/2/4 331/2/4 335/2/4
f 329/4/4 333/4/4 336/4/4
f 333/2/4 334/2/4 337/2/4
f 336/4/4 333/4/4 337/4/4
f 334/7/4 335/7/4 338/7/4
f 337/2/4 334/2/4 338/2/4
f 328/7/4 329/7/4 339/7/4
f 329/4/4 336/4/4 339/4/4
f 339/4/4 336/4/4 340/4/4
f 336/2/4 337/2/4 341/2/4
f 340/4/4 336/4/4 341/4/4
f 337/7/4 338/7/4 342/7/4
f 341/2/4 337/2/4 342/2/4
f 339/7/4 340/7/4 343/7/4
f 328/7/4 339/7/4 343/7/4
f 340/2/4 341/2/4 344/2/4
f 343/7/4 340/7/4 344/7/4
f 341/7/4 342/7/4 345/7/4
f 344/2/4 341/2/4 345/2/4
f 328/7/4 343/7/4 346/7/4
f 343/2/4 344/2/4 347/2/4
f 346/7/4 343/7/4 347/7/4
f 344/7/4 345/7/4 348/7/4
f 347/2/4 344/2/4 348/2/4
f 328/7/4 346/7/4 349/7/4
f 346/2/4 347/2/4 350/2/4
f 349/7/4 346/7/4 350/7/4
f 347/7/4 348/7/4 351/7/4
f 350/2/4 347/2/4 351/2/4
f 328/7/4 349/7/4 352/7/4
f 349/2/4 350/2/4 353/2/4
f 352/7/4 349/7/4 353/7/4
f 350/7/4 351/7/4 354/7/4
f 353/2/4 350/2/4 354/2/4
f 328/7/4 352/7/4 355/7/4
f 352/2/4 353/2/4 356/2/4
f 355/7/4 352/7/4 356/7/4
f 353/7/4 354/7/4 357/7/4
f 356/2/4 353/2/4 357/2/4
f 355/2/4 356/2/4 358/2/4
f 356/7/4 357/7/4 359/7/4
f 358/2/4 356/2/4 359/2/4
f 338/7/4 335/7/4 360/7/4
f 359/7/4 357/7/4 360/7/4
f 345/7/4 342/7/4 360/7/4
f 335/7/4 332/7/4 360/7/4
f 357/7/4 354/7/4 360/7/4
f 342/7/4 338/7/4 360/7/4
f 354/7/4 351/7/4 360/7/4
f 351/7/4 348/7/4 360/7/4
f 348/7/4 345/7/4 360/7/4
f 366/6/5 362/6/5 361/6/5
f 367/6/5 362/6/5 366/6/5
f 372/1/5 364/1/5 363/1/5
f 373/8/5 365/8/5 364/8/5
f 373/1/5 364/1/5 372/1/5
f 374/1/5 366/1/5 365/1/5
f 374/8/5 365/8/5 373/8/5
f 375/8/5 367/8/5 366/8/5
f 375/1/5 366/1/5 374/1/5
f 375/8/5 368/8/5 367/8/5
f 376/1/5 369/1/5 368/1/5
f 376/8/5 368/8/5 375/8/5
f 377/8/5 370/8/5 369/8/5
f 377/1/5 369/1/5 376/1/5
f 378/1/5 371/1/5 370/1/5
f 378/8/5 370/8/5 377/8/5
f 379/1/5 371/1/5 378/1/5
f 380/8/5 377/8/5 376/8/5
f 380/8/5 373/8/5 372/8/5
f 380/8/5 379/8/5 378/8/5
f 380/8/5 378/8/5 377/8/5
f 380/8/5 375/8/5 374/8/5
f 380/8/5 376/8/5 375/8/5
f 380/8/5 374/8/5 373/8/5
f 381/8/5 379/8/5 380/8/5
f 382/8/5 379/8/5 381/8/5
f 383/8/5 379/8/5 382/8/5
f 384/8/5 379/8/5 383/8/5
f 385/8/5 379/8/5 384/8/5
f 386/8/5 379/8/5 385/8/5
f 387/8/5 379/8/5 386/8/5
f 388/1/5 381/1/5 380/1/5
f 389/8/5 382/8/5 381/8/5
f 389/1/5 381/1/5 388/1/5
f 390/1/5 383/1/5 382/1/5
f 390/8/5 382/8/5 389/8/5
f 391/8/5 384/8/5 383/8/5
f 391/1/5 383/1/5 390/1/5
f 392/1/5 385/1/5 384/1/5
f 392/8/5 384/8/5 391/8/5
f 393/8/5 386/8/5 385/8/5
f 393/1/5 385/1/5 392/1/5
f 394/1/5 387/1/5 386/1/5
f 394/8/5 386/8/5 393/8/5
f 395/1/5 387/1/5 394/1/5
f 400/3/5 397/3/5 396/3/5
f 401/3/5 397/3/5 400/3/5
f 402/3/5 397/3/5 401/3/5
f 403/3/5 397/3/5 402/3/5
f 404/3/5 399/3/5 398/3/5
f 405/3/5 399/3/5 404/3/5
f 406/3/5 399/3/5 405/3/5
f 407/3/5 399/3/5 406/3/5
f 408/3/5 399/3/5 407/3/5
f 417/3/5 410/3/5 409/3/5
f 417/3/5 416/3/5 415/3/5
f 417/3/5 415/3/5 414/3/5
f 417/3/5 414/3/5 413/3/5
f 417/3/5 413/3/5 412/3/5
f 417/3/5 412/3/5 411/3/5
f 417/3/5 411/3/5 410/3/5
f 418/3/5 416/3/5 417/3/5
f 421/7/5 420/7/5 419/7/5
f 422/7/5 420/7/5 421/7/5
f 423/7/5 421/7/5 419/7/5
f 424/7/5 421/7/5 423/7/5
f 428/7/5 426/7/5 425/7/5
f 428/7/5 427/7/5 426/7/5
f 429/7/5 427/7/5 428/7/5
f 430/7/5 428/7/5 425/7/5
f 431/7/5 428/7/5 430/7/5
f 432/7/5 427/7/5 429/7/5
f 433/7/5 427/7/5 432/7/5
f 437/7/5 435/7/5 434/7/5
f 438/2/5 436/2/5 435/2/5
f 438/7/5 435/7/5 437/7/5
f 439/2/5 436/2/5 438/2/5
f 444/7/5 441/7/5 440/7/5
f 445/7/5 441/7/5 444/7/5
f 446/7/5 443/7/5 442/7/5
f 447/7/5 443/7/5 446/7/5
f 452/7/5 449/7/5 448/7/5
f 453/7/5 449/7/5 452/7/5
f 454/7/5 451/7/5 450/7/5
f 455/7/5 451/7/5 454/7/5
f 460/7/5 457/7/5 456/7/5
f 461/7/5 457/7/5 460/7/5
f 462/7/5 459/7/5 458/7/5
f 463/7/5 459/7/5 462/7/5
f 464/7/6 465/7/6 469/7/6
f 465/7/6 466/7/6 469/7/6
f 469/7/6 466/7/6 470/7/6
f 467/7/6 468/7/6 471/7/6
f 471/7/6 468/7/6 472/7/6
f 473/7/6 474/7/6 475/7/6
f 475/7/6 474/7/6 476/7/6
f 477/7/6 478/7/6 479/7/6
f 479/7/6 478/7/6 480/7/6
f 481/7/6 482/7/6 485/7/6
f 485/7/6 482/7/6 486/7/6
f 483/7/6 484/7/6 487/7/6
f 487/7/6 484/7/6 488/7/6
f 489/7/6 490/7/6 492/7/6
f 492/7/6 490/7/6 493/7/6
f 493/7/6 490/7/6 494/7/6
f 494/7/6 490/7/6 495/7/6
f 491/7/6 492/7/6 497/7/6
f 492/7/6 493/7/6 497/7/6
f 495/7/6 496/7/6 498/7/6
f 494/7/6 495/7/6 498/7/6
f 491/7/6 497/7/6 499/7/6
f 497/7/6 498/7/6 499/7/6
f 498/7/6 496/7/6 500/7/6
f 499/7/6 498/7/6 500/7/6
f 501/7/6 502/7/6 505/7/6
f 505/7/6 502/7/6 506/7/6
f 503/7/6 504/7/6 507/7/6
f 507/7/6 504/7/6 508/7/6
f 506/3/6 507/3/6 510/3/6
f 510/3/6 507/3/6 511/3/6
f 511/3/6 507/3/6 514/3/6
f 514/3/6 507/3/6 515/3/6
f 512/3/6 513/3/6 516/3/6
f 516/3/6 513/3/6 517/3/6
f 511/3/6 514/3/6 518/3/6
f 518/3/6 514/3/6 519/3/6
f 508/3/6 509/3/6 520/3/6
f 520/3/6 509/3/6 521/3/6
f 522/7/6 523/7/6 524/7/6
f 524/7/6 523/7/6 525/7/6
f 526/7/6 527/7/6 530/7/6
f 526/7/6 530/7/6 532/7/6
f 530/7/6 531/7/6 532/7/6
f 532/7/6 531/7/6 533/7/6
f 528/7/6 529/7/6 535/7/6
f 534/7/6 535/7/6 536/7/6
f 535/7/6 529/7/6 536/7/6
f 536/7/6 529/7/6 537/7/6
f 533/7/6 531/7/6 538/7/6
f 538/7/6 531/7/6 539/7/6
f 534/7/6 536/7/6 540/7/6
f 540/7/6 536/7/6 541/7/6
