# MagicaVoxel @ Ephtracy

# group
o 

# material
mtllib bed.mtl
usemtl palette

# normals
vn -1 0 0
vn 1 0 0
vn 0 0 1
vn 0 0 -1
vn 0 -1 0
vn 0 1 0

# texcoords
vt 0.974609 0.5
vt 0.986328 0.5
vt 0.990234 0.5

# verts
v -2 0 1
v -2 0 -1
v -2 0.1 1
v -2 0.1 -1
v -2 0.3 1
v -2 0.3 0.9
v -2 0.3 -0.9
v -2 0.3 -1
v -2 0.4 0.9
v -2 0.4 -0.9
v 1.9 0.1 1
v 1.9 0.1 0.9
v 1.9 0.1 -0.9
v 1.9 0.1 -1
v 1.9 0.3 1
v 1.9 0.3 0.9
v 1.9 0.3 -0.9
v 1.9 0.3 -1
v 1.9 0.4 0.9
v 1.9 0.4 -0.9
v 2 0 1
v 2 0 -1
v 2 0.1 1
v 2 0.1 0.9
v 2 0.1 -0.9
v 2 0.1 -1
v 2 0.3 0.9
v 2 0.3 -0.9
v -2 0 1
v -2 0.1 1
v -2 0.3 1
v 1.2 0.1 1
v 1.2 0.3 1
v 1.9 0.1 1
v 1.9 0.3 1
v 2 0 1
v 2 0.1 1
v -2 0.3 0.9
v -2 0.4 0.9
v 1.2 0.3 0.9
v 1.2 0.4 0.9
v 1.9 0.1 0.9
v 1.9 0.3 0.9
v 1.9 0.4 0.9
v 2 0.1 0.9
v 2 0.3 0.9
v -2 0.3 -0.9
v -2 0.4 -0.9
v 1.2 0.3 -0.9
v 1.2 0.4 -0.9
v 1.9 0.1 -0.9
v 1.9 0.3 -0.9
v 1.9 0.4 -0.9
v 2 0.1 -0.9
v 2 0.3 -0.9
v -2 0 -1
v -2 0.1 -1
v -2 0.3 -1
v 1.2 0.1 -1
v 1.2 0.3 -1
v 1.9 0.1 -1
v 1.9 0.3 -1
v 2 0 -1
v 2 0.1 -1
v -2 0 1
v 2 0 1
v -2 0 -1
v 2 0 -1
v 1.9 0.1 1
v 2 0.1 1
v 1.9 0.1 0.9
v 2 0.1 0.9
v 1.9 0.1 -0.9
v 2 0.1 -0.9
v 1.9 0.1 -1
v 2 0.1 -1
v -2 0.3 1
v 1.2 0.3 1
v 1.9 0.3 1
v -2 0.3 0.9
v 1.2 0.3 0.9
v 1.9 0.3 0.9
v 2 0.3 0.9
v -2 0.3 -0.9
v 1.2 0.3 -0.9
v 1.9 0.3 -0.9
v 2 0.3 -0.9
v -2 0.3 -1
v 1.2 0.3 -1
v 1.9 0.3 -1
v -2 0.4 0.9
v 1.2 0.4 0.9
v 1.9 0.4 0.9
v -2 0.4 -0.9
v 1.2 0.4 -0.9
v 1.9 0.4 -0.9

# faces
f 3/2/1 2/2/1 1/2/1
f 4/2/1 2/2/1 3/2/1
f 5/3/1 4/3/1 3/3/1
f 6/3/1 4/3/1 5/3/1
f 7/3/1 4/3/1 6/3/1
f 8/3/1 4/3/1 7/3/1
f 9/3/1 7/3/1 6/3/1
f 10/3/1 7/3/1 9/3/1
f 11/1/2 12/1/2 15/1/2
f 15/1/2 12/1/2 16/1/2
f 13/1/2 14/1/2 17/1/2
f 17/1/2 14/1/2 18/1/2
f 16/1/2 17/1/2 19/1/2
f 19/1/2 17/1/2 20/1/2
f 21/2/2 22/2/2 23/2/2
f 23/2/2 22/2/2 24/2/2
f 24/2/2 22/2/2 25/2/2
f 25/2/2 22/2/2 26/2/2
f 24/1/2 25/1/2 27/1/2
f 27/1/2 25/1/2 28/1/2
f 32/2/3 30/2/3 29/2/3
f 32/3/3 31/3/3 30/3/3
f 33/3/3 31/3/3 32/3/3
f 34/2/3 32/2/3 29/2/3
f 34/1/3 33/1/3 32/1/3
f 35/1/3 33/1/3 34/1/3
f 36/2/3 34/2/3 29/2/3
f 37/2/3 34/2/3 36/2/3
f 40/3/3 39/3/3 38/3/3
f 41/3/3 39/3/3 40/3/3
f 43/1/3 41/1/3 40/1/3
f 44/1/3 41/1/3 43/1/3
f 45/1/3 43/1/3 42/1/3
f 46/1/3 43/1/3 45/1/3
f 47/3/4 48/3/4 49/3/4
f 49/3/4 48/3/4 50/3/4
f 49/1/4 50/1/4 52/1/4
f 52/1/4 50/1/4 53/1/4
f 51/1/4 52/1/4 54/1/4
f 54/1/4 52/1/4 55/1/4
f 56/2/4 57/2/4 59/2/4
f 57/3/4 58/3/4 59/3/4
f 59/3/4 58/3/4 60/3/4
f 56/2/4 59/2/4 61/2/4
f 59/1/4 60/1/4 61/1/4
f 61/1/4 60/1/4 62/1/4
f 56/2/4 61/2/4 63/2/4
f 63/2/4 61/2/4 64/2/4
f 67/2/5 66/2/5 65/2/5
f 68/2/5 66/2/5 67/2/5
f 69/2/6 70/2/6 71/2/6
f 71/2/6 70/2/6 72/2/6
f 73/2/6 74/2/6 75/2/6
f 75/2/6 74/2/6 76/2/6
f 77/3/6 78/3/6 80/3/6
f 78/1/6 79/1/6 81/1/6
f 80/3/6 78/3/6 81/3/6
f 81/1/6 79/1/6 82/1/6
f 82/1/6 83/1/6 86/1/6
f 86/1/6 83/1/6 87/1/6
f 84/3/6 85/3/6 88/3/6
f 85/1/6 86/1/6 89/1/6
f 88/3/6 85/3/6 89/3/6
f 89/1/6 86/1/6 90/1/6
f 91/3/6 92/3/6 94/3/6
f 92/1/6 93/1/6 95/1/6
f 94/3/6 92/3/6 95/3/6
f 95/1/6 93/1/6 96/1/6
