# MagicaVoxel @ Ephtracy

# group
o 

# material
mtllib Board.mtl
usemtl palette

# normals
vn -1 0 0
vn 1 0 0
vn 0 0 1
vn 0 0 -1
vn 0 -1 0
vn 0 1 0

# texcoords
vt 0.966797 0.5
vt 0.978516 0.5
vt 0.986328 0.5
vt 0.994141 0.5

# verts
v -2 0.8 0.4
v -2 0.8 -0.5
v -2 4 0.4
v -2 4 -0.5
v -1.8 0 1.8
v -1.8 0 -1.8
v -1.8 0.1 1.8
v -1.8 0.1 -1.8
v -1.2 0.1 1.1
v -1.2 0.1 -1.1
v -1.2 0.2 1.1
v -1.2 0.2 -1.1
v -0.5 0.2 0.4
v -0.5 0.2 -0.5
v -0.5 0.8 0.4
v -0.5 0.8 -0.5
v 0.5 0.2 0.4
v 0.5 0.2 -0.5
v 0.5 0.8 0.4
v 0.5 0.8 -0.5
v 1.2 0.1 1.1
v 1.2 0.1 -1.1
v 1.2 0.2 1.1
v 1.2 0.2 -1.1
v 1.8 0 1.8
v 1.8 0 -1.8
v 1.8 0.1 1.8
v 1.8 0.1 -1.8
v 2 0.8 0.4
v 2 0.8 -0.5
v 2 4 0.4
v 2 4 -0.5
v -1.8 0 1.8
v -1.8 0.1 1.8
v 1.8 0 1.8
v 1.8 0.1 1.8
v -1.2 0.1 1.1
v -1.2 0.2 1.1
v 1.2 0.1 1.1
v 1.2 0.2 1.1
v -2 0.8 0.4
v -2 4 0.4
v -1.9 0.9 0.4
v -1.9 3.9 0.4
v -0.5 0.2 0.4
v -0.5 0.8 0.4
v 0.5 0.2 0.4
v 0.5 0.8 0.4
v 1.9 0.9 0.4
v 1.9 3.9 0.4
v 2 0.8 0.4
v 2 4 0.4
v -2 0.8 -0.5
v -2 4 -0.5
v -1.9 0.9 -0.5
v -1.9 3.9 -0.5
v -0.5 0.2 -0.5
v -0.5 0.8 -0.5
v 0.5 0.2 -0.5
v 0.5 0.8 -0.5
v 1.9 0.9 -0.5
v 1.9 3.9 -0.5
v 2 0.8 -0.5
v 2 4 -0.5
v -1.2 0.1 -1.1
v -1.2 0.2 -1.1
v 1.2 0.1 -1.1
v 1.2 0.2 -1.1
v -1.8 0 -1.8
v -1.8 0.1 -1.8
v 1.8 0 -1.8
v 1.8 0.1 -1.8
v -1.8 0 1.8
v 1.8 0 1.8
v -1.8 0 -1.8
v 1.8 0 -1.8
v -2 0.8 0.4
v -0.5 0.8 0.4
v 0.5 0.8 0.4
v 2 0.8 0.4
v -2 0.8 -0.5
v -0.5 0.8 -0.5
v 0.5 0.8 -0.5
v 2 0.8 -0.5
v -1.8 0.1 1.8
v 1.8 0.1 1.8
v -1.2 0.1 1.1
v 1.2 0.1 1.1
v -1.2 0.1 -1.1
v 1.2 0.1 -1.1
v -1.8 0.1 -1.8
v 1.8 0.1 -1.8
v -1.2 0.2 1.1
v 1.2 0.2 1.1
v -0.5 0.2 0.4
v 0.5 0.2 0.4
v -0.5 0.2 -0.5
v 0.5 0.2 -0.5
v -1.2 0.2 -1.1
v 1.2 0.2 -1.1
v -2 4 0.4
v 2 4 0.4
v -2 4 -0.5
v 2 4 -0.5

# faces
f 3/3/1 2/3/1 1/3/1
f 4/3/1 2/3/1 3/3/1
f 7/4/1 6/4/1 5/4/1
f 8/4/1 6/4/1 7/4/1
f 11/2/1 10/2/1 9/2/1
f 12/2/1 10/2/1 11/2/1
f 15/3/1 14/3/1 13/3/1
f 16/3/1 14/3/1 15/3/1
f 17/3/2 18/3/2 19/3/2
f 19/3/2 18/3/2 20/3/2
f 21/2/2 22/2/2 23/2/2
f 23/2/2 22/2/2 24/2/2
f 25/4/2 26/4/2 27/4/2
f 27/4/2 26/4/2 28/4/2
f 29/3/2 30/3/2 31/3/2
f 31/3/2 30/3/2 32/3/2
f 35/4/3 34/4/3 33/4/3
f 36/4/3 34/4/3 35/4/3
f 39/2/3 38/2/3 37/2/3
f 40/2/3 38/2/3 39/2/3
f 43/3/3 42/3/3 41/3/3
f 44/3/3 42/3/3 43/3/3
f 46/3/3 43/3/3 41/3/3
f 47/3/3 46/3/3 45/3/3
f 48/3/3 43/3/3 46/3/3
f 48/3/3 46/3/3 47/3/3
f 49/4/3 44/4/3 43/4/3
f 49/3/3 43/3/3 48/3/3
f 50/3/3 42/3/3 44/3/3
f 50/4/3 44/4/3 49/4/3
f 51/3/3 49/3/3 48/3/3
f 51/3/3 50/3/3 49/3/3
f 52/3/3 42/3/3 50/3/3
f 52/3/3 50/3/3 51/3/3
f 53/3/4 54/3/4 55/3/4
f 55/3/4 54/3/4 56/3/4
f 53/3/4 55/3/4 58/3/4
f 57/3/4 58/3/4 59/3/4
f 58/3/4 55/3/4 60/3/4
f 59/3/4 58/3/4 60/3/4
f 55/1/4 56/1/4 61/1/4
f 60/3/4 55/3/4 61/3/4
f 56/3/4 54/3/4 62/3/4
f 61/1/4 56/1/4 62/1/4
f 60/3/4 61/3/4 63/3/4
f 61/3/4 62/3/4 63/3/4
f 62/3/4 54/3/4 64/3/4
f 63/3/4 62/3/4 64/3/4
f 65/2/4 66/2/4 67/2/4
f 67/2/4 66/2/4 68/2/4
f 69/4/4 70/4/4 71/4/4
f 71/4/4 70/4/4 72/4/4
f 75/4/5 74/4/5 73/4/5
f 76/4/5 74/4/5 75/4/5
f 81/3/5 78/3/5 77/3/5
f 82/3/5 78/3/5 81/3/5
f 83/3/5 80/3/5 79/3/5
f 84/3/5 80/3/5 83/3/5
f 85/4/6 86/4/6 87/4/6
f 87/4/6 86/4/6 88/4/6
f 85/4/6 87/4/6 89/4/6
f 88/4/6 86/4/6 90/4/6
f 85/4/6 89/4/6 91/4/6
f 89/4/6 90/4/6 91/4/6
f 90/4/6 86/4/6 92/4/6
f 91/4/6 90/4/6 92/4/6
f 93/2/6 94/2/6 95/2/6
f 95/2/6 94/2/6 96/2/6
f 93/2/6 95/2/6 97/2/6
f 96/2/6 94/2/6 98/2/6
f 93/2/6 97/2/6 99/2/6
f 97/2/6 98/2/6 99/2/6
f 98/2/6 94/2/6 100/2/6
f 99/2/6 98/2/6 100/2/6
f 101/3/6 102/3/6 103/3/6
f 103/3/6 102/3/6 104/3/6
