# MagicaVoxel @ Ephtracy

# group
o 

# material
mtllib polka.mtl
usemtl palette

# normals
vn -1 0 0
vn 1 0 0
vn 0 0 1
vn 0 0 -1
vn 0 -1 0
vn 0 1 0

# texcoords
vt 0.947266 0.5
vt 0.955078 0.5
vt 0.982422 0.5
vt 0.990234 0.5

# verts
v -2 0 0.6
v -2 0 -0.8
v -2 0.2 0.6
v -2 0.2 0.2
v -2 0.3 0.2
v -2 0.3 0.1
v -2 0.4 0.1
v -2 0.4 5.96046e-08
v -2 0.9 0.1
v -2 0.9 5.96046e-08
v -2 1 0.2
v -2 1 0.1
v -2 1.1 0.3
v -2 1.1 0.2
v -2 1.2 0.5
v -2 1.2 0.3
v -2 1.4 0.5
v -2 1.4 0.2
v -2 1.5 0.2
v -2 1.5 0.1
v -2 1.6 0.1
v -2 1.6 5.96046e-08
v -2 2.4 0.5
v -2 2.4 5.96046e-08
v -2 2.6 0.5
v -2 2.6 0.2
v -2 2.7 0.2
v -2 2.7 0.1
v -2 2.8 0.1
v -2 2.8 5.96046e-08
v -2 2.9 5.96046e-08
v -2 2.9 -0.1
v -2 3 -0.1
v -2 3 -0.2
v -2 3.1 -0.2
v -2 3.1 -0.8
v 1.9 0.1 0.5
v 1.9 0.1 -0.7
v 1.9 0.2 0.5
v 1.9 0.2 0.2
v 1.9 0.3 0.2
v 1.9 0.3 0.1
v 1.9 0.4 0.1
v 1.9 0.4 5.96046e-08
v 1.9 0.9 0.1
v 1.9 0.9 5.96046e-08
v 1.9 1 0.2
v 1.9 1 0.1
v 1.9 1.1 0.3
v 1.9 1.1 0.2
v 1.9 1.2 0.3
v 1.9 1.2 -0.7
v 1.9 1.3 0.4
v 1.9 1.3 -0.7
v 1.9 1.4 0.4
v 1.9 1.4 0.2
v 1.9 1.5 0.2
v 1.9 1.5 0.1
v 1.9 1.6 0.1
v 1.9 1.6 5.96046e-08
v 1.9 2.4 5.96046e-08
v 1.9 2.4 -0.7
v 1.9 2.5 0.5
v 1.9 2.5 -0.7
v 1.9 2.6 0.5
v 1.9 2.6 0.2
v 1.9 2.7 0.2
v 1.9 2.7 0.1
v 1.9 2.8 0.1
v 1.9 2.8 5.96046e-08
v 1.9 2.9 5.96046e-08
v 1.9 2.9 -0.1
v 1.9 3 -0.1
v 1.9 3 -0.2
v 1.9 3.1 -0.2
v 1.9 3.1 -0.7
v -1.9 0.1 0.5
v -1.9 0.1 -0.7
v -1.9 0.2 0.5
v -1.9 0.2 0.2
v -1.9 0.3 0.2
v -1.9 0.3 0.1
v -1.9 0.4 0.1
v -1.9 0.4 5.96046e-08
v -1.9 0.9 0.1
v -1.9 0.9 5.96046e-08
v -1.9 1 0.2
v -1.9 1 0.1
v -1.9 1.1 0.3
v -1.9 1.1 0.2
v -1.9 1.2 0.3
v -1.9 1.2 -0.7
v -1.9 1.3 0.4
v -1.9 1.3 -0.7
v -1.9 1.4 0.4
v -1.9 1.4 0.2
v -1.9 1.5 0.2
v -1.9 1.5 0.1
v -1.9 1.6 0.1
v -1.9 1.6 5.96046e-08
v -1.9 2.4 5.96046e-08
v -1.9 2.4 -0.7
v -1.9 2.5 0.5
v -1.9 2.5 -0.7
v -1.9 2.6 0.5
v -1.9 2.6 0.2
v -1.9 2.7 0.2
v -1.9 2.7 0.1
v -1.9 2.8 0.1
v -1.9 2.8 5.96046e-08
v -1.9 2.9 5.96046e-08
v -1.9 2.9 -0.1
v -1.9 3 -0.1
v -1.9 3 -0.2
v -1.9 3.1 -0.2
v -1.9 3.1 -0.7
v 2 0 0.6
v 2 0 -0.8
v 2 0.2 0.6
v 2 0.2 0.2
v 2 0.3 0.2
v 2 0.3 0.1
v 2 0.4 0.1
v 2 0.4 5.96046e-08
v 2 0.9 0.1
v 2 0.9 5.96046e-08
v 2 1 0.2
v 2 1 0.1
v 2 1.1 0.3
v 2 1.1 0.2
v 2 1.2 0.5
v 2 1.2 0.3
v 2 1.4 0.5
v 2 1.4 0.2
v 2 1.5 0.2
v 2 1.5 0.1
v 2 1.6 0.1
v 2 1.6 5.96046e-08
v 2 2.4 0.5
v 2 2.4 5.96046e-08
v 2 2.6 0.5
v 2 2.6 0.2
v 2 2.7 0.2
v 2 2.7 0.1
v 2 2.8 0.1
v 2 2.8 5.96046e-08
v 2 2.9 5.96046e-08
v 2 2.9 -0.1
v 2 3 -0.1
v 2 3 -0.2
v 2 3.1 -0.2
v 2 3.1 -0.8
v -2 0 0.6
v -2 0.2 0.6
v -1.9 0 0.6
v -1.9 0.2 0.6
v 1.9 0 0.6
v 1.9 0.2 0.6
v 2 0 0.6
v 2 0.2 0.6
v -2 1.2 0.5
v -2 1.4 0.5
v -2 2.4 0.5
v -2 2.6 0.5
v -1.9 1.2 0.5
v -1.9 1.4 0.5
v -1.9 2.4 0.5
v -1.9 2.5 0.5
v -1.9 2.6 0.5
v 1.9 1.2 0.5
v 1.9 1.4 0.5
v 1.9 2.4 0.5
v 1.9 2.5 0.5
v 1.9 2.6 0.5
v 2 1.2 0.5
v 2 1.4 0.5
v 2 2.4 0.5
v 2 2.6 0.5
v -2 1.1 0.3
v -2 1.2 0.3
v -1.9 1.1 0.3
v -1.9 1.2 0.3
v 1.9 1.1 0.3
v 1.9 1.2 0.3
v 2 1.1 0.3
v 2 1.2 0.3
v -2 0.2 0.2
v -2 0.3 0.2
v -2 1 0.2
v -2 1.1 0.2
v -2 1.4 0.2
v -2 1.5 0.2
v -2 2.6 0.2
v -2 2.7 0.2
v -1.9 0.2 0.2
v -1.9 0.3 0.2
v -1.9 1 0.2
v -1.9 1.1 0.2
v -1.9 1.4 0.2
v -1.9 1.5 0.2
v -1.9 2.6 0.2
v -1.9 2.7 0.2
v 1.9 0.2 0.2
v 1.9 0.3 0.2
v 1.9 1 0.2
v 1.9 1.1 0.2
v 1.9 1.4 0.2
v 1.9 1.5 0.2
v 1.9 2.6 0.2
v 1.9 2.7 0.2
v 2 0.2 0.2
v 2 0.3 0.2
v 2 1 0.2
v 2 1.1 0.2
v 2 1.4 0.2
v 2 1.5 0.2
v 2 2.6 0.2
v 2 2.7 0.2
v -2 0.3 0.1
v -2 0.4 0.1
v -2 0.9 0.1
v -2 1 0.1
v -2 1.5 0.1
v -2 1.6 0.1
v -2 2.7 0.1
v -2 2.8 0.1
v -1.9 0.3 0.1
v -1.9 0.4 0.1
v -1.9 0.9 0.1
v -1.9 1 0.1
v -1.9 1.5 0.1
v -1.9 1.6 0.1
v -1.9 2.7 0.1
v -1.9 2.8 0.1
v 1.9 0.3 0.1
v 1.9 0.4 0.1
v 1.9 0.9 0.1
v 1.9 1 0.1
v 1.9 1.5 0.1
v 1.9 1.6 0.1
v 1.9 2.7 0.1
v 1.9 2.8 0.1
v 2 0.3 0.1
v 2 0.4 0.1
v 2 0.9 0.1
v 2 1 0.1
v 2 1.5 0.1
v 2 1.6 0.1
v 2 2.7 0.1
v 2 2.8 0.1
v -2 0.4 5.96046e-08
v -2 0.9 5.96046e-08
v -2 1.6 5.96046e-08
v -2 2.4 5.96046e-08
v -2 2.8 5.96046e-08
v -2 2.9 5.96046e-08
v -1.9 0.4 5.96046e-08
v -1.9 0.9 5.96046e-08
v -1.9 1.6 5.96046e-08
v -1.9 2.4 5.96046e-08
v -1.9 2.8 5.96046e-08
v -1.9 2.9 5.96046e-08
v 1.9 0.4 5.96046e-08
v 1.9 0.9 5.96046e-08
v 1.9 1.6 5.96046e-08
v 1.9 2.4 5.96046e-08
v 1.9 2.8 5.96046e-08
v 1.9 2.9 5.96046e-08
v 2 0.4 5.96046e-08
v 2 0.9 5.96046e-08
v 2 1.6 5.96046e-08
v 2 2.4 5.96046e-08
v 2 2.8 5.96046e-08
v 2 2.9 5.96046e-08
v -2 2.9 -0.1
v -2 3 -0.1
v -1.9 2.9 -0.1
v -1.9 3 -0.1
v 1.9 2.9 -0.1
v 1.9 3 -0.1
v 2 2.9 -0.1
v 2 3 -0.1
v -2 3 -0.2
v -2 3.1 -0.2
v -1.9 3 -0.2
v -1.9 3.1 -0.2
v 1.9 3 -0.2
v 1.9 3.1 -0.2
v 2 3 -0.2
v 2 3.1 -0.2
v -1.9 0.1 -0.7
v -1.9 1.2 -0.7
v -1.9 1.3 -0.7
v -1.9 2.4 -0.7
v -1.9 2.5 -0.7
v -1.9 3.1 -0.7
v 1.9 0.1 -0.7
v 1.9 1.2 -0.7
v 1.9 1.3 -0.7
v 1.9 2.4 -0.7
v 1.9 2.5 -0.7
v 1.9 3.1 -0.7
v -1.9 0.1 0.5
v -1.9 0.2 0.5
v 1.9 0.1 0.5
v 1.9 0.2 0.5
v -1.9 1.3 0.4
v -1.9 1.4 0.4
v 1.9 1.3 0.4
v 1.9 1.4 0.4
v -2 0 -0.8
v -2 3.1 -0.8
v -1.9 0 -0.8
v -1.9 3.1 -0.8
v 1.9 0 -0.8
v 1.9 3.1 -0.8
v 2 0 -0.8
v 2 3.1 -0.8
v -2 0 0.6
v -1.9 0 0.6
v 1.9 0 0.6
v 2 0 0.6
v -1.9 0 0.5
v 1.9 0 0.5
v -1.9 0 -0.7
v 1.9 0 -0.7
v -2 0 -0.8
v -1.9 0 -0.8
v 1.9 0 -0.8
v 2 0 -0.8
v -2 0.9 0.1
v -1.9 0.9 0.1
v 1.9 0.9 0.1
v 2 0.9 0.1
v -2 0.9 5.96046e-08
v -1.9 0.9 5.96046e-08
v 1.9 0.9 5.96046e-08
v 2 0.9 5.96046e-08
v -2 1 0.2
v -1.9 1 0.2
v 1.9 1 0.2
v 2 1 0.2
v -2 1 0.1
v -1.9 1 0.1
v 1.9 1 0.1
v 2 1 0.1
v -2 1.1 0.3
v -1.9 1.1 0.3
v 1.9 1.1 0.3
v 2 1.1 0.3
v -2 1.1 0.2
v -1.9 1.1 0.2
v 1.9 1.1 0.2
v 2 1.1 0.2
v -2 1.2 0.5
v -1.9 1.2 0.5
v 1.9 1.2 0.5
v 2 1.2 0.5
v -1.9 1.2 0.4
v 1.9 1.2 0.4
v -2 1.2 0.3
v -1.9 1.2 0.3
v 1.9 1.2 0.3
v 2 1.2 0.3
v -1.9 1.2 -0.7
v 1.9 1.2 -0.7
v -2 2.4 0.5
v -1.9 2.4 0.5
v 1.9 2.4 0.5
v 2 2.4 0.5
v -2 2.4 5.96046e-08
v -1.9 2.4 5.96046e-08
v 1.9 2.4 5.96046e-08
v 2 2.4 5.96046e-08
v -1.9 2.4 -0.7
v 1.9 2.4 -0.7
v -1.9 0.1 0.5
v 1.9 0.1 0.5
v -1.9 0.1 -0.7
v 1.9 0.1 -0.7
v -2 0.2 0.6
v -1.9 0.2 0.6
v 1.9 0.2 0.6
v 2 0.2 0.6
v -1.9 0.2 0.5
v 1.9 0.2 0.5
v -2 0.2 0.2
v -1.9 0.2 0.2
v 1.9 0.2 0.2
v 2 0.2 0.2
v -2 0.3 0.2
v -1.9 0.3 0.2
v 1.9 0.3 0.2
v 2 0.3 0.2
v -2 0.3 0.1
v -1.9 0.3 0.1
v 1.9 0.3 0.1
v 2 0.3 0.1
v -2 0.4 0.1
v -1.9 0.4 0.1
v 1.9 0.4 0.1
v 2 0.4 0.1
v -2 0.4 5.96046e-08
v -1.9 0.4 5.96046e-08
v 1.9 0.4 5.96046e-08
v 2 0.4 5.96046e-08
v -1.9 1.3 0.4
v 1.9 1.3 0.4
v -1.9 1.3 -0.7
v 1.9 1.3 -0.7
v -2 1.4 0.5
v -1.9 1.4 0.5
v 1.9 1.4 0.5
v 2 1.4 0.5
v -1.9 1.4 0.4
v 1.9 1.4 0.4
v -2 1.4 0.2
v -1.9 1.4 0.2
v 1.9 1.4 0.2
v 2 1.4 0.2
v -2 1.5 0.2
v -1.9 1.5 0.2
v 1.9 1.5 0.2
v 2 1.5 0.2
v -2 1.5 0.1
v -1.9 1.5 0.1
v 1.9 1.5 0.1
v 2 1.5 0.1
v -2 1.6 0.1
v -1.9 1.6 0.1
v 1.9 1.6 0.1
v 2 1.6 0.1
v -2 1.6 5.96046e-08
v -1.9 1.6 5.96046e-08
v 1.9 1.6 5.96046e-08
v 2 1.6 5.96046e-08
v -1.9 2.5 0.5
v 1.9 2.5 0.5
v -1.9 2.5 -0.7
v 1.9 2.5 -0.7
v -2 2.6 0.5
v -1.9 2.6 0.5
v 1.9 2.6 0.5
v 2 2.6 0.5
v -2 2.6 0.2
v -1.9 2.6 0.2
v 1.9 2.6 0.2
v 2 2.6 0.2
v -2 2.7 0.2
v -1.9 2.7 0.2
v 1.9 2.7 0.2
v 2 2.7 0.2
v -2 2.7 0.1
v -1.9 2.7 0.1
v 1.9 2.7 0.1
v 2 2.7 0.1
v -2 2.8 0.1
v -1.9 2.8 0.1
v 1.9 2.8 0.1
v 2 2.8 0.1
v -2 2.8 5.96046e-08
v -1.9 2.8 5.96046e-08
v 1.9 2.8 5.96046e-08
v 2 2.8 5.96046e-08
v -2 2.9 5.96046e-08
v -1.9 2.9 5.96046e-08
v 1.9 2.9 5.96046e-08
v 2 2.9 5.96046e-08
v -2 2.9 -0.1
v -1.9 2.9 -0.1
v 1.9 2.9 -0.1
v 2 2.9 -0.1
v -2 3 -0.1
v -1.9 3 -0.1
v 1.9 3 -0.1
v 2 3 -0.1
v -2 3 -0.2
v -1.9 3 -0.2
v 1.9 3 -0.2
v 2 3 -0.2
v -2 3.1 -0.2
v -1.9 3.1 -0.2
v 1.9 3.1 -0.2
v 2 3.1 -0.2
v -1.9 3.1 -0.7
v 1.9 3.1 -0.7
v -2 3.1 -0.8
v -1.9 3.1 -0.8
v 1.9 3.1 -0.8
v 2 3.1 -0.8

# faces
f 3/1/1 2/1/1 1/1/1
f 4/1/1 2/1/1 3/1/1
f 5/1/1 2/1/1 4/1/1
f 6/1/1 2/1/1 5/1/1
f 7/1/1 2/1/1 6/1/1
f 8/1/1 2/1/1 7/1/1
f 10/1/1 2/1/1 8/1/1
f 12/1/1 10/1/1 9/1/1
f 14/1/1 12/1/1 11/1/1
f 16/1/1 14/1/1 13/1/1
f 17/1/1 16/1/1 15/1/1
f 18/1/1 12/1/1 14/1/1
f 18/1/1 16/1/1 17/1/1
f 18/1/1 14/1/1 16/1/1
f 19/1/1 12/1/1 18/1/1
f 20/1/1 10/1/1 12/1/1
f 20/1/1 12/1/1 19/1/1
f 21/1/1 10/1/1 20/1/1
f 22/1/1 2/1/1 10/1/1
f 22/1/1 10/1/1 21/1/1
f 24/1/1 2/1/1 22/1/1
f 25/1/1 24/1/1 23/1/1
f 26/1/1 24/1/1 25/1/1
f 27/1/1 24/1/1 26/1/1
f 28/1/1 24/1/1 27/1/1
f 29/1/1 24/1/1 28/1/1
f 30/1/1 2/1/1 24/1/1
f 30/1/1 24/1/1 29/1/1
f 31/1/1 2/1/1 30/1/1
f 32/1/1 2/1/1 31/1/1
f 33/1/1 2/1/1 32/1/1
f 34/1/1 2/1/1 33/1/1
f 35/1/1 2/1/1 34/1/1
f 36/1/1 2/1/1 35/1/1
f 39/1/1 38/1/1 37/1/1
f 40/1/1 38/1/1 39/1/1
f 41/1/1 38/1/1 40/1/1
f 42/1/1 38/1/1 41/1/1
f 43/1/1 38/1/1 42/1/1
f 44/1/1 38/1/1 43/1/1
f 46/1/1 38/1/1 44/1/1
f 48/1/1 46/1/1 45/1/1
f 50/1/1 48/1/1 47/1/1
f 51/1/1 50/1/1 49/1/1
f 52/1/1 38/1/1 46/1/1
f 52/1/1 50/1/1 51/1/1
f 52/1/1 46/1/1 48/1/1
f 52/1/1 48/1/1 50/1/1
f 55/1/1 54/1/1 53/1/1
f 56/1/1 54/1/1 55/1/1
f 57/1/1 54/1/1 56/1/1
f 58/1/1 54/1/1 57/1/1
f 59/1/1 54/1/1 58/1/1
f 60/1/1 54/1/1 59/1/1
f 61/1/1 54/1/1 60/1/1
f 62/1/1 54/1/1 61/1/1
f 65/1/1 64/1/1 63/1/1
f 66/1/1 64/1/1 65/1/1
f 67/1/1 64/1/1 66/1/1
f 68/1/1 64/1/1 67/1/1
f 69/1/1 64/1/1 68/1/1
f 70/1/1 64/1/1 69/1/1
f 71/1/1 64/1/1 70/1/1
f 72/1/1 64/1/1 71/1/1
f 73/1/1 64/1/1 72/1/1
f 74/1/1 64/1/1 73/1/1
f 75/1/1 64/1/1 74/1/1
f 76/1/1 64/1/1 75/1/1
f 77/1/2 78/1/2 79/1/2
f 79/1/2 78/1/2 80/1/2
f 80/1/2 78/1/2 81/1/2
f 81/1/2 78/1/2 82/1/2
f 82/1/2 78/1/2 83/1/2
f 83/1/2 78/1/2 84/1/2
f 84/1/2 78/1/2 86/1/2
f 85/1/2 86/1/2 88/1/2
f 87/1/2 88/1/2 90/1/2
f 89/1/2 90/1/2 91/1/2
f 86/1/2 78/1/2 92/1/2
f 91/1/2 90/1/2 92/1/2
f 88/1/2 86/1/2 92/1/2
f 90/1/2 88/1/2 92/1/2
f 93/1/2 94/1/2 95/1/2
f 95/1/2 94/1/2 96/1/2
f 96/1/2 94/1/2 97/1/2
f 97/1/2 94/1/2 98/1/2
f 98/1/2 94/1/2 99/1/2
f 99/1/2 94/1/2 100/1/2
f 100/1/2 94/1/2 101/1/2
f 101/1/2 94/1/2 102/1/2
f 103/1/2 104/1/2 105/1/2
f 105/1/2 104/1/2 106/1/2
f 106/1/2 104/1/2 107/1/2
f 107/1/2 104/1/2 108/1/2
f 108/1/2 104/1/2 109/1/2
f 109/1/2 104/1/2 110/1/2
f 110/1/2 104/1/2 111/1/2
f 111/1/2 104/1/2 112/1/2
f 112/1/2 104/1/2 113/1/2
f 113/1/2 104/1/2 114/1/2
f 114/1/2 104/1/2 115/1/2
f 115/1/2 104/1/2 116/1/2
f 117/1/2 118/1/2 119/1/2
f 119/1/2 118/1/2 120/1/2
f 120/1/2 118/1/2 121/1/2
f 121/1/2 118/1/2 122/1/2
f 122/1/2 118/1/2 123/1/2
f 123/1/2 118/1/2 124/1/2
f 124/1/2 118/1/2 126/1/2
f 125/1/2 126/1/2 128/1/2
f 127/1/2 128/1/2 130/1/2
f 129/1/2 130/1/2 132/1/2
f 131/1/2 132/1/2 133/1/2
f 130/1/2 128/1/2 134/1/2
f 133/1/2 132/1/2 134/1/2
f 132/1/2 130/1/2 134/1/2
f 134/1/2 128/1/2 135/1/2
f 128/1/2 126/1/2 136/1/2
f 135/1/2 128/1/2 136/1/2
f 136/1/2 126/1/2 137/1/2
f 126/1/2 118/1/2 138/1/2
f 137/1/2 126/1/2 138/1/2
f 138/1/2 118/1/2 140/1/2
f 139/1/2 140/1/2 141/1/2
f 141/1/2 140/1/2 142/1/2
f 142/1/2 140/1/2 143/1/2
f 143/1/2 140/1/2 144/1/2
f 144/1/2 140/1/2 145/1/2
f 140/1/2 118/1/2 146/1/2
f 145/1/2 140/1/2 146/1/2
f 146/1/2 118/1/2 147/1/2
f 147/1/2 118/1/2 148/1/2
f 148/1/2 118/1/2 149/1/2
f 149/1/2 118/1/2 150/1/2
f 150/1/2 118/1/2 151/1/2
f 151/1/2 118/1/2 152/1/2
f 155/1/3 154/1/3 153/1/3
f 156/1/3 154/1/3 155/1/3
f 157/2/3 156/2/3 155/2/3
f 158/2/3 156/2/3 157/2/3
f 159/1/3 158/1/3 157/1/3
f 160/1/3 158/1/3 159/1/3
f 165/1/3 162/1/3 161/1/3
f 166/1/3 162/1/3 165/1/3
f 167/1/3 164/1/3 163/1/3
f 168/1/3 164/1/3 167/1/3
f 169/1/3 164/1/3 168/1/3
f 170/2/3 166/2/3 165/2/3
f 171/2/3 166/2/3 170/2/3
f 172/3/3 168/3/3 167/3/3
f 173/3/3 168/3/3 172/3/3
f 175/1/3 171/1/3 170/1/3
f 176/1/3 171/1/3 175/1/3
f 177/1/3 174/1/3 173/1/3
f 177/1/3 173/1/3 172/1/3
f 178/1/3 174/1/3 177/1/3
f 181/1/3 180/1/3 179/1/3
f 182/1/3 180/1/3 181/1/3
f 185/1/3 184/1/3 183/1/3
f 186/1/3 184/1/3 185/1/3
f 195/1/3 188/1/3 187/1/3
f 196/1/3 188/1/3 195/1/3
f 197/1/3 190/1/3 189/1/3
f 198/1/3 190/1/3 197/1/3
f 199/1/3 192/1/3 191/1/3
f 200/1/3 192/1/3 199/1/3
f 201/1/3 194/1/3 193/1/3
f 202/1/3 194/1/3 201/1/3
f 211/1/3 204/1/3 203/1/3
f 212/1/3 204/1/3 211/1/3
f 213/1/3 206/1/3 205/1/3
f 214/1/3 206/1/3 213/1/3
f 215/1/3 208/1/3 207/1/3
f 216/1/3 208/1/3 215/1/3
f 217/1/3 210/1/3 209/1/3
f 218/1/3 210/1/3 217/1/3
f 227/1/3 220/1/3 219/1/3
f 228/1/3 220/1/3 227/1/3
f 229/1/3 222/1/3 221/1/3
f 230/1/3 222/1/3 229/1/3
f 231/1/3 224/1/3 223/1/3
f 232/1/3 224/1/3 231/1/3
f 233/1/3 226/1/3 225/1/3
f 234/1/3 226/1/3 233/1/3
f 243/1/3 236/1/3 235/1/3
f 244/1/3 236/1/3 243/1/3
f 245/1/3 238/1/3 237/1/3
f 246/1/3 238/1/3 245/1/3
f 247/1/3 240/1/3 239/1/3
f 248/1/3 240/1/3 247/1/3
f 249/1/3 242/1/3 241/1/3
f 250/1/3 242/1/3 249/1/3
f 257/1/3 252/1/3 251/1/3
f 258/1/3 252/1/3 257/1/3
f 259/1/3 254/1/3 253/1/3
f 260/1/3 254/1/3 259/1/3
f 261/1/3 256/1/3 255/1/3
f 262/1/3 256/1/3 261/1/3
f 269/1/3 264/1/3 263/1/3
f 270/1/3 264/1/3 269/1/3
f 271/1/3 266/1/3 265/1/3
f 272/1/3 266/1/3 271/1/3
f 273/1/3 268/1/3 267/1/3
f 274/1/3 268/1/3 273/1/3
f 277/1/3 276/1/3 275/1/3
f 278/1/3 276/1/3 277/1/3
f 281/1/3 280/1/3 279/1/3
f 282/1/3 280/1/3 281/1/3
f 285/1/3 284/1/3 283/1/3
f 286/1/3 284/1/3 285/1/3
f 289/1/3 288/1/3 287/1/3
f 290/1/3 288/1/3 289/1/3
f 297/4/3 292/4/3 291/4/3
f 298/4/3 292/4/3 297/4/3
f 299/4/3 294/4/3 293/4/3
f 300/4/3 294/4/3 299/4/3
f 301/4/3 296/4/3 295/4/3
f 302/4/3 296/4/3 301/4/3
f 303/2/4 304/2/4 305/2/4
f 305/2/4 304/2/4 306/2/4
f 307/2/4 308/2/4 309/2/4
f 309/2/4 308/2/4 310/2/4
f 311/1/4 312/1/4 313/1/4
f 313/1/4 312/1/4 314/1/4
f 313/4/4 314/4/4 315/4/4
f 315/4/4 314/4/4 316/4/4
f 315/1/4 316/1/4 317/1/4
f 317/1/4 316/1/4 318/1/4
f 323/1/5 320/1/5 319/1/5
f 323/2/5 321/2/5 320/2/5
f 324/1/5 322/1/5 321/1/5
f 324/2/5 321/2/5 323/2/5
f 325/1/5 323/1/5 319/1/5
f 325/3/5 324/3/5 323/3/5
f 326/1/5 322/1/5 324/1/5
f 326/3/5 324/3/5 325/3/5
f 327/1/5 325/1/5 319/1/5
f 328/4/5 326/4/5 325/4/5
f 328/1/5 325/1/5 327/1/5
f 329/1/5 322/1/5 326/1/5
f 329/4/5 326/4/5 328/4/5
f 330/1/5 322/1/5 329/1/5
f 335/1/5 332/1/5 331/1/5
f 336/1/5 332/1/5 335/1/5
f 337/1/5 334/1/5 333/1/5
f 338/1/5 334/1/5 337/1/5
f 343/1/5 340/1/5 339/1/5
f 344/1/5 340/1/5 343/1/5
f 345/1/5 342/1/5 341/1/5
f 346/1/5 342/1/5 345/1/5
f 351/1/5 348/1/5 347/1/5
f 352/1/5 348/1/5 351/1/5
f 353/1/5 350/1/5 349/1/5
f 354/1/5 350/1/5 353/1/5
f 359/1/5 356/1/5 355/1/5
f 359/2/5 357/2/5 356/2/5
f 360/1/5 358/1/5 357/1/5
f 360/2/5 357/2/5 359/2/5
f 361/1/5 359/1/5 355/1/5
f 362/3/5 360/3/5 359/3/5
f 362/1/5 359/1/5 361/1/5
f 363/1/5 358/1/5 360/1/5
f 363/3/5 360/3/5 362/3/5
f 364/1/5 358/1/5 363/1/5
f 365/3/5 363/3/5 362/3/5
f 366/3/5 363/3/5 365/3/5
f 371/1/5 368/1/5 367/1/5
f 372/3/5 369/3/5 368/3/5
f 372/1/5 368/1/5 371/1/5
f 373/1/5 370/1/5 369/1/5
f 373/3/5 369/3/5 372/3/5
f 374/1/5 370/1/5 373/1/5
f 375/3/5 373/3/5 372/3/5
f 376/3/5 373/3/5 375/3/5
f 377/3/6 378/3/6 379/3/6
f 379/3/6 378/3/6 380/3/6
f 381/1/6 382/1/6 385/1/6
f 382/2/6 383/2/6 385/2/6
f 383/1/6 384/1/6 386/1/6
f 385/2/6 383/2/6 386/2/6
f 381/1/6 385/1/6 387/1/6
f 387/1/6 385/1/6 388/1/6
f 386/1/6 384/1/6 389/1/6
f 389/1/6 384/1/6 390/1/6
f 391/1/6 392/1/6 395/1/6
f 395/1/6 392/1/6 396/1/6
f 393/1/6 394/1/6 397/1/6
f 397/1/6 394/1/6 398/1/6
f 399/1/6 400/1/6 403/1/6
f 403/1/6 400/1/6 404/1/6
f 401/1/6 402/1/6 405/1/6
f 405/1/6 402/1/6 406/1/6
f 407/3/6 408/3/6 409/3/6
f 409/3/6 408/3/6 410/3/6
f 411/1/6 412/1/6 415/1/6
f 412/2/6 413/2/6 415/2/6
f 413/1/6 414/1/6 416/1/6
f 415/2/6 413/2/6 416/2/6
f 411/1/6 415/1/6 417/1/6
f 417/1/6 415/1/6 418/1/6
f 416/1/6 414/1/6 419/1/6
f 419/1/6 414/1/6 420/1/6
f 421/1/6 422/1/6 425/1/6
f 425/1/6 422/1/6 426/1/6
f 423/1/6 424/1/6 427/1/6
f 427/1/6 424/1/6 428/1/6
f 429/1/6 430/1/6 433/1/6
f 433/1/6 430/1/6 434/1/6
f 431/1/6 432/1/6 435/1/6
f 435/1/6 432/1/6 436/1/6
f 437/3/6 438/3/6 439/3/6
f 439/3/6 438/3/6 440/3/6
f 441/1/6 442/1/6 445/1/6
f 445/1/6 442/1/6 446/1/6
f 443/1/6 444/1/6 447/1/6
f 447/1/6 444/1/6 448/1/6
f 449/1/6 450/1/6 453/1/6
f 453/1/6 450/1/6 454/1/6
f 451/1/6 452/1/6 455/1/6
f 455/1/6 452/1/6 456/1/6
f 457/1/6 458/1/6 461/1/6
f 461/1/6 458/1/6 462/1/6
f 459/1/6 460/1/6 463/1/6
f 463/1/6 460/1/6 464/1/6
f 465/1/6 466/1/6 469/1/6
f 469/1/6 466/1/6 470/1/6
f 467/1/6 468/1/6 471/1/6
f 471/1/6 468/1/6 472/1/6
f 473/1/6 474/1/6 477/1/6
f 477/1/6 474/1/6 478/1/6
f 475/1/6 476/1/6 479/1/6
f 479/1/6 476/1/6 480/1/6
f 481/1/6 482/1/6 485/1/6
f 483/1/6 484/1/6 486/1/6
f 481/1/6 485/1/6 487/1/6
f 485/4/6 486/4/6 488/4/6
f 487/1/6 485/1/6 488/1/6
f 486/1/6 484/1/6 489/1/6
f 488/4/6 486/4/6 489/4/6
f 489/1/6 484/1/6 490/1/6
